<svg width="714" height="482" viewBox="0 0 714 482" fill="none" xmlns="http://www.w3.org/2000/svg">
<path d="M54.3785 406.56C71.8495 418.042 107.297 423.713 109.674 441.357C110.565 448.038 101.146 453.596 106.138 460.081C139.594 503.524 277.817 470.749 337.807 460.32C362.795 455.968 392.716 451.098 419.962 451.154C451.339 451.224 481.081 458.299 512.22 459.155C521.817 459.421 530.701 458.874 538.961 457.625C569.922 452.937 596.247 436.991 605.22 419.656C612.5 405.606 600.585 392.088 612.678 378.248C625.573 363.482 652.523 352.899 658.138 336.027C664.853 315.772 631.278 298.9 596.752 298.998C574.765 299.055 534.207 301.623 516.142 308.908C494.125 317.779 471.87 318.762 445.366 318.93C394.914 319.253 344.047 314.382 293.981 311.168C251.076 308.417 208.617 303.953 165.385 304.094C133.622 304.192 106.673 304.473 90.9844 322.453C72.2061 343.929 17.7726 382.473 54.3785 406.56Z" fill="white"/>
<path d="M655.334 160.408C637.801 135.994 602.228 123.937 599.842 86.4214C598.948 72.2151 608.4 60.3964 603.39 46.608C569.815 -45.7628 431.101 23.9256 370.898 46.1006C345.821 55.3526 315.794 65.7089 288.451 65.5895C256.963 65.4403 227.115 50.3983 195.865 48.5777C186.234 48.0107 177.318 49.1746 169.029 51.8309C137.958 61.7992 111.54 95.7033 102.534 132.562C95.229 162.437 107.186 191.178 95.0501 220.605C82.109 252.002 55.0639 274.506 49.4283 310.38C42.6893 353.446 76.3839 389.32 111.033 389.111C133.098 388.992 173.8 383.53 191.929 368.04C214.025 349.178 236.358 347.089 262.956 346.731C313.588 346.045 364.636 356.401 414.88 363.235C457.937 369.085 500.548 378.576 543.933 378.277C575.809 378.068 602.854 377.472 618.598 339.24C637.443 293.577 692.07 211.622 655.334 160.408Z" fill="#FFF7F7"/>
<path d="M553.015 331.599L553.014 331.598C549.738 328.776 549.896 323.669 553.366 321.049L553.369 321.046C565.65 311.614 596.645 294.006 649.4 302.404C658.037 303.785 669.016 302.474 679.693 300.223C690.382 297.969 700.824 294.761 708.405 292.311L708.408 292.31C711.132 291.413 713.278 294.757 711.313 296.887L711.312 296.888C670.857 341.001 635.826 353.573 608.685 353.206C581.526 352.838 562.149 339.512 553.015 331.599Z" fill="#FF7070" stroke="url(#paint0_linear_607_909)"/>
<path d="M552.166 328.229C551.675 327.946 551.404 327.342 551.533 326.761C551.71 326.037 552.445 325.599 553.128 325.787C588.363 334.413 620.238 330.312 640.794 325.362C663.046 319.979 677.114 312.49 677.251 312.431C677.9 312.082 678.727 312.318 679.076 312.968C679.424 313.617 679.187 314.445 678.538 314.794C678.386 314.878 664.028 322.511 641.451 327.982C620.61 333.008 588.276 337.188 552.516 328.397C552.387 328.323 552.269 328.289 552.166 328.229Z" fill="url(#paint1_linear_607_909)"/>
<path d="M699.083 186.256L699.085 186.252C699.186 186.019 698.925 185.829 698.739 185.98C698.738 185.981 698.738 185.981 698.737 185.981L698.42 185.595L699.083 186.256ZM699.083 186.256C694.803 196.38 678.768 232.282 653.387 265.823C627.986 299.388 593.331 330.45 551.831 331.157L551.83 331.157M699.083 186.256L551.83 331.157M551.83 331.157C549.667 331.199 548.238 328.941 549.19 326.986L549.191 326.985M551.83 331.157L549.191 326.985M549.191 326.985C556.187 312.549 581.034 268.075 636.555 230.67L549.191 326.985Z" fill="#FF7070" stroke="url(#paint2_linear_607_909)"/>
<path d="M548.069 327.931C547.889 327.827 547.712 327.656 547.602 327.489C547.213 326.851 547.409 326.034 548.047 325.644C612.537 286.164 664.965 225.591 666.957 222.261C667.193 221.673 667.842 221.324 668.489 221.457C669.213 221.634 669.664 222.342 669.502 223.041C668.848 225.903 613.646 288.597 549.42 327.918C548.989 328.187 548.483 328.17 548.069 327.931Z" fill="white"/>
<path d="M35.8552 10.5989L35.8552 10.5989L35.8516 10.5944C34.8441 9.35148 35.7486 7.47664 37.3928 7.49948C45.5552 7.66351 62.0553 8.30466 77.971 10.7617C85.9302 11.9905 93.7267 13.671 100.255 15.9659C106.799 18.2666 111.994 21.1598 114.834 24.7679C121.752 33.5705 123.396 47.2543 123.102 62.7184C122.955 70.4342 122.328 78.5581 121.651 86.6923C121.571 87.6558 121.491 88.6195 121.41 89.5826C120.81 96.7451 120.212 103.878 119.916 110.69C118.482 143.51 123.755 171.677 129.038 191.371C131.68 201.219 134.324 208.949 136.133 214.081C136.369 214.748 136.589 215.37 136.794 215.947C137.378 217.593 137.829 218.866 138.11 219.754C138.116 219.772 138.122 219.79 138.127 219.808C137.482 219.062 136.802 218.024 136.099 216.707C135.077 214.794 134.03 212.344 132.98 209.468C130.879 203.718 128.779 196.305 126.835 188.17C122.949 171.902 119.703 152.795 118.349 138.421L118.349 138.42C116.974 123.985 114.09 115.356 109.443 109.473C104.797 103.59 98.4365 100.52 90.3145 97.0892C74.1832 90.2454 58.0101 73.8464 56.5066 53.0445C55.9322 44.9526 52.3202 36.311 48.0956 28.7297C43.8658 21.1391 38.9951 14.5648 35.8552 10.5989Z" fill="#FF7070" stroke="url(#paint3_linear_607_909)"/>
<path d="M57.8585 19.9242C57.8585 19.9242 58.3356 20.0137 59.2301 20.2525C60.1247 20.4912 61.4068 20.8195 63.017 21.3866C64.6272 21.9238 66.5952 22.6102 68.7719 23.5354C70.9487 24.4606 73.4236 25.5649 75.9879 26.9676C78.5523 28.3703 81.2956 30.0118 84.0388 31.9518C86.7821 33.8917 89.585 36.1301 92.209 38.7266C94.833 41.3231 97.3378 44.248 99.5145 47.4713C101.691 50.6945 103.57 54.2163 105.001 57.9171L105.538 59.3198C105.717 59.7675 105.896 60.245 106.015 60.7225C106.313 61.6776 106.611 62.6027 106.88 63.5578C107.386 65.4082 107.864 67.2586 108.341 69.109C108.818 70.9594 109.295 72.78 109.742 74.6005C110.189 76.4211 110.607 78.2118 111.024 79.9726C111.859 83.4944 112.634 86.9266 113.32 90.1797C114.006 93.4328 114.632 96.5367 115.169 99.372C115.437 100.805 115.676 102.177 115.914 103.461C116.123 104.774 116.332 105.998 116.541 107.162C116.928 109.49 117.226 111.519 117.465 113.22C117.704 114.892 117.882 116.235 117.972 117.13C118.061 118.025 118.121 118.533 118.121 118.533C118.151 118.831 117.942 119.13 117.614 119.159C117.316 119.189 117.048 118.98 116.988 118.712C116.988 118.712 116.898 118.234 116.72 117.369C116.541 116.473 116.272 115.19 115.944 113.519C115.288 110.206 114.245 105.49 112.992 99.8495C112.336 97.0441 111.621 93.97 110.875 90.7468C110.07 87.5235 109.235 84.1211 108.4 80.6292C107.506 77.1374 106.552 73.5261 105.597 69.8253C105.09 67.9749 104.613 66.1245 104.106 64.2741C103.838 63.3787 103.57 62.4834 103.301 61.588C103.182 61.1403 103.033 60.6927 102.854 60.245L102.377 58.9318C99.6934 51.8883 95.3399 45.5612 90.3603 40.4875C87.8854 37.9506 85.2912 35.6824 82.6672 33.7126C80.073 31.7428 77.449 30.0417 74.9741 28.6091C72.4992 27.1765 70.1734 25.9529 68.0563 24.9382C65.9392 23.9234 64.0607 23.1474 62.5101 22.5505C60.9596 21.9536 59.7072 21.506 58.8425 21.2075C57.9778 20.9091 57.5305 20.7897 57.5305 20.7897C57.2919 20.73 57.1428 20.4614 57.2323 20.2226C57.4112 20.0137 57.6199 19.8645 57.8585 19.9242Z" fill="white"/>
<path d="M137.142 219.859C137.33 219.947 137.372 219.832 137.294 219.535C137.294 219.534 137.293 219.532 137.293 219.531C137.282 219.487 137.267 219.439 137.25 219.388C137.203 219.387 137.143 219.395 137.077 219.424C136.902 219.502 136.852 219.645 136.837 219.714L137.142 219.859ZM135.619 216.972C136.039 217.832 136.363 218.518 136.574 219.017C130.708 215.879 127.219 209.055 125.116 201.973C123.001 194.853 122.328 187.615 121.989 183.97C121.977 183.846 121.966 183.726 121.955 183.61L121.955 183.608C121.871 182.744 121.81 181.85 121.746 180.92C121.557 178.137 121.345 175.029 120.413 171.429C119.164 166.603 116.627 160.881 111.15 153.688C108.306 149.952 104.084 148.46 99.0209 148.33C93.9712 148.199 88.0189 149.419 81.6079 151.169C77.8301 152.2 73.8605 153.425 69.8059 154.677C66.9886 155.546 64.1302 156.428 61.2667 157.267C54.2593 159.319 47.1765 161.124 40.4135 161.91C29.907 163.129 21.254 159.213 14.5928 153.963C7.92661 148.71 3.28176 142.14 0.822542 138.121C0.0668519 136.876 0.707141 135.257 2.10118 134.896C5.66745 133.977 10.3659 131.432 16.4462 127.147C22.5381 122.853 30.0595 116.782 39.2785 108.764L39.2786 108.764C50.2946 99.1796 60.309 94.6613 69.7215 94.8261C79.1248 94.9908 88.0478 99.8323 96.8805 109.237C105.693 118.619 111.642 131.49 115.638 144.464C119.632 157.432 121.663 170.462 122.66 180.126C123.667 189.881 127.684 200.119 131.182 207.774C132.521 210.706 133.79 213.269 134.786 215.283C135.091 215.899 135.37 216.464 135.619 216.972Z" fill="#FF7070" stroke="url(#paint4_linear_607_909)"/>
<path d="M47.9861 131.757C47.9861 131.757 48.2545 131.488 48.7614 130.951C49.2683 130.414 50.0436 129.668 51.0574 128.772C53.0851 126.952 56.0669 124.445 60.0625 121.938C62.0603 120.684 64.2967 119.461 66.8014 118.356C69.3062 117.282 72.0494 116.357 75.0611 115.849C75.8065 115.7 76.5818 115.64 77.3272 115.551C77.7149 115.521 78.1025 115.521 78.4902 115.491C78.8778 115.461 79.2654 115.461 79.6531 115.461C80.0407 115.461 80.4283 115.491 80.8458 115.491L82.0385 115.611C82.4262 115.64 82.8436 115.7 83.2312 115.79C83.6487 115.879 84.0065 115.909 84.4538 116.028C87.3462 116.685 90.5367 117.73 93.3992 119.013C96.2916 120.386 99.0051 122.147 101.42 124.146C101.987 124.684 102.583 125.221 103.15 125.728C103.418 125.997 103.716 126.236 103.985 126.534L104.76 127.399C105.267 127.967 105.804 128.504 106.281 129.101C106.728 129.698 107.205 130.294 107.652 130.891C107.891 131.19 108.1 131.488 108.338 131.787C108.547 132.085 108.726 132.413 108.935 132.712C109.322 133.309 109.71 133.936 110.127 134.532C110.873 135.756 111.499 136.98 112.155 138.144C112.721 139.367 113.288 140.561 113.825 141.695C114.332 142.859 114.749 143.993 115.196 145.098C115.435 145.635 115.614 146.172 115.793 146.709C115.972 147.247 116.151 147.754 116.3 148.261C116.628 149.276 116.985 150.231 117.224 151.126C117.463 152.052 117.701 152.887 117.94 153.693C118.148 154.469 118.357 155.215 118.506 155.872C119.103 158.528 119.431 160.02 119.431 160.02C119.49 160.289 119.311 160.557 119.043 160.617C118.775 160.677 118.536 160.528 118.447 160.289V160.259C118.447 160.259 117.999 158.797 117.224 156.23C116.866 154.947 116.27 153.424 115.673 151.634C115.405 150.738 115.017 149.843 114.63 148.858C114.242 147.903 113.884 146.859 113.377 145.814C112.9 144.769 112.453 143.695 111.916 142.561C111.35 141.486 110.753 140.352 110.157 139.188C109.471 138.084 108.845 136.92 108.1 135.786C107.712 135.219 107.324 134.652 106.937 134.085C106.728 133.786 106.549 133.518 106.34 133.219C106.132 132.951 105.893 132.682 105.684 132.413C105.237 131.876 104.79 131.309 104.343 130.772C103.865 130.235 103.359 129.727 102.881 129.22L102.136 128.444C101.897 128.175 101.599 127.967 101.331 127.728C100.794 127.25 100.257 126.773 99.6909 126.295C97.3949 124.505 94.8603 122.923 92.2065 121.639C89.4632 120.446 86.7796 119.55 83.7382 118.894C82.4262 118.625 80.9949 118.386 79.5934 118.416C79.2356 118.386 78.9076 118.386 78.5498 118.416C78.192 118.416 77.864 118.446 77.5061 118.446C76.8203 118.535 76.1345 118.565 75.4487 118.685C72.7352 119.073 70.1411 119.849 67.7556 120.804C65.3702 121.729 63.1636 122.833 61.1956 123.937C59.1978 125.042 57.4385 126.146 55.888 127.191C54.3374 128.205 53.0254 129.19 51.9818 129.966C50.9083 130.772 50.1032 131.429 49.5367 131.876C49 132.324 48.7018 132.563 48.7018 132.563H48.672C48.4632 132.742 48.1352 132.712 47.9265 132.503C47.7774 132.264 47.8072 131.966 47.9861 131.757Z" fill="url(#paint5_linear_607_909)"/>
<path d="M500.035 45.7293L496.552 101.284H517.338V47.2868C517.338 45.7292 516.338 44.3571 514.893 43.8379C512.151 42.9107 507.445 41.724 502.851 42.5399C501.294 42.8365 500.146 44.1346 500.035 45.7293Z" fill="url(#paint6_linear_607_909)"/>
<path d="M473.985 45.467L476.282 101.207H495.994L497.476 44.8366C497.513 43.279 496.513 41.8697 495.031 41.4247C488.621 39.4962 482.248 39.3108 475.986 42.2035C474.726 42.7969 473.911 44.0578 473.985 45.467Z" fill="#FF7070"/>
<path d="M479.279 83.3723L479.427 85.3008C479.464 85.8941 479.983 86.3392 480.575 86.3021L490.913 85.7087C491.469 85.6716 491.876 85.2637 491.913 84.7074L492.025 83.3723C492.062 82.7419 491.58 82.2227 490.95 82.2227H480.39C479.723 82.2227 479.204 82.7419 479.279 83.3723Z" fill="white"/>
<path d="M479.688 88.0074V88.712C479.688 89.2683 480.133 89.7133 480.689 89.6762L490.582 89.2683C491.101 89.2312 491.508 88.8233 491.508 88.3041V87.5624C491.508 87.0061 491.063 86.561 490.508 86.5981L480.615 87.0431C480.096 87.0802 479.688 87.5253 479.688 88.0074Z" fill="white"/>
<path d="M493.212 45.6906C492.805 45.2456 492.286 45.0231 491.73 45.0601L479.688 45.6164C478.614 45.6535 477.762 46.6548 477.762 47.8787L478.392 75.5817C478.429 76.7314 479.244 77.6585 480.281 77.7327L490.915 78.4002C491.471 78.4373 491.99 78.2148 492.36 77.8069C492.768 77.3989 492.99 76.8426 492.99 76.2493L493.805 47.3224C493.842 46.729 493.62 46.1356 493.212 45.6906Z" fill="white"/>
<path d="M502.702 85.4822L502.813 87.4107C502.85 88.0041 503.295 88.4491 503.777 88.412L512.595 87.8186C513.04 87.7815 513.41 87.3736 513.448 86.8173L513.522 85.4822C513.559 84.8518 513.151 84.3326 512.595 84.3326H503.592C503.11 84.2955 502.665 84.8518 502.702 85.4822Z" fill="#FF7070"/>
<path d="M503.069 90.1204V90.825C503.069 91.3813 503.44 91.8263 503.921 91.7893L512.369 91.3813C512.814 91.3442 513.148 90.9363 513.148 90.4171V89.6754C513.148 89.1191 512.74 88.6741 512.295 88.7111L503.847 89.1562C503.403 89.1933 503.069 89.6012 503.069 90.1204Z" fill="#FF7070"/>
<path d="M512.483 47.0979L505.628 46.3192C504.887 46.245 504.146 46.4675 503.59 46.9496C503.034 47.4317 502.701 48.1364 502.664 48.8781L501.849 75.5427C501.812 76.2844 502.108 76.9891 502.627 77.5083C503.146 78.0275 503.85 78.3242 504.591 78.2871L511.112 78.1016C512.52 78.0646 513.668 76.952 513.706 75.5427L514.854 49.8423C514.928 48.4701 513.891 47.2463 512.483 47.0979Z" fill="#FF7070"/>
<path d="M545.274 45.7293L541.791 101.284H562.577V47.2868C562.577 45.7292 561.577 44.3571 560.132 43.8379C557.39 42.9107 552.684 41.724 548.09 42.5399C546.534 42.8365 545.348 44.1346 545.274 45.7293Z" fill="url(#paint7_linear_607_909)"/>
<path d="M519.224 45.467L521.522 101.207H541.233L542.716 44.8366C542.753 43.279 541.752 41.8697 540.27 41.4247C533.86 39.4962 527.487 39.3108 521.225 42.2035C519.965 42.7969 519.15 44.0578 519.224 45.467Z" fill="#FF7070"/>
<path d="M524.483 83.3723L524.632 85.3008C524.669 85.8941 525.187 86.3392 525.78 86.3021L536.118 85.7087C536.674 85.6716 537.081 85.2637 537.118 84.7074L537.229 83.3723C537.267 82.7419 536.785 82.2227 536.155 82.2227H525.595C524.928 82.2227 524.446 82.7419 524.483 83.3723Z" fill="white"/>
<path d="M524.928 88.0074V88.712C524.928 89.2683 525.372 89.7133 525.928 89.6762L535.821 89.2683C536.34 89.2312 536.747 88.8233 536.747 88.3041V87.5624C536.747 87.0061 536.303 86.561 535.747 86.5981L525.854 87.0431C525.335 87.0802 524.928 87.5253 524.928 88.0074Z" fill="white"/>
<path d="M538.452 45.6906C538.044 45.2456 537.526 45.0231 536.97 45.0601L524.928 45.6164C523.853 45.6535 523.001 46.6548 523.001 47.8787L523.631 75.5817C523.668 76.7314 524.483 77.6585 525.521 77.7327L536.155 78.4002C536.71 78.4373 537.229 78.2148 537.6 77.8069C538.007 77.3989 538.229 76.8426 538.229 76.2493L539.045 47.3224C539.082 46.729 538.859 46.1356 538.452 45.6906Z" fill="white"/>
<path d="M547.942 85.4822L548.053 87.4107C548.09 88.0041 548.535 88.4491 549.016 88.412L557.835 87.8186C558.279 87.7815 558.65 87.3736 558.687 86.8173L558.761 85.4822C558.798 84.8518 558.391 84.3326 557.835 84.3326H548.831C548.312 84.2955 547.905 84.8518 547.942 85.4822Z" fill="#FF7070"/>
<path d="M548.309 90.1204V90.825C548.309 91.3813 548.679 91.8263 549.161 91.7893L557.609 91.3813C558.053 91.3442 558.387 90.9363 558.387 90.4171V89.6754C558.387 89.1191 557.979 88.6741 557.535 88.7111L549.087 89.1562C548.642 89.1933 548.309 89.6012 548.309 90.1204Z" fill="#FF7070"/>
<path d="M557.722 47.0979L550.867 46.3192C550.126 46.245 549.385 46.4675 548.83 46.9496C548.274 47.4317 547.94 48.1364 547.903 48.8781L547.088 75.5427C547.051 76.2844 547.347 76.9891 547.866 77.5083C548.385 78.0275 549.089 78.3242 549.83 78.2871L556.351 78.1016C557.759 78.0646 558.908 76.952 558.945 75.5427L560.093 49.8423C560.168 48.4701 559.13 47.2463 557.722 47.0979Z" fill="#FF7070"/>
<path d="M580.103 101.208C580.103 99.5765 578.769 98.2415 577.139 98.2415H461.165C459.535 98.2415 458.201 99.5765 458.201 101.208V103.619C458.201 105.251 459.535 106.586 461.165 106.586H577.139C578.769 106.586 580.103 105.251 580.103 103.619V101.208Z" fill="url(#paint8_linear_607_909)"/>
<path d="M567.043 214.965C565.969 214.965 564.926 214.547 564.15 213.801C563.316 212.995 562.809 211.89 562.809 210.727V185.269C562.809 184.522 563.405 183.926 564.15 183.926C564.896 183.926 565.492 184.522 565.492 185.269V210.727C565.492 211.174 565.671 211.562 565.969 211.861C566.297 212.159 566.685 212.308 567.132 212.278L597.278 210.488C598.113 210.428 598.74 209.742 598.74 208.936V183.955C598.74 183.508 598.561 183.09 598.233 182.791C597.905 182.493 597.487 182.344 597.04 182.403L571.963 184.881C571.158 184.97 570.8 185.537 570.71 185.806C570.591 186.045 570.382 186.701 570.86 187.358L580.431 200.549C580.729 200.967 581.177 201.176 581.684 201.206C582.19 201.236 582.638 200.997 582.936 200.579L593.462 186.522C593.909 185.925 594.744 185.806 595.34 186.253C595.937 186.701 596.056 187.537 595.609 188.134L585.083 202.191C584.278 203.265 583.055 203.892 581.713 203.892H581.684C580.342 203.892 579.089 203.235 578.284 202.131L568.713 188.94C567.818 187.686 567.639 186.134 568.295 184.731C568.921 183.329 570.204 182.403 571.724 182.254L596.801 179.777C597.994 179.658 599.187 180.046 600.052 180.851C600.946 181.657 601.453 182.791 601.453 183.985V208.966C601.453 211.204 599.694 213.054 597.487 213.174L567.341 214.965C567.222 214.965 567.132 214.965 567.043 214.965Z" fill="#FF7070"/>
<path d="M418.754 126.767C398.884 111.933 372.107 100.674 347.832 104.092C347.773 104.099 347.716 104.122 347.667 104.157C347.619 104.192 347.58 104.24 347.555 104.294C347.53 104.349 347.519 104.409 347.524 104.469C347.529 104.528 347.549 104.586 347.582 104.636C333.514 110.194 335.541 109.472 335.118 109.376C321.539 106.513 307.439 107.351 294.295 111.804C293.302 112.137 292.29 112.457 291.333 112.88C290.937 113.028 290.588 113.28 290.322 113.608C290.055 113.936 289.881 114.33 289.817 114.748C289.646 115.814 289.713 113.773 291.206 139.062C291.206 139.161 291.244 139.256 291.313 139.327C291.382 139.398 291.476 139.44 291.575 139.443C301.31 139.894 310.837 142.416 319.52 146.841C328.482 151.407 335.136 158.511 343.979 158.275C348.987 158.142 353.785 156.175 358.825 157.185C361.223 157.665 363.524 158.533 365.902 159.089C378.222 161.969 384.483 151.474 398.336 149.787C404.96 148.979 406.838 150.704 408.208 148.812C408.605 148.268 416.557 131.94 418.895 127.295C418.944 127.206 418.956 127.101 418.93 127.003C418.904 126.904 418.841 126.82 418.754 126.767ZM376.116 129.99C376.06 130.483 375.896 130.956 375.635 131.378C375.375 131.799 375.026 132.158 374.611 132.429C374.196 132.7 373.727 132.877 373.237 132.946C372.746 133.016 372.247 132.976 371.773 132.831C369.33 138.327 366.215 144.126 360.856 146.924C359.485 147.814 357.87 148.252 356.238 148.178C354.606 148.104 353.037 147.521 351.752 146.512C350.495 145.414 349.302 144.245 348.179 143.01C345.829 140.39 344.872 137.883 340.615 129.046C338.221 129.282 335.898 127.092 336.18 123.67C336.178 122.747 336.534 121.858 337.173 121.191C337.535 120.882 337.988 120.698 338.463 120.667C339.755 118.73 350.174 116.514 356.471 104.787C356.515 104.713 356.576 104.651 356.648 104.604C356.72 104.557 356.802 104.527 356.887 104.516C356.972 104.506 357.059 104.514 357.141 104.541C357.222 104.569 357.297 104.614 357.358 104.674C368.496 114.873 366.761 116.236 371.509 120.85C372.714 121.825 373.676 123.066 374.32 124.476C374.705 125.117 375.69 124.772 376.063 126.161C376.325 127.423 376.343 128.722 376.116 129.99Z" fill="url(#paint9_linear_607_909)"/>
<path d="M359.252 89.2645C357.787 89.8044 357.293 90.4158 356.87 90.5011C356.789 90.4654 356.709 90.4277 356.63 90.388C355.3 89.6538 353.819 89.2336 352.302 89.1596C350.785 89.0856 349.271 89.3598 347.876 89.9612C340.182 93.0638 332.831 103.684 334.221 113.075C334.355 114.142 334.597 115.193 334.945 116.211C335.299 117.041 335.402 119.204 336.313 120.226C335.576 120.902 335.048 121.775 334.794 122.742C334.539 123.709 334.567 124.728 334.876 125.679C334.968 126.728 335.398 127.718 336.101 128.502C336.803 129.285 337.74 129.82 338.773 130.026C341.214 130.275 339.499 127.881 341.339 132.805C343.757 139.265 349.21 149.039 356.141 149.632C358.885 149.579 361.514 148.519 363.527 146.655C367.413 143.264 370.353 138.925 372.063 134.06C372.535 134.203 373.032 134.24 373.52 134.168C374.008 134.096 374.474 133.917 374.884 133.643C376.095 132.703 376.946 131.375 377.293 129.881C377.64 128.388 377.462 126.821 376.789 125.443C376.357 124.848 376.406 125.36 377.033 124.562C378.232 122.778 379.156 120.824 379.775 118.766C385.392 100.698 368.428 85.8761 359.252 89.2645ZM339.261 128.266C338.197 128.45 337.347 127.472 336.932 126.376C336.21 124.464 336.138 121.723 338.114 121.187C339.265 121.368 338.376 120.461 339.279 125.374C339.457 126.344 339.668 127.306 339.912 128.262C339.697 128.219 339.475 128.221 339.261 128.266ZM370.459 133.171C368.301 138.439 365.83 143.197 361.143 146.24C359.936 147.113 358.54 147.689 357.068 147.921C351.113 148.344 345.754 139.15 343.425 133.723C341.759 129.691 340.656 125.449 340.148 121.116C346.713 120.056 351.332 114.565 355.447 109.837C355.969 109.242 357.451 107.524 357.666 107.257C361.886 116.521 367.698 122.158 373.113 124.935C372.461 127.75 371.573 130.505 370.459 133.171ZM372.678 132.518C373.537 130.313 374.243 128.052 374.792 125.751C377.347 125.973 375.527 133.266 372.678 132.518Z" fill="#191919"/>
<path d="M346.224 124.004C346.565 122.346 348.961 122.295 349.833 125.145C349.938 125.51 350.064 125.868 350.208 126.219C350.285 126.348 350.402 126.449 350.541 126.506C350.681 126.562 350.835 126.572 350.98 126.533C352.03 126.249 351.178 124.151 350.652 123.301C348.63 120.054 344.801 121.616 345.182 124.006C345.265 124.532 346.119 124.508 346.224 124.004Z" fill="#191919"/>
<path d="M362.147 125.713C362.294 125.421 362.463 125.144 362.63 124.862C362.796 124.58 362.909 124.266 363.086 123.978C363.719 122.964 364.896 122.289 365.851 123.016C366.131 123.24 366.444 123.42 366.778 123.55C367.302 123.736 367.888 122.257 366.244 121.481C365.472 121.177 364.615 121.171 363.838 121.464C363.062 121.758 362.423 122.33 362.046 123.069C361.556 123.782 361.311 124.635 361.347 125.499C361.35 125.592 361.383 125.681 361.441 125.754C361.499 125.826 361.578 125.879 361.668 125.903C361.757 125.927 361.852 125.921 361.939 125.887C362.025 125.853 362.098 125.792 362.147 125.713Z" fill="#191919"/>
<path d="M357.287 132.437C356.527 131.709 355.946 132.118 355.034 131.266C354.896 131.14 354.775 130.995 354.675 130.836C354.772 130.683 354.884 130.538 354.983 130.387C356.499 128.158 357.1 125.432 356.66 122.772C356.537 122.197 355.705 122.366 355.668 122.905C355.651 125.517 354.812 128.056 353.272 130.165C352.353 131.951 356.063 134.45 357.281 133.039C357.36 132.959 357.405 132.852 357.406 132.739C357.407 132.627 357.365 132.519 357.287 132.437Z" fill="#191919"/>
<path d="M356.177 140.91C357.342 143.669 362.384 143.373 362.116 138.008C362.09 137.528 362.116 137.016 361.691 136.71C361.592 136.652 361.477 136.628 361.363 136.643C361.249 136.657 361.143 136.708 361.062 136.789C360.649 137.238 360.961 137.675 360.863 139.086C360.665 141.913 358.011 142.133 356.931 140.475C356.869 140.385 356.775 140.321 356.668 140.297C356.561 140.273 356.449 140.29 356.353 140.345C356.258 140.399 356.187 140.488 356.155 140.593C356.122 140.698 356.13 140.811 356.177 140.91Z" fill="#191919"/>
<path d="M285.669 114.832C267.681 114.114 247.041 115.862 232.644 126.796C223.618 133.65 215.849 144.859 211.071 155.181C210.742 155.891 210.482 156.631 210.295 157.39C210.264 157.568 210.295 157.75 210.381 157.908C210.468 158.066 210.606 158.189 210.772 158.258C210.938 158.328 211.123 158.338 211.296 158.289C211.469 158.239 211.62 158.133 211.724 157.986C212.984 156.088 219.594 140.149 232.215 129.632C247.529 116.871 267.173 117.194 285.669 115.592C285.762 115.581 285.847 115.536 285.909 115.466C285.971 115.396 286.005 115.306 286.005 115.212C286.005 115.119 285.971 115.029 285.909 114.959C285.847 114.889 285.762 114.844 285.669 114.832Z" fill="#191919"/>
<path d="M214.45 163.398C214.648 163.231 237.513 143.455 245.382 139.904C250.043 138.191 254.946 137.225 259.908 137.041C282.303 134.771 282.444 135.904 286.449 135.017C286.539 134.99 286.618 134.935 286.674 134.86C286.731 134.785 286.761 134.694 286.761 134.6C286.761 134.506 286.731 134.415 286.674 134.34C286.618 134.265 286.539 134.21 286.449 134.183C282.124 133.129 266.173 134.743 261.687 135.187C250.763 136.267 246.634 136.466 239.683 141.428C230.537 147.884 221.864 154.985 213.731 162.678C213.263 163.154 213.953 163.801 214.45 163.398Z" fill="#191919"/>
<path d="M232.362 193.331C230.901 188.94 226.629 186.489 222.635 184.097C220.164 182.618 220.398 182.884 220.65 182.791C221.084 182.637 221.47 182.373 221.771 182.025C222.073 181.677 222.278 181.257 222.367 180.806C222.542 179.111 222.168 177.405 221.301 175.938C216.122 164.84 198.587 157.478 185.107 163.927C159.546 176.167 166.261 220.164 194.968 219.202C199.222 219.059 203.805 218.386 207.136 215.706C207.697 215.171 208.191 214.572 208.609 213.919C218.248 215.758 225.192 215.688 229.736 207.125C232.012 202.843 233.89 197.958 232.362 193.331ZM231.026 197.16C230.545 201.465 228.951 205.569 226.401 209.07C223.517 212.661 219.443 213.483 214.862 213.157C208.311 212.691 197.229 209.453 196.917 209.503C194.42 208.288 192.297 206.422 190.771 204.101C189.245 201.78 188.374 199.091 188.249 196.316C187.868 188.885 190.579 182.435 197.852 180.172C204.985 177.955 211.958 180.631 218.516 184.204C221.475 185.772 224.326 187.534 227.052 189.478C228.326 190.301 229.364 191.443 230.061 192.79C230.758 194.138 231.091 195.644 231.026 197.16Z" fill="#191919"/>
<path d="M196.055 197.167C196.408 196.571 195.727 196.015 195.168 196.279C194.549 196.537 194.026 196.98 193.671 197.548C193.242 198.308 193.03 199.172 193.058 200.044C193.086 200.916 193.352 201.765 193.828 202.496C193.95 202.713 194.113 202.903 194.309 203.056C194.504 203.209 194.728 203.321 194.967 203.388C195.141 203.433 195.324 203.433 195.498 203.386C195.672 203.339 195.831 203.247 195.958 203.12C196.085 202.993 196.177 202.834 196.224 202.66C196.271 202.486 196.272 202.303 196.226 202.129C195.686 201.422 195.38 200.564 195.349 199.675C195.319 198.786 195.565 197.909 196.055 197.167Z" fill="#191919"/>
<path d="M200.662 186.464C200.71 186.634 200.818 186.781 200.966 186.877C201.114 186.974 201.292 187.014 201.467 186.989C201.642 186.965 201.802 186.879 201.918 186.746C202.035 186.613 202.099 186.442 202.099 186.265C202.125 185.768 202.255 185.282 202.479 184.838C202.703 184.394 203.017 184.001 203.401 183.685C204.457 182.994 204.932 183.238 205.466 182.772C205.914 182.375 205.936 182.005 205.757 181.73C204.457 179.727 199.35 182.792 200.662 186.464Z" fill="#191919"/>
<path d="M204.052 202.225C203.631 201.957 203.357 202.197 202.619 201.707C202.335 201.421 202.222 201.163 202.714 200.705C202.98 200.524 203.006 200.54 203.617 200.419C203.736 200.425 203.853 200.391 203.951 200.323C204.049 200.255 204.121 200.157 204.157 200.044C204.193 199.93 204.19 199.808 204.149 199.696C204.108 199.585 204.031 199.49 203.931 199.426C203.701 199.305 203.446 199.237 203.186 199.228C202.81 199.25 202.443 199.359 202.116 199.546C201.789 199.734 201.509 199.995 201.301 200.31C201.16 200.541 201.067 200.799 201.026 201.066C200.986 201.334 200.998 201.607 201.063 201.87C201.128 202.133 201.245 202.381 201.406 202.599C201.567 202.817 201.769 203.001 202.001 203.14C202.553 203.503 203.206 203.682 203.865 203.65C204.009 203.605 204.136 203.519 204.233 203.403C204.33 203.287 204.392 203.147 204.411 202.997C204.431 202.848 204.407 202.696 204.344 202.559C204.28 202.422 204.179 202.306 204.052 202.225Z" fill="#191919"/>
<path d="M208.588 190.965C208.694 190.964 208.798 190.931 208.886 190.872C208.974 190.812 209.043 190.728 209.084 190.63C209.124 190.532 209.135 190.424 209.115 190.319C209.095 190.215 209.045 190.118 208.971 190.042C208.177 189.383 207.838 188.528 208.376 188.022C209.195 187.521 210.321 188.176 210.543 187.19C210.575 187.086 210.586 186.977 210.574 186.869C210.562 186.762 210.529 186.657 210.475 186.563C210.422 186.469 210.349 186.386 210.263 186.321C210.176 186.256 210.077 186.209 209.972 186.183C209.224 186.053 208.455 186.158 207.77 186.483C207.359 186.746 207.035 187.126 206.839 187.574C206.644 188.022 206.587 188.518 206.675 188.999C206.762 189.479 206.991 189.923 207.332 190.273C207.673 190.624 208.11 190.864 208.588 190.965Z" fill="#191919"/>
<path d="M215.565 198.878C216.034 198.154 216.247 197.294 216.169 196.434C216.091 195.575 215.726 194.767 215.134 194.14C215.039 194.05 214.919 193.99 214.79 193.966C214.661 193.943 214.528 193.957 214.407 194.007C214.286 194.057 214.181 194.141 214.107 194.249C214.032 194.356 213.99 194.483 213.985 194.614C213.995 195.766 215.055 196.788 214.251 197.85C214.064 198.017 214.062 198.072 213.804 198.134C213.276 198.106 213.147 197.866 211.931 197.032C208.547 194.643 204.585 193.203 200.457 192.864C200.323 192.869 200.196 192.921 200.096 193.011C199.997 193.101 199.933 193.223 199.914 193.355C199.896 193.488 199.925 193.623 199.997 193.736C200.068 193.849 200.177 193.934 200.304 193.975C202.999 194.632 205.622 195.555 208.133 196.732C211.686 198.555 212.302 199.827 213.755 199.813C214.107 199.803 214.453 199.714 214.766 199.552C215.08 199.39 215.353 199.16 215.565 198.878Z" fill="#191919"/>
<path d="M220.453 192.766C220.036 192.694 218.696 193.04 218.631 193.627C218.222 197.243 217.136 200.75 215.431 203.965C215.317 204.165 215.286 204.401 215.344 204.624C215.402 204.846 215.545 205.037 215.742 205.156C217.22 206.066 218.96 206.454 220.684 206.259C222.408 206.064 224.017 205.297 225.254 204.08C229.187 199.773 226.265 193.774 220.453 192.766ZM225.243 200.184C225.086 201.02 224.736 201.809 224.22 202.486C223.704 203.163 223.037 203.71 222.272 204.083C221.506 204.455 220.664 204.644 219.813 204.633C218.962 204.622 218.125 204.411 217.37 204.019C218.603 201.679 219.403 199.136 219.732 196.511C219.804 195.785 219.794 195.052 219.702 194.328C219.957 194.473 225.572 195.273 225.243 200.184Z" fill="#191919"/>
<path d="M283.207 103.61C286.185 103.248 293.885 100.789 301.926 102.899C302.686 103.204 303.505 103.335 304.322 103.282C304.416 103.279 304.507 103.248 304.584 103.195C304.661 103.141 304.721 103.067 304.757 102.98C304.793 102.893 304.803 102.798 304.787 102.705C304.77 102.613 304.727 102.527 304.663 102.458C304.451 102.16 304.142 101.945 303.788 101.851C298.726 99.6178 287.674 100.4 282.934 102.597C282.834 102.66 282.757 102.752 282.714 102.862C282.671 102.971 282.664 103.092 282.695 103.205C282.726 103.319 282.792 103.419 282.884 103.492C282.977 103.565 283.09 103.606 283.207 103.61Z" fill="#191919"/>
<path d="M249.373 232.144C245.723 227.343 237.646 224.131 231.725 222.898C231.483 222.839 231.227 222.876 231.012 223.002C230.797 223.128 230.64 223.333 230.574 223.573C230.508 223.813 230.538 224.07 230.658 224.288C230.778 224.507 230.978 224.669 231.216 224.742C236.272 225.742 241.065 227.778 245.294 230.723C252.468 236.083 250.195 244.221 242.686 244.042C237.128 243.906 232.665 238.683 226.315 233.393C226.192 233.27 226.025 233.201 225.85 233.201C225.676 233.201 225.509 233.271 225.385 233.394C225.262 233.517 225.193 233.685 225.193 233.859C225.194 234.034 225.263 234.201 225.386 234.324C226.817 236.044 228.392 237.64 230.095 239.092C232.948 242.068 236.482 244.305 240.393 245.611C242.053 246.069 243.806 246.066 245.464 245.604C247.123 245.142 248.624 244.237 249.808 242.986C250.954 241.389 251.533 239.455 251.455 237.491C251.376 235.526 250.643 233.645 249.373 232.144ZM241.703 243.975C241.773 243.975 241.773 243.975 241.703 243.975V243.975Z" fill="#191919"/>
<path d="M258.58 197.207C254.514 195.362 250.046 194.577 245.594 194.924C245.463 194.918 245.332 194.939 245.209 194.985C245.086 195.031 244.973 195.102 244.878 195.192C244.783 195.283 244.708 195.392 244.656 195.513C244.604 195.634 244.578 195.764 244.578 195.896C244.578 196.027 244.604 196.157 244.656 196.278C244.708 196.399 244.783 196.508 244.878 196.599C244.973 196.69 245.086 196.76 245.209 196.806C245.332 196.852 245.463 196.873 245.594 196.867C250.557 196.744 255.632 196.949 259.549 200.006C264.44 203.827 264.009 209.266 261.178 211.014C255.62 214.448 244.163 204.251 242.279 203.058C242.138 202.976 241.972 202.948 241.812 202.979C241.651 203.011 241.508 203.099 241.408 203.228C241.308 203.358 241.259 203.519 241.269 203.682C241.279 203.845 241.348 203.999 241.463 204.114C242.072 204.846 242.767 205.501 243.532 206.066C247.915 209.698 255.819 215.159 261.113 213.055C266.762 210.802 266.804 201.574 258.58 197.207Z" fill="#191919"/>
<path d="M249.771 200.782C249.572 202.37 249.328 203.948 249.199 205.546C249.202 205.728 249.259 205.906 249.362 206.057C249.464 206.207 249.609 206.325 249.778 206.395C249.946 206.465 250.132 206.483 250.311 206.449C250.491 206.415 250.656 206.329 250.787 206.203C251.581 205.335 252.353 204.472 253.133 203.602C253.187 205.27 252.854 206.961 253.562 207.787C253.67 207.912 253.803 208.015 253.952 208.087C254.101 208.16 254.263 208.201 254.429 208.209C254.595 208.216 254.76 208.19 254.915 208.132C255.07 208.073 255.212 207.983 255.331 207.868C256.009 206.999 256.599 206.065 257.092 205.079C257.441 204.559 257.751 204.014 258.019 203.447C258.07 203.259 258.058 203.059 257.985 202.878C257.911 202.697 257.779 202.546 257.611 202.448C257.442 202.349 257.245 202.31 257.052 202.335C256.858 202.36 256.678 202.448 256.54 202.586C255.968 203.359 255.448 204.169 254.982 205.01C255.132 203.692 254.962 202.357 254.485 201.119C254.413 200.995 254.313 200.888 254.193 200.808C254.073 200.729 253.936 200.677 253.793 200.658C253.651 200.639 253.505 200.652 253.369 200.698C253.232 200.743 253.107 200.82 253.004 200.92C252.386 201.603 251.772 202.289 251.162 202.977C251.178 202.244 251.184 201.514 251.202 200.78C251.202 200.686 251.183 200.593 251.147 200.506C251.111 200.419 251.058 200.34 250.992 200.274C250.925 200.207 250.846 200.155 250.759 200.119C250.673 200.083 250.579 200.065 250.486 200.065C250.392 200.065 250.299 200.084 250.212 200.12C250.125 200.156 250.046 200.209 249.98 200.275C249.913 200.342 249.861 200.421 249.825 200.508C249.789 200.594 249.771 200.688 249.771 200.782Z" fill="#191919"/>
<path d="M236.477 232.425C236.475 232.253 236.411 232.088 236.298 231.959C236.184 231.83 236.028 231.746 235.858 231.723C235.686 231.695 235.509 231.732 235.363 231.826C235.216 231.921 235.11 232.066 235.064 232.235C234.768 233.87 234.58 235.523 234.5 237.183C234.505 237.361 234.561 237.533 234.661 237.679C234.761 237.825 234.902 237.939 235.066 238.007C235.23 238.075 235.41 238.094 235.584 238.061C235.758 238.029 235.92 237.947 236.048 237.824C236.723 237.088 237.396 236.346 238.067 235.605L238.337 239.331C238.341 239.496 238.387 239.658 238.471 239.8C238.555 239.941 238.675 240.059 238.818 240.142C238.961 240.224 239.123 240.268 239.288 240.269C239.453 240.27 239.616 240.229 239.76 240.149C241.318 239.293 241.823 237.513 242.684 236.352C243.051 235.921 243.367 235.704 243.204 235.824C243.396 235.691 243.53 235.491 243.58 235.264C243.63 235.037 243.593 234.799 243.475 234.598C243.357 234.397 243.168 234.248 242.945 234.181C242.722 234.114 242.482 234.133 242.273 234.236C241.308 234.976 240.546 235.947 240.056 237.06L239.782 233.348C239.779 233.163 239.722 232.983 239.618 232.83C239.514 232.678 239.368 232.558 239.197 232.487C239.026 232.417 238.838 232.397 238.657 232.432C238.475 232.466 238.307 232.553 238.174 232.681C237.601 233.321 237.031 233.966 236.463 234.609C236.513 233.876 236.491 233.154 236.477 232.425Z" fill="#191919"/>
<path d="M337.17 159.45C337.215 159.283 337.198 159.105 337.122 158.95C337.046 158.794 336.916 158.671 336.757 158.604C336.597 158.537 336.419 158.53 336.254 158.584C336.09 158.638 335.95 158.75 335.862 158.898C333.395 163.791 331.793 177.815 333.214 180.082C333.261 180.16 333.327 180.224 333.407 180.269C333.486 180.313 333.575 180.337 333.666 180.337C333.756 180.337 333.846 180.313 333.925 180.269C334.004 180.224 334.07 180.16 334.117 180.082C334.211 179.918 334.29 179.747 334.355 179.57C334.395 179.417 334.425 178.145 334.421 177.982C334.324 171.696 335.253 165.437 337.17 159.45Z" fill="#191919"/>
<path d="M347.295 160.089C347.344 159.438 346.324 159.315 346.169 159.936C344.412 166.979 348.551 175.774 347.457 183.315C347.295 184.443 346.89 185.414 347.259 186.011C347.345 186.149 347.48 186.249 347.637 186.29C347.795 186.331 347.962 186.311 348.104 186.233C348.781 185.912 348.99 184.504 349.097 183.768C350.256 176.025 346.606 169.143 347.295 160.089Z" fill="#191919"/>
<path d="M343.536 180.428C343.575 181.561 343.47 182.695 343.225 183.802C343.111 184.219 343.065 184.651 343.088 185.083C343.229 186.171 345.325 186.704 344.713 180.434C344.692 180.293 344.622 180.165 344.514 180.072C344.407 179.978 344.27 179.927 344.127 179.926C343.985 179.925 343.847 179.976 343.739 180.068C343.631 180.16 343.559 180.287 343.536 180.428Z" fill="#191919"/>
<path d="M340.672 180.655C339.828 183.763 339.82 183.632 339.93 184.407C339.965 184.513 340.029 184.607 340.116 184.679C340.202 184.75 340.307 184.796 340.418 184.81C340.529 184.825 340.642 184.808 340.744 184.761C340.846 184.714 340.932 184.639 340.994 184.545C341.351 184.037 341.343 183.934 341.942 181.002C341.981 180.836 341.954 180.662 341.866 180.516C341.779 180.369 341.639 180.263 341.474 180.218C341.31 180.173 341.135 180.193 340.985 180.275C340.836 180.356 340.723 180.492 340.672 180.655Z" fill="#191919"/>
<path d="M337.017 179.494C336.839 179.468 336.657 179.508 336.506 179.606C336.355 179.705 336.245 179.856 336.198 180.03C335.801 182.303 335.574 183.017 335.987 183.988C336.017 184.081 336.073 184.165 336.148 184.228C336.223 184.29 336.315 184.331 336.412 184.343C336.509 184.356 336.608 184.341 336.697 184.299C336.786 184.258 336.861 184.192 336.914 184.109C337.549 183.263 337.522 182.305 337.668 180.23C337.667 180.05 337.601 179.875 337.481 179.74C337.361 179.604 337.197 179.517 337.017 179.494Z" fill="#191919"/>
<path d="M369.07 182.288C367.101 175.326 369.035 166.709 367.482 160.484C367.321 159.835 366.222 159.951 366.291 160.645C367.159 169.477 365.084 177.631 368.121 184.922C368.393 185.923 368.979 186.811 369.795 187.453C369.891 187.507 370 187.536 370.111 187.535C370.222 187.535 370.331 187.505 370.427 187.45C370.523 187.395 370.602 187.315 370.658 187.22C370.714 187.124 370.744 187.016 370.746 186.905C370.66 185.577 369.922 185.271 369.07 182.288Z" fill="#191919"/>
<path d="M374.268 183.374C374.131 183.044 373.599 181.413 373.565 181.31C373.531 181.198 373.458 181.102 373.36 181.039C373.261 180.976 373.144 180.95 373.028 180.966C372.913 180.982 372.806 181.038 372.728 181.125C372.65 181.212 372.606 181.324 372.603 181.441C372.653 183.088 373.241 184.674 374.276 185.956C374.379 186.061 374.517 186.123 374.664 186.132C374.81 186.141 374.955 186.095 375.07 186.004C375.723 185.496 374.909 184.918 374.268 183.374Z" fill="#191919"/>
<path d="M378.333 183.047C377.857 182.157 377.459 181.227 377.142 180.268C377.097 180.13 377 180.014 376.872 179.945C376.744 179.876 376.594 179.859 376.454 179.898C376.313 179.937 376.193 180.028 376.119 180.152C376.044 180.277 376.02 180.426 376.052 180.568C376.245 181.661 376.687 182.695 377.344 183.589C377.96 184.23 378.656 183.845 378.333 183.047Z" fill="#191919"/>
<path d="M381.039 181.244C380.652 180.629 380.358 179.96 380.167 179.259C380.124 179.101 380.019 178.966 379.877 178.885C379.735 178.804 379.566 178.783 379.408 178.827C379.25 178.87 379.116 178.975 379.035 179.117C378.954 179.259 378.933 179.428 378.976 179.586C379.766 183.449 381.721 182.532 381.039 181.244Z" fill="#191919"/>
<path d="M383.8 178.2C382.089 172.386 382.169 164.931 378.639 159.541C378.57 159.441 378.465 159.37 378.346 159.343C378.226 159.316 378.101 159.336 377.995 159.398C377.89 159.46 377.811 159.559 377.776 159.676C377.741 159.794 377.752 159.92 377.806 160.03C380.783 165.683 380.275 172.198 382.089 178.52C382.318 179.314 382.508 180.398 383.241 180.876C383.332 180.929 383.435 180.96 383.54 180.967C383.645 180.974 383.751 180.958 383.849 180.918C383.947 180.878 384.034 180.817 384.105 180.739C384.176 180.66 384.228 180.567 384.257 180.465C384.304 179.684 384.147 178.903 383.8 178.2Z" fill="#191919"/>
<path d="M232.688 396.192C231.314 404.584 230.778 413.805 235.341 420.98C245.384 436.771 274.783 435.584 286.884 403.693C291.16 392.422 295.221 386.521 296.38 380.524C297.164 377.156 296.647 373.616 294.933 370.613C293.137 368.205 290.833 366.221 288.184 364.803C278.958 358.961 271.206 354.153 260.432 352.407C250.705 350.829 249.713 354.953 245.767 357.679C243.565 359.201 240.876 359.862 238.599 361.252C236.915 362.311 235.503 363.75 234.477 365.454C233.451 367.158 232.839 369.08 232.691 371.064C232.814 374.394 233.242 377.705 233.972 380.957C234.259 386.07 233.827 391.199 232.688 396.192ZM242.077 386.785C242.914 384.724 244.107 382.826 245.6 381.177C250.628 375.179 257.337 370.061 265.111 369.13C272.884 368.199 275.829 373.039 277.338 380.856C279 389.479 279.637 398.665 274.43 405.783C271.617 407.276 269.938 408.814 266.675 408.227C263.838 407.42 261.209 406.009 258.967 404.092C249.55 397.47 244.476 397.69 242.223 393.262C241.763 392.247 241.513 391.149 241.488 390.034C241.463 388.92 241.663 387.812 242.077 386.777V386.785Z" fill="black"/>
<path d="M270.928 396.744C270.281 398.07 268.382 398.232 268.006 396.825C267.808 396.11 268.006 395.122 267.363 394.735C267.24 394.664 267.102 394.624 266.96 394.617C266.818 394.61 266.676 394.636 266.547 394.694C266.417 394.752 266.303 394.84 266.214 394.951C266.125 395.061 266.063 395.191 266.033 395.33C265.881 396.044 265.934 396.787 266.186 397.472C266.359 398.146 266.764 398.737 267.329 399.141C267.895 399.546 268.584 399.739 269.278 399.685C269.971 399.632 270.623 399.336 271.12 398.85C271.617 398.363 271.926 397.717 271.994 397.026C271.99 396.902 271.946 396.783 271.869 396.686C271.792 396.589 271.686 396.52 271.566 396.488C271.447 396.457 271.32 396.464 271.205 396.51C271.09 396.556 270.993 396.638 270.928 396.744Z" fill="#191919"/>
<path d="M253.441 390.005C253.302 389.946 253.146 389.939 253.003 389.986C252.859 390.033 252.738 390.131 252.661 390.261C252.57 390.394 252.45 390.505 252.31 390.584C252.169 390.663 252.012 390.709 251.852 390.717C251.691 390.725 251.53 390.697 251.382 390.633C251.234 390.569 251.103 390.471 250.999 390.348C250.249 389.262 250.896 388.865 250.936 387.555C250.957 386.761 250.296 386.543 249.798 386.93C249.539 387.099 249.323 387.325 249.165 387.591C249.008 387.857 248.914 388.156 248.891 388.464C248.401 391.192 250.554 392.949 252.406 392.317C253.542 391.938 254.308 390.35 253.441 390.005Z" fill="#191919"/>
<path d="M267.695 387.347L266.242 386.048C265.757 385.618 264.938 384.695 264.257 385.377C264.116 385.548 264.042 385.765 264.049 385.986C264.056 386.207 264.143 386.419 264.295 386.58C264.422 386.723 265.114 387.297 265.831 387.914C263.444 389.806 261.504 392.201 260.15 394.929C260.082 395.056 260.067 395.205 260.106 395.343C260.146 395.482 260.237 395.6 260.362 395.672C260.486 395.745 260.634 395.766 260.774 395.733C260.914 395.699 261.035 395.612 261.113 395.491C261.569 394.834 262.085 394.229 262.568 393.589C263.965 391.701 265.638 390.034 267.53 388.643C267.637 388.577 267.728 388.489 267.796 388.383C267.864 388.278 267.908 388.159 267.923 388.034C267.939 387.91 267.927 387.783 267.887 387.664C267.848 387.545 267.782 387.437 267.695 387.347Z" fill="#191919"/>
<path d="M262.534 382.581C263.526 382.205 264.582 382.03 265.643 382.064C266.703 382.098 267.746 382.341 268.711 382.78C268.667 382.994 268.699 383.217 268.804 383.409C268.908 383.602 269.078 383.751 269.282 383.83C269.486 383.909 269.712 383.913 269.918 383.841C270.125 383.769 270.3 383.625 270.411 383.437C273.112 377.843 269.656 372.007 265.919 373.531C263.163 374.653 261.518 378.667 261.323 381.67C261.326 381.816 261.362 381.96 261.428 382.09C261.494 382.22 261.589 382.333 261.706 382.421C261.823 382.509 261.958 382.569 262.102 382.597C262.245 382.625 262.393 382.619 262.534 382.581ZM267.336 375.175C269.37 375.685 269.763 379.32 269.212 381.358C267.477 380.299 265.406 379.937 263.415 380.344C263.816 378.375 265.313 375.175 267.336 375.175Z" fill="#191919"/>
<path d="M297.034 370.852C299.011 368.209 300.854 365.468 302.556 362.64C303.56 360.679 304.394 358.2 302.52 356.987C302.061 356.756 301.559 356.625 301.046 356.601C300.533 356.577 300.021 356.661 299.543 356.848C296.077 357.812 292.886 359.574 290.223 361.993C289.998 362.194 289.815 362.438 289.687 362.711C289.558 362.983 289.485 363.279 289.473 363.581C289.474 363.704 289.523 363.822 289.61 363.91C289.698 363.997 289.816 364.046 289.939 364.047C290.629 363.989 291.275 363.681 291.753 363.18C293.495 361.66 295.467 360.427 297.595 359.527C298.7 359.065 299.849 358.719 301.025 358.493C301.565 358.468 301.682 358.714 301.728 359.059C301.962 360.792 299.062 364.494 295.852 370.159C295.761 370.316 295.735 370.502 295.78 370.678C295.826 370.854 295.94 371.004 296.097 371.096C296.253 371.188 296.44 371.214 296.616 371.168C296.791 371.122 296.942 371.009 297.034 370.852Z" fill="#191919"/>
<path d="M265.684 352.325C267.669 338.686 262.31 336.832 259.582 338.941C258.19 340.278 257.286 342.043 257.014 343.955C255.227 351.132 255.253 350.757 255.426 351.373C255.468 351.522 255.549 351.657 255.659 351.765C255.77 351.874 255.907 351.952 256.057 351.992C256.206 352.032 256.364 352.033 256.514 351.994C256.664 351.955 256.801 351.877 256.912 351.77C257.458 351.21 257.309 351.295 258.663 345.874C258.896 343.977 259.62 342.173 260.763 340.642C262.52 339.093 263.898 342.47 264.138 345.574C264.624 351.67 263.769 352.693 264.882 352.838C265.056 352.869 265.235 352.834 265.384 352.739C265.533 352.644 265.64 352.496 265.684 352.325Z" fill="#191919"/>
<path d="M196.76 343.079C196.817 343.136 196.886 343.178 196.962 343.203C197.038 343.229 197.119 343.237 197.198 343.226C197.278 343.216 197.353 343.188 197.42 343.144C197.487 343.1 197.543 343.041 197.584 342.972C198.168 341.936 197.727 341.091 198.18 336.051C198.571 333.097 198.574 330.106 198.189 327.152C198.025 326.525 197.814 325.91 197.56 325.314C197.506 325.155 197.393 325.023 197.245 324.944C197.096 324.866 196.923 324.847 196.762 324.891C196.6 324.936 196.461 325.041 196.374 325.184C196.286 325.327 196.257 325.499 196.292 325.663C196.349 325.961 196.578 328.631 196.597 328.932C196.915 334.016 195.198 341.279 196.76 343.079Z" fill="#191919"/>
<path d="M195.87 358.736C196.144 359.705 196.676 360.581 197.41 361.271C197.807 361.561 198.286 361.164 198.312 360.753C198.421 358.982 193.548 352.037 194.129 337.227C194.12 337.057 194.046 336.897 193.922 336.78C193.799 336.663 193.635 336.598 193.465 336.598C193.295 336.598 193.132 336.663 193.008 336.78C192.885 336.897 192.811 337.057 192.801 337.227C191.983 344.541 193.039 351.943 195.87 358.736Z" fill="#191919"/>
<path d="M184.147 351.223C184.231 352.218 184.534 353.181 185.036 354.044C185.247 354.362 185.852 354.372 185.932 353.925C186.061 352.191 185.98 350.447 185.691 348.732C185.173 340.872 186.914 334.359 187.926 327.493C187.964 327.336 187.939 327.17 187.857 327.031C187.775 326.892 187.642 326.79 187.486 326.747C187.33 326.704 187.164 326.723 187.022 326.8C186.88 326.878 186.774 327.007 186.726 327.161C184.76 334.063 183.105 344.123 184.147 351.223Z" fill="#191919"/>
<path d="M191.075 356.088C191.688 357.972 192.436 358.009 192.605 357.477C193.113 355.866 191.742 354.982 190.457 342.475C190.457 342.314 190.393 342.159 190.279 342.045C190.165 341.931 190.011 341.867 189.85 341.867C189.689 341.867 189.534 341.931 189.42 342.045C189.306 342.159 189.242 342.314 189.242 342.475C189.209 347.076 189.826 351.659 191.075 356.088Z" fill="#191919"/>
<path d="M187.676 343.467C187.676 343.33 187.621 343.199 187.525 343.102C187.428 343.006 187.296 342.951 187.16 342.951C187.023 342.951 186.891 343.006 186.795 343.102C186.698 343.199 186.644 343.33 186.644 343.467C186.191 346.746 186.552 350.087 187.694 353.194C187.802 353.681 188.056 354.123 188.422 354.462C188.487 354.524 188.568 354.566 188.656 354.583C188.744 354.6 188.835 354.59 188.918 354.556C189.001 354.522 189.072 354.464 189.122 354.39C189.173 354.316 189.201 354.228 189.202 354.139C189.19 352.948 189.151 353.73 188.607 351.471C187.923 348.86 187.61 346.166 187.676 343.467Z" fill="#191919"/>
<path d="M230.774 393.188C215.055 385.152 202.256 376.611 190.689 363.635C182.307 354.347 175.809 343.52 171.556 331.754C168.38 322.772 161.448 296.915 160.251 282.681C164.007 282.367 172.524 281.525 176.586 280.658C177.662 280.428 177.441 278.619 176.322 278.713C172.135 279.068 169.479 279.705 159.052 280.537C158.756 280.541 158.473 280.661 158.264 280.87C158.054 281.079 157.935 281.362 157.931 281.658C159.023 292.384 161.066 302.992 164.035 313.357C169.08 332.756 173.074 346.066 187.14 362.771C198.83 376.567 213.589 387.432 230.234 394.496C230.973 394.797 231.493 393.555 230.774 393.188Z" fill="#191919"/>
<path d="M234.407 360.731C232.102 358.862 224.698 355.404 218.493 350.509C208.098 342.311 204.251 333.549 204.034 320.557C204.119 310.943 205.264 301.367 207.447 292.003C208.812 285.978 209.305 285.619 208.769 284.625C208.274 283.953 207.535 283.503 206.712 283.372C205.918 283.108 205.15 282.856 204.342 282.659C204.111 282.598 203.866 282.623 203.652 282.728C203.438 282.833 203.268 283.011 203.175 283.231C203.079 283.45 203.067 283.696 203.14 283.923C203.213 284.151 203.367 284.344 203.572 284.466C204.763 284.994 205.845 285.349 206.786 285.673C203.723 296.701 202.099 308.08 201.954 319.525C202.026 341.394 212.582 351.253 232.557 361.408C232.941 361.584 233.34 361.727 233.748 361.837C234.367 362.022 234.925 361.152 234.407 360.731Z" fill="#191919"/>
<path d="M168.842 278.792C168.203 268.837 170.202 258.889 174.639 249.954C174.827 249.583 175.175 248.721 175.063 248.991C175.754 247.391 174.335 246.69 173.424 248.096C171.505 251.584 170.012 255.29 168.975 259.134C167.189 265.522 166.641 272.192 167.362 278.786C167.361 278.982 167.438 279.171 167.576 279.31C167.715 279.45 167.903 279.528 168.099 279.529C168.295 279.53 168.484 279.453 168.623 279.315C168.763 279.176 168.842 278.988 168.842 278.792Z" fill="#191919"/>
<path d="M174.72 261.636C174.721 261.788 174.778 261.934 174.879 262.048C174.98 262.162 175.119 262.235 175.27 262.255C175.42 262.278 175.574 262.244 175.701 262.161C175.829 262.078 175.922 261.951 175.962 261.804C177.352 252.06 180.585 248.078 180.44 246.76C180.438 246.675 180.413 246.592 180.369 246.519C180.325 246.446 180.263 246.385 180.189 246.343C180.115 246.301 180.032 246.278 179.946 246.277C179.861 246.276 179.777 246.297 179.702 246.337C178.342 246.977 174.996 254.321 174.72 261.636Z" fill="#191919"/>
<path d="M286.614 112.237C286.161 108.395 284.907 104.69 282.934 101.363C282.829 101.189 282.67 101.053 282.482 100.976C282.293 100.899 282.085 100.885 281.888 100.936C270.491 103.762 259.83 108.995 250.624 116.284C250.265 116.588 250.735 117.195 251.126 116.937C252.536 116.014 253.933 115.226 254.026 115.163C258.732 112.041 263.716 109.36 268.914 107.153C269.164 107.451 269.881 108.027 271.409 109.488C272.878 110.872 274.093 112.503 274.998 114.307C275.105 114.479 275.27 114.608 275.463 114.669C275.656 114.731 275.865 114.722 276.052 114.643C276.239 114.564 276.392 114.421 276.483 114.24C276.574 114.059 276.597 113.851 276.548 113.654C275.33 110.031 272.181 106.323 270.818 106.377C274.351 104.968 277.98 103.809 281.676 102.907C283.278 106.21 284.463 109.699 285.205 113.295C285.279 113.415 285.386 113.511 285.513 113.572C285.64 113.632 285.782 113.655 285.922 113.637C286.062 113.618 286.193 113.56 286.3 113.469C286.408 113.377 286.486 113.257 286.527 113.122C286.606 112.834 286.635 112.535 286.614 112.237Z" fill="url(#paint10_linear_607_909)"/>
<path d="M264.177 137.947C261.738 143.643 259.502 149.423 257.474 155.278C254.254 152.177 246.33 145.806 242.026 144.908C241.797 144.816 241.551 144.77 241.304 144.774C241.057 144.779 240.813 144.833 240.587 144.934C240.412 145.043 240.285 145.214 240.233 145.413C240.18 145.612 240.206 145.824 240.305 146.004C240.591 146.667 242.937 147.632 243.706 148.017C250.131 151.229 256.056 156.65 256.955 156.771C254.427 164.159 252.815 169.632 251.461 174.276C245.022 167.577 244.261 166.408 242.767 165.094C239.074 161.755 235.05 158.801 230.757 156.28C229.763 155.606 228.63 155.164 227.443 154.986C227.296 154.99 227.153 155.031 227.027 155.106C226.901 155.181 226.797 155.287 226.724 155.414C226.651 155.541 226.612 155.685 226.611 155.832C226.61 155.978 226.647 156.123 226.718 156.251C227.512 157.561 231.039 158.319 238.519 164.389C242.926 167.973 247.082 171.854 250.959 176.005C249.685 180.654 248.161 185.231 246.393 189.716C244.607 188.227 242.199 186.178 241.068 185.283C237.82 182.717 224.538 173.189 222.426 172.297C221.632 171.964 221.386 171.767 220.801 171.883C220.672 171.92 220.564 172.006 220.498 172.122C220.432 172.239 220.414 172.376 220.447 172.506C220.676 173.576 223.879 175.571 224.991 176.319C239.607 186.155 242.292 188.547 245.784 191.157C244.406 194.36 242.902 197.508 241.276 200.594C241.282 200.464 241.252 200.336 241.189 200.223C241.126 200.109 241.033 200.016 240.921 199.952C236.903 197.876 236.855 197.789 235.918 197.967C235.821 197.996 235.731 198.046 235.656 198.114C235.58 198.182 235.521 198.266 235.483 198.361C235.445 198.455 235.428 198.556 235.435 198.658C235.442 198.759 235.471 198.858 235.521 198.946C235.984 199.714 236.079 199.702 240.361 201.28C240.464 201.314 240.575 201.322 240.682 201.302C240.789 201.282 240.89 201.236 240.974 201.167C239.253 204.442 234.027 214.024 233.179 215.568C233.134 215.468 233.069 215.377 232.988 215.302C232.908 215.227 232.812 215.169 232.709 215.132C228.784 213.492 229.334 213.681 228.27 213.53C228.09 213.473 227.896 213.486 227.724 213.565C227.553 213.645 227.418 213.785 227.345 213.959C227.272 214.133 227.267 214.328 227.331 214.506C227.394 214.683 227.522 214.831 227.689 214.919C228.703 215.515 228.284 215.358 232.332 216.519C232.442 216.546 232.557 216.546 232.667 216.519C230.285 220.908 227.903 225.317 225.581 229.751C218.022 225.483 223.143 227.596 206.626 221.261C205.888 220.947 205.08 220.833 204.284 220.932C204.185 220.962 204.095 221.013 204.019 221.082C203.943 221.152 203.884 221.237 203.845 221.332C203.806 221.427 203.788 221.529 203.794 221.632C203.799 221.734 203.828 221.834 203.877 221.924C204.311 222.691 205.584 223.36 218.308 227.911C219.385 228.308 222.792 230.158 224.858 231.131C222.885 234.906 220.958 238.702 219.078 242.517C214.945 241.181 206.094 238.92 202.999 238.039C190.692 234.527 190.049 233.955 186.069 232.757C186.816 229.581 187.604 226.405 188.392 223.229C188.443 223.001 188.404 222.763 188.285 222.563C188.165 222.363 187.973 222.217 187.748 222.155C187.523 222.093 187.284 222.12 187.078 222.23C186.873 222.34 186.718 222.525 186.645 222.746C184.569 229.356 182.957 236.102 181.821 242.936C176.799 271.064 177.75 299.934 184.612 327.671C184.691 327.941 184.872 328.17 185.116 328.309C185.361 328.447 185.65 328.485 185.922 328.414L198.644 324.757C198.866 324.692 199.062 324.557 199.202 324.373C199.342 324.189 199.42 323.965 199.424 323.733C198.386 274.614 228.703 230.408 244.696 198.382C254.133 179.483 252.978 169.004 265.66 138.546C265.999 137.735 264.536 137.111 264.177 137.947ZM186.407 326.075C185.104 320.73 184.023 315.339 183.161 309.9C185.462 309.985 185.233 309.864 193.535 308.742C195.056 308.587 196.552 308.242 197.987 307.714C197.439 312.774 197.204 317.862 197.282 322.951L186.407 326.075ZM198.176 306.053C197.016 306.295 194.603 306.737 193.35 306.847C189.878 307.428 186.37 307.773 182.851 307.881C182.005 302.157 181.406 296.401 181.055 290.611C181.353 290.726 181.661 290.813 181.974 290.871C187.315 291.312 192.68 291.381 198.031 291.08C198.184 291.032 198.317 290.937 198.412 290.808C198.507 290.679 198.559 290.523 198.559 290.363C198.559 290.203 198.507 290.047 198.412 289.918C198.317 289.789 198.184 289.694 198.031 289.647C196.85 289.331 185.047 289.039 183.143 288.882C182.366 288.799 181.611 288.567 180.922 288.198C180.62 281.94 180.614 275.662 180.904 269.366C183.693 272.052 197.874 274.42 200.977 274.775C201.868 274.948 202.785 274.953 203.678 274.789C203.829 274.745 203.964 274.657 204.066 274.538C204.168 274.419 204.234 274.273 204.255 274.117C204.276 273.961 204.251 273.803 204.184 273.66C204.117 273.518 204.01 273.399 203.877 273.316C202.747 272.721 200.502 272.74 194.873 271.549C191.557 270.871 188.28 270.014 185.057 268.981C183.584 268.455 181.938 267.194 181.033 267.051C181.319 262.115 181.793 257.182 182.454 252.251C182.752 252.393 183.059 252.516 183.372 252.62C191.079 255.284 198.722 257.98 207.507 258.714C207.709 258.711 207.903 258.635 208.053 258.501C208.204 258.366 208.301 258.182 208.328 257.982C208.355 257.782 208.309 257.579 208.199 257.41C208.088 257.241 207.921 257.117 207.727 257.061C200.667 255.328 197.388 254.861 189.728 252.456C188.118 251.951 184.729 250.542 182.78 249.994C183.517 244.951 184.452 239.922 185.585 234.908C193.972 237.98 202.557 240.478 211.283 242.386C212.198 242.56 217.214 243.986 218.313 244.105C208.654 263.973 200.772 284.464 198.176 306.053Z" fill="url(#paint11_linear_607_909)"/>
<path d="M492.222 212.994C492.183 213.223 492.194 213.457 492.255 213.681C492.316 213.906 492.424 214.114 492.573 214.292C492.733 214.446 492.947 214.532 493.169 214.532C493.391 214.532 493.604 214.446 493.764 214.292C493.914 214.114 494.023 213.906 494.084 213.682C494.145 213.458 494.156 213.223 494.118 212.994C494.411 210.594 493.781 208.172 492.355 206.219C492.274 206.097 492.149 206.01 492.005 205.977C491.862 205.944 491.712 205.966 491.585 206.04C491.458 206.115 491.365 206.234 491.323 206.375C491.282 206.516 491.296 206.668 491.362 206.798C492.025 208.794 492.316 210.893 492.222 212.994Z" fill="#191919"/>
<path d="M500.635 224.949C499.844 223.646 498.634 222.65 497.203 222.125C497.078 222.043 496.926 222.011 496.779 222.036C496.631 222.061 496.498 222.141 496.407 222.259C496.315 222.377 496.272 222.526 496.284 222.675C496.297 222.824 496.366 222.963 496.477 223.064C497.213 223.725 497.038 223.762 497.805 224.544C498.9 225.649 499.745 226.976 500.28 228.437C500.379 228.822 500.532 229.192 500.735 229.535C500.83 229.701 500.978 229.831 501.154 229.904C501.331 229.977 501.528 229.99 501.713 229.94C501.898 229.891 502.061 229.781 502.177 229.628C502.293 229.476 502.355 229.29 502.354 229.098C502.154 227.588 501.562 226.158 500.635 224.949Z" fill="#191919"/>
<path d="M496.829 215.62C490.404 217.466 487.599 217.162 483.653 218.284C483.389 218.359 483.165 218.535 483.03 218.774C482.895 219.013 482.859 219.295 482.93 219.56C483.49 221.05 484.241 222.462 485.165 223.758C485.309 223.959 485.522 224.1 485.764 224.152C486.006 224.204 486.258 224.164 486.472 224.04C486.686 223.916 486.845 223.717 486.92 223.481C486.994 223.245 486.978 222.99 486.874 222.766C486.29 221.888 485.776 220.965 485.336 220.006C489.703 218.986 494.33 218.643 497.27 216.678C497.396 216.61 497.493 216.498 497.541 216.363C497.589 216.229 497.586 216.081 497.53 215.948C497.475 215.816 497.373 215.709 497.243 215.648C497.114 215.588 496.966 215.577 496.829 215.62Z" fill="#191919"/>
<path d="M482.671 227.129C481.806 226.849 481.317 227.643 480.075 227.613C479.66 227.592 479.269 227.417 478.977 227.123C478.795 226.913 478.679 226.654 478.641 226.379C478.626 225.51 478.93 224.665 479.495 224.005C479.632 223.925 479.736 223.799 479.786 223.649C479.837 223.498 479.831 223.335 479.77 223.189C479.708 223.043 479.596 222.924 479.453 222.855C479.31 222.786 479.147 222.771 478.995 222.814C478.234 223.202 477.615 223.821 477.227 224.582C476.839 225.343 476.701 226.208 476.833 227.052C477.049 227.858 477.551 228.557 478.245 229.02C478.939 229.484 479.778 229.678 480.605 229.569C483.495 229.253 483.638 227.445 482.671 227.129ZM479.952 227.607H479.995C479.978 227.611 479.961 227.611 479.944 227.607H479.952Z" fill="#191919"/>
<path d="M520.385 233.715C524.804 230.803 530.525 225.104 528.127 220.415C528.915 218.699 529.332 216.837 529.352 214.949C529.371 213.06 528.992 211.19 528.24 209.458C527.111 205.662 525.204 202.142 522.64 199.124C520.567 196.951 518.003 195.308 515.164 194.332C512.324 193.356 509.292 193.075 506.321 193.514C505.175 193.763 504.137 194.369 503.357 195.246C502.578 196.123 502.098 197.225 501.986 198.393C501.857 199.513 501.817 198.03 494.187 201.012C493.768 197.955 489.252 197.603 486.34 199.555C483.841 201.23 482.501 204.269 484.633 205.591C484.832 205.591 477.289 209.65 474.391 211.802C467.928 216.612 468.301 222.337 471.35 229.699C474.158 236.48 476.763 241.678 484.165 241.708C488.421 241.458 492.606 240.499 496.547 238.872C496.746 238.883 496.911 239.134 497.264 239.467C498.725 240.757 500.631 241.428 502.578 241.337C504.525 241.246 506.36 240.401 507.695 238.981C510.387 238.993 516.332 236.108 518.565 234.828C525.86 248.981 532.422 264.5 532.912 280.626C533.189 295.602 531.509 310.549 527.914 325.09C525.575 333.467 522.313 341.557 518.188 349.214C513.42 348.306 508.756 346.917 504.269 345.067C509.378 333.995 515.98 315.004 513.338 303.128C509.225 284.701 468.36 260.713 464.206 203.098C463.919 195.198 462.756 187.354 460.74 179.711C451.799 150.088 438.802 142.921 420.758 122.225C423.438 117.805 426.979 113.968 431.169 110.942C461.887 130.427 480.661 161.657 496.823 194.273C497.282 195.2 498.634 194.388 498.213 193.465C482.841 160.589 462.304 127.819 431.735 108.534C431.557 108.428 431.354 108.372 431.147 108.372C430.941 108.372 430.738 108.428 430.56 108.534C430.089 108.86 429.625 109.197 429.17 109.541C429.105 109.132 428.947 108.744 428.708 108.405C425.157 102.063 417.79 96.3684 411.625 92.8153C411.014 92.4639 410.456 93.3373 410.93 93.7165C416.842 98.4447 423.061 102 427.118 109.001C427.374 109.446 427.672 110.152 428.128 110.347C424.828 112.988 421.955 116.123 419.611 119.641C418.32 119.194 418.364 119.317 417.03 118.809C410.083 116.177 408.205 111.617 405.275 109.269C403.872 108.143 401.355 106.736 399.842 107.701C399.742 107.762 399.66 107.847 399.602 107.949C399.545 108.051 399.515 108.166 399.515 108.282C399.515 108.399 399.545 108.514 399.602 108.616C399.66 108.718 399.742 108.803 399.842 108.864C401.18 109.63 401.771 109.126 403.711 110.563C406.801 112.856 408.935 118.211 417.459 120.853C417.856 120.974 418.241 121.096 418.64 121.181C418.287 121.776 417.798 122.382 418.485 123.176C435.439 142.784 447.81 150.098 456.492 174.234C461.748 188.844 461 194.312 462.663 213.497C458.739 214.958 454.614 216.745 452.03 220.179C451.23 221.025 450.796 222.151 450.82 223.315C450.844 224.478 451.325 225.586 452.159 226.398C453.953 227.454 456.059 227.849 458.114 227.515C460.232 227.568 462.345 227.261 464.361 226.606C465.335 231.825 467.144 236.852 469.72 241.494C466.181 243.204 462.917 245.434 460.037 248.11C457.302 251.121 459.202 254.361 462.336 255.129C467.075 255.666 471.869 254.849 476.161 252.771C482.986 263.769 496.537 281.738 499.811 285.722C498.818 286.883 496.224 298.96 483.798 312.718C476.809 320.484 468.349 326.788 458.908 331.263C454.739 333.223 450.372 334.592 446.087 336.264C445.612 334.749 442.607 326.214 442.198 325.148C441.454 323.204 440.668 322.829 438.766 321.972C430.195 318.135 430.596 318.184 430.032 318.418C429.226 318.758 429.671 318.998 428.101 324.286C426.677 329.076 425.943 329.669 426.741 330.938C426.987 331.335 435.532 341.329 435.913 341.758C430.032 346.576 430.058 351.518 427.13 356.068C413.556 344.376 417.737 343.533 412.582 343.562L404.009 343.61C403.736 343.616 403.475 343.727 403.282 343.92C403.089 344.113 402.978 344.373 402.972 344.646C402.96 344.845 402.274 355.983 402.284 356.247C402.361 358.033 402.966 357.821 413.483 364.504C406.323 369.993 406.456 379.007 400.747 388.6C397.796 393.563 395.628 395.151 392.462 398.912C392.339 398.545 391.041 394.388 390.256 391.725C390.178 391.446 389.992 391.209 389.74 391.066C389.488 390.923 389.19 390.885 388.911 390.96C376.975 395.708 364.447 398.806 351.674 400.169C333.214 402.122 320.311 400.191 301.172 386.349C300.495 385.859 299.673 385.525 299.02 385.013C298.866 384.859 298.656 384.772 298.438 384.772C298.22 384.772 298.011 384.859 297.857 385.013C297.702 385.167 297.616 385.377 297.616 385.595C297.616 385.813 297.702 386.022 297.857 386.176C298.94 387.259 300.114 388.248 301.364 389.132C318.832 401.699 333.001 403.956 349.076 402.549C362.575 401.37 375.842 398.308 388.492 393.451C389.266 396.08 390.067 398.7 390.894 401.312C373.747 416.563 353.973 417.928 333.674 424.094C332.907 424.295 332.154 424.544 331.419 424.84C329.75 425.591 330.081 427.582 330.157 429.12C314 428.104 298.341 423.132 284.557 414.643C283.712 414.115 283.033 415.384 283.793 415.949C293.917 423.473 309.201 429.767 330.226 431.466L330.377 436.861C330.401 437.705 330.266 438.632 330.951 439.243C331.421 439.654 331.943 439.664 333.688 439.839C345.824 441.052 358.119 439.112 370.164 436.552C395.592 431.147 419.228 425.4 443.069 398.241C444.63 396.455 444.64 396.346 444.945 396.101C444.991 396.637 445.481 397.046 446.422 396.683C445.854 396.903 448.957 395.045 461.167 396.032C463.448 396.226 465.693 396.724 467.842 397.515C467.983 397.597 468.151 397.621 468.309 397.58C468.467 397.538 468.602 397.436 468.685 397.295C468.768 397.155 468.791 396.987 468.75 396.829C468.709 396.671 468.606 396.535 468.465 396.453C465.8 394.818 462.737 393.948 459.61 393.938C457.195 393.749 452.109 393.848 449.82 393.938C448.387 393.991 449.177 394.116 448.75 393.541C445.177 388.705 437.484 376.867 436.102 371.077C434.232 363.228 440.271 358.373 449.461 361.987C457.471 365.557 464.808 370.476 471.151 376.531C471.33 376.7 471.516 376.859 471.705 377.016C469.379 383.29 467.662 390.065 469.563 396.453C469.604 396.597 469.696 396.721 469.821 396.803C469.947 396.885 470.098 396.919 470.246 396.899C470.396 396.882 470.534 396.81 470.634 396.697C470.734 396.584 470.788 396.439 470.788 396.288C469.246 384.289 475.621 374.427 475.629 371.845C493.494 354.53 505.222 330.608 511.572 306.961C512.544 317.341 506.504 335.005 501.736 345.073C501.589 345.341 501.55 345.655 501.628 345.951C501.706 346.246 501.895 346.501 502.155 346.661C504.864 347.852 503.872 347.129 503.544 347.745C502.025 351.172 500.302 354.505 498.383 357.725C497.089 359.766 496.879 359.631 497.053 360.755C497.101 361.064 497.433 361.169 497.782 361.122C498.641 361.005 499.096 360.094 499.811 358.986C502.024 355.695 503.7 352.072 504.773 348.253C504.795 348.161 504.797 348.065 504.781 347.971C504.764 347.878 504.729 347.789 504.678 347.709C508.793 349.33 513.05 350.565 517.394 351.397C516.816 351.897 516.88 354.534 516.715 356.094C516.104 361.924 513.487 367.883 511.326 373.423C511.048 374.133 512.213 374.614 512.554 373.941C515.635 367.831 518.521 361.076 518.759 354.262C518.786 353.343 518.63 352.428 518.301 351.57L518.523 351.614C518.768 351.674 519.026 351.656 519.26 351.561C519.493 351.465 519.691 351.298 519.823 351.084C531.535 328.808 534.735 307.918 535.076 283.216C535.302 266.332 528.127 248.721 520.385 233.715ZM492.581 201.377C492.581 201.415 492.601 201.456 492.581 201.377V201.377ZM485.503 203.737C485.171 202.915 486.984 201.258 488.055 200.728C489.445 200.047 492.174 199.848 492.563 201.339C492.814 201.885 490.93 202.133 486.41 204.618C486.344 204.241 485.673 204.172 485.503 203.745V203.737ZM500.009 238.977C498.385 238.272 498.024 237.006 496.649 236.93C495.525 236.869 495.126 237.484 491.636 238.518C487.698 239.685 482.43 240.674 479.044 238.342C478.029 237.603 477.155 236.689 476.463 235.642C474.271 232.059 472.6 228.183 471.501 224.129C469.637 215.905 474.875 213.428 481.946 209.226C488.129 205.232 494.881 202.196 501.972 200.222C502.506 208.412 507.86 217.475 511.78 224.058C512.1 224.616 512.464 225.147 512.87 225.646C510.283 226.882 507.932 228.562 505.922 230.608C505.808 230.727 505.722 230.871 505.67 231.027C505.619 231.184 505.603 231.351 505.623 231.515C505.644 231.679 505.702 231.836 505.791 231.975C505.881 232.113 506 232.23 506.141 232.317C509.313 235.493 505.525 240.972 500.009 238.985V238.977ZM428.424 329.832C428.424 329.874 428.424 329.973 428.424 329.832C428.317 329.622 429.708 326.7 431.11 320.713C439.645 324.451 439.764 324.233 440.344 325.561C440.765 326.716 444.066 335.736 444.534 336.875C442.08 337.85 439.734 339.077 437.533 340.537C436.533 339.334 428.613 330.132 428.424 329.84V329.832ZM404.372 356.294C404.324 356.016 404.487 353.755 404.967 345.676C414.599 345.623 413.824 345.593 414.198 345.722C414.91 346.119 419.216 352.793 426.165 357.356C423.442 360.532 419.057 361.138 415.434 363.198C414.575 362.672 404.153 356.302 404.372 356.302V356.294Z" fill="url(#paint12_linear_607_909)"/>
<path d="M392.948 105.102C405.93 104.175 408.33 107.998 411.125 107.881C411.205 107.881 411.284 107.859 411.353 107.819C411.422 107.778 411.48 107.721 411.52 107.651C411.56 107.582 411.581 107.503 411.581 107.423C411.582 107.343 411.561 107.264 411.522 107.194C411.182 106.619 410.671 106.163 410.061 105.89C404.684 103.315 398.61 102.58 392.774 103.796C392.055 103.995 392.174 105.168 392.948 105.102Z" fill="#191919"/>
<path d="M396.536 100.341C406.431 100.341 410.08 103.36 411.499 102.922C411.575 102.899 411.646 102.86 411.705 102.806C411.764 102.753 411.81 102.686 411.84 102.613C411.87 102.539 411.883 102.459 411.878 102.38C411.873 102.3 411.85 102.223 411.811 102.153C411.104 100.655 402.755 98.3919 396.538 99.1958C396.392 99.2041 396.255 99.268 396.154 99.3743C396.053 99.4805 395.997 99.6212 395.997 99.7675C395.997 99.9138 396.052 100.055 396.153 100.161C396.253 100.268 396.39 100.332 396.536 100.341Z" fill="#191919"/>
<path d="M402.704 95.8375C408.955 97.0007 411.512 99.597 413.211 99.871C413.282 99.8875 413.357 99.8832 413.425 99.8585C413.494 99.8339 413.555 99.79 413.599 99.732C413.644 99.6741 413.671 99.6045 413.677 99.5317C413.683 99.4588 413.668 99.3857 413.634 99.3211C413.38 98.885 413.043 98.5032 412.641 98.1976C409.763 96.1492 406.392 94.9018 402.873 94.5829C402.162 94.5055 401.996 95.7064 402.704 95.8375Z" fill="#191919"/>
<path d="M460.853 376.746C460.12 376.434 459.809 376.021 459.239 375.952C459.105 375.923 458.966 375.931 458.836 375.975C458.706 376.019 458.591 376.097 458.502 376.202C458.413 376.306 458.354 376.433 458.332 376.568C458.309 376.704 458.324 376.842 458.374 376.97C458.553 377.406 458.887 377.76 459.313 377.962C459.649 378.247 460.041 378.458 460.464 378.581C460.887 378.704 461.332 378.737 461.768 378.678C462.205 378.619 462.624 378.468 462.999 378.237C463.373 378.005 463.695 377.697 463.944 377.333C464.233 376.695 464.352 375.993 464.29 375.295C464.227 374.597 463.985 373.928 463.586 373.351C463.512 373.227 463.398 373.13 463.264 373.076C463.129 373.022 462.98 373.013 462.84 373.051C462.7 373.089 462.576 373.172 462.487 373.286C462.398 373.401 462.349 373.542 462.348 373.687C462.592 375.904 462.999 377.369 460.853 376.746Z" fill="#191919"/>
<path d="M451.951 385.237C451.466 386.146 450.486 385.722 449.481 385.892C449.351 385.931 449.234 386.007 449.146 386.11C449.058 386.214 449.002 386.341 448.984 386.476C448.967 386.611 448.989 386.748 449.048 386.871C449.107 386.993 449.2 387.096 449.317 387.167C451.317 388.25 454.039 386.537 453.402 384.535C453.332 384.312 452.987 383.667 452.965 383.542C453.035 383.414 453.057 383.265 453.028 383.122C452.999 382.979 452.921 382.851 452.806 382.76C452.24 382.325 451.665 382.998 451.679 383.697C451.693 384.396 452.102 384.816 451.951 385.237Z" fill="#191919"/>
<path d="M456.745 383.023C456.87 383.148 457.039 383.218 457.215 383.218C457.392 383.218 457.561 383.148 457.686 383.023C457.811 382.898 457.881 382.729 457.881 382.552C457.881 382.376 457.811 382.207 457.686 382.082C455.281 379.739 453.591 376.761 452.813 373.495C452.629 373.195 452.347 372.968 452.014 372.853C451.682 372.739 451.32 372.743 450.99 372.866C448.084 373.642 447.9 375.482 448.765 375.676C449.631 375.871 450.75 374.66 451.294 374.66C452.176 377.956 454.085 380.886 456.745 383.023Z" fill="#191919"/>
<path d="M446.012 364.401C445.465 364.095 444.851 363.927 444.223 363.912C443.596 363.898 442.975 364.037 442.414 364.318C441.853 364.598 441.37 365.012 441.005 365.523C440.641 366.034 440.408 366.626 440.325 367.248C440.134 368.399 440.385 369.58 441.027 370.554C441.668 371.529 442.654 372.226 443.787 372.506C444.395 372.491 444.974 372.245 445.406 371.817C445.838 371.39 446.091 370.813 446.111 370.205C446.507 370.113 446.874 369.924 447.179 369.656C447.484 369.387 447.718 369.047 447.859 368.665C448 368.284 448.045 367.874 447.989 367.471C447.932 367.068 447.777 366.686 447.536 366.358C447.266 365.551 446.728 364.861 446.012 364.401Z" fill="#191919"/>
<path d="M492.524 357.562C490.738 366.377 492.788 388.986 480.324 402.887C479.142 404.209 477.764 405.343 476.239 406.25C475.566 406.631 476.015 407.788 476.779 407.526C482.274 405.636 486.881 397.204 488.949 391.779C491.323 384.981 492.743 377.888 493.169 370.7C493.358 368.545 493.989 359.912 493.995 359.372C494.001 358.832 493.957 358.294 493.943 357.758C493.941 357.585 493.877 357.418 493.762 357.288C493.648 357.158 493.49 357.073 493.318 357.049C493.147 357.026 492.972 357.064 492.826 357.158C492.681 357.252 492.573 357.395 492.524 357.562Z" fill="#191919"/>
<path d="M471.648 409.49C461.389 416.767 448.786 418.595 437.446 413.115C436.105 412.308 434.699 411.616 433.242 411.044C433.105 411.01 432.962 411.016 432.828 411.062C432.695 411.108 432.578 411.192 432.492 411.303C432.406 411.415 432.355 411.549 432.344 411.69C432.333 411.83 432.364 411.971 432.432 412.094C433.42 413.178 434.634 414.031 435.987 414.594C441.772 417.624 448.333 418.85 454.821 418.112C461.31 417.374 467.428 414.706 472.384 410.453C472.9 410.002 472.225 409.081 471.648 409.49Z" fill="#191919"/>
<path d="M507.391 356.921C507.472 356.767 507.491 356.588 507.443 356.42C507.395 356.253 507.284 356.111 507.134 356.023C506.984 355.936 506.805 355.91 506.636 355.95C506.467 355.991 506.32 356.095 506.226 356.242C498.616 367.181 496.317 366.548 495.692 368.962C495.675 369.027 495.673 369.096 495.687 369.162C495.7 369.228 495.729 369.291 495.77 369.344C495.811 369.398 495.864 369.442 495.924 369.472C495.984 369.502 496.051 369.519 496.119 369.52C497.255 369.288 498.277 368.669 499.009 367.769C502.394 364.651 505.228 360.983 507.391 356.921Z" fill="#191919"/>
<path d="M510.637 361.889C510.757 361.736 510.845 361.56 510.896 361.372C510.947 361.184 510.96 360.988 510.935 360.795C510.932 360.703 510.905 360.614 510.858 360.535C510.811 360.457 510.744 360.391 510.665 360.345C510.586 360.299 510.496 360.275 510.404 360.273C510.312 360.272 510.222 360.293 510.141 360.337C510.022 360.375 509.907 360.426 509.799 360.487C509.239 360.867 508.177 362.842 505.706 365.734C504.229 367.459 499.88 372.056 497.808 372.957C497.143 373.245 497.609 374.347 498.302 374.126C502.179 372.88 509.231 364.485 510.637 361.889Z" fill="#191919"/>
<path d="M512.718 362.312C512.702 362.256 512.671 362.206 512.63 362.165C512.589 362.125 512.537 362.096 512.481 362.081C512.425 362.066 512.366 362.067 512.31 362.082C512.254 362.097 512.203 362.126 512.162 362.167C510.606 363.823 509.78 369.297 502.701 374.83C502.181 375.237 502.856 376.098 503.406 375.745C509.754 371.67 513.065 364.625 512.718 362.312Z" fill="#191919"/>
<path d="M327.444 437.335C324.141 437.974 320.758 438.098 317.417 437.702C315.083 437.403 312.793 436.827 310.595 435.987C304.402 433.645 301.861 430.286 300.243 429.661C300.135 429.632 300.022 429.632 299.914 429.661C299.807 429.69 299.708 429.747 299.629 429.825C299.551 429.904 299.494 430.003 299.465 430.11C299.436 430.218 299.436 430.331 299.465 430.439C299.563 430.72 299.71 430.981 299.9 431.209C304.497 436.894 316.141 441.121 324.49 439.282C325.582 439.042 326.673 438.764 327.745 438.433C327.885 438.388 328.003 438.291 328.073 438.162C328.143 438.032 328.16 437.881 328.121 437.739C328.082 437.597 327.99 437.476 327.864 437.401C327.737 437.326 327.587 437.302 327.444 437.335Z" fill="#191919"/>
<path d="M309.995 432.34C310.591 432.539 311.02 431.57 310.43 431.306C302.917 427.932 301.367 425.258 300.316 425.913C299.919 426.165 300.045 426.749 300.316 427.048C303.174 429.417 306.46 431.213 309.995 432.34Z" fill="#191919"/>
<path d="M441.593 169.096C447.06 173.287 451.888 178.251 455.927 183.831C456.076 183.978 456.273 184.066 456.482 184.079C456.691 184.091 456.897 184.028 457.063 183.9C457.229 183.772 457.343 183.588 457.383 183.383C457.424 183.177 457.389 182.964 457.284 182.783C456.375 181.105 455.284 179.532 454.031 178.092C445.829 168.052 433.992 160.974 422.799 154.505C418.768 151.913 414.429 149.836 409.883 148.321C409.671 148.271 409.447 148.305 409.26 148.417C409.073 148.528 408.936 148.707 408.878 148.917C408.82 149.127 408.846 149.351 408.95 149.543C409.054 149.734 409.228 149.877 409.436 149.943C417.437 153.101 434.808 163.78 441.593 169.096Z" fill="#191919"/>
<path d="M380.84 107.3C380.764 107.094 380.61 106.925 380.412 106.829C380.213 106.734 379.986 106.719 379.776 106.788C378.709 107.129 378.24 109.207 374.78 110.758C372.483 111.741 369.996 112.2 367.5 112.102C365.003 112.004 362.56 111.351 360.347 110.19C362.494 110.454 364.666 109.955 366.483 108.781C371.122 105.825 373.393 100.805 374.721 95.513C374.773 95.3593 374.793 95.1967 374.78 95.035C374.767 94.8733 374.721 94.7159 374.645 94.5726C374.569 94.4293 374.464 94.303 374.338 94.2016C374.211 94.1001 374.065 94.0255 373.909 93.9824C373.752 93.9394 373.589 93.9287 373.428 93.9511C373.268 93.9735 373.113 94.0285 372.974 94.1127C372.836 94.1969 372.716 94.3086 372.622 94.4408C372.528 94.5731 372.462 94.7231 372.428 94.8817C372.046 96.3459 371.564 97.7824 370.987 99.1813C370.024 101.846 368.345 104.193 366.134 105.964C360.949 109.853 357.677 106.238 356.439 107.338C355.798 107.425 355.573 107.552 354.615 107.657C353.516 107.794 352.4 107.694 351.342 107.366C350.285 107.037 349.309 106.487 348.481 105.752C347.742 105.262 347.107 104.633 346.609 103.9C345.259 101.891 342.331 96.442 342.228 94.1493C342.228 94.0226 342.203 93.8971 342.155 93.7801C342.106 93.6631 342.035 93.5567 341.946 93.4671C341.856 93.3775 341.75 93.3065 341.633 93.258C341.516 93.2095 341.39 93.1846 341.264 93.1846C341.137 93.1846 341.011 93.2095 340.894 93.258C340.777 93.3065 340.671 93.3775 340.581 93.4671C340.492 93.5567 340.421 93.6631 340.372 93.7801C340.324 93.8971 340.299 94.0226 340.299 94.1493C340.916 97.2575 342.074 100.233 343.721 102.941C344.572 104.86 345.967 106.488 347.735 107.621C349.41 108.912 351.456 109.631 353.57 109.67C355.291 109.67 355.645 109.293 355.389 109.541C354.661 110.308 353.772 110.904 352.786 111.288C347.367 113.326 338.681 110.375 334.733 103.288C334.668 103.178 334.581 103.081 334.479 103.004C334.377 102.927 334.26 102.871 334.136 102.839C334.012 102.807 333.882 102.8 333.755 102.818C333.629 102.836 333.506 102.879 333.396 102.944C333.286 103.009 333.189 103.095 333.112 103.198C333.035 103.3 332.979 103.417 332.947 103.541C332.915 103.665 332.908 103.794 332.926 103.921C332.944 104.048 332.986 104.17 333.052 104.281C339.02 115.121 353.652 116.528 356.929 110.069C358.091 111.38 359.555 112.386 361.195 113.001C369.965 116.695 378.752 112.659 380.479 109.102C380.665 108.845 380.793 108.551 380.855 108.24C380.918 107.929 380.912 107.609 380.84 107.3Z" fill="url(#paint13_linear_607_909)"/>
<path d="M358.028 117.897C357.958 117.652 357.812 117.436 357.611 117.279C357.411 117.121 357.166 117.031 356.911 117.021C356.656 117.011 356.405 117.081 356.193 117.222C355.98 117.363 355.818 117.568 355.728 117.806C355.65 118.069 355.658 118.349 355.751 118.607C355.844 118.865 356.016 119.086 356.244 119.239C356.45 119.355 356.686 119.407 356.922 119.391C357.158 119.375 357.384 119.291 357.573 119.149C357.762 119.007 357.906 118.813 357.986 118.591C358.067 118.369 358.082 118.128 358.028 117.897Z" fill="url(#paint14_linear_607_909)"/>
<defs>
<linearGradient id="paint0_linear_607_909" x1="659.086" y1="262.171" x2="601.447" y2="362.005" gradientUnits="userSpaceOnUse">
<stop stop-color="#5E0303"/>
<stop offset="1" stop-color="#8A0202"/>
</linearGradient>
<linearGradient id="paint1_linear_607_909" x1="570.235" y1="294.272" x2="660.504" y2="346.389" gradientUnits="userSpaceOnUse">
<stop stop-color="#DAE3FE"/>
<stop offset="1" stop-color="#E9EFFD"/>
</linearGradient>
<linearGradient id="paint2_linear_607_909" x1="674.731" y1="171.369" x2="574.356" y2="345.224" gradientUnits="userSpaceOnUse">
<stop stop-color="#5E0303"/>
<stop offset="1" stop-color="#8A0202"/>
</linearGradient>
<linearGradient id="paint3_linear_607_909" x1="86.9224" y1="6.99927" x2="86.9224" y2="221.118" gradientUnits="userSpaceOnUse">
<stop stop-color="#5E0303"/>
<stop offset="1" stop-color="#8A0202"/>
</linearGradient>
<linearGradient id="paint4_linear_607_909" x1="68.6666" y1="94.3218" x2="68.6666" y2="219.888" gradientUnits="userSpaceOnUse">
<stop stop-color="#5E0303"/>
<stop offset="1" stop-color="#8A0202"/>
</linearGradient>
<linearGradient id="paint5_linear_607_909" x1="47.8387" y1="138.013" x2="119.44" y2="138.013" gradientUnits="userSpaceOnUse">
<stop stop-color="#DAE3FE"/>
<stop offset="1" stop-color="#E9EFFD"/>
</linearGradient>
<linearGradient id="paint6_linear_607_909" x1="506.945" y1="42.2671" x2="506.945" y2="101.284" gradientUnits="userSpaceOnUse">
<stop stop-color="#5E0303"/>
<stop offset="1" stop-color="#8A0202"/>
</linearGradient>
<linearGradient id="paint7_linear_607_909" x1="552.184" y1="42.2671" x2="552.184" y2="101.284" gradientUnits="userSpaceOnUse">
<stop stop-color="#5E0303"/>
<stop offset="1" stop-color="#8A0202"/>
</linearGradient>
<linearGradient id="paint8_linear_607_909" x1="519.152" y1="98.2415" x2="519.152" y2="106.586" gradientUnits="userSpaceOnUse">
<stop stop-color="#5E0303"/>
<stop offset="1" stop-color="#8A0202"/>
</linearGradient>
<linearGradient id="paint9_linear_607_909" x1="354.347" y1="103.476" x2="354.347" y2="159.586" gradientUnits="userSpaceOnUse">
<stop stop-color="#5E0303"/>
<stop offset="1" stop-color="#8A0202"/>
</linearGradient>
<linearGradient id="paint10_linear_607_909" x1="268.558" y1="100.906" x2="268.558" y2="117" gradientUnits="userSpaceOnUse">
<stop stop-color="#5E0303"/>
<stop offset="1" stop-color="#8A0202"/>
</linearGradient>
<linearGradient id="paint11_linear_607_909" x1="222.18" y1="137.551" x2="222.18" y2="328.449" gradientUnits="userSpaceOnUse">
<stop stop-color="#5E0303"/>
<stop offset="1" stop-color="#8A0202"/>
</linearGradient>
<linearGradient id="paint12_linear_607_909" x1="409.272" y1="92.7336" x2="409.272" y2="440.209" gradientUnits="userSpaceOnUse">
<stop stop-color="#5E0303"/>
<stop offset="1" stop-color="#8A0202"/>
</linearGradient>
<linearGradient id="paint13_linear_607_909" x1="356.907" y1="93.1846" x2="356.907" y2="114.466" gradientUnits="userSpaceOnUse">
<stop stop-color="#5E0303"/>
<stop offset="1" stop-color="#8A0202"/>
</linearGradient>
<linearGradient id="paint14_linear_607_909" x1="356.867" y1="117.02" x2="356.867" y2="119.394" gradientUnits="userSpaceOnUse">
<stop stop-color="#5E0303"/>
<stop offset="1" stop-color="#8A0202"/>
</linearGradient>
</defs>
</svg>
