<svg width="766" height="539" viewBox="0 0 766 539" fill="none" xmlns="http://www.w3.org/2000/svg">
<path d="M77.3785 462.56C94.8495 474.042 130.297 479.713 132.674 497.357C133.565 504.038 124.146 509.596 129.138 516.081C162.594 559.524 300.817 526.749 360.807 516.32C385.795 511.968 415.716 507.098 442.962 507.154C474.339 507.224 504.081 514.299 535.22 515.155C544.817 515.421 553.701 514.874 561.961 513.625C592.922 508.937 619.247 492.991 628.22 475.656C635.5 461.606 623.585 448.088 635.678 434.248C648.573 419.482 675.523 408.899 681.138 392.027C687.853 371.772 654.278 354.9 619.752 354.998C597.765 355.055 557.207 357.623 539.142 364.908C517.125 373.779 494.87 374.762 468.366 374.93C417.914 375.253 367.047 370.382 316.981 367.168C274.076 364.417 231.617 359.953 188.385 360.094C156.622 360.192 129.673 360.473 113.984 378.453C95.2061 399.929 40.7726 438.473 77.3785 462.56Z" fill="white"/>
<path d="M678.334 216.408C660.801 191.994 625.228 179.937 622.842 142.421C621.948 128.215 631.4 116.396 626.39 102.608C592.815 10.2372 454.101 79.9256 393.898 102.101C368.821 111.353 338.794 121.709 311.451 121.589C279.963 121.44 250.115 106.398 218.865 104.578C209.234 104.011 200.318 105.175 192.029 107.831C160.958 117.799 134.54 151.703 125.534 188.562C118.229 218.437 130.186 247.178 118.05 276.605C105.109 308.002 78.0639 330.506 72.4283 366.38C65.6893 409.446 99.3839 445.32 134.033 445.111C156.098 444.992 196.8 439.53 214.929 424.04C237.025 405.178 259.358 403.089 285.956 402.731C336.588 402.045 387.636 412.401 437.88 419.235C480.937 425.085 523.548 434.576 566.933 434.277C598.809 434.068 625.854 433.472 641.598 395.24C660.443 349.577 715.07 267.622 678.334 216.408Z" fill="#FFF7F7"/>
<path d="M606.015 387.599L606.014 387.598C602.738 384.776 602.896 379.669 606.366 377.049L606.369 377.046C618.65 367.614 649.645 350.006 702.4 358.404C711.037 359.785 722.016 358.474 732.693 356.223C743.382 353.969 753.824 350.761 761.405 348.311L761.408 348.31C764.132 347.413 766.278 350.757 764.313 352.887L764.312 352.888C723.857 397.001 688.826 409.573 661.685 409.206C634.526 408.838 615.149 395.512 606.015 387.599Z" fill="#FF7070" stroke="url(#paint0_linear_416_19995)"/>
<path d="M605.166 384.229C604.675 383.946 604.404 383.342 604.533 382.761C604.71 382.037 605.445 381.599 606.128 381.787C641.363 390.413 673.238 386.312 693.794 381.362C716.046 375.979 730.114 368.49 730.251 368.431C730.9 368.082 731.727 368.318 732.076 368.968C732.424 369.617 732.187 370.445 731.538 370.794C731.386 370.878 717.028 378.511 694.451 383.982C673.61 389.008 641.276 393.188 605.516 384.397C605.387 384.323 605.269 384.289 605.166 384.229Z" fill="url(#paint1_linear_416_19995)"/>
<path d="M752.083 242.256L752.085 242.252C752.186 242.019 751.925 241.829 751.739 241.98C751.738 241.981 751.738 241.981 751.737 241.981L751.42 241.595L752.083 242.256ZM752.083 242.256C747.803 252.38 731.768 288.282 706.387 321.823C680.986 355.388 646.331 386.45 604.831 387.157L604.83 387.157M752.083 242.256L604.83 387.157M604.83 387.157C602.667 387.199 601.238 384.941 602.19 382.986L602.191 382.985M604.83 387.157L602.191 382.985M602.191 382.985C609.187 368.549 634.034 324.075 689.555 286.67L602.191 382.985Z" fill="#FF7070" stroke="url(#paint2_linear_416_19995)"/>
<path d="M601.069 383.931C600.889 383.827 600.712 383.656 600.602 383.489C600.213 382.851 600.409 382.034 601.047 381.644C665.537 342.164 717.965 281.591 719.957 278.261C720.193 277.673 720.842 277.324 721.489 277.457C722.213 277.634 722.664 278.342 722.502 279.041C721.848 281.903 666.646 344.597 602.42 383.918C601.989 384.187 601.483 384.17 601.069 383.931Z" fill="white"/>
<path d="M58.8552 66.5989L58.8552 66.5989L58.8516 66.5944C57.8441 65.3515 58.7486 63.4766 60.3928 63.4995C68.5552 63.6635 85.0553 64.3047 100.971 66.7617C108.93 67.9905 116.727 69.671 123.255 71.9659C129.799 74.2666 134.994 77.1598 137.834 80.7679C144.752 89.5705 146.396 103.254 146.102 118.718C145.955 126.434 145.328 134.558 144.651 142.692C144.571 143.656 144.491 144.619 144.41 145.583C143.81 152.745 143.212 159.878 142.916 166.69C141.482 199.51 146.755 227.677 152.038 247.371C154.68 257.219 157.324 264.949 159.133 270.081C159.369 270.748 159.589 271.37 159.794 271.947C160.378 273.593 160.829 274.866 161.11 275.754C161.116 275.772 161.122 275.79 161.127 275.808C160.482 275.062 159.802 274.024 159.099 272.707C158.077 270.794 157.03 268.344 155.98 265.468C153.879 259.718 151.779 252.305 149.835 244.17C145.949 227.902 142.703 208.795 141.349 194.421L141.349 194.42C139.974 179.985 137.09 171.356 132.443 165.473C127.797 159.59 121.437 156.52 113.314 153.089C97.1832 146.245 81.0101 129.846 79.5066 109.044C78.9322 100.953 75.3202 92.311 71.0956 84.7297C66.8658 77.1391 61.9951 70.5648 58.8552 66.5989Z" fill="#FF7070" stroke="url(#paint3_linear_416_19995)"/>
<path d="M80.8585 75.9242C80.8585 75.9242 81.3356 76.0137 82.2301 76.2525C83.1247 76.4912 84.4068 76.8195 86.017 77.3866C87.6272 77.9238 89.5952 78.6102 91.7719 79.5354C93.9487 80.4606 96.4236 81.5649 98.9879 82.9676C101.552 84.3703 104.296 86.0118 107.039 87.9518C109.782 89.8917 112.585 92.1301 115.209 94.7266C117.833 97.3231 120.338 100.248 122.514 103.471C124.691 106.695 126.57 110.216 128.001 113.917L128.538 115.32C128.717 115.767 128.896 116.245 129.015 116.723C129.313 117.678 129.611 118.603 129.88 119.558C130.386 121.408 130.864 123.259 131.341 125.109C131.818 126.959 132.295 128.78 132.742 130.601C133.189 132.421 133.607 134.212 134.024 135.973C134.859 139.494 135.634 142.927 136.32 146.18C137.006 149.433 137.632 152.537 138.169 155.372C138.437 156.805 138.676 158.177 138.914 159.461C139.123 160.774 139.332 161.998 139.541 163.162C139.928 165.49 140.226 167.519 140.465 169.22C140.704 170.892 140.882 172.235 140.972 173.13C141.061 174.025 141.121 174.533 141.121 174.533C141.151 174.831 140.942 175.13 140.614 175.159C140.316 175.189 140.048 174.98 139.988 174.712C139.988 174.712 139.898 174.234 139.72 173.369C139.541 172.473 139.272 171.19 138.944 169.519C138.288 166.206 137.245 161.49 135.992 155.85C135.336 153.044 134.621 149.97 133.875 146.747C133.07 143.523 132.235 140.121 131.4 136.629C130.506 133.137 129.552 129.526 128.597 125.825C128.09 123.975 127.613 122.124 127.106 120.274C126.838 119.379 126.57 118.483 126.301 117.588C126.182 117.14 126.033 116.693 125.854 116.245L125.377 114.932C122.693 107.888 118.34 101.561 113.36 96.4875C110.885 93.9506 108.291 91.6824 105.667 89.7126C103.073 87.7428 100.449 86.0417 97.9741 84.6091C95.4992 83.1765 93.1734 81.9529 91.0563 80.9382C88.9392 79.9234 87.0607 79.1474 85.5101 78.5505C83.9596 77.9536 82.7072 77.506 81.8425 77.2075C80.9778 76.9091 80.5305 76.7897 80.5305 76.7897C80.2919 76.73 80.1428 76.4614 80.2323 76.2226C80.4112 76.0137 80.6199 75.8645 80.8585 75.9242Z" fill="white"/>
<path d="M160.142 275.859C160.33 275.947 160.372 275.832 160.294 275.535C160.294 275.534 160.293 275.532 160.293 275.531C160.282 275.487 160.267 275.439 160.25 275.388C160.203 275.387 160.143 275.395 160.077 275.424C159.902 275.502 159.852 275.645 159.837 275.714L160.142 275.859ZM158.619 272.972C159.039 273.832 159.363 274.518 159.574 275.017C153.708 271.879 150.219 265.055 148.116 257.973C146.001 250.853 145.328 243.615 144.989 239.97C144.977 239.846 144.966 239.726 144.955 239.61L144.955 239.608C144.871 238.744 144.81 237.85 144.746 236.92C144.557 234.137 144.345 231.029 143.413 227.429C142.164 222.603 139.627 216.881 134.15 209.688C131.306 205.952 127.084 204.46 122.021 204.33C116.971 204.199 111.019 205.419 104.608 207.169C100.83 208.2 96.8605 209.425 92.8059 210.677C89.9886 211.546 87.1302 212.428 84.2667 213.267C77.2593 215.319 70.1765 217.124 63.4135 217.91C52.907 219.129 44.254 215.213 37.5928 209.963C30.9266 204.71 26.2818 198.14 23.8225 194.121C23.0669 192.876 23.7071 191.257 25.1012 190.896C28.6674 189.977 33.3659 187.432 39.4462 183.147C45.5381 178.853 53.0595 172.782 62.2785 164.764L62.2786 164.764C73.2946 155.18 83.309 150.661 92.7215 150.826C102.125 150.991 111.048 155.832 119.881 165.237C128.693 174.619 134.642 187.49 138.638 200.464C142.632 213.432 144.663 226.462 145.66 236.126C146.667 245.881 150.684 256.119 154.182 263.774C155.521 266.706 156.79 269.269 157.786 271.283C158.091 271.899 158.37 272.464 158.619 272.972Z" fill="#FF7070" stroke="url(#paint4_linear_416_19995)"/>
<path d="M70.9861 187.757C70.9861 187.757 71.2545 187.488 71.7614 186.951C72.2683 186.414 73.0436 185.668 74.0574 184.772C76.0851 182.952 79.0669 180.445 83.0625 177.938C85.0603 176.684 87.2967 175.461 89.8014 174.356C92.3062 173.282 95.0494 172.357 98.0611 171.849C98.8065 171.7 99.5818 171.64 100.327 171.551C100.715 171.521 101.103 171.521 101.49 171.491C101.878 171.461 102.265 171.461 102.653 171.461C103.041 171.461 103.428 171.491 103.846 171.491L105.039 171.611C105.426 171.64 105.844 171.7 106.231 171.79C106.649 171.879 107.007 171.909 107.454 172.028C110.346 172.685 113.537 173.73 116.399 175.013C119.292 176.386 122.005 178.147 124.42 180.146C124.987 180.684 125.583 181.221 126.15 181.728C126.418 181.997 126.716 182.236 126.985 182.534L127.76 183.399C128.267 183.967 128.804 184.504 129.281 185.101C129.728 185.698 130.205 186.294 130.652 186.891C130.891 187.19 131.1 187.488 131.338 187.787C131.547 188.085 131.726 188.413 131.935 188.712C132.322 189.309 132.71 189.936 133.127 190.532C133.873 191.756 134.499 192.98 135.155 194.144C135.721 195.367 136.288 196.561 136.825 197.695C137.332 198.859 137.749 199.993 138.196 201.098C138.435 201.635 138.614 202.172 138.793 202.709C138.972 203.247 139.151 203.754 139.3 204.261C139.628 205.276 139.985 206.231 140.224 207.126C140.463 208.052 140.701 208.887 140.94 209.693C141.148 210.469 141.357 211.215 141.506 211.872C142.103 214.528 142.431 216.02 142.431 216.02C142.49 216.289 142.311 216.557 142.043 216.617C141.775 216.677 141.536 216.528 141.447 216.289V216.259C141.447 216.259 140.999 214.797 140.224 212.23C139.866 210.947 139.27 209.424 138.673 207.634C138.405 206.738 138.017 205.843 137.63 204.858C137.242 203.903 136.884 202.859 136.377 201.814C135.9 200.769 135.453 199.695 134.916 198.561C134.35 197.486 133.753 196.352 133.157 195.188C132.471 194.084 131.845 192.92 131.1 191.786C130.712 191.219 130.324 190.652 129.937 190.085C129.728 189.786 129.549 189.518 129.34 189.219C129.132 188.951 128.893 188.682 128.684 188.413C128.237 187.876 127.79 187.309 127.343 186.772C126.865 186.235 126.359 185.727 125.881 185.22L125.136 184.444C124.897 184.175 124.599 183.967 124.331 183.728C123.794 183.25 123.257 182.773 122.691 182.295C120.395 180.505 117.86 178.923 115.207 177.639C112.463 176.446 109.78 175.55 106.738 174.894C105.426 174.625 103.995 174.386 102.593 174.416C102.236 174.386 101.908 174.386 101.55 174.416C101.192 174.416 100.864 174.446 100.506 174.446C99.8203 174.535 99.1345 174.565 98.4487 174.685C95.7352 175.073 93.1411 175.849 90.7556 176.804C88.3702 177.729 86.1636 178.833 84.1956 179.937C82.1978 181.042 80.4385 182.146 78.888 183.191C77.3374 184.205 76.0254 185.19 74.9818 185.966C73.9083 186.772 73.1032 187.429 72.5367 187.876C72 188.324 71.7018 188.563 71.7018 188.563H71.672C71.4632 188.742 71.1352 188.712 70.9265 188.503C70.7774 188.264 70.8072 187.966 70.9861 187.757Z" fill="url(#paint5_linear_416_19995)"/>
<path d="M523.035 101.729L519.552 157.284H540.338V103.287C540.338 101.729 539.338 100.357 537.893 99.8379C535.151 98.9107 530.445 97.724 525.851 98.5399C524.294 98.8365 523.146 100.135 523.035 101.729Z" fill="url(#paint6_linear_416_19995)"/>
<path d="M496.985 101.467L499.282 157.207H518.994L520.476 100.837C520.513 99.279 519.513 97.8697 518.031 97.4247C511.621 95.4962 505.248 95.3108 498.986 98.2035C497.726 98.7969 496.911 100.058 496.985 101.467Z" fill="#FF7070"/>
<path d="M502.279 139.372L502.427 141.301C502.464 141.894 502.983 142.339 503.575 142.302L513.913 141.709C514.469 141.672 514.876 141.264 514.913 140.707L515.025 139.372C515.062 138.742 514.58 138.223 513.95 138.223H503.39C502.723 138.223 502.204 138.742 502.279 139.372Z" fill="white"/>
<path d="M502.688 144.007V144.712C502.688 145.268 503.133 145.713 503.689 145.676L513.582 145.268C514.101 145.231 514.508 144.823 514.508 144.304V143.562C514.508 143.006 514.063 142.561 513.508 142.598L503.615 143.043C503.096 143.08 502.688 143.525 502.688 144.007Z" fill="white"/>
<path d="M516.212 101.691C515.805 101.246 515.286 101.023 514.73 101.06L502.688 101.616C501.614 101.654 500.762 102.655 500.762 103.879L501.392 131.582C501.429 132.731 502.244 133.659 503.281 133.733L513.915 134.4C514.471 134.437 514.99 134.215 515.36 133.807C515.768 133.399 515.99 132.843 515.99 132.249L516.805 103.322C516.842 102.729 516.62 102.136 516.212 101.691Z" fill="white"/>
<path d="M525.702 141.482L525.813 143.411C525.85 144.004 526.295 144.449 526.777 144.412L535.595 143.819C536.04 143.782 536.41 143.374 536.448 142.817L536.522 141.482C536.559 140.852 536.151 140.333 535.595 140.333H526.592C526.11 140.295 525.665 140.852 525.702 141.482Z" fill="#FF7070"/>
<path d="M526.069 146.12V146.825C526.069 147.381 526.44 147.826 526.921 147.789L535.369 147.381C535.814 147.344 536.148 146.936 536.148 146.417V145.675C536.148 145.119 535.74 144.674 535.295 144.711L526.847 145.156C526.403 145.193 526.069 145.601 526.069 146.12Z" fill="#FF7070"/>
<path d="M535.483 103.098L528.628 102.319C527.887 102.245 527.146 102.468 526.59 102.95C526.034 103.432 525.701 104.136 525.664 104.878L524.849 131.543C524.812 132.284 525.108 132.989 525.627 133.508C526.146 134.027 526.85 134.324 527.591 134.287L534.112 134.102C535.52 134.065 536.668 132.952 536.706 131.543L537.854 105.842C537.928 104.47 536.891 103.246 535.483 103.098Z" fill="#FF7070"/>
<path d="M568.274 101.729L564.791 157.284H585.577V103.287C585.577 101.729 584.577 100.357 583.132 99.8379C580.39 98.9107 575.684 97.724 571.09 98.5399C569.534 98.8365 568.348 100.135 568.274 101.729Z" fill="url(#paint7_linear_416_19995)"/>
<path d="M542.224 101.467L544.522 157.207H564.233L565.716 100.837C565.753 99.279 564.752 97.8697 563.27 97.4247C556.86 95.4962 550.487 95.3108 544.225 98.2035C542.965 98.7969 542.15 100.058 542.224 101.467Z" fill="#FF7070"/>
<path d="M547.483 139.372L547.632 141.301C547.669 141.894 548.187 142.339 548.78 142.302L559.118 141.709C559.674 141.672 560.081 141.264 560.118 140.707L560.229 139.372C560.267 138.742 559.785 138.223 559.155 138.223H548.595C547.928 138.223 547.446 138.742 547.483 139.372Z" fill="white"/>
<path d="M547.928 144.007V144.712C547.928 145.268 548.372 145.713 548.928 145.676L558.821 145.268C559.34 145.231 559.747 144.823 559.747 144.304V143.562C559.747 143.006 559.303 142.561 558.747 142.598L548.854 143.043C548.335 143.08 547.928 143.525 547.928 144.007Z" fill="white"/>
<path d="M561.452 101.691C561.044 101.246 560.526 101.023 559.97 101.06L547.928 101.616C546.853 101.654 546.001 102.655 546.001 103.879L546.631 131.582C546.668 132.731 547.483 133.659 548.521 133.733L559.155 134.4C559.71 134.437 560.229 134.215 560.6 133.807C561.007 133.399 561.229 132.843 561.229 132.249L562.045 103.322C562.082 102.729 561.859 102.136 561.452 101.691Z" fill="white"/>
<path d="M570.942 141.482L571.053 143.411C571.09 144.004 571.535 144.449 572.016 144.412L580.835 143.819C581.279 143.782 581.65 143.374 581.687 142.817L581.761 141.482C581.798 140.852 581.391 140.333 580.835 140.333H571.831C571.312 140.295 570.905 140.852 570.942 141.482Z" fill="#FF7070"/>
<path d="M571.309 146.12V146.825C571.309 147.381 571.679 147.826 572.161 147.789L580.609 147.381C581.053 147.344 581.387 146.936 581.387 146.417V145.675C581.387 145.119 580.979 144.674 580.535 144.711L572.087 145.156C571.642 145.193 571.309 145.601 571.309 146.12Z" fill="#FF7070"/>
<path d="M580.722 103.098L573.867 102.319C573.126 102.245 572.385 102.468 571.83 102.95C571.274 103.432 570.94 104.136 570.903 104.878L570.088 131.543C570.051 132.284 570.347 132.989 570.866 133.508C571.385 134.027 572.089 134.324 572.83 134.287L579.351 134.102C580.759 134.065 581.908 132.952 581.945 131.543L583.093 105.842C583.168 104.47 582.13 103.246 580.722 103.098Z" fill="#FF7070"/>
<path d="M603.103 157.208C603.103 155.577 601.769 154.241 600.139 154.241H484.165C482.535 154.241 481.201 155.577 481.201 157.208V159.619C481.201 161.251 482.535 162.586 484.165 162.586H600.139C601.769 162.586 603.103 161.251 603.103 159.619V157.208Z" fill="url(#paint8_linear_416_19995)"/>
<path d="M590.043 270.965C588.969 270.965 587.926 270.547 587.15 269.801C586.316 268.995 585.809 267.89 585.809 266.727V241.269C585.809 240.522 586.405 239.926 587.15 239.926C587.896 239.926 588.492 240.522 588.492 241.269V266.727C588.492 267.174 588.671 267.562 588.969 267.861C589.297 268.159 589.685 268.308 590.132 268.278L620.278 266.488C621.113 266.428 621.74 265.742 621.74 264.936V239.955C621.74 239.508 621.561 239.09 621.233 238.791C620.905 238.493 620.487 238.344 620.04 238.403L594.963 240.881C594.158 240.97 593.8 241.537 593.71 241.806C593.591 242.045 593.382 242.701 593.86 243.358L603.431 256.549C603.729 256.967 604.177 257.176 604.684 257.206C605.19 257.236 605.638 256.997 605.936 256.579L616.462 242.522C616.909 241.925 617.744 241.806 618.34 242.253C618.937 242.701 619.056 243.537 618.609 244.134L608.083 258.191C607.278 259.265 606.055 259.892 604.713 259.892H604.684C603.342 259.892 602.089 259.235 601.284 258.131L591.713 244.94C590.818 243.686 590.639 242.134 591.295 240.731C591.921 239.329 593.204 238.403 594.724 238.254L619.801 235.777C620.994 235.658 622.187 236.046 623.052 236.851C623.946 237.657 624.453 238.791 624.453 239.985V264.966C624.453 267.204 622.694 269.054 620.487 269.174L590.341 270.965C590.222 270.965 590.132 270.965 590.043 270.965Z" fill="#FF7070"/>
<path d="M441.754 182.767C421.884 167.933 395.107 156.674 370.832 160.092C370.773 160.099 370.716 160.122 370.667 160.157C370.619 160.192 370.58 160.24 370.555 160.294C370.53 160.349 370.519 160.409 370.524 160.469C370.529 160.528 370.549 160.586 370.582 160.636C356.514 166.194 358.541 165.472 358.118 165.376C344.539 162.513 330.439 163.351 317.295 167.804C316.302 168.137 315.29 168.457 314.333 168.88C313.937 169.028 313.588 169.28 313.322 169.608C313.055 169.936 312.881 170.33 312.817 170.748C312.646 171.814 312.713 169.773 314.206 195.062C314.206 195.161 314.244 195.256 314.313 195.327C314.382 195.398 314.476 195.44 314.575 195.443C324.31 195.894 333.837 198.416 342.52 202.841C351.482 207.407 358.136 214.511 366.979 214.275C371.987 214.142 376.785 212.175 381.825 213.185C384.223 213.665 386.524 214.533 388.902 215.089C401.222 217.969 407.483 207.474 421.336 205.787C427.96 204.979 429.838 206.704 431.208 204.812C431.605 204.268 439.557 187.94 441.895 183.295C441.944 183.206 441.956 183.101 441.93 183.003C441.904 182.904 441.841 182.82 441.754 182.767ZM399.116 185.99C399.06 186.483 398.896 186.956 398.635 187.378C398.375 187.799 398.026 188.158 397.611 188.429C397.196 188.7 396.727 188.877 396.237 188.946C395.746 189.016 395.247 188.976 394.773 188.831C392.33 194.327 389.215 200.126 383.856 202.924C382.485 203.814 380.87 204.252 379.238 204.178C377.606 204.104 376.037 203.521 374.752 202.512C373.495 201.414 372.302 200.245 371.179 199.01C368.829 196.39 367.872 193.883 363.615 185.046C361.221 185.282 358.898 183.092 359.18 179.67C359.178 178.747 359.534 177.858 360.173 177.191C360.535 176.882 360.988 176.698 361.463 176.667C362.755 174.73 373.174 172.514 379.471 160.787C379.515 160.713 379.576 160.651 379.648 160.604C379.72 160.557 379.802 160.527 379.887 160.516C379.972 160.506 380.059 160.514 380.141 160.541C380.222 160.569 380.297 160.614 380.358 160.674C391.496 170.873 389.761 172.236 394.509 176.85C395.714 177.825 396.676 179.066 397.32 180.476C397.705 181.117 398.69 180.772 399.063 182.161C399.325 183.423 399.343 184.722 399.116 185.99Z" fill="url(#paint9_linear_416_19995)"/>
<path d="M382.252 145.264C380.787 145.804 380.293 146.416 379.87 146.501C379.789 146.465 379.709 146.428 379.63 146.388C378.3 145.654 376.819 145.234 375.302 145.16C373.785 145.086 372.271 145.36 370.876 145.961C363.182 149.064 355.831 159.684 357.221 169.075C357.355 170.142 357.597 171.193 357.945 172.211C358.299 173.041 358.402 175.204 359.313 176.226C358.576 176.902 358.048 177.775 357.794 178.742C357.539 179.709 357.567 180.728 357.876 181.679C357.968 182.728 358.398 183.718 359.101 184.502C359.803 185.285 360.74 185.82 361.773 186.026C364.214 186.275 362.499 183.881 364.339 188.805C366.757 195.265 372.21 205.039 379.141 205.632C381.885 205.579 384.514 204.519 386.527 202.655C390.413 199.264 393.353 194.925 395.063 190.06C395.535 190.203 396.032 190.24 396.52 190.168C397.008 190.096 397.474 189.917 397.884 189.643C399.095 188.703 399.946 187.375 400.293 185.881C400.64 184.388 400.462 182.821 399.789 181.443C399.357 180.848 399.406 181.36 400.033 180.562C401.232 178.778 402.156 176.824 402.775 174.766C408.392 156.698 391.428 141.876 382.252 145.264ZM362.261 184.266C361.197 184.45 360.347 183.472 359.932 182.376C359.21 180.464 359.138 177.723 361.114 177.187C362.265 177.368 361.376 176.461 362.279 181.374C362.457 182.344 362.668 183.306 362.912 184.262C362.697 184.219 362.475 184.221 362.261 184.266ZM393.459 189.171C391.301 194.439 388.83 199.197 384.143 202.24C382.936 203.113 381.54 203.689 380.068 203.921C374.113 204.344 368.754 195.15 366.425 189.723C364.759 185.691 363.656 181.449 363.148 177.116C369.713 176.056 374.332 170.565 378.447 165.837C378.969 165.242 380.451 163.524 380.666 163.257C384.886 172.521 390.698 178.158 396.113 180.935C395.461 183.75 394.573 186.505 393.459 189.171ZM395.678 188.518C396.537 186.313 397.243 184.052 397.792 181.751C400.347 181.973 398.527 189.266 395.678 188.518Z" fill="#191919"/>
<path d="M369.224 180.004C369.565 178.346 371.961 178.295 372.833 181.145C372.938 181.51 373.064 181.868 373.208 182.219C373.285 182.348 373.402 182.449 373.541 182.506C373.681 182.562 373.835 182.572 373.98 182.533C375.03 182.249 374.178 180.151 373.652 179.301C371.63 176.054 367.801 177.616 368.182 180.006C368.265 180.532 369.119 180.508 369.224 180.004Z" fill="#191919"/>
<path d="M385.147 181.713C385.294 181.421 385.463 181.144 385.63 180.862C385.796 180.58 385.909 180.266 386.086 179.978C386.719 178.964 387.896 178.289 388.851 179.016C389.131 179.24 389.444 179.42 389.778 179.55C390.302 179.736 390.888 178.257 389.244 177.481C388.472 177.177 387.615 177.171 386.838 177.464C386.062 177.758 385.423 178.33 385.046 179.069C384.556 179.782 384.311 180.635 384.347 181.499C384.35 181.592 384.383 181.681 384.441 181.754C384.499 181.826 384.578 181.879 384.668 181.903C384.757 181.927 384.852 181.921 384.939 181.887C385.025 181.853 385.098 181.792 385.147 181.713Z" fill="#191919"/>
<path d="M380.287 188.437C379.527 187.709 378.946 188.118 378.034 187.266C377.896 187.14 377.775 186.995 377.675 186.836C377.772 186.683 377.884 186.538 377.983 186.387C379.499 184.158 380.1 181.432 379.66 178.772C379.537 178.197 378.705 178.366 378.668 178.905C378.651 181.517 377.812 184.056 376.272 186.165C375.353 187.951 379.063 190.45 380.281 189.039C380.36 188.959 380.405 188.852 380.406 188.739C380.407 188.627 380.365 188.519 380.287 188.437Z" fill="#191919"/>
<path d="M379.177 196.91C380.342 199.669 385.384 199.373 385.116 194.008C385.09 193.528 385.116 193.016 384.691 192.71C384.592 192.652 384.477 192.628 384.363 192.643C384.249 192.657 384.143 192.708 384.062 192.789C383.649 193.238 383.961 193.675 383.863 195.086C383.665 197.913 381.011 198.133 379.931 196.475C379.869 196.385 379.775 196.321 379.668 196.297C379.561 196.273 379.449 196.29 379.353 196.345C379.258 196.399 379.187 196.488 379.155 196.593C379.122 196.698 379.13 196.811 379.177 196.91Z" fill="#191919"/>
<path d="M308.669 170.832C290.681 170.114 270.041 171.862 255.644 182.796C246.618 189.65 238.849 200.859 234.071 211.181C233.742 211.891 233.482 212.631 233.295 213.39C233.264 213.568 233.295 213.75 233.381 213.908C233.468 214.066 233.606 214.189 233.772 214.258C233.938 214.328 234.123 214.338 234.296 214.289C234.469 214.239 234.62 214.133 234.724 213.986C235.984 212.088 242.594 196.149 255.215 185.632C270.529 172.871 290.173 173.194 308.669 171.592C308.762 171.581 308.847 171.536 308.909 171.466C308.971 171.396 309.005 171.306 309.005 171.212C309.005 171.119 308.971 171.029 308.909 170.959C308.847 170.889 308.762 170.844 308.669 170.832Z" fill="#191919"/>
<path d="M237.45 219.398C237.648 219.231 260.513 199.455 268.382 195.904C273.043 194.191 277.946 193.225 282.908 193.041C305.303 190.771 305.444 191.904 309.449 191.017C309.539 190.99 309.618 190.935 309.674 190.86C309.731 190.785 309.761 190.694 309.761 190.6C309.761 190.506 309.731 190.415 309.674 190.34C309.618 190.265 309.539 190.21 309.449 190.183C305.124 189.129 289.173 190.743 284.687 191.187C273.763 192.267 269.634 192.466 262.683 197.428C253.537 203.884 244.864 210.985 236.731 218.678C236.263 219.154 236.953 219.801 237.45 219.398Z" fill="#191919"/>
<path d="M255.362 249.331C253.901 244.94 249.629 242.489 245.635 240.097C243.164 238.618 243.398 238.884 243.65 238.791C244.084 238.637 244.47 238.373 244.771 238.025C245.073 237.677 245.278 237.257 245.367 236.806C245.542 235.111 245.168 233.405 244.301 231.938C239.122 220.84 221.587 213.478 208.107 219.927C182.546 232.167 189.261 276.164 217.968 275.202C222.222 275.059 226.805 274.386 230.136 271.706C230.697 271.171 231.191 270.572 231.609 269.919C241.248 271.758 248.192 271.688 252.736 263.125C255.012 258.843 256.89 253.958 255.362 249.331ZM254.026 253.16C253.545 257.465 251.951 261.569 249.401 265.07C246.517 268.661 242.443 269.483 237.862 269.157C231.311 268.691 220.229 265.453 219.917 265.503C217.42 264.288 215.297 262.422 213.771 260.101C212.245 257.78 211.374 255.091 211.249 252.316C210.868 244.885 213.579 238.435 220.852 236.172C227.985 233.955 234.958 236.631 241.516 240.204C244.475 241.772 247.326 243.534 250.052 245.478C251.326 246.301 252.364 247.443 253.061 248.79C253.758 250.138 254.091 251.644 254.026 253.16Z" fill="#191919"/>
<path d="M219.055 253.167C219.408 252.571 218.727 252.015 218.168 252.279C217.549 252.537 217.026 252.98 216.671 253.548C216.242 254.308 216.03 255.172 216.058 256.044C216.086 256.916 216.352 257.765 216.828 258.496C216.95 258.713 217.113 258.903 217.309 259.056C217.504 259.209 217.728 259.321 217.967 259.388C218.141 259.433 218.324 259.433 218.498 259.386C218.672 259.339 218.831 259.247 218.958 259.12C219.085 258.993 219.177 258.834 219.224 258.66C219.271 258.486 219.272 258.303 219.226 258.129C218.686 257.422 218.38 256.564 218.349 255.675C218.319 254.786 218.565 253.909 219.055 253.167Z" fill="#191919"/>
<path d="M223.662 242.464C223.71 242.634 223.818 242.781 223.966 242.877C224.114 242.974 224.292 243.014 224.467 242.989C224.642 242.965 224.802 242.879 224.918 242.746C225.035 242.613 225.099 242.442 225.099 242.265C225.125 241.768 225.255 241.282 225.479 240.838C225.703 240.394 226.017 240.001 226.401 239.685C227.457 238.994 227.932 239.238 228.466 238.772C228.914 238.375 228.936 238.005 228.757 237.73C227.457 235.727 222.35 238.792 223.662 242.464Z" fill="#191919"/>
<path d="M227.052 258.225C226.631 257.957 226.357 258.197 225.619 257.707C225.335 257.421 225.222 257.163 225.714 256.705C225.98 256.524 226.006 256.54 226.617 256.419C226.736 256.425 226.853 256.391 226.951 256.323C227.049 256.255 227.121 256.157 227.157 256.044C227.193 255.93 227.19 255.808 227.149 255.696C227.108 255.585 227.031 255.49 226.931 255.426C226.701 255.305 226.446 255.237 226.186 255.228C225.81 255.25 225.443 255.359 225.116 255.546C224.789 255.734 224.509 255.995 224.301 256.31C224.16 256.541 224.067 256.799 224.026 257.066C223.986 257.334 223.998 257.607 224.063 257.87C224.128 258.133 224.245 258.381 224.406 258.599C224.567 258.817 224.769 259.001 225.001 259.14C225.553 259.503 226.206 259.682 226.865 259.65C227.009 259.605 227.136 259.519 227.233 259.403C227.33 259.287 227.392 259.147 227.411 258.997C227.431 258.848 227.407 258.696 227.344 258.559C227.28 258.422 227.179 258.306 227.052 258.225Z" fill="#191919"/>
<path d="M231.588 246.965C231.694 246.964 231.798 246.931 231.886 246.872C231.974 246.812 232.043 246.728 232.084 246.63C232.124 246.532 232.135 246.424 232.115 246.319C232.095 246.215 232.045 246.118 231.971 246.042C231.177 245.383 230.838 244.528 231.376 244.022C232.195 243.521 233.321 244.176 233.543 243.19C233.575 243.086 233.586 242.977 233.574 242.869C233.562 242.762 233.529 242.657 233.475 242.563C233.422 242.469 233.349 242.386 233.263 242.321C233.176 242.256 233.077 242.209 232.972 242.183C232.224 242.053 231.455 242.158 230.77 242.483C230.359 242.746 230.035 243.126 229.839 243.574C229.644 244.022 229.587 244.518 229.675 244.999C229.762 245.479 229.991 245.923 230.332 246.273C230.673 246.624 231.11 246.864 231.588 246.965Z" fill="#191919"/>
<path d="M238.565 254.878C239.034 254.154 239.247 253.294 239.169 252.434C239.091 251.575 238.726 250.767 238.134 250.14C238.039 250.05 237.919 249.99 237.79 249.966C237.661 249.943 237.528 249.957 237.407 250.007C237.286 250.057 237.181 250.141 237.107 250.249C237.032 250.356 236.99 250.483 236.985 250.614C236.995 251.766 238.055 252.788 237.251 253.85C237.064 254.017 237.062 254.072 236.804 254.134C236.276 254.106 236.147 253.866 234.931 253.032C231.547 250.643 227.585 249.203 223.457 248.864C223.323 248.869 223.196 248.921 223.096 249.011C222.997 249.101 222.933 249.223 222.914 249.355C222.896 249.488 222.925 249.623 222.997 249.736C223.068 249.849 223.177 249.934 223.304 249.975C225.999 250.632 228.622 251.555 231.133 252.732C234.686 254.555 235.302 255.827 236.755 255.813C237.107 255.803 237.453 255.714 237.766 255.552C238.08 255.39 238.353 255.16 238.565 254.878Z" fill="#191919"/>
<path d="M243.453 248.766C243.036 248.694 241.696 249.04 241.631 249.627C241.222 253.243 240.136 256.75 238.431 259.965C238.317 260.165 238.286 260.401 238.344 260.624C238.402 260.846 238.545 261.037 238.742 261.156C240.22 262.066 241.96 262.454 243.684 262.259C245.408 262.064 247.017 261.297 248.254 260.08C252.187 255.773 249.265 249.774 243.453 248.766ZM248.243 256.184C248.086 257.02 247.736 257.809 247.22 258.486C246.704 259.163 246.037 259.71 245.272 260.083C244.506 260.455 243.664 260.644 242.813 260.633C241.962 260.622 241.125 260.411 240.37 260.019C241.603 257.679 242.403 255.136 242.732 252.511C242.804 251.785 242.794 251.052 242.702 250.328C242.957 250.473 248.572 251.273 248.243 256.184Z" fill="#191919"/>
<path d="M306.207 159.61C309.185 159.248 316.885 156.789 324.926 158.899C325.686 159.204 326.505 159.335 327.322 159.282C327.416 159.279 327.507 159.248 327.584 159.195C327.661 159.141 327.721 159.067 327.757 158.98C327.793 158.893 327.803 158.798 327.787 158.705C327.77 158.613 327.727 158.527 327.663 158.458C327.451 158.16 327.142 157.945 326.788 157.851C321.726 155.618 310.674 156.4 305.934 158.597C305.834 158.66 305.757 158.752 305.714 158.862C305.671 158.971 305.664 159.092 305.695 159.205C305.726 159.319 305.792 159.419 305.884 159.492C305.977 159.565 306.09 159.606 306.207 159.61Z" fill="#191919"/>
<path d="M272.373 288.144C268.723 283.343 260.646 280.131 254.725 278.898C254.483 278.839 254.227 278.876 254.012 279.002C253.797 279.128 253.64 279.333 253.574 279.573C253.508 279.813 253.538 280.07 253.658 280.288C253.778 280.507 253.978 280.669 254.216 280.742C259.272 281.742 264.065 283.778 268.294 286.723C275.468 292.083 273.195 300.221 265.686 300.042C260.128 299.906 255.665 294.683 249.315 289.393C249.192 289.27 249.025 289.201 248.85 289.201C248.676 289.201 248.509 289.271 248.385 289.394C248.262 289.517 248.193 289.685 248.193 289.859C248.194 290.034 248.263 290.201 248.386 290.324C249.817 292.044 251.392 293.64 253.095 295.092C255.948 298.068 259.482 300.305 263.393 301.611C265.053 302.069 266.806 302.066 268.464 301.604C270.123 301.142 271.624 300.237 272.808 298.986C273.954 297.389 274.533 295.455 274.455 293.491C274.376 291.526 273.643 289.645 272.373 288.144ZM264.703 299.975C264.773 299.975 264.773 299.975 264.703 299.975Z" fill="#191919"/>
<path d="M281.58 253.207C277.514 251.362 273.046 250.577 268.594 250.924C268.463 250.918 268.332 250.939 268.209 250.985C268.086 251.031 267.973 251.102 267.878 251.192C267.783 251.283 267.708 251.392 267.656 251.513C267.604 251.634 267.578 251.764 267.578 251.896C267.578 252.027 267.604 252.157 267.656 252.278C267.708 252.399 267.783 252.508 267.878 252.599C267.973 252.69 268.086 252.76 268.209 252.806C268.332 252.852 268.463 252.873 268.594 252.867C273.557 252.744 278.632 252.949 282.549 256.006C287.44 259.827 287.009 265.266 284.178 267.014C278.62 270.448 267.163 260.251 265.279 259.058C265.138 258.976 264.972 258.948 264.812 258.979C264.651 259.011 264.508 259.099 264.408 259.228C264.308 259.358 264.259 259.519 264.269 259.682C264.279 259.845 264.348 259.999 264.463 260.114C265.072 260.846 265.767 261.501 266.532 262.066C270.915 265.698 278.819 271.159 284.113 269.055C289.762 266.802 289.804 257.574 281.58 253.207Z" fill="#191919"/>
<path d="M272.771 256.782C272.572 258.37 272.328 259.948 272.199 261.546C272.202 261.728 272.259 261.906 272.362 262.057C272.464 262.207 272.609 262.325 272.778 262.395C272.946 262.465 273.132 262.483 273.311 262.449C273.491 262.415 273.656 262.329 273.787 262.203C274.581 261.335 275.353 260.472 276.133 259.602C276.187 261.27 275.854 262.961 276.562 263.787C276.67 263.912 276.803 264.015 276.952 264.087C277.101 264.16 277.263 264.201 277.429 264.209C277.595 264.216 277.76 264.19 277.915 264.132C278.07 264.073 278.212 263.983 278.331 263.868C279.009 262.999 279.599 262.065 280.092 261.079C280.441 260.559 280.751 260.014 281.019 259.447C281.07 259.259 281.058 259.059 280.985 258.878C280.911 258.697 280.779 258.546 280.611 258.448C280.442 258.349 280.245 258.31 280.052 258.335C279.858 258.36 279.678 258.448 279.54 258.586C278.968 259.359 278.448 260.169 277.982 261.01C278.132 259.692 277.962 258.357 277.485 257.119C277.413 256.995 277.313 256.888 277.193 256.808C277.073 256.729 276.936 256.677 276.793 256.658C276.651 256.639 276.505 256.652 276.369 256.698C276.232 256.743 276.107 256.82 276.004 256.92C275.386 257.603 274.772 258.289 274.162 258.977C274.178 258.244 274.184 257.514 274.202 256.78C274.202 256.686 274.183 256.593 274.147 256.506C274.111 256.419 274.058 256.34 273.992 256.274C273.925 256.207 273.846 256.155 273.759 256.119C273.673 256.083 273.579 256.065 273.486 256.065C273.392 256.065 273.299 256.084 273.212 256.12C273.125 256.156 273.046 256.209 272.98 256.275C272.913 256.342 272.861 256.421 272.825 256.508C272.789 256.594 272.771 256.688 272.771 256.782Z" fill="#191919"/>
<path d="M259.477 288.425C259.475 288.253 259.411 288.088 259.298 287.959C259.184 287.83 259.028 287.746 258.858 287.723C258.686 287.695 258.509 287.732 258.363 287.826C258.216 287.921 258.11 288.066 258.064 288.235C257.768 289.87 257.58 291.523 257.5 293.183C257.505 293.361 257.561 293.533 257.661 293.679C257.761 293.825 257.902 293.939 258.066 294.007C258.23 294.075 258.41 294.094 258.584 294.061C258.758 294.029 258.92 293.947 259.048 293.824C259.723 293.088 260.396 292.346 261.067 291.605L261.337 295.331C261.341 295.496 261.387 295.658 261.471 295.8C261.555 295.941 261.675 296.059 261.818 296.142C261.961 296.224 262.123 296.268 262.288 296.269C262.453 296.27 262.616 296.229 262.76 296.149C264.318 295.293 264.823 293.513 265.684 292.352C266.051 291.921 266.367 291.704 266.204 291.824C266.396 291.691 266.53 291.491 266.58 291.264C266.63 291.037 266.593 290.799 266.475 290.598C266.357 290.397 266.168 290.248 265.945 290.181C265.722 290.114 265.482 290.133 265.273 290.236C264.308 290.976 263.546 291.947 263.056 293.06L262.782 289.348C262.779 289.163 262.722 288.983 262.618 288.83C262.514 288.678 262.368 288.558 262.197 288.487C262.026 288.417 261.838 288.397 261.657 288.432C261.475 288.466 261.307 288.553 261.174 288.681C260.601 289.321 260.031 289.966 259.463 290.609C259.513 289.876 259.491 289.154 259.477 288.425Z" fill="#191919"/>
<path d="M360.17 215.45C360.215 215.283 360.198 215.105 360.122 214.95C360.046 214.794 359.916 214.671 359.757 214.604C359.597 214.537 359.419 214.53 359.254 214.584C359.09 214.638 358.95 214.75 358.862 214.898C356.395 219.791 354.793 233.815 356.214 236.082C356.261 236.16 356.327 236.224 356.407 236.269C356.486 236.313 356.575 236.337 356.666 236.337C356.756 236.337 356.846 236.313 356.925 236.269C357.004 236.224 357.07 236.16 357.117 236.082C357.211 235.918 357.29 235.747 357.355 235.57C357.395 235.417 357.425 234.145 357.421 233.982C357.324 227.697 358.253 221.437 360.17 215.45Z" fill="#191919"/>
<path d="M370.295 216.089C370.344 215.438 369.324 215.315 369.169 215.936C367.412 222.979 371.551 231.774 370.457 239.315C370.295 240.443 369.89 241.414 370.259 242.011C370.345 242.149 370.48 242.249 370.637 242.29C370.795 242.331 370.962 242.311 371.104 242.233C371.781 241.912 371.99 240.504 372.097 239.768C373.256 232.025 369.606 225.143 370.295 216.089Z" fill="#191919"/>
<path d="M366.536 236.428C366.575 237.561 366.47 238.695 366.225 239.802C366.111 240.219 366.065 240.651 366.088 241.083C366.229 242.171 368.325 242.704 367.713 236.434C367.692 236.293 367.622 236.165 367.514 236.072C367.407 235.978 367.27 235.927 367.127 235.926C366.985 235.925 366.847 235.976 366.739 236.068C366.631 236.16 366.559 236.287 366.536 236.428Z" fill="#191919"/>
<path d="M363.672 236.655C362.828 239.763 362.82 239.632 362.93 240.407C362.965 240.513 363.029 240.607 363.116 240.679C363.202 240.75 363.307 240.796 363.418 240.81C363.529 240.825 363.642 240.808 363.744 240.761C363.846 240.714 363.932 240.639 363.994 240.545C364.351 240.037 364.343 239.934 364.942 237.002C364.981 236.836 364.954 236.662 364.866 236.516C364.779 236.369 364.639 236.263 364.474 236.218C364.31 236.173 364.135 236.193 363.985 236.275C363.836 236.356 363.723 236.492 363.672 236.655Z" fill="#191919"/>
<path d="M360.017 235.494C359.839 235.468 359.657 235.508 359.506 235.606C359.355 235.705 359.245 235.856 359.198 236.03C358.801 238.303 358.574 239.017 358.987 239.988C359.017 240.081 359.073 240.165 359.148 240.228C359.223 240.29 359.315 240.331 359.412 240.343C359.509 240.356 359.608 240.341 359.697 240.299C359.786 240.258 359.861 240.192 359.914 240.109C360.549 239.263 360.522 238.305 360.668 236.23C360.667 236.05 360.601 235.875 360.481 235.74C360.361 235.604 360.197 235.517 360.017 235.494Z" fill="#191919"/>
<path d="M392.07 238.288C390.101 231.326 392.035 222.709 390.482 216.484C390.321 215.835 389.222 215.951 389.291 216.645C390.159 225.477 388.084 233.631 391.121 240.922C391.393 241.923 391.979 242.811 392.795 243.453C392.891 243.507 393 243.536 393.111 243.535C393.222 243.535 393.331 243.505 393.427 243.45C393.523 243.395 393.602 243.315 393.658 243.22C393.714 243.124 393.744 243.016 393.746 242.905C393.66 241.577 392.922 241.271 392.07 238.288Z" fill="#191919"/>
<path d="M397.268 239.374C397.131 239.044 396.599 237.413 396.565 237.31C396.531 237.198 396.458 237.102 396.36 237.039C396.261 236.976 396.144 236.95 396.028 236.966C395.913 236.982 395.806 237.038 395.728 237.125C395.65 237.212 395.606 237.324 395.603 237.441C395.653 239.088 396.241 240.674 397.276 241.956C397.379 242.061 397.517 242.123 397.664 242.132C397.81 242.141 397.955 242.095 398.07 242.004C398.723 241.496 397.909 240.918 397.268 239.374Z" fill="#191919"/>
<path d="M401.333 239.047C400.857 238.157 400.459 237.227 400.142 236.268C400.097 236.13 400 236.014 399.872 235.945C399.744 235.876 399.594 235.859 399.454 235.898C399.313 235.937 399.193 236.028 399.119 236.152C399.044 236.277 399.02 236.426 399.052 236.568C399.245 237.661 399.687 238.695 400.344 239.589C400.96 240.23 401.656 239.845 401.333 239.047Z" fill="#191919"/>
<path d="M404.039 237.244C403.652 236.629 403.358 235.96 403.167 235.259C403.124 235.101 403.019 234.966 402.877 234.885C402.735 234.804 402.566 234.783 402.408 234.827C402.25 234.87 402.116 234.975 402.035 235.117C401.954 235.259 401.933 235.428 401.976 235.586C402.766 239.449 404.721 238.532 404.039 237.244Z" fill="#191919"/>
<path d="M406.8 234.2C405.089 228.386 405.169 220.931 401.639 215.541C401.57 215.441 401.465 215.37 401.346 215.343C401.226 215.316 401.101 215.336 400.995 215.398C400.89 215.46 400.811 215.559 400.776 215.676C400.741 215.794 400.752 215.92 400.806 216.03C403.783 221.683 403.275 228.198 405.089 234.52C405.318 235.314 405.508 236.398 406.241 236.876C406.332 236.929 406.435 236.96 406.54 236.967C406.645 236.974 406.751 236.958 406.849 236.918C406.947 236.878 407.034 236.817 407.105 236.739C407.176 236.66 407.228 236.567 407.257 236.465C407.304 235.684 407.147 234.903 406.8 234.2Z" fill="#191919"/>
<path d="M255.688 452.192C254.314 460.584 253.778 469.805 258.341 476.98C268.384 492.771 297.783 491.584 309.884 459.693C314.16 448.422 318.221 442.521 319.38 436.524C320.164 433.156 319.647 429.616 317.933 426.613C316.137 424.205 313.833 422.221 311.184 420.803C301.958 414.961 294.206 410.153 283.432 408.407C273.705 406.829 272.713 410.953 268.767 413.679C266.565 415.201 263.876 415.862 261.599 417.252C259.915 418.311 258.503 419.75 257.477 421.454C256.451 423.158 255.839 425.08 255.691 427.064C255.814 430.394 256.242 433.705 256.972 436.957C257.259 442.07 256.827 447.199 255.688 452.192ZM265.077 442.785C265.914 440.724 267.107 438.826 268.6 437.177C273.628 431.179 280.337 426.061 288.11 425.13C295.884 424.199 298.829 429.039 300.338 436.856C302 445.479 302.637 454.665 297.43 461.783C294.617 463.276 292.938 464.814 289.675 464.227C286.838 463.42 284.209 462.009 281.967 460.092C272.55 453.47 267.476 453.69 265.223 449.262C264.763 448.247 264.513 447.149 264.488 446.034C264.463 444.92 264.663 443.812 265.077 442.777V442.785Z" fill="black"/>
<path d="M293.928 452.744C293.281 454.07 291.382 454.232 291.006 452.825C290.808 452.11 291.006 451.122 290.363 450.735C290.24 450.664 290.102 450.624 289.96 450.617C289.818 450.61 289.676 450.636 289.547 450.694C289.417 450.752 289.303 450.84 289.214 450.951C289.125 451.061 289.063 451.191 289.033 451.33C288.881 452.044 288.934 452.787 289.186 453.472C289.359 454.146 289.764 454.737 290.329 455.141C290.895 455.546 291.584 455.739 292.278 455.685C292.971 455.632 293.623 455.336 294.12 454.85C294.617 454.363 294.926 453.717 294.994 453.026C294.99 452.902 294.946 452.783 294.869 452.686C294.792 452.589 294.686 452.52 294.566 452.488C294.447 452.457 294.32 452.464 294.205 452.51C294.09 452.556 293.993 452.638 293.928 452.744Z" fill="#191919"/>
<path d="M276.441 446.005C276.302 445.946 276.146 445.939 276.003 445.986C275.859 446.033 275.738 446.131 275.661 446.261C275.57 446.394 275.45 446.505 275.31 446.584C275.169 446.663 275.012 446.709 274.852 446.717C274.691 446.725 274.53 446.697 274.382 446.633C274.234 446.569 274.103 446.471 273.999 446.348C273.249 445.262 273.896 444.865 273.936 443.555C273.957 442.761 273.296 442.543 272.798 442.93C272.539 443.099 272.323 443.325 272.165 443.591C272.008 443.857 271.914 444.156 271.891 444.464C271.401 447.192 273.554 448.949 275.406 448.317C276.542 447.938 277.308 446.35 276.441 446.005Z" fill="#191919"/>
<path d="M290.695 443.347L289.242 442.048C288.757 441.618 287.938 440.695 287.257 441.377C287.116 441.548 287.042 441.765 287.049 441.986C287.056 442.207 287.143 442.419 287.295 442.58C287.422 442.723 288.114 443.297 288.831 443.914C286.444 445.806 284.504 448.201 283.15 450.929C283.082 451.056 283.067 451.205 283.106 451.343C283.146 451.482 283.237 451.6 283.362 451.672C283.486 451.745 283.634 451.766 283.774 451.733C283.914 451.699 284.035 451.612 284.113 451.491C284.569 450.834 285.085 450.229 285.568 449.589C286.965 447.701 288.638 446.034 290.53 444.643C290.637 444.577 290.728 444.489 290.796 444.383C290.864 444.278 290.908 444.159 290.923 444.034C290.939 443.91 290.927 443.783 290.887 443.664C290.848 443.545 290.782 443.437 290.695 443.347Z" fill="#191919"/>
<path d="M285.534 438.581C286.526 438.205 287.582 438.03 288.643 438.064C289.703 438.098 290.746 438.341 291.711 438.78C291.667 438.994 291.699 439.217 291.804 439.409C291.908 439.602 292.078 439.751 292.282 439.83C292.486 439.909 292.712 439.913 292.918 439.841C293.125 439.769 293.3 439.625 293.411 439.437C296.112 433.843 292.656 428.007 288.919 429.531C286.163 430.653 284.518 434.667 284.323 437.67C284.326 437.816 284.362 437.96 284.428 438.09C284.494 438.22 284.589 438.333 284.706 438.421C284.823 438.509 284.958 438.569 285.102 438.597C285.245 438.624 285.393 438.619 285.534 438.581ZM290.336 431.175C292.37 431.685 292.763 435.32 292.212 437.358C290.477 436.299 288.406 435.937 286.415 436.344C286.816 434.375 288.313 431.175 290.336 431.175Z" fill="#191919"/>
<path d="M320.034 426.852C322.011 424.209 323.854 421.468 325.556 418.64C326.56 416.679 327.394 414.2 325.52 412.987C325.061 412.756 324.559 412.625 324.046 412.601C323.533 412.577 323.021 412.661 322.543 412.848C319.077 413.812 315.886 415.574 313.223 417.993C312.998 418.194 312.815 418.438 312.687 418.711C312.558 418.983 312.485 419.279 312.473 419.581C312.474 419.704 312.523 419.822 312.61 419.91C312.698 419.997 312.816 420.046 312.939 420.047C313.629 419.989 314.275 419.681 314.753 419.18C316.495 417.66 318.467 416.427 320.595 415.527C321.7 415.065 322.849 414.719 324.025 414.493C324.565 414.468 324.682 414.714 324.728 415.059C324.962 416.792 322.062 420.494 318.852 426.159C318.761 426.316 318.735 426.502 318.78 426.678C318.826 426.854 318.94 427.004 319.097 427.096C319.253 427.188 319.44 427.214 319.616 427.168C319.791 427.122 319.942 427.009 320.034 426.852Z" fill="#191919"/>
<path d="M288.684 408.325C290.669 394.686 285.31 392.832 282.582 394.941C281.19 396.278 280.286 398.043 280.014 399.955C278.227 407.132 278.253 406.757 278.426 407.373C278.468 407.522 278.549 407.657 278.659 407.765C278.77 407.874 278.907 407.952 279.057 407.992C279.206 408.032 279.364 408.033 279.514 407.994C279.664 407.955 279.801 407.877 279.912 407.77C280.458 407.21 280.309 407.295 281.663 401.874C281.896 399.977 282.62 398.173 283.763 396.642C285.52 395.093 286.898 398.47 287.138 401.574C287.624 407.67 286.769 408.693 287.882 408.838C288.056 408.869 288.235 408.834 288.384 408.739C288.533 408.644 288.64 408.496 288.684 408.325Z" fill="#191919"/>
<path d="M219.76 399.079C219.817 399.136 219.886 399.178 219.962 399.203C220.038 399.229 220.119 399.237 220.198 399.226C220.278 399.216 220.353 399.188 220.42 399.144C220.487 399.1 220.543 399.041 220.584 398.972C221.168 397.936 220.727 397.091 221.18 392.051C221.571 389.097 221.574 386.106 221.189 383.152C221.025 382.525 220.814 381.91 220.56 381.314C220.506 381.155 220.393 381.023 220.245 380.944C220.096 380.866 219.923 380.847 219.762 380.891C219.6 380.936 219.461 381.041 219.374 381.184C219.286 381.327 219.257 381.499 219.292 381.663C219.349 381.961 219.578 384.631 219.597 384.932C219.915 390.016 218.198 397.279 219.76 399.079Z" fill="#191919"/>
<path d="M218.87 414.736C219.144 415.705 219.676 416.581 220.41 417.271C220.807 417.561 221.286 417.164 221.312 416.753C221.421 414.982 216.548 408.037 217.129 393.227C217.12 393.057 217.046 392.897 216.922 392.78C216.799 392.663 216.635 392.598 216.465 392.598C216.295 392.598 216.132 392.663 216.008 392.78C215.885 392.897 215.811 393.057 215.801 393.227C214.983 400.541 216.039 407.943 218.87 414.736Z" fill="#191919"/>
<path d="M207.147 407.223C207.231 408.218 207.534 409.181 208.036 410.044C208.247 410.362 208.852 410.372 208.932 409.925C209.061 408.191 208.98 406.447 208.691 404.732C208.173 396.872 209.914 390.359 210.926 383.493C210.964 383.336 210.939 383.17 210.857 383.031C210.775 382.892 210.642 382.79 210.486 382.747C210.33 382.704 210.164 382.723 210.022 382.8C209.88 382.878 209.774 383.007 209.726 383.161C207.76 390.063 206.105 400.123 207.147 407.223Z" fill="#191919"/>
<path d="M214.075 412.088C214.688 413.972 215.436 414.009 215.605 413.477C216.113 411.866 214.742 410.982 213.457 398.475C213.457 398.314 213.393 398.159 213.279 398.045C213.165 397.931 213.011 397.867 212.85 397.867C212.689 397.867 212.534 397.931 212.42 398.045C212.306 398.159 212.242 398.314 212.242 398.475C212.209 403.076 212.826 407.659 214.075 412.088Z" fill="#191919"/>
<path d="M210.676 399.467C210.676 399.33 210.621 399.199 210.525 399.102C210.428 399.006 210.296 398.951 210.16 398.951C210.023 398.951 209.891 399.006 209.795 399.102C209.698 399.199 209.644 399.33 209.644 399.467C209.191 402.746 209.552 406.087 210.694 409.194C210.802 409.681 211.056 410.123 211.422 410.462C211.487 410.524 211.568 410.566 211.656 410.583C211.744 410.6 211.835 410.59 211.918 410.556C212.001 410.522 212.072 410.464 212.122 410.39C212.173 410.316 212.201 410.228 212.202 410.139C212.19 408.948 212.151 409.73 211.607 407.471C210.923 404.86 210.61 402.166 210.676 399.467Z" fill="#191919"/>
<path d="M253.774 449.188C238.055 441.152 225.256 432.611 213.689 419.635C205.307 410.347 198.809 399.52 194.556 387.754C191.38 378.772 184.448 352.915 183.251 338.681C187.007 338.367 195.524 337.525 199.586 336.658C200.662 336.428 200.441 334.619 199.322 334.713C195.135 335.068 192.479 335.705 182.052 336.537C181.756 336.541 181.473 336.661 181.264 336.87C181.054 337.079 180.935 337.362 180.931 337.658C182.023 348.384 184.066 358.992 187.035 369.357C192.08 388.756 196.074 402.066 210.14 418.771C221.83 432.567 236.589 443.432 253.234 450.496C253.973 450.797 254.493 449.555 253.774 449.188Z" fill="#191919"/>
<path d="M257.407 416.731C255.102 414.862 247.698 411.404 241.493 406.509C231.098 398.311 227.251 389.549 227.034 376.557C227.119 366.943 228.264 357.367 230.447 348.003C231.812 341.978 232.305 341.619 231.769 340.625C231.274 339.953 230.535 339.503 229.712 339.372C228.918 339.108 228.15 338.856 227.342 338.659C227.111 338.598 226.866 338.623 226.652 338.728C226.438 338.833 226.268 339.011 226.175 339.231C226.079 339.45 226.067 339.696 226.14 339.923C226.213 340.151 226.367 340.344 226.572 340.466C227.763 340.994 228.845 341.349 229.786 341.673C226.723 352.701 225.099 364.08 224.954 375.525C225.026 397.394 235.582 407.253 255.557 417.408C255.941 417.584 256.34 417.727 256.748 417.837C257.367 418.022 257.925 417.152 257.407 416.731Z" fill="#191919"/>
<path d="M191.842 334.792C191.203 324.837 193.202 314.889 197.639 305.954C197.827 305.583 198.175 304.721 198.063 304.991C198.754 303.391 197.335 302.69 196.424 304.096C194.505 307.584 193.012 311.29 191.975 315.134C190.189 321.522 189.641 328.192 190.362 334.786C190.361 334.982 190.438 335.171 190.576 335.31C190.715 335.45 190.903 335.528 191.099 335.529C191.295 335.53 191.484 335.453 191.623 335.315C191.763 335.176 191.842 334.988 191.842 334.792Z" fill="#191919"/>
<path d="M197.72 317.636C197.721 317.788 197.778 317.934 197.879 318.048C197.98 318.162 198.119 318.235 198.27 318.255C198.42 318.278 198.574 318.244 198.701 318.161C198.829 318.078 198.922 317.951 198.962 317.804C200.352 308.06 203.585 304.078 203.44 302.76C203.438 302.675 203.413 302.592 203.369 302.519C203.325 302.446 203.263 302.385 203.189 302.343C203.115 302.301 203.032 302.278 202.946 302.277C202.861 302.276 202.777 302.297 202.702 302.337C201.342 302.977 197.996 310.321 197.72 317.636Z" fill="#191919"/>
<path d="M309.614 168.237C309.161 164.395 307.907 160.69 305.934 157.363C305.829 157.189 305.67 157.053 305.482 156.976C305.293 156.899 305.085 156.885 304.888 156.936C293.491 159.762 282.83 164.995 273.624 172.284C273.265 172.588 273.735 173.195 274.126 172.937C275.536 172.014 276.933 171.226 277.026 171.163C281.732 168.041 286.716 165.36 291.914 163.153C292.164 163.451 292.881 164.027 294.409 165.488C295.878 166.872 297.093 168.503 297.998 170.307C298.105 170.479 298.27 170.608 298.463 170.669C298.656 170.731 298.865 170.722 299.052 170.643C299.239 170.564 299.392 170.421 299.483 170.24C299.574 170.059 299.597 169.851 299.548 169.654C298.33 166.031 295.181 162.323 293.818 162.377C297.351 160.968 300.98 159.809 304.676 158.907C306.278 162.21 307.463 165.699 308.205 169.295C308.279 169.415 308.386 169.511 308.513 169.572C308.64 169.632 308.782 169.655 308.922 169.637C309.062 169.618 309.193 169.56 309.3 169.469C309.408 169.377 309.486 169.257 309.527 169.122C309.606 168.834 309.635 168.535 309.614 168.237Z" fill="url(#paint10_linear_416_19995)"/>
<path d="M287.177 193.947C284.738 199.643 282.502 205.423 280.474 211.278C277.254 208.177 269.33 201.806 265.026 200.908C264.797 200.816 264.551 200.77 264.304 200.774C264.057 200.779 263.813 200.833 263.587 200.934C263.412 201.043 263.285 201.214 263.233 201.413C263.18 201.612 263.206 201.824 263.305 202.004C263.591 202.667 265.937 203.632 266.706 204.017C273.131 207.229 279.056 212.65 279.955 212.771C277.427 220.159 275.815 225.632 274.461 230.276C268.022 223.577 267.261 222.408 265.767 221.094C262.074 217.755 258.05 214.801 253.757 212.28C252.763 211.606 251.63 211.164 250.443 210.986C250.296 210.99 250.153 211.031 250.027 211.106C249.901 211.181 249.797 211.287 249.724 211.414C249.651 211.541 249.612 211.685 249.611 211.832C249.61 211.978 249.647 212.123 249.718 212.251C250.512 213.561 254.039 214.319 261.519 220.389C265.926 223.973 270.082 227.854 273.959 232.005C272.685 236.654 271.161 241.231 269.393 245.716C267.607 244.227 265.199 242.178 264.068 241.283C260.82 238.717 247.538 229.189 245.426 228.297C244.632 227.964 244.386 227.767 243.801 227.883C243.672 227.92 243.564 228.006 243.498 228.122C243.432 228.239 243.414 228.376 243.447 228.506C243.676 229.576 246.879 231.571 247.991 232.319C262.607 242.155 265.292 244.547 268.784 247.157C267.406 250.36 265.902 253.508 264.276 256.594C264.282 256.464 264.252 256.336 264.189 256.223C264.126 256.109 264.033 256.016 263.921 255.952C259.903 253.876 259.855 253.789 258.918 253.967C258.821 253.996 258.731 254.046 258.656 254.114C258.58 254.182 258.521 254.266 258.483 254.361C258.445 254.455 258.428 254.556 258.435 254.658C258.442 254.759 258.471 254.858 258.521 254.946C258.984 255.714 259.079 255.702 263.361 257.28C263.464 257.314 263.575 257.322 263.682 257.302C263.789 257.282 263.89 257.236 263.974 257.167C262.253 260.442 257.027 270.024 256.179 271.568C256.134 271.468 256.069 271.377 255.988 271.302C255.908 271.227 255.812 271.169 255.709 271.132C251.784 269.492 252.334 269.681 251.27 269.53C251.09 269.473 250.896 269.486 250.724 269.565C250.553 269.645 250.418 269.785 250.345 269.959C250.272 270.133 250.267 270.328 250.331 270.506C250.394 270.683 250.522 270.831 250.689 270.919C251.703 271.515 251.284 271.358 255.332 272.519C255.442 272.546 255.557 272.546 255.667 272.519C253.285 276.908 250.903 281.317 248.581 285.751C241.022 281.483 246.143 283.596 229.626 277.261C228.888 276.947 228.08 276.833 227.284 276.932C227.185 276.962 227.095 277.013 227.019 277.082C226.943 277.152 226.884 277.237 226.845 277.332C226.806 277.427 226.788 277.529 226.794 277.632C226.799 277.734 226.828 277.834 226.877 277.924C227.311 278.691 228.584 279.36 241.308 283.911C242.385 284.308 245.792 286.158 247.858 287.131C245.885 290.906 243.958 294.702 242.078 298.517C237.945 297.181 229.094 294.92 225.999 294.039C213.692 290.527 213.049 289.955 209.069 288.757C209.816 285.581 210.604 282.405 211.392 279.229C211.443 279.001 211.404 278.763 211.285 278.563C211.165 278.363 210.973 278.217 210.748 278.155C210.523 278.093 210.284 278.12 210.078 278.23C209.873 278.34 209.718 278.525 209.645 278.746C207.569 285.356 205.957 292.102 204.821 298.936C199.799 327.064 200.75 355.934 207.612 383.671C207.691 383.941 207.872 384.17 208.116 384.309C208.361 384.447 208.65 384.485 208.922 384.414L221.644 380.757C221.866 380.692 222.062 380.557 222.202 380.373C222.342 380.189 222.42 379.965 222.424 379.733C221.386 330.614 251.703 286.408 267.696 254.382C277.133 235.483 275.978 225.004 288.66 194.546C288.999 193.735 287.536 193.111 287.177 193.947ZM209.407 382.075C208.104 376.73 207.023 371.339 206.161 365.9C208.462 365.985 208.233 365.864 216.535 364.742C218.056 364.587 219.552 364.242 220.987 363.714C220.439 368.774 220.204 373.862 220.282 378.951L209.407 382.075ZM221.176 362.053C220.016 362.295 217.603 362.737 216.35 362.847C212.878 363.428 209.37 363.773 205.851 363.881C205.005 358.157 204.406 352.401 204.055 346.611C204.353 346.726 204.661 346.813 204.974 346.871C210.315 347.312 215.68 347.381 221.031 347.08C221.184 347.032 221.317 346.937 221.412 346.808C221.507 346.679 221.559 346.523 221.559 346.363C221.559 346.203 221.507 346.047 221.412 345.918C221.317 345.789 221.184 345.694 221.031 345.647C219.85 345.331 208.047 345.039 206.143 344.882C205.366 344.799 204.611 344.567 203.922 344.198C203.62 337.94 203.614 331.662 203.904 325.366C206.693 328.052 220.874 330.42 223.977 330.775C224.868 330.948 225.785 330.953 226.678 330.789C226.829 330.745 226.964 330.657 227.066 330.538C227.168 330.419 227.234 330.273 227.255 330.117C227.276 329.961 227.251 329.803 227.184 329.66C227.117 329.518 227.01 329.399 226.877 329.316C225.747 328.721 223.502 328.74 217.873 327.549C214.557 326.871 211.28 326.014 208.057 324.981C206.584 324.455 204.938 323.194 204.033 323.051C204.319 318.115 204.793 313.182 205.454 308.251C205.752 308.393 206.059 308.516 206.372 308.62C214.079 311.284 221.722 313.98 230.507 314.714C230.709 314.711 230.903 314.635 231.053 314.501C231.204 314.366 231.301 314.182 231.328 313.982C231.355 313.782 231.309 313.579 231.199 313.41C231.088 313.241 230.921 313.117 230.727 313.061C223.667 311.328 220.388 310.861 212.728 308.456C211.118 307.951 207.729 306.542 205.78 305.994C206.517 300.951 207.452 295.922 208.585 290.908C216.972 293.98 225.557 296.478 234.283 298.386C235.198 298.56 240.214 299.986 241.313 300.105C231.654 319.973 223.772 340.464 221.176 362.053Z" fill="url(#paint11_linear_416_19995)"/>
<path d="M515.222 268.994C515.183 269.223 515.194 269.457 515.255 269.681C515.316 269.906 515.424 270.114 515.573 270.292C515.733 270.446 515.947 270.532 516.169 270.532C516.391 270.532 516.604 270.446 516.764 270.292C516.914 270.114 517.023 269.906 517.084 269.682C517.145 269.458 517.156 269.223 517.118 268.994C517.411 266.594 516.781 264.172 515.355 262.219C515.274 262.097 515.149 262.01 515.005 261.977C514.862 261.944 514.712 261.966 514.585 262.04C514.458 262.115 514.365 262.234 514.323 262.375C514.282 262.516 514.296 262.668 514.362 262.798C515.025 264.794 515.316 266.893 515.222 268.994Z" fill="#191919"/>
<path d="M523.635 280.949C522.844 279.646 521.634 278.65 520.203 278.125C520.078 278.043 519.926 278.011 519.779 278.036C519.631 278.061 519.498 278.141 519.407 278.259C519.315 278.377 519.272 278.526 519.284 278.675C519.297 278.824 519.366 278.963 519.477 279.064C520.213 279.725 520.038 279.762 520.805 280.544C521.9 281.649 522.745 282.976 523.28 284.437C523.379 284.822 523.532 285.192 523.735 285.535C523.83 285.701 523.978 285.831 524.154 285.904C524.331 285.977 524.528 285.99 524.713 285.94C524.898 285.891 525.061 285.781 525.177 285.628C525.293 285.476 525.355 285.29 525.354 285.098C525.154 283.588 524.562 282.158 523.635 280.949Z" fill="#191919"/>
<path d="M519.829 271.62C513.404 273.466 510.599 273.162 506.653 274.284C506.389 274.359 506.165 274.535 506.03 274.774C505.895 275.013 505.859 275.295 505.93 275.56C506.49 277.05 507.241 278.462 508.165 279.758C508.309 279.959 508.522 280.1 508.764 280.152C509.006 280.204 509.258 280.164 509.472 280.04C509.686 279.916 509.845 279.717 509.92 279.481C509.994 279.245 509.978 278.99 509.874 278.766C509.29 277.888 508.776 276.965 508.336 276.006C512.703 274.986 517.33 274.643 520.27 272.678C520.396 272.61 520.493 272.498 520.541 272.363C520.589 272.229 520.586 272.081 520.53 271.948C520.475 271.816 520.373 271.709 520.243 271.648C520.114 271.588 519.966 271.577 519.829 271.62Z" fill="#191919"/>
<path d="M505.671 283.129C504.806 282.849 504.317 283.643 503.075 283.613C502.66 283.592 502.269 283.417 501.977 283.123C501.795 282.913 501.679 282.654 501.641 282.379C501.626 281.51 501.93 280.665 502.495 280.005C502.632 279.925 502.736 279.799 502.786 279.649C502.837 279.498 502.831 279.335 502.77 279.189C502.708 279.043 502.596 278.924 502.453 278.855C502.31 278.786 502.147 278.771 501.995 278.814C501.234 279.202 500.615 279.821 500.227 280.582C499.839 281.343 499.701 282.208 499.833 283.052C500.049 283.858 500.551 284.557 501.245 285.02C501.939 285.484 502.778 285.678 503.605 285.569C506.495 285.253 506.638 283.445 505.671 283.129ZM502.952 283.607H502.995C502.978 283.611 502.961 283.611 502.944 283.607H502.952Z" fill="#191919"/>
<path d="M543.385 289.715C547.804 286.803 553.525 281.104 551.127 276.415C551.915 274.699 552.332 272.837 552.352 270.949C552.371 269.06 551.992 267.19 551.24 265.458C550.111 261.662 548.204 258.142 545.64 255.124C543.567 252.951 541.003 251.308 538.164 250.332C535.324 249.356 532.292 249.075 529.321 249.514C528.175 249.763 527.137 250.369 526.357 251.246C525.578 252.123 525.098 253.225 524.986 254.393C524.857 255.513 524.817 254.03 517.187 257.012C516.768 253.955 512.252 253.603 509.34 255.555C506.841 257.23 505.501 260.269 507.633 261.591C507.832 261.591 500.289 265.65 497.391 267.802C490.928 272.612 491.301 278.337 494.35 285.699C497.158 292.48 499.763 297.678 507.165 297.708C511.421 297.458 515.606 296.499 519.547 294.872C519.746 294.883 519.911 295.134 520.264 295.467C521.725 296.757 523.631 297.428 525.578 297.337C527.525 297.246 529.36 296.401 530.695 294.981C533.387 294.993 539.332 292.108 541.565 290.828C548.86 304.981 555.422 320.5 555.912 336.626C556.189 351.602 554.509 366.549 550.914 381.09C548.575 389.467 545.313 397.557 541.188 405.214C536.42 404.306 531.756 402.917 527.269 401.067C532.378 389.995 538.98 371.004 536.338 359.128C532.225 340.701 491.36 316.713 487.206 259.098C486.919 251.198 485.756 243.354 483.74 235.711C474.799 206.088 461.802 198.921 443.758 178.225C446.438 173.805 449.979 169.968 454.169 166.942C484.887 186.427 503.661 217.657 519.823 250.273C520.282 251.2 521.634 250.388 521.213 249.465C505.841 216.589 485.304 183.819 454.735 164.534C454.557 164.428 454.354 164.372 454.147 164.372C453.941 164.372 453.738 164.428 453.56 164.534C453.09 164.86 452.625 165.197 452.17 165.541C452.105 165.132 451.947 164.744 451.708 164.405C448.157 158.063 440.79 152.368 434.625 148.815C434.014 148.464 433.456 149.337 433.93 149.716C439.842 154.445 446.061 158 450.118 165.001C450.374 165.446 450.672 166.152 451.128 166.347C447.828 168.988 444.955 172.123 442.611 175.641C441.32 175.194 441.364 175.317 440.03 174.809C433.083 172.177 431.205 167.617 428.275 165.269C426.872 164.143 424.355 162.736 422.842 163.701C422.742 163.762 422.66 163.847 422.602 163.949C422.545 164.051 422.515 164.166 422.515 164.282C422.515 164.399 422.545 164.514 422.602 164.616C422.66 164.718 422.742 164.803 422.842 164.864C424.18 165.63 424.771 165.126 426.711 166.563C429.801 168.856 431.935 174.211 440.459 176.853C440.856 176.974 441.241 177.096 441.64 177.181C441.287 177.776 440.798 178.382 441.485 179.176C458.439 198.784 470.81 206.098 479.492 230.234C484.748 244.844 484 250.312 485.663 269.497C481.739 270.958 477.614 272.745 475.03 276.179C474.23 277.025 473.796 278.151 473.82 279.315C473.844 280.478 474.325 281.586 475.159 282.398C476.953 283.454 479.059 283.849 481.114 283.515C483.232 283.568 485.345 283.261 487.361 282.606C488.335 287.825 490.144 292.852 492.72 297.494C489.181 299.204 485.917 301.434 483.037 304.11C480.302 307.121 482.202 310.361 485.336 311.129C490.075 311.666 494.869 310.849 499.161 308.771C505.986 319.769 519.537 337.738 522.811 341.722C521.818 342.883 519.224 354.96 506.798 368.718C499.809 376.484 491.349 382.788 481.908 387.263C477.739 389.223 473.372 390.592 469.087 392.264C468.612 390.749 465.607 382.214 465.198 381.148C464.454 379.204 463.668 378.829 461.766 377.972C453.195 374.135 453.596 374.184 453.032 374.418C452.226 374.758 452.671 374.998 451.101 380.286C449.677 385.076 448.943 385.669 449.741 386.938C449.987 387.335 458.532 397.329 458.913 397.758C453.032 402.576 453.058 407.518 450.13 412.068C436.556 400.376 440.737 399.533 435.582 399.562L427.009 399.61C426.736 399.616 426.475 399.727 426.282 399.92C426.089 400.113 425.978 400.373 425.972 400.646C425.96 400.845 425.274 411.983 425.284 412.247C425.361 414.033 425.966 413.821 436.483 420.504C429.323 425.993 429.456 435.007 423.747 444.6C420.796 449.563 418.628 451.151 415.462 454.912C415.339 454.545 414.041 450.388 413.256 447.725C413.178 447.446 412.992 447.209 412.74 447.066C412.488 446.923 412.19 446.885 411.911 446.96C399.975 451.708 387.447 454.806 374.674 456.169C356.214 458.122 343.311 456.191 324.172 442.349C323.495 441.859 322.673 441.525 322.02 441.013C321.866 440.859 321.656 440.772 321.438 440.772C321.22 440.772 321.011 440.859 320.857 441.013C320.702 441.167 320.616 441.377 320.616 441.595C320.616 441.813 320.702 442.022 320.857 442.176C321.94 443.259 323.114 444.248 324.364 445.132C341.832 457.699 356.001 459.956 372.076 458.549C385.575 457.37 398.842 454.308 411.492 449.451C412.266 452.08 413.067 454.7 413.894 457.312C396.747 472.563 376.973 473.928 356.674 480.094C355.907 480.295 355.154 480.544 354.419 480.84C352.75 481.591 353.081 483.582 353.157 485.12C337 484.104 321.341 479.132 307.557 470.643C306.712 470.115 306.033 471.384 306.793 471.949C316.917 479.473 332.201 485.767 353.226 487.466L353.377 492.861C353.401 493.705 353.266 494.632 353.951 495.243C354.421 495.654 354.943 495.664 356.688 495.839C368.824 497.052 381.119 495.112 393.164 492.552C418.592 487.147 442.228 481.4 466.069 454.241C467.63 452.455 467.64 452.346 467.945 452.101C467.991 452.637 468.481 453.046 469.422 452.683C468.854 452.903 471.957 451.045 484.167 452.032C486.448 452.226 488.693 452.724 490.842 453.515C490.983 453.597 491.151 453.621 491.309 453.58C491.467 453.538 491.602 453.436 491.685 453.295C491.767 453.155 491.791 452.987 491.75 452.829C491.709 452.671 491.606 452.535 491.465 452.453C488.8 450.818 485.737 449.948 482.61 449.938C480.195 449.749 475.109 449.848 472.82 449.938C471.387 449.991 472.177 450.116 471.75 449.541C468.177 444.705 460.484 432.867 459.102 427.077C457.232 419.228 463.271 414.373 472.461 417.987C480.471 421.557 487.808 426.476 494.151 432.531C494.33 432.7 494.516 432.859 494.705 433.016C492.379 439.29 490.662 446.065 492.563 452.453C492.604 452.597 492.696 452.721 492.821 452.803C492.947 452.885 493.098 452.919 493.246 452.899C493.396 452.882 493.534 452.81 493.634 452.697C493.734 452.584 493.788 452.439 493.788 452.288C492.246 440.289 498.621 430.427 498.629 427.845C516.494 410.53 528.222 386.608 534.572 362.961C535.544 373.341 529.504 391.005 524.736 401.073C524.589 401.341 524.55 401.655 524.628 401.951C524.706 402.246 524.895 402.501 525.155 402.661C527.864 403.852 526.872 403.129 526.544 403.745C525.025 407.172 523.302 410.505 521.383 413.725C520.089 415.766 519.879 415.631 520.053 416.755C520.101 417.064 520.433 417.169 520.782 417.122C521.641 417.005 522.096 416.094 522.811 414.986C525.024 411.695 526.7 408.072 527.773 404.253C527.795 404.161 527.797 404.065 527.781 403.971C527.764 403.878 527.729 403.789 527.678 403.709C531.793 405.33 536.05 406.565 540.394 407.397C539.816 407.897 539.88 410.534 539.715 412.094C539.104 417.924 536.487 423.883 534.326 429.423C534.048 430.133 535.213 430.614 535.554 429.941C538.635 423.831 541.521 417.076 541.759 410.262C541.786 409.343 541.63 408.428 541.301 407.57L541.523 407.614C541.768 407.674 542.026 407.656 542.26 407.561C542.493 407.465 542.691 407.298 542.823 407.084C554.535 384.808 557.735 363.918 558.076 339.216C558.302 322.332 551.127 304.721 543.385 289.715ZM515.581 257.377C515.601 257.456 515.581 257.415 515.581 257.377ZM508.503 259.737C508.171 258.915 509.984 257.258 511.055 256.728C512.445 256.047 515.174 255.848 515.563 257.339C515.814 257.885 513.93 258.133 509.41 260.618C509.344 260.241 508.673 260.172 508.503 259.745V259.737ZM523.009 294.977C521.385 294.272 521.024 293.006 519.649 292.93C518.525 292.869 518.126 293.484 514.636 294.518C510.698 295.685 505.43 296.674 502.044 294.342C501.029 293.603 500.155 292.689 499.463 291.642C497.271 288.059 495.6 284.183 494.501 280.129C492.637 271.905 497.875 269.428 504.946 265.226C511.129 261.232 517.881 258.196 524.972 256.222C525.506 264.412 530.86 273.475 534.78 280.058C535.1 280.616 535.464 281.147 535.87 281.646C533.283 282.882 530.932 284.562 528.922 286.608C528.808 286.727 528.722 286.871 528.67 287.027C528.619 287.184 528.603 287.351 528.623 287.515C528.644 287.679 528.702 287.836 528.791 287.975C528.881 288.113 529 288.23 529.141 288.317C532.313 291.493 528.525 296.972 523.009 294.985V294.977ZM451.424 385.832C451.424 385.973 451.424 385.874 451.424 385.832C451.317 385.622 452.708 382.7 454.11 376.713C462.645 380.451 462.764 380.233 463.344 381.561C463.765 382.716 467.066 391.736 467.534 392.875C465.08 393.85 462.734 395.077 460.533 396.537C459.533 395.334 451.613 386.132 451.424 385.84V385.832ZM427.372 412.294C427.324 412.016 427.487 409.755 427.967 401.677C437.599 401.623 436.824 401.593 437.198 401.722C437.91 402.119 442.216 408.793 449.165 413.356C446.442 416.532 442.057 417.138 438.434 419.198C437.575 418.672 427.153 412.302 427.372 412.302V412.294Z" fill="url(#paint12_linear_416_19995)"/>
<path d="M415.948 161.102C428.93 160.175 431.33 163.998 434.125 163.881C434.205 163.881 434.284 163.859 434.353 163.819C434.422 163.778 434.48 163.721 434.52 163.651C434.56 163.582 434.581 163.503 434.581 163.423C434.582 163.343 434.561 163.264 434.522 163.194C434.182 162.619 433.671 162.163 433.061 161.89C427.684 159.315 421.61 158.58 415.774 159.796C415.055 159.995 415.174 161.168 415.948 161.102Z" fill="#191919"/>
<path d="M419.536 156.341C429.431 156.341 433.08 159.36 434.499 158.922C434.575 158.899 434.646 158.86 434.705 158.806C434.764 158.753 434.81 158.686 434.84 158.613C434.87 158.539 434.883 158.459 434.878 158.38C434.873 158.3 434.85 158.223 434.811 158.153C434.104 156.655 425.755 154.392 419.538 155.196C419.392 155.204 419.255 155.268 419.154 155.374C419.053 155.481 418.997 155.621 418.997 155.768C418.997 155.914 419.052 156.055 419.153 156.161C419.253 156.268 419.39 156.332 419.536 156.341Z" fill="#191919"/>
<path d="M425.704 151.837C431.955 153.001 434.512 155.597 436.211 155.871C436.282 155.887 436.357 155.883 436.425 155.859C436.494 155.834 436.555 155.79 436.599 155.732C436.644 155.674 436.671 155.605 436.677 155.532C436.683 155.459 436.668 155.386 436.634 155.321C436.38 154.885 436.043 154.503 435.641 154.198C432.763 152.149 429.392 150.902 425.873 150.583C425.162 150.506 424.996 151.706 425.704 151.837Z" fill="#191919"/>
<path d="M483.853 432.746C483.12 432.434 482.809 432.021 482.239 431.952C482.105 431.923 481.966 431.931 481.836 431.975C481.706 432.019 481.591 432.097 481.502 432.202C481.413 432.306 481.354 432.433 481.332 432.568C481.309 432.704 481.324 432.842 481.374 432.97C481.553 433.406 481.887 433.76 482.313 433.962C482.649 434.247 483.041 434.458 483.464 434.581C483.887 434.704 484.332 434.737 484.768 434.678C485.205 434.619 485.624 434.468 485.999 434.237C486.373 434.005 486.695 433.697 486.944 433.333C487.233 432.695 487.352 431.993 487.29 431.295C487.227 430.597 486.985 429.928 486.586 429.351C486.512 429.227 486.398 429.13 486.264 429.076C486.129 429.022 485.98 429.013 485.84 429.051C485.7 429.089 485.576 429.172 485.487 429.286C485.398 429.401 485.349 429.542 485.348 429.687C485.592 431.904 485.999 433.369 483.853 432.746Z" fill="#191919"/>
<path d="M474.951 441.237C474.466 442.146 473.486 441.722 472.481 441.892C472.351 441.931 472.234 442.007 472.146 442.11C472.058 442.214 472.002 442.341 471.984 442.476C471.967 442.611 471.989 442.748 472.048 442.871C472.107 442.993 472.2 443.096 472.317 443.167C474.317 444.25 477.039 442.537 476.402 440.535C476.332 440.312 475.987 439.667 475.965 439.542C476.035 439.414 476.057 439.265 476.028 439.122C475.999 438.979 475.921 438.851 475.806 438.76C475.24 438.325 474.665 438.998 474.679 439.697C474.693 440.396 475.102 440.816 474.951 441.237Z" fill="#191919"/>
<path d="M479.745 439.023C479.87 439.148 480.039 439.218 480.215 439.218C480.392 439.218 480.561 439.148 480.686 439.023C480.811 438.898 480.881 438.729 480.881 438.552C480.881 438.376 480.811 438.207 480.686 438.082C478.281 435.739 476.591 432.761 475.813 429.495C475.629 429.195 475.347 428.968 475.014 428.853C474.682 428.739 474.32 428.743 473.99 428.866C471.084 429.642 470.9 431.482 471.765 431.676C472.631 431.871 473.75 430.66 474.294 430.66C475.176 433.956 477.085 436.886 479.745 439.023Z" fill="#191919"/>
<path d="M469.012 420.401C468.465 420.095 467.851 419.927 467.223 419.912C466.596 419.898 465.975 420.037 465.414 420.318C464.853 420.598 464.37 421.012 464.005 421.523C463.641 422.034 463.408 422.626 463.325 423.248C463.134 424.399 463.385 425.58 464.027 426.554C464.668 427.529 465.654 428.226 466.787 428.506C467.395 428.491 467.974 428.245 468.406 427.817C468.838 427.39 469.091 426.813 469.111 426.205C469.507 426.113 469.874 425.924 470.179 425.656C470.484 425.387 470.718 425.047 470.859 424.665C471 424.284 471.045 423.874 470.989 423.471C470.932 423.068 470.777 422.686 470.536 422.358C470.266 421.551 469.728 420.861 469.012 420.401Z" fill="#191919"/>
<path d="M515.524 413.562C513.738 422.377 515.788 444.986 503.324 458.887C502.142 460.209 500.764 461.343 499.239 462.25C498.566 462.631 499.015 463.788 499.779 463.526C505.274 461.636 509.881 453.204 511.949 447.779C514.323 440.981 515.743 433.888 516.169 426.7C516.358 424.545 516.989 415.912 516.995 415.372C517.001 414.832 516.957 414.294 516.943 413.758C516.941 413.585 516.877 413.418 516.762 413.288C516.648 413.158 516.49 413.073 516.318 413.049C516.147 413.026 515.972 413.064 515.826 413.158C515.681 413.252 515.573 413.395 515.524 413.562Z" fill="#191919"/>
<path d="M494.648 465.49C484.389 472.767 471.786 474.595 460.446 469.115C459.105 468.308 457.699 467.616 456.242 467.044C456.105 467.01 455.962 467.016 455.828 467.062C455.695 467.108 455.578 467.192 455.492 467.303C455.406 467.415 455.355 467.549 455.344 467.69C455.333 467.83 455.364 467.971 455.432 468.094C456.42 469.178 457.634 470.031 458.987 470.594C464.772 473.624 471.333 474.85 477.821 474.112C484.31 473.374 490.428 470.706 495.384 466.453C495.9 466.002 495.225 465.081 494.648 465.49Z" fill="#191919"/>
<path d="M530.391 412.921C530.472 412.767 530.491 412.588 530.443 412.42C530.395 412.253 530.284 412.111 530.134 412.023C529.984 411.936 529.805 411.91 529.636 411.95C529.467 411.991 529.32 412.095 529.226 412.242C521.616 423.181 519.317 422.548 518.692 424.962C518.675 425.027 518.673 425.096 518.687 425.162C518.7 425.228 518.729 425.291 518.77 425.344C518.811 425.398 518.864 425.442 518.924 425.472C518.984 425.502 519.051 425.519 519.119 425.52C520.255 425.288 521.277 424.669 522.009 423.769C525.394 420.651 528.228 416.983 530.391 412.921Z" fill="#191919"/>
<path d="M533.637 417.889C533.757 417.736 533.845 417.56 533.896 417.372C533.947 417.184 533.96 416.988 533.935 416.795C533.932 416.703 533.905 416.614 533.858 416.535C533.811 416.457 533.744 416.391 533.665 416.345C533.586 416.299 533.496 416.275 533.404 416.273C533.312 416.272 533.222 416.293 533.141 416.337C533.022 416.375 532.907 416.426 532.799 416.487C532.239 416.867 531.177 418.842 528.706 421.734C527.229 423.459 522.88 428.056 520.808 428.957C520.143 429.245 520.609 430.347 521.302 430.126C525.179 428.88 532.231 420.485 533.637 417.889Z" fill="#191919"/>
<path d="M535.718 418.312C535.702 418.256 535.671 418.206 535.63 418.165C535.589 418.125 535.537 418.096 535.481 418.081C535.425 418.066 535.366 418.067 535.31 418.082C535.254 418.097 535.203 418.126 535.162 418.167C533.606 419.823 532.78 425.297 525.701 430.83C525.181 431.237 525.856 432.098 526.406 431.745C532.754 427.67 536.065 420.625 535.718 418.312Z" fill="#191919"/>
<path d="M350.444 493.335C347.141 493.974 343.758 494.098 340.417 493.702C338.083 493.403 335.793 492.827 333.595 491.987C327.402 489.645 324.861 486.286 323.243 485.661C323.135 485.632 323.022 485.632 322.914 485.661C322.807 485.69 322.708 485.747 322.629 485.825C322.551 485.904 322.494 486.003 322.465 486.11C322.436 486.218 322.436 486.331 322.465 486.439C322.563 486.72 322.71 486.981 322.9 487.209C327.497 492.894 339.141 497.121 347.49 495.282C348.582 495.042 349.673 494.764 350.745 494.433C350.885 494.388 351.003 494.291 351.073 494.162C351.143 494.032 351.16 493.881 351.121 493.739C351.082 493.597 350.99 493.476 350.864 493.401C350.737 493.326 350.587 493.302 350.444 493.335Z" fill="#191919"/>
<path d="M332.995 488.34C333.591 488.539 334.02 487.57 333.43 487.306C325.917 483.932 324.367 481.258 323.316 481.913C322.919 482.165 323.045 482.749 323.316 483.048C326.174 485.417 329.46 487.213 332.995 488.34Z" fill="#191919"/>
<path d="M464.593 225.096C470.06 229.287 474.888 234.251 478.927 239.831C479.076 239.978 479.273 240.066 479.482 240.079C479.691 240.091 479.897 240.028 480.063 239.9C480.229 239.772 480.343 239.588 480.383 239.383C480.424 239.177 480.389 238.964 480.284 238.783C479.375 237.105 478.284 235.532 477.031 234.092C468.829 224.052 456.992 216.974 445.799 210.505C441.768 207.913 437.429 205.836 432.883 204.321C432.671 204.271 432.447 204.305 432.26 204.417C432.073 204.528 431.936 204.707 431.878 204.917C431.82 205.127 431.846 205.351 431.95 205.543C432.054 205.734 432.228 205.877 432.436 205.943C440.437 209.101 457.808 219.78 464.593 225.096Z" fill="#191919"/>
<path d="M403.84 163.3C403.764 163.094 403.61 162.925 403.412 162.829C403.213 162.734 402.986 162.719 402.776 162.788C401.709 163.129 401.24 165.207 397.78 166.758C395.483 167.741 392.996 168.2 390.5 168.102C388.003 168.004 385.56 167.351 383.347 166.19C385.494 166.454 387.666 165.955 389.483 164.781C394.122 161.825 396.393 156.805 397.721 151.513C397.773 151.359 397.793 151.197 397.78 151.035C397.767 150.873 397.721 150.716 397.645 150.573C397.569 150.429 397.464 150.303 397.338 150.202C397.211 150.1 397.065 150.026 396.909 149.982C396.752 149.939 396.589 149.929 396.428 149.951C396.268 149.974 396.113 150.029 395.974 150.113C395.836 150.197 395.716 150.309 395.622 150.441C395.528 150.573 395.462 150.723 395.428 150.882C395.046 152.346 394.564 153.782 393.987 155.181C393.024 157.846 391.345 160.193 389.134 161.964C383.949 165.853 380.677 162.238 379.439 163.338C378.798 163.425 378.573 163.552 377.615 163.657C376.516 163.794 375.4 163.694 374.342 163.366C373.285 163.037 372.309 162.487 371.481 161.752C370.742 161.262 370.107 160.633 369.609 159.9C368.259 157.891 365.331 152.442 365.228 150.149C365.228 150.023 365.203 149.897 365.155 149.78C365.106 149.663 365.035 149.557 364.946 149.467C364.856 149.378 364.75 149.306 364.633 149.258C364.516 149.21 364.39 149.185 364.264 149.185C364.137 149.185 364.011 149.21 363.894 149.258C363.777 149.306 363.671 149.378 363.581 149.467C363.492 149.557 363.421 149.663 363.372 149.78C363.324 149.897 363.299 150.023 363.299 150.149C363.916 153.258 365.074 156.233 366.721 158.941C367.572 160.86 368.967 162.488 370.735 163.621C372.41 164.912 374.456 165.631 376.57 165.67C378.291 165.67 378.645 165.293 378.389 165.541C377.661 166.308 376.772 166.904 375.786 167.288C370.367 169.326 361.681 166.375 357.733 159.288C357.668 159.178 357.581 159.081 357.479 159.004C357.377 158.927 357.26 158.871 357.136 158.839C357.012 158.807 356.882 158.8 356.755 158.818C356.629 158.836 356.506 158.879 356.396 158.944C356.286 159.009 356.189 159.095 356.112 159.198C356.035 159.3 355.979 159.417 355.947 159.541C355.915 159.665 355.908 159.794 355.926 159.921C355.944 160.048 355.986 160.17 356.052 160.281C362.02 171.121 376.652 172.528 379.929 166.069C381.091 167.38 382.555 168.386 384.195 169.001C392.965 172.695 401.752 168.659 403.479 165.102C403.665 164.845 403.793 164.551 403.855 164.24C403.918 163.929 403.912 163.609 403.84 163.3Z" fill="url(#paint13_linear_416_19995)"/>
<path d="M381.028 173.897C380.958 173.652 380.812 173.436 380.611 173.279C380.411 173.121 380.166 173.031 379.911 173.021C379.656 173.011 379.405 173.081 379.193 173.222C378.98 173.363 378.818 173.568 378.728 173.806C378.65 174.069 378.658 174.349 378.751 174.607C378.844 174.865 379.016 175.086 379.244 175.239C379.45 175.355 379.686 175.407 379.922 175.391C380.158 175.375 380.384 175.291 380.573 175.149C380.762 175.007 380.906 174.813 380.986 174.591C381.067 174.369 381.082 174.128 381.028 173.897Z" fill="url(#paint14_linear_416_19995)"/>
<defs>
<linearGradient id="paint0_linear_416_19995" x1="712.086" y1="318.171" x2="654.447" y2="418.005" gradientUnits="userSpaceOnUse">
<stop stop-color="#5E0303"/>
<stop offset="1" stop-color="#8A0202"/>
</linearGradient>
<linearGradient id="paint1_linear_416_19995" x1="623.235" y1="350.272" x2="713.504" y2="402.389" gradientUnits="userSpaceOnUse">
<stop stop-color="#DAE3FE"/>
<stop offset="1" stop-color="#E9EFFD"/>
</linearGradient>
<linearGradient id="paint2_linear_416_19995" x1="727.731" y1="227.369" x2="627.356" y2="401.224" gradientUnits="userSpaceOnUse">
<stop stop-color="#5E0303"/>
<stop offset="1" stop-color="#8A0202"/>
</linearGradient>
<linearGradient id="paint3_linear_416_19995" x1="109.922" y1="62.9993" x2="109.922" y2="277.118" gradientUnits="userSpaceOnUse">
<stop stop-color="#5E0303"/>
<stop offset="1" stop-color="#8A0202"/>
</linearGradient>
<linearGradient id="paint4_linear_416_19995" x1="91.6666" y1="150.322" x2="91.6666" y2="275.888" gradientUnits="userSpaceOnUse">
<stop stop-color="#5E0303"/>
<stop offset="1" stop-color="#8A0202"/>
</linearGradient>
<linearGradient id="paint5_linear_416_19995" x1="70.8387" y1="194.013" x2="142.44" y2="194.013" gradientUnits="userSpaceOnUse">
<stop stop-color="#DAE3FE"/>
<stop offset="1" stop-color="#E9EFFD"/>
</linearGradient>
<linearGradient id="paint6_linear_416_19995" x1="529.945" y1="98.2671" x2="529.945" y2="157.284" gradientUnits="userSpaceOnUse">
<stop stop-color="#5E0303"/>
<stop offset="1" stop-color="#8A0202"/>
</linearGradient>
<linearGradient id="paint7_linear_416_19995" x1="575.184" y1="98.2671" x2="575.184" y2="157.284" gradientUnits="userSpaceOnUse">
<stop stop-color="#5E0303"/>
<stop offset="1" stop-color="#8A0202"/>
</linearGradient>
<linearGradient id="paint8_linear_416_19995" x1="542.152" y1="154.241" x2="542.152" y2="162.586" gradientUnits="userSpaceOnUse">
<stop stop-color="#5E0303"/>
<stop offset="1" stop-color="#8A0202"/>
</linearGradient>
<linearGradient id="paint9_linear_416_19995" x1="377.347" y1="159.476" x2="377.347" y2="215.586" gradientUnits="userSpaceOnUse">
<stop stop-color="#5E0303"/>
<stop offset="1" stop-color="#8A0202"/>
</linearGradient>
<linearGradient id="paint10_linear_416_19995" x1="291.558" y1="156.906" x2="291.558" y2="173" gradientUnits="userSpaceOnUse">
<stop stop-color="#5E0303"/>
<stop offset="1" stop-color="#8A0202"/>
</linearGradient>
<linearGradient id="paint11_linear_416_19995" x1="245.18" y1="193.551" x2="245.18" y2="384.449" gradientUnits="userSpaceOnUse">
<stop stop-color="#5E0303"/>
<stop offset="1" stop-color="#8A0202"/>
</linearGradient>
<linearGradient id="paint12_linear_416_19995" x1="432.272" y1="148.734" x2="432.272" y2="496.209" gradientUnits="userSpaceOnUse">
<stop stop-color="#5E0303"/>
<stop offset="1" stop-color="#8A0202"/>
</linearGradient>
<linearGradient id="paint13_linear_416_19995" x1="379.907" y1="149.185" x2="379.907" y2="170.466" gradientUnits="userSpaceOnUse">
<stop stop-color="#5E0303"/>
<stop offset="1" stop-color="#8A0202"/>
</linearGradient>
<linearGradient id="paint14_linear_416_19995" x1="379.867" y1="173.02" x2="379.867" y2="175.394" gradientUnits="userSpaceOnUse">
<stop stop-color="#5E0303"/>
<stop offset="1" stop-color="#8A0202"/>
</linearGradient>
</defs>
</svg>
