<svg width="46" height="46" viewBox="0 0 46 46" fill="none" xmlns="http://www.w3.org/2000/svg">
<g clip-path="url(#clip0_414_2330)">
<g clip-path="url(#clip1_414_2330)">
<path d="M33.7306 26.3222L24.0674 35.3624C23.7739 35.6273 23.3926 35.7739 22.9972 35.7739C22.6019 35.7739 22.2206 35.6273 21.9271 35.3624L12.2639 26.3222C12.126 26.195 12.0159 26.0407 11.9406 25.8689C11.8653 25.697 11.8264 25.5115 11.8264 25.3239C11.8264 25.1363 11.8653 24.9508 11.9406 24.7789C12.0159 24.6071 12.126 24.4528 12.2639 24.3256C12.5574 24.0608 12.9387 23.9141 13.334 23.9141C13.7294 23.9141 14.1107 24.0608 14.4042 24.3256L21.4799 30.9381L21.4799 11.6437C21.4799 10.8451 22.1667 10.2222 22.9972 10.2222C23.8278 10.2222 24.5146 10.8611 24.5146 11.6437L24.5146 30.9381L31.5903 24.3256C31.8838 24.0608 32.2651 23.9141 32.6604 23.9141C33.0558 23.9141 33.4371 24.0608 33.7306 24.3256C33.8685 24.4528 33.9786 24.6071 34.0539 24.7789C34.1292 24.9508 34.1681 25.1363 34.1681 25.3239C34.1681 25.5115 34.1292 25.6971 34.0539 25.8689C33.9786 26.0407 33.8685 26.195 33.7306 26.3222Z" fill="url(#paint0_linear_414_2330)"/>
</g>
</g>
<circle cx="23" cy="23" r="21.5" stroke="url(#paint1_linear_414_2330)" stroke-width="3"/>
<defs>
<linearGradient id="paint0_linear_414_2330" x1="34.1681" y1="22.9981" x2="11.8264" y2="22.9981" gradientUnits="userSpaceOnUse">
<stop stop-color="#5E0303"/>
<stop offset="1" stop-color="#8A0202"/>
</linearGradient>
<linearGradient id="paint1_linear_414_2330" x1="23" y1="0" x2="23" y2="46" gradientUnits="userSpaceOnUse">
<stop stop-color="#5E0303"/>
<stop offset="1" stop-color="#8A0202"/>
</linearGradient>
<clipPath id="clip0_414_2330">
<rect width="25.5556" height="25.5556" fill="white" transform="translate(35.7778 10.2222) rotate(90)"/>
</clipPath>
<clipPath id="clip1_414_2330">
<rect width="25.5556" height="25.5556" fill="white" transform="translate(35.7778 10.2222) rotate(90)"/>
</clipPath>
</defs>
</svg>
