<svg width="648" height="449" viewBox="0 0 648 449" fill="none" xmlns="http://www.w3.org/2000/svg">
<path d="M635.302 203.998C642.136 177.931 632.866 147.883 611.733 130.884C604.615 125.165 596.39 120.804 589.746 114.517C573.865 99.4451 579.053 78.7493 566.493 62.8246C525.493 10.8166 463.232 5.44517 410.431 28.0052C369.114 45.6677 325.14 48.5114 280.406 41.0862C246.428 35.462 213.558 23.5816 179.264 20.4852C152.278 18.0206 123.015 20.9591 103.495 41.4337C94.7319 50.6283 87.2024 61.2764 76.6675 68.4172C64.013 76.9799 48.005 79.7288 35.6035 88.7023C20.1017 99.8875 12.4141 119.604 12.0028 138.72C11.5915 157.804 17.6341 176.478 25.1319 194.045C31.8072 209.749 39.8744 225.579 40.0959 242.641C40.4123 266.56 25.4483 287.54 13.7744 308.457C-0.8732 334.65 -4.60629 358.063 10.8955 383.846C23.9613 405.585 40.349 421.067 66.6388 424.859C121.591 432.789 171.893 412.094 225.833 406.217C273.984 400.972 322.039 409.913 369.399 417.623C425.142 426.691 499.234 435.349 548.904 401.035C566.367 388.965 579.401 370.639 585.032 350.196C589.683 333.355 589.398 315.534 592.277 298.314C595.251 280.431 601.705 263.116 611.132 247.633C618.25 235.943 627.077 225.168 632.392 212.561C633.594 209.749 634.543 206.905 635.302 203.998Z" fill="#FFE1E1"/>
<path d="M591.344 35.6825L591.346 35.6813C592.55 34.8979 594.07 34.8587 595.362 35.3813C596.654 35.9042 597.649 36.9593 597.868 38.2876C601.645 61.6429 611.358 141.479 584.445 222.533C557.571 303.473 494.167 385.66 351.708 414.024C351.693 413.984 351.677 413.942 351.66 413.897C351.533 413.559 351.348 413.053 351.12 412.382C350.663 411.041 350.033 409.043 349.34 406.427C347.955 401.195 346.321 393.489 345.336 383.608C343.365 363.849 343.984 335.392 354.367 300.64C375.13 231.142 434.956 136.399 591.344 35.6825Z" fill="white" stroke="url(#paint0_linear_414_1996)" stroke-width="0.983668"/>
<path d="M572.509 78.1453C570.642 85.9181 568.491 93.5961 566.277 101.274C564.062 108.952 561.689 116.567 559.222 124.15C554.318 139.348 548.94 154.388 543.151 169.27C531.572 199.034 518.316 228.166 502.909 256.161C487.502 284.124 469.912 311.044 449.285 335.531C438.972 347.759 427.868 359.355 415.909 370.035C409.898 375.343 403.729 380.462 397.275 385.233C390.821 390.004 384.178 394.491 377.313 398.661C376.68 399.041 375.857 398.851 375.478 398.219C375.098 397.587 375.288 396.766 375.921 396.387C382.723 392.311 389.335 387.887 395.725 383.179C402.116 378.471 408.253 373.416 414.232 368.202C426.159 357.681 437.232 346.211 447.514 334.078C468.109 309.812 485.73 283.081 501.232 255.276C516.702 227.439 530.053 198.402 541.727 168.764C547.548 153.946 552.958 138.937 557.956 123.802C560.456 116.219 562.828 108.636 565.074 100.99C567.321 93.3433 569.472 85.6653 571.37 77.9557C571.433 77.6398 571.75 77.4818 572.066 77.545C572.383 77.5134 572.572 77.8293 572.509 78.1453Z" fill="url(#paint1_linear_414_1996)"/>
<path d="M31.6229 97.4129L31.6237 97.4095C32.0734 95.5338 34.4307 94.8516 35.7998 96.1927L35.801 96.1938C130.665 188.523 162.689 266.173 171.026 320.694C175.195 347.958 173.442 369.45 170.653 384.118C169.258 391.452 167.603 397.081 166.299 400.872C165.648 402.767 165.083 404.204 164.683 405.164C164.499 405.606 164.349 405.947 164.242 406.186C73.2007 369.835 37.9161 301.34 26.4451 237.584C14.9515 173.701 27.3743 114.591 31.6229 97.4129Z" fill="white" stroke="url(#paint2_linear_414_1996)" stroke-width="0.983668"/>
<path d="M45.9185 129.997C47.2472 141.814 49.0821 153.6 51.1701 165.354C53.2581 177.076 55.5992 188.767 58.2567 200.395C63.5716 223.618 69.9621 246.62 77.8712 269.086C85.7803 291.519 95.1447 313.51 106.818 334.238C109.729 339.42 112.798 344.507 116.025 349.499C119.252 354.491 122.637 359.357 126.212 364.097C133.33 373.576 141.302 382.454 150.034 390.448C150.508 390.891 150.54 391.617 150.097 392.06C149.654 392.534 148.927 392.565 148.484 392.123C139.657 383.971 131.653 374.966 124.503 365.361C120.897 360.558 117.512 355.629 114.285 350.573C111.058 345.518 107.957 340.399 105.078 335.154C93.4363 314.237 84.1352 292.12 76.2894 269.56C68.4752 246.968 62.1796 223.934 56.9596 200.616C54.3654 188.957 52.056 177.266 50.0312 165.48C48.0065 153.726 46.2349 141.909 44.9378 130.029C44.9061 129.776 45.096 129.523 45.3807 129.492C45.6338 129.555 45.8869 129.744 45.9185 129.997Z" fill="url(#paint3_linear_414_1996)"/>
<path d="M10.6295 286.2L10.6295 286.2L10.6288 286.194C10.584 285.78 10.7572 285.42 11.0201 285.206C11.2793 284.995 11.6094 284.933 11.9244 285.081L11.9246 285.081C68.5792 311.566 95.0567 342.672 107.382 367.107C113.546 379.328 116.177 389.891 117.267 397.392C117.812 401.142 117.972 404.127 117.996 406.17C118.008 407.191 117.986 407.978 117.961 408.506C117.955 408.637 117.949 408.751 117.943 408.85C72.0958 408.272 45.7241 382.23 30.5713 354.01C15.3569 325.675 11.4815 295.182 10.6295 286.2Z" fill="white" stroke="url(#paint4_linear_414_1996)" stroke-width="0.983668"/>
<path d="M22.6748 301.376C24.7928 305.849 27.0409 310.24 29.3386 314.611C32.0244 319.66 34.8051 324.646 37.6805 329.57C40.5553 334.492 43.5569 339.351 46.6537 344.148C49.7498 348.944 52.9715 353.676 56.3191 358.281C59.6697 362.891 63.1107 367.462 66.7703 371.842C70.4365 376.229 74.1919 380.547 78.1968 384.641L78.1982 384.643C86.1476 392.834 94.9387 400.354 104.792 406.297C105.131 406.481 105.524 406.364 105.701 406.068C105.887 405.728 105.768 405.333 105.468 405.157L105.467 405.157C100.571 402.267 95.9326 398.967 91.5202 395.416L91.5135 395.411L91.5135 395.411L88.255 392.693L88.248 392.688L88.2412 392.681L85.0823 389.842C84.3543 389.221 83.6598 388.55 82.9737 387.886C82.6379 387.561 82.3042 387.238 81.9695 386.924C80.9241 385.943 79.9052 384.957 78.916 383.906C74.8865 379.881 71.1137 375.606 67.4421 371.275M22.6748 301.376L79.2689 383.563C75.2511 379.551 71.4863 375.285 67.8165 370.956C64.1151 366.628 60.6351 362.141 57.25 357.559C53.8649 353.009 50.6063 348.302 47.4743 343.562C44.3423 338.791 41.3052 333.988 38.3631 329.091C35.4209 324.193 32.6052 319.264 29.8845 314.24M22.6748 301.376C24.8235 305.805 27.1032 310.165 29.4524 314.475M22.6748 301.376L22.102 299.042C24.538 304.193 27.1638 309.248 29.8845 314.24M67.4421 371.275C67.4419 371.275 67.4416 371.275 67.4414 371.274L67.8163 370.957L67.4427 371.276C67.4425 371.276 67.4423 371.276 67.4421 371.275ZM67.4421 371.275C63.7312 366.935 60.2441 362.439 56.855 357.853C53.4634 353.294 50.1997 348.578 47.064 343.833L47.0632 343.832C43.9281 339.056 40.8875 334.248 37.9414 329.344C34.9957 324.441 32.1765 319.505 29.4524 314.475M29.4524 314.475C29.4525 314.475 29.4526 314.476 29.4526 314.476L29.8845 314.24M29.4524 314.475C29.4523 314.475 29.4521 314.475 29.452 314.475L29.8845 314.24" fill="url(#paint5_linear_414_1996)" stroke="url(#paint6_linear_414_1996)" stroke-width="0.983668"/>
<path d="M282.146 323.339L272.497 409.693H384.363L369.778 323.339H282.146Z" fill="url(#paint7_linear_414_1996)"/>
<path d="M94.2265 110.537V308.332C94.2265 324.604 107.197 337.907 123.49 338.317C195.843 340.181 448.839 344.7 517.679 343.689C529.511 343.499 539.097 334.052 539.445 322.235C540.774 276.293 542.925 165.8 534.953 114.487C533.276 103.681 524.133 95.592 513.187 95.2445C452.572 93.3171 184.39 87.1558 115.549 88.704C103.717 88.9884 94.2265 98.6885 94.2265 110.537Z" fill="url(#paint8_linear_414_1996)"/>
<path d="M106.663 109.588V297.524C106.663 307.035 114.287 314.776 123.81 314.902L507.812 319.642C517.239 319.768 524.959 312.217 524.99 302.801L525.623 116.57C525.655 109.84 520.277 104.311 513.538 104.153L120.393 96.159C112.863 96.0011 106.663 102.036 106.663 109.588Z" fill="#FF4040"/>
<path d="M527.865 327.384L106.627 320.211C106.31 320.211 106.057 319.927 106.057 319.611C106.057 319.295 106.31 319.042 106.658 319.042L527.865 326.214C528.181 326.214 528.434 326.499 528.434 326.815C528.466 327.131 528.181 327.384 527.865 327.384Z" fill="white"/>
<path d="M321.408 337.136C318.656 337.136 316.441 334.893 316.441 332.175C316.441 329.427 318.688 327.215 321.408 327.215C324.161 327.215 326.375 329.458 326.375 332.175C326.407 334.924 324.161 337.136 321.408 337.136ZM321.408 328.384C319.32 328.384 317.612 330.09 317.612 332.175C317.612 334.261 319.32 335.967 321.408 335.967C323.496 335.967 325.205 334.261 325.205 332.175C325.205 330.09 323.496 328.384 321.408 328.384Z" fill="white"/>
<path d="M408.471 427.359H244.753C240.292 427.359 236.97 424.2 237.824 420.787L239.912 412.477C240.545 409.981 243.297 408.149 246.556 408.054L404.39 403.125C407.807 403.03 410.812 404.831 411.571 407.422L415.368 420.629C416.348 424.105 412.963 427.359 408.471 427.359Z" fill="url(#paint9_linear_414_1996)"/>
<path d="M332.861 410.389C332.545 410.389 332.292 410.136 332.26 409.82C332.26 409.504 332.513 409.22 332.83 409.22L339.6 409.125C339.916 409.125 340.169 409.378 340.201 409.694C340.201 410.01 339.948 410.294 339.631 410.294L332.861 410.389Z" fill="white"/>
<path d="M243.867 422.84C243.835 422.84 243.804 422.84 243.772 422.84C243.456 422.776 243.234 422.492 243.297 422.176L244.246 416.141C244.784 412.855 247.568 410.454 250.858 410.422L322.61 409.379C322.926 409.379 323.211 409.632 323.211 409.948C323.211 410.264 322.958 410.548 322.641 410.548L250.89 411.591C248.138 411.623 245.86 413.613 245.417 416.331L244.468 422.366C244.405 422.65 244.152 422.84 243.867 422.84Z" fill="white"/>
<path d="M441.97 167.504H399.293C396.603 167.504 394.452 165.324 394.452 162.67C394.452 159.984 396.635 157.835 399.293 157.835H441.97C444.659 157.835 446.81 160.016 446.81 162.67C446.842 165.324 444.659 167.504 441.97 167.504Z" fill="white"/>
<path d="M457.697 159.889H503.76C506.639 159.889 508.98 168.483 508.98 179.1V292.279C508.98 302.895 506.639 311.49 503.76 311.49H457.697C454.818 311.49 452.477 302.895 452.477 292.279V179.1C452.445 168.483 454.818 159.889 457.697 159.889Z" fill="white"/>
<path d="M399.293 172.878H441.97C444.659 172.878 446.81 175.058 446.81 177.712V206.244C446.81 208.93 444.627 211.078 441.97 211.078H399.293C396.603 211.078 394.452 208.898 394.452 206.244V177.712C394.452 175.058 396.635 172.878 399.293 172.878Z" fill="white"/>
<path d="M399.293 219.669H441.97C444.659 219.669 446.81 224.882 446.81 231.36V300.114C446.81 306.56 444.627 311.805 441.97 311.805H399.293C396.603 311.805 394.452 306.591 394.452 300.114V231.328C394.452 224.882 396.635 219.669 399.293 219.669Z" fill="white"/>
<path d="M550.185 186.014C554.875 197.921 569.444 239.099 567.329 285.982C565.219 332.74 546.521 385.153 484.846 419.904C484.755 419.755 484.639 419.563 484.502 419.327C484.124 418.679 483.583 417.706 482.935 416.412C481.639 413.823 479.915 409.951 478.213 404.831C474.809 394.593 471.494 379.362 471.868 359.428C472.617 319.566 488.124 260.842 547.293 185.569C548.097 184.574 549.69 184.808 550.185 186.014Z" fill="white" stroke="url(#paint10_linear_414_1996)" stroke-width="0.983668"/>
<path d="M543.605 210.747H543.527C543.526 210.748 543.517 210.75 543.505 210.763C543.49 210.778 543.481 210.798 543.48 210.822C543.638 219.428 543.417 228.062 543.068 236.659C542.72 245.263 542.118 253.897 541.327 262.467L541.327 262.469C540.503 271.07 539.49 279.609 538.255 288.149L538.254 288.158L538.254 288.158C538.08 289.212 537.923 290.275 537.764 291.342L537.764 291.344C537.606 292.409 537.448 293.478 537.273 294.54L537.273 294.542L536.197 300.925L536.196 300.933L536.195 300.933C536.068 301.617 535.941 302.3 535.814 302.984C535.156 306.531 534.496 310.083 533.726 313.613C533.096 316.832 532.336 320.035 531.576 323.237C531.341 324.225 531.107 325.213 530.876 326.201L530.873 326.212L530.873 326.212L529.262 332.461C529.261 332.462 529.261 332.463 529.261 332.464C528.951 333.74 528.577 335.011 528.206 336.273C527.97 337.075 527.735 337.873 527.518 338.667L527.516 338.676C525.109 346.932 522.414 355.101 519.148 363.083C519.147 363.084 519.147 363.085 519.147 363.085L517.946 366.083L517.943 366.091L517.939 366.099L516.642 369.038L515.348 371.97L515.345 371.976L514.715 373.455L514.711 373.465L514.706 373.475L514.01 374.928L514.008 374.933L511.16 380.715L511.155 380.726L511.15 380.736L508.05 386.36L508.046 386.366C503.795 393.812 498.97 400.978 493.475 407.545M543.605 210.747L493.098 407.229M543.605 210.747C543.825 219.38 543.698 227.983 543.383 236.589C543.067 245.208 542.561 253.825 541.802 262.442L541.802 262.443C541.075 271.027 540.096 279.612 538.926 288.167C538.802 289.015 538.688 289.855 538.574 290.691C538.397 291.993 538.222 293.282 538.011 294.57L538.01 294.574L536.999 300.978C536.999 300.98 536.999 300.981 536.999 300.983C536.876 301.673 536.754 302.363 536.632 303.052C536 306.626 535.37 310.188 534.629 313.729L534.628 313.736C533.808 317.958 532.829 322.182 531.849 326.384C531.849 326.385 531.848 326.386 531.848 326.388L530.268 332.667L530.267 332.673C529.932 334.075 529.543 335.44 529.151 336.817C528.954 337.51 528.756 338.206 528.563 338.911C526.193 347.21 523.541 355.471 520.354 363.508L520.352 363.512L519.185 366.536L517.892 369.529L516.595 372.53L516.594 372.533L515.966 374.008L543.605 210.747ZM493.475 407.545L493.098 407.229M493.475 407.545C493.475 407.544 493.475 407.544 493.475 407.544L493.098 407.229M493.475 407.545C493.184 407.894 493.231 408.406 493.602 408.715C493.952 409.007 494.466 408.959 494.776 408.589M493.098 407.229C492.623 407.798 492.718 408.619 493.288 409.093C493.857 409.567 494.68 409.472 495.154 408.904M494.776 408.589C494.775 408.59 494.775 408.59 494.774 408.591L495.154 408.904M494.776 408.589C500.321 401.855 505.112 394.615 509.371 387.054M494.776 408.589C494.776 408.589 494.776 408.589 494.776 408.588L495.154 408.904M495.154 408.904L509.371 387.054M509.371 387.054L509.369 387.058L509.802 387.291L509.373 387.05C509.373 387.051 509.372 387.053 509.371 387.054ZM512.464 381.318L512.459 381.328L512.902 381.541L512.469 381.308L512.464 381.318Z" fill="url(#paint11_linear_414_1996)" stroke="url(#paint12_linear_414_1996)" stroke-width="0.983668"/>
<path d="M646.769 228.429L646.769 228.433C646.153 241.933 642.543 287.813 621.816 331.284C601.144 374.639 563.475 415.559 494.76 419.635C494.738 419.445 494.711 419.195 494.682 418.887C494.607 418.095 494.517 416.917 494.462 415.384C494.351 412.319 494.377 407.837 494.924 402.182C496.018 390.872 499.197 374.871 507.545 356.14C524.237 318.686 561.617 270.27 644.42 226.616C644.961 226.335 645.55 226.421 646.015 226.765C646.482 227.112 646.808 227.713 646.769 228.429Z" fill="white" stroke="url(#paint13_linear_414_1996)" stroke-width="0.983668"/>
<path d="M631.277 248.829L631.282 248.819C631.34 248.694 631.285 248.467 631.06 248.371L631.048 248.366L631.048 248.366C630.927 248.31 630.726 248.358 630.628 248.56C627.366 256.436 623.788 264.183 620.086 271.862C616.381 279.547 612.487 287.136 608.467 294.661L608.466 294.662C604.413 302.188 600.234 309.588 595.864 316.924M631.277 248.829L567.422 359.375M631.277 248.829L631.273 248.84C628.05 256.792 624.574 264.556 620.938 272.292C617.303 280.027 613.509 287.667 609.558 295.277C605.607 302.852 601.467 310.334 597.199 317.722C592.9 325.11 588.444 332.432 583.768 339.564L583.767 339.565C579.089 346.731 574.255 353.8 569.107 360.644C563.954 367.495 558.648 374.214 552.965 380.647L552.964 380.648C541.658 393.517 529.066 405.397 514.685 415.036L514.683 415.037C514.018 415.488 513.096 415.318 512.649 414.637L512.649 414.637L512.645 414.631C512.194 413.968 512.363 413.047 513.045 412.601L513.087 412.574L513.119 412.542C527.256 403.26 539.833 391.675 551.167 379.059L631.277 248.829ZM595.864 316.924C595.864 316.924 595.864 316.925 595.864 316.925L595.441 316.673L595.865 316.924C595.865 316.924 595.865 316.924 595.864 316.924ZM595.864 316.924C591.526 324.262 586.997 331.474 582.246 338.559C577.498 345.641 572.62 352.634 567.422 359.375M567.422 359.375L567.033 359.077L567.422 359.376C567.422 359.376 567.422 359.376 567.422 359.375Z" fill="url(#paint14_linear_414_1996)" stroke="url(#paint15_linear_414_1996)" stroke-width="0.983668"/>
<path d="M467.692 9.05189C467.629 9.20987 462.852 12.7171 462.852 12.7171C462.852 12.7171 463.896 20.2371 468.199 23.2388C472.912 26.5248 479.556 20.5531 479.556 20.5531C479.556 20.5531 484.839 21.8169 487.655 10.8213C488.288 8.29357 484.586 8.07239 480.062 8.54634C474.273 9.08348 467.692 9.05189 467.692 9.05189Z" fill="url(#paint16_linear_414_1996)"/>
<path d="M458.766 34.7408C460.633 33.4453 462.689 32.4974 464.904 31.8971C465.726 31.6759 470.155 32.9714 472.908 32.9082C476.672 32.8134 480.5 31.1072 483.632 31.8971C486.733 32.6554 489.232 33.6665 490.687 34.7092C495.053 37.8057 497.616 43.5879 499.166 49.3068C496.224 52.3401 492.491 53.6988 492.491 53.6988L491.795 81.5354L475.312 89.9401L456.52 80.5243L457.184 53.3196C457.184 53.3196 451.205 50.5391 450.762 49.528C450.351 48.4853 453.515 38.3744 458.766 34.7408Z" fill="#FF4040"/>
<path d="M451.049 49.3667C451.049 49.3667 443.045 71.5159 461.3 80.6474C465.096 80.1418 463.641 73.8541 463.641 73.8541C463.641 73.8541 455.7 72.1163 458.104 53.6006C455.89 51.7996 451.049 49.3667 451.049 49.3667Z" fill="url(#paint17_linear_414_1996)"/>
<path d="M498.786 49.3667C498.786 49.3667 504.291 72.4954 488.536 80.6474C484.739 80.1418 486.195 73.8541 486.195 73.8541C486.195 73.8541 492.585 70.726 491.731 53.6006C493.945 51.7996 498.786 49.3667 498.786 49.3667Z" fill="url(#paint18_linear_414_1996)"/>
<path d="M489.803 82.1972H458.957C457.502 82.1972 456.331 80.9965 456.331 79.5747V60.4587C456.331 59.0053 457.533 57.8362 458.957 57.8362H489.803C491.258 57.8362 492.428 59.0368 492.428 60.4587V79.5747C492.428 81.0281 491.258 82.1972 489.803 82.1972Z" fill="url(#paint19_linear_414_1996)"/>
<path d="M508.281 89.4362C504.136 88.4883 494.582 88.9938 494.582 88.9938L494.203 90.0365L493.57 95.2499C493.57 95.2499 502.681 96.893 507.173 96.893C507.616 96.893 508.059 96.8298 508.439 96.7034C508.565 96.577 508.724 96.4506 508.85 96.3242C510.717 94.2388 510.147 91.2056 508.281 89.4362Z" fill="url(#paint20_linear_414_1996)"/>
<path d="M491.828 88.7097L493.441 88.7729C494.296 88.8045 495.118 89.2469 495.719 89.942C496.289 90.6687 496.605 91.585 496.542 92.5645C496.51 93.3228 496.194 94.0495 495.656 94.5551C495.15 95.0606 494.454 95.3134 493.758 95.2818L491.29 95.0922L491.828 88.7097Z" fill="url(#paint21_linear_414_1996)"/>
<path d="M437.411 88.9248C441.556 88.1033 451.11 88.8932 451.11 88.8932L451.458 89.9675L451.964 95.2125C451.964 95.2125 442.821 96.5711 438.329 96.4448C437.886 96.4448 437.443 96.35 437.064 96.2236C436.937 96.0972 436.81 95.9708 436.684 95.8128C434.881 93.6643 435.513 90.631 437.411 88.9248Z" fill="url(#paint22_linear_414_1996)"/>
<path d="M453.861 88.7046L452.248 88.7362C451.362 88.7362 450.54 89.1469 449.938 89.8421C449.337 90.5372 449.021 91.4851 449.053 92.433C449.084 93.1913 449.369 93.918 449.875 94.4552C450.381 94.9923 451.046 95.2451 451.742 95.2451L454.209 95.1503L453.861 88.7046Z" fill="url(#paint23_linear_414_1996)"/>
<path d="M509.447 73.0324C507.58 68.7353 502.993 68.0085 499.07 70.0307C499.007 70.1255 474.267 82.7642 452.47 88.3252C453.102 90.3158 453.419 92.4643 453.482 94.5497C453.482 95.0237 453.482 95.466 453.45 95.94C470.154 95.0869 488.314 89.5258 503.91 84.6284C508.751 83.0485 511.503 77.8035 509.447 73.0324Z" fill="url(#paint24_linear_414_1996)"/>
<path d="M491.954 94.8654C491.891 92.4641 492.366 90.2207 493.346 88.1353C493.378 88.0406 493.41 87.9458 493.441 87.851C492.207 87.4718 490.594 86.9347 488.474 86.2396C473.004 80.9629 461.172 75.5915 449.91 69.4617C445.544 67.0604 440.545 68.6718 439.153 73.8537C437.888 78.4668 440.64 82.4164 444.816 83.8066C457.281 87.9458 450.795 86.8083 454.876 88.1038C465.823 91.4846 479.426 94.5495 491.954 95.4026C491.986 95.213 491.954 95.055 491.954 94.8654Z" fill="url(#paint25_linear_414_1996)"/>
<path d="M464.906 31.8935C464.906 31.8935 466.583 39.0975 474.65 38.9396C482.875 38.7816 483.603 31.8619 483.603 31.8619L478.225 30.7244L477.782 24.7527L469.683 25.353L469.525 31.0404L464.906 31.8935Z" fill="url(#paint26_linear_414_1996)"/>
<path d="M470.822 7.78906C470.822 7.78906 461.553 25.7359 472.562 30.0647C480.313 33.1296 485.185 18.1528 483.73 14.1084C481.484 7.82066 479.997 8.57898 479.997 8.57898L470.822 7.78906Z" fill="url(#paint27_linear_414_1996)"/>
<path d="M485.943 6.14475C490.531 7.40862 486.608 17.33 479.711 14.9918C472.814 12.6537 470.094 12.6853 469.018 14.581C467.942 16.4768 467.721 23.1753 465.38 19.8577C462.817 16.2241 461.394 8.92525 464.526 6.55551C467.341 4.43853 467.974 1.18408 471.327 1.31047C475.788 1.46845 479.237 -0.522134 481.261 0.899714C483.602 2.51114 482.59 5.22845 485.943 6.14475Z" fill="url(#paint28_linear_414_1996)"/>
<path d="M468.605 16.0965C468.605 16.0965 466.612 13.9795 466.296 16.5389C465.98 19.0982 466.992 22.3842 468.194 20.5832C469.396 18.7822 468.605 16.0965 468.605 16.0965Z" fill="url(#paint29_linear_414_1996)"/>
<path d="M476.483 64.4419C476.673 65.7374 475.977 66.9064 474.68 67.096C473.383 67.2856 472.181 66.4009 471.991 65.1054C471.801 63.81 472.402 62.5145 473.699 62.3249C474.996 62.1353 476.293 63.1464 476.483 64.4419Z" fill="white"/>
<path d="M563.606 393.014H560.031V431.657H563.606V393.014Z" fill="url(#paint30_linear_414_1996)"/>
<path d="M577.499 432.382H546.179V430.928C546.179 430.454 546.559 430.044 547.065 430.044H576.582C577.088 430.044 577.531 430.454 577.531 430.992V432.382H577.499Z" fill="url(#paint31_linear_414_1996)"/>
<path d="M583.414 391.591C583.414 393.834 581.579 395.667 579.333 395.667H545.64C543.394 395.667 541.559 393.834 541.559 391.591V387.894C541.559 385.65 543.394 383.818 545.64 383.818H579.333C581.579 383.818 583.414 385.65 583.414 387.894V391.591Z" fill="url(#paint32_linear_414_1996)"/>
<path d="M541.912 424.799C541.912 424.799 531.693 432.161 533.465 437.09C533.465 437.09 544.633 432.287 545.993 428.495C547.353 424.704 545.772 423.029 545.772 423.029L541.912 424.799Z" fill="url(#paint33_linear_414_1996)"/>
<path d="M543.432 418.635L545.109 423.469C545.362 424.196 545.109 425.018 544.444 425.428C544.128 425.649 543.685 425.839 543.052 425.965C542.198 426.155 541.312 425.776 540.901 424.986L538.908 421.226L543.432 418.635Z" fill="url(#paint34_linear_414_1996)"/>
<path d="M559.69 375.222C559.69 375.222 538.715 378.855 529.699 387.165C520.714 395.475 537.956 421.953 537.956 421.953C537.956 421.953 540.772 421.921 544.22 419.015C544.22 419.015 534.002 399.109 542.796 393.295C552.699 386.754 564.151 385.301 564.151 385.301L559.88 375.885L559.69 375.222Z" fill="url(#paint35_linear_414_1996)"/>
<path d="M535.238 434.373C537.484 433.33 543.843 428.875 544.919 428.686C545.994 428.496 547.861 429.76 547.861 429.76C547.861 429.76 548.304 430.581 547.829 432.003C546.342 433.804 543.02 437.248 538.56 438.544C535.269 439.492 532.992 438.607 531.568 437.564C532.359 436.332 533.751 435.068 535.238 434.373Z" fill="url(#paint36_linear_414_1996)"/>
<path d="M538.56 438.511C543.021 437.216 546.343 433.804 547.83 431.971C547.513 432.919 546.754 434.151 545.14 435.605C541.154 439.207 533.53 440.47 531.885 440.249C530.588 440.06 530.714 438.859 531.569 437.532C532.992 438.575 535.27 439.428 538.56 438.511Z" fill="url(#paint37_linear_414_1996)"/>
<path d="M549.756 426.598C549.724 427.23 548.459 429.347 547.731 430.516C547.383 431.084 546.75 431.432 546.086 431.432C545.675 431.432 545.169 431.4 544.726 431.274C544.061 431.084 543.682 430.389 543.871 429.726L545.327 424.797L549.756 426.598Z" fill="url(#paint38_linear_414_1996)"/>
<path d="M579.877 368.935C579.877 368.935 584.527 381.384 579.877 385.176C575.226 388.967 564.09 393.233 561.622 400.753C559.155 408.304 554.916 422.934 549.284 428.116C549.284 428.116 545.33 427.736 543.843 426.157C543.843 426.157 547.07 404.292 549.158 398.667C550.993 393.802 553.682 386.787 558.87 382.869C560.357 381.732 560.104 379.962 559.408 378.256L558.142 375.128L579.877 368.935Z" fill="url(#paint39_linear_414_1996)"/>
<path d="M531.282 359.203C539.097 359.677 536.661 347.196 536.534 346.722L548.398 355.095C548.398 355.095 547.765 361.762 537.926 365.269C535.427 366.154 533.149 366.185 531.124 365.775C531.978 363.215 531.789 360.972 531.282 359.203Z" fill="url(#paint40_linear_414_1996)"/>
<path d="M516.191 355.445C519.102 353.422 522.392 355.445 522.392 355.445C526.284 357.972 529.162 359.078 531.282 359.205C531.788 360.974 531.946 363.217 531.092 365.745C526.726 364.797 523.626 361.669 522.266 360.026C521.791 359.457 520.905 359.331 520.304 359.805C519.703 360.279 519.102 360.942 519.229 361.638C519.45 362.996 517.868 363.439 517.742 362.933C517.615 362.427 518.28 359.521 518.28 359.521C518.28 359.521 515.116 362.68 513.882 363.913C512.648 365.145 511.098 363.913 511.098 363.913C511.098 363.913 513.281 357.467 516.191 355.445Z" fill="url(#paint41_linear_414_1996)"/>
<path d="M567.73 327.448C567.73 327.448 556.372 322.898 535.208 340.34C535.208 340.34 533.436 344.005 535.366 347.228C537.296 350.482 555.645 366.312 558.176 375.096C558.176 375.096 569.122 378.635 580.416 370.23C580.448 370.262 579.435 345.806 567.73 327.448Z" fill="url(#paint42_linear_414_1996)"/>
<path d="M545.262 323.407L550.862 330.169C551.432 330.832 551.526 331.78 551.147 332.57C550.356 334.15 548.521 336.457 544.44 336.141C543.238 336.046 542.162 335.319 541.624 334.213L537.701 326.125L545.262 323.407Z" fill="url(#paint43_linear_414_1996)"/>
<path d="M576.524 356.455C577.852 351.084 564.47 339.109 564.47 339.109L567.729 327.418C567.729 327.418 596.581 346.597 589.241 362.048C588.197 364.26 586.774 365.808 585.16 366.851C582.819 360.626 579.118 357.751 576.524 356.455Z" fill="url(#paint44_linear_414_1996)"/>
<path d="M576.523 355.696C576.649 355.696 576.808 355.601 576.839 355.443C578.2 349.945 565.26 338.286 564.691 337.812C564.564 337.686 564.375 337.717 564.248 337.844C564.121 337.97 564.153 338.16 564.28 338.286C564.406 338.412 577.504 350.198 576.238 355.317C576.207 355.475 576.301 355.664 576.46 355.696C576.491 355.664 576.523 355.696 576.523 355.696Z" fill="url(#paint45_linear_414_1996)"/>
<path d="M556.274 356.013C556.274 356.013 572.124 362.143 575.984 357.53C576.237 357.214 576.427 356.866 576.521 356.456C579.116 357.751 582.817 360.595 585.158 366.851C576.838 372.159 562.57 363.881 558.742 361.448C558.109 361.037 557.35 360.911 556.622 361.069C555.135 361.385 552.573 361.827 551.181 361.606C549.156 361.29 546.245 368.431 542.955 366.219C542.924 366.251 545.739 353.833 556.274 356.013Z" fill="url(#paint46_linear_414_1996)"/>
<path d="M531.284 315.599C531.284 315.599 531.189 322.961 532.391 326.311C533.594 329.66 533.783 332.093 537.833 331.145C541.882 330.197 544.287 327.006 544.666 322.993C544.666 322.993 545.267 316.832 543.781 315.031C542.325 313.261 531.284 315.599 531.284 315.599Z" fill="url(#paint47_linear_414_1996)"/>
<path d="M542.39 321.225L541.916 321.414C541.916 321.414 542.2 316.549 540.144 316.549C538.119 316.58 530.653 318.034 528.154 316.233C525.75 314.495 525.75 310.924 527.3 309.281C527.395 309.187 527.553 309.187 527.679 309.25L527.964 309.471C528.154 309.629 528.439 309.471 528.407 309.218C528.375 308.997 528.66 308.807 528.85 308.965C529.609 309.503 531.349 310.166 534.892 309.408C539.923 308.302 543.814 308.902 545.238 312.093C545.332 312.283 545.586 312.315 545.712 312.125C545.965 311.777 546.471 311.43 547.484 311.746C549.224 312.283 549.856 315.316 548.022 318.792C547.927 318.95 548.022 319.171 548.211 319.203C548.876 319.329 549.951 319.803 548.433 321.667C546.883 323.595 545.617 323.974 545.143 324.037C545.016 324.069 544.89 323.974 544.826 323.847L543.814 320.909C543.751 320.751 543.592 320.688 543.434 320.751L542.39 321.225Z" fill="url(#paint48_linear_414_1996)"/>
<path d="M542.518 321.886C542.518 321.886 541.885 317.462 544.131 317.842C546.377 318.221 545.08 322.708 543.72 323.434L542.518 321.886Z" fill="url(#paint49_linear_414_1996)"/>
<path d="M489.428 439.334C489.238 439.334 489.049 439.303 488.89 439.239C488.194 438.955 487.846 438.165 488.163 437.47L517.458 371.623C517.774 370.927 518.597 370.611 519.293 370.927C519.989 371.212 520.337 372.002 520.021 372.697L490.725 438.544C490.504 439.018 489.998 439.334 489.428 439.334Z" fill="#FF4040"/>
<path d="M522.455 439.335C521.917 439.335 521.411 439.019 521.158 438.514L491.863 372.667C491.546 371.971 491.894 371.182 492.59 370.897C493.286 370.613 494.109 370.929 494.425 371.592L523.721 437.44C524.037 438.135 523.689 438.925 522.993 439.209C522.835 439.304 522.645 439.335 522.455 439.335Z" fill="#FF4040"/>
<path d="M580.129 439.338C579.939 439.338 579.749 439.306 579.591 439.243C578.895 438.959 578.547 438.169 578.863 437.474L608.158 371.626C608.475 370.931 609.297 370.615 609.993 370.931C610.689 371.216 611.037 372.006 610.721 372.701L581.426 438.548C581.204 439.022 580.667 439.338 580.129 439.338Z" fill="#FF4040"/>
<path d="M613.156 439.335C612.618 439.335 612.112 439.019 611.859 438.514L582.563 372.667C582.247 371.971 582.595 371.182 583.291 370.897C583.987 370.613 584.81 370.929 585.126 371.592L614.421 437.44C614.738 438.135 614.39 438.925 613.694 439.209C613.504 439.304 613.314 439.335 613.156 439.335Z" fill="#FF4040"/>
<path d="M616.574 369.568C616.637 369.126 616.542 368.684 616.289 368.336C616.036 367.988 615.656 367.799 615.277 367.799H481.993C481.486 367.799 480.98 368.083 480.727 368.589C480.442 369.063 480.411 369.695 480.632 370.2L482.087 373.707C482.404 374.497 483.131 375.034 483.922 375.034H614.359C615.087 375.034 615.72 374.466 615.878 373.644L616.574 369.568Z" fill="#FF4040"/>
<path d="M548.175 368.114C548.143 368.114 548.111 368.114 548.111 368.114L514.862 368.082C514.039 368.082 513.375 367.419 513.375 366.597C513.375 365.776 514.039 365.112 514.862 365.112L548.111 365.144C548.934 365.144 549.598 365.807 549.598 366.629C549.567 367.419 548.934 368.082 548.175 368.114Z" fill="url(#paint50_linear_414_1996)"/>
<path d="M484.966 337.968H512.648C514.704 337.968 516.539 339.137 517.425 341.002L530.237 368.111H495.817C494.488 368.111 493.318 367.322 492.843 366.089L482.909 341.002C482.308 339.548 483.384 337.968 484.966 337.968Z" fill="url(#paint51_linear_414_1996)"/>
<path d="M504.452 351.87C505.053 353.734 504.61 355.535 503.471 355.915C502.332 356.294 500.908 355.061 500.307 353.197C499.706 351.333 500.149 349.532 501.288 349.153C502.427 348.805 503.85 350.006 504.452 351.87Z" fill="#FF4040"/>
<path d="M59.9958 402.335H210.11V377.974H59.9958C63.2227 378.005 63.2227 402.335 59.9958 402.335Z" fill="white"/>
<path d="M210.11 396.266V385.113C210.11 381.195 207.136 378.004 203.498 378.004H60.6279C57.749 378.004 55.4079 376.108 55.4079 373.77C55.4079 373.074 56.1039 372.474 56.9897 372.474H213.115C216.69 372.474 222.385 377.024 222.385 382.648V398.225C222.385 403.534 216.88 407.831 213.495 407.831H57.8439C56.5151 407.831 55.4395 406.946 55.4395 405.872C55.4395 403.913 57.401 402.301 59.837 402.301H204.447C207.579 402.333 210.11 399.616 210.11 396.266Z" fill="url(#paint52_linear_414_1996)"/>
<path opacity="0.84" d="M205.934 383.281H65.2158C65.0576 383.281 64.9311 383.155 64.9311 382.997C64.9311 382.839 65.0576 382.712 65.2158 382.712H205.934C206.093 382.712 206.219 382.839 206.219 382.997C206.251 383.155 206.124 383.281 205.934 383.281Z" fill="url(#paint53_linear_414_1996)"/>
<path opacity="0.84" d="M205.934 386.913H65.2158C65.0576 386.913 64.9311 386.786 64.9311 386.628C64.9311 386.47 65.0576 386.344 65.2158 386.344H205.934C206.093 386.344 206.219 386.47 206.219 386.628C206.251 386.786 206.124 386.913 205.934 386.913Z" fill="url(#paint54_linear_414_1996)"/>
<path opacity="0.84" d="M205.934 390.516H65.2158C65.0576 390.516 64.9311 390.39 64.9311 390.232C64.9311 390.074 65.0576 389.947 65.2158 389.947H205.934C206.093 389.947 206.219 390.074 206.219 390.232C206.219 390.39 206.124 390.516 205.934 390.516Z" fill="url(#paint55_linear_414_1996)"/>
<path opacity="0.84" d="M205.934 394.148H65.2158C65.0576 394.148 64.9311 394.021 64.9311 393.863C64.9311 393.705 65.0576 393.579 65.2158 393.579H205.934C206.093 393.579 206.219 393.705 206.219 393.863C206.251 393.99 206.124 394.148 205.934 394.148Z" fill="url(#paint56_linear_414_1996)"/>
<path opacity="0.84" d="M205.934 397.751H65.2158C65.0576 397.751 64.9311 397.624 64.9311 397.467C64.9311 397.309 65.0576 397.182 65.2158 397.182H205.934C206.093 397.182 206.219 397.309 206.219 397.467C206.251 397.624 206.124 397.751 205.934 397.751Z" fill="url(#paint57_linear_414_1996)"/>
<path d="M208.121 448.273H21.3401C17.607 448.273 14.5699 445.239 14.5699 441.511V414.338C14.5699 410.609 17.607 407.576 21.3401 407.576H208.121C211.854 407.576 214.891 410.609 214.891 414.338V441.511C214.891 445.239 211.854 448.273 208.121 448.273Z" fill="url(#paint58_linear_414_1996)"/>
<path d="M58.4509 443.597H39.5007C38.2353 443.597 37.2229 442.586 37.2229 441.322V414.56C37.2229 413.296 38.2353 412.285 39.5007 412.285H58.4509C59.7164 412.285 60.7287 413.296 60.7287 414.56V441.322C60.7287 442.586 59.7164 443.597 58.4509 443.597Z" fill="#FF4040"/>
<path d="M71.1655 443.597H66.0721C65.0281 443.597 64.2055 442.775 64.2055 441.733V414.117C64.2055 413.074 65.0281 412.253 66.0721 412.253H71.1655C72.2095 412.253 73.0321 413.074 73.0321 414.117V441.733C73.0321 442.775 72.1779 443.597 71.1655 443.597Z" fill="#FF4040"/>
<path d="M508.475 151.835H126.118C121.688 151.835 118.114 148.265 118.114 143.841V111.96C118.114 107.473 121.815 103.84 126.339 103.966L508.696 113.635C513.03 113.729 516.51 117.3 516.51 121.629V143.809C516.479 148.233 512.904 151.835 508.475 151.835Z" fill="white"/>
<path d="M167.877 62.7947L174.584 86.9977C175.502 90.2837 174.932 93.791 173.066 96.6347C168.32 103.775 156.741 116.635 132.16 123.207C107.199 129.874 93.0891 123.018 86.9833 118.5C84.7687 116.856 83.1869 114.55 82.4276 111.927L75.088 86.271L167.877 62.7947Z" fill="url(#paint59_linear_414_1996)"/>
<path d="M114.666 31.6406L184.55 51.1989C188.157 52.21 189.169 56.8231 186.322 59.2245C172.465 71.0732 140.987 98.6254 129.06 114.645C127.795 116.351 125.517 116.983 123.524 116.162L52.8167 86.9347C49.6214 85.6076 48.9254 81.4053 51.5196 79.1303C65.2498 67.092 100.145 36.9804 111.502 31.8934C112.515 31.4194 113.622 31.3562 114.666 31.6406Z" fill="url(#paint60_linear_414_1996)"/>
<path d="M116.185 67.7253C116.185 67.7253 78.9175 91.2016 76.0702 96.5731C73.2229 101.944 78.9491 126.305 78.9491 126.305C73.0964 146.938 72.2105 169.34 82.1127 181.062C82.1127 181.062 94.3244 153.921 88.8829 142.483C83.4098 131.045 81.3218 126.369 81.3218 126.369C81.3218 126.369 76.5447 100.365 78.0633 96.6678C78.0633 96.6678 119.349 69.2104 116.185 67.7253Z" fill="#FF4040"/>
<path d="M175.155 57.6774L139.374 92.9076L130.421 101.723L128.175 103.935L127.067 105.041C126.719 105.388 126.34 105.673 125.897 105.925C124.22 106.937 122.101 107.189 120.234 106.526L96.4118 98.5634C96.222 98.5002 96.0322 98.595 95.9689 98.7846C95.9056 98.9742 96.0005 99.1638 96.1903 99.2269L119.949 107.379C122.037 108.137 124.473 107.884 126.403 106.715C126.878 106.431 127.321 106.083 127.732 105.704L128.871 104.598L131.117 102.418L140.133 93.6659L176.199 58.7201C176.483 58.4357 176.483 57.9618 176.199 57.6774C175.914 57.393 175.439 57.393 175.155 57.6774Z" fill="white"/>
<path d="M81.6674 138.817L81.7307 138.88L81.8256 138.975L81.9838 139.165L82.3002 139.607C82.5216 139.891 82.7114 140.207 82.9013 140.523L83.4391 141.503C83.5973 141.85 83.7554 142.166 83.9136 142.514C84.0718 142.862 84.1984 143.209 84.3249 143.557C84.4514 143.904 84.578 144.252 84.7045 144.631L85.0209 145.705C85.1158 146.084 85.2424 146.432 85.3056 146.811L85.5271 147.917C85.5904 148.296 85.6853 148.644 85.7169 149.023C85.8118 149.781 85.9067 150.54 86.0016 151.298L86.0965 153.573C86.0965 153.762 86.1282 153.952 86.1282 154.142V154.71L86.0965 155.848C86.0965 157.364 85.9067 158.881 85.7802 160.429C85.7485 160.808 85.6853 161.188 85.622 161.567L85.4322 162.704C85.3056 163.463 85.2107 164.221 85.0525 164.979C84.7045 166.464 84.4198 167.981 84.0402 169.466L82.7747 173.921C82.7431 174.047 82.8064 174.205 82.9645 174.237C83.0911 174.269 83.2493 174.205 83.2809 174.079L84.6729 169.655C85.0842 168.17 85.4322 166.654 85.8118 165.137C85.97 164.379 86.0965 163.621 86.2547 162.862L86.4762 161.725C86.5394 161.346 86.6344 160.966 86.666 160.587C86.8242 159.039 87.0773 157.491 87.1089 155.943L87.1722 154.773L87.2038 154.205C87.2038 154.015 87.2038 153.826 87.2038 153.604L87.1405 151.266C87.0773 150.476 86.9824 149.718 86.9191 148.928C86.8874 148.549 86.8242 148.138 86.7609 147.759L86.5711 146.59C86.5078 146.211 86.4129 145.832 86.318 145.421L86.0333 144.283C85.9067 143.904 85.7802 143.525 85.6536 143.146C85.5271 142.767 85.4005 142.388 85.2424 142.04C85.0842 141.661 84.926 141.313 84.7678 140.934L84.23 139.86C84.0085 139.512 83.8187 139.165 83.5973 138.817L83.2493 138.312L83.0594 138.059L82.9645 137.932L82.838 137.806C82.5533 137.49 82.1104 137.49 81.794 137.743C81.4776 137.996 81.4776 138.47 81.7307 138.786L81.6674 138.817Z" fill="#BDD0FB"/>
<path d="M80.531 148.421V149.874V151.517L80.4994 154.804L80.3728 161.376L80.1197 174.52C80.1197 174.741 80.2779 174.931 80.4994 174.931C80.7208 174.931 80.9106 174.773 80.9106 174.551L81.5117 161.439L81.7965 154.867L81.923 151.581L81.9863 149.938L82.0179 149.116V148.705C82.0179 148.516 82.0179 148.326 81.9863 148.137C81.9546 147.726 81.6066 147.442 81.1954 147.473C80.8157 147.505 80.531 147.821 80.531 148.2V148.421Z" fill="#BDD0FB"/>
<path d="M374.873 282.77H257.408C251.017 282.77 245.86 277.62 245.86 271.237V172.814C245.86 166.431 251.017 161.281 257.408 161.281H374.873C381.264 161.281 386.421 166.431 386.421 172.814V271.237C386.421 277.62 381.264 282.77 374.873 282.77Z" fill="white"/>
<path d="M386.071 313.8L121.179 311.588C117.952 311.557 115.39 308.966 115.39 305.743V296.39C115.39 291.935 118.996 288.302 123.489 288.302H385.754C387.494 288.302 388.886 289.692 388.886 291.43V311.051C388.823 312.568 387.589 313.8 386.071 313.8Z" fill="white"/>
<path d="M226.781 279.988H126.24C120.23 279.988 115.358 275.122 115.358 269.119V168.705C115.358 162.701 120.23 157.835 126.24 157.835H226.781C232.792 157.835 237.664 162.701 237.664 168.705V269.119C237.664 275.091 232.792 279.988 226.781 279.988Z" fill="white"/>
<path d="M209.382 219.48H129.469C126.906 219.48 124.85 217.963 124.85 216.067V159.162C124.85 157.298 126.906 155.749 129.437 155.749L209.983 155.591C212.546 155.591 214.634 157.108 214.602 159.004L213.969 216.099C213.969 217.963 211.913 219.48 209.382 219.48Z" fill="#FE7062"/>
<path d="M205.458 159.953L134.024 160.269C131.429 160.269 129.373 161.849 129.373 163.745L129.879 211.614C129.879 213.478 131.936 215.026 134.466 215.058L203.877 216.006C206.471 216.037 208.59 214.52 208.654 212.593L210.172 163.46C210.204 161.533 208.084 159.953 205.458 159.953Z" fill="#F5DEDE"/>
<path d="M202.55 164.377V164.757C202.55 165.325 201.917 165.799 201.158 165.799H146.11C145.351 165.799 144.718 165.325 144.718 164.757V164.377C144.718 163.809 145.351 163.335 146.11 163.335H201.158C201.917 163.366 202.55 163.809 202.55 164.377Z" fill="#710202"/>
<path d="M196.412 168.955C196.38 169.492 195.779 169.935 195.051 169.935L146.901 170.567C146.11 170.567 145.477 170.124 145.477 169.524V169.429C145.477 168.86 146.078 168.418 146.869 168.386L195.02 167.818C195.811 167.849 196.443 168.355 196.412 168.955Z" fill="#710202"/>
<path d="M201.314 213.447C201.282 213.447 201.282 213.447 201.251 213.447L136.143 212.878C134.909 212.878 133.739 212.404 133.011 211.646C132.473 211.077 132.189 210.414 132.22 209.687L133.897 175.878C133.929 174.204 135.732 172.845 137.883 172.845C137.915 172.845 137.946 172.845 137.946 172.845L202.927 173.793C204.161 173.825 205.3 174.267 206.059 175.025C206.597 175.563 206.882 176.258 206.85 176.953L205.3 210.414C205.269 212.12 203.529 213.447 201.314 213.447ZM137.883 174.172C136.459 174.172 135.257 174.962 135.226 175.942L133.549 209.75C133.549 210.161 133.77 210.508 133.992 210.73C134.498 211.235 135.321 211.551 136.175 211.551L201.282 212.12H201.314C202.738 212.12 203.94 211.33 203.971 210.35L205.522 176.89C205.522 176.447 205.3 176.1 205.079 175.91C204.604 175.405 203.782 175.089 202.896 175.089L137.915 174.141C137.915 174.172 137.915 174.172 137.883 174.172Z" fill="url(#paint61_linear_414_1996)"/>
<path d="M205.365 180.681H134.468C134.088 180.681 133.804 180.397 133.804 180.018C133.804 179.638 134.088 179.354 134.468 179.354H205.365C205.745 179.354 206.029 179.638 206.029 180.018C206.029 180.397 205.745 180.681 205.365 180.681Z" fill="url(#paint62_linear_414_1996)"/>
<path d="M151.329 217.747C151.329 217.747 167.748 238.727 149.02 260.054L141.996 259.391C141.996 259.391 155.537 237.652 149.526 220.337L139.56 221.064L134.056 217.462L151.329 217.747Z" fill="url(#paint63_linear_414_1996)"/>
<path d="M142.311 320.467C142.311 320.467 129.023 349.41 122.032 361.385C122.032 361.385 120.64 368.936 122.032 371.306L123.202 371.843L117.697 371.685C117.697 371.685 117.223 361.543 117.603 360.974C117.982 360.405 118.741 360.437 118.741 360.437C118.741 360.437 121.114 341.732 127.948 337.751L134.591 314.938L142.311 320.467Z" fill="url(#paint64_linear_414_1996)"/>
<path d="M125.576 373.233C125.576 373.359 121.273 373.296 118.932 373.264C118.078 373.233 117.318 372.632 117.16 371.811L115.389 362.521C115.23 361.637 115.768 360.784 116.654 360.594L117.635 360.373C117.635 360.373 119.058 362.3 118.584 364.133C118.141 365.934 117.761 370.642 118.869 371.21C119.976 371.748 123.203 371.842 123.203 371.842C123.203 371.842 125.512 372.064 125.576 373.233Z" fill="url(#paint65_linear_414_1996)"/>
<path d="M154.931 373.423C155.374 373.676 155.184 374.339 154.678 374.339C150.755 374.308 141.992 374.181 141.201 373.865C140.189 373.455 141.581 369.821 143.004 368.62L150.977 371.211L154.931 373.423Z" fill="url(#paint66_linear_414_1996)"/>
<path d="M157.404 318.602C157.404 318.602 148.799 360.12 146.395 368.208L152.152 371.81C152.152 371.81 149.274 371.336 147.122 371.178C144.971 371.02 143.01 368.587 143.01 368.587L143.706 367.482C143.706 367.482 145.857 326.185 145.351 321.508L157.404 318.602Z" fill="url(#paint67_linear_414_1996)"/>
<path d="M178.726 221.79C178.726 221.79 179.897 243.371 160.219 254.43L164.965 265.236C164.965 265.236 182.776 254.461 182.112 225.108C182.08 224.255 182.396 223.433 182.934 222.801L186.73 218.41C188.186 216.735 188.724 214.46 188.186 212.343L187.68 210.352C187.521 209.689 186.762 209.373 186.161 209.72L185.75 209.942C184.484 210.668 183.504 211.774 182.902 213.101L181.036 217.24C180.34 218.789 178.726 219.737 177.05 219.579L175.911 219.484L178.726 221.79Z" fill="url(#paint68_linear_414_1996)"/>
<path d="M160.913 252.817C157.623 253.733 146.455 256.672 139.495 256.545L143.766 280.653L143.418 284.571L157.369 284.508C157.369 284.508 161.292 275.408 164.393 270.859C165.279 269.563 164.614 267.983 164.108 266.467L164.804 265.993C165.5 265.519 165.816 264.634 165.563 263.813L162.178 253.449C161.988 252.943 161.451 252.659 160.913 252.817Z" fill="url(#paint69_linear_414_1996)"/>
<path d="M158.508 282.454L158.223 284.823C158.223 284.823 162.178 296.609 156.262 324.13C156.262 324.13 143.449 327.763 132.946 319.074C132.946 319.074 135.92 293.102 136.711 291.901C140.76 285.866 143.449 284.571 143.449 284.571L143.576 281.98C143.576 281.948 154.807 284.002 158.508 282.454Z" fill="url(#paint70_linear_414_1996)"/>
<path d="M153.035 254.747C153.098 254.684 150.125 245.837 150.125 245.837L145.885 246.216L144.24 256.264C144.24 256.264 150.884 257.591 153.035 254.747Z" fill="url(#paint71_linear_414_1996)"/>
<path d="M146.898 231.836C147.183 232.026 155.946 235.628 154.08 244.728C153.953 245.265 153.605 245.707 153.099 245.96C151.802 246.529 149.05 247.508 145.728 247.192C141.14 246.718 138.103 238.724 138.262 236.386C138.388 234.048 144.114 230.098 146.898 231.836Z" fill="url(#paint72_linear_414_1996)"/>
<path d="M144.242 228.33C145.982 228.551 147.785 230.352 147.532 232.184C147.279 233.954 145.381 234.333 144.527 235.597C142.565 238.567 144.337 243.622 146.172 246.245C151.676 254.176 160.693 263.813 154.492 274.145C150.474 280.843 141.521 284.666 133.897 283.813C129.847 283.371 125.924 279.137 123.995 275.788C121.305 271.048 120.831 265.077 122.255 259.831C123.647 254.776 128.139 250.795 131.113 246.561C132.188 245.044 133.232 243.338 133.201 241.474C133.169 240.305 132.758 239.199 132.631 238.03C131.999 232.216 139.022 227.635 144.242 228.33Z" fill="url(#paint73_linear_414_1996)"/>
<path d="M131.275 276.325L131.401 276.104C128.585 274.366 126.845 270.859 126.845 266.972C126.845 263.876 127.826 260.653 129.883 256.798C130.642 255.376 131.528 253.955 132.35 252.564C133.363 250.921 134.407 249.215 135.292 247.446C136.083 245.866 136.843 244.002 136.4 242.169C136.178 241.253 135.672 240.4 135.166 239.578C134.375 238.283 133.647 237.082 134.027 235.723L133.774 235.66C133.363 237.114 134.153 238.409 134.913 239.705C135.387 240.526 135.893 241.348 136.115 242.232C136.558 243.97 135.799 245.771 135.008 247.319C134.122 249.057 133.078 250.763 132.065 252.406C131.211 253.797 130.357 255.218 129.566 256.64C127.478 260.527 126.497 263.813 126.497 266.941C126.592 270.922 128.396 274.524 131.275 276.325Z" fill="#FF4040"/>
<path d="M133.233 275.755L133.455 275.597C131.24 272.469 130.449 268.141 131.24 263.654C132.031 259.23 134.214 255.186 136.017 252.153L135.796 252.026C133.961 255.06 131.778 259.136 130.987 263.622C130.133 268.172 130.987 272.596 133.233 275.755Z" fill="#FF4040"/>
<path d="M265.909 195.083L363.381 194.199C365.279 194.167 366.861 195.715 366.829 197.643L366.418 272.337C366.418 274.265 364.805 275.781 362.906 275.75C345.285 275.212 267.017 272.906 263.568 273.064C260.152 273.222 262.018 213.188 262.524 198.369C262.556 196.537 264.074 195.083 265.909 195.083Z" fill="#FF4040"/>
<path opacity="0.84" d="M363.004 272.875C348.989 272.464 278.44 270.379 265.469 270.189H265.342L265.311 270.063C264.077 263.175 264.108 235.085 265.374 198.465C265.374 198.18 265.627 197.959 265.912 197.928L363.383 197.043C363.573 197.043 363.7 197.138 363.763 197.201C363.858 197.296 363.921 197.454 363.921 197.58L363.51 272.275C363.541 272.622 363.288 272.875 363.004 272.875ZM265.595 269.905C278.883 270.094 349.02 272.18 362.972 272.59C363.099 272.59 363.193 272.496 363.193 272.338L363.605 197.643C363.605 197.58 363.573 197.517 363.541 197.485C363.478 197.422 363.447 197.422 363.352 197.422L265.88 198.307C265.753 198.307 265.627 198.402 265.627 198.528C264.425 234.864 264.393 262.827 265.595 269.905Z" fill="white"/>
<path opacity="0.84" d="M277.678 263.333H341.583C343.576 263.333 344.81 261.184 343.798 259.446L318.488 216.507C317.444 214.706 314.787 214.864 313.933 216.728L301.721 243.458C300.994 245.038 298.937 245.449 297.64 244.28L292.705 239.762C291.566 238.719 289.731 238.909 288.845 240.204L275.558 259.288C274.356 260.995 275.59 263.333 277.678 263.333Z" fill="white"/>
<path opacity="0.84" d="M344.223 223.676C348.904 221.74 351.127 216.38 349.188 211.704C347.249 207.029 341.882 204.808 337.2 206.745C332.519 208.682 330.296 214.042 332.235 218.717C334.174 223.393 339.541 225.613 344.223 223.676Z" fill="white"/>
<path d="M424.349 284.596C422.103 276.317 415.174 269.493 407.455 267.786C406.031 267.47 405.209 266.017 405.557 264.627V264.595C406.664 259.761 403.595 255.938 398.913 254.863C394.263 253.789 389.77 255.874 388.663 260.677C387.904 263.932 388.885 267.597 391.004 269.967C391.89 270.946 391.953 272.399 391.099 273.411C386.385 278.908 384.487 287.313 386.512 294.833C389.517 305.892 399.926 310.853 410.366 308.04C420.806 305.228 427.354 295.655 424.349 284.596Z" fill="url(#paint74_linear_414_1996)"/>
<path d="M421.092 295.149L420.902 294.992C422.769 292.337 423.022 288.514 421.535 285.007C420.365 282.226 418.245 279.667 414.891 276.981C413.658 275.97 412.329 275.022 411.032 274.106C409.482 273 407.9 271.863 406.413 270.631C405.084 269.525 403.692 268.134 403.407 266.302C403.249 265.385 403.407 264.438 403.534 263.49C403.755 262.036 403.945 260.646 403.091 259.603L403.281 259.445C404.198 260.583 403.977 262.068 403.787 263.521C403.661 264.438 403.534 265.385 403.661 266.239C403.945 267.976 405.306 269.303 406.603 270.409C408.058 271.642 409.671 272.779 411.19 273.885C412.487 274.801 413.784 275.749 415.05 276.76C418.435 279.478 420.554 282.037 421.757 284.881C423.275 288.514 423.022 292.432 421.092 295.149Z" fill="url(#paint75_linear_414_1996)"/>
<path d="M416.123 296.759L415.902 296.664C417.167 293.157 416.788 288.828 414.89 284.816C412.991 280.835 409.859 277.58 407.36 275.21L407.518 275.021C410.049 277.422 413.181 280.677 415.079 284.689C417.041 288.797 417.421 293.189 416.123 296.759Z" fill="url(#paint76_linear_414_1996)"/>
<path d="M366.044 251.296L365.949 248.421L368.954 242.48C369.492 241.406 369.492 240.111 368.954 239.036L365.569 232.18C365.569 232.18 363.608 247.03 363.102 248.263C362.596 249.495 364.494 251.707 364.494 251.707L366.044 251.296Z" fill="url(#paint77_linear_414_1996)"/>
<path d="M365.983 248.453C365.983 248.453 375.094 273.257 390.628 280.998C390.628 280.998 385.471 289.403 382.75 289.94C382.75 289.94 366.173 268.738 364.465 251.392L365.983 248.453Z" fill="url(#paint78_linear_414_1996)"/>
<path d="M428.398 397.651L428.841 401.411C429.316 403.212 431.625 407.699 434.567 407.415C436.402 407.225 436.592 401.917 436.339 401.127C435.864 399.674 435.042 397.493 433.808 396.198H429.632C428.904 396.198 428.303 396.862 428.398 397.651Z" fill="url(#paint79_linear_414_1996)"/>
<path d="M395.656 353.575L394.96 357.715C394.96 357.715 397.333 381.602 397.744 391.144C397.808 392.629 397.428 394.114 396.637 395.409L392.524 402.076L402.964 395.915L403.186 394.651L401.478 392.313L403.724 365.551C403.85 363.971 403.534 362.391 402.775 361.001L400.623 356.956L395.656 353.575Z" fill="url(#paint80_linear_414_1996)"/>
<path d="M391.83 403.053H395.152C395.785 403.053 396.354 402.769 396.734 402.263C397.778 400.905 399.929 398.282 400.942 398.219C402.334 398.124 402.144 403.053 402.144 403.053H402.935L403.916 396.955C404.169 395.407 403.409 393.89 402.017 393.164C402.017 393.164 401.701 395.502 399.993 396.544C398.284 397.587 393.001 401.284 393.001 401.284C393.001 401.284 392.368 401.189 391.641 401.315C390.628 401.473 390.786 403.053 391.83 403.053Z" fill="url(#paint81_linear_414_1996)"/>
<path d="M409.956 355.535C409.956 355.535 423.781 381.728 425.996 387.732C428.21 393.703 428.969 398.696 429.001 399.17C429.033 399.896 429.982 400.623 432.513 400.623C433.81 400.623 434.474 400.086 434.791 399.58C435.044 399.138 435.075 398.601 434.854 398.159C434.063 396.547 431.5 391.365 430.583 389.027C429.476 386.215 427.04 373.545 425.711 369.121C424.382 364.698 422.895 359.927 417.106 355.535C417.074 355.535 413.12 351.68 409.956 355.535Z" fill="url(#paint82_linear_414_1996)"/>
<path d="M401.225 312.592C399.2 304.03 401.225 297.552 403.376 293.571C405.084 290.38 403.882 286.462 400.687 284.787C395.688 282.196 390.595 280.964 390.595 280.964C390.595 280.964 380.693 288.2 381.863 293.887C382.559 297.205 388.823 313.793 388.823 313.793C388.823 313.793 394.644 316.542 401.225 312.592Z" fill="url(#paint83_linear_414_1996)"/>
<path d="M409.133 320.084C407.678 315.723 401.224 312.595 401.224 312.595C394.644 316.545 388.823 313.796 388.823 313.796C388.823 313.796 387.526 318.757 388.412 323.401C389.297 328.014 394.96 357.715 394.96 357.715C403.85 359.516 417.517 355.914 417.517 355.914C411.854 345.866 410.589 324.444 409.133 320.084Z" fill="url(#paint84_linear_414_1996)"/>
<path d="M397.082 271.01L399.993 284.028C400.277 285.166 399.233 284.976 398.063 284.755C396.165 284.407 393.697 283.649 392.906 282.195C392.811 282.037 392.779 281.879 392.748 281.69L391.514 272.653C391.419 271.927 391.799 271.231 392.463 270.947L394.867 269.873C395.785 269.494 396.829 270.031 397.082 271.01Z" fill="url(#paint85_linear_414_1996)"/>
<path d="M360.826 262.415C360.826 262.415 368.45 288.893 399.264 286.428C401.225 286.27 402.965 287.724 403.123 289.683L403.218 290.757C403.44 293.601 401.099 296.002 398.251 295.876C388.001 295.37 366.014 291.326 358.484 267.028L360.826 262.415Z" fill="url(#paint86_linear_414_1996)"/>
<path d="M358.451 267.029C358.451 267.029 356.996 262.732 356.617 260.015C356.237 257.329 357.597 251.263 358.768 249.556C359.938 247.85 360.128 252.021 360.666 253.98C361.204 255.939 360.286 258.751 360.286 258.751L360.824 262.416L358.451 267.029Z" fill="url(#paint87_linear_414_1996)"/>
<path d="M391.13 260.269C391.13 260.269 383.79 270.949 388.346 273.919C392.902 276.889 398.122 269.306 398.122 269.306C398.122 269.306 399.767 263.524 397.9 261.596C396.034 259.669 391.13 260.269 391.13 260.269Z" fill="url(#paint88_linear_414_1996)"/>
<path d="M394.198 257.71C394.198 257.71 391.003 258.532 390.592 259.985C390.18 261.439 395.179 262.703 396.602 262.734L397.836 268.548C397.836 268.548 401.063 262.987 399.671 259.827C398.311 256.668 394.198 257.71 394.198 257.71Z" fill="url(#paint89_linear_414_1996)"/>
<path d="M396.665 268.579C396.665 268.579 399.544 265.135 400.746 267.316C401.948 269.496 398.183 271.233 396.854 270.191L396.665 268.579Z" fill="url(#paint90_linear_414_1996)"/>
<defs>
<linearGradient id="paint0_linear_414_1996" x1="473.577" y1="34.5415" x2="473.577" y2="414.586" gradientUnits="userSpaceOnUse">
<stop stop-color="#5E0303"/>
<stop offset="1" stop-color="#8A0202"/>
</linearGradient>
<linearGradient id="paint1_linear_414_1996" x1="473.902" y1="77.5312" x2="473.902" y2="398.856" gradientUnits="userSpaceOnUse">
<stop stop-color="#5E0303"/>
<stop offset="1" stop-color="#8A0202"/>
</linearGradient>
<linearGradient id="paint2_linear_414_1996" x1="97.5997" y1="94.9998" x2="97.5997" y2="406.815" gradientUnits="userSpaceOnUse">
<stop stop-color="#5E0303"/>
<stop offset="1" stop-color="#8A0202"/>
</linearGradient>
<linearGradient id="paint3_linear_414_1996" x1="97.6724" y1="129.492" x2="97.6724" y2="392.436" gradientUnits="userSpaceOnUse">
<stop stop-color="#5E0303"/>
<stop offset="1" stop-color="#8A0202"/>
</linearGradient>
<linearGradient id="paint4_linear_414_1996" x1="64.3106" y1="284.508" x2="64.3106" y2="409.347" gradientUnits="userSpaceOnUse">
<stop stop-color="#5E0303"/>
<stop offset="1" stop-color="#8A0202"/>
</linearGradient>
<linearGradient id="paint5_linear_414_1996" x1="21.1785" y1="352.819" x2="106.298" y2="352.819" gradientUnits="userSpaceOnUse">
<stop stop-color="#DAE3FE"/>
<stop offset="1" stop-color="#E9EFFD"/>
</linearGradient>
<linearGradient id="paint6_linear_414_1996" x1="63.7399" y1="298.776" x2="63.7399" y2="406.877" gradientUnits="userSpaceOnUse">
<stop stop-color="#5E0303"/>
<stop offset="1" stop-color="#8A0202"/>
</linearGradient>
<linearGradient id="paint7_linear_414_1996" x1="272.497" y1="323.339" x2="387.827" y2="328.245" gradientUnits="userSpaceOnUse">
<stop stop-color="#001029"/>
<stop offset="1" stop-color="#001B46"/>
</linearGradient>
<linearGradient id="paint8_linear_414_1996" x1="94.2265" y1="88.457" x2="553.892" y2="114.848" gradientUnits="userSpaceOnUse">
<stop stop-color="#001029"/>
<stop offset="1" stop-color="#001B46"/>
</linearGradient>
<linearGradient id="paint9_linear_414_1996" x1="237.69" y1="403.121" x2="411.3" y2="444.95" gradientUnits="userSpaceOnUse">
<stop stop-color="#001029"/>
<stop offset="1" stop-color="#001B46"/>
</linearGradient>
<linearGradient id="paint10_linear_414_1996" x1="519.688" y1="184.454" x2="519.688" y2="420.562" gradientUnits="userSpaceOnUse">
<stop stop-color="#5E0303"/>
<stop offset="1" stop-color="#8A0202"/>
</linearGradient>
<linearGradient id="paint11_linear_414_1996" x1="492.784" y1="309.738" x2="544.206" y2="309.738" gradientUnits="userSpaceOnUse">
<stop stop-color="#DAE3FE"/>
<stop offset="1" stop-color="#E9EFFD"/>
</linearGradient>
<linearGradient id="paint12_linear_414_1996" x1="518.5" y1="210.222" x2="518.5" y2="409.397" gradientUnits="userSpaceOnUse">
<stop stop-color="#5E0303"/>
<stop offset="1" stop-color="#8A0202"/>
</linearGradient>
<linearGradient id="paint13_linear_414_1996" x1="570.591" y1="225.956" x2="570.591" y2="420.152" gradientUnits="userSpaceOnUse">
<stop stop-color="#5E0303"/>
<stop offset="1" stop-color="#8A0202"/>
</linearGradient>
<linearGradient id="paint14_linear_414_1996" x1="511.91" y1="331.828" x2="631.8" y2="331.828" gradientUnits="userSpaceOnUse">
<stop stop-color="#DAE3FE"/>
<stop offset="1" stop-color="#E9EFFD"/>
</linearGradient>
<linearGradient id="paint15_linear_414_1996" x1="571.849" y1="247.85" x2="571.849" y2="415.78" gradientUnits="userSpaceOnUse">
<stop stop-color="#5E0303"/>
<stop offset="1" stop-color="#8A0202"/>
</linearGradient>
<linearGradient id="paint16_linear_414_1996" x1="462.852" y1="8.34595" x2="488.475" y2="9.66381" gradientUnits="userSpaceOnUse">
<stop stop-color="#001029"/>
<stop offset="1" stop-color="#001B46"/>
</linearGradient>
<linearGradient id="paint17_linear_414_1996" x1="477.108" y1="6.70159" x2="451.645" y2="80.6573" gradientUnits="userSpaceOnUse">
<stop stop-color="#FF928E"/>
<stop offset="1" stop-color="#FEB3B1"/>
</linearGradient>
<linearGradient id="paint18_linear_414_1996" x1="302.725" y1="-485.829" x2="328.187" y2="-411.874" gradientUnits="userSpaceOnUse">
<stop stop-color="#FF928E"/>
<stop offset="1" stop-color="#FEB3B1"/>
</linearGradient>
<linearGradient id="paint19_linear_414_1996" x1="474.38" y1="57.8362" x2="474.38" y2="82.1972" gradientUnits="userSpaceOnUse">
<stop stop-color="#5E0303"/>
<stop offset="1" stop-color="#8A0202"/>
</linearGradient>
<linearGradient id="paint20_linear_414_1996" x1="493.57" y1="88.8591" x2="510.461" y2="89.9933" gradientUnits="userSpaceOnUse">
<stop stop-color="#001029"/>
<stop offset="1" stop-color="#001B46"/>
</linearGradient>
<linearGradient id="paint21_linear_414_1996" x1="518.336" y1="20.9017" x2="492.873" y2="94.8576" gradientUnits="userSpaceOnUse">
<stop stop-color="#FF928E"/>
<stop offset="1" stop-color="#FEB3B1"/>
</linearGradient>
<linearGradient id="paint22_linear_414_1996" x1="435.614" y1="88.5513" x2="452.424" y2="89.6934" gradientUnits="userSpaceOnUse">
<stop stop-color="#001029"/>
<stop offset="1" stop-color="#001B46"/>
</linearGradient>
<linearGradient id="paint23_linear_414_1996" x1="481.082" y1="8.07101" x2="455.62" y2="82.0267" gradientUnits="userSpaceOnUse">
<stop stop-color="#FF928E"/>
<stop offset="1" stop-color="#FEB3B1"/>
</linearGradient>
<linearGradient id="paint24_linear_414_1996" x1="452.47" y1="68.9529" x2="511.737" y2="73.1114" gradientUnits="userSpaceOnUse">
<stop stop-color="#001029"/>
<stop offset="1" stop-color="#001B46"/>
</linearGradient>
<linearGradient id="paint25_linear_414_1996" x1="438.843" y1="68.3718" x2="494.987" y2="72.0955" gradientUnits="userSpaceOnUse">
<stop stop-color="#001029"/>
<stop offset="1" stop-color="#001B46"/>
</linearGradient>
<linearGradient id="paint26_linear_414_1996" x1="482.384" y1="8.51796" x2="456.922" y2="82.4738" gradientUnits="userSpaceOnUse">
<stop stop-color="#FF928E"/>
<stop offset="1" stop-color="#FEB3B1"/>
</linearGradient>
<linearGradient id="paint27_linear_414_1996" x1="478.373" y1="-1.59536" x2="473.954" y2="30.0028" gradientUnits="userSpaceOnUse">
<stop stop-color="#FF928E"/>
<stop offset="1" stop-color="#FEB3B1"/>
</linearGradient>
<linearGradient id="paint28_linear_414_1996" x1="462.735" y1="0.384766" x2="488.708" y2="1.43881" gradientUnits="userSpaceOnUse">
<stop stop-color="#001029"/>
<stop offset="1" stop-color="#001B46"/>
</linearGradient>
<linearGradient id="paint29_linear_414_1996" x1="470.434" y1="-2.70744" x2="466.016" y2="28.8907" gradientUnits="userSpaceOnUse">
<stop stop-color="#FF928E"/>
<stop offset="1" stop-color="#FEB3B1"/>
</linearGradient>
<linearGradient id="paint30_linear_414_1996" x1="560.031" y1="393.014" x2="563.724" y2="393.025" gradientUnits="userSpaceOnUse">
<stop stop-color="#001029"/>
<stop offset="1" stop-color="#001B46"/>
</linearGradient>
<linearGradient id="paint31_linear_414_1996" x1="546.179" y1="430.044" x2="573.302" y2="441.986" gradientUnits="userSpaceOnUse">
<stop stop-color="#001029"/>
<stop offset="1" stop-color="#001B46"/>
</linearGradient>
<linearGradient id="paint32_linear_414_1996" x1="541.559" y1="383.818" x2="584.214" y2="388.766" gradientUnits="userSpaceOnUse">
<stop stop-color="#001029"/>
<stop offset="1" stop-color="#001B46"/>
</linearGradient>
<linearGradient id="paint33_linear_414_1996" x1="539.902" y1="423.029" x2="539.902" y2="437.09" gradientUnits="userSpaceOnUse">
<stop stop-color="#5E0303"/>
<stop offset="1" stop-color="#8A0202"/>
</linearGradient>
<linearGradient id="paint34_linear_414_1996" x1="545.208" y1="422.326" x2="538.918" y2="422.326" gradientUnits="userSpaceOnUse">
<stop stop-color="#FF928E"/>
<stop offset="1" stop-color="#FEB3B1"/>
</linearGradient>
<linearGradient id="paint35_linear_414_1996" x1="545.628" y1="375.222" x2="545.628" y2="421.953" gradientUnits="userSpaceOnUse">
<stop stop-color="#5E0303"/>
<stop offset="1" stop-color="#8A0202"/>
</linearGradient>
<linearGradient id="paint36_linear_414_1996" x1="539.808" y1="428.666" x2="539.808" y2="438.947" gradientUnits="userSpaceOnUse">
<stop stop-color="#5E0303"/>
<stop offset="1" stop-color="#8A0202"/>
</linearGradient>
<linearGradient id="paint37_linear_414_1996" x1="530.918" y1="431.971" x2="548.307" y2="433.134" gradientUnits="userSpaceOnUse">
<stop stop-color="#001029"/>
<stop offset="1" stop-color="#001B46"/>
</linearGradient>
<linearGradient id="paint38_linear_414_1996" x1="549.754" y1="428.124" x2="543.85" y2="428.124" gradientUnits="userSpaceOnUse">
<stop stop-color="#FF928E"/>
<stop offset="1" stop-color="#FEB3B1"/>
</linearGradient>
<linearGradient id="paint39_linear_414_1996" x1="562.893" y1="368.935" x2="562.893" y2="428.116" gradientUnits="userSpaceOnUse">
<stop stop-color="#5E0303"/>
<stop offset="1" stop-color="#8A0202"/>
</linearGradient>
<linearGradient id="paint40_linear_414_1996" x1="1000.72" y1="1107.34" x2="1062.61" y2="1207.89" gradientUnits="userSpaceOnUse">
<stop stop-color="#FE7062"/>
<stop offset="1" stop-color="#FF928E"/>
</linearGradient>
<linearGradient id="paint41_linear_414_1996" x1="537.509" y1="336.653" x2="519.615" y2="366.795" gradientUnits="userSpaceOnUse">
<stop stop-color="#FF928E"/>
<stop offset="1" stop-color="#FEB3B1"/>
</linearGradient>
<linearGradient id="paint42_linear_414_1996" x1="882.254" y1="873.224" x2="944.148" y2="973.77" gradientUnits="userSpaceOnUse">
<stop stop-color="#FE7062"/>
<stop offset="1" stop-color="#FF928E"/>
</linearGradient>
<linearGradient id="paint43_linear_414_1996" x1="551.363" y1="329.779" x2="537.699" y2="329.779" gradientUnits="userSpaceOnUse">
<stop stop-color="#FF928E"/>
<stop offset="1" stop-color="#FEB3B1"/>
</linearGradient>
<linearGradient id="paint44_linear_414_1996" x1="897.37" y1="863.921" x2="959.265" y2="964.468" gradientUnits="userSpaceOnUse">
<stop stop-color="#FE7062"/>
<stop offset="1" stop-color="#FF928E"/>
</linearGradient>
<linearGradient id="paint45_linear_414_1996" x1="618.253" y1="333.332" x2="562.919" y2="348.866" gradientUnits="userSpaceOnUse">
<stop stop-color="#E1473D"/>
<stop offset="1" stop-color="#E9605A"/>
</linearGradient>
<linearGradient id="paint46_linear_414_1996" x1="594.027" y1="351.085" x2="558.185" y2="365.651" gradientUnits="userSpaceOnUse">
<stop stop-color="#FF928E"/>
<stop offset="1" stop-color="#FEB3B1"/>
</linearGradient>
<linearGradient id="paint47_linear_414_1996" x1="1753.24" y1="1391.51" x2="1736.56" y2="1376.79" gradientUnits="userSpaceOnUse">
<stop stop-color="#FF928E"/>
<stop offset="1" stop-color="#FEB3B1"/>
</linearGradient>
<linearGradient id="paint48_linear_414_1996" x1="526.226" y1="308.897" x2="549.901" y2="310.076" gradientUnits="userSpaceOnUse">
<stop stop-color="#001029"/>
<stop offset="1" stop-color="#001B46"/>
</linearGradient>
<linearGradient id="paint49_linear_414_1996" x1="1756.55" y1="1387.76" x2="1739.87" y2="1373.04" gradientUnits="userSpaceOnUse">
<stop stop-color="#FF928E"/>
<stop offset="1" stop-color="#FEB3B1"/>
</linearGradient>
<linearGradient id="paint50_linear_414_1996" x1="531.486" y1="365.112" x2="531.486" y2="368.114" gradientUnits="userSpaceOnUse">
<stop stop-color="#5E0303"/>
<stop offset="1" stop-color="#8A0202"/>
</linearGradient>
<linearGradient id="paint51_linear_414_1996" x1="506.489" y1="337.968" x2="506.489" y2="368.111" gradientUnits="userSpaceOnUse">
<stop stop-color="#5E0303"/>
<stop offset="1" stop-color="#8A0202"/>
</linearGradient>
<linearGradient id="paint52_linear_414_1996" x1="127.674" y1="436.602" x2="110.185" y2="514.94" gradientUnits="userSpaceOnUse">
<stop stop-color="#FE7062"/>
<stop offset="1" stop-color="#FF928E"/>
</linearGradient>
<linearGradient id="paint53_linear_414_1996" x1="135.577" y1="382.712" x2="135.577" y2="383.281" gradientUnits="userSpaceOnUse">
<stop stop-color="#5E0303"/>
<stop offset="1" stop-color="#8A0202"/>
</linearGradient>
<linearGradient id="paint54_linear_414_1996" x1="135.577" y1="386.344" x2="135.577" y2="386.913" gradientUnits="userSpaceOnUse">
<stop stop-color="#5E0303"/>
<stop offset="1" stop-color="#8A0202"/>
</linearGradient>
<linearGradient id="paint55_linear_414_1996" x1="135.575" y1="389.947" x2="135.575" y2="390.516" gradientUnits="userSpaceOnUse">
<stop stop-color="#5E0303"/>
<stop offset="1" stop-color="#8A0202"/>
</linearGradient>
<linearGradient id="paint56_linear_414_1996" x1="135.577" y1="393.579" x2="135.577" y2="394.148" gradientUnits="userSpaceOnUse">
<stop stop-color="#5E0303"/>
<stop offset="1" stop-color="#8A0202"/>
</linearGradient>
<linearGradient id="paint57_linear_414_1996" x1="135.577" y1="397.182" x2="135.577" y2="397.751" gradientUnits="userSpaceOnUse">
<stop stop-color="#5E0303"/>
<stop offset="1" stop-color="#8A0202"/>
</linearGradient>
<linearGradient id="paint58_linear_414_1996" x1="14.5699" y1="407.576" x2="216.202" y2="440.166" gradientUnits="userSpaceOnUse">
<stop stop-color="#001029"/>
<stop offset="1" stop-color="#001B46"/>
</linearGradient>
<linearGradient id="paint59_linear_414_1996" x1="125.051" y1="62.7947" x2="125.051" y2="125.985" gradientUnits="userSpaceOnUse">
<stop stop-color="#5E0303"/>
<stop offset="1" stop-color="#8A0202"/>
</linearGradient>
<linearGradient id="paint60_linear_414_1996" x1="118.95" y1="31.4702" x2="118.95" y2="116.519" gradientUnits="userSpaceOnUse">
<stop stop-color="#5E0303"/>
<stop offset="1" stop-color="#8A0202"/>
</linearGradient>
<linearGradient id="paint61_linear_414_1996" x1="169.535" y1="172.845" x2="169.535" y2="213.447" gradientUnits="userSpaceOnUse">
<stop stop-color="#5E0303"/>
<stop offset="1" stop-color="#8A0202"/>
</linearGradient>
<linearGradient id="paint62_linear_414_1996" x1="169.916" y1="179.354" x2="169.916" y2="180.681" gradientUnits="userSpaceOnUse">
<stop stop-color="#5E0303"/>
<stop offset="1" stop-color="#8A0202"/>
</linearGradient>
<linearGradient id="paint63_linear_414_1996" x1="139.83" y1="215.067" x2="151.598" y2="251.183" gradientUnits="userSpaceOnUse">
<stop stop-color="#FF928E"/>
<stop offset="1" stop-color="#FEB3B1"/>
</linearGradient>
<linearGradient id="paint64_linear_414_1996" x1="142.325" y1="343.375" x2="117.474" y2="343.375" gradientUnits="userSpaceOnUse">
<stop stop-color="#FF928E"/>
<stop offset="1" stop-color="#FEB3B1"/>
</linearGradient>
<linearGradient id="paint65_linear_414_1996" x1="115.361" y1="360.373" x2="125.904" y2="360.646" gradientUnits="userSpaceOnUse">
<stop stop-color="#001029"/>
<stop offset="1" stop-color="#001B46"/>
</linearGradient>
<linearGradient id="paint66_linear_414_1996" x1="140.855" y1="368.62" x2="155.55" y2="369.829" gradientUnits="userSpaceOnUse">
<stop stop-color="#001029"/>
<stop offset="1" stop-color="#001B46"/>
</linearGradient>
<linearGradient id="paint67_linear_414_1996" x1="157.408" y1="345.219" x2="143.017" y2="345.219" gradientUnits="userSpaceOnUse">
<stop stop-color="#FF928E"/>
<stop offset="1" stop-color="#FEB3B1"/>
</linearGradient>
<linearGradient id="paint68_linear_414_1996" x1="188.408" y1="237.385" x2="160.235" y2="237.385" gradientUnits="userSpaceOnUse">
<stop stop-color="#FF928E"/>
<stop offset="1" stop-color="#FEB3B1"/>
</linearGradient>
<linearGradient id="paint69_linear_414_1996" x1="138.415" y1="290.496" x2="85.7026" y2="395.03" gradientUnits="userSpaceOnUse">
<stop stop-color="#FE7062"/>
<stop offset="1" stop-color="#FF928E"/>
</linearGradient>
<linearGradient id="paint70_linear_414_1996" x1="146.232" y1="281.979" x2="146.232" y2="324.883" gradientUnits="userSpaceOnUse">
<stop stop-color="#5E0303"/>
<stop offset="1" stop-color="#8A0202"/>
</linearGradient>
<linearGradient id="paint71_linear_414_1996" x1="148.627" y1="253.834" x2="144.209" y2="271.53" gradientUnits="userSpaceOnUse">
<stop stop-color="#FF928E"/>
<stop offset="1" stop-color="#FEB3B1"/>
</linearGradient>
<linearGradient id="paint72_linear_414_1996" x1="154.993" y1="244.041" x2="140.162" y2="231.484" gradientUnits="userSpaceOnUse">
<stop stop-color="#FF928E"/>
<stop offset="1" stop-color="#FEADAA"/>
</linearGradient>
<linearGradient id="paint73_linear_414_1996" x1="121.47" y1="228.26" x2="157.724" y2="229.011" gradientUnits="userSpaceOnUse">
<stop stop-color="#001029"/>
<stop offset="1" stop-color="#001B46"/>
</linearGradient>
<linearGradient id="paint74_linear_414_1996" x1="385.708" y1="254.587" x2="426.352" y2="255.556" gradientUnits="userSpaceOnUse">
<stop stop-color="#001029"/>
<stop offset="1" stop-color="#001B46"/>
</linearGradient>
<linearGradient id="paint75_linear_414_1996" x1="403.091" y1="259.445" x2="423.379" y2="259.812" gradientUnits="userSpaceOnUse">
<stop stop-color="#001029"/>
<stop offset="1" stop-color="#001B46"/>
</linearGradient>
<linearGradient id="paint76_linear_414_1996" x1="407.36" y1="275.021" x2="417.192" y2="275.162" gradientUnits="userSpaceOnUse">
<stop stop-color="#001029"/>
<stop offset="1" stop-color="#001B46"/>
</linearGradient>
<linearGradient id="paint77_linear_414_1996" x1="389" y1="287.836" x2="361.847" y2="235.99" gradientUnits="userSpaceOnUse">
<stop stop-color="#FF928E"/>
<stop offset="1" stop-color="#FEB3B1"/>
</linearGradient>
<linearGradient id="paint78_linear_414_1996" x1="387.391" y1="288.682" x2="360.238" y2="236.835" gradientUnits="userSpaceOnUse">
<stop stop-color="#FF928E"/>
<stop offset="1" stop-color="#FEB3B1"/>
</linearGradient>
<linearGradient id="paint79_linear_414_1996" x1="428.388" y1="396.198" x2="436.688" y2="396.393" gradientUnits="userSpaceOnUse">
<stop stop-color="#001029"/>
<stop offset="1" stop-color="#001B46"/>
</linearGradient>
<linearGradient id="paint80_linear_414_1996" x1="394.348" y1="431.291" x2="405.909" y2="295.993" gradientUnits="userSpaceOnUse">
<stop stop-color="#FF928E"/>
<stop offset="1" stop-color="#FEB3B1"/>
</linearGradient>
<linearGradient id="paint81_linear_414_1996" x1="390.959" y1="393.164" x2="404.366" y2="393.742" gradientUnits="userSpaceOnUse">
<stop stop-color="#001029"/>
<stop offset="1" stop-color="#001B46"/>
</linearGradient>
<linearGradient id="paint82_linear_414_1996" x1="417.663" y1="433.304" x2="429.227" y2="297.971" gradientUnits="userSpaceOnUse">
<stop stop-color="#FF928E"/>
<stop offset="1" stop-color="#FEB3B1"/>
</linearGradient>
<linearGradient id="paint83_linear_414_1996" x1="355.772" y1="341.356" x2="310.28" y2="392.599" gradientUnits="userSpaceOnUse">
<stop stop-color="#FE7062"/>
<stop offset="1" stop-color="#FF928E"/>
</linearGradient>
<linearGradient id="paint84_linear_414_1996" x1="406.82" y1="329.949" x2="344.57" y2="413.998" gradientUnits="userSpaceOnUse">
<stop stop-color="#FE7062"/>
<stop offset="1" stop-color="#FF928E"/>
</linearGradient>
<linearGradient id="paint85_linear_414_1996" x1="395.418" y1="276.531" x2="399.837" y2="306.233" gradientUnits="userSpaceOnUse">
<stop stop-color="#FF928E"/>
<stop offset="1" stop-color="#FEB3B1"/>
</linearGradient>
<linearGradient id="paint86_linear_414_1996" x1="422.518" y1="306.314" x2="357.07" y2="269.592" gradientUnits="userSpaceOnUse">
<stop stop-color="#FF928E"/>
<stop offset="1" stop-color="#FEB3B1"/>
</linearGradient>
<linearGradient id="paint87_linear_414_1996" x1="427.897" y1="296.727" x2="362.449" y2="260.005" gradientUnits="userSpaceOnUse">
<stop stop-color="#FF928E"/>
<stop offset="1" stop-color="#FEB3B1"/>
</linearGradient>
<linearGradient id="paint88_linear_414_1996" x1="390.351" y1="262.417" x2="400.028" y2="282.392" gradientUnits="userSpaceOnUse">
<stop stop-color="#FF928E"/>
<stop offset="1" stop-color="#FEB3B1"/>
</linearGradient>
<linearGradient id="paint89_linear_414_1996" x1="390.568" y1="257.546" x2="400.322" y2="257.821" gradientUnits="userSpaceOnUse">
<stop stop-color="#001029"/>
<stop offset="1" stop-color="#001B46"/>
</linearGradient>
<linearGradient id="paint90_linear_414_1996" x1="394.694" y1="260.313" x2="404.37" y2="280.287" gradientUnits="userSpaceOnUse">
<stop stop-color="#FF928E"/>
<stop offset="1" stop-color="#FEB3B1"/>
</linearGradient>
</defs>
</svg>
