<svg width="70" height="64" viewBox="0 0 70 64" fill="none" xmlns="http://www.w3.org/2000/svg">
<g id="Group 48095516">
<g id="Group 5">
<path id="Subtract" fill-rule="evenodd" clip-rule="evenodd" d="M46.9764 7.86751C39.7975 5.07017 35.7448 3.67149 34.4711 3.32183C33.1974 3.67149 29.1448 5.07017 21.9658 7.86751C18.5033 9.13921 15.9484 10.1825 14.1788 10.9051C13.7589 11.0766 13.3831 11.23 13.05 11.3642C14.3045 16.3579 15.7837 26.4398 14.7216 43.1133H12.6156C14.277 18.4284 10.1553 9.26618 10.1553 9.26618C10.1553 9.26618 13.05 8.04233 21.5027 4.7205C30.4185 1.22383 34.4711 0 34.4711 0C34.4711 0 38.6396 1.22383 47.6712 4.7205C56.1238 8.04233 59.0186 9.26618 59.0186 9.26618C59.0186 9.26618 54.8969 18.4284 56.5582 43.1133H54.2258C53.2744 26.4398 54.7518 16.3579 55.8922 11.3642C55.2232 11.1116 54.4334 10.7907 53.4955 10.4096C51.8362 9.73532 49.7135 8.87277 46.9764 7.86751Z" fill="#880202"/>
</g>
<g id="Group 48095510">
<path id="Vector" d="M0.721191 29.4845C5.89783 39.9011 9.75617 45.7538 22.8209 52.1459L22.8252 52.134C8.29461 43.9965 -0.544774 30.7196 8.98237 18.5859C8.06784 37.2302 16.0368 48.3568 34.5758 55.7243C53.1149 48.3568 61.0839 37.2302 60.1693 18.5859C69.6965 30.7196 60.8571 43.9965 46.3265 52.134L46.3308 52.1459C59.3955 45.7538 63.2539 39.9011 68.4304 29.4845C72.992 43.6364 54.9395 51.7295 41.7343 55.4727C51.8459 54.5766 59.5713 50.6985 67.1737 43.2201C66.6683 55.2031 50.1452 57.0944 39.0668 56.8486C46.4275 58.1691 53.4498 57.15 61.4389 53.9263C56.9171 62.4555 45.4607 60.8495 36.4478 57.7884C41.3476 60.1319 46.8406 61.1708 53.4938 61.1945C48.4929 64.9971 42.7933 63.9186 37.6474 61.0796C38.8691 62.0867 40.2753 63.0225 41.8837 63.9186C39.2646 64.2834 37.1245 63.3556 35.5513 61.9043C35.3097 62.8716 34.9714 63.6487 34.576 63.7521C34.1806 63.6487 33.842 62.8716 33.6004 61.9043C32.0272 63.3556 29.8871 64.2834 27.268 63.9186C28.8764 63.0225 30.2826 62.0867 31.5043 61.0796C26.3584 63.9186 20.6588 64.9971 15.6579 61.1945C22.3111 61.1708 27.8041 60.1319 32.7039 57.7884C23.691 60.8495 12.2346 62.4555 7.71275 53.9263C15.7019 57.15 22.7242 58.1691 30.0849 56.8486C19.0065 57.0944 2.48336 55.2031 1.978 43.2201C9.58038 50.6985 17.3058 54.5766 27.4174 55.4727C14.2122 51.7295 -3.84023 43.6364 0.721191 29.4845Z" fill="#880202"/>
<path id="Vector_2" d="M34.5762 52.5703L37.5606 57.6738L34.5762 62.7773L31.5918 57.6738L34.5762 52.5703Z" fill="#880202"/>
</g>
<g id="Group 48095515">
<path id="Vector_3" d="M51.2595 40.5003L49.9083 25.0132C49.8968 24.8448 49.7629 24.7108 49.5983 24.6879L48.4729 24.5348L47.9868 23.7539C47.9868 23.7539 45.07 22.0391 40.0787 22.0391C35.0873 22.0391 34.5437 23.5434 34.5437 23.5434C34.5437 23.5434 34.004 22.0391 29.0126 22.0391C24.0213 22.0391 21.1045 23.7539 21.1045 23.7539L20.6184 24.5348L19.4892 24.6879C19.3208 24.7108 19.1945 24.8448 19.1792 25.0132L17.8241 40.5003C17.8241 40.5118 17.8203 40.5194 17.8203 40.5309C17.8203 40.6266 17.8586 40.7185 17.9237 40.7874C17.9887 40.8563 18.0844 40.8945 18.1801 40.8945H18.2031L32.7256 39.9146C32.9629 40.152 33.5026 40.5347 34.5361 40.5347C35.5734 40.5347 36.1093 40.152 36.3466 39.9146L50.8691 40.8945H50.8959C50.9916 40.8945 51.0834 40.8563 51.1523 40.7874C51.2174 40.7223 51.2557 40.6304 51.2557 40.5347C51.2595 40.5233 51.2595 40.5118 51.2595 40.5003ZM18.85 34.2457C18.804 34.7204 18.7619 35.1912 18.7198 35.6429C18.6318 36.55 18.5438 37.396 18.4634 38.1194C18.3868 38.8429 18.3141 39.4477 18.2643 39.8725C18.2146 40.2936 18.1839 40.5347 18.1839 40.5347C18.1839 40.5347 18.1954 40.2936 18.2184 39.8687C18.2452 39.4438 18.2758 38.839 18.3256 38.1118C18.3753 37.3845 18.4366 36.5347 18.5055 35.6276C18.5438 35.1721 18.582 34.7051 18.6165 34.2266C18.6586 33.752 18.6969 33.2658 18.739 32.7797C18.7849 32.2974 18.827 31.8113 18.8691 31.3367C18.915 30.862 18.961 30.3912 19.0031 29.9395C19.0911 29.0324 19.1753 28.1864 19.2557 27.463C19.3323 26.7395 19.4088 26.1348 19.4548 25.7099C19.5045 25.2888 19.5351 25.0477 19.5351 25.0477C19.5351 25.0477 19.5237 25.2888 19.4969 25.7137C19.4701 26.1386 19.4394 26.7434 19.3897 27.4706C19.3438 28.1979 19.2787 29.0477 19.2098 29.9548C19.1715 30.4103 19.1371 30.8773 19.0988 31.3558C19.0567 31.8304 19.0184 32.3166 18.9763 32.8027C18.938 33.285 18.8921 33.7673 18.85 34.2457ZM50.827 39.8687C50.7849 39.4477 50.7236 38.8429 50.6547 38.1156C50.5858 37.3883 50.5054 36.5424 50.4174 35.6352C50.337 34.728 50.249 33.7596 50.1609 32.7912C50.0806 31.8228 49.9964 30.8582 49.9198 29.9472C49.8471 29.04 49.782 28.1941 49.7208 27.4668C49.6633 26.7395 49.6212 26.1348 49.5868 25.7099C49.5638 25.3654 49.5485 25.1434 49.5447 25.0706C49.5523 25.1395 49.5753 25.3654 49.6098 25.7099C49.6519 26.1309 49.7131 26.7357 49.7858 27.463C49.8547 28.1864 49.9351 29.0362 50.0232 29.9434C50.1035 30.8505 50.1916 31.819 50.2796 32.7874C50.36 33.7558 50.4442 34.7242 50.5208 35.6314C50.5935 36.5386 50.6624 37.3845 50.7198 38.1118C50.7734 38.839 50.8193 39.4438 50.8499 39.8687C50.8729 40.1864 50.8882 40.4008 50.892 40.4888C50.8844 40.4008 50.8614 40.1864 50.827 39.8687Z" fill="#880202"/>
<g id="Group">
<path id="Vector_4" d="M51.2593 40.5003L49.9081 25.0132C49.8966 24.8448 49.7626 24.7108 49.598 24.6879L48.4727 24.5348L47.9866 23.7539C47.9866 23.7539 45.0698 22.0391 40.0784 22.0391C35.0871 22.0391 34.5435 23.5434 34.5435 23.5434C34.5435 23.5434 34.0038 22.0391 29.0124 22.0391C24.021 22.0391 21.1043 23.7539 21.1043 23.7539L20.6182 24.5348L19.489 24.6879C19.3206 24.7108 19.1942 24.8448 19.1789 25.0132L17.8239 40.5003C17.8239 40.5118 17.8201 40.5194 17.8201 40.5309C17.8201 40.6266 17.8584 40.7185 17.9234 40.7874C17.9885 40.8563 18.0842 40.8945 18.1799 40.8945H18.2029L32.7253 39.9146C32.9627 40.152 33.5024 40.5347 34.5359 40.5347C35.5732 40.5347 36.1091 40.152 36.3464 39.9146L50.8689 40.8945H50.8956C50.9913 40.8945 51.0832 40.8563 51.1521 40.7874C51.2172 40.7223 51.2555 40.6304 51.2555 40.5347C51.2593 40.5233 51.2593 40.5118 51.2593 40.5003ZM34.5014 38.64H34.5741L34.6392 38.6438C34.6851 38.6477 34.7387 38.6515 34.7847 38.6553C34.8804 38.6668 34.9722 38.6859 35.0641 38.7166C35.244 38.774 35.3971 38.8811 35.4966 38.9883C35.5961 39.0917 35.6536 39.195 35.6957 39.2639C35.7339 39.3328 35.7531 39.3788 35.7531 39.3788C35.7531 39.3788 35.711 39.3558 35.6421 39.3137C35.5732 39.2716 35.4775 39.2103 35.3665 39.1529C35.3129 39.1223 35.2516 39.0955 35.1866 39.0764C35.1215 39.0534 35.0526 39.0381 34.9799 39.0266C34.911 39.0151 34.8306 39.0113 34.7502 39.0036C34.7081 38.9998 34.6698 38.9998 34.6315 38.9998H34.5052C34.3406 39.0036 34.1875 39.0151 34.0459 39.0611C33.9081 39.0993 33.7665 39.1644 33.6402 39.218C33.51 39.2677 33.399 39.3022 33.3225 39.3175C33.2421 39.3328 33.1961 39.3405 33.1961 39.3405C33.1961 39.3405 33.2306 39.306 33.2918 39.2563C33.3493 39.2027 33.4335 39.1261 33.533 39.0381C33.6363 38.95 33.7588 38.8429 33.9311 38.7625C34.1071 38.6783 34.31 38.6438 34.5014 38.64ZM18.8497 34.2457C18.8038 34.7204 18.7617 35.1912 18.7196 35.6429C18.6316 36.55 18.5435 37.396 18.4631 38.1194C18.3866 38.8429 18.3139 39.4477 18.2641 39.8725C18.2143 40.2936 18.1837 40.5347 18.1837 40.5347C18.1837 40.5347 18.1952 40.2936 18.2182 39.8687C18.245 39.4438 18.2756 38.839 18.3253 38.1118C18.3751 37.3845 18.4364 36.5347 18.5053 35.6276C18.5435 35.1721 18.5818 34.7051 18.6163 34.2266C18.6584 33.752 18.6966 33.2658 18.7387 32.7797C18.7847 32.2974 18.8268 31.8113 18.8689 31.3367C18.9148 30.862 18.9608 30.3912 19.0029 29.9395C19.0909 29.0324 19.1751 28.1864 19.2555 27.463C19.332 26.7395 19.4086 26.1348 19.4545 25.7099C19.5043 25.2888 19.5349 25.0477 19.5349 25.0477C19.5349 25.0477 19.5234 25.2888 19.4966 25.7137C19.4698 26.1386 19.4392 26.7434 19.3895 27.4706C19.3435 28.1979 19.2785 29.0477 19.2096 29.9548C19.1713 30.4103 19.1368 30.8773 19.0986 31.3558C19.0564 31.8304 19.0182 32.3166 18.9761 32.8027C18.9378 33.285 18.8919 33.7673 18.8497 34.2457ZM20.1627 25.729L21.2727 23.9376C21.6746 23.7194 24.488 22.284 29.0086 22.284C33.2918 22.284 34.1799 23.4056 34.3024 23.6046V37.9204C33.8469 37.5721 32.6335 36.9443 29.8545 36.9443C26.555 36.9443 21.4373 38.3108 20.0363 38.7051L21.0852 24.7606L19.6689 38.8122C19.6421 38.8582 19.3014 39.3596 19.0297 39.7424L20.1627 25.729ZM32.6488 39.0534C30.3981 39.195 22.2029 39.7079 19.5234 39.8764C19.7493 39.7845 19.9789 39.7233 19.9789 39.7233C19.9789 39.7233 19.7263 39.7003 19.4622 39.7118C19.4201 39.7156 19.378 39.7156 19.3397 39.7194C19.466 39.5395 19.6268 39.3099 19.822 39.0189C20.1703 38.9194 21.5828 38.5213 23.355 38.1194C23.0411 38.2113 22.7387 38.3032 22.4631 38.3835C21.8698 38.5749 21.3761 38.7433 21.0277 38.8582C20.7483 38.9577 20.5684 39.0189 20.5072 39.0419C20.5684 39.0266 20.7521 38.9807 21.0392 38.9041C21.3914 38.8084 21.8928 38.6706 22.4976 38.5175C23.0985 38.3529 23.8029 38.173 24.5646 38.0046C25.3225 37.8285 26.1378 37.6716 26.9607 37.5644C27.3703 37.507 27.7837 37.4611 28.1856 37.4266C28.5914 37.396 28.9933 37.3768 29.3799 37.3768C30.1569 37.3654 30.8804 37.4151 31.4966 37.4993C32.1129 37.5797 32.622 37.6907 32.9703 37.7864C33.1464 37.8285 33.2842 37.8706 33.376 37.8974C33.4717 37.9242 33.5215 37.9395 33.5215 37.9395C33.5215 37.9395 33.4717 37.9204 33.3837 37.8859C33.2918 37.8515 33.1579 37.7941 32.9856 37.7405C32.6373 37.6218 32.1359 37.4802 31.5158 37.3654C31.0603 37.285 30.5397 37.2237 29.9847 37.1893C33.066 37.2123 34.0918 38.0352 34.3024 38.2419V38.2687C33.9311 38.3453 33.5866 38.5864 33.3531 38.7931L31.8258 38.9845L32.6488 39.0534ZM36.1014 39.6697C36.067 39.7079 36.0248 39.75 35.9674 39.796C35.9138 39.8419 35.8488 39.8917 35.776 39.9338C35.6995 39.9797 35.6153 40.0218 35.5196 40.0601C35.4277 40.0984 35.3282 40.129 35.221 40.1558C35.1674 40.1711 35.1138 40.1788 35.0564 40.1864C34.999 40.1979 34.9454 40.2055 34.888 40.2094C34.7693 40.2247 34.6583 40.2247 34.5435 40.2323C34.4249 40.2247 34.31 40.2247 34.1952 40.2094C34.1378 40.2055 34.0804 40.1979 34.0268 40.1864C33.9694 40.1749 33.9158 40.1711 33.8622 40.152C33.755 40.129 33.6555 40.0945 33.5598 40.0563C33.4679 40.018 33.3837 39.9759 33.3071 39.93C33.2306 39.8878 33.1655 39.8381 33.1119 39.7922C33.0583 39.7462 33.0124 39.7041 32.9818 39.6658C32.9205 39.6008 32.8938 39.551 32.8899 39.5395C32.8976 39.551 32.932 39.5931 32.9971 39.6505C33.0737 39.7156 33.1885 39.7998 33.3416 39.8725C33.4182 39.9108 33.5024 39.9414 33.5942 39.9721C33.6861 40.0027 33.7856 40.0295 33.889 40.0486C33.9923 40.0716 34.0995 40.0869 34.2105 40.0945C34.3215 40.106 34.4363 40.106 34.5435 40.1099C34.6583 40.106 34.777 40.106 34.8842 40.0945C34.9952 40.0869 35.1024 40.0716 35.2019 40.0486C35.3052 40.0256 35.4048 40.0027 35.4966 39.9721C35.5885 39.9414 35.6727 39.907 35.7493 39.8725C35.8985 39.796 36.0172 39.7156 36.0899 39.6505C36.1473 39.6008 36.1818 39.5625 36.1933 39.5472C36.178 39.5701 36.1512 39.6122 36.1014 39.6697ZM48.9971 39.8381C45.843 39.639 38.3674 39.1721 36.3617 39.0457L37.7052 38.8352L35.7301 38.7893C35.4928 38.5864 35.1521 38.3414 34.777 38.2649V38.2381C34.9684 38.0505 35.7952 37.3883 38.111 37.2199C37.7971 37.2658 37.4985 37.3233 37.2306 37.3845C36.6794 37.5223 36.2354 37.6869 35.933 37.8132C35.7799 37.8745 35.665 37.9319 35.5847 37.9701C35.5043 38.0084 35.4622 38.0276 35.4622 38.0276C35.4622 38.0276 35.5081 38.0122 35.5923 37.9816C35.6727 37.9548 35.7952 37.9051 35.9521 37.8591C36.2622 37.7558 36.7138 37.618 37.2612 37.5185C37.8086 37.4151 38.4593 37.3347 39.1559 37.3347C39.8526 37.3194 40.599 37.373 41.3378 37.4649C42.0803 37.5453 42.8153 37.6792 43.5004 37.8285C44.1894 37.9663 44.8248 38.1233 45.3684 38.2649C45.9157 38.3989 46.3713 38.5175 46.689 38.6017C46.9646 38.6706 47.1406 38.7166 47.1789 38.7242C47.1406 38.7089 46.9722 38.6515 46.7004 38.5558C46.3904 38.4524 45.9425 38.3032 45.4067 38.1347C45.0392 38.0237 44.6296 37.9051 44.1894 37.7864C46.6354 38.2687 48.8248 38.885 49.2689 39.0113C49.4794 39.3213 49.6401 39.5587 49.7741 39.7462L47.6842 39.4323L48.9971 39.8381ZM49.4717 38.8888L48.0478 24.7568L49.0966 38.7127C47.7684 38.3414 42.5665 36.9405 39.2325 36.9405C36.4497 36.9405 35.2402 37.5682 34.7808 37.9166V23.6008C34.8957 23.4094 35.7531 22.2802 40.0746 22.2802C44.5875 22.2802 47.4086 23.7156 47.8105 23.9338L48.9205 25.7252L50.0612 39.7347C49.843 39.4362 49.5866 39.0534 49.4717 38.8888ZM50.8267 39.8687C50.7846 39.4477 50.7234 38.8429 50.6545 38.1156C50.5856 37.3883 50.5052 36.5424 50.4172 35.6352C50.3368 34.728 50.2488 33.7596 50.1607 32.7912C50.0803 31.8228 49.9961 30.8582 49.9196 29.9472C49.8468 29.04 49.7818 28.1941 49.7205 27.4668C49.6631 26.7395 49.621 26.1348 49.5866 25.7099C49.5636 25.3654 49.5483 25.1434 49.5445 25.0706C49.5521 25.1395 49.5751 25.3654 49.6095 25.7099C49.6516 26.1309 49.7129 26.7357 49.7856 27.463C49.8545 28.1864 49.9349 29.0362 50.0229 29.9434C50.1033 30.8505 50.1913 31.819 50.2794 32.7874C50.3598 33.7558 50.444 34.7242 50.5205 35.6314C50.5933 36.5386 50.6622 37.3845 50.7196 38.1118C50.7732 38.839 50.8191 39.4438 50.8497 39.8687C50.8727 40.1864 50.888 40.4008 50.8918 40.4888C50.8842 40.4008 50.8612 40.1864 50.8267 39.8687Z" fill="white"/>
<path id="Vector_5" d="M40.3165 38.2685C42.7662 38.4445 47.3212 39.0608 47.3212 39.0608C40.5691 37.3881 38.3145 37.5642 36.0447 38.146C36.0447 38.146 37.8629 38.0924 40.3165 38.2685Z" fill="white"/>
<path id="Vector_6" d="M32.7906 38.1559C30.758 37.62 28.0671 37.4631 22.0193 39.0401C22.0193 39.0401 26.7695 38.4506 28.9628 38.2822C31.16 38.1138 32.7906 38.1559 32.7906 38.1559Z" fill="white"/>
<path id="Vector_7" d="M45.9796 39.2371C45.5585 39.1644 45.0686 39.084 44.5403 39.0036C44.0121 38.9309 43.4456 38.862 42.8791 38.8008C42.3126 38.751 41.7422 38.7051 41.2102 38.6706C40.6781 38.6438 40.1767 38.6247 39.7518 38.6132C39.3231 38.6094 38.9671 38.6094 38.7183 38.6094C38.4695 38.6132 38.3279 38.617 38.3279 38.617C38.3279 38.617 38.4695 38.6323 38.7183 38.6553C38.9671 38.6744 39.3193 38.7051 39.7442 38.7472C40.169 38.7816 40.6628 38.8276 41.1949 38.8773C41.7269 38.9233 42.2896 38.9768 42.8561 39.0419C43.4226 39.0955 43.9853 39.1529 44.5135 39.2142C45.0418 39.2677 45.5394 39.3213 45.9604 39.3749C46.3853 39.417 46.7375 39.4591 46.9863 39.4898C47.2351 39.5166 47.3767 39.5319 47.3767 39.5319C47.3767 39.5319 47.2389 39.5012 46.9939 39.4438C46.7489 39.3864 46.4006 39.3175 45.9796 39.2371Z" fill="white"/>
<path id="Vector_8" d="M31.8931 38.4844C31.6367 38.4882 31.3343 38.4959 31.0128 38.4997C30.6912 38.515 30.3467 38.5303 30.0022 38.5456C29.6577 38.5724 29.3171 38.5992 28.9955 38.6222C28.674 38.6566 28.3754 38.6872 28.119 38.7102C27.8625 38.7447 27.6482 38.7715 27.4989 38.7906C27.3496 38.8136 27.2654 38.8289 27.2654 38.8289C27.2654 38.8289 27.3534 38.8327 27.5027 38.8365C27.652 38.8365 27.8702 38.8404 28.1266 38.8442C28.3831 38.8404 28.6855 38.8327 29.007 38.8289C29.3286 38.8136 29.673 38.7982 30.0175 38.7829C30.362 38.7561 30.7027 38.7294 31.0242 38.7064C31.3458 38.6719 31.6443 38.6413 31.9008 38.6183C32.1573 38.5839 32.3716 38.5571 32.5209 38.538C32.6702 38.515 32.7544 38.4997 32.7544 38.4997C32.7544 38.4997 32.6663 38.4959 32.5171 38.492C32.3678 38.492 32.1496 38.4882 31.8931 38.4844Z" fill="white"/>
<path id="Vector_9" d="M21.7888 39.5135C22.0184 39.5021 22.2864 39.4868 22.5696 39.4714C22.8567 39.4485 23.1591 39.4217 23.4653 39.3987C23.7677 39.3643 24.0701 39.326 24.3572 39.2954C24.6404 39.2533 24.9045 39.215 25.1304 39.1805C25.3562 39.1384 25.5438 39.104 25.6777 39.081C25.8079 39.0542 25.8844 39.0351 25.8844 39.0351C25.8844 39.0351 25.8079 39.0351 25.6739 39.0312C25.54 39.0351 25.3486 39.0389 25.1189 39.0427C24.8892 39.0542 24.6213 39.0695 24.338 39.0848C24.051 39.1078 23.7486 39.1346 23.4423 39.1576C23.14 39.192 22.8376 39.2303 22.5505 39.2647C22.2672 39.3068 22.0031 39.3451 21.7773 39.3796C21.5514 39.4217 21.3639 39.4561 21.2299 39.4791C21.0998 39.5059 21.0232 39.525 21.0232 39.525C21.0232 39.525 21.0998 39.525 21.2337 39.5289C21.3677 39.5212 21.5591 39.5174 21.7888 39.5135Z" fill="white"/>
<path id="Vector_10" d="M48.4006 26.2192C48.4236 26.5713 48.4503 27.0728 48.4925 27.6737C48.5346 28.2747 48.5881 28.979 48.6494 29.7292C48.68 30.1043 48.7145 30.4948 48.7489 30.889C48.7834 31.2833 48.8216 31.6852 48.8561 32.0833C48.8944 32.4852 48.9326 32.8833 48.9709 33.2775C49.013 33.6718 49.0513 34.0584 49.0896 34.4335C49.17 35.1837 49.2465 35.8842 49.3192 36.4814C49.3881 37.0823 49.457 37.5799 49.4992 37.9282C49.5451 38.2766 49.5757 38.4756 49.5757 38.4756C49.5757 38.4756 49.5681 38.2727 49.5489 37.9244C49.5259 37.5723 49.503 37.0708 49.457 36.4699C49.4149 35.8689 49.3614 35.1646 49.3001 34.4144C49.2695 34.0393 49.235 33.6488 49.2006 33.2546C49.1661 32.8603 49.1279 32.4584 49.0934 32.0603C49.0551 31.6584 49.0169 31.2603 48.9786 30.8661C48.9365 30.4718 48.8982 30.0852 48.8599 29.7101C48.7795 28.9598 48.703 28.2594 48.6303 27.6622C48.5614 27.0613 48.4925 26.5637 48.4503 26.2153C48.4044 25.867 48.3738 25.668 48.3738 25.668C48.3738 25.668 48.3814 25.8708 48.4006 26.2192Z" fill="white"/>
<path id="Vector_11" d="M48.9236 29.0033C48.958 29.4703 48.9963 30.0138 49.0423 30.5918C49.0882 31.1736 49.1456 31.7937 49.203 32.4138C49.2643 33.0339 49.3217 33.654 49.3829 34.232C49.4442 34.8138 49.5092 35.3535 49.559 35.8167C49.6088 36.2798 49.6662 36.6664 49.6968 36.9382C49.7351 37.21 49.7542 37.3631 49.7542 37.3631C49.7542 37.3631 49.7466 37.2061 49.7312 36.9344C49.7121 36.6626 49.693 36.2722 49.6585 35.809C49.6241 35.342 49.5858 34.7985 49.5399 34.2205C49.4939 33.6387 49.4365 33.0186 49.3791 32.3985C49.3178 31.7784 49.2604 31.1583 49.1992 30.5803C49.1379 29.9985 49.0729 29.4588 49.0231 28.9956C48.9695 28.5325 48.9159 28.1459 48.8853 27.8741C48.847 27.6023 48.8279 27.4492 48.8279 27.4492C48.8279 27.4492 48.8356 27.6062 48.8509 27.8779C48.8662 28.1497 48.8853 28.5401 48.9236 29.0033Z" fill="white"/>
<path id="Vector_12" d="M20.4804 27.6622C20.4077 28.2594 20.3311 28.9598 20.2507 29.7101C20.2124 30.0852 20.1742 30.4718 20.1321 30.8661C20.0938 31.2603 20.0555 31.6584 20.0172 32.0603C19.9828 32.4622 19.9445 32.8603 19.91 33.2546C19.8756 33.6488 19.845 34.0354 19.8105 34.4144C19.7493 35.1646 19.6957 35.8689 19.6536 36.4699C19.6115 37.0708 19.5847 37.5723 19.5617 37.9244C19.5426 38.2766 19.5349 38.4756 19.5349 38.4756C19.5349 38.4756 19.5655 38.2766 19.6115 37.9282C19.6536 37.5799 19.7225 37.0823 19.7914 36.4814C19.8641 35.8842 19.9407 35.1837 20.0211 34.4335C20.0593 34.0584 20.0976 33.6718 20.1397 33.2775C20.178 32.8833 20.2163 32.4852 20.2545 32.0833C20.289 31.6814 20.3273 31.2833 20.3617 30.889C20.3962 30.4948 20.4268 30.1082 20.4612 29.7292C20.5225 28.979 20.5761 28.2747 20.6182 27.6737C20.6603 27.0728 20.6871 26.5713 20.71 26.2192C20.7292 25.867 20.7368 25.668 20.7368 25.668C20.7368 25.668 20.7062 25.867 20.6603 26.2153C20.6182 26.5675 20.5493 27.0651 20.4804 27.6622Z" fill="white"/>
<path id="Vector_13" d="M19.7226 34.2398C19.7839 33.658 19.8451 33.0417 19.9025 32.4216C19.9599 31.8015 20.0174 31.1814 20.0633 30.5996C20.1131 30.0178 20.1475 29.4743 20.182 29.0111C20.2164 28.5441 20.2355 28.1575 20.2547 27.8857C20.27 27.614 20.2776 27.457 20.2776 27.457C20.2776 27.457 20.2585 27.6101 20.2202 27.8819C20.1858 28.1537 20.1322 28.5365 20.0824 29.0034C20.0327 29.4666 19.9638 30.0063 19.9064 30.5881C19.8451 31.1699 19.7839 31.7862 19.7265 32.4063C19.669 33.0264 19.6116 33.6465 19.5657 34.2283C19.5159 34.8101 19.4815 35.3537 19.447 35.8168C19.4126 36.2838 19.3934 36.6704 19.3743 36.9422C19.359 37.214 19.3513 37.3709 19.3513 37.3709C19.3513 37.3709 19.3705 37.2178 19.4087 36.946C19.4432 36.6742 19.4968 36.2915 19.5465 35.8245C19.5963 35.3575 19.6652 34.8178 19.7226 34.2398Z" fill="white"/>
<path id="Vector_14" d="M33.7278 32.6762C33.7316 33.0514 33.7431 33.4112 33.7508 33.7557C33.7584 34.1002 33.7699 34.4217 33.7814 34.7241C33.8235 35.9222 33.8848 36.7222 33.8848 36.7222C33.8848 36.7222 33.946 35.9222 33.9881 34.7241C33.9996 34.4255 34.0111 34.1002 34.0187 33.7557C34.0264 33.4112 34.0379 33.0514 34.0417 32.6762C34.0455 32.3011 34.057 31.9145 34.057 31.5203C34.0608 31.126 34.0608 30.7279 34.0647 30.3298C34.0608 29.9318 34.0608 29.5298 34.057 29.1394C34.057 28.7452 34.0455 28.3585 34.0417 27.9834C34.0302 27.2332 34.0111 26.5365 33.9881 25.9356C33.946 24.7375 33.8848 23.9375 33.8848 23.9375C33.8848 23.9375 33.8235 24.7375 33.7814 25.9356C33.7584 26.5327 33.7393 27.2332 33.7278 27.9834C33.724 28.3585 33.7125 28.7452 33.7125 29.1394C33.7087 29.5337 33.7087 29.9318 33.7048 30.3298C33.7087 30.7279 33.7087 31.1298 33.7125 31.5203C33.7125 31.9145 33.724 32.3011 33.7278 32.6762Z" fill="white"/>
<path id="Vector_15" d="M33.3139 32.1426C33.3216 32.7206 33.3369 33.2641 33.3522 33.7273C33.3675 34.1905 33.3866 34.5771 33.3981 34.8488C33.4096 35.1206 33.4211 35.2737 33.4211 35.2737C33.4211 35.2737 33.4326 35.1206 33.4441 34.8488C33.4555 34.5771 33.4747 34.1905 33.49 33.7273C33.5053 33.2641 33.5168 32.7244 33.5283 32.1426C33.5321 31.8517 33.5359 31.5531 33.5397 31.2507C33.5397 30.9484 33.5436 30.6383 33.5436 30.3283C33.5436 30.0182 33.5397 29.712 33.5397 29.4058C33.5397 29.1034 33.5321 28.801 33.5283 28.5139C33.5206 27.9359 33.5053 27.3924 33.49 26.9292C33.4747 26.4661 33.4555 26.0795 33.4441 25.8077C33.4326 25.5359 33.4211 25.3828 33.4211 25.3828C33.4211 25.3828 33.4096 25.5359 33.3981 25.8077C33.3866 26.0795 33.3675 26.4661 33.3522 26.9292C33.3369 27.3924 33.3254 27.9321 33.3139 28.5139C33.3101 28.8048 33.3024 29.1034 33.3024 29.4058C33.3024 29.7082 33.2986 30.0182 33.2986 30.3283C33.2986 30.6383 33.3024 30.9445 33.3024 31.2507C33.3063 31.5531 33.3101 31.8517 33.3139 32.1426Z" fill="white"/>
<path id="Vector_16" d="M21.862 25.3828C21.862 25.3828 21.8467 25.5359 21.8237 25.8077C21.8007 26.0795 21.7663 26.4622 21.7318 26.9254C21.6974 27.3886 21.6514 27.9283 21.6132 28.5063C21.5749 29.0842 21.5328 29.7043 21.4907 30.3206C21.4562 30.9407 21.418 31.557 21.3835 32.135C21.3491 32.7129 21.3261 33.2565 21.3031 33.7196C21.284 34.1828 21.2648 34.5694 21.2534 34.8412C21.2457 35.1129 21.2381 35.2661 21.2381 35.2661C21.2381 35.2661 21.2534 35.1129 21.2763 34.8412C21.2993 34.5694 21.3299 34.1866 21.3682 33.7235C21.4026 33.2603 21.4486 32.7206 21.4869 32.1426C21.5251 31.5646 21.5672 30.9445 21.6093 30.3283C21.6438 29.7082 21.6821 29.0919 21.7165 28.5139C21.751 27.9359 21.7739 27.3924 21.7969 26.9292C21.8199 26.4661 21.8314 26.0795 21.8467 25.8077C21.8543 25.5359 21.862 25.3828 21.862 25.3828Z" fill="white"/>
<path id="Vector_17" d="M35.0893 32.6724C35.097 33.4227 35.1123 34.1193 35.1276 34.7203C35.1429 35.3174 35.162 35.8188 35.1735 36.1672C35.185 36.5155 35.1965 36.7145 35.1965 36.7145C35.1965 36.7145 35.208 36.5155 35.2194 36.1672C35.2309 35.8188 35.2501 35.3174 35.2654 34.7203C35.2807 34.1231 35.2922 33.4227 35.3037 32.6724C35.3075 32.2973 35.3113 31.9107 35.3151 31.5164C35.3151 31.1222 35.319 30.7241 35.319 30.326C35.319 29.9279 35.3151 29.526 35.3151 29.1356C35.3113 28.7413 35.3075 28.3547 35.3037 27.9796C35.296 27.2294 35.2807 26.5327 35.2654 25.9318C35.2501 25.3346 35.2309 24.8332 35.2194 24.4849C35.208 24.1365 35.1965 23.9375 35.1965 23.9375C35.1965 23.9375 35.185 24.1365 35.1735 24.4849C35.162 24.8332 35.1429 25.3346 35.1276 25.9318C35.1123 26.5289 35.1008 27.2294 35.0893 27.9796C35.0855 28.3547 35.0816 28.7413 35.0778 29.1356C35.0778 29.5298 35.074 29.9279 35.074 30.326C35.074 30.7241 35.0778 31.126 35.0778 31.5164C35.0816 31.9107 35.0855 32.2973 35.0893 32.6724Z" fill="white"/>
<path id="Vector_18" d="M35.5949 33.9019C35.6026 34.388 35.6102 34.7976 35.6179 35.0808C35.6255 35.3641 35.6294 35.5287 35.6294 35.5287C35.6294 35.5287 35.6332 35.3679 35.6409 35.0808C35.6447 34.7976 35.6523 34.388 35.6638 33.9019C35.6677 33.4157 35.6791 32.8454 35.683 32.233C35.6868 31.6244 35.6868 30.9736 35.6906 30.3229C35.6868 29.6722 35.6868 29.0215 35.683 28.4129C35.6791 27.8043 35.6677 27.2339 35.6638 26.744C35.6562 26.2579 35.6485 25.8483 35.6409 25.565C35.6332 25.2818 35.6294 25.1172 35.6294 25.1172C35.6294 25.1172 35.6255 25.278 35.6179 25.565C35.6141 25.8483 35.6064 26.2579 35.5949 26.744C35.5911 27.2301 35.5796 27.8004 35.5758 28.4129C35.572 29.0215 35.572 29.6722 35.5681 30.3229C35.572 30.9736 35.572 31.6244 35.5758 32.233C35.5796 32.8454 35.5911 33.4157 35.5949 33.9019Z" fill="white"/>
<path id="Vector_19" d="M22.3752 26.3419C22.3369 26.8854 22.2871 27.517 22.245 28.1945C22.2029 28.872 22.157 29.5954 22.1111 30.3189C22.069 31.0423 22.0307 31.7658 21.9924 32.4471C21.958 33.1246 21.9273 33.76 21.9005 34.3036C21.8776 34.8471 21.8584 35.2988 21.8431 35.6165C21.8316 35.9342 21.824 36.1141 21.824 36.1141C21.824 36.1141 21.8393 35.9342 21.8661 35.6165C21.8891 35.2988 21.9235 34.8471 21.9656 34.3074C22.0039 33.7639 22.046 33.1323 22.0958 32.4548C22.1379 31.7773 22.1838 31.0538 22.2297 30.3304C22.2718 29.6069 22.3101 28.8835 22.3484 28.2021C22.3867 27.5246 22.4135 26.8892 22.4403 26.3457C22.4632 25.8021 22.4824 25.3505 22.4977 25.0328C22.5092 24.7151 22.5168 24.5352 22.5168 24.5352C22.5168 24.5352 22.5015 24.7151 22.4747 25.0328C22.4517 25.3505 22.4173 25.8021 22.3752 26.3419Z" fill="white"/>
<path id="Vector_20" d="M47.3672 33.7196C47.3442 33.2565 47.3213 32.7129 47.2868 32.135C47.2524 31.557 47.2179 30.9369 47.1797 30.3206C47.1376 29.7043 47.0954 29.0842 47.0572 28.5063C47.0189 27.9283 46.973 27.3886 46.9385 26.9254C46.9041 26.4622 46.8696 26.0756 46.8466 25.8077C46.8237 25.5359 46.8084 25.3828 46.8084 25.3828C46.8084 25.3828 46.8122 25.5359 46.8237 25.8077C46.8352 26.0795 46.8466 26.4661 46.8734 26.9292C46.8964 27.3924 46.9194 27.9359 46.9538 28.5139C46.9883 29.0919 47.0227 29.712 47.061 30.3283C47.1031 30.9445 47.1452 31.5646 47.1835 32.1426C47.2218 32.7206 47.2677 33.2603 47.3021 33.7235C47.3404 34.1866 47.371 34.5732 47.394 34.8412C47.417 35.1129 47.4323 35.2661 47.4323 35.2661C47.4323 35.2661 47.4285 35.1129 47.417 34.8412C47.4055 34.5694 47.3864 34.1828 47.3672 33.7196Z" fill="white"/>
<path id="Vector_21" d="M46.2306 26.3457C46.2574 26.8892 46.2842 27.5208 46.3225 28.2021C46.3608 28.8797 46.4029 29.6031 46.4411 30.3304C46.4871 31.0538 46.533 31.7773 46.5751 32.4548C46.6211 33.1323 46.667 33.7639 46.7053 34.3074C46.7474 34.8509 46.7818 35.3026 46.8048 35.6165C46.8316 35.9342 46.8469 36.1141 46.8469 36.1141C46.8469 36.1141 46.8392 35.9342 46.8278 35.6165C46.8124 35.2988 46.7933 34.8471 46.7703 34.3036C46.7435 33.76 46.7129 33.1285 46.6785 32.4471C46.6402 31.7696 46.5981 31.0462 46.5598 30.3189C46.5139 29.5954 46.4679 28.872 46.4258 28.1945C46.3837 27.517 46.334 26.8854 46.2957 26.3419C46.2536 25.7983 46.2191 25.3466 46.1962 25.0328C46.1694 24.7151 46.1541 24.5352 46.1541 24.5352C46.1541 24.5352 46.1617 24.7151 46.1732 25.0328C46.1847 25.3505 46.2077 25.8021 46.2306 26.3457Z" fill="white"/>
</g>
</g>
</g>
</svg>
