<svg width="321" height="321" viewBox="0 0 321 321" fill="none" xmlns="http://www.w3.org/2000/svg">
<path d="M263.6 79.137C264.252 78.999 264.848 78.6704 265.312 78.193C265.258 78.458 265.189 78.7198 265.105 78.977C264.977 79.409 265.456 79.537 265.616 79.265C266.182 78.4249 266.406 77.4003 266.24 76.401C266.232 76.3066 266.197 76.2165 266.139 76.1415C266.081 76.0664 266.003 76.0096 265.914 75.9776C265.825 75.9456 265.728 75.9399 265.636 75.961C265.543 75.9822 265.459 76.0294 265.392 76.097C264.72 76.913 264.592 78.065 263.457 78.417C263.367 78.4415 263.289 78.4992 263.24 78.5785C263.191 78.6578 263.174 78.7528 263.192 78.8442C263.211 78.9356 263.263 79.0167 263.339 79.071C263.414 79.1254 263.508 79.1489 263.6 79.137ZM260.449 73.745C260.538 73.8023 260.641 73.8347 260.747 73.8385C260.853 73.8424 260.958 73.8177 261.051 73.767C261.145 73.7163 261.222 73.6414 261.277 73.5503C261.331 73.4592 261.36 73.3551 261.361 73.249C261.361 73.121 261.36 72.977 260.592 71.825C260.432 71.585 260.24 71.137 259.824 71.361C259.408 71.585 259.696 72.001 259.921 72.561C260.368 73.745 260.368 73.745 260.449 73.745ZM260.192 70.817C260.976 70.817 261.52 70.817 261.616 71.473C261.629 71.5706 261.68 71.6591 261.758 71.7191C261.836 71.7792 261.935 71.8057 262.033 71.793C262.13 71.7803 262.219 71.7293 262.279 71.6513C262.339 71.5732 262.365 71.4746 262.353 71.377C262.226 70.8586 261.921 70.4013 261.491 70.0854C261.061 69.7694 260.533 69.6149 260.001 69.649C259.874 69.7016 259.769 69.7954 259.702 69.9152C259.636 70.035 259.612 70.1738 259.634 70.309C259.656 70.4442 259.723 70.568 259.825 70.6602C259.926 70.7524 260.056 70.8076 260.192 70.817ZM64.4965 119.585C60.0086 121.756 55.0697 122.831 50.0854 122.723C45.1012 122.614 40.2138 121.325 35.8245 118.961C35.7439 118.912 35.6472 118.897 35.5557 118.92C35.4641 118.942 35.3853 119 35.3365 119.081C35.2877 119.162 35.2729 119.258 35.2954 119.35C35.3179 119.441 35.3759 119.52 35.4565 119.569C44.2245 125.281 57.1045 125.601 64.7365 120.001C64.7917 119.969 64.8319 119.917 64.8484 119.855C64.8649 119.794 64.8563 119.728 64.8245 119.673C64.7927 119.618 64.7402 119.578 64.6787 119.561C64.6172 119.545 64.5517 119.553 64.4965 119.585ZM63.3125 72.145C64.2245 72.513 65.7285 72.145 65.3285 71.297C65.0615 70.6499 64.8734 69.9731 64.7685 69.281C64.7685 69.1834 64.7297 69.0898 64.6607 69.0208C64.5917 68.9518 64.4981 68.913 64.4005 68.913C64.3029 68.913 64.2093 68.9518 64.1403 69.0208C64.0713 69.0898 64.0325 69.1834 64.0325 69.281C64.0229 69.958 64.0873 70.634 64.2245 71.297C64.0062 71.4211 63.7537 71.4716 63.5045 71.441C63.4583 71.4284 63.41 71.425 63.3625 71.431C63.315 71.4371 63.2691 71.4524 63.2275 71.4762C63.1859 71.5 63.1494 71.5317 63.12 71.5696C63.0907 71.6075 63.0691 71.6508 63.0565 71.697C63.0439 71.7432 63.0405 71.7915 63.0466 71.839C63.0526 71.8865 63.0679 71.9324 63.0917 71.974C63.1155 72.0156 63.1472 72.0521 63.1851 72.0815C63.223 72.1108 63.2663 72.1324 63.3125 72.145ZM61.4725 68.641C61.7203 68.0654 61.9235 67.4717 62.0805 66.865C62.0948 66.8093 62.0978 66.7513 62.0894 66.6944C62.081 66.6375 62.0613 66.5829 62.0315 66.5337C62.0017 66.4845 61.9624 66.4418 61.9158 66.408C61.8693 66.3742 61.8165 66.3501 61.7605 66.337C61.2805 66.193 61.2005 66.705 60.9605 67.329C60.8227 67.6394 60.7103 67.9604 60.6245 68.289C60.624 68.3875 60.6528 68.4838 60.7073 68.5659C60.7617 68.6479 60.8394 68.7119 60.9303 68.7496C61.0213 68.7874 61.1214 68.7972 61.218 68.7779C61.3145 68.7585 61.4031 68.7109 61.4725 68.641ZM66.8005 70.145C66.8916 70.185 66.9929 70.1957 67.0903 70.1757C67.1878 70.1556 67.2766 70.1057 67.3445 70.033C67.5899 69.4565 67.7931 68.8629 67.9525 68.257C67.9694 68.2024 67.9748 68.1448 67.9684 68.088C67.962 68.0312 67.944 67.9763 67.9155 67.9268C67.887 67.8772 67.8485 67.8341 67.8026 67.8001C67.7567 67.766 67.7042 67.7418 67.6485 67.729C67.1525 67.585 67.0565 68.161 66.8485 68.705C66.6405 69.249 66.2405 69.921 66.8005 70.145ZM59.1205 73.425C59.6948 73.7125 60.3528 73.7863 60.9765 73.633C61.3765 73.457 61.1045 72.849 60.7205 72.977C60.2978 72.948 59.8923 72.7981 59.5525 72.545C59.336 72.403 59.1497 72.2196 59.0041 72.0055C58.8586 71.7913 58.7568 71.5506 58.7045 71.297C58.5925 70.625 57.5365 70.881 57.6965 71.553C57.7742 71.9534 57.943 72.3306 58.19 72.6552C58.4369 72.9798 58.7553 73.2432 59.1205 73.425ZM172.864 248.577C172.864 248.153 172.696 247.746 172.396 247.446C172.096 247.146 171.689 246.977 171.264 246.977C170.84 246.977 170.433 247.146 170.133 247.446C169.833 247.746 169.664 248.153 169.664 248.577C169.664 249.001 169.833 249.408 170.133 249.708C170.433 250.008 170.84 250.177 171.264 250.177C171.689 250.177 172.096 250.008 172.396 249.708C172.696 249.408 172.864 249.001 172.864 248.577ZM172.832 264.337C173.085 264.361 173.34 264.331 173.581 264.251C173.822 264.171 174.043 264.041 174.231 263.87C174.419 263.699 174.569 263.491 174.671 263.258C174.774 263.026 174.827 262.775 174.827 262.521C174.827 262.267 174.774 262.016 174.671 261.784C174.569 261.551 174.419 261.343 174.231 261.172C174.043 261.001 173.822 260.871 173.581 260.791C173.34 260.711 173.085 260.681 172.832 260.705C172.58 260.681 172.325 260.711 172.084 260.791C171.843 260.871 171.622 261.001 171.434 261.172C171.246 261.343 171.096 261.551 170.993 261.784C170.891 262.016 170.838 262.267 170.838 262.521C170.838 262.775 170.891 263.026 170.993 263.258C171.096 263.491 171.246 263.699 171.434 263.87C171.622 264.041 171.843 264.171 172.084 264.251C172.325 264.331 172.58 264.361 172.832 264.337ZM173.296 277.297C172.861 277.339 172.456 277.541 172.162 277.865C171.867 278.189 171.704 278.611 171.704 279.049C171.704 279.487 171.867 279.909 172.162 280.233C172.456 280.557 172.861 280.759 173.296 280.801C173.732 280.759 174.137 280.557 174.431 280.233C174.726 279.909 174.889 279.487 174.889 279.049C174.889 278.611 174.726 278.189 174.431 277.865C174.137 277.541 173.732 277.339 173.296 277.297ZM163.584 207.809C164.373 211.986 164.907 216.207 165.184 220.449C165.184 220.598 165.243 220.74 165.349 220.845C165.454 220.95 165.596 221.009 165.744 221.009C165.893 221.009 166.035 220.95 166.14 220.845C166.245 220.74 166.304 220.598 166.304 220.449C165.991 216.137 165.333 211.856 164.336 207.649C164.296 207.572 164.231 207.511 164.152 207.475C164.074 207.438 163.985 207.428 163.9 207.446C163.815 207.464 163.739 207.509 163.682 207.575C163.625 207.64 163.591 207.722 163.584 207.809ZM166.624 254.657C166.624 254.547 166.581 254.441 166.503 254.363C166.425 254.285 166.319 254.241 166.208 254.241C166.098 254.241 165.992 254.285 165.914 254.363C165.836 254.441 165.792 254.547 165.792 254.657C165.632 265.617 165.44 291.809 165.536 294.657C165.558 294.783 165.624 294.898 165.722 294.98C165.82 295.063 165.944 295.108 166.072 295.108C166.201 295.108 166.325 295.063 166.423 294.98C166.521 294.898 166.587 294.783 166.608 294.657C166.832 289.489 166.624 257.217 166.624 254.657ZM209.568 144.609C209.585 144.654 209.616 144.692 209.657 144.718C209.697 144.744 209.745 144.756 209.792 144.753C214.017 142.571 217.82 139.657 221.024 136.145C221.07 136.097 221.095 136.034 221.095 135.969C221.095 135.904 221.07 135.841 221.024 135.793C217.36 133.201 207.008 128.897 206.992 130.113C206.911 135.066 207.786 139.988 209.568 144.609ZM91.7765 167.825C93.0728 167.879 94.3533 167.525 95.4381 166.813C96.5229 166.101 97.3575 165.067 97.8245 163.857C98.2565 162.497 98.0965 162.257 96.7845 154.337C97.7412 155.104 98.7459 155.81 99.7925 156.449C100.122 156.576 100.486 156.576 100.816 156.449C101.145 156.323 101.416 156.078 101.575 155.764C101.735 155.449 101.771 155.086 101.679 154.745C101.586 154.405 101.37 154.111 101.073 153.921C98.3959 152.529 96.3401 150.182 95.3125 147.345C95.1685 146.849 93.2965 146.689 92.5925 147.889C92.5925 148.033 95.0405 161.633 95.0725 161.777C95.1768 162.186 95.1768 162.616 95.0725 163.025C94.8348 163.539 94.471 163.984 94.0151 164.32C93.5591 164.656 93.0258 164.871 92.4645 164.945C92.0171 165.033 91.5565 165.032 91.1096 164.941C90.6627 164.85 90.2384 164.67 89.8614 164.414C89.4844 164.157 89.1622 163.828 88.9135 163.445C88.6649 163.063 88.4948 162.635 88.4131 162.186C88.3314 161.738 88.3398 161.277 88.4377 160.832C88.5357 160.386 88.7212 159.965 88.9836 159.592C89.2459 159.218 89.5799 158.901 89.966 158.658C90.3521 158.416 90.7826 158.252 91.2325 158.177C91.6081 158.111 91.9421 157.899 92.1611 157.587C92.3802 157.275 92.4663 156.889 92.4005 156.513C92.3347 156.137 92.1225 155.803 91.8104 155.584C91.4983 155.365 91.112 155.279 90.7365 155.345C89.6265 155.53 88.5849 156.005 87.7169 156.721C86.8489 157.438 86.1851 158.37 85.7925 159.425C85.4322 160.379 85.3122 161.406 85.4431 162.417C85.5741 163.428 85.952 164.391 86.5435 165.221C87.1349 166.052 87.9217 166.724 88.8344 167.178C89.7471 167.632 90.7575 167.854 91.7765 167.825Z" fill="url(#paint0_linear_416_14957)"/>
<path d="M109.505 156.74C109.337 153.507 108.205 150.398 106.254 147.814C104.304 145.231 101.624 143.291 98.5609 142.243C84.7529 137.572 72.0489 153.747 80.2249 166.02C82.1537 168.893 84.9621 171.063 88.2287 172.205C91.4954 173.347 95.0442 173.399 98.343 172.354C101.642 171.308 104.513 169.221 106.525 166.406C108.538 163.591 109.583 160.199 109.505 156.74ZM83.9049 146.5C93.7129 137.476 108.113 144.899 108.497 156.756C108.461 159.776 107.59 162.727 105.98 165.282C104.37 167.838 102.085 169.898 99.3769 171.236C90.4489 175.124 79.6649 168.419 78.9129 158.979C78.7154 156.659 79.0592 154.324 79.9171 152.158C80.775 149.992 82.1236 148.056 83.8569 146.5H83.9049ZM198.625 144.308C200.015 146.435 201.895 148.197 204.109 149.446C206.322 150.694 208.803 151.393 211.342 151.482C213.882 151.571 216.406 151.049 218.701 149.959C220.997 148.869 222.996 147.243 224.532 145.219C226.068 143.194 227.095 140.83 227.526 138.326C227.957 135.822 227.78 133.25 227.009 130.829C226.239 128.407 224.898 126.206 223.099 124.412C221.3 122.617 219.096 121.281 216.673 120.516C202.305 116.068 190.753 132.804 198.625 144.308ZM202.305 124.804C212.305 115.588 226.513 123.572 226.881 135.06C226.849 138.072 225.987 141.018 224.389 143.573C222.791 146.127 220.52 148.192 217.825 149.54C208.913 153.428 198.113 146.74 197.345 137.284C197.152 134.957 197.504 132.618 198.373 130.451C199.242 128.285 200.605 126.351 202.353 124.804H202.305ZM99.9529 68.5635C88.1289 43.6035 57.8249 32.9635 33.3769 49.6035C1.6969 71.2515 9.1849 116.948 44.8009 129.236C79.5849 141.588 117.553 105.747 99.9529 68.5635ZM77.6649 126.004C74.7614 127.425 71.7002 128.499 68.5449 129.204C68.7529 127.22 69.0089 122.1 69.1049 119.7C70.6089 122.1 73.3289 124.5 76.7049 124.02C79.6489 123.556 82.2569 120.82 84.7049 116.02C87.1016 110.774 88.4496 105.11 88.6729 99.3475C88.9336 98.6804 89.1005 97.9804 89.1689 97.2675C89.982 95.3941 90.9284 93.5815 92.0009 91.8435C92.5769 91.3415 93.078 90.7596 93.4889 90.1155C93.936 88.8752 94.0356 87.5363 93.7769 86.2435C93.7267 84.947 93.2485 83.7035 92.4169 82.7075C93.0729 81.3795 94.8969 75.3155 95.2009 74.1315C95.227 74.0046 95.2056 73.8726 95.1407 73.7605C95.0758 73.6484 94.9719 73.564 94.8489 73.5235C91.6412 73.0344 88.3965 72.831 85.1529 72.9155C85.0409 72.7075 79.2809 89.1555 78.7529 90.5155C78.7285 90.59 78.7196 90.6688 78.7267 90.7469C78.7338 90.825 78.7568 90.9008 78.7942 90.9697C78.8317 91.0387 78.8828 91.0992 78.9445 91.1476C79.0062 91.1961 79.0771 91.2314 79.1529 91.2515C80.743 91.4982 82.3454 91.6584 83.9529 91.7315C83.9529 92.4195 83.6489 94.3235 83.5369 94.9315C83.0807 95.5107 82.709 96.1518 82.4329 96.8355C80.4464 98.5633 79.0481 100.868 78.4329 103.428C75.6009 90.9955 73.6329 85.6515 62.4329 79.4275C61.8729 79.1235 61.2009 78.8995 60.5929 78.4995C68.3369 80.3555 69.2009 81.2355 69.4889 80.8515C78.2569 68.4995 74.1769 54.3715 65.1849 48.6915C56.7689 42.6115 48.4649 48.3555 45.4409 57.9715C43.2009 65.5395 47.0409 72.1635 49.0249 74.9155C47.2009 75.0915 46.5769 75.2995 45.1209 75.4595C32.8009 76.7875 22.8169 91.5555 18.2409 103.091C4.5929 71.7795 34.3209 36.1315 68.8809 44.3875C108.385 55.2195 115.569 107.668 77.6649 126.004ZM28.7209 118.004C29.9369 116.116 32.9769 110.868 33.6809 109.636C42.5769 116.484 59.2809 117.38 68.0489 111.54C68.0489 111.812 67.6489 127.236 67.6489 129.428C60.7188 130.696 53.588 130.323 46.828 128.339C40.0679 126.355 33.8665 122.816 28.7209 118.004ZM78.9129 106.996C78.884 106.496 78.8252 106 78.7369 105.507C78.8809 105.06 78.9769 104.66 79.1209 104.132C80.1609 105.86 83.6009 108.932 85.0249 109.108C85.0966 109.113 85.168 109.094 85.2278 109.054C85.2876 109.015 85.3321 108.956 85.3543 108.887C85.3765 108.819 85.375 108.745 85.3501 108.678C85.3251 108.61 85.2782 108.553 85.2169 108.516C82.8481 107.043 80.9452 104.929 79.7289 102.42C80.0974 101.416 80.6389 100.484 81.3289 99.6675C82.583 101.636 84.3468 103.228 86.4329 104.276C86.4697 104.285 86.5079 104.287 86.5455 104.282C86.5831 104.276 86.6193 104.264 86.652 104.244C86.6847 104.225 86.7132 104.2 86.736 104.169C86.7588 104.139 86.7754 104.104 86.7849 104.067C86.7943 104.031 86.7965 103.992 86.7911 103.955C86.7858 103.917 86.7731 103.881 86.7538 103.848C86.7345 103.816 86.7089 103.787 86.6786 103.764C86.6482 103.742 86.6137 103.725 86.5769 103.716C84.7056 102.429 83.165 100.719 82.0809 98.7235C82.2889 98.4675 82.5129 98.2115 82.7369 97.9715C84.022 99.2363 85.7349 99.9728 87.5369 100.036C87.2539 104.831 86.2673 109.559 84.6089 114.067C83.2977 117.237 81.2457 120.046 78.6249 122.26C80.8298 117.979 81.3329 113.023 80.0329 108.388C80.0009 108.278 79.933 108.182 79.8403 108.115C79.7475 108.049 79.6351 108.015 79.5209 108.02C78.1609 108.02 80.0649 113.588 70.4809 119.748C69.9858 119.039 69.542 118.296 69.1529 117.524C69.2489 112.084 69.0249 106.66 68.8009 101.412C68.8009 101.314 68.7621 101.22 68.6931 101.151C68.6241 101.082 68.5305 101.044 68.4329 101.044C68.3353 101.044 68.2417 101.082 68.1727 101.151C68.1037 101.22 68.0649 101.314 68.0649 101.412C68.1609 104.196 68.0649 106.948 68.0649 110.243C62.6889 113.619 56.5289 114.788 48.6569 113.908C43.4204 113.632 38.3753 111.848 34.1289 108.772C34.6889 107.748 37.0249 103.268 37.6809 102.068C37.7125 102.013 37.7289 101.951 37.7282 101.888C37.7276 101.825 37.71 101.763 37.6773 101.709C37.6446 101.655 37.5979 101.611 37.5423 101.581C37.4866 101.551 37.424 101.537 37.3609 101.54C36.9769 101.54 37.3609 101.444 34.1609 106.932C29.1137 104.954 25.0377 101.085 22.8009 96.1475C25.3906 91.2037 28.7865 86.7264 32.8489 82.8995C34.9356 85.7966 37.5834 88.2447 40.6349 90.0984C43.6864 91.952 47.0794 93.1733 50.6122 93.6897C54.1451 94.2061 57.7457 94.0071 61.2001 93.1045C64.6545 92.2019 67.8922 90.6141 70.7209 88.4355C70.7751 88.3777 70.8072 88.3025 70.8113 88.2233C70.8155 88.1441 70.7915 88.066 70.7436 88.0028C70.6957 87.9396 70.627 87.8953 70.5497 87.8779C70.4723 87.8605 70.3913 87.8709 70.3209 87.9075C67.999 89.5031 65.4756 90.7836 62.8169 91.7155C57.5723 93.3767 51.9376 93.3433 46.7131 91.62C41.4886 89.8967 36.9399 86.5711 33.7129 82.1155C35.2453 80.8721 36.9084 79.7991 38.6729 78.9155C44.7369 92.5635 59.6969 93.5395 66.9289 83.7155C70.6729 86.6275 71.8249 86.9955 74.8169 94.2275C67.9529 100.212 61.6969 103.188 55.7129 103.124C50.7404 103.158 45.825 102.063 41.3376 99.9205C36.8503 97.7779 32.9082 94.6441 29.8089 90.7555C29.5529 90.4035 28.9769 90.7555 29.2329 91.1395C34.0329 98.4515 43.1369 103.252 54.2729 104.308C61.8089 105.044 69.8089 100.74 75.1849 95.2675C76.0169 98.0195 77.0249 102.068 77.1369 102.548C76.6409 104.148 71.2809 109.124 70.4329 109.316C69.9369 109.428 70.1929 110.196 70.6409 110.004C73.2197 108.511 75.5425 106.615 77.5209 104.388C77.6969 105.22 78.0169 106.708 78.0649 107.076C78.1129 107.444 78.9449 107.508 78.9129 106.996ZM88.5129 82.8675C88.3146 82.8117 88.1057 82.8052 87.9043 82.8486C87.7029 82.892 87.5152 82.9839 87.3575 83.1164C87.1997 83.2489 87.0768 83.4179 86.9993 83.6088C86.9218 83.7996 86.8922 84.0066 86.9129 84.2115C85.2009 84.5795 85.3129 85.8115 86.3049 86.6115C87.2869 87.2313 88.3017 87.7974 89.3449 88.3075C88.9769 89.1875 88.6889 89.9075 88.3049 90.7555C86.7049 90.7555 81.7289 90.4515 80.0009 90.3075C80.6409 88.3075 84.0169 79.0115 85.8729 73.9875C87.4729 74.0675 92.4809 74.1955 94.0969 74.4515C93.7129 76.0515 92.0809 80.7075 91.6169 82.1635C91.3699 82.0005 91.0924 81.8893 90.8012 81.8364C90.51 81.7836 90.2111 81.7902 89.9225 81.856C89.634 81.9218 89.3618 82.0453 89.1222 82.2192C88.8827 82.393 88.6809 82.6136 88.5289 82.8675H88.5129ZM89.2169 91.5235C89.4889 90.6595 89.8249 89.8275 90.2729 88.7395C90.3442 88.752 90.4176 88.7412 90.4822 88.7087C90.5468 88.6761 90.5992 88.6236 90.6316 88.5588C90.6639 88.4941 90.6745 88.4207 90.6618 88.3495C90.6491 88.2782 90.6137 88.213 90.5609 88.1635C90.1609 87.7955 86.4489 85.8275 86.5929 85.4435C86.7369 85.0595 87.6649 85.3315 88.1929 85.6355C89.2343 86.0643 90.3034 86.4225 91.3929 86.7075C91.4629 86.7151 91.5334 86.6994 91.5936 86.6629C91.6537 86.6263 91.7001 86.571 91.7257 86.5054C91.7512 86.4398 91.7543 86.3676 91.7347 86.3C91.715 86.2324 91.6736 86.1732 91.6169 86.1315C90.3674 85.678 89.1488 85.1436 87.9689 84.5315C87.7289 84.3075 87.6169 83.6995 87.9689 83.7155C89.1444 83.9956 90.2395 84.5431 91.1689 85.3155C91.2057 85.3502 91.2489 85.3773 91.2961 85.3952C91.3434 85.4132 91.3937 85.4217 91.4442 85.4202C91.4947 85.4187 91.5444 85.4073 91.5906 85.3866C91.6367 85.3659 91.6782 85.3363 91.7129 85.2995C91.7476 85.2627 91.7747 85.2195 91.7926 85.1723C91.8106 85.125 91.819 85.0747 91.8176 85.0242C91.8161 84.9737 91.8047 84.9239 91.784 84.8778C91.7633 84.8317 91.7337 84.7902 91.6969 84.7555C91.0958 84.2809 90.4593 83.853 89.7929 83.4755C88.9929 83.0115 89.5689 82.4355 90.3689 82.5475C91.4409 82.7075 92.8169 84.1475 92.6729 87.1075C92.8062 87.9026 92.7028 88.7192 92.3757 89.456C92.0485 90.1928 91.512 90.8172 90.8329 91.2515C89.8018 92.8877 88.9286 94.6181 88.2249 96.4195C87.5213 96.6016 86.7804 96.5794 86.089 96.3555C85.3976 96.1317 84.7843 95.7154 84.3209 95.1555C84.4329 94.5955 84.7689 92.6755 84.8649 91.9555C88.4329 92.0675 89.0569 92.0515 89.2329 91.5235H89.2169ZM79.4089 110.9C79.9598 114.982 79.286 119.136 77.4729 122.836C76.3039 123.171 75.0597 123.133 73.9128 122.729C72.766 122.325 71.7734 121.573 71.0729 120.579C74.9718 118.518 77.9489 115.061 79.4089 110.9ZM49.9689 76.3555C49.9974 76.3892 50.0346 76.4144 50.0764 76.4283C50.1183 76.4423 50.1632 76.4444 50.2062 76.4345C50.2492 76.4246 50.2886 76.403 50.3201 76.3721C50.3517 76.3412 50.3741 76.3023 50.3849 76.2595C52.8009 66.7555 52.7369 67.3475 52.5129 67.2195C49.8249 65.7475 50.6729 62.8835 51.7609 62.5475C52.3049 62.3715 53.0249 62.7235 53.7449 63.5235C54.2151 63.9655 54.5718 64.5144 54.7849 65.1235C56.3849 69.6035 65.2489 63.6995 69.0889 60.8675C69.3553 60.646 69.6705 60.4908 70.0085 60.4146C70.3466 60.3385 70.6978 60.3435 71.0335 60.4294C71.3692 60.5153 71.6798 60.6795 71.9397 60.9086C72.1996 61.1378 72.4016 61.4252 72.5289 61.7475C72.8969 62.4515 72.2249 63.0435 71.8249 62.2755C70.9929 60.8675 69.5369 61.6515 69.5689 62.0355C69.8889 66.0035 69.1529 71.6355 66.0649 74.3875C62.9769 77.1395 59.3929 75.7155 59.0729 75.9875C58.7529 76.2595 58.9289 76.5155 58.9289 76.8195C58.7858 77.1591 58.7223 77.5269 58.7432 77.8948C58.7641 78.2627 58.8689 78.6209 59.0496 78.9421C59.2303 79.2633 59.482 79.5389 59.7855 79.7478C60.0891 79.9567 60.4364 80.0934 60.8009 80.1475C62.1084 80.6416 63.3541 81.2859 64.5129 82.0675C58.8169 90.8675 46.3689 89.5715 41.6009 77.7155C44.2663 76.8054 47.0445 76.267 49.8569 76.1155L49.9689 76.3555ZM22.2729 97.1555C23.3066 99.6259 24.8499 101.851 26.8019 103.684C28.7538 105.517 31.0706 106.918 33.6009 107.796C33.4089 108.1 28.9449 115.396 27.8889 117.188C24.004 113.455 20.8464 109.033 18.5769 104.148C20.1609 101.3 21.0249 99.5715 22.2729 97.1715V97.1555ZM301.921 68.8035C292.913 40.0035 260.449 26.7715 235.233 42.0995C206.817 59.3475 205.121 97.7475 232.225 117.14C267.841 142.548 314.305 107.476 301.921 68.8035ZM253.281 112.452C258.577 119.476 263.889 120.02 267.441 119.204C274.065 117.7 279.873 110.26 281.569 101.092C281.592 100.983 281.572 100.87 281.512 100.777C281.452 100.684 281.357 100.619 281.249 100.596C281.141 100.572 281.028 100.593 280.935 100.653C280.842 100.713 280.776 100.807 280.753 100.916C280 104.83 278.358 108.52 275.953 111.7C266.545 123.956 256.753 117.972 249.249 104.404C246.81 100.513 245.441 96.0482 245.281 91.4595C249.089 89.6675 249.009 89.5715 249.457 89.9555C253.905 93.7795 261.985 102.9 263.105 104.132C263.125 104.238 263.181 104.334 263.265 104.403C263.348 104.472 263.453 104.51 263.561 104.51C263.669 104.51 263.774 104.472 263.857 104.403C263.94 104.334 263.997 104.238 264.017 104.132C265.809 96.8995 267.217 89.3955 272.545 84.2275C274.523 83.7722 276.527 83.4356 278.545 83.2195C285.633 92.1795 284.625 104.132 284.593 115.476C279.841 119.104 274.383 121.697 268.568 123.089C262.754 124.48 256.712 124.639 250.833 123.556C251.179 119.766 252.001 116.035 253.281 112.452ZM279.905 83.0755C280.769 83.0755 280.689 81.6675 279.905 81.7795C276.565 82.0581 273.287 82.8347 270.177 84.0835C269.745 84.2595 269.249 84.3555 269.409 84.7875C269.569 85.2195 269.921 84.8995 271.121 84.5955C266.417 89.5715 264.641 96.5795 263.409 102.884C262.529 101.812 260.353 99.3315 259.793 98.6915C264.721 87.8275 264.449 87.4915 267.345 85.2995C268.465 84.4035 273.025 81.1075 276.801 78.7395C278.817 77.4595 280.257 76.5635 283.617 81.2195C286.737 85.5555 286.817 85.6195 284.817 95.1395C284.216 90.7557 282.484 86.6037 279.793 83.0915L279.905 83.0755ZM244.705 73.6515C244.993 73.6515 245.137 73.8755 245.361 74.2115C250.641 82.2115 250.241 81.2995 250.241 81.4595C250.241 82.2275 251.281 83.3795 252.321 84.3555C251.473 84.6755 249.889 85.3155 248.945 85.6995C248.945 82.7555 246.865 82.7555 246.305 83.9875C245.313 82.5315 243.105 79.6515 242.657 79.0915C242.535 78.9192 242.371 78.7814 242.181 78.6916C241.99 78.6018 241.779 78.5632 241.569 78.5795C240.817 77.6195 239.121 75.3795 238.465 74.4035C238.625 74.3715 244.193 73.7475 244.689 73.6515H244.705ZM255.585 88.8195C255.345 90.7715 252.289 88.5955 253.473 87.5075C253.692 87.878 253.996 88.1905 254.361 88.4188C254.726 88.6471 255.14 88.7845 255.569 88.8195H255.585ZM255.409 87.8115C254.753 87.6995 253.425 86.2115 253.809 85.8755C254.193 85.5395 255.841 87.5555 255.809 87.7955C255.675 87.8408 255.53 87.8463 255.393 87.8115H255.409ZM259.073 97.9715C257.681 96.4995 251.361 89.9715 251.201 89.8435C250.969 89.497 250.669 89.2008 250.32 88.9726C249.971 88.7445 249.579 88.589 249.169 88.5155C248.959 87.9708 248.877 87.385 248.929 86.8035L253.057 85.0435C253.441 85.3795 253.057 85.0435 252.865 85.7795C252.773 86.1229 252.813 86.4881 252.977 86.8035C251.377 87.9875 252.977 90.7395 255.089 90.5315C255.716 90.9615 256.259 91.504 256.689 92.1315C257.162 93.7647 257.834 95.3338 258.689 96.8035C259.217 97.7475 259.185 97.6355 259.057 97.9715H259.073ZM257.713 92.2595C257.713 91.7475 259.553 89.8275 259.841 89.5875C260.698 89.8368 261.533 90.1579 262.337 90.5475C261.873 91.6035 260.385 94.9795 259.649 96.6915C258.846 95.2861 258.192 93.8007 257.697 92.2595H257.713ZM257.057 91.2355C256.748 90.8278 256.381 90.4667 255.969 90.1635C256.166 89.9505 256.314 89.6968 256.403 89.4204C256.491 89.1439 256.518 88.8514 256.481 88.5635C256.573 88.5023 256.65 88.422 256.708 88.3281C256.766 88.2343 256.803 88.129 256.817 88.0195C256.945 87.2675 256.097 86.6435 255.537 86.1155C253.88 84.815 252.405 83.2974 251.153 81.6035C252.424 82.2404 253.64 82.9844 254.785 83.8275C256.705 85.2515 259.169 86.5955 258.977 88.9635C258.271 89.6667 257.623 90.4266 257.041 91.2355H257.057ZM241.825 79.5395C243.451 81.3764 244.943 83.3281 246.289 85.3795C246.335 85.4509 246.402 85.5069 246.48 85.5405C246.559 85.5741 246.645 85.5839 246.729 85.5685C246.813 85.5531 246.89 85.5133 246.951 85.454C247.012 85.3948 247.055 85.3187 247.073 85.2355C247.073 84.7875 247.281 83.9875 247.697 84.1635C248.577 85.3635 247.697 87.2355 248.289 88.7235C244.001 90.6115 247.505 90.1315 244.865 87.1235C242.417 84.5475 241.457 80.3555 241.825 79.5395ZM258.321 77.9395C258.905 75.8462 258.905 73.6328 258.321 71.5395C258.083 70.6067 257.939 69.6528 257.889 68.6915C258.85 68.794 259.821 68.7509 260.769 68.5635C263.569 68.0995 265.009 66.5955 265.697 67.0595C266.145 67.3635 266.225 68.3075 265.937 69.8115C265.931 69.8603 265.939 69.9099 265.962 69.9535C265.985 69.9971 266.021 70.0327 266.064 70.0554C266.108 70.0781 266.157 70.0868 266.206 70.0804C266.255 70.074 266.301 70.0527 266.337 70.0195C266.946 69.5206 267.71 69.2491 268.497 69.2515C270.625 69.4275 270.545 72.4515 268.497 73.7475C268.453 73.7825 268.422 73.8319 268.411 73.8871C268.4 73.9423 268.408 73.9996 268.435 74.0492C268.462 74.0988 268.505 74.1374 268.557 74.1583C268.609 74.1792 268.667 74.181 268.721 74.1635C269.489 73.8996 270.313 73.8421 271.11 73.9965C271.908 74.1509 272.651 74.5119 273.265 75.0435C273.6 76.3831 274.055 77.6897 274.625 78.9475C272.401 80.4675 269.425 82.5475 267.297 84.1955C265.377 80.1635 262.993 83.0275 261.345 79.7955C259.681 77.0275 258.625 77.9875 258.241 77.8915L258.321 77.9395ZM285.137 97.1395C286.29 93.626 286.952 89.9702 287.105 86.2755C286.878 84.497 286.157 82.8176 285.025 81.4275C280.481 74.8675 278.625 75.9555 275.121 78.3235C274.801 77.3475 274.097 75.3155 273.969 74.7715C274.177 74.5635 274.721 74.0355 274.881 73.9235C275.473 73.0929 275.931 72.1753 276.241 71.2035C276.65 69.846 276.818 68.4271 276.737 67.0115C276.817 65.6697 276.604 64.3266 276.113 63.0755C275.095 61.2965 273.486 59.9303 271.566 59.2141C269.646 58.498 267.535 58.4773 265.601 59.1555C262.609 58.1635 258.753 57.1395 257.297 57.7635C256.139 58.0427 255.101 58.6857 254.336 59.5982C253.571 60.5107 253.118 61.6445 253.045 62.8332C252.971 64.0219 253.281 65.2028 253.928 66.2025C254.576 67.2022 255.526 67.968 256.641 68.3875C256.592 69.6229 256.733 70.8584 257.057 72.0515C257.599 73.7309 257.644 75.5314 257.185 77.2355C256.897 78.5155 257.313 79.0915 258.785 78.8355C260.513 78.9635 259.569 82.0355 263.489 82.6115C264.433 82.7715 265.185 82.9155 266.161 84.7235C264.529 86.028 263.302 87.7708 262.625 89.7475C261.755 89.2344 260.832 88.816 259.873 88.4995C259.767 87.7017 259.489 86.9365 259.058 86.2569C258.627 85.5773 258.053 84.9995 257.377 84.5635C255.886 83.3185 254.279 82.2201 252.577 81.2835C252.241 81.1075 251.537 80.5635 250.977 80.6755C245.409 72.1955 245.985 72.5635 244.241 72.5635C241.988 72.6499 239.749 72.9499 237.553 73.4595C237.474 73.4891 237.403 73.5362 237.345 73.5971C237.286 73.658 237.243 73.7313 237.217 73.8115C237.121 74.1955 237.217 73.9715 239.457 77.1715C241.537 80.0835 240.785 78.6595 240.913 80.2275C241.197 83.2506 242.429 86.1066 244.433 88.3875C244.814 88.9739 244.968 89.6796 244.865 90.3715L244.657 90.4675C244.113 90.7395 244.801 96.1955 245.185 97.4755C246.943 102.504 249.474 107.228 252.689 111.476C251.114 115.257 250.147 119.264 249.825 123.348C235.537 120.148 223.329 110.436 217.825 97.8275C212.321 85.2195 213.729 70.4355 222.081 56.6275C245.201 22.6915 295.905 36.3235 301.921 75.9715C304.129 91.0275 297.537 105.315 285.697 114.691C285.859 108.843 285.634 102.99 285.025 97.1715L285.137 97.1395ZM278.833 129.619C278.972 132.186 279.418 134.727 280.161 137.188C280.212 137.34 280.322 137.466 280.466 137.538C280.609 137.61 280.776 137.622 280.929 137.572C282.145 137.22 280.353 135.54 279.825 129.572C279.777 128.948 278.785 128.979 278.833 129.619ZM283.729 148.74C283.697 148.606 283.613 148.49 283.496 148.418C283.379 148.346 283.239 148.324 283.105 148.355C282.971 148.387 282.856 148.471 282.784 148.588C282.712 148.705 282.689 148.846 282.721 148.979C284.769 159.379 284.497 160.387 285.537 160.179C286.577 159.971 285.841 158.98 283.729 148.74ZM287.489 173.476C286.609 173.715 287.777 173.843 288.561 183.555C288.561 184.436 290.001 184.387 289.905 183.555C289.502 180.272 288.865 177.021 288.001 173.827C287.996 173.768 287.978 173.711 287.949 173.659C287.919 173.607 287.878 173.563 287.829 173.53C287.78 173.496 287.724 173.473 287.665 173.464C287.606 173.455 287.546 173.459 287.489 173.476ZM246.881 147.012C248.589 141.942 250.016 136.782 251.153 131.555C251.177 131.435 251.154 131.31 251.089 131.206C251.024 131.102 250.921 131.027 250.802 130.996C250.684 130.966 250.558 130.982 250.45 131.041C250.343 131.1 250.262 131.199 250.225 131.316C248.945 136.452 247.249 141.427 245.665 146.644C245.638 146.797 245.669 146.956 245.751 147.089C245.833 147.222 245.961 147.32 246.11 147.365C246.26 147.411 246.421 147.4 246.563 147.334C246.705 147.269 246.818 147.154 246.881 147.012ZM240.385 168.148C241.281 168.148 241.121 167.06 243.665 157.54C243.699 157.425 243.686 157.302 243.629 157.197C243.572 157.092 243.475 157.013 243.361 156.979C243.246 156.946 243.123 156.959 243.018 157.016C242.913 157.073 242.835 157.169 242.801 157.284C242.305 158.883 240.129 165.62 239.729 167.316C239.705 167.415 239.703 167.518 239.725 167.618C239.747 167.718 239.791 167.811 239.854 167.892C239.917 167.972 239.998 168.037 240.09 168.081C240.182 168.125 240.283 168.148 240.385 168.148ZM233.121 188.947C233.681 188.947 233.649 188.532 234.113 186.676C234.737 184.148 235.713 180.275 236.097 179.188C236.337 178.548 235.361 178.259 235.121 178.867C234.042 182.002 233.192 185.21 232.577 188.467C232.589 188.602 232.652 188.726 232.753 188.816C232.855 188.905 232.986 188.952 233.121 188.947ZM227.841 202.564C226.367 205.42 225.228 208.437 224.449 211.556C224.406 211.717 224.43 211.888 224.514 212.032C224.598 212.176 224.736 212.281 224.897 212.324C225.058 212.366 225.23 212.343 225.374 212.259C225.518 212.175 225.622 212.037 225.665 211.876C228.337 202.803 229.201 202.723 228.417 202.275C228.36 202.253 228.3 202.243 228.239 202.245C228.178 202.248 228.119 202.264 228.064 202.291C228.01 202.318 227.962 202.356 227.924 202.403C227.885 202.45 227.857 202.505 227.841 202.564ZM211.121 156.052C211.281 157.3 211.857 162.452 212.049 163.876C212.06 163.964 212.089 164.049 212.134 164.126C212.178 164.203 212.237 164.271 212.308 164.325C212.379 164.379 212.459 164.419 212.545 164.442C212.631 164.465 212.721 164.471 212.809 164.46C212.897 164.448 212.982 164.419 213.059 164.375C213.136 164.33 213.204 164.271 213.258 164.2C213.313 164.13 213.352 164.049 213.375 163.963C213.398 163.877 213.404 163.788 213.393 163.7C213.185 162.324 212.289 157.156 212.097 155.924C212.001 155.348 211.041 155.46 211.121 156.052ZM213.633 178.947C213.809 179.956 214.465 184.307 214.673 185.46C214.833 186.324 216.113 186.003 215.953 185.156C215.569 183.027 215.057 180.883 214.657 178.755C214.529 178.035 213.521 178.292 213.633 178.947ZM216.225 201.204C216.296 203.889 216.585 206.565 217.089 209.204C217.281 210.084 218.593 209.731 218.433 208.867C217.886 206.325 217.469 203.756 217.185 201.171C217.041 200.579 216.113 200.564 216.225 201.204ZM174.625 68.0515C174.321 67.4755 173.473 67.9555 173.745 68.5315C178.945 79.2035 178.545 79.2995 179.297 79.2995C179.421 79.2984 179.543 79.2659 179.651 79.2051C179.759 79.1444 179.85 79.0573 179.915 78.9519C179.981 78.8466 180.019 78.7264 180.025 78.6025C180.032 78.4787 180.007 78.3552 179.953 78.2435C178.193 74.8035 176.337 71.4595 174.625 68.0515ZM184.545 88.9155C184.305 88.3715 183.489 88.8035 183.729 89.3475C185.329 92.9155 186.657 96.5795 188.289 100.164C188.641 100.964 189.809 100.324 189.457 99.5395C187.873 95.8595 186.001 92.1635 184.545 88.9155ZM198.625 121.507C198.722 121.513 198.819 121.494 198.907 121.453C198.995 121.412 199.071 121.351 199.13 121.273C199.188 121.196 199.227 121.105 199.242 121.009C199.257 120.913 199.249 120.815 199.217 120.724C198.657 119.124 195.889 113.252 195.185 111.668C194.897 111.011 193.937 111.523 194.209 112.179C198.017 120.915 197.953 121.507 198.625 121.507ZM227.777 115.7C227.185 116.708 224.465 120.404 223.729 121.348C223.674 121.418 223.634 121.498 223.611 121.584C223.587 121.67 223.581 121.76 223.592 121.848C223.603 121.937 223.631 122.022 223.675 122.1C223.72 122.177 223.779 122.245 223.849 122.3C223.919 122.354 224 122.394 224.086 122.418C224.172 122.441 224.261 122.448 224.35 122.437C224.438 122.426 224.523 122.397 224.601 122.353C224.678 122.309 224.746 122.25 224.801 122.179C226.179 120.258 227.429 118.248 228.545 116.164C228.606 116.062 228.625 115.94 228.596 115.824C228.568 115.709 228.495 115.609 228.393 115.548C228.291 115.486 228.169 115.467 228.053 115.496C227.938 115.524 227.838 115.598 227.777 115.7ZM199.825 55.3475C200.481 55.3475 200.833 54.3555 200.145 54.0515C198.689 53.3955 192.561 51.3635 191.041 50.8515C190.417 50.6115 190.097 51.5715 190.721 51.8115C192.337 52.3875 199.297 55.3475 199.825 55.3475ZM205.377 57.7475C208.249 59.3101 211.266 60.5907 214.385 61.5715C214.564 61.6024 214.748 61.5659 214.902 61.4691C215.056 61.3724 215.168 61.2221 215.218 61.0473C215.268 60.8725 215.251 60.6856 215.171 60.5224C215.091 60.3592 214.953 60.2314 214.785 60.1635C211.723 59.3322 208.745 58.2181 205.889 56.8355C205.281 56.5635 204.769 57.4915 205.377 57.7475ZM129.009 56.7875C135.409 52.4835 137.329 53.4595 137.009 52.3235C136.991 52.258 136.959 52.1969 136.917 52.1436C136.875 52.0904 136.822 52.0461 136.763 52.0133C136.703 51.9805 136.638 51.96 136.57 51.9528C136.502 51.9456 136.434 51.952 136.369 51.9715C133.48 52.7312 130.731 53.9465 128.225 55.5715C127.489 56.1475 128.225 57.2995 129.009 56.7875ZM114.465 62.1795C113.969 62.5795 114.369 63.2355 114.929 63.2355C115.121 63.2355 115.153 63.2355 116.913 62.3555C118.673 61.4755 120.689 60.5315 121.441 60.3075C121.567 60.2578 121.67 60.1626 121.73 60.0407C121.79 59.9188 121.802 59.779 121.764 59.6487C121.726 59.5184 121.64 59.4071 121.524 59.3365C121.408 59.266 121.27 59.2414 121.137 59.2675C118.821 60.0136 116.586 60.9891 114.465 62.1795Z" fill="black"/>
<path d="M108.289 65.2018C107.457 65.6658 102.865 68.0818 102.369 68.4018C102.267 68.4728 102.189 68.5735 102.146 68.6901C102.103 68.8068 102.097 68.9338 102.128 69.0542C102.16 69.1745 102.227 69.2823 102.322 69.363C102.416 69.4438 102.533 69.4936 102.657 69.5058C104.783 68.5017 106.845 67.3689 108.833 66.1138C108.923 66.0288 108.981 65.9157 108.998 65.7932C109.015 65.6707 108.99 65.546 108.927 65.4397C108.863 65.3335 108.765 65.252 108.65 65.2088C108.534 65.1655 108.407 65.163 108.289 65.2018ZM94.625 39.6338C96.7724 39.6482 98.9005 39.2277 100.881 38.3974C102.861 37.5672 104.653 36.3445 106.148 34.803C107.643 33.2616 108.811 31.4333 109.58 29.4284C110.35 27.4236 110.705 25.2837 110.625 23.1378C110.145 8.84977 91.633 2.03377 82.273 14.1938C73.825 24.7698 81.953 39.6338 94.625 39.6338ZM85.025 12.9458C94.833 3.90577 109.233 11.3458 109.601 23.2018C109.572 26.2109 108.704 29.1523 107.096 31.6959C105.488 34.2395 103.203 36.2846 100.497 37.6018C91.553 41.5058 80.785 34.8018 80.017 25.3618C79.8326 23.0457 80.189 20.7184 81.0581 18.5637C81.9272 16.409 83.2853 14.4857 85.025 12.9458ZM130.209 26.0818C133.041 26.3858 135.889 26.4178 138.721 26.5458C138.848 26.5458 138.97 26.4952 139.06 26.4052C139.15 26.3152 139.201 26.1931 139.201 26.0658C139.201 25.9385 139.15 25.8164 139.06 25.7264C138.97 25.6363 138.848 25.5858 138.721 25.5858C135.745 25.3138 133.921 24.9458 130.209 24.7058C129.361 24.6578 129.345 25.9858 130.209 26.0818ZM113.441 24.3858C114.737 24.5298 120.065 24.8978 121.441 25.0738C122.161 25.1858 122.449 24.0978 121.697 23.9698C118.989 23.5446 116.259 23.2669 113.521 23.1378C113.439 23.1325 113.357 23.1435 113.279 23.17C113.201 23.1965 113.13 23.238 113.068 23.2923C113.006 23.3465 112.956 23.4123 112.92 23.486C112.884 23.5597 112.862 23.6398 112.857 23.7218C112.852 23.8037 112.863 23.8859 112.889 23.9636C112.916 24.0413 112.957 24.1131 113.012 24.1747C113.066 24.2364 113.132 24.2868 113.205 24.323C113.279 24.3592 113.359 24.3805 113.441 24.3858ZM49.825 142.77C50.289 139.826 50.401 136.898 50.753 133.97C50.833 133.426 49.937 133.298 49.857 133.858C49.409 136.738 48.721 139.634 48.385 142.562C48.3866 142.738 48.4511 142.907 48.5668 143.039C48.6825 143.172 48.8417 143.259 49.0158 143.284C49.1898 143.309 49.3671 143.271 49.5155 143.177C49.664 143.082 49.7738 142.938 49.825 142.77ZM48.097 150.69C46.497 159.474 46.129 160.546 47.281 160.546C48.145 160.546 47.985 159.97 49.073 150.818C49.153 150.226 48.225 150.098 48.097 150.69ZM77.521 165.314C75.089 166.594 72.065 168.082 71.121 168.642C70.9899 168.719 70.8882 168.838 70.8319 168.98C70.7756 169.121 70.7679 169.278 70.81 169.424C70.8521 169.571 70.9416 169.699 71.0645 169.789C71.1874 169.879 71.3367 169.926 71.489 169.922C73.7201 168.815 75.8887 167.587 77.985 166.242C78.0829 166.167 78.1516 166.061 78.1794 165.941C78.2072 165.821 78.1924 165.696 78.1374 165.586C78.0824 165.476 77.9907 165.388 77.8782 165.339C77.7656 165.289 77.6393 165.28 77.521 165.314ZM68.161 170.242C66.4142 171.06 64.7106 171.968 63.057 172.962C62.545 173.426 63.153 174.194 63.761 173.906C64.369 173.618 67.777 171.506 68.561 171.138C69.345 170.77 68.753 169.986 68.161 170.242ZM132.593 183.57C133.169 183.938 133.713 183.058 133.153 182.674C131.937 181.874 127.313 178.45 126.033 177.778C125.867 177.698 125.678 177.682 125.501 177.732C125.325 177.782 125.172 177.895 125.073 178.05C124.417 179.074 126.625 179.65 132.593 183.57ZM110.433 168.786C111.233 169.346 112.033 169.874 112.849 170.386C118.305 174.002 118.049 174.114 118.385 174.114C118.496 174.112 118.603 174.078 118.694 174.015C118.785 173.953 118.856 173.864 118.897 173.762C118.938 173.659 118.948 173.547 118.925 173.438C118.902 173.33 118.848 173.231 118.769 173.154C116.34 171.155 113.803 169.29 111.169 167.57C110.401 167.106 109.697 168.29 110.433 168.786ZM267.985 221.81C265.361 222.178 262.657 222.45 259.985 223.058C259.821 223.109 259.68 223.216 259.588 223.362C259.496 223.507 259.46 223.681 259.485 223.851C259.51 224.021 259.595 224.177 259.725 224.289C259.855 224.402 260.021 224.465 260.193 224.466C260.817 224.466 264.801 223.394 268.193 222.866C269.025 222.802 268.705 221.682 267.985 221.81ZM253.841 224.402C251.153 224.802 248.193 225.042 245.281 225.538C244.465 225.682 244.689 226.866 245.489 226.866C246.289 226.866 252.017 225.714 254.049 225.394C254.705 225.282 254.481 224.306 253.841 224.402ZM157.025 167.042C156.944 166.906 156.813 166.808 156.66 166.769C156.507 166.73 156.345 166.753 156.209 166.834C156.073 166.914 155.975 167.046 155.936 167.199C155.897 167.352 155.92 167.514 156.001 167.65C156.79 168.937 158.035 169.879 159.487 170.291C160.939 170.703 162.494 170.554 163.841 169.874C163.931 169.819 163.997 169.732 164.025 169.63C164.054 169.528 164.042 169.42 163.993 169.326C163.944 169.233 163.862 169.161 163.762 169.126C163.663 169.091 163.554 169.095 163.457 169.138C162.31 169.6 161.036 169.643 159.86 169.26C158.684 168.876 157.68 168.091 157.025 167.042ZM168.225 161.122C168.113 162.05 167.281 161.538 167.217 162.098C167.217 162.402 167.473 162.514 167.793 162.514C168.077 162.504 168.353 162.419 168.593 162.266C168.834 162.114 169.029 161.901 169.159 161.649C169.29 161.396 169.35 161.113 169.335 160.829C169.32 160.546 169.23 160.271 169.073 160.034C168.176 159.072 167.357 158.039 166.625 156.946C166.597 156.846 166.531 156.761 166.441 156.71C166.351 156.659 166.245 156.646 166.145 156.674C166.045 156.701 165.961 156.767 165.91 156.857C165.859 156.947 165.845 157.054 165.873 157.154C166.249 158 166.722 158.8 167.281 159.538C167.647 160.034 167.963 160.564 168.225 161.122ZM159.729 149.41C159.687 149.219 159.57 149.053 159.405 148.948C159.24 148.842 159.04 148.807 158.849 148.85C158.658 148.892 158.492 149.009 158.387 149.174C158.282 149.339 158.247 149.539 158.289 149.73C158.737 152.77 158.465 154.066 159.665 154.066C159.894 154.066 160.114 153.975 160.276 153.813C160.438 153.651 160.529 153.431 160.529 153.202C160.529 152.802 159.857 150.082 159.729 149.41ZM172.305 149.554C172.271 149.379 172.175 149.223 172.035 149.114C171.895 149.004 171.72 148.95 171.542 148.959C171.365 148.969 171.197 149.043 171.069 149.167C170.942 149.291 170.864 149.457 170.849 149.634C170.849 149.874 171.073 152.738 171.153 152.962C171.176 153.174 171.283 153.368 171.45 153.502C171.616 153.635 171.829 153.697 172.041 153.674C172.253 153.65 172.447 153.544 172.581 153.377C172.714 153.211 172.776 152.998 172.753 152.786C172.721 152.594 172.465 151.026 172.305 149.554ZM157.217 148.594C157.422 147.914 157.848 147.321 158.428 146.91C159.007 146.498 159.707 146.291 160.417 146.322C160.541 146.336 160.667 146.303 160.768 146.229C160.869 146.154 160.938 146.045 160.961 145.922C161.121 144.77 156.817 145.234 155.873 148.226C155.824 148.404 155.848 148.594 155.94 148.755C156.031 148.915 156.183 149.033 156.361 149.082C156.539 149.131 156.73 149.107 156.89 149.015C157.051 148.924 157.168 148.772 157.217 148.594ZM169.185 145.746C169.767 145.712 170.344 145.871 170.827 146.198C171.31 146.524 171.672 147.001 171.857 147.554C172.145 148.178 173.153 147.762 172.961 147.09C172.648 146.335 172.083 145.713 171.362 145.328C170.642 144.943 169.81 144.819 169.009 144.978C168.922 145.014 168.851 145.08 168.808 145.164C168.766 145.248 168.754 145.344 168.775 145.436C168.796 145.527 168.848 145.609 168.923 145.665C168.998 145.722 169.091 145.751 169.185 145.746ZM292.657 199.586C292.657 199.586 291.809 195.714 291.585 194.594C291.557 194.469 291.481 194.359 291.373 194.29C291.265 194.221 291.134 194.198 291.009 194.226C290.884 194.253 290.775 194.33 290.706 194.438C290.637 194.546 290.613 194.677 290.641 194.802L291.393 199.362C288.851 199.04 286.27 199.262 283.821 200.013C281.371 200.764 279.109 202.027 277.185 203.718C275.261 205.41 273.718 207.491 272.658 209.824C271.599 212.156 271.048 214.688 271.041 217.25C272.001 241.362 306.609 240.882 307.089 217.25C307.122 213.084 305.697 209.039 303.061 205.813C300.426 202.587 296.745 200.384 292.657 199.586ZM296.785 224.818C294.257 232.002 284.721 230.722 284.721 222.146V216.962C284.442 216.997 284.158 216.973 283.888 216.891C283.619 216.808 283.37 216.669 283.159 216.483C282.947 216.297 282.778 216.068 282.662 215.811C282.546 215.554 282.486 215.276 282.486 214.994C282.486 214.712 282.546 214.433 282.662 214.177C282.778 213.92 282.947 213.691 283.159 213.505C283.37 213.318 283.619 213.179 283.888 213.097C284.158 213.014 284.442 212.99 284.721 213.026C284.721 211.426 284.721 209.826 284.833 208.082C284.839 207.823 284.896 207.569 285.001 207.332C285.106 207.096 285.256 206.882 285.443 206.704C285.63 206.526 285.851 206.386 286.092 206.293C286.333 206.2 286.591 206.155 286.849 206.162C287.372 206.179 287.868 206.402 288.228 206.782C288.587 207.163 288.782 207.67 288.769 208.194C288.769 209.874 288.769 211.474 288.673 212.994H292.049C292.307 212.987 292.564 213.033 292.805 213.127C293.045 213.222 293.264 213.363 293.449 213.544C293.634 213.724 293.781 213.94 293.881 214.178C293.982 214.416 294.033 214.671 294.033 214.93C294.037 215.19 293.99 215.448 293.894 215.689C293.798 215.93 293.655 216.151 293.474 216.336C293.292 216.522 293.076 216.671 292.837 216.772C292.598 216.874 292.341 216.928 292.081 216.93H288.625C288.625 222.77 288.465 223.746 289.265 224.738C290.401 226.178 292.129 225.698 293.025 223.49C293.201 222.991 293.568 222.583 294.045 222.355C294.522 222.127 295.07 222.098 295.569 222.274C296.068 222.45 296.476 222.817 296.704 223.294C296.932 223.771 296.961 224.319 296.785 224.818ZM164.081 16.8498C160.806 16.8328 157.56 17.4651 154.531 18.71C151.502 19.955 148.75 21.7879 146.433 24.1029C144.117 26.4179 142.282 29.169 141.035 32.1972C139.789 35.2255 139.154 38.4709 139.169 41.7458C139.825 74.7058 188.337 74.7218 188.977 41.7458C188.994 38.4716 188.362 35.2266 187.116 32.1985C185.871 29.1703 184.038 26.419 181.723 24.1038C179.408 21.7886 176.657 19.9554 173.628 18.7103C170.6 17.4652 167.355 16.8328 164.081 16.8498ZM171.265 29.4258C171.02 29.8852 170.604 30.23 170.107 30.3856C169.611 30.5413 169.072 30.4954 168.609 30.2578C167.784 29.804 166.825 29.6548 165.901 29.8361C164.977 30.0174 164.146 30.5178 163.553 31.2498C161.713 33.1698 161.793 39.6978 161.793 40.0498L166.593 39.3138C167.111 39.2353 167.638 39.3656 168.06 39.6762C168.482 39.9868 168.763 40.4521 168.841 40.9698C168.92 41.4875 168.789 42.0152 168.479 42.4367C168.168 42.8583 167.703 43.1393 167.185 43.2178L161.809 44.0338C161.809 47.8418 161.985 51.5218 162.113 55.2338C162.09 55.7313 161.881 56.202 161.527 56.5525C161.174 56.903 160.701 57.1077 160.203 57.1258C159.706 57.1439 159.219 56.9742 158.841 56.6504C158.463 56.3266 158.22 55.8723 158.161 55.3778C157.985 50.1298 157.857 44.8018 157.793 39.1058C157.793 35.9058 157.793 31.7298 160.641 28.5778C165.105 23.6978 173.025 26.1458 171.265 29.4258Z" fill="url(#paint1_linear_416_14957)"/>
<path d="M239.872 232.144C246.416 213.136 246.096 214.256 245.984 214.096C245.872 213.936 225.184 213.552 213.696 213.776C209.115 206.907 203.128 201.089 196.13 196.706C189.133 192.323 181.284 189.476 173.104 188.352C171.861 186.988 170.145 186.147 168.304 186L166.304 185.312C166.225 183.75 166.225 182.186 166.304 180.624C170.794 178.914 174.463 175.555 176.56 171.232C178.912 165.952 177.744 159.2 176.368 142.032C179.664 143.056 179.744 139.664 177.744 137.008C177.835 136.44 177.806 135.86 177.661 135.304C177.515 134.748 177.256 134.228 176.9 133.777C176.544 133.326 176.098 132.954 175.591 132.684C175.083 132.414 174.526 132.252 173.952 132.208C174.26 131.736 174.438 131.191 174.467 130.628C174.497 130.066 174.378 129.505 174.121 129.004C173.864 128.502 173.48 128.077 173.007 127.771C172.533 127.466 171.987 127.291 171.424 127.264C171.091 126.532 170.537 125.922 169.84 125.52C169.143 125.119 168.337 124.945 167.536 125.024C167.423 124.486 167.168 123.988 166.798 123.581C166.428 123.174 165.956 122.874 165.43 122.711C164.905 122.548 164.346 122.528 163.81 122.653C163.275 122.779 162.783 123.045 162.384 123.424C162.048 122.912 161.216 121.648 160.784 121.168C161.126 120.831 161.362 120.402 161.461 119.932C161.561 119.463 161.52 118.975 161.344 118.528C162.128 118.283 162.814 117.793 163.3 117.131C163.786 116.47 164.049 115.67 164.049 114.848C164.049 114.027 163.786 113.227 163.3 112.565C162.814 111.903 162.128 111.413 161.344 111.168C162.608 106.56 158.288 103.728 154.368 105.568C154.156 105.039 153.793 104.586 153.323 104.264C152.853 103.942 152.298 103.767 151.728 103.76C154.928 99.7281 150.368 96.9121 146.032 98.2881C145.747 97.5566 145.268 96.9167 144.647 96.437C144.025 95.9574 143.285 95.6561 142.505 95.5656C141.725 95.4752 140.936 95.5989 140.221 95.9235C139.506 96.2481 138.893 96.7613 138.448 97.4081C137.399 97.1324 136.282 97.2796 135.34 97.8182C134.397 98.3567 133.704 99.2436 133.408 100.288C132.737 100.13 132.038 100.122 131.363 100.266C130.688 100.41 130.053 100.702 129.504 101.12C129.138 100.487 128.554 100.009 127.861 99.7757C127.168 99.5422 126.414 99.5692 125.739 99.8516C125.065 100.134 124.516 100.652 124.196 101.31C123.876 101.967 123.807 102.719 124 103.424C123.558 103.548 123.165 103.807 122.878 104.166C122.591 104.525 122.424 104.965 122.4 105.424C122.224 105.394 122.044 105.402 121.872 105.448C121.699 105.493 121.538 105.574 121.399 105.686C121.26 105.798 121.146 105.938 121.065 106.097C120.984 106.255 120.937 106.43 120.928 106.608C120.512 106.502 120.073 106.521 119.667 106.66C119.26 106.8 118.904 107.056 118.64 107.396C118.377 107.735 118.219 108.145 118.184 108.573C118.15 109.002 118.242 109.431 118.448 109.808C117.927 109.925 117.452 110.193 117.082 110.579C116.712 110.964 116.464 111.45 116.369 111.975C116.273 112.501 116.334 113.043 116.545 113.534C116.755 114.025 117.106 114.443 117.552 114.736C115.024 115.472 113.392 117.936 114.352 120.176C111.472 121.92 110.288 125.456 112.32 127.92C111.955 128.937 111.971 130.052 112.365 131.059C112.759 132.065 113.505 132.894 114.464 133.392C114.046 133.906 113.78 134.528 113.696 135.185C113.613 135.843 113.715 136.511 113.991 137.114C114.268 137.717 114.707 138.23 115.26 138.596C115.813 138.962 116.458 139.165 117.12 139.184C117.169 139.764 117.367 140.321 117.695 140.801C118.022 141.282 118.468 141.67 118.99 141.928C119.511 142.185 120.09 142.304 120.671 142.271C121.252 142.239 121.815 142.058 122.304 141.744C122.565 142.16 122.942 142.49 123.388 142.694C123.835 142.898 124.331 142.967 124.816 142.892C125.301 142.818 125.754 142.602 126.118 142.273C126.482 141.944 126.741 141.515 126.864 141.04C127.648 141.335 128.488 141.444 129.321 141.361C130.153 141.278 130.955 141.004 131.664 140.56C131.008 144.544 127.984 144.832 128.928 149.008C128.371 149.741 128.062 150.634 128.048 151.555C128.034 152.476 128.314 153.378 128.848 154.128C128.667 154.514 128.564 154.932 128.547 155.358C128.529 155.784 128.597 156.209 128.746 156.609C128.895 157.008 129.122 157.374 129.415 157.684C129.707 157.995 130.059 158.243 130.448 158.416C130.299 158.71 130.228 159.038 130.243 159.367C130.258 159.697 130.358 160.017 130.534 160.296C130.71 160.575 130.955 160.803 131.246 160.959C131.537 161.115 131.863 161.192 132.192 161.184C132.507 162.36 133.111 163.439 133.95 164.322C134.788 165.206 135.834 165.865 136.992 166.24C137.152 186.352 137.888 183.936 135.968 186.272C134.2 187.201 132.751 188.639 131.808 190.4C103.744 200.144 92.4165 222.4 88.7045 252.272C86.5605 251.936 86.4645 251.856 86.3845 252.128C85.5208 255.49 85.218 258.971 85.4885 262.432C85.4885 262.64 85.4885 262.624 88.0485 263.248C88.7685 275.584 95.4405 288.96 108.848 291.312C108.672 293.904 108.464 308.752 108.848 312.112C108.866 312.191 108.909 312.261 108.972 312.311C109.034 312.362 109.112 312.389 109.192 312.389C109.273 312.389 109.351 312.362 109.413 312.311C109.476 312.261 109.519 312.191 109.536 312.112C109.536 310.32 109.76 294.224 109.904 291.552C118.048 292.352 122.816 288.944 129.232 281.952C139.312 270.752 145.024 258.672 150.976 246C152.022 243.954 152.863 241.811 153.488 239.6C154.427 239.98 155.462 240.053 156.445 239.808C157.428 239.564 158.308 239.015 158.96 238.24C161.252 238.98 163.687 239.166 166.064 238.784C166.467 238.709 166.849 238.553 167.188 238.324C167.527 238.095 167.815 237.798 168.034 237.453C168.253 237.108 168.399 236.721 168.462 236.317C168.525 235.913 168.504 235.5 168.4 235.104C170.448 235.008 171.728 233.152 169.68 231.6C169.029 231.099 168.338 230.65 167.616 230.256C169.312 230.144 173.792 229.648 175.248 228.656C176.704 227.664 176.656 225.184 174.64 224.912C173.792 224.8 161.328 225.312 158.496 225.712C155.694 226.009 153.041 227.122 150.864 228.912C147.664 231.552 125.04 250.352 116.96 257.136C112.272 256.288 94.7045 253.28 90.0325 252.544C93.9045 220.272 107.056 200.976 131.376 191.888C129.888 197.968 137.088 204.208 139.376 206.064C143.136 209.152 149.28 212.464 154.544 211.024C157.888 210.128 160.384 207.552 161.984 203.344C169.088 209.504 172.432 208.816 173.552 208.24C177.856 205.984 177.68 195.008 174.096 189.728C181.776 190.917 189.127 193.678 195.69 197.838C202.253 201.998 207.888 207.467 212.24 213.904C204.896 214.064 205.344 214.064 205.28 214.256C203.545 218.937 201.86 223.636 200.224 228.352C199.584 224.368 198.624 218.944 198.208 217.376C198.173 217.291 198.108 217.221 198.025 217.179C197.942 217.138 197.847 217.128 197.757 217.152C197.667 217.175 197.589 217.23 197.537 217.307C197.485 217.383 197.462 217.476 197.472 217.568C197.936 219.52 198.896 226.928 199.424 230.672C192.928 249.472 187.84 266.416 187.968 266.592C188.096 266.768 203.968 266.768 206.016 266.736C207.616 280.112 208.832 308 208.784 311.312C208.784 311.405 208.822 311.495 208.888 311.561C208.954 311.627 209.043 311.664 209.136 311.664C209.23 311.664 209.319 311.627 209.385 311.561C209.451 311.495 209.488 311.405 209.488 311.312C209.776 305.424 209.488 287.728 209.216 283.904C213 283.276 216.468 281.408 219.072 278.592C221.024 276.592 223.872 270.672 225.84 265.904C228.944 265.696 229.04 265.744 229.04 265.536C230.864 261.296 232.672 256.304 234.192 251.44C241.744 250.304 245.568 239.712 242.512 234.912C241.827 233.822 240.929 232.88 239.872 232.144ZM109.424 266.16C110.448 265.984 109.312 264.56 147.936 232.816C154.336 227.584 154.832 227.088 162.592 226.56C165.472 226.368 172.944 226.096 173.792 226.08C174.448 226.08 175.024 226.08 174.976 226.672C174.976 227.696 173.376 228 172.272 228.272C168.961 229.074 165.568 229.492 162.16 229.52C162.059 229.52 161.961 229.561 161.889 229.633C161.817 229.705 161.776 229.802 161.776 229.904C161.776 230.006 161.817 230.104 161.889 230.176C161.961 230.248 162.059 230.288 162.16 230.288H165.488C166.509 230.782 167.483 231.366 168.4 232.032C168.784 232.304 169.472 232.56 169.52 232.928C169.776 235.056 164.4 233.088 162.512 232.176C162.447 232.142 162.37 232.136 162.3 232.158C162.229 232.181 162.17 232.23 162.136 232.296C162.103 232.362 162.096 232.438 162.119 232.509C162.141 232.579 162.191 232.638 162.256 232.672C163.616 233.52 168.32 235.168 167.232 236.768C165.84 238.784 162.192 237.92 159.776 237.44C160.281 237.032 160.888 236.77 161.531 236.683C162.174 236.595 162.829 236.686 163.424 236.944C163.506 236.964 163.592 236.955 163.667 236.918C163.742 236.88 163.801 236.817 163.834 236.74C163.867 236.663 163.871 236.577 163.846 236.497C163.82 236.417 163.768 236.348 163.696 236.304C162.714 235.89 161.626 235.793 160.586 236.025C159.545 236.257 158.602 236.808 157.888 237.6C155.984 239.424 153.616 238.992 151.776 237.136C151.711 237.078 151.626 237.045 151.539 237.044C151.451 237.042 151.365 237.072 151.298 237.128C151.23 237.184 151.185 237.263 151.17 237.349C151.155 237.436 151.172 237.525 151.216 237.6C151.584 238.165 152.063 238.65 152.624 239.024C149.774 246.035 146.57 252.897 143.024 259.584C136.624 271.584 130.128 280.064 122.832 286.24C114.928 293.04 103.312 290.544 96.6405 282.768C92.6405 278.144 90.1285 271.664 89.2005 263.568C92.5285 264.144 105.824 266.048 109.424 266.16ZM137.168 132.688C135.788 133.658 134.721 135.009 134.096 136.576C133.472 136.025 132.989 135.332 132.688 134.555C132.388 133.778 132.278 132.94 132.368 132.112C133.792 125.712 140.368 120.112 145.824 118.464C149.184 117.104 157.728 118.624 160.48 122.736C159.583 122.655 158.687 122.911 157.968 123.456C157.538 122.896 156.987 122.441 156.355 122.124C155.724 121.807 155.03 121.637 154.324 121.626C153.617 121.615 152.918 121.764 152.277 122.062C151.637 122.359 151.072 122.798 150.624 123.344C149.749 123.599 148.959 124.086 148.336 124.752C147.748 124.437 147.079 124.301 146.414 124.36C145.749 124.42 145.116 124.673 144.592 125.088C144.035 125.239 143.545 125.575 143.203 126.039C142.86 126.504 142.684 127.071 142.704 127.648C142.002 127.579 141.293 127.657 140.623 127.879C139.953 128.101 139.337 128.462 138.815 128.937C138.294 129.412 137.877 129.991 137.594 130.638C137.31 131.284 137.165 131.982 137.168 132.688ZM167.424 199.168C159.952 206.912 137.504 197.888 136.048 190.688C135.933 189.914 136.002 189.124 136.25 188.382C136.497 187.64 136.916 186.966 137.472 186.416C137.632 186.256 137.744 186.08 137.904 185.92C137.923 185.874 137.923 185.822 137.904 185.776L138.208 185.392C138.608 184.64 138.112 168.72 138.032 166.432C138.635 166.44 139.224 166.257 139.715 165.909C140.207 165.561 140.576 165.067 140.768 164.496C141.109 164.681 141.497 164.762 141.884 164.728C142.27 164.693 142.638 164.545 142.94 164.302C143.243 164.06 143.467 163.733 143.585 163.363C143.702 162.993 143.708 162.597 143.6 162.224L147.536 158C147.531 158.525 147.676 159.041 147.954 159.487C148.233 159.932 148.633 160.289 149.107 160.514C149.582 160.74 150.111 160.825 150.632 160.759C151.153 160.693 151.645 160.48 152.048 160.144C152.462 159.844 152.804 159.455 153.05 159.007C153.296 158.559 153.441 158.062 153.472 157.552C153.479 157.497 153.466 157.441 153.436 157.395C153.405 157.348 153.36 157.314 153.307 157.297C153.255 157.28 153.198 157.282 153.146 157.302C153.094 157.322 153.051 157.36 153.024 157.408C152.759 157.807 152.365 158.103 151.909 158.248C151.452 158.394 150.96 158.379 150.512 158.208C150.669 157.545 150.638 156.851 150.423 156.204C150.209 155.557 149.819 154.982 149.296 154.544C146.896 146.864 147.12 143.824 151.424 140.944C154.624 138.528 165.824 133.152 173.36 140.016C173.878 140.618 174.495 141.126 175.184 141.52C177.136 168.096 178.384 168.448 171.088 176.16C168.854 178.426 165.877 179.812 162.704 180.064C162.144 180.064 162.08 180.88 162.704 180.944C163.517 181.056 164.34 181.056 165.152 180.944C165.152 186.368 164.912 185.952 166.464 186.496C171.76 188.944 171.296 195.12 167.424 199.168ZM214.48 280.48C212.8 281.412 211.003 282.117 209.136 282.576C208.896 279.888 207.92 271.376 207.28 266.576C213.104 266.448 218.96 266.208 224.544 265.856C222.208 271.68 218.672 278.432 214.48 280.48ZM225.056 227.68C221.536 227.584 221.536 223.232 225.056 223.136C228.576 223.04 228.576 227.664 225.056 227.76V227.68ZM210.8 219.44C210.054 219.886 209.449 220.535 209.056 221.312C208.576 222.224 194.832 259.616 194.176 261.744C194.143 261.859 194.064 261.955 193.959 262.012C193.854 262.069 193.731 262.082 193.616 262.048C193.502 262.014 193.405 261.936 193.348 261.831C193.291 261.726 193.279 261.603 193.312 261.488C194.128 258.464 205.984 224.512 206.112 224.304C208.944 217.232 210.048 217.344 215.456 217.168C217.936 217.088 235.984 217.008 238.592 217.44C239.168 217.536 239.04 218.352 238.592 218.4C237.168 218.576 211.92 218.96 210.8 219.52V219.44ZM234.672 249.84C235.28 247.792 235.84 245.792 236.272 243.888C236.985 244.176 237.725 244.391 238.48 244.528C238.563 244.547 238.65 244.533 238.722 244.488C238.794 244.443 238.845 244.371 238.864 244.288C238.884 244.205 238.869 244.118 238.824 244.046C238.779 243.974 238.707 243.923 238.624 243.904C236.88 243.222 235.259 242.26 233.824 241.056C232.848 239.952 232.4 239.136 233.536 238.336C235.712 240.048 238.544 241.536 239.584 242.288C239.651 242.321 239.726 242.33 239.798 242.313C239.87 242.296 239.934 242.255 239.979 242.197C240.024 242.139 240.048 242.066 240.046 241.993C240.044 241.919 240.017 241.848 239.968 241.792C238.8 240.736 234.848 238.08 232.784 236.016C232.752 235.69 232.82 235.361 232.98 235.075C233.141 234.789 233.385 234.559 233.68 234.416C235.537 236.035 237.565 237.446 239.728 238.624C239.799 238.667 239.883 238.681 239.964 238.663C240.044 238.645 240.115 238.597 240.16 238.528C240.4 238.224 240.16 238.112 238.56 236.784C237.36 235.792 235.68 234.4 234.448 233.184C232.704 231.584 236.048 231.872 239.104 233.184C240.169 233.792 241.036 234.693 241.603 235.779C242.17 236.865 242.414 238.091 242.304 239.312C242.064 243.936 239.216 248.736 234.672 250V249.84ZM103.552 19.4241C102.91 19.5178 102.255 19.3879 101.696 19.0561C101.328 18.1188 100.704 17.3039 99.8946 16.7042C99.0856 16.1045 98.1244 15.7441 97.1205 15.6641C94.6725 15.8241 94.1925 19.2801 92.3205 19.5361C91.2005 19.6961 89.8245 18.5441 88.2245 16.1441C88.2048 16.1035 88.1741 16.0693 88.1359 16.0453C88.0977 16.0214 88.0536 16.0087 88.0085 16.0087C87.9634 16.0087 87.9192 16.0214 87.881 16.0453C87.8428 16.0693 87.8121 16.1035 87.7925 16.1441C87.616 16.7446 87.5632 17.3748 87.6375 17.9964C87.7118 18.6179 87.9114 19.218 88.2245 19.7601C87.9652 19.7481 87.7198 19.6397 87.5365 19.4561C86.9925 18.9281 86.7205 20.8801 88.0325 22.2241C87.6297 22.2026 87.2366 22.0934 86.8805 21.9041C86.0805 21.2801 86.4165 24.5761 89.0405 26.0801C88.2983 26.0331 87.5731 25.8376 86.908 25.505C86.2429 25.1724 85.6513 24.7096 85.1685 24.1441C85.137 24.1004 85.0918 24.0686 85.04 24.0538C84.9883 24.0389 84.9331 24.0419 84.8833 24.0622C84.8334 24.0825 84.7919 24.119 84.7652 24.1657C84.7386 24.2125 84.7285 24.2668 84.7365 24.3201C85.0208 26.6938 86.118 28.8959 87.8417 30.5526C89.5654 32.2092 91.8093 33.2181 94.1925 33.4081C99.4885 33.4081 102.832 27.7121 101.6 23.3441C101.913 23.2458 102.248 23.2458 102.56 23.3441C102.607 23.3787 102.664 23.3956 102.721 23.3915C102.779 23.3874 102.833 23.3626 102.874 23.3218C102.915 23.2809 102.94 23.2267 102.944 23.1691C102.948 23.1115 102.931 23.0543 102.896 23.0081C102.733 22.7471 102.624 22.4558 102.575 22.1516C102.527 21.8474 102.541 21.5366 102.615 21.2378C102.69 20.939 102.824 20.6583 103.01 20.4126C103.196 20.167 103.429 19.9613 103.696 19.8081C103.722 19.7757 103.739 19.7372 103.745 19.6965C103.751 19.6558 103.747 19.6142 103.732 19.5756C103.718 19.537 103.694 19.5028 103.662 19.4763C103.631 19.4497 103.593 19.4317 103.552 19.4241ZM98.6245 20.6561C98.3076 20.6207 98.0149 20.4698 97.8023 20.2321C97.5898 19.9945 97.4722 19.6869 97.4722 19.3681C97.4722 19.0492 97.5898 18.7416 97.8023 18.504C98.0149 18.2664 98.3076 18.1154 98.6245 18.0801C98.9413 18.1154 99.234 18.2664 99.4466 18.504C99.6592 18.7416 99.7767 19.0492 99.7767 19.3681C99.7767 19.6869 99.6592 19.9945 99.4466 20.2321C99.234 20.4698 98.9413 20.6207 98.6245 20.6561ZM55.5365 180.192C50.3234 179.901 45.0941 180.164 39.9365 180.976C39.8828 180.984 39.8337 181.011 39.7984 181.052C39.7631 181.093 39.7439 181.146 39.7445 181.2C39.7314 183.986 40.1084 186.759 40.8645 189.44C40.8799 189.484 40.9077 189.523 40.9447 189.551C40.9816 189.579 41.026 189.596 41.0725 189.6C45.7022 189.968 50.3581 189.839 54.9605 189.216C55.8725 189.088 56.5285 180.256 55.5365 180.192ZM51.2325 185.424C51.1266 185.945 50.8694 186.424 50.4928 186.8C50.1163 187.176 49.6372 187.432 49.1156 187.537C48.594 187.642 48.0531 187.591 47.5605 187.39C47.068 187.189 46.6457 186.847 46.3465 186.407C46.0473 185.967 45.8846 185.448 45.8787 184.916C45.8727 184.384 46.0239 183.862 46.3132 183.416C46.6025 182.969 47.0171 182.618 47.505 182.406C47.993 182.194 48.5327 182.131 49.0565 182.224C49.4115 182.287 49.7502 182.421 50.0528 182.617C50.3554 182.813 50.6158 183.068 50.8185 183.366C51.0213 183.664 51.1623 184 51.2334 184.353C51.3045 184.707 51.3042 185.071 51.2325 185.424ZM52.1605 178.352C52.4399 178.404 52.7268 178.399 53.0047 178.34C53.2825 178.281 53.546 178.167 53.78 178.006C54.014 177.845 54.214 177.639 54.3685 177.401C54.523 177.162 54.629 176.896 54.6805 176.616C54.7319 176.337 54.7279 176.05 54.6685 175.772C54.6091 175.494 54.4956 175.231 54.3344 174.997C54.1732 174.763 53.9675 174.563 53.729 174.408C53.4905 174.254 53.2239 174.148 52.9445 174.096C52.3801 173.992 51.7975 174.117 51.3249 174.442C50.8523 174.768 50.5284 175.268 50.4245 175.832C50.3205 176.396 50.445 176.979 50.7706 177.452C51.0961 177.924 51.5961 178.248 52.1605 178.352Z" fill="url(#paint2_linear_416_14957)"/>
<path d="M60.6087 173.073C52.6087 161.489 34.4007 165.585 32.1927 179.201C31.7458 181.482 31.8173 183.834 32.4019 186.083C32.9865 188.332 34.0693 190.421 35.5702 192.196C37.0711 193.97 38.9517 195.384 41.0729 196.334C43.1941 197.283 45.5016 197.744 47.8247 197.681C61.1367 197.681 67.4247 182.993 60.6087 173.073ZM57.2487 190.673C57.2391 190.719 57.2154 190.761 57.1809 190.792C57.1465 190.824 57.1031 190.844 57.0567 190.849C51.1123 191.647 45.1002 191.813 39.1207 191.345C39.073 191.339 39.0282 191.318 38.9914 191.287C38.9546 191.256 38.9273 191.215 38.9127 191.169C37.3235 185.281 37.0287 179.118 38.0487 173.105C38.056 173.054 38.0807 173.007 38.1186 172.972C38.1564 172.937 38.2053 172.917 38.2567 172.913C44.6934 172.174 51.1974 172.244 57.6167 173.121C57.6644 173.13 57.7082 173.153 57.7425 173.188C57.7768 173.222 57.7999 173.266 57.8087 173.313C58.8109 179.083 58.6203 184.996 57.2487 190.689V190.673Z" fill="url(#paint3_linear_416_14957)"/>
<defs>
<linearGradient id="paint0_linear_416_14957" x1="150.789" y1="66.3125" x2="150.789" y2="295.108" gradientUnits="userSpaceOnUse">
<stop stop-color="#5E0303"/>
<stop offset="1" stop-color="#8A0202"/>
</linearGradient>
<linearGradient id="paint1_linear_416_14957" x1="176.85" y1="7.9021" x2="176.85" y2="235.154" gradientUnits="userSpaceOnUse">
<stop stop-color="#5E0303"/>
<stop offset="1" stop-color="#8A0202"/>
</linearGradient>
<linearGradient id="paint2_linear_416_14957" x1="142.885" y1="15.6641" x2="142.885" y2="312.389" gradientUnits="userSpaceOnUse">
<stop stop-color="#5E0303"/>
<stop offset="1" stop-color="#8A0202"/>
</linearGradient>
<linearGradient id="paint3_linear_416_14957" x1="47.6445" y1="166.305" x2="47.6445" y2="197.687" gradientUnits="userSpaceOnUse">
<stop stop-color="#5E0303"/>
<stop offset="1" stop-color="#8A0202"/>
</linearGradient>
</defs>
</svg>
