<svg width="298" height="307" viewBox="0 0 298 307" fill="none" xmlns="http://www.w3.org/2000/svg">
<path d="M222.696 193.501C224.07 193.428 225.397 192.975 226.529 192.192C227.66 191.408 228.553 190.326 229.106 189.065C229.577 187.461 227.881 186.895 227.313 188.687C226.84 189.669 226.124 190.513 225.233 191.141C224.343 191.768 223.308 192.159 222.225 192.275C221.848 192.369 221.094 193.532 222.696 193.501Z" fill="url(#paint0_linear_416_14971)"/>
<path d="M225.524 179.909C224.968 177.829 222.129 179.72 223.827 181.702C224.298 182.268 226.101 182.076 225.524 179.909Z" fill="url(#paint1_linear_416_14971)"/>
<path d="M221.471 171.14C220.15 171.512 220.152 173.027 221.847 173.027C223.742 172.887 225.644 173.18 227.41 173.885C227.531 173.926 227.663 173.924 227.783 173.879C227.904 173.835 228.005 173.75 228.071 173.64C228.137 173.53 228.163 173.401 228.145 173.273C228.128 173.146 228.067 173.029 227.973 172.941C227.084 172.189 226.042 171.639 224.919 171.328C223.797 171.017 222.621 170.953 221.471 171.14Z" fill="url(#paint2_linear_416_14971)"/>
<path d="M216.381 175.847C215.121 175.134 213.637 174.931 212.233 175.28C211.376 175.564 211.479 176.507 212.327 176.602C213.435 176.64 214.524 176.896 215.532 177.356C216.662 177.835 216.939 176.332 216.381 175.847Z" fill="url(#paint3_linear_416_14971)"/>
<path d="M217.887 182.371C217.619 184.469 217.587 186.59 217.792 188.695C218.171 191.148 223.731 189.356 222.884 188.035C222.413 187.28 220.528 188.892 219.301 188.318C218.973 186.354 218.848 184.361 218.925 182.371C218.925 182.234 218.87 182.101 218.773 182.004C218.676 181.906 218.544 181.852 218.406 181.852C218.268 181.852 218.136 181.906 218.039 182.004C217.941 182.101 217.887 182.234 217.887 182.371Z" fill="url(#paint4_linear_416_14971)"/>
<path d="M216.002 183.028C217.413 182.17 216.098 179.254 214.873 180.197C213.928 180.764 214.3 184.059 216.002 183.028Z" fill="url(#paint5_linear_416_14971)"/>
<path d="M206.482 190.671C207.801 195.011 211.006 200.673 214.682 203.315C216.379 204.541 217.227 203.315 215.539 201.711C211.915 198.654 209.18 194.677 207.621 190.197C207.559 190.046 207.438 189.926 207.287 189.863C207.136 189.801 206.966 189.801 206.815 189.864C206.664 189.926 206.544 190.047 206.481 190.198C206.419 190.349 206.419 190.519 206.482 190.671Z" fill="url(#paint6_linear_416_14971)"/>
<path d="M237.118 195.202C237.579 194.813 237.212 194.07 236.646 194.345C231.368 196.609 227.692 204.818 230.237 210.67C230.614 211.425 231.651 211.142 231.462 210.291C230.048 203.034 231.911 199.598 237.118 195.202Z" fill="url(#paint7_linear_416_14971)"/>
<path d="M205.633 196.993C206.374 199.352 207.581 201.538 209.185 203.418C210.788 205.299 212.754 206.837 214.965 207.939C216.19 208.505 217.416 207.561 215.531 206.335C211.651 204.11 208.581 200.706 206.765 196.616C206.293 195.861 205.424 196.149 205.633 196.993Z" fill="url(#paint8_linear_416_14971)"/>
<path d="M209.687 190.482C211.808 194.872 215.367 198.402 219.772 200.484C225.899 203.22 227.126 198.974 232.405 195.483C232.97 195.105 232.686 194.35 232.026 194.539C227.313 195.671 226.842 201.899 220.244 198.691C216.395 196.55 213.151 193.465 210.818 189.727C210.708 189.601 210.557 189.52 210.392 189.498C210.227 189.476 210.06 189.515 209.921 189.608C209.783 189.7 209.683 189.84 209.64 190C209.597 190.161 209.613 190.332 209.687 190.482Z" fill="url(#paint9_linear_416_14971)"/>
<path d="M217.887 215.306C218.36 216.059 219.585 215.4 219.206 214.645C217.416 209.831 210.252 208.793 207.707 204.547C207.236 203.792 206.387 204.547 206.679 205.302C209.309 210.296 214.691 210.196 217.887 215.306Z" fill="url(#paint10_linear_416_14971)"/>
<path d="M209.027 175.761C209.373 180.387 210.292 184.951 211.761 189.35C211.949 190.011 213.175 189.728 212.986 188.973C210.998 182.597 210.2 175.909 210.63 169.244C211.297 169.487 212.007 169.588 212.715 169.541C213.423 169.494 214.114 169.301 214.743 168.972C215.373 168.644 215.927 168.188 216.371 167.634C216.815 167.08 217.139 166.439 217.322 165.753C219.869 169.527 227.409 169.149 229.766 165.753C229.106 170.942 235.139 180.095 236.364 178.396C236.93 177.539 237.495 176.604 238.532 176.321C242.397 175.094 243.056 182.454 240.7 183.492C239.672 183.964 237.589 182.634 238.815 185.945C240.442 190.268 241.827 194.678 242.962 199.155C243.151 200.004 244.187 199.627 244.187 198.778C243.358 194.201 242.095 189.714 240.417 185.377C241.294 185.265 242.107 184.859 242.723 184.225C243.339 183.591 243.723 182.766 243.81 181.886C244.913 181.485 245.898 180.814 246.675 179.934C247.452 179.054 247.997 177.994 248.259 176.849C248.522 175.705 248.494 174.513 248.178 173.382C247.862 172.251 247.269 171.217 246.451 170.374C251.541 165.279 250.599 156.88 242.774 156.974C243.259 155.429 243.266 153.772 242.793 152.223C242.321 150.674 241.391 149.304 240.127 148.293C238.862 147.282 237.321 146.678 235.707 146.561C234.093 146.443 232.482 146.816 231.084 147.633C228.256 139.99 216.662 142.254 216.379 149.048C209.027 143.009 199.505 152.445 205.161 159.71C198.753 159.813 198.188 175.101 209.027 175.761Z" fill="black"/>
<path d="M221.942 220.587C222.506 221.219 223.25 221.664 224.074 221.861C224.898 222.059 225.762 222 226.552 221.692C227.341 221.384 228.018 220.842 228.491 220.139C228.964 219.435 229.211 218.604 229.199 217.756C230.759 217.146 232.272 216.42 233.724 215.586C233.513 214.303 233.031 213.081 232.31 212C230.843 212.38 229.42 212.918 228.068 213.604C227.523 212.928 226.778 212.443 225.939 212.22C225.101 211.997 224.213 212.046 223.404 212.361C222.596 212.677 221.908 213.241 221.442 213.974C220.975 214.706 220.753 215.568 220.809 216.435C219.866 217.001 218.829 217.661 218.452 217.945C218.406 219.248 218.765 220.534 219.481 221.624C220.243 221.341 221.179 220.971 221.942 220.587ZM222.788 216.435C223.086 213.132 227.415 213.51 227.032 217.661C226.749 221.058 222.432 220.4 222.788 216.435Z" fill="url(#paint11_linear_416_14971)"/>
<path d="M201.299 252.479C201.016 247.761 200.828 236.625 202.053 232.473C202.242 231.718 203.184 231.53 203.081 233.134C202.764 239.549 202.827 245.977 203.27 252.384C210.388 252.155 217.512 252.502 224.574 253.422C221.556 245.496 217.314 220.867 216.843 217.659C216.372 214.451 209.962 212.279 206.56 208.977C198.643 211.807 187.613 220.679 179.035 232.756C182.19 239.641 184.775 246.774 186.764 254.083C191.576 253.278 196.428 252.743 201.299 252.479Z" fill="url(#paint12_linear_416_14971)"/>
<path d="M245.695 200.858C241.831 204.915 238.532 206.897 232.688 206.991C233.913 215.397 241.267 227.657 247.676 236.623C248.678 234.489 249.406 232.238 249.843 229.922C250.033 228.601 250.871 229.072 250.871 229.827C250.717 232.805 250.08 235.737 248.986 238.51C256.717 249.078 266.809 259.268 270.58 272.103C274.821 266.724 291.412 237.276 279.913 217.749C273.128 205.953 258.328 199.914 245.695 200.858Z" fill="url(#paint13_linear_416_14971)"/>
<path d="M259.553 286.161C266.247 286.255 269.356 286.255 275.011 286.255C277.935 278.99 280.951 264.742 281.988 252.945C275.954 272.484 266.811 281.731 259.553 286.161Z" fill="url(#paint14_linear_416_14971)"/>
<path d="M233.818 280.316C223.177 281.325 212.644 283.25 202.334 286.072C208.461 285.978 230.519 285.789 238.248 285.978C236.247 284.568 234.706 282.599 233.818 280.316Z" fill="url(#paint15_linear_416_14971)"/>
<path d="M232.319 277.955C233.452 277.784 233.262 276.068 232.131 276.257C204.863 280.088 200.333 283.357 188.674 284.371C187.072 284.466 185.761 286.164 187.92 286.164C194.897 286.164 206.396 282.579 213.937 281.163C220.528 279.842 225.723 278.976 232.319 277.955Z" fill="url(#paint16_linear_416_14971)"/>
<path d="M190.174 255.309C186.023 256.139 187.063 257.479 188.571 257.102C199.319 254.837 213.834 255.309 224.582 257.102C225.618 257.29 226.09 255.686 225.053 255.498C214.4 253.705 200.816 253.183 190.174 255.309Z" fill="url(#paint17_linear_416_14971)"/>
<path d="M256.537 252.852C257.005 253.235 257.951 252.664 257.566 251.995C248.658 241.385 240.739 229.983 233.905 217.93C233.528 217.269 232.397 217.93 232.68 218.59C236.27 225.768 250.363 247.814 256.537 252.852Z" fill="url(#paint18_linear_416_14971)"/>
<path d="M268.225 272.864C268.602 271.92 267.368 271.165 266.905 272.006C264.078 277.007 260.684 282.008 255.217 284.461C249.656 287.009 243.527 286.254 239.474 281.442C230.708 271.062 224.299 238.037 221.941 223.031C221.752 222.087 220.432 222.465 220.621 223.408C222.6 237.751 229.018 271.534 238.343 282.574C245.485 291.093 260.556 288.987 268.225 272.864Z" fill="url(#paint19_linear_416_14971)"/>
<path d="M234.05 123.201C234.994 122.923 235.935 122.634 236.878 122.343C236.312 124.702 235.652 127.061 235.087 129.42C234.144 132.816 235.464 133.099 236.218 131.873C238.574 128.193 241.025 124.419 243.57 120.833C247.059 115.832 247.906 116.304 241.496 116.493C242.628 114.321 243.759 112.15 244.796 109.973C245.832 107.796 238.857 110.256 238.197 110.823C238.065 110.907 237.969 111.038 237.927 111.19C237.885 111.341 237.901 111.503 237.971 111.643C238.041 111.784 238.161 111.894 238.307 111.951C238.454 112.009 238.616 112.01 238.763 111.955C239.517 111.766 241.119 111.011 242.91 110.634L239.8 116.863C239.611 117.335 239.8 117.901 240.365 117.901C241.591 117.901 242.91 117.807 244.136 117.807C241.779 121.204 239.423 124.695 237.066 128.092L239.046 121.298C239.096 121.162 239.107 121.015 239.08 120.873C239.052 120.731 238.986 120.6 238.889 120.493C238.792 120.386 238.667 120.308 238.529 120.266C238.39 120.225 238.243 120.223 238.103 120.26C237.161 120.543 236.124 120.921 235.19 121.204C235.755 118.467 236.509 115.731 237.169 112.898C237.358 112.144 236.227 111.955 235.944 112.615C234.847 115.696 233.965 118.848 233.305 122.051C233.013 122.634 233.392 123.393 234.05 123.201Z" fill="url(#paint20_linear_416_14971)"/>
<path d="M120.176 194.548C120.649 194.925 121.403 194.548 121.121 193.982C120.459 192.095 119.894 190.208 121.309 188.226C121.888 187.449 122.669 186.845 123.566 186.479C124.462 186.113 125.442 185.998 126.399 186.148C126.554 186.148 126.704 186.097 126.827 186.003C126.951 185.91 127.04 185.779 127.083 185.63C127.125 185.481 127.118 185.322 127.063 185.177C127.008 185.033 126.907 184.91 126.776 184.827C124.137 183.601 118.951 185.865 118.951 190.868C118.877 191.534 118.949 192.207 119.16 192.843C119.372 193.478 119.718 194.06 120.176 194.548Z" fill="url(#paint21_linear_416_14971)"/>
<path d="M116.595 205.673C116.604 205.879 116.693 206.074 116.842 206.216C116.991 206.359 117.19 206.438 117.396 206.438C117.602 206.438 117.8 206.359 117.95 206.216C118.099 206.074 118.187 205.879 118.197 205.673C118.401 203.934 118.273 202.173 117.82 200.483C116.877 197.18 113.767 195.954 113.861 192.651C113.955 190.67 114.332 188.688 114.427 186.801C114.425 186.647 114.365 186.499 114.26 186.386C114.154 186.274 114.011 186.205 113.857 186.193C113.703 186.181 113.551 186.228 113.43 186.323C113.308 186.418 113.227 186.555 113.201 186.707C112.824 188.594 112.447 190.481 112.259 192.368C111.882 196.52 114.709 197.652 115.841 200.294C116.602 201.978 116.863 203.844 116.595 205.673Z" fill="url(#paint22_linear_416_14971)"/>
<path d="M117.632 170.476L119.045 184.346C119.14 184.912 120.177 184.912 120.271 184.252C120.742 180.761 119.517 173.872 118.763 170.184C118.668 169.626 117.537 169.815 117.632 170.476Z" fill="url(#paint23_linear_416_14971)"/>
<path d="M127.153 195.956C127.52 196.716 128.473 196.144 128.284 195.484C128.002 193.88 127.342 191.993 130.452 191.993C132.997 191.993 133.366 194.257 133.28 196.333C133.092 200.202 129.793 203.504 129.793 206.995C129.796 207.193 129.871 207.382 130.003 207.528C130.135 207.674 130.316 207.768 130.511 207.791C130.707 207.814 130.904 207.765 131.067 207.653C131.229 207.542 131.346 207.375 131.395 207.184C132.338 203.315 132.715 203.693 134.034 200.485C135.174 198.094 135.343 195.354 134.505 192.842C132.62 188.596 124.154 189.764 127.153 195.956Z" fill="url(#paint24_linear_416_14971)"/>
<path d="M122.912 191.048C122.73 192.446 122.994 193.866 123.667 195.105C123.743 195.217 123.857 195.298 123.987 195.334C124.117 195.37 124.256 195.358 124.379 195.302C124.502 195.246 124.601 195.148 124.658 195.025C124.716 194.903 124.729 194.764 124.695 194.634C124.318 192.652 123.941 190.293 125.826 189.255C126.656 188.747 127.599 188.455 128.571 188.406C129.542 188.356 130.51 188.551 131.387 188.972C132.047 189.35 132.613 188.312 132.141 187.84C130.547 185.858 123.478 186.613 122.912 191.048Z" fill="url(#paint25_linear_416_14971)"/>
<path d="M80.3034 175.196C79.7379 175.29 79.1723 175.384 78.701 175.479C77.8527 172.837 75.3077 170.1 72.1972 171.233C68.8981 172.459 68.8021 176.045 68.9924 177.649C66.2503 177.932 63.4294 178.309 60.6959 178.592C60.541 178.629 60.4041 178.72 60.3099 178.848C60.2156 178.976 60.1701 179.134 60.1814 179.293C60.1927 179.452 60.2602 179.602 60.3718 179.715C60.4833 179.829 60.6316 179.899 60.7902 179.913C63.6179 179.725 66.4457 179.536 69.2752 179.442C70.9341 187.932 80.5159 185.628 79.1723 177.177C79.6436 177.083 80.1149 177.083 80.4919 176.988C81.5391 184.331 90.0669 184.557 89.258 175.856C90.0121 175.856 91.6145 175.479 90.8604 174.346C90.4834 173.78 89.635 174.158 89.0695 174.252C87.5613 168.024 80.5862 168.779 80.3034 175.196ZM70.5005 178.404C70.2177 176.233 70.689 173.969 72.1029 173.12C74.4594 171.61 76.8159 173.969 77.5699 176.988C79.1295 184.213 71.4157 185.743 70.5005 178.404ZM85.8647 180.857C82.4028 182.058 80.0772 174.185 83.1312 171.893C87.1877 168.714 89.8441 179.469 85.8613 180.857H85.8647Z" fill="url(#paint26_linear_416_14971)"/>
<path d="M80.492 185.858C78.3241 186.047 78.5126 186.991 79.9265 187.179C80.869 187.274 82.3772 187.085 82.8399 186.236C83.594 184.915 82.5571 182.743 81.2375 181.516C80.2949 180.573 79.8236 181.422 80.2092 181.894C81.0627 183.215 83.1313 185.387 80.492 185.858Z" fill="url(#paint27_linear_416_14971)"/>
<path d="M87.3729 183.309C87.2838 182.366 86.3447 182.366 86.3447 183.309C86.5332 189.727 85.8734 200.012 76.7303 200.767C73.1467 201.05 69.2821 199.352 66.1716 197.559C65.606 197.181 64.852 198.125 65.5118 198.597C68.6263 200.841 72.3304 202.121 76.1647 202.277C76.3533 203.787 76.7303 205.391 76.9188 206.9C77.3901 209.825 78.5212 208.41 78.3327 207.466C78.1342 205.698 77.8827 203.936 77.5786 202.182C86.4304 200.767 88.0705 190.667 87.3729 183.309Z" fill="url(#paint28_linear_416_14971)"/>
<path d="M74.4595 194.353C74.9812 194.602 75.5495 194.739 76.1275 194.753C76.7054 194.768 77.2799 194.66 77.8136 194.438C78.3472 194.215 78.828 193.883 79.2245 193.462C79.6211 193.04 79.9245 192.54 80.115 191.994C80.7748 190.579 80.3978 190.296 79.1724 190.296C77.9808 190.385 76.7843 190.202 75.6736 189.761C74.5629 189.32 73.567 188.631 72.7611 187.748C71.2084 186.451 70.8279 192.968 74.4595 194.353ZM78.9839 191.711C77.4758 194.627 72.9496 193.221 72.8571 189.824C74.645 191.093 76.7925 191.754 78.9839 191.711Z" fill="url(#paint29_linear_416_14971)"/>
<path d="M74.1767 178.12C73.9796 178.684 74.2692 180.196 75.2135 180.007C75.9676 179.912 75.9676 178.875 75.6848 178.214C75.3078 177.27 74.5383 177.077 74.1767 178.12Z" fill="url(#paint30_linear_416_14971)"/>
<path d="M84.6385 176.42C84.4363 177.077 84.7328 178.779 85.6668 178.402C86.1381 178.213 86.3266 177.741 86.2323 176.892C86.0524 175.847 84.9916 175.281 84.6385 176.42Z" fill="url(#paint31_linear_416_14971)"/>
<path d="M68.2364 172.551C69.6649 170.904 71.6413 169.831 73.7994 169.532C74.0232 169.486 74.2232 169.362 74.3632 169.181C74.5032 169.001 74.5739 168.776 74.5625 168.548C74.5511 168.319 74.4584 168.103 74.3011 167.937C74.1438 167.771 73.9323 167.668 73.7052 167.645C72.6145 167.654 71.5382 167.894 70.5469 168.349C69.5556 168.805 68.6719 169.465 67.9537 170.287C65.88 172.551 67.6555 173.196 68.2364 172.551Z" fill="url(#paint32_linear_416_14971)"/>
<path d="M43.162 171.326C43.0072 174.254 43.6873 177.166 45.1229 179.722C46.5584 182.279 48.6903 184.373 51.2699 185.763C51.7412 188.499 53.5321 191.709 56.9254 191.709C57.9391 196.752 58.6005 201.86 58.9049 206.995C58.8983 207.086 58.9105 207.177 58.9407 207.263C58.9709 207.348 59.0185 207.427 59.0804 207.494C59.1423 207.56 59.2172 207.613 59.3006 207.65C59.3839 207.686 59.4738 207.705 59.5647 207.705C59.6556 207.705 59.7455 207.686 59.8288 207.65C59.9121 207.613 59.9871 207.56 60.049 207.494C60.1109 207.427 60.1584 207.348 60.1886 207.263C60.2188 207.177 60.231 207.086 60.2245 206.995C60.127 202.082 59.5907 197.187 58.6221 192.37C58.4336 191.52 58.4336 189.82 57.491 189.915C55.6058 190.103 53.7206 188.499 53.1551 185.48C52.4953 182.272 54.2862 179.63 56.8312 180.848C57.2082 181.036 57.491 180.753 57.6795 180.565C61.3556 176.979 65.9743 170.374 65.9743 163.107C70.8757 165.279 82.6598 166.128 88.0325 164.333C87.6555 157.162 80.7746 146.122 65.503 147.632C48.4422 149.339 43.3299 162.36 43.162 171.326Z" fill="black"/>
<path d="M82.3772 168.4C83.5754 168.035 84.8551 168.035 86.0533 168.4C86.9959 168.683 86.9016 167.74 86.1475 167.079C85.5011 166.737 84.793 166.528 84.0647 166.463C83.3364 166.398 82.6025 166.479 81.9059 166.702C80.492 167.362 80.977 168.999 82.3772 168.4Z" fill="url(#paint33_linear_416_14971)"/>
<path d="M46.3665 155.474C47.4301 153.132 49.3061 151.254 51.6467 150.19C49.6673 135.469 29.1172 133.771 22.7933 148.401C16.4694 163.032 29.2046 170.018 31.8438 175.389C34.3888 180.767 35.8969 189.073 34.2003 192.373C32.5036 195.581 34.5773 195.77 36.9338 191.344C38.8189 187.758 42.2123 177.276 39.4788 168.602C36.5636 159.626 43.8215 154.814 46.3665 155.474Z" fill="black"/>
<path d="M143.555 230.494C131.584 230.313 111.788 229.834 100.948 230.778C92.463 231.532 90.3894 234.174 88.4099 241.536C85.5822 252.293 81.0577 270.317 79.5496 280.602C68.1592 280.433 56.7679 280.874 45.4245 281.923C41.1829 282.489 40.9001 285.603 42.2197 286.924C42.8795 287.584 43.7279 286.641 43.248 285.98C43.1546 285.813 43.0952 285.629 43.0731 285.439C43.051 285.248 43.0666 285.056 43.1192 284.872C43.1718 284.687 43.2602 284.516 43.3793 284.366C43.4985 284.216 43.6461 284.091 43.8136 283.999C46.17 282.394 74.7338 282.111 78.787 282.111C80.2951 282.111 80.7664 281.923 81.1434 280.319C83.9712 267.014 87.6559 251.727 91.0406 239.177C92.0689 235.118 95.188 232.948 100.185 232.57C112.816 231.532 130.633 232.099 144.017 232.287C148.732 232.382 151.558 234.269 151.183 239.555C150.711 246.631 144.489 268.335 142.226 276.356C141.509 279.501 140.401 282.544 138.927 285.414C138.362 286.357 139.776 287.397 140.341 286.443C142.035 282.899 143.392 279.202 144.394 275.403C147.411 264.835 151.654 249.548 152.974 240.206C153.556 233.797 149.966 230.592 143.555 230.494Z" fill="url(#paint34_linear_416_14971)"/>
<path d="M117.819 253.137C117.437 253.7 118.102 254.553 118.762 254.081C119.425 253.54 120.249 253.237 121.103 253.22C121.958 253.203 122.793 253.473 123.477 253.986C124.702 255.119 124.985 257.478 122.723 261.535C119.893 266.726 116.029 267.481 114.325 265.405C112.251 262.858 114.231 257.666 116.21 255.591C116.681 255.024 115.833 254.175 115.353 254.647C111.206 258.421 110.452 263.99 112.808 266.538C116.579 270.689 122.047 267.293 124.119 262.858C125.345 260.214 127.23 256.629 125.533 253.892C125.183 253.204 124.664 252.614 124.026 252.179C123.388 251.744 122.651 251.476 121.883 251.401C121.114 251.326 120.339 251.445 119.629 251.749C118.919 252.052 118.297 252.53 117.819 253.137Z" fill="url(#paint35_linear_416_14971)"/>
<path d="M129.132 137.163C131.31 135.763 128.472 132.066 126.219 134.331C124.325 136.125 127.35 138.307 129.132 137.163Z" fill="url(#paint36_linear_416_14971)"/>
<path d="M106.132 138.77C108.59 139.695 110.468 136.977 108.96 135.562C106.886 133.58 103.313 137.71 106.132 138.77Z" fill="url(#paint37_linear_416_14971)"/>
<path d="M116.595 138.205C119.896 139.234 121.119 134.997 117.915 134.242C115.841 133.77 113.863 137.351 116.595 138.205Z" fill="url(#paint38_linear_416_14971)"/>
<path d="M191.493 155.001C191.032 154.052 189.892 154.34 189.985 155.189C190.364 158.106 196.206 158.586 197.904 155.378C200.919 149.528 191.392 147.83 190.175 151.604C189.704 153.019 190.927 152.925 191.589 151.887C192.436 150.472 197.997 151.029 196.49 154.435C195.831 156.133 192.266 156.596 191.493 155.001Z" fill="url(#paint39_linear_416_14971)"/>
<path d="M287.982 289.739C217.688 288.986 101.727 287.557 13.349 291.71C12.7731 291.71 12.8554 293.595 13.4313 293.595C98.4136 291.356 176.092 289.636 288.065 292.224C288.801 292.224 288.717 289.746 287.982 289.739Z" fill="url(#paint40_linear_416_14971)"/>
<path d="M109.431 228.52C114.144 228.52 123.383 228.52 129.698 228.426C131.079 221.982 132.052 215.458 132.611 208.892C127.616 209.552 118.188 209.081 114.041 207.477C113.064 214.602 111.522 221.639 109.431 228.52Z" fill="url(#paint41_linear_416_14971)"/>
<path d="M39.5881 286.162C39.3191 284.997 39.4522 283.775 39.9657 282.695C40.4792 281.616 41.3429 280.742 42.4158 280.217C44.9608 278.99 71.0739 278.802 77.2059 278.519C77.4886 277.009 78.337 272.952 79.5623 267.668C64.1317 264.567 48.4491 262.893 32.7123 262.667C31.2985 262.667 31.864 261.344 32.7123 261.344C34.9745 261.25 37.2368 261.25 39.499 261.25C41.2422 254.348 43.8393 247.692 47.2299 241.434C47.6069 240.774 48.4553 241.151 48.1725 241.812C45.2518 248.094 42.9162 254.632 41.1956 261.344C54.2347 261.843 67.2176 263.326 80.0336 265.78C82.1073 256.815 84.9351 245.303 87.5743 237.566C89.8365 230.676 93.4184 228.978 98.2273 228.695C101.367 228.558 104.511 228.527 107.653 228.6C108.03 227.468 108.407 226.336 108.784 224.92C104.166 217.372 94.2667 210.671 80.7877 209.633C76.169 215.107 63.2539 214.541 56.1845 207.84C52.0371 208.312 38.361 211.331 30.1674 220.58C18.6661 233.79 3.01913 264.082 10.5598 280.028C14.3165 288.15 35.3379 286.639 39.5881 286.162Z" fill="url(#paint42_linear_416_14971)"/>
<path d="M169.477 65.1642C169.767 62.8052 168.158 50.8201 166.932 49.6878C166.86 49.6121 166.77 49.5556 166.671 49.5232C166.572 49.4908 166.466 49.4837 166.363 49.5024C166.26 49.5211 166.164 49.5651 166.082 49.6304C166.001 49.6957 165.936 49.7803 165.896 49.8766C165.518 50.7258 167.781 63.6527 168.063 65.1642C168.1 65.3246 168.19 65.4679 168.318 65.5706C168.447 65.6733 168.606 65.7292 168.77 65.7292C168.935 65.7292 169.094 65.6733 169.223 65.5706C169.351 65.4679 169.441 65.3246 169.477 65.1642Z" fill="url(#paint43_linear_416_14971)"/>
<path d="M182.769 113.29C182.839 113.148 182.871 112.99 182.861 112.831C182.852 112.673 182.801 112.52 182.715 112.387C182.629 112.254 182.509 112.145 182.369 112.072C182.228 111.999 182.071 111.964 181.912 111.969C180.31 111.969 178.142 115.085 170.223 113.951C169.366 113.857 168.809 115.085 169.657 115.462C174.663 117.346 182.005 115.081 182.769 113.29Z" fill="url(#paint44_linear_416_14971)"/>
<path d="M192.384 96.6849C195.782 98.6606 199.346 100.334 203.036 101.686C203.199 101.711 203.365 101.684 203.51 101.608C203.656 101.533 203.774 101.413 203.848 101.266C203.921 101.119 203.946 100.953 203.919 100.791C203.892 100.629 203.814 100.48 203.696 100.365C200.312 98.3886 196.744 96.7454 193.043 95.4583C192.881 95.3707 192.69 95.3513 192.513 95.4044C192.337 95.4575 192.188 95.5787 192.101 95.7413C192.013 95.904 191.994 96.0948 192.047 96.2717C192.1 96.4487 192.221 96.5973 192.384 96.6849Z" fill="url(#paint45_linear_416_14971)"/>
<path d="M174.38 117.538C174.187 117.497 173.985 117.529 173.815 117.629C173.644 117.729 173.517 117.889 173.458 118.078C173.399 118.267 173.413 118.471 173.496 118.65C173.579 118.83 173.727 118.971 173.909 119.048C176.266 120.369 180.422 118.859 178.811 117.444C178.063 116.783 176.922 118.032 174.38 117.538Z" fill="url(#paint46_linear_416_14971)"/>
<path d="M190.31 74.5064C191.717 73.9231 199.267 65.0706 200.492 63.3722C200.963 62.7117 199.926 62.0512 199.361 62.523C196.239 65.5388 193.28 68.7201 190.499 72.0531C188.708 74.0346 189.647 74.7809 190.31 74.5064Z" fill="url(#paint47_linear_416_14971)"/>
<path d="M166.555 104.328C166.631 104.496 166.764 104.633 166.931 104.713C167.097 104.794 167.287 104.814 167.466 104.769C167.646 104.724 167.804 104.617 167.913 104.468C168.022 104.318 168.075 104.135 168.063 103.95C167.403 99.7984 163.633 97.4309 161.551 94.0426C157.215 86.9641 162.964 78.8494 170.317 76.9622C176.351 75.3581 183.138 77.5283 184.74 84.7939C186.154 91.0232 183.326 95.5523 181.347 101.214C180.97 102.44 182.204 102.818 182.761 101.686C185.306 96.8819 187.756 91.1175 187.002 85.6431C185.683 76.8678 178.33 72.9992 170.128 74.9807C162.964 76.7735 156.838 83.0011 158.063 90.8344C159.108 97.2508 164.726 99.023 166.555 104.328Z" fill="url(#paint48_linear_416_14971)"/>
<path d="M168.637 111.493C170.806 112.266 173.123 112.531 175.41 112.269C177.698 112.008 179.895 111.226 181.834 109.984C182.682 109.323 182.305 107.908 181.08 108.38C176.084 110.172 174.104 110.644 169.201 109.984C168.346 109.889 167.781 111.125 168.637 111.493Z" fill="url(#paint49_linear_416_14971)"/>
<path d="M142.705 104.609C142.049 105.467 142.705 106.59 144.591 105.269C147.209 103.638 149.699 101.808 152.039 99.7967C152.164 99.6871 152.245 99.5356 152.267 99.3705C152.289 99.2054 152.25 99.0379 152.158 98.8993C152.066 98.7607 151.926 98.6605 151.766 98.6173C151.605 98.574 151.434 98.5908 151.285 98.6644C148.255 100.389 145.384 102.378 142.705 104.609Z" fill="url(#paint50_linear_416_14971)"/>
<path d="M149.786 79.4169C149.942 79.4575 150.107 79.4421 150.252 79.3733C150.397 79.3045 150.514 79.1866 150.581 79.0404C150.649 78.8942 150.663 78.7289 150.621 78.5735C150.579 78.4181 150.483 78.2824 150.351 78.1902C146.581 75.7429 142.643 73.5644 138.567 71.671C138.398 71.6178 138.215 71.6268 138.052 71.6962C137.888 71.7657 137.755 71.8912 137.676 72.0502C137.596 72.2092 137.576 72.3913 137.618 72.5639C137.661 72.7364 137.763 72.8882 137.908 72.992C141.71 75.4121 145.68 77.5591 149.786 79.4169Z" fill="url(#paint51_linear_416_14971)"/>
<path d="M168.638 107.909C171.767 108.892 179.668 107.343 181.365 106.022C182.496 105.079 181.459 103.758 180.045 104.324C176.527 105.661 172.775 106.271 169.015 106.117C167.31 106.022 167.036 107.412 168.638 107.909Z" fill="url(#paint52_linear_416_14971)"/>
<path d="M176.265 102.44C176.145 97.4669 176.587 92.4965 177.585 87.6237C177.609 87.4665 177.572 87.3061 177.483 87.1747C177.393 87.0432 177.258 86.9504 177.103 86.9146C176.948 86.8789 176.786 86.9029 176.648 86.9818C176.51 87.0608 176.407 87.1889 176.36 87.3406C175.12 92.2706 174.674 97.3672 175.04 102.438C175.035 102.521 175.048 102.604 175.077 102.683C175.105 102.761 175.15 102.833 175.207 102.893C175.264 102.954 175.333 103.002 175.41 103.035C175.486 103.068 175.568 103.085 175.652 103.085C175.735 103.085 175.818 103.069 175.894 103.036C175.971 103.003 176.04 102.955 176.097 102.894C176.155 102.834 176.199 102.762 176.228 102.684C176.257 102.606 176.27 102.523 176.265 102.44Z" fill="url(#paint53_linear_416_14971)"/>
<path d="M174.003 86.776C171.512 87.4419 168.946 87.7878 166.367 87.8053C166.224 87.8064 166.085 87.8457 165.963 87.9192C165.841 87.9927 165.741 88.0976 165.674 88.223C165.606 88.3484 165.574 88.4897 165.58 88.632C165.586 88.7743 165.629 88.9125 165.707 89.032C167.639 93.405 169.339 97.8776 170.799 102.431C171.081 103.289 171.93 103.091 171.741 102.242C170.86 97.7874 169.468 93.4497 167.592 89.315C169.937 89.2042 172.255 88.7594 174.475 87.994C174.618 87.9194 174.729 87.7945 174.786 87.6431C174.843 87.4917 174.843 87.3245 174.784 87.1737C174.726 87.0228 174.614 86.8987 174.47 86.8254C174.326 86.752 174.16 86.7344 174.003 86.776Z" fill="url(#paint54_linear_416_14971)"/>
<path d="M105.661 152.545C105.894 157.059 105.184 161.571 103.578 165.795C101.971 170.019 99.5024 173.862 96.3295 177.078C94.5386 178.87 96.0467 179.248 97.8376 178.587C106.321 175.285 113.947 165.566 116.124 156.883C116.501 155.374 115.181 155.468 114.993 156.412C113.836 160.68 111.817 164.666 109.061 168.123C106.305 171.58 102.87 174.435 98.9687 176.511C104.739 170.01 107.752 161.514 107.366 152.826C107.272 151.411 107.084 151.316 105.387 151.033C90.8693 148.769 85.4966 127.914 108.403 119.516C128.859 112.06 144.602 125.932 141.018 139.899C138.379 150.373 127.257 151.977 118.112 151.977C116.886 151.977 116.981 153.487 118.206 153.487C127.632 153.675 138.379 152.354 141.867 142.919C149.407 122.819 128.293 111.866 110.477 116.874C81.6234 125.179 88.8813 151.884 105.661 152.545Z" fill="url(#paint55_linear_416_14971)"/>
<defs>
<linearGradient id="paint0_linear_416_14971" x1="225.451" y1="187.578" x2="225.451" y2="193.502" gradientUnits="userSpaceOnUse">
<stop stop-color="#5E0303"/>
<stop offset="1" stop-color="#8A0202"/>
</linearGradient>
<linearGradient id="paint1_linear_416_14971" x1="224.464" y1="179.004" x2="224.464" y2="181.973" gradientUnits="userSpaceOnUse">
<stop stop-color="#5E0303"/>
<stop offset="1" stop-color="#8A0202"/>
</linearGradient>
<linearGradient id="paint2_linear_416_14971" x1="224.337" y1="171.035" x2="224.337" y2="173.914" gradientUnits="userSpaceOnUse">
<stop stop-color="#5E0303"/>
<stop offset="1" stop-color="#8A0202"/>
</linearGradient>
<linearGradient id="paint3_linear_416_14971" x1="214.149" y1="175.113" x2="214.149" y2="177.449" gradientUnits="userSpaceOnUse">
<stop stop-color="#5E0303"/>
<stop offset="1" stop-color="#8A0202"/>
</linearGradient>
<linearGradient id="paint4_linear_416_14971" x1="220.315" y1="181.852" x2="220.315" y2="189.914" gradientUnits="userSpaceOnUse">
<stop stop-color="#5E0303"/>
<stop offset="1" stop-color="#8A0202"/>
</linearGradient>
<linearGradient id="paint5_linear_416_14971" x1="215.489" y1="180.012" x2="215.489" y2="183.227" gradientUnits="userSpaceOnUse">
<stop stop-color="#5E0303"/>
<stop offset="1" stop-color="#8A0202"/>
</linearGradient>
<linearGradient id="paint6_linear_416_14971" x1="211.446" y1="189.816" x2="211.446" y2="203.814" gradientUnits="userSpaceOnUse">
<stop stop-color="#5E0303"/>
<stop offset="1" stop-color="#8A0202"/>
</linearGradient>
<linearGradient id="paint7_linear_416_14971" x1="233.369" y1="194.285" x2="233.369" y2="211.108" gradientUnits="userSpaceOnUse">
<stop stop-color="#5E0303"/>
<stop offset="1" stop-color="#8A0202"/>
</linearGradient>
<linearGradient id="paint8_linear_416_14971" x1="211.052" y1="196.18" x2="211.052" y2="208.107" gradientUnits="userSpaceOnUse">
<stop stop-color="#5E0303"/>
<stop offset="1" stop-color="#8A0202"/>
</linearGradient>
<linearGradient id="paint9_linear_416_14971" x1="221.162" y1="189.492" x2="221.162" y2="201.358" gradientUnits="userSpaceOnUse">
<stop stop-color="#5E0303"/>
<stop offset="1" stop-color="#8A0202"/>
</linearGradient>
<linearGradient id="paint10_linear_416_14971" x1="212.949" y1="204.234" x2="212.949" y2="215.638" gradientUnits="userSpaceOnUse">
<stop stop-color="#5E0303"/>
<stop offset="1" stop-color="#8A0202"/>
</linearGradient>
<linearGradient id="paint11_linear_416_14971" x1="226.086" y1="212" x2="226.086" y2="221.976" gradientUnits="userSpaceOnUse">
<stop stop-color="#5E0303"/>
<stop offset="1" stop-color="#8A0202"/>
</linearGradient>
<linearGradient id="paint12_linear_416_14971" x1="201.805" y1="208.977" x2="201.805" y2="254.083" gradientUnits="userSpaceOnUse">
<stop stop-color="#5E0303"/>
<stop offset="1" stop-color="#8A0202"/>
</linearGradient>
<linearGradient id="paint13_linear_416_14971" x1="258.295" y1="200.762" x2="258.295" y2="272.103" gradientUnits="userSpaceOnUse">
<stop stop-color="#5E0303"/>
<stop offset="1" stop-color="#8A0202"/>
</linearGradient>
<linearGradient id="paint14_linear_416_14971" x1="270.77" y1="252.945" x2="270.77" y2="286.255" gradientUnits="userSpaceOnUse">
<stop stop-color="#5E0303"/>
<stop offset="1" stop-color="#8A0202"/>
</linearGradient>
<linearGradient id="paint15_linear_416_14971" x1="220.291" y1="280.316" x2="220.291" y2="286.072" gradientUnits="userSpaceOnUse">
<stop stop-color="#5E0303"/>
<stop offset="1" stop-color="#8A0202"/>
</linearGradient>
<linearGradient id="paint16_linear_416_14971" x1="209.933" y1="276.242" x2="209.933" y2="286.164" gradientUnits="userSpaceOnUse">
<stop stop-color="#5E0303"/>
<stop offset="1" stop-color="#8A0202"/>
</linearGradient>
<linearGradient id="paint17_linear_416_14971" x1="206.439" y1="253.922" x2="206.439" y2="257.167" gradientUnits="userSpaceOnUse">
<stop stop-color="#5E0303"/>
<stop offset="1" stop-color="#8A0202"/>
</linearGradient>
<linearGradient id="paint18_linear_416_14971" x1="245.145" y1="217.656" x2="245.145" y2="252.975" gradientUnits="userSpaceOnUse">
<stop stop-color="#5E0303"/>
<stop offset="1" stop-color="#8A0202"/>
</linearGradient>
<linearGradient id="paint19_linear_416_14971" x1="244.449" y1="222.484" x2="244.449" y2="287.497" gradientUnits="userSpaceOnUse">
<stop stop-color="#5E0303"/>
<stop offset="1" stop-color="#8A0202"/>
</linearGradient>
<linearGradient id="paint20_linear_416_14971" x1="239.732" y1="109.09" x2="239.732" y2="132.537" gradientUnits="userSpaceOnUse">
<stop stop-color="#5E0303"/>
<stop offset="1" stop-color="#8A0202"/>
</linearGradient>
<linearGradient id="paint21_linear_416_14971" x1="123.017" y1="184.5" x2="123.017" y2="194.7" gradientUnits="userSpaceOnUse">
<stop stop-color="#5E0303"/>
<stop offset="1" stop-color="#8A0202"/>
</linearGradient>
<linearGradient id="paint22_linear_416_14971" x1="115.258" y1="186.191" x2="115.258" y2="206.438" gradientUnits="userSpaceOnUse">
<stop stop-color="#5E0303"/>
<stop offset="1" stop-color="#8A0202"/>
</linearGradient>
<linearGradient id="paint23_linear_416_14971" x1="119.001" y1="169.855" x2="119.001" y2="184.76" gradientUnits="userSpaceOnUse">
<stop stop-color="#5E0303"/>
<stop offset="1" stop-color="#8A0202"/>
</linearGradient>
<linearGradient id="paint24_linear_416_14971" x1="130.774" y1="190.32" x2="130.774" y2="207.796" gradientUnits="userSpaceOnUse">
<stop stop-color="#5E0303"/>
<stop offset="1" stop-color="#8A0202"/>
</linearGradient>
<linearGradient id="paint25_linear_416_14971" x1="127.586" y1="186.805" x2="127.586" y2="195.354" gradientUnits="userSpaceOnUse">
<stop stop-color="#5E0303"/>
<stop offset="1" stop-color="#8A0202"/>
</linearGradient>
<linearGradient id="paint26_linear_416_14971" x1="75.6185" y1="169.961" x2="75.6185" y2="184.776" gradientUnits="userSpaceOnUse">
<stop stop-color="#5E0303"/>
<stop offset="1" stop-color="#8A0202"/>
</linearGradient>
<linearGradient id="paint27_linear_416_14971" x1="80.9784" y1="181.09" x2="80.9784" y2="187.202" gradientUnits="userSpaceOnUse">
<stop stop-color="#5E0303"/>
<stop offset="1" stop-color="#8A0202"/>
</linearGradient>
<linearGradient id="paint28_linear_416_14971" x1="76.3853" y1="182.602" x2="76.3853" y2="208.651" gradientUnits="userSpaceOnUse">
<stop stop-color="#5E0303"/>
<stop offset="1" stop-color="#8A0202"/>
</linearGradient>
<linearGradient id="paint29_linear_416_14971" x1="76.0352" y1="187.578" x2="76.0352" y2="194.755" gradientUnits="userSpaceOnUse">
<stop stop-color="#5E0303"/>
<stop offset="1" stop-color="#8A0202"/>
</linearGradient>
<linearGradient id="paint30_linear_416_14971" x1="74.9885" y1="177.418" x2="74.9885" y2="180.023" gradientUnits="userSpaceOnUse">
<stop stop-color="#5E0303"/>
<stop offset="1" stop-color="#8A0202"/>
</linearGradient>
<linearGradient id="paint31_linear_416_14971" x1="85.417" y1="175.793" x2="85.417" y2="178.456" gradientUnits="userSpaceOnUse">
<stop stop-color="#5E0303"/>
<stop offset="1" stop-color="#8A0202"/>
</linearGradient>
<linearGradient id="paint32_linear_416_14971" x1="70.7692" y1="167.645" x2="70.7692" y2="172.788" gradientUnits="userSpaceOnUse">
<stop stop-color="#5E0303"/>
<stop offset="1" stop-color="#8A0202"/>
</linearGradient>
<linearGradient id="paint33_linear_416_14971" x1="83.8965" y1="166.441" x2="83.8965" y2="168.53" gradientUnits="userSpaceOnUse">
<stop stop-color="#5E0303"/>
<stop offset="1" stop-color="#8A0202"/>
</linearGradient>
<linearGradient id="paint34_linear_416_14971" x1="97.2783" y1="230.211" x2="97.2783" y2="287.148" gradientUnits="userSpaceOnUse">
<stop stop-color="#5E0303"/>
<stop offset="1" stop-color="#8A0202"/>
</linearGradient>
<linearGradient id="paint35_linear_416_14971" x1="118.847" y1="251.379" x2="118.847" y2="268.418" gradientUnits="userSpaceOnUse">
<stop stop-color="#5E0303"/>
<stop offset="1" stop-color="#8A0202"/>
</linearGradient>
<linearGradient id="paint36_linear_416_14971" x1="127.765" y1="133.613" x2="127.765" y2="137.48" gradientUnits="userSpaceOnUse">
<stop stop-color="#5E0303"/>
<stop offset="1" stop-color="#8A0202"/>
</linearGradient>
<linearGradient id="paint37_linear_416_14971" x1="107.295" y1="135.031" x2="107.295" y2="138.958" gradientUnits="userSpaceOnUse">
<stop stop-color="#5E0303"/>
<stop offset="1" stop-color="#8A0202"/>
</linearGradient>
<linearGradient id="paint38_linear_416_14971" x1="117.523" y1="134.199" x2="117.523" y2="138.365" gradientUnits="userSpaceOnUse">
<stop stop-color="#5E0303"/>
<stop offset="1" stop-color="#8A0202"/>
</linearGradient>
<linearGradient id="paint39_linear_416_14971" x1="194.235" y1="149.594" x2="194.235" y2="157.587" gradientUnits="userSpaceOnUse">
<stop stop-color="#5E0303"/>
<stop offset="1" stop-color="#8A0202"/>
</linearGradient>
<linearGradient id="paint40_linear_416_14971" x1="150.766" y1="288.879" x2="150.766" y2="293.595" gradientUnits="userSpaceOnUse">
<stop stop-color="#5E0303"/>
<stop offset="1" stop-color="#8A0202"/>
</linearGradient>
<linearGradient id="paint41_linear_416_14971" x1="121.021" y1="207.477" x2="121.021" y2="228.52" gradientUnits="userSpaceOnUse">
<stop stop-color="#5E0303"/>
<stop offset="1" stop-color="#8A0202"/>
</linearGradient>
<linearGradient id="paint42_linear_416_14971" x1="58.6831" y1="207.84" x2="58.6831" y2="286.588" gradientUnits="userSpaceOnUse">
<stop stop-color="#5E0303"/>
<stop offset="1" stop-color="#8A0202"/>
</linearGradient>
<linearGradient id="paint43_linear_416_14971" x1="167.682" y1="49.4922" x2="167.682" y2="65.7292" gradientUnits="userSpaceOnUse">
<stop stop-color="#5E0303"/>
<stop offset="1" stop-color="#8A0202"/>
</linearGradient>
<linearGradient id="paint44_linear_416_14971" x1="176.049" y1="111.969" x2="176.049" y2="116.172" gradientUnits="userSpaceOnUse">
<stop stop-color="#5E0303"/>
<stop offset="1" stop-color="#8A0202"/>
</linearGradient>
<linearGradient id="paint45_linear_416_14971" x1="197.974" y1="95.375" x2="197.974" y2="101.695" gradientUnits="userSpaceOnUse">
<stop stop-color="#5E0303"/>
<stop offset="1" stop-color="#8A0202"/>
</linearGradient>
<linearGradient id="paint46_linear_416_14971" x1="176.297" y1="117.246" x2="176.297" y2="119.556" gradientUnits="userSpaceOnUse">
<stop stop-color="#5E0303"/>
<stop offset="1" stop-color="#8A0202"/>
</linearGradient>
<linearGradient id="paint47_linear_416_14971" x1="195.038" y1="62.3633" x2="195.038" y2="74.5612" gradientUnits="userSpaceOnUse">
<stop stop-color="#5E0303"/>
<stop offset="1" stop-color="#8A0202"/>
</linearGradient>
<linearGradient id="paint48_linear_416_14971" x1="172.523" y1="74.4727" x2="172.523" y2="104.792" gradientUnits="userSpaceOnUse">
<stop stop-color="#5E0303"/>
<stop offset="1" stop-color="#8A0202"/>
</linearGradient>
<linearGradient id="paint49_linear_416_14971" x1="175.252" y1="108.285" x2="175.252" y2="112.367" gradientUnits="userSpaceOnUse">
<stop stop-color="#5E0303"/>
<stop offset="1" stop-color="#8A0202"/>
</linearGradient>
<linearGradient id="paint50_linear_416_14971" x1="147.366" y1="98.5938" x2="147.366" y2="105.876" gradientUnits="userSpaceOnUse">
<stop stop-color="#5E0303"/>
<stop offset="1" stop-color="#8A0202"/>
</linearGradient>
<linearGradient id="paint51_linear_416_14971" x1="144.121" y1="71.6367" x2="144.121" y2="79.4391" gradientUnits="userSpaceOnUse">
<stop stop-color="#5E0303"/>
<stop offset="1" stop-color="#8A0202"/>
</linearGradient>
<linearGradient id="paint52_linear_416_14971" x1="174.71" y1="104.188" x2="174.71" y2="108.22" gradientUnits="userSpaceOnUse">
<stop stop-color="#5E0303"/>
<stop offset="1" stop-color="#8A0202"/>
</linearGradient>
<linearGradient id="paint53_linear_416_14971" x1="176.254" y1="86.8984" x2="176.254" y2="103.085" gradientUnits="userSpaceOnUse">
<stop stop-color="#5E0303"/>
<stop offset="1" stop-color="#8A0202"/>
</linearGradient>
<linearGradient id="paint54_linear_416_14971" x1="170.204" y1="86.7539" x2="170.204" y2="102.985" gradientUnits="userSpaceOnUse">
<stop stop-color="#5E0303"/>
<stop offset="1" stop-color="#8A0202"/>
</linearGradient>
<linearGradient id="paint55_linear_416_14971" x1="117.191" y1="115.668" x2="117.191" y2="178.891" gradientUnits="userSpaceOnUse">
<stop stop-color="#5E0303"/>
<stop offset="1" stop-color="#8A0202"/>
</linearGradient>
</defs>
</svg>
