<svg width="281" height="227" viewBox="0 0 281 227" fill="none" xmlns="http://www.w3.org/2000/svg">
<path fill-rule="evenodd" clip-rule="evenodd" d="M77.7541 34.7048V35.752C77.7541 36.0454 77.8707 36.3268 78.0782 36.5343C78.2856 36.7417 78.567 36.8583 78.8604 36.8583C79.1538 36.8583 79.4352 36.7417 79.6426 36.5343C79.8501 36.3268 79.9666 36.0454 79.9666 35.752V34.6458C79.9515 34.3549 79.8252 34.081 79.6138 33.8806C79.4025 33.6802 79.1222 33.5686 78.8309 33.569C78.685 33.5709 78.541 33.602 78.4073 33.6605C78.2736 33.7189 78.153 33.8036 78.0526 33.9095C77.9523 34.0154 77.8741 34.1403 77.8228 34.2769C77.7716 34.4135 77.7482 34.559 77.7541 34.7048ZM77.3264 31.622C78.9489 31.2385 80.2764 30.147 77.9164 30.2945C77.3318 30.3761 76.7547 30.5043 76.1906 30.678C73.9781 31.5925 75.8956 31.9613 77.3264 31.622ZM212.658 41.888C211.978 43.3141 210.841 44.472 209.427 45.1773C209.373 45.1968 209.326 45.2348 209.296 45.2848C209.266 45.3347 209.255 45.3935 209.264 45.4511C209.272 45.5086 209.301 45.5613 209.344 45.6002C209.387 45.6391 209.443 45.6616 209.501 45.664C209.979 45.7481 210.469 45.7132 210.93 45.5625C211.391 45.4118 211.807 45.1498 212.143 44.7999C212.478 44.4499 212.722 44.0226 212.853 43.5559C212.984 43.0892 212.998 42.5974 212.894 42.124C212.894 42.0614 212.869 42.0014 212.825 41.9572C212.78 41.9129 212.72 41.888 212.658 41.888ZM206.787 30.1913C206.504 30.1187 206.203 30.1598 205.949 30.3059C205.696 30.452 205.51 30.6914 205.43 30.973C205.297 31.4532 205.271 31.957 205.356 32.448C205.356 32.7414 205.473 33.0228 205.68 33.2303C205.888 33.4377 206.169 33.5543 206.463 33.5543C206.756 33.5543 207.037 33.4377 207.245 33.2303C207.452 33.0228 207.569 32.7414 207.569 32.448C207.569 31.386 207.805 30.4715 206.787 30.1913ZM156.062 175.11C154.867 174.505 132.019 175.995 131.444 178.562C131.326 179.122 131.695 181.276 132.344 181.63C133.627 182.308 155.605 181.069 156.814 178.68C157.158 178.098 157.272 177.409 157.132 176.748C156.993 176.088 156.611 175.503 156.062 175.11ZM132.624 181.01C132.169 180.295 131.924 179.468 131.916 178.621C132.211 177.293 144.38 176.57 145.722 176.482C145.69 177.674 145.997 178.85 146.607 179.874C144.926 180.14 133.421 181.438 132.624 181.054V181.01ZM155.737 178.06C154.572 178.886 148.657 179.638 147.241 179.815C147.365 178.648 147.118 177.471 146.533 176.452C148.289 176.334 153.908 176.025 155.575 176.172C156.018 176.497 156.032 177.5 155.737 178.09V178.06ZM117.299 178.606C117.259 178.581 117.213 178.568 117.166 178.568C117.119 178.568 117.073 178.581 117.033 178.606C117.033 178.458 88.8609 194.329 88.0054 196.011C87.9673 196.092 87.9475 196.18 87.9475 196.269C87.9475 196.358 87.9673 196.446 88.0054 196.527C88.9051 199.108 118.302 225.688 119.526 226.293C119.88 226.47 120.323 226.16 121.709 225.422C124.659 223.844 149.837 210.392 152.433 208.224C153.156 207.486 153.599 200.849 153.2 200.097C152.802 199.344 117.299 178.753 117.299 178.606ZM119.851 225.068C116.709 222.576 91.8256 200.156 89.0674 196.35C91.6339 193.931 116.458 179.55 117.21 179.107C121.016 181.423 148.407 198.091 151.917 200.451C150.062 200.987 148.297 201.797 146.681 202.855C145.84 203.666 147.935 205.171 150.84 207.988C146.401 210.849 124.379 222.649 119.851 225.068ZM151.681 207.147C151.534 207 147.979 203.533 147.817 203.401C149.25 202.506 150.726 201.684 152.242 200.937C152.246 203.021 152.049 205.101 151.652 207.147H151.681Z" fill="black"/>
<path fill-rule="evenodd" clip-rule="evenodd" d="M139.423 204.436C138.391 204.879 125.795 209.053 122.24 210.498C121.195 211.019 120.057 211.325 118.891 211.398C118.685 211.398 119.88 209.097 128.921 202.047C129.865 201.309 131.68 199.908 131.871 198.757C132.742 194.952 122.431 200.645 113.213 204.244C112.259 204.756 111.219 205.087 110.145 205.218C110.041 204.613 112.121 202.71 112.254 202.563C117.756 196.486 124.732 193.978 124.26 191.736C123.538 188.226 110.735 195.055 108.035 196.161C105.764 197.12 102.136 198.271 102.357 198.271C101.87 198.462 102.357 198.802 102.445 198.757C102.534 198.713 107.209 197.282 108.345 196.781C110.041 196.132 121.384 190.659 123.272 191.943C124.024 192.474 116 196.796 111.472 201.796C110.676 202.651 108.522 204.392 109.186 205.808C109.308 206.027 109.492 206.204 109.716 206.317C109.939 206.43 110.191 206.474 110.44 206.442C112.638 206.442 127.623 198.934 130.706 198.698C129.999 199.632 129.153 200.453 128.199 201.132C126.001 202.873 119.629 208.065 118.154 210.454C117.387 211.693 118.021 212.431 119.024 212.445C120.352 212.445 121.974 211.546 125.971 210.041C139.527 204.82 139.954 205.056 139.733 204.569C139.722 204.54 139.705 204.513 139.683 204.49C139.661 204.468 139.635 204.45 139.606 204.437C139.577 204.425 139.546 204.418 139.515 204.418C139.484 204.418 139.453 204.424 139.423 204.436Z" fill="black"/>
<path fill-rule="evenodd" clip-rule="evenodd" d="M280.625 148.193C280.434 132.764 279.047 101.273 275.994 86.0066C274.386 77.9089 270.905 66.8316 264.43 61.4774C261.686 59.2206 257.645 57.0524 250.314 52.9961C250.403 52.8044 238.735 48.0844 238.19 49.6479C237.736 46.9577 237.101 44.3015 236.287 41.6976C237.378 41.3436 236.892 38.1576 237.349 36.3581C237.806 34.5586 239.532 33.2754 240.417 31.8004C242.408 28.5111 242.747 22.7734 242.379 18.9531C242.025 15.3984 236.833 7.46286 233.411 6.16486C229.989 4.86686 226.478 4.91111 222.864 4.18836C219.914 3.58361 217.731 1.94636 214.427 1.53336C211.123 1.12036 209.147 3.00836 206.315 3.00836C203.483 3.00836 200.297 0.810614 197.332 0.633614C195.721 0.608623 194.156 1.16899 192.927 2.21065C191.699 3.25232 190.89 4.70452 190.65 6.29761C190.293 8.67214 190.574 11.0991 191.466 13.3287C192.358 15.5583 193.828 17.5099 195.724 18.9826C198.034 20.4436 200.629 21.3941 203.335 21.7704C203.158 29.3076 203.955 27.2869 203.07 27.9506C202.185 28.6144 202.465 33.2606 202.775 34.5439C202.908 35.0601 203.04 35.2519 203.675 35.4584C203.321 36.9334 200.828 40.1194 203.07 40.9011C203.365 41.0044 204.545 41.2109 204.663 41.2551C204.965 42.6539 205.41 44.018 205.99 45.3261C206.563 46.6412 207.398 47.825 208.446 48.8043C209.494 49.7836 210.731 50.5376 212.082 51.0196C214.206 51.8456 215.888 52.0669 217.127 52.4946C217.297 53.1046 217.387 53.7345 217.392 54.3679C212.125 55.7523 207.162 58.1085 202.76 61.3151C194.78 67.7904 183.438 94.6501 180.473 97.6001C179.322 98.7359 152.227 103.987 148.229 106.701C147.448 107.232 147.418 107.689 147.521 108.633C146.548 108.81 142.447 109.577 141.99 110.447C141.855 111.08 141.891 111.736 142.093 112.35C138.444 111.669 134.761 111.176 131.06 110.875C130.383 110.891 129.717 111.049 129.104 111.338C128.492 111.628 127.947 112.043 127.506 112.557C126.267 114.032 127.27 113.781 125.957 113.574C123.169 113.176 113.183 116.524 111.93 117.114C111.93 116.583 111.93 116.215 111.369 115.92C109.723 115.443 108.003 115.273 106.295 115.418C105.263 116.111 109.245 115.875 110.897 116.731C110.897 117.867 111.045 129.519 110.897 131.805C110.897 132.218 110.897 132.159 110.587 132.204C109.112 132.41 106.988 132.204 106.339 132.676C106.575 127.543 106.339 114.976 105.631 114.238C105.204 113.796 97.3272 112.852 88.7574 111.819C88.7878 105.619 88.443 99.4223 87.7249 93.2636C86.1467 79.5756 82.8427 63.4391 72.5177 55.2529C73.116 55.4972 73.7744 55.5538 74.4057 55.4151C75.2486 55.0806 76.1559 54.9395 77.0607 55.0021C78.5357 55.4004 78.7274 56.4771 82.4149 53.9991C82.6509 53.8369 83.2704 53.8811 83.7572 53.3944C85.4239 51.7276 84.5832 49.4709 84.5832 47.7894C84.8274 46.6462 84.9069 45.474 84.8192 44.3084C84.7739 44.1346 84.6892 43.9736 84.5715 43.838C84.4538 43.7024 84.3064 43.5958 84.1407 43.5266C84.1407 43.0399 84.6569 42.1696 83.9194 41.2256C84.9814 40.6651 86.1319 40.0161 85.5419 38.8656C84.4149 37.063 83.4852 35.1443 82.7689 33.1426C82.3117 31.4316 82.9312 29.2486 82.9017 27.4049C82.9017 26.1364 83.0344 24.6171 82.9017 23.2306C84.0393 22.4363 84.9087 21.3149 85.3944 20.0151C85.502 19.4897 85.4789 18.946 85.3272 18.4316C85.1755 17.9172 84.8997 17.448 84.5242 17.0651C84.0374 16.7554 83.9342 17.0651 83.9489 16.1506C84.0023 15.8297 83.9878 15.5012 83.9065 15.1862C83.8252 14.8711 83.6789 14.5766 83.4769 14.3216C82.8574 13.7169 81.4414 13.0531 80.9989 12.4336C80.2467 11.3274 79.8042 10.2211 78.3882 9.77862C77.3852 9.45412 76.4412 10.0884 75.7627 9.86712C74.8334 9.57211 73.8747 8.56911 72.8127 9.63111C72.5755 9.75968 72.3154 9.84019 72.0471 9.86803C71.7788 9.89587 71.5076 9.8705 71.2492 9.79337C70.3642 9.04112 70.1429 7.74312 68.6384 7.46287C67.7829 7.31537 66.1014 7.72837 65.4524 7.46287C64.3892 6.68025 63.2162 6.05897 61.9714 5.61912C60.5798 5.48659 59.1757 5.60651 57.8267 5.97312C56.8827 6.16487 55.6732 6.06161 54.6849 6.20912C52.6347 6.53362 52.0447 8.30362 50.6877 9.15912C49.3307 10.0146 47.0444 10.0294 45.7464 11.9469C44.6549 13.5694 44.8909 15.3246 44.4632 16.9471C44.2862 17.6404 43.3422 18.4221 42.9882 19.1301C42.1622 20.7674 42.7964 22.4194 42.7817 23.8354C42.7669 25.2514 41.7787 26.5494 42.0589 28.2604C42.2866 29.1149 42.6609 29.9234 43.1652 30.6499C43.1713 30.889 43.1414 31.1276 43.0767 31.3579C42.6267 32.5186 42.5342 33.7874 42.8112 35.0011C43.0526 36.1647 43.6146 37.2376 44.4337 38.0986C45.4662 38.9984 45.9972 38.7624 46.7494 40.0456C47.0658 40.7242 47.5415 41.3162 48.1359 41.7714C49.2274 42.5089 50.5697 41.8746 51.2187 42.1991C51.6224 42.4124 52.0628 42.5475 52.5167 42.5974C52.1536 42.7809 51.8399 43.049 51.6022 43.3791C43.5782 44.3969 32.9877 50.2526 26.5272 58.2619C23.9754 61.5511 19.6832 66.3006 18.0754 70.1061C9.43191 89.6351 13.6504 120.256 10.1694 129.711L1.55542 152.175C1.14242 153.252 0.0804147 158.606 0.463915 160.45C1.08341 163.193 3.95966 159.757 5.71491 157.81C4.62341 161.689 4.63816 162.707 4.06291 177.973C3.88591 182.752 3.72366 187.959 3.64991 192.339C3.64568 192.371 3.64826 192.403 3.65747 192.433C3.66668 192.463 3.6823 192.491 3.70329 192.515C3.72427 192.539 3.75012 192.558 3.77908 192.571C3.80805 192.584 3.83945 192.59 3.87116 192.59C4.28416 192.59 4.01867 193.062 4.62341 180.879C5.05117 172.309 5.53791 164.314 5.58216 163.665C5.80051 161.144 6.35613 158.664 7.23416 156.29C11.3534 153.213 15.9887 150.895 20.9222 149.446C26.4128 147.977 32.2109 148.126 37.6192 149.874C39.0942 150.361 43.0619 151.349 44.4779 150.685C47.4279 149.21 55.0242 144.328 56.2779 141.363C56.8974 139.888 57.3989 138.694 57.8857 137.587C60.1424 137.794 62.9154 138.369 65.3787 138.399C68.1369 138.399 69.9069 137.956 72.9602 135.257C84.1849 135.508 96.5602 135.168 102.46 134.947C106.398 136.422 118.493 140.744 121.429 143.65C122.579 144.771 123.258 147.898 123.671 151.379C124.215 155.539 124.358 159.743 124.098 163.931C116.015 165.48 105.72 167.928 97.7549 169.905C97.3089 169.78 96.8428 169.745 96.3832 169.801C94.2739 170.023 95.2622 170.878 94.5689 168.739C94.6021 168.747 94.6367 168.747 94.6697 168.738C94.7026 168.729 94.7328 168.712 94.7577 168.689C94.7825 168.665 94.8012 168.636 94.812 168.604C94.8228 168.572 94.8254 168.537 94.8197 168.503C94.7979 165.668 94.4666 162.844 93.8314 160.081C93.7282 159.668 93.0054 159.462 92.5629 159.329C87.7839 157.942 69.3317 156.084 65.2754 157.131C62.6352 157.824 44.3599 167.264 43.5339 169.27C42.7079 171.276 40.4659 183.342 40.0529 185.569C30.4949 188.357 22.9577 190.658 19.2702 191.912C19.2396 191.922 19.2114 191.938 19.1872 191.959C19.1631 191.98 19.1435 192.006 19.1297 192.035C19.1159 192.064 19.1081 192.095 19.1069 192.127C19.1057 192.159 19.1111 192.191 19.1227 192.221C19.2997 192.767 24.1377 190.26 73.6977 177.235C74.1957 178.507 74.8339 179.719 75.6004 180.849C74.1254 181.203 72.4587 181.852 71.9719 183.209C71.8854 183.496 71.8711 183.799 71.9303 184.093C71.9894 184.386 72.1203 184.66 72.3112 184.891C73.5212 186.246 75.1344 187.176 76.9132 187.546C80.032 188.327 83.2728 188.498 86.4564 188.047C89.5134 187.78 92.5257 187.136 95.4244 186.13C98.5809 184.802 98.3744 182.826 97.1649 181.926C95.9185 181.193 94.549 180.693 93.1234 180.451C94.4657 178.017 93.2119 179.094 95.2179 178.607C96.3531 178.336 97.3901 177.754 98.2122 176.926C99.5102 175.598 100.38 172.324 99.1414 170.745C105.366 169.27 130.397 163.075 136.518 163.533C147.625 164.344 228.381 197.546 247.497 203.948C247.527 203.957 247.559 203.961 247.59 203.958C247.621 203.956 247.652 203.947 247.68 203.933C247.708 203.918 247.733 203.899 247.754 203.875C247.774 203.851 247.79 203.823 247.799 203.793C247.809 203.763 247.813 203.731 247.81 203.7C247.808 203.668 247.799 203.638 247.784 203.609C247.77 203.581 247.75 203.556 247.726 203.536C247.702 203.516 247.674 203.5 247.644 203.49C242.644 201.75 231.493 197.31 218.144 191.971C218.793 190.407 220.504 185.363 221.832 183.622C222.378 182.914 222.348 182.855 227.216 183.135C239.974 183.873 251.214 183.534 263.456 179.625C270.935 177.221 274.607 171.675 276.731 164.255C277.159 164.388 278.324 164.772 278.737 164.86C278.855 164.889 278.978 164.889 279.096 164.861C279.214 164.832 279.324 164.777 279.416 164.698C280.876 163.208 280.625 151.098 280.625 148.193ZM78.8749 46.7716C78.4757 46.917 78.0448 46.9527 77.6271 46.8749C77.2094 46.797 76.8202 46.6086 76.5002 46.3291C76.1818 46.0743 75.9325 45.7435 75.7753 45.3673C75.6181 44.991 75.558 44.5812 75.6004 44.1756C75.5809 44.115 75.5862 44.0491 75.6152 43.9924C75.6443 43.9357 75.6947 43.8928 75.7553 43.8732C75.8159 43.8537 75.8819 43.859 75.9386 43.8881C75.9953 43.9171 76.0381 43.9675 76.0577 44.0281C76.7859 45.0756 77.8144 45.8778 79.0077 46.3291C79.0457 46.3605 79.0735 46.4025 79.0878 46.4496C79.1021 46.4968 79.1022 46.5472 79.088 46.5944C79.0739 46.6416 79.0461 46.6836 79.0082 46.7151C78.9703 46.7466 78.9239 46.7663 78.8749 46.7716ZM65.0247 33.8506C65.0751 33.4173 65.2492 33.0076 65.5262 32.6706C65.8507 32.3461 66.8389 32.5526 67.5322 32.0806C68.0506 31.6709 68.4441 31.1241 68.6679 30.5024C69.4939 28.8651 70.8067 30.1336 72.6357 27.4344C73.1025 26.6753 73.4647 25.8566 73.7124 25.0006C74.7449 24.5139 76.0872 25.2219 77.3852 23.0831C77.8129 22.3604 78.0932 21.6081 78.8602 21.4016C79.4354 22.0211 80.0107 24.3516 82.3412 23.4519C82.3412 24.2484 82.1642 28.2751 82.1199 28.5996C81.9287 29.5717 81.8251 30.559 81.8102 31.5496C81.8102 34.4996 83.1672 36.1221 84.6717 39.2049C84.9077 39.6916 83.6687 40.1636 83.0492 40.5029C82.1752 40.1809 81.2708 39.9487 80.3499 39.8096C77.4884 39.1164 75.2022 40.6061 72.7389 41.2846C72.3214 41.2872 71.9052 41.2377 71.4999 41.1371C70.5707 41.0486 69.5972 41.9926 68.2844 42.1696C67.9421 42.2368 67.5876 42.1996 67.2667 42.0628C66.9459 41.9261 66.6735 41.6961 66.4849 41.4026C66.3259 40.8624 66.2124 40.3098 66.1457 39.7506C66.0129 39.2196 65.8507 38.6886 65.7327 38.1724C65.4967 37.1104 66.1899 36.6974 65.3787 35.2224C64.8182 34.2194 64.8329 34.6619 65.0247 33.8506ZM65.5852 63.9406C66.5783 62.0558 67.3884 60.0801 68.0042 58.0406C68.8302 63.1736 69.2727 65.7696 69.4792 67.0676C68.4024 66.1679 68.2992 65.8286 65.5852 63.8816V63.9406ZM70.0102 69.9439C70.7329 74.3689 70.5707 73.3659 70.7034 74.2804C70.3511 73.6166 69.9202 72.9976 69.4202 72.4366C69.5853 71.4623 69.6593 70.4747 69.6414 69.4866L70.0102 69.9439ZM64.6707 72.5989C63.7898 71.683 62.9857 70.6964 62.2664 69.6489C62.9957 67.9433 63.8181 66.2789 64.7297 64.6634C67.8272 67.0381 67.5912 67.0086 68.3582 67.9674C68.4707 69.2235 68.4707 70.4872 68.3582 71.7434L64.6707 72.5989ZM64.8624 73.5576C66.6177 77.4664 67.3257 83.8826 67.6944 88.1601C65.8531 82.7724 63.3774 77.6229 60.3194 72.8201C60.9174 72.0029 61.4501 71.1398 61.9124 70.2389C62.5199 71.3703 63.2468 72.4334 64.0807 73.4101C64.1872 73.4771 64.3072 73.5198 64.4322 73.5351C64.5571 73.5504 64.6839 73.5379 64.8034 73.4986L64.8624 73.5576ZM56.1009 41.9926C56.2209 42.0299 56.3445 42.0546 56.4697 42.0664C56.8131 42.0509 57.1424 41.9248 57.4082 41.7068C57.6741 41.4888 57.8622 41.1906 57.9447 40.8569C58.1807 40.7094 58.3577 40.5471 58.3429 40.2669C58.3282 39.9866 55.1569 35.6501 59.1984 33.4229C59.5548 33.3842 59.9131 33.4767 60.2063 33.683C60.4995 33.8893 60.7075 34.1953 60.7914 34.5439C60.9823 35.3307 61.3853 36.05 61.9567 36.6236C62.0013 37.5664 62.1247 38.5038 62.3254 39.4261C62.4434 39.9719 62.0304 40.6799 61.9419 41.4321C61.7354 42.9071 63.1662 44.5296 63.6824 45.8571C64.3757 47.6419 63.9037 49.5594 65.5557 51.1376C67.2077 52.7159 66.8979 51.4179 67.4732 54.9579C66.785 57.7399 65.8369 60.4511 64.6412 63.0556C62.9744 60.6956 54.5374 46.9191 52.8412 43.7774C53.4754 43.3939 55.4519 42.2729 56.0419 41.9336L56.1009 41.9926ZM51.6759 43.9544C52.7527 46.4619 63.4759 63.4539 63.4759 63.6014C62.9597 65.2386 59.9949 72.0236 58.5937 72.7611C55.5109 70.5634 47.0592 47.4501 46.4544 45.3556C48.1185 44.6427 49.8691 44.1518 51.6612 43.8954L51.6759 43.9544ZM66.8979 109.076C65.2754 108.559 60.0392 90.7856 55.3634 80.9474C52.5609 75.0474 47.0592 65.2976 41.0559 62.7016C34.5659 59.9139 22.5004 66.5956 21.2172 75.2686C20.4336 80.9885 20.8965 86.8102 22.5742 92.3344C29.5362 113.383 38.9614 130.168 59.0952 134.977C59.5672 134.033 57.9004 134.814 71.1459 135.168C70.4967 135.673 69.8059 136.122 69.0809 136.511C66.6029 137.853 61.8977 136.776 58.4167 136.393L58.8592 135.434C38.1207 130.802 28.4152 113.309 21.4679 92.6589C19.7134 86.9682 19.2102 80.9655 19.9929 75.0621C21.3204 65.6811 33.8137 58.9551 40.7314 61.2856C42.4953 61.9428 44.11 62.9458 45.4809 64.2356C44.8231 58.3251 44.6603 52.37 44.9942 46.4324C45.2652 46.1916 45.5564 45.9745 45.8644 45.7834C47.1329 50.2084 54.3604 71.3599 58.0332 73.7051C58.2661 73.8428 58.5388 73.8974 58.8068 73.8598C59.0747 73.8223 59.322 73.695 59.5082 73.4986C62.8269 79.2069 65.9244 85.0479 67.1634 91.1986C67.8643 94.5933 68.0434 98.075 67.6944 101.524C65.5999 92.8506 59.8032 80.3131 53.2099 74.3099C59.9507 85.9476 64.8624 104.562 67.0602 108.235C67.9393 108.477 68.8373 108.645 69.7447 108.736C69.3612 99.8864 69.0662 81.4341 65.3197 73.4249C65.7769 73.4249 69.0072 72.7316 69.0072 72.7316C69.5897 73.4311 70.085 74.1988 70.4822 75.0179C71.0869 76.1831 70.8804 75.2981 71.7949 81.4931C76.2199 110.093 75.9692 109.946 76.5444 110.256C73.6534 109.887 68.5647 109.577 66.8979 109.076ZM76.6919 103.176C70.9394 70.5191 70.8804 69.6046 68.4614 55.9756C68.6532 55.3266 68.8007 54.7956 68.9039 54.4121C69.8184 55.5774 74.8039 61.9641 75.3497 63.3654C74.5384 64.0881 71.6179 65.3271 72.5029 66.3154C72.9012 66.7726 76.1904 69.6194 77.2229 70.6519C77.7834 73.0266 76.8984 99.0456 76.6919 103.176ZM40.6429 185.377C41.0559 183.504 43.7552 171.321 44.5074 169.61C45.0532 168.341 62.8417 158.901 65.6442 158.193C69.6857 157.131 91.6927 159.314 93.2267 160.302C93.9192 162.875 94.3248 165.517 94.4362 168.179C91.9582 165.229 72.7832 166.011 72.5767 170.17C72.5726 170.307 72.6013 170.442 72.6603 170.565C72.7193 170.689 72.807 170.796 72.9159 170.878C72.9062 172.661 73.1093 174.439 73.5207 176.173C62.1927 179.227 50.8647 182.413 40.6429 185.377ZM96.8847 183.076C97.6369 185.51 88.8017 186.557 86.2499 186.852C83.2199 187.284 80.1352 187.129 77.1639 186.395C75.8659 186.041 73.4617 185.097 73.0044 183.917C72.7832 183.357 73.5059 182.826 74.0369 182.545C74.7097 182.194 75.423 181.927 76.1609 181.749C76.9644 182.856 78.042 183.735 79.2879 184.301C80.7629 184.95 87.0612 184.492 89.2442 184.02C90.2029 183.814 91.2207 183.534 92.6662 181.218C93.5512 181.351 96.6339 182.265 96.8847 183.076ZM89.8342 182.56C88.7279 183.224 80.9104 183.755 79.7157 183.268C75.7627 181.69 73.6092 175.524 73.4469 171.173C76.6604 171.88 79.9585 172.123 83.2409 171.896C85.7042 171.571 91.5304 170.568 93.6692 169.492C94.9524 174.33 92.2384 181.159 89.8342 182.56ZM98.0794 174.949C97.6801 175.739 97.1192 176.436 96.4332 176.995C95.7471 177.554 94.9511 177.963 94.0969 178.194C94.8686 176.125 95.2342 173.926 95.1737 171.719C95.2901 171.475 95.4591 171.26 95.6686 171.089C95.8781 170.918 96.1228 170.796 96.3851 170.731C96.6474 170.667 96.9209 170.661 97.1858 170.714C97.4507 170.767 97.7005 170.879 97.9172 171.04C99.0234 171.763 98.5367 173.695 98.0794 174.949ZM250.004 53.4239C259.975 58.9256 264.4 61.2266 267.586 66.0499C265.582 64.3265 263.032 63.37 260.388 63.3506C250.934 63.0261 246.287 77.0239 243.868 86.0804C239.856 101.184 242.32 120.3 242.098 123.103C239.547 125.478 226.478 132.263 220.637 135.434C221.448 132.012 224.339 118.811 226.227 113.604C228.764 106.612 236.066 90.3284 236.552 86.7884C236.685 85.7411 236.479 85.6084 233.381 83.6024C234.576 83.6024 237.806 83.2779 238.809 83.0861C239.237 83.0861 239.458 82.8944 239.62 81.9946C240.166 78.8676 241.228 53.0994 241.317 50.3559C241.213 50.2969 248.736 52.7011 250.049 53.4239H250.004ZM238.632 49.8986C239.304 49.8502 239.979 49.9252 240.623 50.1199C239.886 60.8136 239.148 79.6199 238.455 82.0241C237.673 82.1716 234.9 82.3634 233.824 82.4371C231.523 82.5699 231.464 82.4371 231.228 82.7616C230.992 83.0861 231.316 83.5286 231.744 83.8236C232.496 84.3546 235.004 85.9329 235.358 86.3459C235.017 88.102 234.493 89.8175 233.794 91.4641C225.46 113.589 225.962 106.789 220.357 131.053C220.731 119.43 221.805 107.84 223.572 96.3464C224.752 90.0186 226.183 84.0744 230.947 70.5339C232.821 65.2976 236.7 55.2676 236.847 55.3266C237.587 53.5638 238.199 51.7497 238.676 49.8986H238.632ZM213.011 140.419C213.292 141.511 213.292 141.363 213.203 141.378L212.746 141.29C212.746 141.142 211.949 126.333 212.333 120.212C213.026 109.371 213.911 97.6149 214.737 86.2869C215.135 80.7999 216.64 69.0146 216.596 69.4571L218.071 68.3656C218.683 69.5868 219.378 70.7646 220.15 71.8909C220.445 72.2891 220.844 72.7906 221.316 72.8349C220.991 75.5046 216.079 108.441 214.634 129.49C213.837 140.95 214.634 138.517 213.469 139.564C213.33 139.657 213.219 139.786 213.147 139.936C213.074 140.086 213.043 140.253 213.056 140.419H213.011ZM221.773 72.8496C222.894 72.8496 224.103 70.4896 225.578 69.4866C226.154 70.0914 227.894 72.9824 229.045 73.3659C224.162 86.7589 218.941 105.432 218.956 136.26C217.702 136.938 216.006 137.912 214.752 138.635C215.489 126.082 220.829 84.8856 221.817 72.8496H221.773ZM237.26 53.0256C236.788 54.5006 229.782 71.4189 229.295 72.2006C228.535 71.4549 227.857 70.629 227.275 69.7374C226.036 68.0706 225.608 67.5249 223.499 69.8996C226.626 63.9996 232.732 58.0111 235.299 55.0316C237.747 52.2291 237.423 52.4651 237.26 53.0256ZM204.22 22.0506C205.321 22.3895 206.498 22.3895 207.598 22.0506C208.44 21.6765 209.37 21.5437 210.283 21.6671C211.572 22.2613 212.897 22.7737 214.25 23.2011C215.924 23.1864 217.595 23.0533 219.251 22.8029C220.009 23.1573 220.652 23.7196 221.103 24.4246C221.555 25.1295 221.797 25.9481 221.802 26.7854C219.053 27.1845 216.4 28.0791 213.97 29.4256C213.821 28.9413 213.525 28.5152 213.124 28.2061C212.722 27.897 212.235 27.7202 211.728 27.6999C209.31 27.4088 206.867 27.3792 204.442 27.6114C204.227 25.7266 204.153 23.8284 204.22 21.9326V22.0506ZM203.645 34.6324C203.276 33.9834 202.554 28.9536 203.291 28.4079C203.409 28.5554 202.893 28.0981 205.695 28.1276C207.671 28.19 209.641 28.3673 211.595 28.6586C212.923 28.8946 213.144 29.4994 213.07 30.7826C213.07 33.1574 213.144 32.9214 213.07 33.6589C213.07 33.8654 212.982 34.4111 212.82 34.5291C209.786 35.0782 206.677 35.0732 203.645 34.5144V34.6324ZM217.2 51.2556C213.159 50.1051 209.457 49.9576 206.964 44.8246C205.356 41.5206 206.241 40.5619 204.781 40.1341C204.239 40.0696 203.706 39.951 203.188 39.7801C203.188 38.7919 204.427 36.7269 204.663 35.6796C207.113 35.9725 209.588 35.9725 212.038 35.6796C213.513 35.4584 214.295 35.2076 214.059 32.2134V29.9271C216.374 29.2191 221.286 28.0539 221.876 27.8916C221.88 28.694 221.989 29.4924 222.201 30.2664C222.431 30.753 222.829 31.1405 223.322 31.3579C223.4 31.3929 223.486 31.4093 223.572 31.4057C223.659 31.4021 223.743 31.3788 223.818 31.3374C223.894 31.296 223.959 31.2377 224.009 31.1671C224.058 31.0964 224.09 31.0154 224.103 30.9301C224.443 29.5584 224.708 28.3341 224.811 27.7441C224.811 28.0686 224.944 26.7116 225.918 26.1806C227.393 25.4136 229.679 27.1246 229.841 29.5436C229.93 30.7236 228.75 32.8624 227.865 35.3256C227.334 36.8006 230.549 37.4349 231.67 37.9806C232.083 38.9394 231.832 40.0161 232.393 40.5914C233.234 41.1099 234.157 41.4838 235.122 41.6976C236.139 44.9579 236.879 48.2984 237.334 51.6834C233.588 55.6216 232.747 56.5656 231.744 57.5834C227.826 61.3066 224.503 65.6097 221.891 70.3421C220.844 64.1914 218.852 58.7634 218.631 56.9786C218.454 55.5921 218.749 53.1436 218.1 51.8309C218.002 51.6747 217.87 51.5421 217.715 51.4427C217.559 51.3432 217.383 51.2793 217.2 51.2556ZM217.628 56.2559C218.336 58.8814 220.224 67.4069 220.77 70.8289C219.87 69.4719 218.764 67.2299 218.764 67.2299C218.726 67.1499 218.67 67.0795 218.6 67.0241C218.531 66.9687 218.45 66.9296 218.364 66.9098C218.277 66.8899 218.188 66.8898 218.101 66.9095C218.015 66.9292 217.934 66.9681 217.864 67.0234L216.787 67.8494C217.2 64.0144 217.613 60.1056 217.672 56.2559H217.628ZM217.2 54.9431C217.068 65.7991 214.899 75.4751 214.014 86.2869C211.064 122.631 211.064 120.846 211.359 133.708C209.766 122.085 207.539 99.4734 206.315 87.2161C207.185 86.5524 211.389 83.3516 211.861 82.3781C212.082 81.9061 211.861 81.4194 210.799 81.4194C208.953 81.5586 207.099 81.5586 205.253 81.4194C206.374 76.8469 212.79 60.1646 214.501 55.7396C215.371 55.4889 216.094 55.2381 217.2 54.9431ZM148.628 107.807C150.914 105.403 179.603 99.7979 181.166 98.2786C183.364 96.0661 189.411 82.3339 195.577 71.9204C200.813 63.0704 203.66 59.7959 213.852 56.0346C211.404 62.0969 206.625 73.9559 204.471 80.8589C204.338 81.2866 204.147 81.7586 204.471 82.0389C205.282 82.8354 208.675 82.3634 210.622 82.3929C209.25 83.7646 205.474 86.5524 205.474 86.5524C205.401 86.6061 205.344 86.6779 205.308 86.7608C205.272 86.8436 205.258 86.9345 205.268 87.0244C205.887 93.8684 209.693 134.711 211.345 140.641L208.69 139.962C206.974 139.12 205.11 138.619 203.203 138.487C206.566 121.761 205.356 117.085 205.769 107.969C205.769 107.025 201.787 88.0569 201.757 87.9094C201.757 87.8468 201.732 87.7868 201.688 87.7425C201.644 87.6982 201.584 87.6734 201.521 87.6734C201.459 87.6734 201.399 87.6982 201.354 87.7425C201.31 87.7868 201.285 87.8468 201.285 87.9094C201.536 94.3699 203.365 100.521 204.619 107.571C199.899 111.996 194.957 118.117 186.919 120.109C181.948 121.362 158.672 126.436 155.575 126.658C153.038 123.826 148.229 109.695 148.628 107.807ZM145.825 109.769C145.825 109.769 147.595 109.341 147.566 109.061C148.943 114.244 150.678 119.325 152.758 124.268C151.417 124.683 150.046 124.994 148.657 125.197C147.816 125.197 148.406 125.935 146.356 121.067C145.093 118.041 144.009 114.943 143.111 111.79C142.86 110.772 142.433 110.875 145.825 109.769ZM128.553 112.881C129.718 111.598 130.559 111.406 142.211 112.881C143.248 116.398 144.504 119.847 145.973 123.206C143.575 125.075 140.826 126.445 137.89 127.233C137.801 126.599 137.595 126.79 138.096 126.835C138.52 126.847 138.941 126.763 139.328 126.591C139.715 126.419 140.058 126.162 140.333 125.839C140.608 125.516 140.806 125.136 140.914 124.726C141.022 124.317 141.037 123.888 140.958 123.472C140.84 121.997 136.621 118.929 135.426 118.088C136.136 118.234 136.872 118.178 137.55 117.926C137.611 117.906 137.661 117.863 137.69 117.807C137.72 117.75 137.725 117.684 137.705 117.623C137.686 117.563 137.643 117.512 137.586 117.483C137.529 117.454 137.464 117.449 137.403 117.468C134.925 118.117 132.417 115.167 132.093 115.079C130.957 114.799 131.665 117.439 129.143 119.017C128.774 119.253 127.358 118.722 127.27 117.999C127.084 117.105 127.103 116.18 127.325 115.293C127.547 114.407 127.967 113.582 128.553 112.881ZM112.062 117.527C113.95 116.849 123.567 113.869 126.34 114.577C126.028 115.756 125.958 116.985 126.134 118.191C126.228 118.574 126.403 118.933 126.648 119.242C126.892 119.551 127.201 119.804 127.552 119.983C127.904 120.163 128.29 120.264 128.684 120.28C129.078 120.297 129.471 120.228 129.836 120.079C130.864 119.394 131.637 118.388 132.034 117.218C133.347 118.014 139.866 122.336 139.778 123.87C139.778 124.902 139.232 125.773 138.199 125.684C137.328 125.372 136.504 124.94 135.751 124.401C134.993 123.796 134.195 123.244 133.361 122.749C133.229 122.68 133.076 122.663 132.931 122.7C132.786 122.738 132.661 122.827 132.578 122.952C132.496 123.076 132.463 123.227 132.485 123.375C132.507 123.522 132.583 123.657 132.698 123.752C132.698 123.752 133.804 124.578 135.028 125.374C136.872 126.849 137.506 128.206 135.22 128.9C134.862 129.006 134.486 129.037 134.115 128.991C133.745 128.946 133.388 128.824 133.066 128.634C132.691 127.892 132.192 127.219 131.591 126.643C131.324 125.954 130.843 125.368 130.22 124.97C129.597 124.572 128.863 124.383 128.125 124.43C127.358 124.519 127.299 124.902 127.373 124.548C127.727 122.793 125.485 121.731 123.921 122.026C121.399 122.528 119.998 125.861 119.172 128.295C118.67 129.357 120.647 128.177 112.018 131.245C112.261 126.961 112.261 122.667 112.018 118.383C111.944 117.365 111.915 117.601 112.062 117.527ZM119.585 128.457C120.396 126.717 122.181 123.457 124.084 123.162C124.821 123.029 126.311 123.531 126.149 124.283C125.829 126.28 124.908 128.133 123.508 129.593C123.685 129.888 119.069 129.976 119.585 128.457ZM127.933 125.64C128.287 125.286 130.352 126.009 130.411 127.115C130.515 128.959 128.759 131.156 127.24 132.174C126.753 132.513 124.836 130.95 124.393 130.316C125.447 128.665 126.631 127.102 127.933 125.64ZM130.426 130.552C130.529 130.404 132.004 127.13 132.255 129.844C132.358 130.906 130.78 131.466 129.748 131.319C129.988 131.076 130.214 130.819 130.426 130.552ZM163.23 149.727C157.02 154.55 156.135 160.892 157.153 168.459C147.182 164.919 139.571 162.559 136.606 162.308C132.594 162.391 128.6 162.885 124.688 163.783C125.087 159.816 124.91 145.892 122.092 143.03C119.275 140.169 109.053 136.26 105.204 134.785H106.074C106.413 134.608 105.853 133.059 107.136 132.971C108.685 132.882 110.853 133.472 111.561 132.853C111.772 132.531 111.894 132.16 111.915 131.776C113.537 131.26 117.358 130.094 119.29 129.593C119.94 130.108 120.7 130.466 121.511 130.638C122.323 130.809 123.163 130.79 123.966 130.581C124.408 131.569 126.473 133.738 127.756 133.03C128.112 132.824 128.453 132.592 128.774 132.336C129.707 132.595 130.698 132.554 131.606 132.218C132.087 132.087 132.516 131.812 132.835 131.43C133.154 131.047 133.348 130.576 133.391 130.08C134.163 130.301 134.987 130.266 135.737 129.979C136.487 129.691 137.124 129.168 137.55 128.487C140.784 127.76 143.811 126.307 146.4 124.239C146.681 124.843 146.946 125.36 147.167 125.714C147.241 125.838 147.344 125.942 147.467 126.017C147.591 126.092 147.731 126.134 147.875 126.141C149.35 126.289 152.831 124.666 152.979 124.666C153.484 125.72 154.113 126.711 154.852 127.616C155.118 127.882 155.56 127.808 155.973 127.764C160.251 127.248 181.491 122.675 187.169 121.259C194.544 119.415 199.353 114.238 204.412 109.312C204.132 117.778 205.238 121.908 201.89 138.531C194.928 139.397 188.03 140.718 181.24 142.484C175.296 144.181 168.216 145.862 163.23 149.741V149.727ZM184.75 178.828L184.234 178.622C184.116 171.129 185.975 164.226 191.462 159.108C191.947 159.231 192.44 159.325 192.937 159.388C187.287 164.226 185.06 171.276 184.75 178.828ZM208.041 154.24C203.616 156.836 204.914 158.237 200.857 158.665C197.608 158.888 194.343 158.635 191.167 157.913C188.6 157.087 189.957 156.099 192.642 155.804C193.099 155.877 196.698 155.907 198.394 155.804C198.533 155.781 198.659 155.711 198.75 155.604C198.841 155.497 198.891 155.361 198.891 155.221C198.891 155.081 198.841 154.945 198.75 154.838C198.659 154.731 198.533 154.661 198.394 154.638C196.481 154.474 194.559 154.444 192.642 154.55C191.421 154.532 190.205 154.389 189.013 154.122C188.894 153.929 188.826 153.709 188.813 153.482C188.8 153.256 188.843 153.03 188.939 152.824C190.488 151.895 197.789 152.249 198.999 152.205C199.141 152.182 199.271 152.11 199.364 152C199.458 151.891 199.51 151.751 199.51 151.607C199.51 151.463 199.458 151.324 199.364 151.214C199.271 151.105 199.141 151.032 198.999 151.01C196.579 151.061 194.158 150.933 191.757 150.626C190.724 150.449 188.32 149.933 188.497 148.886C188.821 146.998 192.701 148.62 195.429 148.429C197.355 148.4 199.26 148.041 201.064 147.367C201.199 147.326 201.312 147.233 201.378 147.108C201.445 146.984 201.459 146.838 201.418 146.703C201.377 146.568 201.284 146.455 201.159 146.388C201.035 146.322 200.889 146.308 200.754 146.349C198.909 146.793 197.036 147.118 195.149 147.322C195.029 147.298 194.923 147.23 194.85 147.132C194.776 147.034 194.741 146.913 194.751 146.791C194.772 146.516 194.842 146.246 194.957 145.995C195.718 145.003 196.739 144.242 197.907 143.797C202.096 142.057 205.282 143.797 210.076 144.107C210.678 146.834 211.441 149.524 212.362 152.16C210.892 152.748 209.468 153.443 208.1 154.24H208.041ZM213.675 152.441C213.159 150.7 211.241 144.387 211.05 142.912C211.811 142.54 212.613 142.258 213.439 142.071C214.118 144.594 215.371 148.974 216.183 151.423C215.391 151.819 214.573 152.159 213.734 152.441H213.675ZM217.849 152.441C217.068 150.671 214.752 142.425 214.221 140.36C216.758 138.281 239.532 127.085 242.924 123.678C243.986 122.616 240.402 102.63 244.606 86.1836C246.848 77.3336 251.243 63.4244 260.315 63.7341C266.539 63.9406 270.094 68.6901 272.115 74.6196C275.817 85.5346 274.342 100.683 274.342 100.535C274.342 112.911 269.917 131.51 261.067 140.36C254.385 147.057 222.009 153.193 217.908 152.485L217.849 152.441ZM278.664 163.651C276.938 163.193 269.017 160.273 265.669 159.993C248.279 158.518 249.355 155.214 238.603 150.494C244.503 149.019 257.615 145.597 261.967 141.29C271.156 132.174 275.404 113.383 275.36 100.668C275.701 96.2152 275.701 91.7428 275.36 87.2899C278.619 105.786 280.625 158.046 278.664 163.651Z" fill="url(#paint0_linear_416_15039)"/>
<path fill-rule="evenodd" clip-rule="evenodd" d="M50.5987 63.9397L45.7607 64.5002C47.2356 65.8873 48.5787 67.4081 49.7727 69.0432L51.115 64.6182C51.1559 64.5389 51.1736 64.4496 51.1658 64.3607C51.1581 64.2718 51.1253 64.1869 51.0712 64.1159C51.0172 64.0449 50.9441 63.9906 50.8605 63.9594C50.7768 63.9282 50.6861 63.9214 50.5987 63.9397ZM190.517 198.548C189.301 197.778 187.957 197.229 186.549 196.926C189.898 191.483 189.293 185.126 188.408 184.565C187.575 183.716 186.466 183.193 185.281 183.09C180.856 182.161 170.133 182.087 167.301 184.447C166.681 184.963 166.312 185.804 166.917 186.365C166.629 189.861 167.362 193.366 169.026 196.454C167.551 196.734 165.84 197.294 165.28 198.622C165.183 198.908 165.157 199.212 165.203 199.51C165.249 199.808 165.367 200.09 165.546 200.333C166.678 201.737 168.228 202.745 169.971 203.209C173.049 204.146 176.279 204.482 179.484 204.197C182.547 204.073 185.583 203.577 188.526 202.722C191.786 201.513 191.756 199.522 190.517 198.548ZM167.434 186.63C170.604 187.496 173.882 187.904 177.169 187.84C180.752 187.595 184.29 186.901 187.7 185.775C187.995 187.804 187.887 189.871 187.381 191.859C186.874 193.846 185.98 195.713 184.75 197.354C184.453 197.874 184.024 198.308 183.506 198.611C182.988 198.914 182.4 199.075 181.8 199.079C179.735 199.345 174.1 199.492 172.95 198.976C169.218 197.25 167.375 190.981 167.434 186.63ZM179.425 202.855C176.381 203.144 173.309 202.833 170.384 201.941C169.059 201.58 167.84 200.907 166.829 199.979C166.593 199.728 166.209 199.227 166.327 198.917C166.711 197.943 168.584 197.442 169.617 197.265C170.356 198.392 171.371 199.311 172.567 199.935C174.042 200.687 182.213 200.598 183.732 199.817C184.679 199.239 185.482 198.452 186.077 197.516C186.948 197.766 189.986 198.799 190.193 199.625C190.857 202.162 182.08 202.767 179.425 202.929V202.855Z" fill="black"/>
<defs>
<linearGradient id="paint0_linear_416_15039" x1="140.512" y1="0.632812" x2="140.512" y2="203.959" gradientUnits="userSpaceOnUse">
<stop stop-color="#5E0303"/>
<stop offset="1" stop-color="#8A0202"/>
</linearGradient>
</defs>
</svg>
