<svg width="338" height="284" viewBox="0 0 338 284" fill="none" xmlns="http://www.w3.org/2000/svg">
<path d="M248.268 51.2941C251.155 53.1129 253.443 55.7407 254.847 58.8503C256.73 63.2614 258.056 67.8901 258.794 72.6294C257.704 72.6582 256.62 72.7951 255.558 73.0383C255.434 73.0383 254.722 73.4117 254.598 73.8028C254.028 75.774 253.595 77.7818 253.3 79.8123L217.741 80.0257C217.332 80.0257 217.385 80.5057 217.741 80.5235C217.741 80.5235 250.206 81.0213 253.3 81.0391C252.518 87.5108 253.176 94.6226 257.763 99.2097C262.083 103.477 276.769 104.081 282.227 100.01C286.761 96.6139 287.881 86.7996 287.561 81.0391C288.628 81.0391 312.666 80.6124 315.048 80.5235C315.114 80.5235 315.177 80.4973 315.224 80.4506C315.271 80.4039 315.297 80.3406 315.297 80.2746C315.297 80.2086 315.271 80.1452 315.224 80.0986C315.177 80.0519 315.114 80.0257 315.048 80.0257C310.994 80.0257 287.508 79.8479 287.508 79.8479C287.028 74.514 285.73 73.9806 285.73 73.7317C285.715 73.5671 285.649 73.4114 285.54 73.2868C285.432 73.1622 285.286 73.0752 285.125 73.0383C283.578 72.7361 282.007 72.5754 280.431 72.5583C282.921 68.5579 285.054 57.6769 288.966 50.3873C294.762 39.5241 316.577 49.8717 316.221 40.2708C315.795 29.6031 303.954 23.6114 291.241 29.2653C279.169 34.5991 276.022 59.4904 275.809 72.4872C272.164 72.4872 273.924 72.5938 268.697 72.4872C273.266 66.4066 279.08 46.138 278.067 31.9678C276.906 22.5638 272.948 13.7251 266.706 6.59649C261.23 0.462577 254.811 -2.13323 249.975 2.79168C242.863 9.90347 249.406 17.8509 255.487 25.905C262.172 34.7947 264.679 39.2218 265.586 51.8808C266.01 58.7489 265.88 65.6401 265.194 72.4872H263.221C264.75 67.4911 262.776 56.4857 261.336 51.3118C259.274 44.0045 255.754 36.6438 250.171 31.5766C243.576 25.882 235.555 22.0898 226.969 20.6067C221.724 19.7177 217.243 20.0555 214.807 21.5135C213.912 21.9793 213.22 22.7601 212.865 23.7055C212.511 24.6509 212.519 25.694 212.887 26.6339C215.839 36.2882 236.712 44.1823 248.268 51.2941ZM291.597 30.4032C303.491 25.0693 314.444 30.6699 314.817 40.3419C315.101 47.7559 293.713 38.564 287.881 49.925C283.827 57.7836 282.032 68.7713 279.578 72.5761H278.316C280.094 64.7353 284.45 47.2937 289.57 41.1242C296.113 33.1412 307.51 37.7994 308.007 37.675C308.203 37.675 308.398 37.355 307.812 37.1416C300.7 34.5636 293.464 34.6169 288.628 40.3419C282.814 47.2048 279.151 63.7397 277.622 72.6294H276.093C276.573 60.1838 280.058 35.4703 291.597 30.4032ZM266.492 51.863C265.781 39.3107 263.47 34.7058 256.447 25.1938C250.686 17.4597 244.517 10.0813 250.882 3.62732C255.22 -0.781985 260.874 1.84937 265.781 7.39656C271.79 14.3522 275.579 22.9469 276.662 32.0745C277.818 46.4758 271.951 67.1533 267.772 72.505H266.83C268.732 64.3639 269.963 56.0805 270.51 47.7382C270.919 40.6264 270.795 35.6837 268.733 29.4964C267.038 24.7855 264.686 20.3381 261.745 16.2863C260.342 14.2878 258.797 12.3924 257.123 10.6146C257.08 10.5628 257.019 10.5299 256.952 10.5232C256.885 10.5166 256.819 10.5367 256.767 10.5791C256.715 10.6215 256.682 10.6828 256.676 10.7495C256.669 10.8162 256.689 10.8828 256.731 10.9347C257.177 11.4 257.592 11.8929 257.976 12.4104C263.523 19.5222 268.999 29.9054 269.426 39.0796C269.853 48.2538 268.021 63.5619 266.332 72.6294H265.834C266.62 65.7368 266.84 58.7915 266.492 51.863ZM284.61 74.5496C287.543 77.2343 286.619 95.0671 281.303 99.0497C275.987 103.032 262.136 102.09 258.367 98.4452C252.429 92.738 253.033 82.0525 255.06 74.1229C255.186 74.289 255.36 74.413 255.558 74.4785C256.925 74.794 258.317 74.9844 259.718 75.0474C257.978 81.4996 258.282 88.3329 260.59 94.6048C260.674 94.784 260.827 94.9221 261.014 94.9888C261.2 95.0555 261.406 95.0453 261.585 94.9604C261.764 94.8755 261.903 94.7229 261.969 94.5362C262.036 94.3495 262.026 94.1439 261.941 93.9648C259.701 89.4843 259.096 79.5278 260.394 75.1719C265.941 75.4208 280.787 75.5275 284.61 74.5496ZM249.406 32.4834C261.461 43.1511 264.554 66.78 262.688 72.5405H261.585C261.333 67.6 260.473 62.7094 259.025 57.9791C255.185 45.5335 248.748 37.8883 238.881 32.1278C233.726 29.1793 228.21 26.9142 222.47 25.3894C222.404 25.3729 222.335 25.3833 222.276 25.4183C222.218 25.4533 222.176 25.51 222.159 25.5761C222.143 25.6421 222.153 25.7119 222.188 25.7703C222.223 25.8286 222.28 25.8707 222.346 25.8872C229.046 28.0115 235.405 31.0893 241.228 35.0258C247.684 39.3242 252.726 45.4358 255.718 52.592C258.557 58.9176 260.358 65.6595 261.052 72.5583H259.381C258.723 67.6783 257.457 62.9 255.611 58.3347C254.169 55.0519 251.803 52.2595 248.802 50.2984C237.05 43.0622 216.799 35.1325 214.096 26.2428C211.589 18.082 235.752 20.2511 249.406 32.4834ZM95.6673 124.03C71.985 115.798 50.7564 112.118 37.5462 108.793C37.3826 108.747 37.2114 108.734 37.0429 108.756C36.8743 108.778 36.7119 108.834 36.5654 108.92C36.4189 109.006 36.2912 109.12 36.1901 109.257C36.089 109.394 36.0165 109.549 35.977 109.715C35.9375 109.88 35.9317 110.051 35.9601 110.219C35.9885 110.386 36.0504 110.547 36.1422 110.69C36.2339 110.833 36.3536 110.956 36.494 111.051C36.6345 111.147 36.7928 111.213 36.9595 111.246C45.4581 113.291 58.2949 115.638 72.1806 118.856C95.1161 124.19 95.6139 125.772 95.9873 124.67C96.0272 124.543 96.0161 124.405 95.9564 124.285C95.8967 124.166 95.7931 124.074 95.6673 124.03ZM283.329 138.413C283.329 138.371 283.321 138.33 283.305 138.291C283.289 138.252 283.265 138.217 283.236 138.187C283.206 138.157 283.171 138.134 283.132 138.118C283.093 138.102 283.051 138.093 283.009 138.093C267.417 138.093 252.251 141.649 243.663 142.449C243.559 142.458 243.457 142.488 243.364 142.537C243.272 142.586 243.19 142.653 243.123 142.734C243.057 142.815 243.008 142.909 242.978 143.01C242.949 143.111 242.94 143.216 242.952 143.321C242.961 143.426 242.991 143.528 243.04 143.622C243.088 143.716 243.155 143.799 243.236 143.866C243.317 143.934 243.411 143.985 243.512 144.017C243.612 144.048 243.718 144.059 243.824 144.049C250.117 143.427 261.016 141.045 271.222 139.729C282.547 138.413 283.347 139.213 283.329 138.413ZM229.618 175.412C229.633 175.383 229.643 175.351 229.646 175.319C229.648 175.286 229.645 175.253 229.635 175.221C229.625 175.19 229.609 175.161 229.588 175.136C229.566 175.11 229.54 175.09 229.511 175.075L229.067 174.844L228.96 175.377C229.262 175.519 229.493 175.75 229.618 175.412Z" fill="black"/>
<path d="M337.611 179.857C333.042 178.915 321.752 179.288 317.093 179.697C320.934 166.576 324.898 149.472 326.499 140.049C327.078 137.441 327.329 134.771 327.245 132.102C327.187 131.862 327.079 131.637 326.93 131.441C326.78 131.245 326.59 131.083 326.374 130.964C319.262 126.501 244.749 136.298 239.557 138.876C238.01 139.64 236.623 143.498 236.001 145.241C231.396 137.667 231.876 135.871 226.738 123.905C223.536 116.111 219.475 108.699 214.63 101.805C214.755 100.863 219.68 64.0773 214.399 54.2453C210.843 47.6669 191.588 45.3556 184.174 44.7333C184.174 44.3421 183.25 37.6215 182.858 34.5812C189.117 29.3541 191.748 19.7354 184.956 18.1174C180.138 16.9795 161.114 13.3525 146.944 17.0151C138.054 19.3264 130.942 24.518 130.338 34.7946C130.099 38.6968 130.338 42.6136 131.049 46.4579C121.857 47.4713 106.033 48.9826 97.9615 52.0229C87.5782 55.9344 91.952 101.361 93.0543 105.041C92.4498 106.535 91.8809 108.046 91.3653 109.451C65.4962 102.854 7.58844 90.551 5.01042 90.7821C4.33892 90.7739 3.67584 90.932 3.08024 91.2422C2.48463 91.5524 1.97501 92.0051 1.59676 92.56C0.903364 92.7201 0.654452 93.6979 0.529996 94.338C-1.24795 103.797 1.97013 160.282 2.53907 169.865C3.48139 173.314 30.8795 180.8 34.4354 181.777C34.6132 186.453 35.5555 209.673 35.7511 214.438C34.2043 214.157 32.6732 213.795 31.164 213.354C27.9993 212.056 15.8737 223.861 16.9404 222.884C12.3 227.008 62.7937 240.574 66.8296 239.436C70.8655 238.298 78.8485 230.671 77.4973 226.422C77.1237 225.666 76.4935 225.067 75.7193 224.733C71.8968 222.724 61.7802 220.252 57.5665 219.239C57.9754 210.633 57.9754 196.517 57.9577 187.947C62.9537 189.191 91.3119 196.054 96.4324 195.965C96.7995 195.971 97.1614 195.879 97.4814 195.699C99.1171 195.468 101.037 195.059 101.197 193.387C101.197 192.89 101.606 188.551 102.122 182.115C114.656 186.898 129.858 186.542 132.56 185.44C133.289 185.089 133.905 184.54 134.338 183.858C134.463 184.018 134.516 183.982 135.458 184.124C139.014 184.693 144.704 185.227 147.904 183.555C152.438 184.284 165.577 185.333 166.555 180.942C166.679 180.355 166.857 179.164 167.035 177.724C180.191 178.435 226.916 178.115 227.094 178.115L226.009 183.004C225.982 182.964 225.945 182.931 225.901 182.909C225.857 182.888 225.809 182.877 225.76 182.88C225.76 182.737 225.76 182.773 225.76 182.88C218.48 182.306 211.174 182.116 203.874 182.311C201.278 182.435 194.433 182.755 194.308 185.28C193.399 187.426 193.267 189.821 193.935 192.054C194.326 193.458 197.633 195.734 198.86 196.57C191.908 195.877 187.854 196.143 185.756 196.89C185.257 196.977 184.792 197.201 184.413 197.536C184.033 197.872 183.755 198.306 183.607 198.79C183.46 199.275 183.45 199.791 183.578 200.281C183.706 200.771 183.968 201.216 184.334 201.566C186.717 204.837 191.677 205.94 192.21 210.225C193.224 218.35 172.564 227.542 165.026 230.76C168.813 225.782 178.965 210.118 174.04 206.331C168.564 202.117 121.608 200.268 117.288 201.37C114.247 202.153 91.8987 218.67 92.3076 224.484C92.5921 228.271 114.585 231.987 118.675 232.698C123.279 233.48 156.136 238.601 160.065 236.094C160.898 235.757 161.655 235.257 162.291 234.621C162.926 233.986 163.427 233.229 163.763 232.396C170.572 230.055 177.124 227.029 183.321 223.364C193.099 217.301 198.575 209.798 188.903 203.486C187.748 202.739 184.583 200.464 185.045 199.183C186.041 196.357 199.784 197.406 199.98 197.406C206.363 201.566 218.577 207.984 225.778 209.851C233.388 211.86 268.947 207.967 277.534 206.882C278.512 210.438 279.454 213.745 280.076 215.772C278.743 215.878 274.938 216.216 273.871 217.052C273.285 217.514 273.302 218.296 274.245 218.83C274.245 224.786 273.516 242.601 275.294 250.637C275.969 253.642 276.752 254.887 279.863 255.971C285.748 257.873 297.056 257.198 302.976 255.615C306.657 254.62 307.137 253.838 307.724 251.882C309.75 245.232 309.644 225.604 309.501 218.634C309.615 218.552 309.708 218.444 309.772 218.318C309.836 218.193 309.869 218.055 309.869 217.914C309.869 217.774 309.836 217.635 309.772 217.51C309.708 217.385 309.615 217.277 309.501 217.194C308.186 216.584 306.77 216.223 305.323 216.127C305.572 214.136 306.906 203.006 307.101 201.05C308.03 200.493 308.86 199.784 309.555 198.952C310.642 197.631 311.349 196.04 311.599 194.347C313.377 192.018 315.938 183.324 316.773 180.479C324.703 180.817 336.331 180.355 337.415 180.479C337.498 180.505 337.587 180.498 337.664 180.458C337.741 180.417 337.798 180.349 337.824 180.266C337.85 180.184 337.842 180.094 337.802 180.017C337.762 179.941 337.693 179.883 337.611 179.857ZM97.2858 218.225C98.4771 216.91 99.8816 215.541 101.375 214.154C107.722 208.287 115.794 202.384 117.554 201.939C121.821 200.837 168.688 203.717 173.453 207.273C174.253 207.878 174.413 209.051 174.253 210.456C173.613 216.038 167.781 225.248 164.386 229.746C160.545 226.439 102.371 218.919 97.2858 218.225ZM184.405 46.0134C191.197 46.6535 210.239 48.8403 213.51 54.7787C218.133 63.135 215.288 91.6355 214.15 101.005C213.155 99.6718 212.123 98.4095 211.074 97.2538C205.047 90.6399 194.699 87.3151 185.934 85.626C180.304 84.6456 174.623 83.9749 168.919 83.617C168.741 83.617 169.026 83.8837 167.621 81.0034C165.523 76.683 165.399 76.7541 165.612 76.6296C167.943 76.5055 170.252 76.1118 172.493 75.4562C178.502 73.6783 182.076 70.1224 183.765 61.4815C184.682 56.3601 184.874 51.135 184.334 45.9601L184.405 46.0134ZM169.097 84.1681C170.217 84.3281 170.519 84.3104 170.608 84.3637C170.608 84.8082 174.502 105.699 161.167 106.659C150.144 107.566 142.89 92.0978 138.979 81.7679C140.401 81.5368 141.539 81.3768 142.303 81.2701C142.677 89.3775 154.34 104.081 160.812 103.05C168.084 101.859 171.657 90.7999 169.097 84.1681ZM142.552 51.4539C142.712 50.6607 143.067 49.9199 143.585 49.2989C144.104 48.6779 144.769 48.1963 145.521 47.898C149.077 47.0268 149.077 51.4539 151.904 51.205C155.46 50.9739 151.495 42.7242 154.553 37.6926C157.878 32.1454 171.355 43.3643 182.254 35.0435C183.57 44.4133 185.01 51.7028 183.001 61.2682C181.223 69.6601 177.916 72.7537 172.208 74.425C169.863 74.9649 167.489 75.3685 165.097 75.634C164.906 75.7418 164.746 75.8962 164.63 76.0827C164.515 76.2692 164.45 76.4819 164.439 76.7008C164.439 77.323 166.217 80.5056 167.87 84.2215C170.342 90.0531 167.124 100.65 160.616 101.663C155.994 102.392 146.944 92.0267 144.366 84.7015C143.228 81.4657 143.566 81.3412 145.575 68.7C148.402 68.8956 148.989 63.3662 149.131 60.5037C149.16 59.8968 148.949 59.3028 148.544 58.8502C147.264 57.4456 146.215 59.0813 143.726 55.9699C143.183 55.3663 142.793 54.6409 142.588 53.855C142.384 53.0691 142.372 52.2456 142.552 51.4539ZM131.298 47.738C133.68 58.619 139.939 66.1753 144.241 68.2733C143.459 73.2693 142.57 78.8343 142.339 80.5234C132.08 81.038 121.962 83.1371 112.345 86.7462C108.074 88.3815 104.094 90.6926 100.557 93.5912C98.6015 83.457 103.633 63.6506 103.011 58.0323C102.726 55.6499 102.051 53.1252 99.7216 52.6096C107.687 50.1027 122.444 48.6803 131.298 47.738ZM98.6549 53.0719C99.0798 53.0863 99.4973 53.1867 99.8823 53.367C100.267 53.5473 100.612 53.8037 100.895 54.1208C101.697 55.3304 102.101 56.76 102.051 58.2101C102.442 63.544 96.9125 83.208 100.024 94.1069C97.0269 96.9171 94.7572 100.413 93.4099 104.294C91.9875 95.6359 89.6229 56.2188 98.6549 53.0719ZM34.7732 134.075C34.9155 133.239 36.4445 132.866 37.2801 132.724C43.4496 131.71 56.2686 135.231 55.9841 139.516C55.5574 145.863 57.5132 222.777 55.8419 225.604C53.8506 229 42.9696 227.115 38.6314 224.093C36.6579 222.724 36.6934 221.55 36.7468 221.781C35.2355 161.242 34.5243 135.462 34.7732 134.075ZM75.986 227.008C76.8928 230.031 69.7632 236.983 66.4562 237.907C63.1493 238.832 14.398 226.208 17.5805 223.328C16.1048 224.661 25.5101 216.003 29.6528 214.616C29.983 214.451 30.3603 214.407 30.7195 214.492C31.1996 214.705 33.0842 215.185 35.8044 215.825C35.9645 219.577 36.0711 221.799 36.0711 221.799C37.1201 227.026 53.8506 230.973 56.7664 226.155C57.2129 224.448 57.4517 222.692 57.4776 220.928C60.1979 221.603 74.1547 224.999 75.986 227.008ZM96.4324 194.454C91.7564 194.632 62.6514 187.805 57.9577 186.702C57.8688 165.865 57.4421 142.503 57.6554 139.622C58.0821 133.079 41.4405 129.524 35.5733 131.444C34.9919 131.571 34.4576 131.859 34.0304 132.273C33.6033 132.688 33.3002 133.213 33.1553 133.791C32.7642 136.155 34.2932 178.239 34.3821 180.764C31.484 179.982 4.3348 172.745 3.21469 169.847C2.91244 163.305 0.0143909 100.045 2.07681 94.0535C11.7488 96.4715 94.3522 113.131 100.166 117.167C101.624 121.167 98.2993 188.8 96.4324 194.454ZM100.611 193.405C100.611 194.596 99.0282 195.005 97.8548 195.183C99.775 190.578 103.598 120.509 101.642 116.385C99.6861 112.26 10.4865 94.9247 2.14793 92.5956C2.51877 92.1944 2.97026 91.8761 3.47277 91.6616C3.97529 91.4471 4.51747 91.3412 5.06376 91.351C7.5351 91.1732 98.7437 111.549 104.042 114.464C104.931 117.025 104.042 134.857 103.918 137.791C103.598 144.867 100.682 192.445 100.611 193.405ZM148.615 181.368C146.535 184.142 139.156 183.804 135.689 183.484H134.836C136.418 180.304 137.314 176.827 137.467 173.279C139.245 172.781 145.753 171.27 146.748 172.87C147.051 173.332 146.09 173.883 145.593 174.15C144.278 174.76 142.901 175.225 141.486 175.537C141.276 175.577 141.09 175.699 140.97 175.875C140.85 176.052 140.805 176.269 140.846 176.479C140.886 176.689 141.007 176.874 141.184 176.994C141.361 177.114 141.578 177.159 141.788 177.119C143.566 176.87 148.42 176.195 150.144 176.781C149.434 177.768 148.413 178.487 147.246 178.826C145.584 178.815 143.924 178.952 142.286 179.235C142.05 179.28 141.838 179.409 141.692 179.6C141.546 179.79 141.474 180.028 141.492 180.267C141.509 180.507 141.615 180.732 141.787 180.899C141.96 181.066 142.188 181.163 142.428 181.173C144.234 181.226 146.036 180.979 147.762 180.444C148.211 180.463 148.653 180.571 149.06 180.764C148.946 181.003 148.775 181.211 148.562 181.368H148.615ZM165.435 180.746C165.359 181.023 165.218 181.278 165.023 181.488C164.828 181.699 164.585 181.859 164.314 181.955C161.025 183.733 152.722 183.413 149.024 183.04C150.393 181.991 151.193 180.284 149.806 179.342C152.544 177.564 152.26 175.661 150.464 175.11C149.301 174.828 148.099 174.744 146.908 174.861C148.028 174.026 148.437 173.083 147.762 172.07C146.784 170.683 144.206 170.861 142.606 171.128C141.844 164.089 141.453 157.014 141.432 149.934C146.179 153.384 161.914 153.49 167.408 150.219C167.675 156.193 165.879 178.15 165.363 180.746H165.435ZM150.18 176.71C150.18 176.71 150.126 176.746 150.126 176.71H150.18ZM188.334 177.101C191.624 167.483 192.086 147.107 191.89 136.92C194.646 141.347 209.67 162.576 209.777 162.753C210.141 163.312 210.571 163.825 211.057 164.282C214.639 167.556 218.66 170.315 223.004 172.479C227.645 174.932 228.018 174.808 227.983 175.003L227.36 177.67C227.058 177.653 191.055 177.101 188.281 177.101H188.334ZM195.997 185.084C199.82 182.417 225.814 183.626 226.098 183.449V183.644C223.609 195.556 222.649 199.859 222.347 201.424C222.507 200.73 223.484 196.09 224.605 190.952C225.387 187.182 226.383 182.702 227.396 177.955C227.858 175.786 228.16 174.399 228.178 174.292C223.307 171.714 215.875 167.269 211.981 163.34C211.003 162.344 192.104 136.155 191.926 135.853C191.748 135.551 191.748 127.746 191.553 127.39C191.515 127.35 191.467 127.322 191.413 127.31C191.359 127.299 191.303 127.304 191.253 127.325C191.202 127.347 191.159 127.383 191.13 127.43C191.101 127.476 191.087 127.531 191.09 127.586C190.912 127.586 191.09 165.598 187.801 177.048L167.319 177.244C167.444 176.248 167.568 175.092 167.71 173.848C175.96 174.897 179.711 165.847 177.525 158.469C176.227 154.415 172.884 153.793 169.062 155.748C169.239 153.381 169.239 151.004 169.062 148.636C169.226 148.228 169.255 147.777 169.143 147.351C169.031 146.925 168.784 146.546 168.439 146.272C165.79 143.783 158.376 143.516 154.767 143.516C151.158 143.516 143.726 143.8 141.094 146.272C140.864 146.45 140.681 146.682 140.561 146.947C139.21 149.383 141.806 170.736 142.126 171.199C140.577 171.507 139.051 171.917 137.556 172.425V169.581C137.45 163.376 117.608 159.926 116.932 156.388C116.701 155.179 116.328 152.477 115.901 149.277C113.501 131.71 113.856 132.386 113.465 132.386C113.399 132.386 113.336 132.412 113.289 132.459C113.242 132.506 113.216 132.569 113.216 132.635C113.216 133.115 115.136 152.459 115.83 156.566C116.523 160.673 136.223 164.656 136.312 169.581C136.312 173.421 135.458 182.951 132.134 184.32C130.124 185.173 114.585 185.956 102.193 181.6C102.46 178.15 107.402 116.402 105.02 113.664C104.113 112.615 93.4632 109.948 92.112 109.611C97.4458 97.5205 101.393 87.564 138.481 81.7501C139.511 85.2023 140.77 88.582 142.25 91.8666C146.019 99.9207 152.402 108.615 161.239 107.868C171.391 106.997 173.026 95.9915 171.408 85.9461C171.302 85.2349 171.195 84.7726 171.106 84.3637C175.984 84.8518 180.833 85.5996 185.632 86.6039C194.006 88.3819 204.3 91.76 210.043 98.125C216.248 104.952 221.671 115.496 225.476 123.923C230.952 136.049 230.916 139.178 235.628 146.165C232.315 156.619 229.537 167.235 227.307 177.973C226.596 181.297 225.529 186.365 224.516 190.969C223.04 198.081 222.151 202.579 222.24 201.637C222.08 202.597 222.24 202.562 222.24 202.793C216.444 200.208 210.851 197.188 205.509 193.761C203.643 192.516 194.113 186.418 195.997 185.049V185.084ZM168.919 159.375C168.919 158.451 169.026 157.597 169.062 156.708C172.28 155.41 175.142 155.606 176.013 158.966C177.791 165.065 174.982 173.19 167.817 173.19C167.817 172.337 168.119 169.901 168.155 169.634C176.333 170.736 176.28 155.766 168.919 159.375ZM168.226 168.869C168.475 166.06 168.688 163.091 168.866 160.3C169.717 160.037 170.628 160.037 171.48 160.3C173.595 161.064 173.257 168.407 168.137 168.869H168.226ZM226.383 208.322C219.541 206.084 212.922 203.215 206.612 199.752C204.834 198.81 195.624 193.796 195.002 191.858C194.464 190.128 194.409 188.284 194.842 186.525C197.224 191.165 212.337 198.97 217.191 201.264C219.413 202.312 221.706 203.204 224.053 203.931C232.268 206.864 267.506 202.153 276.165 201.086C276.272 201.459 277.018 204.322 277.303 205.353C269.764 206.224 233.459 210.189 226.294 208.322H226.383ZM305.821 253.037C303.225 255.242 287.651 257.091 280.308 254.815C277.641 253.98 277.107 253.126 276.467 250.424C275.884 247.491 275.516 244.52 275.365 241.534C279.01 243.774 285.695 244.343 289.98 244.468C296.434 244.61 302.781 244.468 307.972 241.534C307.866 243.419 307.261 251.811 305.821 253.037ZM308.026 240.841C304.519 242.341 300.746 243.121 296.931 243.134C291.846 243.383 279.934 243.348 275.329 240.894C275.134 237.552 275.009 233.978 274.956 230.653C276.734 232.787 286.21 233.747 289.997 233.871C296.754 234.013 303.03 233.871 308.435 230.671C308.435 230.493 308.381 234.707 308.044 240.841H308.026ZM308.435 230.049C299.545 234.529 277.481 232.502 274.938 230.049V219.114C280.592 221.123 302.941 220.981 308.541 219.114C308.506 221.159 308.524 225.319 308.452 230.049H308.435ZM304.879 218.083C304.943 218.101 305.01 218.094 305.07 218.065C305.129 218.035 305.175 217.985 305.199 217.923C305.199 217.923 305.199 217.603 305.306 217.034C306.451 217.192 307.582 217.447 308.684 217.799C304.79 219.577 281.357 219.737 275.507 218.012C275.467 218 275.433 217.975 275.408 217.941C275.383 217.908 275.37 217.867 275.37 217.825C275.37 217.784 275.383 217.743 275.408 217.709C275.433 217.676 275.467 217.651 275.507 217.639C277.137 217.196 278.803 216.898 280.485 216.75C280.603 217.244 280.782 217.722 281.019 218.172C281.161 218.314 281.392 218.332 281.374 217.976C281.357 217.621 275.525 194.596 274.636 189.529C275.545 189.833 276.515 189.908 277.46 189.75C278.405 189.592 279.298 189.205 280.059 188.622C282.014 194.099 288.255 218.741 288.628 218.741C288.696 218.736 288.759 218.706 288.806 218.657C288.852 218.607 288.877 218.542 288.877 218.474L288.362 216.074H290.815C290.815 216.412 291.011 218.136 291.029 218.261C291.046 218.385 291.562 218.688 291.526 218.03C291.526 216.43 290.033 189.92 289.997 189.44C290.253 189.317 290.521 189.222 290.797 189.156C290.993 190.116 297.251 215.469 297.731 217.443C297.731 217.621 297.731 217.923 298.069 217.852C298.407 217.781 298.265 217.461 298.069 216.305L300.79 216.501V216.803C300.79 217.087 301.234 217.016 301.287 216.803C301.287 216.999 304.594 182.88 304.843 180.159C305.312 180.515 305.851 180.766 306.424 180.898C306.997 181.03 307.591 181.039 308.168 180.924C308.132 181.191 304.488 217.959 304.861 218.083H304.879ZM288.877 182.737C288.666 181.027 287.92 179.428 286.744 178.168C289.18 178.897 289.695 179.431 290.3 181.102C290.781 182.433 290.909 183.866 290.673 185.262C290.432 186.141 290.432 187.068 290.673 187.947C290.382 188.014 290.097 188.103 289.82 188.214C288.717 185.067 286.264 185.102 286.264 181.937C286.26 180.793 286.093 179.656 285.766 178.559C286.627 180.12 287.571 181.633 288.593 183.093C288.771 183.324 289.108 182.986 288.895 182.737H288.877ZM289.766 205.175C289.855 206.046 290.549 213.603 290.726 215.523H288.184C287.651 213.123 286.85 209.567 285.944 205.762L289.766 205.175ZM289.66 203.806L285.606 204.34C285.25 202.864 284.877 201.37 284.504 199.895C286.139 199.664 287.739 199.415 289.286 199.166C289.357 199.93 289.606 203.024 289.677 203.806H289.66ZM295.189 202.988C294.905 201.637 294.211 198.579 294.158 198.401C295.705 198.135 300.967 197.228 302.052 197.014C302.052 197.779 301.75 201.015 301.678 201.833C299.954 202.206 297.749 202.597 295.153 202.988H295.189ZM301.607 202.988C301.287 207.593 300.79 215.292 300.772 215.718C299.847 215.718 298.869 215.683 297.838 215.612C297.411 213.46 295.58 204.837 295.456 204.251C297.856 203.771 299.918 203.344 301.625 202.935L301.607 202.988ZM305.003 178.684C305.22 176.431 305.571 174.193 306.052 171.981C306.527 171.839 307.027 171.805 307.516 171.882C308.006 171.958 308.471 172.144 308.879 172.425C308.773 174.66 308.535 176.886 308.168 179.093C308.008 179.715 307.972 179.875 307.564 179.928C306.763 179.982 305.146 179.306 305.021 178.63L305.003 178.684ZM307.332 199.877C307.492 198.561 307.652 197.228 307.795 195.894C308.848 195.673 309.882 195.37 310.888 194.988C310.328 196.972 309.072 198.689 307.35 199.824L307.332 199.877ZM310.302 193.512C309.551 193.81 308.778 194.048 307.99 194.223C308.31 191.236 310.195 173.848 310.195 172.621C310.195 170.843 307.03 170.185 305.394 170.843C304.843 171.092 304.683 172.141 304.523 173.065C303.634 178.026 302.585 190.4 302.176 195.432L293.838 196.961C291.758 187.894 291.935 188.391 291.704 188.16C291.545 188.009 291.337 187.921 291.117 187.911C290.953 187.12 290.996 186.299 291.242 185.529C291.61 183.991 291.561 182.383 291.1 180.871C290.863 179.771 290.23 178.796 289.322 178.133C287.875 177.366 286.314 176.837 284.699 176.568C284.614 176.545 284.525 176.543 284.44 176.561C284.354 176.58 284.274 176.618 284.206 176.674C284.138 176.73 284.085 176.801 284.05 176.881C284.015 176.962 284 177.049 284.006 177.137C284.044 177.288 284.091 177.436 284.148 177.581C285.535 180.888 284.575 182.4 285.535 184.373C286.495 186.347 288.113 186.649 288.699 188.925C288.699 189.103 289.197 197.317 289.215 197.814L284.184 198.615C283.828 197.263 281.392 187.645 280.432 186.702C278.654 184.924 273.569 186.916 273.32 188.48C273.16 189.369 275.596 198.899 275.827 199.806C266.671 201.139 256.963 202.348 248.376 203.148C244.624 203.486 221.707 205.584 222.987 201.833C224.765 193.619 228.32 178.542 229.032 175.377V175.128C229.032 174.861 229.156 174.594 229.032 175.377C229.032 175.11 229.138 174.95 229.174 174.861L233.619 157.668C234.205 155.553 238.241 141.169 240.286 140.156C244.82 137.915 319.334 128.279 325.627 132.493C326.694 137.062 313.591 191.343 310.319 193.53L310.302 193.512Z" fill="url(#paint0_linear_416_15051)"/>
<path d="M166.27 50.5132V49.1442C166.27 48.9226 166.182 48.71 166.025 48.5533C165.869 48.3966 165.656 48.3085 165.434 48.3085C165.211 48.3085 164.997 48.396 164.837 48.5522C164.678 48.7084 164.586 48.9209 164.581 49.1442V50.7443C164.62 50.9558 164.74 51.1439 164.914 51.2696C165.089 51.3953 165.305 51.4488 165.518 51.419C165.731 51.3892 165.925 51.2785 166.058 51.1097C166.191 50.941 166.255 50.7274 166.234 50.5132H166.27ZM279.899 159.928C279.383 159.43 278.654 158.843 277.978 159.057C276.858 159.412 275.738 162.257 275.258 163.431C273.91 166.932 272.84 170.535 272.058 174.205C272.787 176.09 285.09 173.618 286.761 172.8C287.295 172.551 287.224 171.911 287.046 171.342C285.286 167.181 282.874 163.328 279.899 159.928ZM272.538 173.974C272.858 172.498 276.912 161.19 278.298 160.159C280.45 161.386 284.77 168.924 285.926 171.769C284.326 172.409 273.462 175.165 272.538 173.974ZM127.778 211.684C127.6 211.808 123.724 214.262 123.546 214.44C123.504 214.457 123.468 214.487 123.443 214.525C123.417 214.563 123.404 214.608 123.404 214.653C123.404 214.699 123.417 214.743 123.443 214.781C123.468 214.819 123.504 214.849 123.546 214.867C124.542 215.151 127.866 215.524 128.88 215.631C153.202 209.533 153.362 209.533 153.06 209.533C153.223 209.51 153.372 209.426 153.475 209.297C153.577 209.168 153.626 209.004 153.611 208.839C153.611 208.537 153.131 206.439 152.989 205.799L127.778 211.684ZM174.893 43.0814C175.391 43.0814 176.369 43.3125 176.564 43.3303C177.643 43.4423 178.713 43.6324 179.765 43.8992L181.365 44.1837C181.426 44.1989 181.49 44.1921 181.546 44.1646C181.603 44.1371 181.648 44.0906 181.673 44.0332C181.698 43.9759 181.703 43.9115 181.686 43.8512C181.668 43.7909 181.63 43.7387 181.578 43.7037C180.651 42.9178 179.525 42.4012 178.325 42.2102C177.136 41.9552 175.898 42.0604 174.769 42.5124C174.731 42.5206 174.696 42.5361 174.665 42.5579C174.633 42.5798 174.606 42.6076 174.586 42.6398C174.565 42.672 174.551 42.7079 174.544 42.7455C174.537 42.7832 174.538 42.8218 174.546 42.8591C174.555 42.8965 174.57 42.9319 174.592 42.9633C174.614 42.9947 174.641 43.0214 174.674 43.0421C174.706 43.0627 174.742 43.0768 174.779 43.0835C174.817 43.0903 174.856 43.0896 174.893 43.0814ZM160.812 44.646C161.292 44.5393 162.323 44.3793 162.59 44.3437C163.667 44.1084 164.761 43.9539 165.861 43.8815L167.639 43.6859C167.71 43.6859 167.778 43.6578 167.828 43.6078C167.878 43.5578 167.906 43.4899 167.906 43.4192C167.906 43.3485 167.878 43.2806 167.828 43.2306C167.778 43.1806 167.71 43.1525 167.639 43.1525C166.493 42.6666 165.236 42.5042 164.004 42.6829C162.772 42.8616 161.613 43.3745 160.652 44.1659C160.609 44.1659 160.568 44.176 160.53 44.1952C160.493 44.2145 160.46 44.2424 160.435 44.2767C160.411 44.311 160.394 44.3506 160.388 44.3924C160.382 44.4342 160.385 44.4769 160.399 44.517C160.412 44.5571 160.435 44.5934 160.465 44.623C160.495 44.6526 160.532 44.6746 160.572 44.6872C160.613 44.6998 160.655 44.7026 160.697 44.6955C160.739 44.6883 160.778 44.6713 160.812 44.646ZM178.591 47.7396C178.37 47.7396 178.157 47.8276 178 47.9844C177.844 48.1411 177.756 48.3536 177.756 48.5752V50.1754C177.786 50.397 177.904 50.5974 178.082 50.7324C178.26 50.8675 178.485 50.9261 178.707 50.8955C178.928 50.8648 179.129 50.7474 179.264 50.569C179.399 50.3906 179.457 50.1659 179.427 49.9443V48.5752C179.429 48.4648 179.409 48.3551 179.368 48.2526C179.327 48.1501 179.266 48.057 179.188 47.979C179.109 47.9009 179.016 47.8394 178.914 47.7983C178.811 47.7571 178.702 47.7372 178.591 47.7396ZM40.6048 202.101C43.0761 202.901 48.8367 205.052 51.4858 204.732C51.8059 204.732 52.1615 204.412 52.3926 203.843C54.1705 199.843 52.8904 179.503 52.2504 175.574C51.8059 172.747 41.5827 169.244 39.1113 171.254C37.5112 172.551 38.3113 187.611 38.489 189.709C38.9513 194.776 38.4713 201.408 40.6048 202.101ZM39.9114 172.196C41.8316 170.809 50.7391 174.098 51.0236 175.752C51.4681 178.543 53.1215 202.012 51.3436 203.843C49.05 204.181 42.9695 202.314 40.6759 201.603C39.058 201.07 39.6092 193.993 39.3425 189.62C39.218 186.668 39.0224 174.952 39.9114 172.196ZM166.252 61.1631C166.208 61.1412 166.159 61.1298 166.11 61.1298C166.061 61.1298 166.012 61.1412 165.968 61.1631C165.523 61.3231 165.257 61.8209 165.185 62.5499C165.128 64.4335 165.76 66.2733 166.963 67.7237C167.245 68.1087 167.602 68.433 168.012 68.6772C168.422 68.9215 168.877 69.0807 169.35 69.1454C169.823 69.2101 170.304 69.179 170.764 69.0539C171.225 68.9287 171.655 68.7122 172.031 68.4171C173.102 67.5351 173.944 66.4065 174.484 65.1279C174.533 65.0283 174.558 64.9188 174.558 64.8079C174.558 64.697 174.533 64.5875 174.484 64.4879C173.933 63.6344 172.617 64.8434 166.252 61.1631ZM166.092 61.7676C168.024 63.4125 170.285 64.6249 172.724 65.3235C168.919 71.7952 165.097 63.0655 166.092 61.7676ZM170.448 57.5894C171.586 57.8028 174.733 57.4116 175.409 56.256C175.746 55.7048 175.409 55.527 174.662 53.2512C173.989 51.2741 173.199 49.3387 172.297 47.4551C171.977 46.9573 171.568 47.4551 171.799 47.7574C172.293 50.4833 173.08 53.1478 174.146 55.7048C172.86 56.3069 171.542 56.841 170.199 57.305C170.197 57.34 170.201 57.3752 170.213 57.4084C170.224 57.4417 170.242 57.4725 170.265 57.4989C170.288 57.5253 170.316 57.5469 170.347 57.5625C170.379 57.578 170.413 57.5872 170.448 57.5894ZM236.019 242.478C242.686 238.247 237.495 234.353 233.085 236.202C232.001 234.228 231.752 234.068 229.529 234.175C217.99 234.762 165.879 246.816 165.381 247.012C162.75 248.096 169.435 263.796 172.084 265.858C172.688 266.32 172.493 266.409 179.018 265.129C179.445 269.005 181.134 275.797 185.081 276.01C186.92 275.673 188.712 275.112 190.415 274.339C193.712 277.619 197.222 280.678 200.922 283.495C205.011 286.233 231.147 255.706 235.059 252.15C236.179 251.777 237.175 251.528 237.05 248.754C240.428 248.132 243.042 246.052 241.246 243.065C240.037 241.251 237.939 241.536 236.019 242.478ZM236.641 237.642C237.37 237.909 237.743 238.193 237.512 238.922C237.033 240.036 236.332 241.041 235.45 241.874C234.978 240.427 234.426 239.009 233.796 237.624C234.717 237.293 235.725 237.299 236.641 237.642ZM217.724 237.055C218.382 240.167 218.826 241.856 219.662 244.718L207.341 247.047C206.632 244.475 205.807 241.936 204.869 239.438C207.198 238.993 215.821 237.375 217.724 237.055ZM199.5 260.791C200.152 263.025 201.116 265.156 202.362 267.12C198.949 268.774 195.731 270.285 192.993 271.53C192.01 268.548 190.629 265.713 188.886 263.102L199.5 260.791ZM194.468 260.791C193.867 257.702 193.108 254.646 192.192 251.634L206.416 248.559C207.192 251.57 208.13 254.538 209.225 257.448C204.336 258.48 199.233 259.635 194.468 260.72V260.791ZM200.389 260.88C200.193 260.595 198.984 261.022 212.07 258.017C212.301 259.339 212.79 260.601 213.51 261.733L203.091 266.836C202.473 264.712 201.563 262.683 200.389 260.809V260.88ZM212.834 257.822C219.591 256.257 225.796 254.764 230.081 253.626L214.381 261.289C214.091 260.026 213.572 258.827 212.852 257.751L212.834 257.822ZM209.83 257.271C209.259 254.237 208.535 251.234 207.661 248.274L219.804 245.287C219.804 245.376 220.622 248.114 220.995 249.288C221.173 249.821 222.684 254.124 222.773 254.195C219.093 255.013 210.114 257.128 209.812 257.199L209.83 257.271ZM204.336 239.616C204.923 242.851 205.474 244.949 206.114 247.367L191.89 250.497C191.055 247.67 190.486 245.821 189.259 242.62C192.032 241.98 202.202 239.953 204.354 239.544L204.336 239.616ZM188.672 242.727C189.366 246.283 189.881 248.15 190.628 250.781C189.437 251.048 179.711 253.484 179.711 253.484C179.356 253.484 179.498 254.035 179.854 253.964C179.854 253.964 190.397 252.008 190.93 251.883C190.93 251.883 191.695 254.941 193.882 260.933L182.414 263.493C180.774 257.291 178.712 251.209 176.244 245.287L188.672 242.727ZM172.582 265.254C169.879 263.227 163.692 248.292 165.559 247.474C165.559 247.474 169.63 246.585 175.746 245.305C177.271 251.536 179.305 257.631 181.827 263.529C172.475 265.627 172.884 265.414 172.6 265.182L172.582 265.254ZM185.027 274.712C182.023 274.712 180.227 268.223 179.694 265.271C179.694 264.934 178.751 265.271 188.05 263.333C188.512 263.244 187.783 263.12 190.006 267.743C190.643 269.195 191.43 270.577 192.353 271.867C190.014 272.987 187.588 273.915 185.098 274.641L185.027 274.712ZM201.598 282.322C197.983 279.789 194.511 277.059 191.197 274.143C194.255 272.881 197.722 271.263 200.709 269.841C203.047 272.559 205.697 274.994 208.603 277.095C207.394 278.126 203.287 281.931 201.669 282.251L201.598 282.322ZM209.119 276.561C206.77 273.94 204.141 271.585 201.278 269.538L212.443 264.045C213.999 265.641 215.8 266.98 217.777 268.009C214.981 270.903 212.118 273.73 209.19 276.49L209.119 276.561ZM218.382 267.44C216.899 265.927 215.211 264.628 213.368 263.582C221.013 259.724 225.405 257.377 232.534 253.43C229.369 256.222 221.333 264.436 218.453 267.369L218.382 267.44ZM235.343 250.728C234.579 251.279 224.107 253.839 223.2 254.052C222.068 248.236 220.407 242.535 218.239 237.02C221.689 236.433 228.516 235.242 231.058 235.526C231.402 235.931 231.7 236.372 231.947 236.842C230.734 237.666 229.73 238.762 229.014 240.042C228.836 240.487 229.298 240.718 229.529 240.505C230.419 239.564 231.458 238.776 232.605 238.175C233.412 239.842 234.113 241.559 234.703 243.314C233.123 244.394 231.7 245.686 230.472 247.154C230.241 247.439 230.312 247.652 230.472 247.741C230.898 247.99 230.934 247.35 235.13 244.86C235.554 246.3 235.793 247.788 235.841 249.288C235.752 249.608 235.699 250.425 235.414 250.657L235.343 250.728ZM239.77 245.963C238.976 246.872 237.977 247.579 236.855 248.025C236.691 246.758 236.435 245.504 236.09 244.274C237.246 243.687 239.041 242.94 239.646 244.025C239.873 244.274 240.015 244.59 240.05 244.926C240.086 245.262 240.012 245.6 239.841 245.892L239.77 245.963Z" fill="black"/>
<defs>
<linearGradient id="paint0_linear_416_15051" x1="168.92" y1="15.418" x2="168.92" y2="257.128" gradientUnits="userSpaceOnUse">
<stop stop-color="#5E0303"/>
<stop offset="1" stop-color="#8A0202"/>
</linearGradient>
</defs>
</svg>
