<svg width="46" height="46" viewBox="0 0 46 46" fill="none" xmlns="http://www.w3.org/2000/svg">
<g clip-path="url(#clip0_464_926)">
<g clip-path="url(#clip1_464_926)">
<path d="M26.3222 12.2694L35.3625 21.9326C35.6274 22.2261 35.774 22.6074 35.774 23.0027C35.774 23.3981 35.6274 23.7794 35.3625 24.0729L26.3222 33.7361C26.1951 33.874 26.0407 33.9841 25.8689 34.0594C25.6971 34.1347 25.5116 34.1736 25.324 34.1736C25.1364 34.1736 24.9508 34.1347 24.779 34.0594C24.6072 33.9841 24.4528 33.874 24.3257 33.7361C24.0608 33.4426 23.9142 33.0613 23.9142 32.6659C23.9142 32.2706 24.0608 31.8893 24.3257 31.5958L30.9382 24.5201H11.6438C10.8451 24.5201 10.2222 23.8333 10.2222 23.0027C10.2222 22.1722 10.8611 21.4854 11.6438 21.4854H30.9382L24.3257 14.4097C24.0608 14.1162 23.9142 13.7349 23.9142 13.3395C23.9142 12.9442 24.0608 12.5629 24.3257 12.2694C24.4528 12.1315 24.6072 12.0214 24.779 11.9461C24.9508 11.8708 25.1364 11.8319 25.324 11.8319C25.5116 11.8319 25.6971 11.8708 25.8689 11.9461C26.0407 12.0214 26.1951 12.1315 26.3222 12.2694Z" fill="white"/>
</g>
</g>
<circle cx="23" cy="23" r="22" transform="rotate(-90 23 23)" stroke="white" stroke-width="2"/>
<defs>
<clipPath id="clip0_464_926">
<rect width="25.5556" height="25.5556" fill="white" transform="translate(10.2222 10.2222)"/>
</clipPath>
<clipPath id="clip1_464_926">
<rect width="25.5556" height="25.5556" fill="white" transform="translate(10.2222 10.2222)"/>
</clipPath>
</defs>
</svg>
