<svg width="24" height="25" viewBox="0 0 24 25" fill="none" xmlns="http://www.w3.org/2000/svg">
<g id="vuesax/linear/award">
<g id="award">
<path id="Vector" d="M4.26001 11.5214V16.4914C4.26001 18.3114 4.26001 18.3114 5.98001 19.4714L10.71 22.2014C11.42 22.6114 12.58 22.6114 13.29 22.2014L18.02 19.4714C19.74 18.3114 19.74 18.3114 19.74 16.4914V11.5214C19.74 9.70141 19.74 9.70141 18.02 8.54141L13.29 5.81141C12.58 5.40141 11.42 5.40141 10.71 5.81141L5.98001 8.54141C4.26001 9.70141 4.26001 9.70141 4.26001 11.5214Z" stroke="#6E0202" stroke-width="1.5" stroke-linecap="round" stroke-linejoin="round"/>
<path id="Vector_2" d="M17.5 8.13V5.5C17.5 3.5 16.5 2.5 14.5 2.5H9.5C7.5 2.5 6.5 3.5 6.5 5.5V8.06" stroke="#6E0202" stroke-width="1.5" stroke-linecap="round" stroke-linejoin="round"/>
<path id="Vector_3" d="M12.63 11.4909L13.2 12.3809C13.29 12.5209 13.49 12.6609 13.64 12.7009L14.66 12.9609C15.29 13.1209 15.46 13.6609 15.05 14.1609L14.38 14.9709C14.28 15.1009 14.2 15.3309 14.21 15.4909L14.27 16.5409C14.31 17.1909 13.85 17.5209 13.25 17.2809L12.27 16.8909C12.12 16.8309 11.87 16.8309 11.72 16.8909L10.74 17.2809C10.14 17.5209 9.68002 17.1809 9.72002 16.5409L9.78002 15.4909C9.79002 15.3309 9.71002 15.0909 9.61002 14.9709L8.94002 14.1609C8.53002 13.6609 8.70002 13.1209 9.33002 12.9609L10.35 12.7009C10.51 12.6609 10.71 12.5109 10.79 12.3809L11.36 11.4909C11.72 10.9509 12.28 10.9509 12.63 11.4909Z" stroke="#6E0202" stroke-width="1.5" stroke-linecap="round" stroke-linejoin="round"/>
</g>
</g>
</svg>
