<svg width="24" height="25" viewBox="0 0 24 25" fill="none" xmlns="http://www.w3.org/2000/svg">
<g id="vuesax/linear/monitor-recorder">
<g id="monitor-recorder">
<path id="Vector" d="M22 12.39V13.28C22 16.84 21.11 17.72 17.56 17.72H6.44C2.89 17.72 2 16.83 2 13.28V6.94C2 3.39 2.89 2.5 6.44 2.5H8" stroke="#6E0202" stroke-width="1.5" stroke-linecap="round" stroke-linejoin="round"/>
<path id="Vector_2" d="M12 17.7188V22.4988" stroke="#6E0202" stroke-width="1.5" stroke-linecap="round" stroke-linejoin="round"/>
<path id="Vector_3" d="M2 13.5H22" stroke="#6E0202" stroke-width="1.5" stroke-linecap="round" stroke-linejoin="round"/>
<path id="Vector_4" d="M7.5 22.5H16.5" stroke="#6E0202" stroke-width="1.5" stroke-linecap="round" stroke-linejoin="round"/>
<path id="Vector_5" d="M17.8598 9.87172H13.0998C11.7198 9.87172 11.2598 8.95172 11.2598 8.03172V4.51172C11.2598 3.41172 12.1598 2.51172 13.2598 2.51172H17.8598C18.8798 2.51172 19.6998 3.33172 19.6998 4.35172V8.03172C19.6998 9.05172 18.8798 9.87172 17.8598 9.87172Z" stroke="#6E0202" stroke-width="1.5" stroke-linecap="round" stroke-linejoin="round"/>
<path id="Vector_6" d="M20.9102 8.41851L19.7002 7.56851V4.80851L20.9102 3.95851C21.5102 3.54851 22.0002 3.79851 22.0002 4.52851V7.85851C22.0002 8.58851 21.5102 8.83851 20.9102 8.41851Z" stroke="#6E0202" stroke-width="1.5" stroke-linecap="round" stroke-linejoin="round"/>
</g>
</g>
</svg>
