<svg width="714" height="482" viewBox="0 0 714 482" fill="none" xmlns="http://www.w3.org/2000/svg">
<path d="M54.3785 406.56C71.8495 418.042 107.297 423.713 109.674 441.357C110.565 448.038 101.146 453.596 106.138 460.081C139.594 503.524 277.817 470.749 337.807 460.32C362.795 455.968 392.716 451.098 419.962 451.154C451.339 451.224 481.081 458.299 512.22 459.155C521.817 459.421 530.701 458.874 538.961 457.625C569.922 452.937 596.247 436.991 605.22 419.656C612.5 405.606 600.585 392.088 612.678 378.248C625.573 363.482 652.523 352.899 658.138 336.027C664.853 315.772 631.278 298.9 596.752 298.998C574.765 299.055 534.207 301.623 516.142 308.908C494.125 317.779 471.87 318.762 445.366 318.93C394.914 319.253 344.047 314.382 293.981 311.168C251.076 308.417 208.617 303.953 165.385 304.094C133.622 304.192 106.673 304.473 90.9844 322.453C72.2061 343.929 17.7726 382.473 54.3785 406.56Z" fill="white"/>
<path d="M655.334 160.408C637.801 135.994 602.228 123.937 599.842 86.4214C598.948 72.2151 608.4 60.3964 603.39 46.608C569.815 -45.7628 431.101 23.9256 370.898 46.1006C345.821 55.3526 315.794 65.7089 288.451 65.5895C256.963 65.4403 227.115 50.3983 195.865 48.5777C186.234 48.0107 177.318 49.1746 169.029 51.8309C137.958 61.7992 111.54 95.7033 102.534 132.562C95.229 162.437 107.186 191.178 95.0501 220.605C82.109 252.002 55.0639 274.506 49.4283 310.38C42.6893 353.446 76.3839 389.32 111.033 389.111C133.098 388.992 173.8 383.53 191.929 368.04C214.025 349.178 236.358 347.089 262.956 346.731C313.588 346.045 364.636 356.401 414.88 363.235C457.937 369.085 500.548 378.576 543.933 378.277C575.809 378.068 602.854 377.472 618.598 339.24C637.443 293.577 692.07 211.622 655.334 160.408Z" fill="#FFF7F7"/>
<path d="M553.015 331.599L553.014 331.598C549.738 328.776 549.896 323.669 553.366 321.049L553.369 321.046C565.65 311.614 596.645 294.006 649.4 302.404C658.037 303.785 669.016 302.474 679.693 300.223C690.382 297.969 700.824 294.761 708.405 292.311L708.408 292.31C711.132 291.413 713.278 294.757 711.313 296.887L711.312 296.888C670.857 341.001 635.826 353.573 608.685 353.206C581.526 352.838 562.149 339.512 553.015 331.599Z" fill="#FF7070" stroke="url(#paint0_linear_627_936)"/>
<path d="M552.166 328.229C551.675 327.946 551.404 327.342 551.533 326.761C551.71 326.037 552.445 325.599 553.128 325.787C588.363 334.413 620.238 330.312 640.794 325.362C663.046 319.979 677.114 312.49 677.251 312.431C677.9 312.082 678.727 312.318 679.076 312.968C679.424 313.617 679.187 314.445 678.538 314.794C678.386 314.878 664.028 322.511 641.451 327.982C620.61 333.008 588.276 337.188 552.516 328.397C552.387 328.323 552.269 328.289 552.166 328.229Z" fill="url(#paint1_linear_627_936)"/>
<path d="M699.083 186.256L699.085 186.252C699.186 186.019 698.925 185.829 698.739 185.98C698.738 185.981 698.738 185.981 698.737 185.981L698.42 185.595L699.083 186.256ZM699.083 186.256C694.803 196.38 678.768 232.282 653.387 265.823C627.986 299.388 593.331 330.45 551.831 331.157L551.83 331.157M699.083 186.256L551.83 331.157M551.83 331.157C549.667 331.199 548.238 328.941 549.19 326.986L549.191 326.985M551.83 331.157L549.191 326.985M549.191 326.985C556.187 312.549 581.034 268.075 636.555 230.67L549.191 326.985Z" fill="#FF7070" stroke="url(#paint2_linear_627_936)"/>
<path d="M548.069 327.931C547.889 327.827 547.712 327.656 547.602 327.489C547.213 326.851 547.409 326.034 548.047 325.644C612.537 286.164 664.965 225.591 666.957 222.261C667.193 221.673 667.842 221.324 668.489 221.457C669.213 221.634 669.664 222.342 669.502 223.041C668.848 225.903 613.646 288.597 549.42 327.918C548.989 328.187 548.483 328.17 548.069 327.931Z" fill="white"/>
<path d="M35.8552 10.5989L35.8552 10.5989L35.8516 10.5944C34.8441 9.35148 35.7486 7.47664 37.3928 7.49948C45.5552 7.66351 62.0553 8.30466 77.971 10.7617C85.9302 11.9905 93.7267 13.671 100.255 15.9659C106.799 18.2666 111.994 21.1598 114.834 24.7679C121.752 33.5705 123.396 47.2543 123.102 62.7184C122.955 70.4342 122.328 78.5581 121.651 86.6923C121.571 87.6558 121.491 88.6195 121.41 89.5826C120.81 96.7451 120.212 103.878 119.916 110.69C118.482 143.51 123.755 171.677 129.038 191.371C131.68 201.219 134.324 208.949 136.133 214.081C136.369 214.748 136.589 215.37 136.794 215.947C137.378 217.593 137.829 218.866 138.11 219.754C138.116 219.772 138.122 219.79 138.127 219.808C137.482 219.062 136.802 218.024 136.099 216.707C135.077 214.794 134.03 212.344 132.98 209.468C130.879 203.718 128.779 196.305 126.835 188.17C122.949 171.902 119.703 152.795 118.349 138.421L118.349 138.42C116.974 123.985 114.09 115.356 109.443 109.473C104.797 103.59 98.4365 100.52 90.3145 97.0892C74.1832 90.2454 58.0101 73.8464 56.5066 53.0445C55.9322 44.9526 52.3202 36.311 48.0956 28.7297C43.8658 21.1391 38.9951 14.5648 35.8552 10.5989Z" fill="#FF7070" stroke="url(#paint3_linear_627_936)"/>
<path d="M57.8585 19.9242C57.8585 19.9242 58.3356 20.0137 59.2301 20.2525C60.1247 20.4912 61.4068 20.8195 63.017 21.3866C64.6272 21.9238 66.5952 22.6102 68.7719 23.5354C70.9487 24.4606 73.4236 25.5649 75.9879 26.9676C78.5523 28.3703 81.2956 30.0118 84.0388 31.9518C86.7821 33.8917 89.585 36.1301 92.209 38.7266C94.833 41.3231 97.3378 44.248 99.5145 47.4713C101.691 50.6945 103.57 54.2163 105.001 57.9171L105.538 59.3198C105.717 59.7675 105.896 60.245 106.015 60.7225C106.313 61.6776 106.611 62.6027 106.88 63.5578C107.386 65.4082 107.864 67.2586 108.341 69.109C108.818 70.9594 109.295 72.78 109.742 74.6005C110.189 76.4211 110.607 78.2118 111.024 79.9726C111.859 83.4944 112.634 86.9266 113.32 90.1797C114.006 93.4328 114.632 96.5367 115.169 99.372C115.437 100.805 115.676 102.177 115.914 103.461C116.123 104.774 116.332 105.998 116.541 107.162C116.928 109.49 117.226 111.519 117.465 113.22C117.704 114.892 117.882 116.235 117.972 117.13C118.061 118.025 118.121 118.533 118.121 118.533C118.151 118.831 117.942 119.13 117.614 119.159C117.316 119.189 117.048 118.98 116.988 118.712C116.988 118.712 116.898 118.234 116.72 117.369C116.541 116.473 116.272 115.19 115.944 113.519C115.288 110.206 114.245 105.49 112.992 99.8495C112.336 97.0441 111.621 93.97 110.875 90.7468C110.07 87.5235 109.235 84.1211 108.4 80.6292C107.506 77.1374 106.552 73.5261 105.597 69.8253C105.09 67.9749 104.613 66.1245 104.106 64.2741C103.838 63.3787 103.57 62.4834 103.301 61.588C103.182 61.1403 103.033 60.6927 102.854 60.245L102.377 58.9318C99.6934 51.8883 95.3399 45.5612 90.3603 40.4875C87.8854 37.9506 85.2912 35.6824 82.6672 33.7126C80.073 31.7428 77.449 30.0417 74.9741 28.6091C72.4992 27.1765 70.1734 25.9529 68.0563 24.9382C65.9392 23.9234 64.0607 23.1474 62.5101 22.5505C60.9596 21.9536 59.7072 21.506 58.8425 21.2075C57.9778 20.9091 57.5305 20.7897 57.5305 20.7897C57.2919 20.73 57.1428 20.4614 57.2323 20.2226C57.4112 20.0137 57.6199 19.8645 57.8585 19.9242Z" fill="white"/>
<path d="M137.142 219.859C137.33 219.947 137.372 219.832 137.294 219.535C137.294 219.534 137.293 219.532 137.293 219.531C137.282 219.487 137.267 219.439 137.25 219.388C137.203 219.387 137.143 219.395 137.077 219.424C136.902 219.502 136.852 219.645 136.837 219.714L137.142 219.859ZM135.619 216.972C136.039 217.832 136.363 218.518 136.574 219.017C130.708 215.879 127.219 209.055 125.116 201.973C123.001 194.853 122.328 187.615 121.989 183.97C121.977 183.846 121.966 183.726 121.955 183.61L121.955 183.608C121.871 182.744 121.81 181.85 121.746 180.92C121.557 178.137 121.345 175.029 120.413 171.429C119.164 166.603 116.627 160.881 111.15 153.688C108.306 149.952 104.084 148.46 99.0209 148.33C93.9712 148.199 88.0189 149.419 81.6079 151.169C77.8301 152.2 73.8605 153.425 69.8059 154.677C66.9886 155.546 64.1302 156.428 61.2667 157.267C54.2593 159.319 47.1765 161.124 40.4135 161.91C29.907 163.129 21.254 159.213 14.5928 153.963C7.92661 148.71 3.28176 142.14 0.822542 138.121C0.0668519 136.876 0.707141 135.257 2.10118 134.896C5.66745 133.977 10.3659 131.432 16.4462 127.147C22.5381 122.853 30.0595 116.782 39.2785 108.764L39.2786 108.764C50.2946 99.1796 60.309 94.6613 69.7215 94.8261C79.1248 94.9908 88.0478 99.8323 96.8805 109.237C105.693 118.619 111.642 131.49 115.638 144.464C119.632 157.432 121.663 170.462 122.66 180.126C123.667 189.881 127.684 200.119 131.182 207.774C132.521 210.706 133.79 213.269 134.786 215.283C135.091 215.899 135.37 216.464 135.619 216.972Z" fill="#FF7070" stroke="url(#paint4_linear_627_936)"/>
<path d="M47.9861 131.757C47.9861 131.757 48.2545 131.488 48.7614 130.951C49.2683 130.414 50.0436 129.668 51.0574 128.772C53.0851 126.952 56.0669 124.445 60.0625 121.938C62.0603 120.684 64.2967 119.461 66.8014 118.356C69.3062 117.282 72.0494 116.357 75.0611 115.849C75.8065 115.7 76.5818 115.64 77.3272 115.551C77.7149 115.521 78.1025 115.521 78.4902 115.491C78.8778 115.461 79.2654 115.461 79.6531 115.461C80.0407 115.461 80.4283 115.491 80.8458 115.491L82.0385 115.611C82.4262 115.64 82.8436 115.7 83.2312 115.79C83.6487 115.879 84.0065 115.909 84.4538 116.028C87.3462 116.685 90.5367 117.73 93.3992 119.013C96.2916 120.386 99.0051 122.147 101.42 124.146C101.987 124.684 102.583 125.221 103.15 125.728C103.418 125.997 103.716 126.236 103.985 126.534L104.76 127.399C105.267 127.967 105.804 128.504 106.281 129.101C106.728 129.698 107.205 130.294 107.652 130.891C107.891 131.19 108.1 131.488 108.338 131.787C108.547 132.085 108.726 132.413 108.935 132.712C109.322 133.309 109.71 133.936 110.127 134.532C110.873 135.756 111.499 136.98 112.155 138.144C112.721 139.367 113.288 140.561 113.825 141.695C114.332 142.859 114.749 143.993 115.196 145.098C115.435 145.635 115.614 146.172 115.793 146.709C115.972 147.247 116.151 147.754 116.3 148.261C116.628 149.276 116.985 150.231 117.224 151.126C117.463 152.052 117.701 152.887 117.94 153.693C118.148 154.469 118.357 155.215 118.506 155.872C119.103 158.528 119.431 160.02 119.431 160.02C119.49 160.289 119.311 160.557 119.043 160.617C118.775 160.677 118.536 160.528 118.447 160.289V160.259C118.447 160.259 117.999 158.797 117.224 156.23C116.866 154.947 116.27 153.424 115.673 151.634C115.405 150.738 115.017 149.843 114.63 148.858C114.242 147.903 113.884 146.859 113.377 145.814C112.9 144.769 112.453 143.695 111.916 142.561C111.35 141.486 110.753 140.352 110.157 139.188C109.471 138.084 108.845 136.92 108.1 135.786C107.712 135.219 107.324 134.652 106.937 134.085C106.728 133.786 106.549 133.518 106.34 133.219C106.132 132.951 105.893 132.682 105.684 132.413C105.237 131.876 104.79 131.309 104.343 130.772C103.865 130.235 103.359 129.727 102.881 129.22L102.136 128.444C101.897 128.175 101.599 127.967 101.331 127.728C100.794 127.25 100.257 126.773 99.6909 126.295C97.3949 124.505 94.8603 122.923 92.2065 121.639C89.4632 120.446 86.7796 119.55 83.7382 118.894C82.4262 118.625 80.9949 118.386 79.5934 118.416C79.2356 118.386 78.9076 118.386 78.5498 118.416C78.192 118.416 77.864 118.446 77.5061 118.446C76.8203 118.535 76.1345 118.565 75.4487 118.685C72.7352 119.073 70.1411 119.849 67.7556 120.804C65.3702 121.729 63.1636 122.833 61.1956 123.937C59.1978 125.042 57.4385 126.146 55.888 127.191C54.3374 128.205 53.0254 129.19 51.9818 129.966C50.9083 130.772 50.1032 131.429 49.5367 131.876C49 132.324 48.7018 132.563 48.7018 132.563H48.672C48.4632 132.742 48.1352 132.712 47.9265 132.503C47.7774 132.264 47.8072 131.966 47.9861 131.757Z" fill="url(#paint5_linear_627_936)"/>
<path d="M500.035 45.7293L496.552 101.284H517.338V47.2868C517.338 45.7292 516.338 44.3571 514.893 43.8379C512.151 42.9107 507.445 41.724 502.851 42.5399C501.294 42.8365 500.146 44.1346 500.035 45.7293Z" fill="url(#paint6_linear_627_936)"/>
<path d="M473.985 45.467L476.282 101.207H495.994L497.476 44.8366C497.513 43.279 496.513 41.8697 495.031 41.4247C488.621 39.4962 482.248 39.3108 475.986 42.2035C474.726 42.7969 473.911 44.0578 473.985 45.467Z" fill="#FF7070"/>
<path d="M479.279 83.3723L479.427 85.3008C479.464 85.8941 479.983 86.3392 480.575 86.3021L490.913 85.7087C491.469 85.6716 491.876 85.2637 491.913 84.7074L492.025 83.3723C492.062 82.7419 491.58 82.2227 490.95 82.2227H480.39C479.723 82.2227 479.204 82.7419 479.279 83.3723Z" fill="white"/>
<path d="M479.688 88.0074V88.712C479.688 89.2683 480.133 89.7133 480.689 89.6762L490.582 89.2683C491.101 89.2312 491.508 88.8233 491.508 88.3041V87.5624C491.508 87.0061 491.063 86.561 490.508 86.5981L480.615 87.0431C480.096 87.0802 479.688 87.5253 479.688 88.0074Z" fill="white"/>
<path d="M493.212 45.6906C492.805 45.2456 492.286 45.0231 491.73 45.0601L479.688 45.6164C478.614 45.6535 477.762 46.6548 477.762 47.8787L478.392 75.5817C478.429 76.7314 479.244 77.6585 480.281 77.7327L490.915 78.4002C491.471 78.4373 491.99 78.2148 492.36 77.8069C492.768 77.3989 492.99 76.8426 492.99 76.2493L493.805 47.3224C493.842 46.729 493.62 46.1356 493.212 45.6906Z" fill="white"/>
<path d="M502.702 85.4822L502.813 87.4107C502.85 88.0041 503.295 88.4491 503.777 88.412L512.595 87.8186C513.04 87.7815 513.41 87.3736 513.448 86.8173L513.522 85.4822C513.559 84.8518 513.151 84.3326 512.595 84.3326H503.592C503.11 84.2955 502.665 84.8518 502.702 85.4822Z" fill="#FF7070"/>
<path d="M503.069 90.1204V90.825C503.069 91.3813 503.44 91.8263 503.921 91.7893L512.369 91.3813C512.814 91.3442 513.148 90.9363 513.148 90.4171V89.6754C513.148 89.1191 512.74 88.6741 512.295 88.7111L503.847 89.1562C503.403 89.1933 503.069 89.6012 503.069 90.1204Z" fill="#FF7070"/>
<path d="M512.483 47.0979L505.628 46.3192C504.887 46.245 504.146 46.4675 503.59 46.9496C503.034 47.4317 502.701 48.1364 502.664 48.8781L501.849 75.5427C501.812 76.2844 502.108 76.9891 502.627 77.5083C503.146 78.0275 503.85 78.3242 504.591 78.2871L511.112 78.1016C512.52 78.0646 513.668 76.952 513.706 75.5427L514.854 49.8423C514.928 48.4701 513.891 47.2463 512.483 47.0979Z" fill="#FF7070"/>
<path d="M545.274 45.7293L541.791 101.284H562.577V47.2868C562.577 45.7292 561.577 44.3571 560.132 43.8379C557.39 42.9107 552.684 41.724 548.09 42.5399C546.534 42.8365 545.348 44.1346 545.274 45.7293Z" fill="url(#paint7_linear_627_936)"/>
<path d="M519.224 45.467L521.522 101.207H541.233L542.716 44.8366C542.753 43.279 541.752 41.8697 540.27 41.4247C533.86 39.4962 527.487 39.3108 521.225 42.2035C519.965 42.7969 519.15 44.0578 519.224 45.467Z" fill="#FF7070"/>
<path d="M524.483 83.3723L524.632 85.3008C524.669 85.8941 525.187 86.3392 525.78 86.3021L536.118 85.7087C536.674 85.6716 537.081 85.2637 537.118 84.7074L537.229 83.3723C537.267 82.7419 536.785 82.2227 536.155 82.2227H525.595C524.928 82.2227 524.446 82.7419 524.483 83.3723Z" fill="white"/>
<path d="M524.928 88.0074V88.712C524.928 89.2683 525.372 89.7133 525.928 89.6762L535.821 89.2683C536.34 89.2312 536.747 88.8233 536.747 88.3041V87.5624C536.747 87.0061 536.303 86.561 535.747 86.5981L525.854 87.0431C525.335 87.0802 524.928 87.5253 524.928 88.0074Z" fill="white"/>
<path d="M538.452 45.6906C538.044 45.2456 537.526 45.0231 536.97 45.0601L524.928 45.6164C523.853 45.6535 523.001 46.6548 523.001 47.8787L523.631 75.5817C523.668 76.7314 524.483 77.6585 525.521 77.7327L536.155 78.4002C536.71 78.4373 537.229 78.2148 537.6 77.8069C538.007 77.3989 538.229 76.8426 538.229 76.2493L539.045 47.3224C539.082 46.729 538.859 46.1356 538.452 45.6906Z" fill="white"/>
<path d="M547.942 85.4822L548.053 87.4107C548.09 88.0041 548.535 88.4491 549.016 88.412L557.835 87.8186C558.279 87.7815 558.65 87.3736 558.687 86.8173L558.761 85.4822C558.798 84.8518 558.391 84.3326 557.835 84.3326H548.831C548.312 84.2955 547.905 84.8518 547.942 85.4822Z" fill="#FF7070"/>
<path d="M548.309 90.1204V90.825C548.309 91.3813 548.679 91.8263 549.161 91.7893L557.609 91.3813C558.053 91.3442 558.387 90.9363 558.387 90.4171V89.6754C558.387 89.1191 557.979 88.6741 557.535 88.7111L549.087 89.1562C548.642 89.1933 548.309 89.6012 548.309 90.1204Z" fill="#FF7070"/>
<path d="M557.722 47.0979L550.867 46.3192C550.126 46.245 549.385 46.4675 548.83 46.9496C548.274 47.4317 547.94 48.1364 547.903 48.8781L547.088 75.5427C547.051 76.2844 547.347 76.9891 547.866 77.5083C548.385 78.0275 549.089 78.3242 549.83 78.2871L556.351 78.1016C557.759 78.0646 558.908 76.952 558.945 75.5427L560.093 49.8423C560.168 48.4701 559.13 47.2463 557.722 47.0979Z" fill="#FF7070"/>
<path d="M580.103 101.208C580.103 99.5765 578.769 98.2415 577.139 98.2415H461.165C459.535 98.2415 458.201 99.5765 458.201 101.208V103.619C458.201 105.251 459.535 106.586 461.165 106.586H577.139C578.769 106.586 580.103 105.251 580.103 103.619V101.208Z" fill="url(#paint8_linear_627_936)"/>
<path d="M567.045 214.966C565.971 214.966 564.928 214.548 564.152 213.802C563.317 212.996 562.811 211.892 562.811 210.728V185.27C562.811 184.524 563.407 183.927 564.152 183.927C564.898 183.927 565.494 184.524 565.494 185.27V210.728C565.494 211.175 565.673 211.563 565.971 211.862C566.299 212.16 566.687 212.31 567.134 212.28L597.28 210.489C598.115 210.429 598.741 209.743 598.741 208.937V183.957C598.741 183.509 598.563 183.091 598.235 182.793C597.907 182.494 597.489 182.345 597.042 182.405L571.965 184.882C571.16 184.971 570.802 185.538 570.712 185.807C570.593 186.046 570.384 186.702 570.861 187.359L580.433 200.551C580.731 200.968 581.179 201.177 581.685 201.207C582.192 201.237 582.64 200.998 582.938 200.58L593.464 186.523C593.911 185.926 594.746 185.807 595.342 186.255C595.939 186.702 596.058 187.538 595.611 188.135L585.085 202.192C584.28 203.266 583.057 203.893 581.715 203.893H581.685C580.344 203.893 579.091 203.237 578.286 202.132L568.715 188.941C567.82 187.687 567.641 186.135 568.297 184.733C568.923 183.33 570.205 182.405 571.726 182.255L596.803 179.778C597.996 179.659 599.189 180.047 600.053 180.853C600.948 181.659 601.455 182.793 601.455 183.986V208.967C601.455 211.205 599.696 213.056 597.489 213.175L567.343 214.966C567.224 214.966 567.134 214.966 567.045 214.966Z" fill="#FF7070"/>
<path d="M104.236 396.208C103.163 396.208 102.119 395.79 101.344 395.044C100.509 394.238 100.002 393.134 100.002 391.97V366.512C100.002 365.766 100.598 365.169 101.344 365.169C102.089 365.169 102.686 365.766 102.686 366.512V391.97C102.686 392.418 102.864 392.806 103.163 393.104C103.491 393.402 103.878 393.552 104.326 393.522L134.472 391.731C135.307 391.671 135.933 390.985 135.933 390.179V365.199C135.933 364.751 135.754 364.333 135.426 364.035C135.098 363.736 134.68 363.587 134.233 363.647L109.156 366.124C108.351 366.214 107.993 366.781 107.904 367.049C107.784 367.288 107.576 367.945 108.053 368.601L117.624 381.793C117.923 382.211 118.37 382.419 118.877 382.449C119.384 382.479 119.831 382.24 120.129 381.823L130.655 367.765C131.102 367.169 131.937 367.049 132.534 367.497C133.13 367.945 133.249 368.78 132.802 369.377L122.276 383.434C121.471 384.509 120.249 385.135 118.907 385.135H118.877C117.535 385.135 116.283 384.479 115.478 383.375L105.906 370.183C105.011 368.929 104.833 367.377 105.489 365.975C106.115 364.572 107.397 363.647 108.918 363.498L133.995 361.02C135.187 360.901 136.38 361.289 137.245 362.095C138.139 362.901 138.646 364.035 138.646 365.229V390.209C138.646 392.447 136.887 394.298 134.68 394.417L104.534 396.208C104.415 396.208 104.326 396.208 104.236 396.208Z" fill="#FF7070"/>
<path d="M459.068 174.398C459.78 174.247 460.432 173.887 460.94 173.365C460.88 173.655 460.804 173.941 460.713 174.223C460.573 174.695 461.098 174.835 461.273 174.538C461.892 173.619 462.136 172.498 461.955 171.405C461.946 171.302 461.908 171.203 461.844 171.121C461.781 171.039 461.695 170.977 461.598 170.942C461.5 170.907 461.395 170.901 461.294 170.924C461.193 170.947 461.1 170.999 461.028 171.073C460.293 171.965 460.153 173.225 458.91 173.61C458.812 173.637 458.727 173.7 458.674 173.787C458.62 173.874 458.601 173.977 458.621 174.077C458.641 174.177 458.698 174.266 458.781 174.325C458.864 174.385 458.966 174.411 459.068 174.398ZM455.62 168.5C455.718 168.563 455.83 168.598 455.946 168.602C456.062 168.607 456.177 168.58 456.279 168.524C456.381 168.469 456.467 168.387 456.526 168.287C456.586 168.188 456.617 168.074 456.618 167.958C456.618 167.818 456.618 167.66 455.778 166.4C455.603 166.138 455.393 165.648 454.938 165.893C454.483 166.138 454.798 166.593 455.043 167.205C455.533 168.5 455.533 168.5 455.62 168.5ZM455.34 165.298C456.198 165.298 456.793 165.298 456.898 166.015C456.911 166.122 456.967 166.219 457.053 166.284C457.138 166.35 457.246 166.379 457.353 166.365C457.459 166.351 457.556 166.295 457.622 166.21C457.687 166.125 457.717 166.017 457.703 165.91C457.564 165.343 457.23 164.843 456.76 164.497C456.29 164.152 455.713 163.983 455.13 164.02C454.992 164.078 454.877 164.18 454.804 164.311C454.731 164.442 454.705 164.594 454.729 164.742C454.753 164.89 454.827 165.025 454.938 165.126C455.049 165.227 455.191 165.287 455.34 165.298ZM241.298 218.638C236.389 221.012 230.987 222.188 225.535 222.07C220.084 221.951 214.738 220.541 209.938 217.955C209.849 217.902 209.744 217.886 209.644 217.91C209.543 217.935 209.457 217.998 209.404 218.086C209.35 218.175 209.334 218.28 209.359 218.38C209.384 218.481 209.447 218.567 209.535 218.62C219.125 224.868 233.213 225.218 241.56 219.093C241.62 219.058 241.664 219 241.682 218.933C241.701 218.866 241.691 218.794 241.656 218.734C241.622 218.674 241.564 218.629 241.497 218.611C241.43 218.593 241.358 218.603 241.298 218.638ZM240.003 166.75C241 167.153 242.645 166.75 242.208 165.823C241.915 165.115 241.71 164.375 241.595 163.618C241.595 163.511 241.553 163.409 241.477 163.333C241.402 163.258 241.299 163.215 241.193 163.215C241.086 163.215 240.983 163.258 240.908 163.333C240.832 163.409 240.79 163.511 240.79 163.618C240.78 164.358 240.85 165.097 241 165.823C240.761 165.958 240.485 166.014 240.213 165.98C240.162 165.966 240.109 165.963 240.057 165.969C240.005 165.976 239.955 165.993 239.91 166.019C239.864 166.045 239.824 166.079 239.792 166.121C239.76 166.162 239.736 166.21 239.723 166.26C239.709 166.311 239.705 166.363 239.712 166.415C239.718 166.467 239.735 166.518 239.761 166.563C239.787 166.609 239.822 166.649 239.863 166.681C239.905 166.713 239.952 166.736 240.003 166.75ZM237.99 162.918C238.261 162.288 238.483 161.639 238.655 160.975C238.671 160.914 238.674 160.851 238.665 160.789C238.656 160.726 238.634 160.667 238.601 160.613C238.569 160.559 238.526 160.512 238.475 160.475C238.424 160.438 238.366 160.412 238.305 160.398C237.78 160.24 237.693 160.8 237.43 161.483C237.279 161.822 237.156 162.173 237.063 162.533C237.062 162.64 237.094 162.746 237.153 162.835C237.213 162.925 237.298 162.995 237.397 163.036C237.497 163.078 237.606 163.089 237.712 163.067C237.817 163.046 237.914 162.994 237.99 162.918ZM243.818 164.563C243.917 164.606 244.028 164.618 244.135 164.596C244.241 164.574 244.338 164.52 244.413 164.44C244.681 163.81 244.903 163.16 245.078 162.498C245.096 162.438 245.102 162.375 245.095 162.313C245.088 162.251 245.068 162.191 245.037 162.136C245.006 162.082 244.964 162.035 244.914 161.998C244.863 161.961 244.806 161.934 244.745 161.92C244.203 161.763 244.098 162.393 243.87 162.988C243.643 163.583 243.205 164.318 243.818 164.563ZM235.418 168.15C236.046 168.465 236.765 168.545 237.448 168.378C237.885 168.185 237.588 167.52 237.168 167.66C236.705 167.628 236.262 167.464 235.89 167.188C235.653 167.032 235.449 166.832 235.29 166.598C235.131 166.363 235.02 166.1 234.963 165.823C234.84 165.088 233.685 165.368 233.86 166.103C233.945 166.541 234.13 166.953 234.4 167.308C234.67 167.663 235.018 167.951 235.418 168.15ZM359.825 359.723C359.825 359.258 359.641 358.813 359.312 358.485C358.984 358.157 358.539 357.973 358.075 357.973C357.611 357.973 357.166 358.157 356.838 358.485C356.509 358.813 356.325 359.258 356.325 359.723C356.325 360.187 356.509 360.632 356.838 360.96C357.166 361.288 357.611 361.473 358.075 361.473C358.539 361.473 358.984 361.288 359.312 360.96C359.641 360.632 359.825 360.187 359.825 359.723ZM359.79 376.96C360.067 376.986 360.345 376.954 360.609 376.866C360.872 376.778 361.114 376.636 361.32 376.449C361.525 376.262 361.689 376.034 361.801 375.78C361.914 375.526 361.972 375.252 361.972 374.974C361.972 374.696 361.914 374.422 361.801 374.167C361.689 373.913 361.525 373.686 361.32 373.499C361.114 373.312 360.872 373.17 360.609 373.082C360.345 372.994 360.067 372.962 359.79 372.988C359.514 372.962 359.235 372.994 358.971 373.082C358.708 373.17 358.466 373.312 358.26 373.499C358.055 373.686 357.891 373.913 357.779 374.167C357.666 374.422 357.608 374.696 357.608 374.974C357.608 375.252 357.666 375.526 357.779 375.78C357.891 376.034 358.055 376.262 358.26 376.449C358.466 376.636 358.708 376.778 358.971 376.866C359.235 376.954 359.514 376.986 359.79 376.96ZM360.298 391.135C359.821 391.181 359.378 391.402 359.056 391.757C358.734 392.111 358.556 392.573 358.556 393.051C358.556 393.53 358.734 393.992 359.056 394.346C359.378 394.7 359.821 394.922 360.298 394.968C360.774 394.922 361.217 394.7 361.539 394.346C361.861 393.992 362.039 393.53 362.039 393.051C362.039 392.573 361.861 392.111 361.539 391.757C361.217 391.402 360.774 391.181 360.298 391.135ZM349.675 315.133C350.537 319.701 351.122 324.318 351.425 328.958C351.425 329.12 351.49 329.276 351.604 329.391C351.719 329.506 351.875 329.57 352.038 329.57C352.2 329.57 352.356 329.506 352.471 329.391C352.586 329.276 352.65 329.12 352.65 328.958C352.307 324.241 351.587 319.559 350.498 314.958C350.453 314.874 350.382 314.807 350.296 314.767C350.21 314.727 350.113 314.716 350.02 314.735C349.928 314.755 349.844 314.805 349.781 314.876C349.719 314.948 349.682 315.038 349.675 315.133ZM353 366.373C353 366.252 352.952 366.136 352.867 366.051C352.781 365.966 352.666 365.918 352.545 365.918C352.424 365.918 352.309 365.966 352.223 366.051C352.138 366.136 352.09 366.252 352.09 366.373C351.915 378.36 351.705 407.008 351.81 410.123C351.834 410.261 351.906 410.386 352.013 410.476C352.12 410.566 352.256 410.616 352.396 410.616C352.536 410.616 352.672 410.566 352.779 410.476C352.887 410.386 352.959 410.261 352.983 410.123C353.228 404.47 353 369.173 353 366.373ZM399.97 246.008C399.989 246.057 400.023 246.098 400.067 246.127C400.111 246.155 400.163 246.169 400.215 246.165C404.835 243.779 408.995 240.591 412.5 236.75C412.549 236.698 412.577 236.629 412.577 236.558C412.577 236.486 412.549 236.417 412.5 236.365C408.493 233.53 397.17 228.823 397.153 230.153C397.064 235.57 398.02 240.953 399.97 246.008ZM271.135 271.4C272.553 271.459 273.953 271.072 275.14 270.293C276.326 269.515 277.239 268.384 277.75 267.06C278.223 265.573 278.048 265.31 276.613 256.648C277.659 257.487 278.758 258.258 279.903 258.958C280.263 259.096 280.662 259.097 281.022 258.958C281.382 258.82 281.678 258.552 281.852 258.208C282.027 257.864 282.067 257.467 281.965 257.094C281.864 256.722 281.628 256.401 281.303 256.193C278.375 254.67 276.127 252.103 275.003 249C274.845 248.458 272.798 248.283 272.028 249.595C272.028 249.753 274.705 264.628 274.74 264.785C274.854 265.233 274.854 265.702 274.74 266.15C274.48 266.712 274.082 267.199 273.584 267.566C273.085 267.934 272.501 268.169 271.888 268.25C271.398 268.347 270.894 268.345 270.406 268.246C269.917 268.146 269.453 267.95 269.04 267.669C268.628 267.388 268.276 267.028 268.004 266.61C267.732 266.192 267.546 265.724 267.456 265.233C267.367 264.742 267.376 264.238 267.483 263.751C267.59 263.264 267.793 262.803 268.08 262.395C268.367 261.987 268.733 261.64 269.155 261.374C269.577 261.109 270.048 260.93 270.54 260.848C270.951 260.776 271.316 260.544 271.556 260.202C271.795 259.861 271.89 259.438 271.818 259.028C271.746 258.617 271.513 258.252 271.172 258.012C270.831 257.772 270.408 257.678 269.998 257.75C268.783 257.953 267.644 258.472 266.695 259.256C265.745 260.039 265.019 261.059 264.59 262.213C264.196 263.256 264.065 264.38 264.208 265.485C264.351 266.591 264.765 267.644 265.411 268.553C266.058 269.461 266.919 270.195 267.917 270.692C268.915 271.189 270.021 271.432 271.135 271.4Z" fill="url(#paint9_linear_627_936)"/>
<path d="M290.525 259.272C290.342 255.736 289.103 252.336 286.97 249.511C284.837 246.685 281.906 244.563 278.555 243.417C263.453 238.307 249.558 256 258.5 269.422C260.61 272.565 263.682 274.939 267.255 276.188C270.828 277.437 274.709 277.494 278.317 276.35C281.925 275.207 285.065 272.924 287.266 269.845C289.468 266.766 290.611 263.056 290.525 259.272ZM262.525 248.072C273.253 238.202 289.003 246.322 289.423 259.29C289.383 262.593 288.431 265.821 286.67 268.616C284.91 271.411 282.41 273.665 279.448 275.127C269.683 279.38 257.888 272.047 257.065 261.722C256.85 259.184 257.225 256.63 258.164 254.261C259.102 251.893 260.577 249.774 262.473 248.072H262.525ZM388 245.675C389.52 248.002 391.577 249.929 393.998 251.295C396.419 252.661 399.132 253.424 401.91 253.522C404.688 253.62 407.448 253.048 409.959 251.856C412.469 250.664 414.657 248.886 416.337 246.671C418.016 244.457 419.139 241.872 419.611 239.132C420.082 236.393 419.889 233.581 419.046 230.933C418.203 228.284 416.736 225.877 414.769 223.914C412.801 221.951 410.391 220.489 407.74 219.652C392.025 214.787 379.39 233.092 388 245.675ZM392.025 224.342C402.963 214.262 418.503 222.995 418.905 235.56C418.87 238.855 417.927 242.077 416.18 244.871C414.432 247.665 411.948 249.924 409 251.397C399.253 255.65 387.44 248.335 386.6 237.992C386.389 235.448 386.774 232.889 387.725 230.52C388.676 228.15 390.166 226.035 392.078 224.342H392.025ZM280.078 162.83C267.145 135.53 234 123.892 207.26 142.092C172.61 165.77 180.8 215.75 219.755 229.19C257.8 242.7 299.328 203.5 280.078 162.83ZM255.7 225.655C252.525 227.21 249.177 228.385 245.725 229.155C245.953 226.985 246.233 221.385 246.338 218.76C247.983 221.385 250.958 224.01 254.65 223.485C257.87 222.977 260.723 219.985 263.4 214.735C266.022 208.997 267.496 202.803 267.74 196.5C268.026 195.77 268.208 195.005 268.283 194.225C269.172 192.176 270.207 190.193 271.38 188.292C272.01 187.743 272.558 187.107 273.008 186.402C273.497 185.046 273.606 183.581 273.323 182.167C273.268 180.749 272.745 179.389 271.835 178.3C272.553 176.847 274.548 170.215 274.88 168.92C274.909 168.781 274.886 168.637 274.815 168.514C274.744 168.391 274.63 168.299 274.495 168.255C270.987 167.72 267.438 167.497 263.89 167.59C263.768 167.362 257.468 185.352 256.89 186.84C256.864 186.921 256.854 187.007 256.862 187.093C256.87 187.178 256.895 187.261 256.936 187.337C256.977 187.412 257.033 187.478 257.1 187.531C257.167 187.584 257.245 187.623 257.328 187.645C259.067 187.915 260.82 188.09 262.578 188.17C262.578 188.922 262.245 191.005 262.123 191.67C261.624 192.303 261.217 193.005 260.915 193.752C258.743 195.642 257.213 198.162 256.54 200.962C253.443 187.365 251.29 181.52 239.04 174.712C238.428 174.38 237.693 174.135 237.028 173.697C245.498 175.727 246.443 176.69 246.758 176.27C256.348 162.76 251.885 147.307 242.05 141.095C232.845 134.445 223.763 140.727 220.455 151.245C218.005 159.522 222.205 166.767 224.375 169.777C222.38 169.97 221.698 170.197 220.105 170.372C206.63 171.825 195.71 187.977 190.705 200.595C175.778 166.347 208.293 127.357 246.093 136.387C289.3 148.235 297.158 205.6 255.7 225.655ZM202.168 216.905C203.498 214.84 206.823 209.1 207.593 207.752C217.323 215.242 235.593 216.222 245.183 209.835C245.183 210.132 244.745 227.002 244.745 229.4C237.166 230.787 229.366 230.379 221.973 228.21C214.579 226.04 207.796 222.168 202.168 216.905ZM257.065 204.865C257.034 204.319 256.97 203.776 256.873 203.237C257.03 202.747 257.135 202.31 257.293 201.732C258.43 203.622 262.193 206.982 263.75 207.175C263.829 207.181 263.907 207.161 263.972 207.117C264.038 207.073 264.086 207.009 264.111 206.934C264.135 206.859 264.133 206.778 264.106 206.705C264.079 206.631 264.028 206.568 263.96 206.527C261.37 204.917 259.288 202.605 257.958 199.86C258.361 198.762 258.953 197.743 259.708 196.85C261.08 199.003 263.009 200.745 265.29 201.89C265.331 201.9 265.373 201.903 265.414 201.897C265.455 201.891 265.494 201.877 265.53 201.856C265.566 201.835 265.597 201.807 265.622 201.774C265.647 201.74 265.665 201.703 265.675 201.662C265.686 201.622 265.688 201.58 265.682 201.539C265.676 201.498 265.663 201.458 265.641 201.423C265.62 201.387 265.592 201.356 265.559 201.331C265.526 201.306 265.488 201.288 265.448 201.277C263.401 199.871 261.716 198 260.53 195.817C260.758 195.537 261.003 195.257 261.248 194.995C262.654 196.378 264.527 197.184 266.498 197.252C266.188 202.497 265.109 207.669 263.295 212.6C261.861 216.067 259.617 219.139 256.75 221.56C259.162 216.878 259.712 211.458 258.29 206.387C258.255 206.267 258.181 206.163 258.08 206.09C257.978 206.017 257.855 205.98 257.73 205.985C256.243 205.985 258.325 212.075 247.843 218.812C247.301 218.037 246.816 217.224 246.39 216.38C246.495 210.43 246.25 204.497 246.005 198.757C246.005 198.651 245.963 198.548 245.888 198.473C245.812 198.397 245.71 198.355 245.603 198.355C245.496 198.355 245.394 198.397 245.318 198.473C245.243 198.548 245.2 198.651 245.2 198.757C245.305 201.802 245.2 204.812 245.2 208.417C239.32 212.11 232.583 213.387 223.973 212.425C218.246 212.123 212.727 210.172 208.083 206.807C208.695 205.687 211.25 200.787 211.968 199.475C212.003 199.415 212.02 199.347 212.02 199.278C212.019 199.209 212 199.141 211.964 199.082C211.928 199.023 211.877 198.975 211.816 198.942C211.755 198.91 211.687 198.894 211.618 198.897C211.198 198.897 211.618 198.792 208.118 204.795C202.598 202.632 198.139 198.4 195.693 193C198.525 187.593 202.24 182.695 206.683 178.51C208.965 181.679 211.861 184.356 215.199 186.384C218.536 188.411 222.248 189.747 226.112 190.312C229.976 190.876 233.914 190.659 237.692 189.672C241.47 188.684 245.012 186.948 248.105 184.565C248.165 184.502 248.2 184.419 248.204 184.333C248.209 184.246 248.183 184.161 248.13 184.092C248.078 184.022 248.003 183.974 247.918 183.955C247.834 183.936 247.745 183.947 247.668 183.987C245.128 185.732 242.368 187.133 239.46 188.152C233.724 189.969 227.561 189.933 221.847 188.048C216.133 186.163 211.157 182.526 207.628 177.652C209.304 176.292 211.123 175.119 213.053 174.152C219.685 189.08 236.048 190.147 243.958 179.402C248.053 182.587 249.313 182.99 252.585 190.9C245.078 197.445 238.235 200.7 231.69 200.63C226.252 200.668 220.876 199.47 215.968 197.127C211.059 194.783 206.748 191.356 203.358 187.102C203.078 186.717 202.448 187.102 202.728 187.522C207.978 195.52 217.935 200.77 230.115 201.925C238.358 202.73 247.108 198.022 252.988 192.037C253.898 195.047 255 199.475 255.123 200C254.58 201.75 248.718 207.192 247.79 207.402C247.248 207.525 247.528 208.365 248.018 208.155C250.838 206.523 253.379 204.449 255.543 202.012C255.735 202.922 256.085 204.55 256.138 204.952C256.19 205.355 257.1 205.425 257.065 204.865ZM267.565 178.475C267.349 178.414 267.12 178.407 266.9 178.454C266.68 178.502 266.474 178.602 266.302 178.747C266.129 178.892 265.995 179.077 265.91 179.286C265.825 179.494 265.793 179.721 265.815 179.945C263.943 180.347 264.065 181.695 265.15 182.57C266.225 183.248 267.334 183.867 268.475 184.425C268.073 185.387 267.758 186.175 267.338 187.102C265.588 187.102 260.145 186.77 258.255 186.612C258.955 184.425 262.648 174.257 264.678 168.762C266.428 168.85 271.905 168.99 273.673 169.27C273.253 171.02 271.468 176.112 270.96 177.705C270.69 177.527 270.387 177.405 270.068 177.347C269.75 177.289 269.423 177.297 269.107 177.369C268.792 177.44 268.494 177.576 268.232 177.766C267.97 177.956 267.749 178.197 267.583 178.475H267.565ZM268.335 187.942C268.633 186.997 269 186.087 269.49 184.897C269.568 184.911 269.649 184.899 269.719 184.864C269.79 184.828 269.847 184.771 269.883 184.7C269.918 184.629 269.93 184.549 269.916 184.471C269.902 184.393 269.863 184.321 269.805 184.267C269.368 183.865 265.308 181.712 265.465 181.292C265.623 180.872 266.638 181.17 267.215 181.502C268.354 181.971 269.524 182.363 270.715 182.675C270.792 182.683 270.869 182.666 270.935 182.626C271.001 182.586 271.052 182.525 271.079 182.454C271.107 182.382 271.111 182.303 271.089 182.229C271.068 182.155 271.022 182.09 270.96 182.045C269.594 181.549 268.261 180.964 266.97 180.295C266.708 180.05 266.585 179.385 266.97 179.402C268.256 179.709 269.454 180.308 270.47 181.152C270.511 181.19 270.558 181.22 270.61 181.24C270.661 181.259 270.716 181.268 270.772 181.267C270.827 181.265 270.881 181.253 270.932 181.23C270.982 181.207 271.028 181.175 271.065 181.135C271.103 181.095 271.133 181.047 271.153 180.996C271.172 180.944 271.182 180.889 271.18 180.834C271.178 180.778 271.166 180.724 271.143 180.674C271.121 180.623 271.088 180.578 271.048 180.54C270.39 180.021 269.694 179.553 268.965 179.14C268.09 178.632 268.72 178.002 269.595 178.125C270.768 178.3 272.273 179.875 272.115 183.112C272.261 183.982 272.148 184.875 271.79 185.681C271.433 186.487 270.846 187.17 270.103 187.645C268.975 189.434 268.02 191.327 267.25 193.297C266.481 193.496 265.671 193.472 264.914 193.227C264.158 192.983 263.487 192.527 262.98 191.915C263.103 191.302 263.47 189.202 263.575 188.415C267.478 188.537 268.16 188.52 268.353 187.942H268.335ZM257.608 209.135C258.211 213.6 257.474 218.144 255.49 222.19C254.212 222.556 252.851 222.516 251.597 222.073C250.342 221.631 249.257 220.81 248.49 219.722C252.755 217.468 256.011 213.687 257.608 209.135ZM225.408 171.352C225.439 171.389 225.48 171.417 225.526 171.432C225.571 171.447 225.62 171.45 225.668 171.439C225.715 171.428 225.758 171.404 225.792 171.37C225.827 171.337 225.851 171.294 225.863 171.247C228.505 160.852 228.435 161.5 228.19 161.36C225.25 159.75 226.178 156.617 227.368 156.25C227.963 156.057 228.75 156.442 229.538 157.317C230.052 157.801 230.442 158.401 230.675 159.067C232.425 163.967 242.12 157.51 246.32 154.412C246.612 154.17 246.957 154 247.326 153.917C247.696 153.834 248.08 153.839 248.447 153.933C248.815 154.027 249.154 154.207 249.439 154.457C249.723 154.708 249.944 155.022 250.083 155.375C250.485 156.145 249.75 156.792 249.313 155.952C248.403 154.412 246.81 155.27 246.845 155.69C247.195 160.03 246.39 166.19 243.013 169.2C239.635 172.21 235.715 170.652 235.365 170.95C235.015 171.247 235.208 171.527 235.208 171.86C235.051 172.231 234.982 172.634 235.005 173.036C235.028 173.438 235.142 173.83 235.34 174.181C235.538 174.533 235.813 174.834 236.145 175.063C236.477 175.291 236.857 175.441 237.255 175.5C238.686 176.04 240.048 176.745 241.315 177.6C235.085 187.225 221.47 185.807 216.255 172.84C219.171 171.844 222.209 171.256 225.285 171.09L225.408 171.352ZM195.115 194.102C196.246 196.804 197.934 199.237 200.069 201.243C202.204 203.248 204.738 204.78 207.505 205.74C207.295 206.072 202.413 214.052 201.258 216.012C197.009 211.93 193.555 207.094 191.073 201.75C192.805 198.635 193.75 196.745 195.115 194.12V194.102ZM500.98 163.092C491.128 131.592 455.62 117.12 428.04 133.885C396.96 152.75 395.105 194.75 424.75 215.96C463.705 243.75 514.525 205.39 500.98 163.092ZM447.78 210.832C453.573 218.515 459.383 219.11 463.268 218.217C470.513 216.572 476.865 208.435 478.72 198.407C478.746 198.289 478.723 198.165 478.658 198.064C478.592 197.962 478.489 197.89 478.37 197.865C478.252 197.839 478.128 197.862 478.027 197.927C477.925 197.993 477.853 198.096 477.828 198.215C477.004 202.497 475.208 206.532 472.578 210.01C462.288 223.415 451.578 216.87 443.37 202.03C440.703 197.775 439.206 192.891 439.03 187.872C443.195 185.912 443.108 185.807 443.598 186.227C448.463 190.41 457.3 200.385 458.525 201.732C458.547 201.849 458.609 201.954 458.7 202.029C458.791 202.105 458.906 202.146 459.024 202.146C459.143 202.146 459.257 202.105 459.348 202.029C459.439 201.954 459.501 201.849 459.523 201.732C461.483 193.822 463.023 185.615 468.85 179.962C471.014 179.464 473.205 179.096 475.413 178.86C483.165 188.66 482.063 201.732 482.028 214.14C476.831 218.108 470.86 220.945 464.501 222.467C458.141 223.989 451.534 224.163 445.103 222.977C445.481 218.833 446.381 214.752 447.78 210.832ZM476.9 178.702C477.845 178.702 477.758 177.162 476.9 177.285C473.248 177.59 469.662 178.439 466.26 179.805C465.788 179.997 465.245 180.102 465.42 180.575C465.595 181.047 465.98 180.697 467.293 180.365C462.148 185.807 460.205 193.472 458.858 200.367C457.895 199.195 455.515 196.482 454.903 195.782C460.293 183.9 459.995 183.532 463.163 181.135C464.388 180.155 469.375 176.55 473.505 173.96C475.71 172.56 477.285 171.58 480.96 176.672C484.373 181.415 484.46 181.485 482.273 191.897C481.615 187.103 479.722 182.561 476.778 178.72L476.9 178.702ZM438.4 168.395C438.715 168.395 438.873 168.64 439.118 169.007C444.893 177.757 444.455 176.76 444.455 176.935C444.455 177.775 445.593 179.035 446.73 180.102C445.803 180.452 444.07 181.152 443.038 181.572C443.038 178.352 440.763 178.352 440.15 179.7C439.065 178.107 436.65 174.957 436.16 174.345C436.028 174.156 435.848 174.006 435.64 173.907C435.431 173.809 435.2 173.767 434.97 173.785C434.148 172.735 432.293 170.285 431.575 169.217C431.75 169.182 437.84 168.5 438.383 168.395H438.4ZM450.3 184.985C450.038 187.12 446.695 184.74 447.99 183.55C448.23 183.955 448.563 184.297 448.962 184.547C449.361 184.796 449.814 184.947 450.283 184.985H450.3ZM450.108 183.882C449.39 183.76 447.938 182.132 448.358 181.765C448.778 181.397 450.58 183.602 450.545 183.865C450.399 183.914 450.241 183.92 450.09 183.882H450.108ZM454.115 194.995C452.593 193.385 445.68 186.245 445.505 186.105C445.252 185.726 444.924 185.402 444.542 185.152C444.16 184.903 443.732 184.733 443.283 184.652C443.053 184.057 442.963 183.416 443.02 182.78L447.535 180.855C447.955 181.222 447.535 180.855 447.325 181.66C447.225 182.035 447.269 182.435 447.448 182.78C445.698 184.075 447.448 187.085 449.758 186.857C450.444 187.328 451.038 187.921 451.508 188.607C452.026 190.394 452.76 192.11 453.695 193.717C454.273 194.75 454.238 194.627 454.098 194.995H454.115ZM452.628 188.747C452.628 188.187 454.64 186.087 454.955 185.825C455.893 186.097 456.807 186.449 457.685 186.875C457.178 188.03 455.55 191.722 454.745 193.595C453.867 192.058 453.152 190.433 452.61 188.747H452.628ZM451.91 187.627C451.572 187.181 451.171 186.786 450.72 186.455C450.936 186.222 451.098 185.944 451.195 185.642C451.292 185.34 451.321 185.02 451.28 184.705C451.381 184.638 451.466 184.55 451.529 184.447C451.592 184.345 451.633 184.23 451.648 184.11C451.788 183.287 450.86 182.605 450.248 182.027C448.435 180.605 446.823 178.945 445.453 177.092C446.844 177.789 448.173 178.603 449.425 179.525C451.525 181.082 454.22 182.552 454.01 185.142C453.238 185.911 452.53 186.743 451.893 187.627H451.91ZM435.25 174.835C437.029 176.844 438.661 178.979 440.133 181.222C440.184 181.3 440.257 181.362 440.342 181.398C440.428 181.435 440.522 181.446 440.614 181.429C440.706 181.412 440.79 181.369 440.857 181.304C440.924 181.239 440.971 181.156 440.99 181.065C440.99 180.575 441.218 179.7 441.673 179.892C442.635 181.205 441.673 183.252 442.32 184.88C437.63 186.945 441.463 186.42 438.575 183.13C435.898 180.312 434.848 175.727 435.25 174.835ZM453.293 173.085C453.932 170.795 453.932 168.374 453.293 166.085C453.033 165.065 452.875 164.021 452.82 162.97C453.871 163.082 454.933 163.035 455.97 162.83C459.033 162.322 460.608 160.677 461.36 161.185C461.85 161.517 461.938 162.55 461.623 164.195C461.616 164.248 461.626 164.302 461.651 164.35C461.675 164.398 461.714 164.437 461.762 164.462C461.81 164.486 461.864 164.496 461.917 164.489C461.971 164.482 462.021 164.459 462.06 164.422C462.727 163.877 463.562 163.58 464.423 163.582C466.75 163.775 466.663 167.082 464.423 168.5C464.375 168.538 464.341 168.592 464.329 168.653C464.317 168.713 464.326 168.776 464.355 168.83C464.384 168.884 464.432 168.926 464.489 168.949C464.546 168.972 464.609 168.974 464.668 168.955C465.508 168.666 466.409 168.603 467.282 168.772C468.154 168.941 468.966 169.336 469.638 169.917C470.004 171.382 470.502 172.812 471.125 174.187C468.693 175.85 465.438 178.125 463.11 179.927C461.01 175.517 458.403 178.65 456.6 175.115C454.78 172.087 453.625 173.137 453.205 173.032L453.293 173.085ZM482.623 194.085C483.884 190.242 484.608 186.243 484.775 182.202C484.527 180.257 483.739 178.42 482.5 176.9C477.53 169.725 475.5 170.915 471.668 173.505C471.318 172.437 470.548 170.215 470.408 169.62C470.635 169.392 471.23 168.815 471.405 168.692C472.053 167.784 472.555 166.78 472.893 165.717C473.341 164.233 473.524 162.681 473.435 161.132C473.524 159.665 473.291 158.196 472.753 156.827C471.64 154.882 469.88 153.387 467.78 152.604C465.679 151.821 463.371 151.798 461.255 152.54C457.983 151.455 453.765 150.335 452.173 151.017C450.907 151.323 449.772 152.026 448.935 153.024C448.097 154.022 447.602 155.262 447.522 156.562C447.442 157.862 447.781 159.154 448.489 160.247C449.196 161.341 450.236 162.179 451.455 162.637C451.402 163.989 451.556 165.34 451.91 166.645C452.504 168.482 452.552 170.451 452.05 172.315C451.735 173.715 452.19 174.345 453.8 174.065C455.69 174.205 454.658 177.565 458.945 178.195C459.978 178.37 460.8 178.527 461.868 180.505C460.083 181.932 458.741 183.838 458 186C457.049 185.439 456.04 184.981 454.99 184.635C454.875 183.762 454.57 182.925 454.099 182.182C453.628 181.439 453 180.807 452.26 180.33C450.63 178.968 448.872 177.767 447.01 176.742C446.643 176.55 445.873 175.955 445.26 176.077C439.17 166.802 439.8 167.205 437.893 167.205C435.429 167.299 432.98 167.628 430.578 168.185C430.492 168.217 430.414 168.269 430.35 168.335C430.287 168.402 430.239 168.482 430.21 168.57C430.105 168.99 430.21 168.745 432.66 172.245C434.935 175.43 434.113 173.872 434.253 175.587C434.563 178.894 435.911 182.018 438.103 184.512C438.52 185.154 438.688 185.926 438.575 186.682L438.348 186.787C437.753 187.085 438.505 193.052 438.925 194.452C440.848 199.952 443.617 205.119 447.133 209.765C445.41 213.901 444.353 218.283 444 222.75C428.373 219.25 415.02 208.627 409 194.837C402.98 181.047 404.52 164.877 413.655 149.775C438.943 112.657 494.4 127.567 500.98 170.932C503.395 187.4 496.185 203.027 483.235 213.282C483.412 206.886 483.167 200.484 482.5 194.12L482.623 194.085ZM475.728 229.61C475.88 232.417 476.368 235.196 477.18 237.887C477.236 238.054 477.356 238.192 477.514 238.271C477.671 238.35 477.853 238.363 478.02 238.307C479.35 237.922 477.39 236.085 476.813 229.557C476.76 228.875 475.675 228.91 475.728 229.61ZM481.083 250.522C481.048 250.376 480.957 250.25 480.829 250.171C480.701 250.092 480.547 250.068 480.4 250.102C480.254 250.137 480.128 250.229 480.049 250.357C479.97 250.485 479.946 250.639 479.98 250.785C482.22 262.16 481.923 263.262 483.06 263.035C484.198 262.807 483.393 261.722 481.083 250.522ZM485.195 277.577C484.233 277.84 485.51 277.98 486.368 288.602C486.368 289.565 487.943 289.512 487.838 288.602C487.397 285.011 486.701 281.455 485.755 277.962C485.75 277.897 485.731 277.834 485.698 277.778C485.666 277.722 485.621 277.673 485.567 277.636C485.514 277.6 485.452 277.575 485.388 277.565C485.324 277.555 485.258 277.559 485.195 277.577ZM440.78 248.632C442.649 243.088 444.209 237.444 445.453 231.727C445.479 231.596 445.454 231.459 445.383 231.345C445.312 231.232 445.2 231.15 445.07 231.116C444.94 231.082 444.802 231.1 444.684 231.165C444.567 231.23 444.479 231.337 444.438 231.465C443.038 237.082 441.183 242.525 439.45 248.23C439.421 248.398 439.455 248.571 439.544 248.717C439.634 248.862 439.774 248.97 439.937 249.019C440.101 249.069 440.277 249.057 440.432 248.986C440.588 248.914 440.711 248.789 440.78 248.632ZM433.675 271.75C434.655 271.75 434.48 270.56 437.263 260.147C437.3 260.022 437.286 259.887 437.224 259.772C437.161 259.657 437.056 259.572 436.93 259.535C436.805 259.498 436.67 259.512 436.555 259.574C436.44 259.637 436.355 259.742 436.318 259.867C435.775 261.617 433.395 268.985 432.958 270.84C432.931 270.948 432.93 271.061 432.954 271.171C432.977 271.28 433.025 271.382 433.095 271.47C433.164 271.558 433.252 271.628 433.353 271.677C433.453 271.725 433.564 271.75 433.675 271.75ZM425.73 294.5C426.343 294.5 426.308 294.045 426.815 292.015C427.498 289.25 428.565 285.015 428.985 283.825C429.248 283.125 428.18 282.81 427.918 283.475C426.738 286.903 425.808 290.412 425.135 293.975C425.149 294.122 425.218 294.258 425.329 294.356C425.439 294.453 425.583 294.505 425.73 294.5ZM419.955 309.392C418.343 312.516 417.098 315.817 416.245 319.227C416.199 319.404 416.225 319.591 416.316 319.749C416.408 319.906 416.559 320.021 416.735 320.067C416.912 320.114 417.099 320.088 417.257 319.996C417.414 319.904 417.529 319.754 417.575 319.577C420.498 309.655 421.443 309.567 420.585 309.077C420.524 309.053 420.457 309.042 420.391 309.045C420.325 309.047 420.259 309.064 420.2 309.094C420.141 309.124 420.088 309.166 420.046 309.217C420.004 309.268 419.973 309.328 419.955 309.392ZM401.668 258.52C401.843 259.885 402.473 265.52 402.683 267.077C402.696 267.174 402.727 267.267 402.776 267.351C402.824 267.436 402.889 267.51 402.966 267.569C403.043 267.628 403.132 267.672 403.226 267.697C403.32 267.722 403.418 267.729 403.514 267.716C403.611 267.703 403.704 267.672 403.788 267.623C403.872 267.575 403.946 267.51 404.006 267.433C404.065 267.356 404.109 267.267 404.134 267.173C404.159 267.079 404.166 266.981 404.153 266.885C403.925 265.38 402.945 259.727 402.735 258.38C402.63 257.75 401.58 257.872 401.668 258.52ZM404.415 283.562C404.608 284.665 405.325 289.425 405.553 290.685C405.728 291.63 407.128 291.28 406.953 290.352C406.533 288.025 405.973 285.68 405.535 283.352C405.395 282.565 404.293 282.845 404.415 283.562ZM407.25 307.905C407.329 310.842 407.645 313.768 408.195 316.655C408.405 317.617 409.84 317.232 409.665 316.287C409.067 313.507 408.612 310.697 408.3 307.87C408.143 307.222 407.128 307.205 407.25 307.905ZM361.75 162.27C361.418 161.64 360.49 162.165 360.788 162.795C366.475 174.467 366.038 174.572 366.86 174.572C366.996 174.571 367.129 174.536 367.247 174.469C367.366 174.403 367.465 174.307 367.537 174.192C367.608 174.077 367.65 173.945 367.657 173.81C367.664 173.675 367.637 173.539 367.578 173.417C365.653 169.655 363.623 165.997 361.75 162.27ZM372.6 185.09C372.338 184.495 371.445 184.967 371.708 185.562C373.458 189.465 374.91 193.472 376.695 197.392C377.08 198.267 378.358 197.567 377.973 196.71C376.24 192.685 374.193 188.642 372.6 185.09ZM388 220.737C388.106 220.743 388.212 220.723 388.308 220.678C388.405 220.633 388.489 220.566 388.553 220.481C388.616 220.396 388.659 220.297 388.675 220.192C388.692 220.088 388.683 219.98 388.648 219.88C388.035 218.13 385.008 211.707 384.238 209.975C383.923 209.257 382.873 209.817 383.17 210.535C387.335 220.09 387.265 220.737 388 220.737ZM419.885 214.385C419.238 215.487 416.263 219.53 415.458 220.562C415.398 220.639 415.354 220.727 415.328 220.821C415.303 220.915 415.296 221.013 415.308 221.11C415.32 221.207 415.351 221.3 415.399 221.385C415.448 221.47 415.512 221.544 415.589 221.604C415.666 221.663 415.754 221.707 415.848 221.733C415.942 221.759 416.04 221.766 416.137 221.754C416.234 221.741 416.327 221.71 416.412 221.662C416.496 221.614 416.571 221.549 416.63 221.472C418.137 219.371 419.505 217.173 420.725 214.892C420.793 214.781 420.813 214.647 420.782 214.521C420.751 214.395 420.671 214.286 420.559 214.219C420.448 214.151 420.314 214.131 420.188 214.162C420.062 214.193 419.953 214.273 419.885 214.385ZM389.313 148.375C390.03 148.375 390.415 147.29 389.663 146.957C388.07 146.24 381.368 144.017 379.705 143.457C379.023 143.195 378.673 144.245 379.355 144.507C381.123 145.137 388.735 148.375 389.313 148.375ZM395.385 151C398.527 152.709 401.826 154.11 405.238 155.182C405.434 155.216 405.635 155.176 405.803 155.07C405.972 154.965 406.095 154.8 406.149 154.609C406.203 154.418 406.185 154.213 406.098 154.035C406.01 153.856 405.86 153.717 405.675 153.642C402.326 152.733 399.069 151.515 395.945 150.002C395.28 149.705 394.72 150.72 395.385 151ZM311.858 149.95C318.858 145.242 320.958 146.31 320.608 145.067C320.588 144.996 320.554 144.929 320.507 144.871C320.461 144.812 320.404 144.764 320.339 144.728C320.274 144.692 320.202 144.67 320.128 144.662C320.054 144.654 319.979 144.661 319.908 144.682C316.748 145.513 313.742 146.842 311 148.62C310.195 149.25 311 150.51 311.858 149.95ZM295.95 155.847C295.408 156.285 295.845 157.002 296.458 157.002C296.668 157.002 296.703 157.002 298.628 156.04C300.553 155.077 302.758 154.045 303.58 153.8C303.719 153.745 303.831 153.641 303.897 153.508C303.962 153.375 303.975 153.222 303.934 153.079C303.892 152.937 303.798 152.815 303.672 152.738C303.545 152.661 303.394 152.634 303.248 152.662C300.715 153.478 298.271 154.545 295.95 155.847Z" fill="url(#paint10_linear_627_936)"/>
<path d="M289.195 159.155C288.285 159.662 283.263 162.305 282.72 162.655C282.609 162.733 282.524 162.843 282.476 162.97C282.429 163.098 282.423 163.237 282.457 163.368C282.491 163.5 282.565 163.618 282.668 163.706C282.772 163.795 282.9 163.849 283.035 163.862C285.36 162.764 287.616 161.525 289.79 160.152C289.889 160.059 289.952 159.936 289.971 159.802C289.989 159.668 289.962 159.531 289.893 159.415C289.823 159.299 289.716 159.21 289.59 159.163C289.463 159.115 289.324 159.113 289.195 159.155ZM274.25 131.19C276.599 131.206 278.926 130.746 281.093 129.838C283.259 128.93 285.218 127.592 286.854 125.906C288.489 124.22 289.766 122.221 290.607 120.028C291.449 117.835 291.838 115.495 291.75 113.147C291.225 97.5199 270.978 90.0649 260.74 103.365C251.5 114.932 260.39 131.19 274.25 131.19ZM263.75 102C274.478 92.1124 290.228 100.25 290.63 113.217C290.598 116.509 289.649 119.726 287.89 122.508C286.131 125.29 283.632 127.527 280.673 128.967C270.89 133.237 259.113 125.905 258.273 115.58C258.071 113.047 258.461 110.501 259.411 108.145C260.362 105.788 261.847 103.684 263.75 102ZM313.17 116.367C316.268 116.7 319.383 116.735 322.48 116.875C322.619 116.875 322.753 116.82 322.851 116.721C322.95 116.623 323.005 116.489 323.005 116.35C323.005 116.211 322.95 116.077 322.851 115.979C322.753 115.88 322.619 115.825 322.48 115.825C319.225 115.527 317.23 115.125 313.17 114.862C312.243 114.81 312.225 116.262 313.17 116.367ZM294.83 114.512C296.248 114.67 302.075 115.072 303.58 115.265C304.368 115.387 304.683 114.197 303.86 114.057C300.898 113.592 297.913 113.289 294.918 113.147C294.828 113.142 294.738 113.154 294.653 113.183C294.568 113.212 294.49 113.257 294.422 113.316C294.355 113.376 294.3 113.448 294.26 113.528C294.221 113.609 294.197 113.697 294.191 113.786C294.186 113.876 294.198 113.966 294.227 114.051C294.256 114.136 294.301 114.214 294.36 114.282C294.42 114.349 294.492 114.404 294.572 114.444C294.653 114.483 294.741 114.507 294.83 114.512ZM225.25 243.995C225.758 240.775 225.88 237.572 226.265 234.37C226.353 233.775 225.373 233.635 225.285 234.247C224.795 237.397 224.043 240.565 223.675 243.767C223.677 243.96 223.747 244.145 223.874 244.29C224.001 244.435 224.175 244.529 224.365 244.557C224.555 244.584 224.749 244.543 224.912 244.44C225.074 244.337 225.194 244.179 225.25 243.995ZM223.36 252.657C221.61 262.265 221.208 263.437 222.468 263.437C223.413 263.437 223.238 262.807 224.428 252.797C224.515 252.15 223.5 252.01 223.36 252.657ZM255.543 268.652C252.883 270.052 249.575 271.68 248.543 272.292C248.399 272.377 248.288 272.507 248.226 272.662C248.165 272.817 248.156 272.988 248.203 273.148C248.249 273.308 248.346 273.449 248.481 273.547C248.615 273.646 248.779 273.697 248.945 273.692C251.386 272.482 253.757 271.138 256.05 269.667C256.157 269.586 256.232 269.47 256.263 269.339C256.293 269.208 256.277 269.07 256.217 268.95C256.157 268.829 256.056 268.734 255.933 268.68C255.81 268.625 255.672 268.616 255.543 268.652ZM245.305 274.042C243.395 274.938 241.531 275.931 239.723 277.017C239.163 277.525 239.828 278.365 240.493 278.05C241.158 277.735 244.885 275.425 245.743 275.022C246.6 274.62 245.953 273.762 245.305 274.042ZM315.778 288.62C316.408 289.022 317.003 288.06 316.39 287.64C315.06 286.765 310.003 283.02 308.603 282.285C308.422 282.198 308.215 282.18 308.021 282.234C307.828 282.289 307.661 282.413 307.553 282.582C306.835 283.702 309.25 284.332 315.778 288.62ZM291.54 272.45C292.415 273.062 293.29 273.64 294.183 274.2C300.15 278.155 299.87 278.277 300.238 278.277C300.359 278.276 300.476 278.238 300.576 278.17C300.676 278.101 300.753 278.005 300.798 277.892C300.843 277.78 300.853 277.657 300.828 277.539C300.804 277.42 300.744 277.312 300.658 277.227C298.001 275.041 295.226 273.002 292.345 271.12C291.505 270.612 290.735 271.907 291.54 272.45ZM463.863 330.445C460.993 330.847 458.035 331.145 455.113 331.81C454.933 331.865 454.779 331.983 454.679 332.143C454.578 332.302 454.538 332.491 454.566 332.678C454.593 332.864 454.687 333.034 454.829 333.157C454.971 333.28 455.152 333.349 455.34 333.35C456.023 333.35 460.38 332.177 464.09 331.6C465 331.53 464.65 330.305 463.863 330.445ZM448.393 333.28C445.453 333.717 442.215 333.98 439.03 334.522C438.138 334.68 438.383 335.975 439.258 335.975C440.133 335.975 446.398 334.715 448.62 334.365C449.338 334.242 449.093 333.175 448.393 333.28ZM342.5 270.542C342.412 270.394 342.268 270.286 342.101 270.244C341.934 270.201 341.756 270.227 341.608 270.315C341.459 270.403 341.352 270.547 341.309 270.714C341.266 270.881 341.292 271.059 341.38 271.207C342.244 272.615 343.605 273.646 345.193 274.097C346.782 274.547 348.481 274.384 349.955 273.64C350.054 273.58 350.126 273.485 350.157 273.373C350.188 273.262 350.175 273.143 350.122 273.041C350.068 272.939 349.978 272.86 349.869 272.822C349.76 272.784 349.641 272.788 349.535 272.835C348.28 273.34 346.887 273.388 345.601 272.968C344.314 272.549 343.217 271.69 342.5 270.542ZM354.75 264.067C354.628 265.082 353.718 264.522 353.648 265.135C353.648 265.467 353.928 265.59 354.278 265.59C354.588 265.579 354.891 265.486 355.153 265.319C355.416 265.153 355.629 264.92 355.772 264.644C355.915 264.367 355.981 264.058 355.964 263.748C355.948 263.437 355.849 263.137 355.678 262.877C354.696 261.825 353.801 260.696 353 259.5C352.97 259.391 352.898 259.298 352.799 259.242C352.701 259.187 352.584 259.172 352.475 259.202C352.366 259.233 352.274 259.305 352.218 259.403C352.162 259.502 352.148 259.618 352.178 259.727C352.589 260.653 353.106 261.528 353.718 262.335C354.118 262.877 354.464 263.458 354.75 264.067ZM345.458 251.257C345.411 251.049 345.284 250.867 345.103 250.752C344.923 250.637 344.704 250.599 344.495 250.645C344.286 250.691 344.105 250.819 343.99 250.999C343.875 251.18 343.836 251.399 343.883 251.607C344.373 254.932 344.075 256.35 345.388 256.35C345.638 256.35 345.879 256.25 346.056 256.073C346.233 255.896 346.333 255.656 346.333 255.405C346.333 254.967 345.598 251.992 345.458 251.257ZM359.213 251.415C359.176 251.224 359.071 251.053 358.917 250.934C358.764 250.814 358.573 250.754 358.378 250.765C358.184 250.775 358 250.856 357.861 250.992C357.722 251.127 357.636 251.309 357.62 251.502C357.62 251.765 357.865 254.897 357.953 255.142C357.978 255.374 358.095 255.587 358.277 255.733C358.459 255.879 358.692 255.947 358.924 255.921C359.156 255.896 359.368 255.779 359.515 255.597C359.661 255.415 359.728 255.182 359.703 254.95C359.668 254.74 359.388 253.025 359.213 251.415ZM342.71 250.365C342.935 249.621 343.401 248.973 344.035 248.523C344.668 248.073 345.434 247.847 346.21 247.88C346.346 247.896 346.483 247.859 346.594 247.778C346.704 247.697 346.78 247.577 346.805 247.442C346.98 246.182 342.273 246.69 341.24 249.962C341.187 250.157 341.213 250.366 341.313 250.541C341.413 250.717 341.579 250.845 341.774 250.899C341.969 250.952 342.177 250.926 342.353 250.826C342.528 250.726 342.657 250.56 342.71 250.365ZM355.8 247.25C356.437 247.213 357.068 247.387 357.596 247.744C358.124 248.101 358.52 248.623 358.723 249.227C359.038 249.91 360.14 249.455 359.93 248.72C359.587 247.895 358.97 247.214 358.182 246.793C357.394 246.372 356.484 246.236 355.608 246.41C355.513 246.45 355.435 246.522 355.388 246.614C355.342 246.705 355.328 246.81 355.351 246.911C355.374 247.011 355.432 247.1 355.514 247.162C355.596 247.224 355.697 247.255 355.8 247.25ZM490.848 306.137C490.848 306.137 489.92 301.902 489.675 300.677C489.645 300.54 489.562 300.421 489.444 300.346C489.325 300.27 489.182 300.245 489.045 300.275C488.908 300.305 488.789 300.388 488.714 300.507C488.638 300.625 488.613 300.768 488.643 300.905L489.465 305.892C486.685 305.54 483.862 305.783 481.183 306.604C478.504 307.426 476.03 308.807 473.925 310.657C471.82 312.507 470.133 314.784 468.974 317.335C467.816 319.887 467.213 322.655 467.205 325.457C468.255 351.83 506.108 351.305 506.633 325.457C506.668 320.902 505.11 316.477 502.227 312.948C499.345 309.42 495.319 307.011 490.848 306.137ZM495.363 333.735C492.598 341.592 482.168 340.192 482.168 330.812V325.142C481.862 325.181 481.552 325.155 481.257 325.065C480.962 324.974 480.69 324.822 480.459 324.619C480.227 324.415 480.042 324.164 479.915 323.884C479.788 323.603 479.723 323.298 479.723 322.99C479.723 322.682 479.788 322.377 479.915 322.096C480.042 321.815 480.227 321.565 480.459 321.361C480.69 321.158 480.962 321.005 481.257 320.915C481.552 320.825 481.862 320.798 482.168 320.837C482.168 319.087 482.168 317.337 482.29 315.43C482.297 315.147 482.359 314.869 482.474 314.61C482.589 314.352 482.753 314.118 482.958 313.923C483.162 313.728 483.404 313.575 483.667 313.473C483.931 313.372 484.213 313.323 484.495 313.33C485.068 313.348 485.61 313.592 486.003 314.008C486.397 314.425 486.609 314.98 486.595 315.552C486.595 317.39 486.595 319.14 486.49 320.802H490.183C490.465 320.795 490.746 320.845 491.009 320.948C491.272 321.052 491.512 321.206 491.714 321.404C491.916 321.601 492.077 321.837 492.187 322.097C492.296 322.358 492.353 322.637 492.353 322.92C492.357 323.204 492.306 323.486 492.201 323.75C492.096 324.014 491.939 324.255 491.741 324.458C491.542 324.662 491.306 324.824 491.044 324.935C490.783 325.047 490.502 325.105 490.218 325.107H486.438C486.438 331.495 486.263 332.562 487.138 333.647C488.38 335.222 490.27 334.697 491.25 332.282C491.443 331.737 491.844 331.291 492.366 331.041C492.888 330.792 493.487 330.76 494.033 330.952C494.578 331.145 495.025 331.546 495.274 332.068C495.523 332.59 495.555 333.19 495.363 333.735ZM350.218 106.27C346.636 106.251 343.086 106.943 339.773 108.305C336.46 109.666 333.449 111.671 330.916 114.203C328.382 116.735 326.375 119.744 325.012 123.056C323.648 126.368 322.954 129.918 322.97 133.5C323.688 169.55 376.748 169.567 377.448 133.5C377.466 129.919 376.775 126.37 375.413 123.058C374.051 119.745 372.046 116.736 369.514 114.204C366.981 111.672 363.972 109.667 360.66 108.305C357.348 106.943 353.799 106.251 350.218 106.27ZM358.075 120.025C357.807 120.527 357.353 120.905 356.809 121.075C356.266 121.245 355.677 121.195 355.17 120.935C354.268 120.439 353.219 120.275 352.208 120.474C351.197 120.672 350.288 121.219 349.64 122.02C347.628 124.12 347.715 131.26 347.715 131.645L352.965 130.84C353.531 130.754 354.109 130.897 354.57 131.236C355.031 131.576 355.338 132.085 355.424 132.651C355.51 133.217 355.367 133.795 355.028 134.256C354.688 134.717 354.179 135.024 353.613 135.11L347.733 136.002C347.733 140.167 347.925 144.192 348.065 148.252C348.04 148.797 347.812 149.311 347.425 149.695C347.038 150.078 346.521 150.302 345.977 150.322C345.432 150.342 344.9 150.156 344.486 149.802C344.073 149.448 343.807 148.951 343.743 148.41C343.55 142.67 343.41 136.842 343.34 130.612C343.34 127.112 343.34 122.545 346.455 119.097C351.338 113.76 360 116.437 358.075 120.025Z" fill="url(#paint11_linear_627_936)"/>
<path d="M433.115 341.75C440.272 320.96 439.922 322.185 439.8 322.01C439.677 321.835 417.05 321.415 404.485 321.66C399.474 314.147 392.925 307.783 385.272 302.989C377.618 298.196 369.034 295.081 360.087 293.852C358.727 292.36 356.85 291.441 354.837 291.28L352.65 290.527C352.563 288.819 352.563 287.108 352.65 285.4C357.561 283.529 361.573 279.855 363.867 275.127C366.44 269.352 365.162 261.967 363.657 243.19C367.262 244.31 367.35 240.6 365.162 237.695C365.261 237.074 365.23 236.439 365.071 235.831C364.912 235.223 364.629 234.654 364.239 234.161C363.849 233.668 363.362 233.261 362.807 232.965C362.252 232.67 361.642 232.493 361.015 232.445C361.352 231.929 361.546 231.333 361.578 230.717C361.611 230.102 361.48 229.489 361.199 228.94C360.919 228.391 360.498 227.926 359.98 227.592C359.462 227.258 358.866 227.067 358.25 227.037C357.885 226.236 357.279 225.569 356.517 225.13C355.754 224.691 354.873 224.501 353.997 224.587C353.874 223.999 353.595 223.454 353.19 223.009C352.785 222.564 352.269 222.236 351.694 222.057C351.12 221.879 350.508 221.857 349.922 221.994C349.336 222.131 348.798 222.422 348.362 222.837C347.995 222.277 347.085 220.895 346.612 220.37C346.986 220.002 347.244 219.531 347.353 219.018C347.461 218.505 347.417 217.971 347.225 217.482C348.082 217.214 348.832 216.679 349.364 215.955C349.896 215.231 350.183 214.356 350.183 213.457C350.183 212.559 349.896 211.684 349.364 210.96C348.832 210.236 348.082 209.701 347.225 209.432C348.607 204.392 343.882 201.295 339.595 203.307C339.363 202.729 338.965 202.233 338.451 201.881C337.937 201.529 337.33 201.337 336.707 201.33C340.207 196.92 335.22 193.84 330.477 195.345C330.166 194.545 329.642 193.845 328.962 193.32C328.282 192.796 327.473 192.466 326.62 192.367C325.767 192.268 324.903 192.404 324.121 192.759C323.339 193.114 322.669 193.675 322.182 194.382C321.034 194.081 319.813 194.242 318.783 194.831C317.752 195.42 316.993 196.39 316.67 197.532C315.935 197.359 315.171 197.351 314.433 197.508C313.695 197.666 313 197.985 312.4 198.442C311.999 197.75 311.36 197.227 310.603 196.972C309.845 196.717 309.02 196.746 308.282 197.055C307.544 197.364 306.944 197.931 306.594 198.65C306.244 199.369 306.168 200.191 306.38 200.962C305.896 201.097 305.466 201.381 305.152 201.774C304.838 202.166 304.656 202.648 304.63 203.15C304.437 203.118 304.24 203.126 304.051 203.176C303.863 203.225 303.686 203.314 303.534 203.436C303.382 203.558 303.258 203.711 303.169 203.885C303.08 204.059 303.03 204.25 303.02 204.445C302.564 204.329 302.085 204.349 301.64 204.502C301.195 204.655 300.805 204.935 300.517 205.306C300.229 205.678 300.056 206.126 300.019 206.594C299.981 207.063 300.082 207.532 300.307 207.945C299.737 208.073 299.218 208.366 298.813 208.788C298.409 209.209 298.137 209.74 298.033 210.315C297.928 210.89 297.995 211.483 298.225 212.02C298.456 212.557 298.839 213.014 299.327 213.335C296.562 214.14 294.777 216.835 295.827 219.285C292.677 221.192 291.382 225.06 293.605 227.755C293.205 228.867 293.222 230.087 293.654 231.188C294.085 232.288 294.901 233.195 295.95 233.74C295.492 234.302 295.201 234.982 295.11 235.701C295.018 236.421 295.13 237.152 295.432 237.811C295.735 238.47 296.215 239.031 296.82 239.432C297.425 239.832 298.13 240.055 298.855 240.075C298.908 240.709 299.125 241.318 299.483 241.844C299.841 242.37 300.329 242.794 300.899 243.076C301.47 243.357 302.103 243.487 302.739 243.452C303.374 243.417 303.989 243.218 304.525 242.875C304.81 243.33 305.222 243.691 305.71 243.914C306.199 244.137 306.742 244.213 307.272 244.131C307.803 244.049 308.298 243.813 308.696 243.453C309.094 243.093 309.378 242.624 309.512 242.105C310.369 242.427 311.288 242.547 312.199 242.456C313.109 242.365 313.987 242.065 314.762 241.58C314.045 245.937 310.737 246.252 311.77 250.82C311.16 251.622 310.823 252.598 310.807 253.605C310.791 254.613 311.098 255.599 311.682 256.42C311.484 256.842 311.372 257.299 311.353 257.765C311.333 258.231 311.407 258.696 311.57 259.133C311.733 259.57 311.982 259.97 312.302 260.309C312.622 260.649 313.006 260.921 313.432 261.11C313.269 261.431 313.191 261.79 313.208 262.15C313.224 262.51 313.334 262.86 313.526 263.166C313.718 263.471 313.987 263.721 314.305 263.891C314.623 264.062 314.979 264.146 315.34 264.137C315.684 265.424 316.345 266.604 317.262 267.57C318.179 268.536 319.323 269.257 320.59 269.667C320.765 291.665 321.57 289.022 319.47 291.577C317.536 292.593 315.951 294.166 314.92 296.092C284.225 306.75 271.835 331.092 267.775 363.765C265.43 363.397 265.325 363.31 265.237 363.607C264.293 367.285 263.962 371.092 264.257 374.877C264.257 375.105 264.257 375.087 267.057 375.77C267.845 389.262 275.142 403.892 289.807 406.465C289.615 409.3 289.387 425.54 289.807 429.215C289.826 429.301 289.874 429.378 289.942 429.433C290.01 429.488 290.096 429.518 290.184 429.518C290.272 429.518 290.357 429.488 290.425 429.433C290.494 429.378 290.541 429.301 290.56 429.215C290.56 427.255 290.805 409.65 290.962 406.727C299.87 407.602 305.085 403.875 312.102 396.227C323.127 383.977 329.375 370.765 335.885 356.905C337.028 354.667 337.949 352.323 338.632 349.905C339.659 350.32 340.791 350.4 341.866 350.133C342.941 349.865 343.904 349.265 344.617 348.417C347.124 349.227 349.787 349.43 352.387 349.012C352.827 348.931 353.246 348.759 353.616 348.509C353.987 348.258 354.302 347.934 354.542 347.556C354.781 347.179 354.941 346.756 355.01 346.314C355.079 345.872 355.056 345.42 354.942 344.987C357.182 344.882 358.582 342.852 356.342 341.155C355.629 340.607 354.875 340.115 354.085 339.685C355.94 339.562 360.84 339.02 362.432 337.935C364.025 336.85 363.972 334.137 361.767 333.84C360.84 333.717 347.207 334.277 344.11 334.715C341.045 335.04 338.143 336.257 335.762 338.215C332.262 341.102 307.517 361.665 298.68 369.085C293.552 368.157 274.337 364.867 269.227 364.062C273.462 328.765 287.847 307.66 314.447 297.72C312.82 304.37 320.695 311.195 323.197 313.225C327.31 316.602 334.03 320.225 339.787 318.65C343.445 317.67 346.175 314.852 347.925 310.25C355.695 316.987 359.352 316.235 360.577 315.605C365.285 313.137 365.092 301.132 361.172 295.357C369.571 296.658 377.612 299.677 384.79 304.227C391.969 308.777 398.131 314.759 402.892 321.8C394.86 321.975 395.35 321.975 395.28 322.185C393.382 327.304 391.539 332.444 389.75 337.602C389.05 333.245 388 327.312 387.545 325.597C387.506 325.504 387.435 325.427 387.344 325.382C387.253 325.337 387.149 325.327 387.051 325.352C386.953 325.378 386.868 325.438 386.81 325.522C386.753 325.605 386.728 325.707 386.74 325.807C387.247 327.942 388.297 336.045 388.875 340.14C381.77 360.702 376.205 379.235 376.345 379.427C376.485 379.62 393.845 379.62 396.085 379.585C397.835 394.215 399.165 424.717 399.112 428.34C399.112 428.442 399.153 428.54 399.225 428.612C399.297 428.684 399.395 428.725 399.497 428.725C399.6 428.725 399.698 428.684 399.77 428.612C399.842 428.54 399.882 428.442 399.882 428.34C400.197 421.9 399.882 402.545 399.585 398.362C403.724 397.676 407.516 395.632 410.365 392.552C412.5 390.365 415.615 383.89 417.767 378.675C421.162 378.447 421.267 378.5 421.267 378.272C423.262 373.635 425.24 368.175 426.902 362.855C435.162 361.612 439.345 350.027 436.002 344.777C435.253 343.585 434.271 342.555 433.115 341.75ZM290.437 378.955C291.557 378.762 290.315 377.205 332.56 342.485C339.56 336.762 340.102 336.22 348.59 335.642C351.74 335.432 359.912 335.135 360.84 335.117C361.557 335.117 362.187 335.117 362.135 335.765C362.135 336.885 360.385 337.217 359.177 337.515C355.555 338.392 351.844 338.85 348.117 338.88C348.006 338.88 347.899 338.924 347.82 339.003C347.742 339.082 347.697 339.188 347.697 339.3C347.697 339.411 347.742 339.518 347.82 339.597C347.899 339.676 348.006 339.72 348.117 339.72H351.757C352.873 340.26 353.939 340.899 354.942 341.627C355.362 341.925 356.115 342.205 356.167 342.607C356.447 344.935 350.567 342.782 348.502 341.785C348.431 341.748 348.347 341.741 348.27 341.765C348.193 341.79 348.128 341.844 348.091 341.916C348.054 341.988 348.047 342.072 348.072 342.149C348.096 342.226 348.151 342.29 348.222 342.327C349.71 343.255 354.855 345.057 353.665 346.807C352.142 349.012 348.152 348.067 345.51 347.542C346.062 347.096 346.726 346.809 347.429 346.714C348.133 346.618 348.849 346.717 349.5 347C349.589 347.022 349.683 347.012 349.765 346.971C349.847 346.93 349.912 346.861 349.948 346.777C349.984 346.693 349.988 346.598 349.961 346.511C349.933 346.423 349.875 346.348 349.797 346.3C348.722 345.847 347.533 345.741 346.395 345.995C345.257 346.249 344.226 346.851 343.445 347.717C341.362 349.712 338.772 349.24 336.76 347.21C336.688 347.146 336.596 347.11 336.5 347.109C336.404 347.107 336.31 347.14 336.236 347.201C336.162 347.263 336.113 347.348 336.097 347.443C336.08 347.538 336.098 347.635 336.147 347.717C336.55 348.336 337.074 348.865 337.687 349.275C334.57 356.943 331.065 364.449 327.187 371.762C320.187 384.887 313.082 394.162 305.102 400.917C296.457 408.355 283.752 405.625 276.455 397.12C272.08 392.062 269.332 384.975 268.317 376.12C271.957 376.75 286.5 378.832 290.437 378.955ZM320.782 232.97C319.273 234.03 318.105 235.508 317.422 237.222C316.739 236.619 316.211 235.861 315.882 235.012C315.553 234.162 315.433 233.246 315.532 232.34C317.09 225.34 324.282 219.215 330.25 217.412C333.925 215.925 343.27 217.587 346.28 222.085C345.298 221.996 344.318 222.277 343.532 222.872C343.062 222.26 342.459 221.762 341.768 221.415C341.078 221.069 340.318 220.883 339.546 220.871C338.773 220.859 338.008 221.022 337.308 221.347C336.607 221.673 335.989 222.152 335.5 222.75C334.543 223.029 333.678 223.561 332.997 224.29C332.353 223.945 331.623 223.796 330.895 223.861C330.167 223.927 329.475 224.203 328.902 224.657C328.293 224.823 327.757 225.189 327.382 225.698C327.007 226.206 326.815 226.826 326.837 227.457C326.069 227.381 325.294 227.468 324.561 227.71C323.828 227.953 323.155 228.347 322.584 228.867C322.013 229.386 321.558 230.02 321.247 230.727C320.937 231.434 320.779 232.198 320.782 232.97ZM353.875 305.682C345.702 314.152 321.15 304.282 319.557 296.407C319.431 295.561 319.507 294.697 319.777 293.885C320.048 293.073 320.506 292.336 321.115 291.735C321.29 291.56 321.412 291.367 321.587 291.192C321.608 291.142 321.608 291.085 321.587 291.035L321.92 290.615C322.357 289.792 321.815 272.38 321.727 269.877C322.386 269.886 323.031 269.686 323.568 269.305C324.106 268.925 324.509 268.384 324.72 267.76C325.093 267.963 325.517 268.051 325.94 268.013C326.362 267.975 326.765 267.814 327.096 267.548C327.427 267.282 327.672 266.925 327.8 266.521C327.929 266.116 327.935 265.683 327.817 265.275L332.122 260.655C332.117 261.229 332.275 261.794 332.58 262.281C332.884 262.768 333.322 263.158 333.84 263.405C334.359 263.651 334.938 263.744 335.508 263.672C336.078 263.601 336.616 263.367 337.057 263C337.51 262.671 337.884 262.247 338.153 261.756C338.422 261.266 338.58 260.723 338.615 260.165C338.622 260.105 338.608 260.044 338.575 259.993C338.542 259.942 338.492 259.904 338.434 259.885C338.377 259.867 338.314 259.869 338.258 259.891C338.202 259.913 338.155 259.954 338.125 260.007C337.834 260.443 337.404 260.767 336.904 260.926C336.405 261.085 335.867 261.07 335.377 260.882C335.549 260.157 335.515 259.398 335.28 258.69C335.045 257.983 334.619 257.354 334.047 256.875C331.422 248.475 331.667 245.15 336.375 242C339.875 239.357 352.125 233.477 360.367 240.985C360.934 241.643 361.609 242.199 362.362 242.63C364.497 271.697 365.862 272.082 357.882 280.517C355.438 282.996 352.183 284.512 348.712 284.787C348.1 284.787 348.03 285.68 348.712 285.75C349.601 285.872 350.502 285.872 351.39 285.75C351.39 291.682 351.127 291.227 352.825 291.822C358.617 294.5 358.11 301.255 353.875 305.682ZM405.342 394.617C403.504 395.637 401.539 396.408 399.497 396.91C399.235 393.97 398.167 384.66 397.467 379.41C403.837 379.27 410.242 379.007 416.35 378.622C413.795 384.992 409.927 392.377 405.342 394.617ZM416.91 336.867C413.06 336.762 413.06 332.002 416.91 331.897C420.76 331.792 420.76 336.85 416.91 336.955V336.867ZM401.317 327.855C400.501 328.343 399.839 329.053 399.41 329.902C398.885 330.9 383.852 371.797 383.135 374.125C383.098 374.25 383.012 374.356 382.898 374.418C382.783 374.48 382.648 374.495 382.522 374.457C382.397 374.42 382.292 374.335 382.229 374.22C382.167 374.105 382.153 373.97 382.19 373.845C383.082 370.537 396.05 333.402 396.19 333.175C399.287 325.44 400.495 325.562 406.41 325.37C409.122 325.282 428.862 325.195 431.715 325.667C432.345 325.772 432.205 326.665 431.715 326.717C430.157 326.91 402.542 327.33 401.317 327.942V327.855ZM427.427 361.105C428.092 358.865 428.705 356.677 429.177 354.595C429.957 354.91 430.766 355.144 431.592 355.295C431.683 355.316 431.778 355.3 431.857 355.251C431.936 355.201 431.992 355.123 432.012 355.032C432.033 354.942 432.017 354.847 431.968 354.768C431.919 354.689 431.84 354.633 431.75 354.612C429.842 353.866 428.069 352.814 426.5 351.497C425.432 350.29 424.942 349.397 426.185 348.522C428.565 350.395 431.662 352.022 432.8 352.845C432.872 352.881 432.955 352.89 433.034 352.872C433.112 352.854 433.182 352.809 433.232 352.745C433.281 352.681 433.307 352.602 433.305 352.522C433.303 352.441 433.273 352.363 433.22 352.302C431.942 351.147 427.62 348.242 425.362 345.985C425.327 345.628 425.402 345.269 425.577 344.956C425.752 344.643 426.019 344.391 426.342 344.235C428.373 346.006 430.591 347.549 432.957 348.837C433.035 348.884 433.127 348.899 433.215 348.88C433.303 348.86 433.38 348.807 433.43 348.732C433.692 348.4 433.43 348.277 431.68 346.825C430.367 345.74 428.53 344.217 427.182 342.887C425.275 341.137 428.932 341.452 432.275 342.887C433.439 343.552 434.387 344.537 435.008 345.725C435.628 346.914 435.895 348.255 435.775 349.59C435.512 354.647 432.397 359.897 427.427 361.28V361.105ZM284.015 109.087C283.312 109.19 282.595 109.048 281.985 108.685C281.582 107.66 280.899 106.768 280.014 106.113C279.129 105.457 278.078 105.062 276.98 104.975C274.302 105.15 273.777 108.93 271.73 109.21C270.505 109.385 269 108.125 267.25 105.5C267.228 105.455 267.195 105.418 267.153 105.392C267.111 105.366 267.063 105.352 267.014 105.352C266.964 105.352 266.916 105.366 266.874 105.392C266.833 105.418 266.799 105.455 266.777 105.5C266.584 106.157 266.527 106.846 266.608 107.526C266.689 108.206 266.908 108.862 267.25 109.455C266.966 109.442 266.698 109.323 266.497 109.122C265.902 108.545 265.605 110.68 267.04 112.15C266.599 112.126 266.169 112.007 265.78 111.8C264.905 111.117 265.272 114.722 268.142 116.367C267.331 116.316 266.538 116.102 265.81 115.738C265.083 115.375 264.436 114.868 263.907 114.25C263.873 114.202 263.824 114.167 263.767 114.151C263.71 114.135 263.65 114.138 263.596 114.16C263.541 114.183 263.496 114.222 263.466 114.274C263.437 114.325 263.426 114.384 263.435 114.442C263.746 117.039 264.946 119.447 266.831 121.259C268.717 123.071 271.171 124.175 273.777 124.382C279.57 124.382 283.227 118.152 281.88 113.375C282.222 113.267 282.588 113.267 282.93 113.375C282.981 113.413 283.043 113.431 283.106 113.427C283.169 113.422 283.228 113.395 283.273 113.35C283.318 113.306 283.345 113.246 283.349 113.183C283.354 113.12 283.335 113.058 283.297 113.007C283.119 112.722 282.999 112.403 282.946 112.071C282.893 111.738 282.908 111.398 282.99 111.071C283.072 110.744 283.218 110.437 283.422 110.169C283.625 109.9 283.88 109.675 284.172 109.507C284.2 109.472 284.219 109.43 284.225 109.385C284.232 109.341 284.228 109.295 284.212 109.253C284.196 109.211 284.17 109.173 284.135 109.144C284.101 109.115 284.059 109.096 284.015 109.087ZM278.625 110.435C278.278 110.396 277.958 110.231 277.726 109.971C277.493 109.711 277.365 109.375 277.365 109.026C277.365 108.677 277.493 108.341 277.726 108.081C277.958 107.821 278.278 107.656 278.625 107.617C278.972 107.656 279.292 107.821 279.524 108.081C279.757 108.341 279.885 108.677 279.885 109.026C279.885 109.375 279.757 109.711 279.524 109.971C279.292 110.231 278.972 110.396 278.625 110.435ZM231.497 284.927C225.796 284.609 220.076 284.897 214.435 285.785C214.376 285.793 214.323 285.823 214.284 285.868C214.245 285.913 214.224 285.971 214.225 286.03C214.211 289.076 214.623 292.11 215.45 295.042C215.467 295.09 215.497 295.133 215.538 295.164C215.578 295.195 215.627 295.213 215.677 295.217C220.741 295.62 225.834 295.479 230.867 294.797C231.865 294.657 232.582 284.997 231.497 284.927ZM226.79 290.65C226.674 291.22 226.393 291.744 225.981 292.155C225.569 292.566 225.045 292.846 224.475 292.961C223.904 293.076 223.313 293.02 222.774 292.8C222.235 292.58 221.773 292.206 221.446 291.725C221.119 291.243 220.941 290.676 220.934 290.094C220.928 289.513 221.093 288.942 221.41 288.453C221.726 287.965 222.179 287.581 222.713 287.349C223.247 287.117 223.837 287.048 224.41 287.15C224.798 287.219 225.169 287.365 225.5 287.58C225.831 287.794 226.115 288.072 226.337 288.399C226.559 288.725 226.713 289.092 226.791 289.478C226.869 289.865 226.868 290.263 226.79 290.65ZM227.805 282.915C228.111 282.971 228.424 282.967 228.728 282.902C229.032 282.837 229.32 282.713 229.576 282.536C229.832 282.36 230.051 282.135 230.22 281.874C230.389 281.613 230.505 281.322 230.561 281.016C230.618 280.71 230.613 280.397 230.548 280.093C230.483 279.789 230.359 279.501 230.183 279.245C230.006 278.989 229.781 278.77 229.521 278.601C229.26 278.432 228.968 278.316 228.662 278.26C228.045 278.146 227.408 278.282 226.891 278.638C226.374 278.994 226.02 279.541 225.906 280.159C225.793 280.776 225.929 281.413 226.285 281.93C226.641 282.447 227.188 282.801 227.805 282.915Z" fill="url(#paint12_linear_627_936)"/>
<path d="M237.046 277.14C228.296 264.47 208.381 268.95 205.966 283.843C205.477 286.337 205.555 288.909 206.195 291.37C206.834 293.83 208.018 296.115 209.66 298.055C211.302 299.996 213.359 301.543 215.679 302.581C217.999 303.62 220.522 304.123 223.063 304.055C237.623 304.055 244.501 287.99 237.046 277.14ZM233.371 296.39C233.36 296.44 233.334 296.485 233.297 296.52C233.259 296.554 233.212 296.576 233.161 296.583C226.659 297.455 220.083 297.636 213.543 297.125C213.491 297.118 213.442 297.096 213.402 297.062C213.362 297.028 213.332 296.983 213.316 296.933C211.578 290.492 211.255 283.752 212.371 277.175C212.379 277.119 212.406 277.068 212.447 277.03C212.489 276.991 212.542 276.969 212.598 276.965C219.639 276.157 226.752 276.233 233.773 277.193C233.826 277.202 233.874 277.228 233.911 277.265C233.948 277.302 233.974 277.35 233.983 277.403C235.08 283.713 234.871 290.181 233.371 296.408V296.39Z" fill="url(#paint13_linear_627_936)"/>
<defs>
<linearGradient id="paint0_linear_627_936" x1="659.086" y1="262.171" x2="601.447" y2="362.005" gradientUnits="userSpaceOnUse">
<stop stop-color="#5E0303"/>
<stop offset="1" stop-color="#8A0202"/>
</linearGradient>
<linearGradient id="paint1_linear_627_936" x1="570.235" y1="294.272" x2="660.504" y2="346.389" gradientUnits="userSpaceOnUse">
<stop stop-color="#DAE3FE"/>
<stop offset="1" stop-color="#E9EFFD"/>
</linearGradient>
<linearGradient id="paint2_linear_627_936" x1="674.731" y1="171.369" x2="574.356" y2="345.224" gradientUnits="userSpaceOnUse">
<stop stop-color="#5E0303"/>
<stop offset="1" stop-color="#8A0202"/>
</linearGradient>
<linearGradient id="paint3_linear_627_936" x1="86.9224" y1="6.99927" x2="86.9224" y2="221.118" gradientUnits="userSpaceOnUse">
<stop stop-color="#5E0303"/>
<stop offset="1" stop-color="#8A0202"/>
</linearGradient>
<linearGradient id="paint4_linear_627_936" x1="68.6666" y1="94.3218" x2="68.6666" y2="219.888" gradientUnits="userSpaceOnUse">
<stop stop-color="#5E0303"/>
<stop offset="1" stop-color="#8A0202"/>
</linearGradient>
<linearGradient id="paint5_linear_627_936" x1="47.8387" y1="138.013" x2="119.44" y2="138.013" gradientUnits="userSpaceOnUse">
<stop stop-color="#DAE3FE"/>
<stop offset="1" stop-color="#E9EFFD"/>
</linearGradient>
<linearGradient id="paint6_linear_627_936" x1="506.945" y1="42.2671" x2="506.945" y2="101.284" gradientUnits="userSpaceOnUse">
<stop stop-color="#5E0303"/>
<stop offset="1" stop-color="#8A0202"/>
</linearGradient>
<linearGradient id="paint7_linear_627_936" x1="552.184" y1="42.2671" x2="552.184" y2="101.284" gradientUnits="userSpaceOnUse">
<stop stop-color="#5E0303"/>
<stop offset="1" stop-color="#8A0202"/>
</linearGradient>
<linearGradient id="paint8_linear_627_936" x1="519.152" y1="98.2415" x2="519.152" y2="106.586" gradientUnits="userSpaceOnUse">
<stop stop-color="#5E0303"/>
<stop offset="1" stop-color="#8A0202"/>
</linearGradient>
<linearGradient id="paint9_linear_627_936" x1="335.68" y1="160.371" x2="335.68" y2="410.616" gradientUnits="userSpaceOnUse">
<stop stop-color="#5E0303"/>
<stop offset="1" stop-color="#8A0202"/>
</linearGradient>
<linearGradient id="paint10_linear_627_936" x1="185.365" y1="126.833" x2="512.699" y2="144.511" gradientUnits="userSpaceOnUse">
<stop stop-color="#001029"/>
<stop offset="1" stop-color="#001B46"/>
</linearGradient>
<linearGradient id="paint11_linear_627_936" x1="364.183" y1="96.4834" x2="364.183" y2="345.04" gradientUnits="userSpaceOnUse">
<stop stop-color="#5E0303"/>
<stop offset="1" stop-color="#8A0202"/>
</linearGradient>
<linearGradient id="paint12_linear_627_936" x1="327.035" y1="104.975" x2="327.035" y2="429.518" gradientUnits="userSpaceOnUse">
<stop stop-color="#5E0303"/>
<stop offset="1" stop-color="#8A0202"/>
</linearGradient>
<linearGradient id="paint13_linear_627_936" x1="222.866" y1="269.737" x2="222.866" y2="304.061" gradientUnits="userSpaceOnUse">
<stop stop-color="#5E0303"/>
<stop offset="1" stop-color="#8A0202"/>
</linearGradient>
</defs>
</svg>
