<svg width="14" height="16" viewBox="0 0 14 16" fill="none" xmlns="http://www.w3.org/2000/svg">
<path d="M13.7144 10.08L7.66437 15.74C7.48062 15.9058 7.24189 15.9976 6.99437 15.9976C6.74684 15.9976 6.50812 15.9058 6.32437 15.74L0.274366 10.08C0.188007 10.0004 0.119082 9.90376 0.0719371 9.79619C0.0247927 9.68862 0.000453531 9.57245 0.000453536 9.455C0.000453541 9.33755 0.0247927 9.22138 0.0719372 9.11381C0.119082 9.00623 0.188007 8.9096 0.274366 8.83C0.458117 8.66416 0.696844 8.57236 0.944366 8.57236C1.19189 8.57236 1.43062 8.66416 1.61437 8.83L6.04437 12.97L6.04437 0.89C6.04437 0.39 6.47437 -3.28444e-07 6.99437 -3.05714e-07C7.51437 -2.82984e-07 7.94437 0.4 7.94437 0.89L7.94437 12.97L12.3744 8.83C12.5581 8.66416 12.7968 8.57236 13.0444 8.57236C13.2919 8.57236 13.5306 8.66416 13.7144 8.83C13.8007 8.9096 13.8697 9.00623 13.9168 9.11381C13.9639 9.22138 13.9883 9.33755 13.9883 9.455C13.9883 9.57245 13.9639 9.68862 13.9168 9.79619C13.8697 9.90377 13.8007 10.0004 13.7144 10.08Z" fill="#8A0303"/>
</svg>
