<svg width="16" height="16" viewBox="0 0 16 16" fill="none" xmlns="http://www.w3.org/2000/svg">
<g id="arrow.16.icon_FgC3B">
<path id="Vector" d="M10.08 1.28173L15.74 7.33173C15.9058 7.51548 15.9976 7.7542 15.9976 8.00173C15.9976 8.24925 15.9058 8.48798 15.74 8.67173L10.08 14.7217C10.0004 14.8081 9.90377 14.877 9.79619 14.9242C9.68862 14.9713 9.57245 14.9956 9.455 14.9956C9.33755 14.9956 9.22138 14.9713 9.11381 14.9242C9.00623 14.877 8.9096 14.8081 8.83 14.7217C8.66416 14.538 8.57236 14.2992 8.57236 14.0517C8.57236 13.8042 8.66416 13.5655 8.83 13.3817L12.97 8.95173H0.89C0.39 8.95173 0 8.52173 0 8.00173C0 7.48173 0.4 7.05173 0.89 7.05173H12.97L8.83 2.62173C8.66416 2.43798 8.57236 2.19925 8.57236 1.95173C8.57236 1.7042 8.66416 1.46548 8.83 1.28173C8.9096 1.19537 9.00623 1.12644 9.11381 1.0793C9.22138 1.03215 9.33755 1.00781 9.455 1.00781C9.57245 1.00781 9.68862 1.03215 9.79619 1.0793C9.90377 1.12644 10.0004 1.19537 10.08 1.28173Z" fill="#8A0202"/>
</g>
</svg>
