<svg width="308" height="289" viewBox="0 0 308 289" fill="none" xmlns="http://www.w3.org/2000/svg">
<path d="M27.1548 130.399C56.9538 130.126 86.6358 130.468 116.475 129.878C116.64 129.849 116.81 129.855 116.972 129.896C117.135 129.937 117.287 130.012 117.419 130.115C117.551 130.219 117.66 130.349 117.739 130.497C117.818 130.645 117.864 130.808 117.876 130.976C117.887 131.143 117.864 131.311 117.806 131.469C117.749 131.626 117.659 131.77 117.542 131.891C117.426 132.012 117.285 132.106 117.13 132.169C116.974 132.232 116.807 132.262 116.64 132.256C87.1424 132.843 56.8029 133.513 27.3196 132.732C25.6164 132.687 25.41 130.414 27.1548 130.399ZM94.131 85.2223C99.1005 107.358 68.6363 119.717 54.7747 105.708C48.4099 99.2788 47.4181 88.8157 50.877 80.7247C59.5718 60.3946 89.8713 66.2399 94.131 85.2223ZM91.3728 82.7301C90.4318 80.3096 88.9913 78.1145 87.1453 76.2881C85.2993 74.4617 83.0892 73.0448 80.659 72.1299C67.6661 67.5784 55.0843 70.1861 51.3236 84.714C49.337 92.383 51.4776 101.672 58.212 106.386C73.6875 117.214 99.3623 102.176 91.3728 82.7301ZM28.2451 63.7293C28.2451 62.9899 27.0455 63.0084 26.9777 63.72C25.3607 80.7416 26.1615 98.5749 26.2216 115.694C26.2308 118.258 27.1271 118.446 28.7318 118.552C54.2388 120.231 89.263 119.29 114.719 118.161C115.643 118.119 115.665 116.558 114.719 116.539C86.2785 116.008 56.3609 117.964 28.3776 116.285C28.818 99.1171 28.336 80.9973 28.2451 63.7293ZM117.265 116.83C117.362 117.588 118.865 117.69 118.849 116.841C118.517 98.9646 118.669 80.9526 118.207 63.1332C118.144 60.6842 118.101 60.8906 115.445 60.7874C88.1958 59.7261 57.807 60.2498 30.6706 61.8132C30.4646 61.8228 30.2708 61.9139 30.1319 62.0664C29.9929 62.2189 29.9203 62.4204 29.9299 62.6264C29.9395 62.8325 30.0306 63.0264 30.183 63.1653C30.3355 63.3043 30.537 63.3769 30.743 63.3673C59.2038 63.2687 87.9709 62.1197 116.399 63.0408C115.363 77.2036 115.5 102.946 117.265 116.83ZM81.2566 89.4349C77.9132 87.4742 73.2147 84.4028 69.4679 82.3497C66.9669 80.9804 66.7713 82.8549 68.5623 84.0933C71.0864 85.8399 75.7711 88.0795 79.0066 90.3391C75.2952 92.6279 71.7378 95.04 67.9602 97.3196C67.4197 92.3414 67.1686 87.4403 66.4556 82.4467C66.3293 81.5518 65.085 81.8136 65.1081 82.6623C65.2621 88.1919 66.0183 93.6229 66.2061 99.0786C66.2305 99.2255 66.288 99.3649 66.3744 99.4862C66.4608 99.6075 66.5737 99.7075 66.7045 99.7785C66.8354 99.8495 66.9807 99.8897 67.1295 99.896C67.2782 99.9023 67.4265 99.8745 67.5629 99.8148C72.4372 97.2604 77.0952 94.3128 81.4906 91.0014C81.6056 90.8956 81.6929 90.7632 81.7449 90.6158C81.797 90.4685 81.8121 90.3106 81.789 90.1561C81.7659 90.0015 81.7053 89.855 81.6125 89.7292C81.5196 89.6035 81.3974 89.5025 81.2566 89.4349ZM173.593 75.6649C177.665 75.403 177.525 72.7707 173.329 73.0633C160.497 73.9598 147.363 73.7149 134.504 73.3853C128.846 73.2405 128.284 75.5909 134.091 75.8112C146.65 76.2871 161.099 76.4674 173.593 75.6649ZM186.186 120.568C186.409 116.337 186.382 112.097 186.107 107.869C186.049 107.225 184.875 107.137 184.766 107.79C184.216 111.08 184.912 117.066 184.778 120.639C184.752 121.408 186.141 121.342 186.186 120.568ZM28.7857 31.9426C45.045 31.8949 166.195 31.114 172.605 31.3727C186.703 31.9442 187.543 48.4698 185.849 48.7316C184.047 49.012 16.1099 47.9199 14.3389 47.7767C13.1039 47.6781 12.5248 31.9904 28.7857 31.9426ZM173.76 43.9953C174.214 43.926 174.648 43.7573 175.031 43.5013C175.413 43.2454 175.734 42.9083 175.971 42.5142C176.208 42.12 176.356 41.6785 176.403 41.2209C176.451 40.7632 176.397 40.3008 176.245 39.8664C176.094 39.432 175.849 39.0363 175.527 38.7074C175.205 38.3785 174.815 38.1245 174.384 37.9635C173.953 37.8024 173.492 37.7382 173.034 37.7755C172.575 37.8128 172.131 37.9506 171.732 38.1792C171.15 38.5733 170.715 39.1485 170.494 39.8155C170.273 40.4824 170.279 41.2037 170.51 41.8671C170.741 42.5305 171.185 43.0988 171.773 43.4837C172.361 43.8686 173.059 44.0484 173.76 43.9953ZM159.729 42.9618C160.201 43.5202 160.851 43.8981 161.57 44.0315C162.289 44.1648 163.032 44.0454 163.673 43.6934C164.261 43.293 164.705 42.7134 164.937 42.0408C165.17 41.3681 165.18 40.6383 164.965 39.9598C164.714 39.2853 164.243 38.7151 163.628 38.3412C163.014 37.9673 162.291 37.8115 161.577 37.8989C161.033 37.9842 160.523 38.2135 160.098 38.5628C159.673 38.9122 159.35 39.369 159.161 39.8857C158.973 40.4024 158.926 40.9602 159.026 41.5011C159.125 42.0421 159.368 42.5464 159.729 42.9618ZM148.125 43.1543C148.644 43.591 149.284 43.8575 149.96 43.9176C150.636 43.9776 151.313 43.8284 151.901 43.4901C152.384 43.2061 152.78 42.7935 153.043 42.2982C153.306 41.803 153.426 41.2445 153.391 40.6848C153.355 40.1252 153.165 39.5863 152.842 39.1282C152.519 38.6701 152.074 38.3106 151.559 38.0899C150.872 37.8865 150.139 37.8985 149.459 38.1243C148.779 38.3501 148.184 38.7789 147.755 39.3529C147.36 39.9287 147.18 40.6256 147.248 41.321C147.315 42.0163 147.626 42.6655 148.125 43.1543ZM184.751 52.4714C185.022 65.9781 183.827 79.4909 184.543 93.0931C184.584 93.8894 185.929 93.8339 185.913 93.0623C185.696 79.6619 187.108 65.7994 186.149 52.4406C186.092 51.6366 184.735 51.6797 184.751 52.4714ZM175.007 62.0812C159.87 62.7882 145.036 61.7824 129.965 61.7731C129.372 61.7731 129.261 62.8513 129.839 63.0962C134.473 65.0986 168.213 64.8691 175.072 64.3531C175.357 64.3228 175.621 64.1859 175.81 63.9698C175.999 63.7537 176.099 63.4742 176.091 63.1872C176.083 62.9002 175.966 62.6269 175.766 62.4219C175.565 62.2168 175.294 62.0952 175.007 62.0812ZM25.0312 151.985C35.825 152.042 47.1425 153.034 55.7403 152.406C56.5226 152.349 56.6273 151.027 55.8081 151.004C45.6317 150.712 35.8882 150.057 26.2585 149.845C19.7413 149.7 16.113 147.107 15.4477 140.302C13.3349 118.663 15.979 55.9956 15.5247 50.6585C15.5137 50.4718 15.4362 50.2953 15.3062 50.1608C15.1762 50.0264 15.0024 49.9429 14.8162 49.9256C14.63 49.9083 14.4438 49.9582 14.2913 50.0664C14.1388 50.1746 14.03 50.3338 13.9847 50.5153C13.5566 52.6408 12.8975 78.5837 12.6665 98.6566C12.5217 111.375 11.9581 128.943 13.2917 141.19C14.0001 147.683 18.3676 151.95 25.0312 151.985ZM142.2 149.886C123.73 151.024 102.484 150.276 83.4295 150.756C82.6102 150.778 82.6071 152.18 83.4387 152.201C102.308 152.705 123.386 151.853 142.214 151.873C143.342 151.87 143.343 149.815 142.2 149.886ZM132.688 86.4268C130.506 86.9443 130.792 88.3552 132.996 88.3567C136.482 88.3567 140.249 87.964 143.862 87.9224C146.172 87.8962 147.161 86.074 143.4 85.7814C139.817 85.6135 136.225 85.8303 132.688 86.4283V86.4268ZM191.884 179.398C190.245 174.546 187.752 170.025 184.524 166.05C184.062 165.434 184.832 164.489 185.478 165.024C189.53 168.729 192.347 173.589 193.549 178.946C198.359 177.654 203.42 177.613 208.25 178.83C213.08 180.046 217.519 182.478 221.144 185.895C222.099 161.19 201.404 144.403 180.796 142.878C177.759 149.935 164.403 152.7 161.911 145.388C151.516 147.454 136.536 154.938 131.163 163.852C136.226 163.628 141.298 163.834 146.326 164.468C147.86 164.647 149.287 165.342 150.374 166.44C151.46 167.537 152.142 168.972 152.306 170.507C152.561 176.157 153.241 181.779 154.34 187.326C156.98 180.491 163.211 178.774 168.773 178.648C173.598 178.535 185.282 180.972 191.884 179.398ZM187.928 129.855C196.96 127.964 206.234 127.505 215.409 128.495C224.375 129.434 230.048 130.623 232.166 140.464C235.324 155.152 232.035 178.775 226.976 192.914C222.621 205.082 214.644 203.931 203.999 204.74C203.181 204.802 202.963 206.211 203.862 206.24C213.989 206.571 222.542 206.171 227.187 197.923C234.346 185.212 236.941 156.797 234.842 142.256C233.466 132.727 229.421 128.142 219.706 126.876C209.745 125.577 197.091 125.296 187.487 128.399C187.294 128.458 187.133 128.592 187.038 128.77C186.943 128.948 186.923 129.157 186.982 129.35C187.041 129.543 187.174 129.704 187.353 129.799C187.531 129.894 187.739 129.914 187.932 129.855H187.928ZM233.652 132.419C240.166 134.774 247.213 137.304 251.949 142.619C262.608 154.585 256.909 174.249 254.259 188.233C251.308 203.765 248.491 219.322 245.553 234.854C244.629 239.71 246.477 241.22 247.336 236.878C250.416 221.381 253.311 205.809 256.268 190.286C259.079 175.55 264.848 155.958 255.064 142.691C250.079 135.933 241.897 133.313 234.157 131.139C233.328 130.907 232.808 132.111 233.656 132.419H233.652ZM195.999 269.966C195.634 271.48 197.901 271.907 198.275 270.309C201.638 256.025 206.206 239.042 207.832 224.871C209.121 213.646 208.202 206.414 195.512 205.208C185.324 204.241 176.894 208.335 175.039 219.048C172.615 233.05 174.062 255.675 174.565 270.622C174.571 270.804 174.648 270.977 174.778 271.105C174.909 271.232 175.083 271.304 175.265 271.306C175.448 271.308 175.624 271.24 175.757 271.115C175.89 270.991 175.97 270.82 175.98 270.637C176.412 255.688 175.731 240.305 176.626 225.497C177.242 215.352 179.669 207.842 191.41 207.249C204.306 206.599 206.884 211.517 205.752 223.533C204.309 238.78 198.377 260.142 196.003 269.963L195.999 269.966ZM258.523 247.632C259.909 244.97 264.537 240.239 267.228 240.22C269.469 240.208 268.029 244.61 268.739 247.091C274.52 247.6 275.588 247.53 279.464 251.313C279.96 251.795 280.556 251.543 280.132 250.836C279.249 249.314 278.005 248.034 276.508 247.108C278.48 244.143 281.591 242.415 282.53 242.543C284.293 242.785 282.088 248.742 283.221 253.466C283.991 256.656 285.36 260.362 284.036 264.104C283.006 267.013 281.347 269.662 276.336 271.247C271.734 272.701 263.023 271.596 259.099 269.418C264.829 265.938 262.747 257.391 253.958 260.201C242.043 264.01 236.042 264.869 223.503 262.764C222.619 262.61 222.413 263.595 223.334 263.769C233.391 265.904 243.834 265.333 253.598 262.114C258.353 260.612 261.706 263.594 259.428 266.759C257.118 269.967 250.935 271.153 247.187 271.723C237.705 272.893 228.112 272.835 218.645 271.551C208.943 270.382 213.903 245.634 239.188 242.255C245.684 241.384 252.285 242.7 257.95 245.996C256.008 249.262 254.806 252.915 254.43 256.696C254.377 257.431 255.183 257.26 255.354 256.542C256.023 253.445 257.092 250.448 258.535 247.627L258.523 247.632ZM233.151 245.268C230.995 246.4 228.921 250.702 229.907 254.619C230.105 255.406 230.898 255.483 230.897 254.653C230.897 250.956 232.244 249.454 233.951 246.662C234.511 245.76 234.046 244.799 233.164 245.263L233.151 245.268ZM240.665 243.51C238.665 244.889 237.229 246.942 236.619 249.294C235.883 251.589 235.815 254.047 236.424 256.379C236.595 257.131 237.402 257.074 237.451 256.33C237.628 253.61 238.086 249.75 240.061 247.224C240.674 246.435 241.234 245.605 241.735 244.741C242.314 243.775 241.413 243.108 240.677 243.506L240.665 243.51ZM247.044 245.021C245.582 246.292 244.462 247.909 243.784 249.724C243.106 251.538 242.893 253.494 243.163 255.412C243.317 256.182 244.132 256.311 244.224 255.469C244.65 252.156 246.203 249.091 248.622 246.788C250.811 244.578 249.076 243.236 247.056 245.017L247.044 245.021ZM277.208 259.158C277.589 258.932 278.039 258.855 278.474 258.94C278.908 259.025 279.296 259.267 279.564 259.62C280.168 260.452 280.811 259.983 280.468 258.954C280.314 258.601 280.076 258.29 279.775 258.05C279.474 257.809 279.118 257.646 278.739 257.575C278.36 257.504 277.969 257.526 277.601 257.641C277.233 257.755 276.899 257.958 276.627 258.232C276.531 258.321 276.469 258.441 276.453 258.57C276.436 258.7 276.466 258.832 276.537 258.942C276.607 259.052 276.715 259.133 276.84 259.172C276.965 259.211 277.099 259.204 277.22 259.153L277.208 259.158ZM271.188 261.023C271.285 261.744 272.566 263.212 273.378 263.179C274.331 263.135 275.668 262.135 275.574 261.177C275.48 260.219 271.058 259.96 271.194 261.018L271.188 261.023ZM266.434 258.8C266.772 258.442 267.223 258.211 267.711 258.146C268.199 258.08 268.695 258.185 269.115 258.442C269.91 259.031 270.62 258.297 269.942 257.614C269.641 257.302 269.271 257.065 268.862 256.922C268.452 256.779 268.015 256.735 267.585 256.793C267.155 256.85 266.745 257.008 266.388 257.254C266.03 257.5 265.736 257.827 265.528 258.207C265.119 258.893 265.981 259.241 266.446 258.796L266.434 258.8ZM96.9907 185.664C97.3157 182.945 97.4804 181.608 94.5822 181.468C86.2569 181.064 80.3387 183.162 75.229 187.144C72.3428 189.35 69.9472 192.132 68.1944 195.314C66.4417 198.496 65.3702 202.008 65.0481 205.627C65.0258 205.802 65.0718 205.979 65.1766 206.121C65.2814 206.263 65.4369 206.359 65.6107 206.389C65.7845 206.419 65.9632 206.381 66.1097 206.283C66.2562 206.184 66.3591 206.033 66.3971 205.861C67.4864 199.115 71.0159 193.004 76.3147 188.69C81.7928 184.413 88.7283 182.454 95.634 183.231C95.1342 190.446 92.1711 197.27 87.241 202.56C81.389 208.797 76.5334 210.185 68.7687 211.944C68.6128 211.989 68.4783 212.089 68.3893 212.225C68.3004 212.361 68.2628 212.524 68.2834 212.685C68.304 212.846 68.3814 212.995 68.5017 213.104C68.622 213.213 68.7773 213.276 68.9396 213.281C75.6971 213.196 83.8622 208.598 88.4499 203.786C93.119 198.786 96.1056 192.448 96.9907 185.664ZM155.488 270.676C153.212 265.684 147.555 259.278 141.397 260.523C137.547 261.293 133.31 265.413 131.43 268.751C130.441 270.505 130.886 272.52 133.105 272.798C138.249 273.262 143.418 273.396 148.579 273.2C154.399 273.271 160.211 272.73 165.918 271.588C166.81 271.354 166.368 270.138 165.587 270.123C162.233 270.058 158.851 270.434 155.488 270.676ZM110.441 272.782C116.241 273.11 124.147 273.09 129.642 271.731C130.495 271.52 130.115 270.309 129.334 270.309C128.553 270.309 127.738 270.337 126.942 270.365C125.695 267.309 124.17 264.204 121.158 262.554C116.31 259.905 111.191 263.729 107.86 267.099C103.56 271.455 106 272.53 110.441 272.782ZM48.1296 204.201C48.3226 204.19 48.5039 204.105 48.6358 203.964C48.7677 203.823 48.84 203.636 48.8376 203.443C48.8352 203.249 48.7583 203.064 48.623 202.926C48.4877 202.789 48.3043 202.708 48.1111 202.702C40.3512 202.908 32.6623 201.176 25.7396 197.664C15.5093 192.162 9.394 183.908 5.6056 173.187C11.8919 172.406 22.0143 171.927 30.8616 174.444C44.2596 178.253 49.7497 187.383 52.2753 200.196C52.4293 200.983 53.7753 200.891 53.7029 200.059C51.4791 174.306 28.3668 168.981 6.28782 171.351C3.84846 171.615 3.34488 171.752 4.31508 174.312C6.51842 180.605 9.94385 186.4 14.3944 191.364C22.581 199.908 36.1746 205.73 48.1296 204.201ZM303.489 274.454C267.429 273.53 27.7339 274.511 12.0336 275.083C11.2851 275.11 11.2636 276.38 12.0228 276.403C31.0048 276.99 50.0438 276.621 69.032 276.581C88.0202 276.541 282.168 276.678 303.477 276.019C304.364 275.993 304.379 274.476 303.489 274.454ZM74.0879 271.052C76.182 260.728 77.742 250.304 78.7618 239.82C80.9409 239.653 81.1919 239.419 81.6369 237.133C82.0535 235.259 82.3498 233.359 82.524 231.447C82.6934 228.724 83.0876 227.534 79.9753 227.468C67.1532 227.186 51.5453 227.066 38.8742 227.93C38.701 227.942 38.539 228.02 38.4222 228.149C38.3055 228.277 38.2431 228.446 38.248 228.62C38.253 228.793 38.325 228.958 38.449 229.08C38.5729 229.201 38.7391 229.27 38.9127 229.272C52.7234 230.142 67.4458 228.425 80.8007 229.603C80.7811 232.398 80.4547 235.183 79.8274 237.907C66.1214 238.857 53.0946 238.721 39.3917 238.554C38.4849 235.704 37.8026 232.788 37.3512 229.833C37.2187 229.05 35.8989 229.078 35.919 229.91C36.029 232.92 36.5875 235.896 37.576 238.741C38.0734 240.232 39.1653 240.468 40.7561 240.457C53.0761 240.374 64.7955 240.724 77.1679 239.934C75.8897 251.974 73.9339 259.893 72.6249 269.079C72.1613 272.319 73.729 272.963 74.0879 271.052ZM106.659 208.894C107.383 208.909 107.675 207.742 106.902 207.585C102.244 206.636 96.9892 206.308 93.0591 209.498C88.1511 213.481 90.0022 221.654 90.8738 227.222C92.517 237.706 97.9578 260.359 102.097 271.218C102.441 272.119 103.91 271.526 103.657 270.648C100.363 259.13 95.5123 242.6 92.9298 227.02C92.2968 223.197 90.9031 216.688 92.6218 213.178C95.1489 208.048 101.948 208.788 106.659 208.894ZM40.7114 243.125C41.1195 249.021 44.0425 265.613 46.2062 270.738C46.291 270.901 46.4302 271.029 46.5996 271.1C46.769 271.171 46.9579 271.18 47.1335 271.127C47.3092 271.073 47.4607 270.96 47.5616 270.806C47.6625 270.653 47.7065 270.469 47.6861 270.286C45.4516 261.206 43.8854 254.421 42.082 242.889C41.9465 242.022 40.656 242.275 40.7114 243.125ZM58.2674 186.518C58.362 186.666 58.5099 186.772 58.6803 186.813C58.8507 186.854 59.0305 186.828 59.1821 186.74C59.3338 186.652 59.4457 186.509 59.4945 186.341C59.5433 186.172 59.5252 185.992 59.444 185.836C55.7487 179.245 54.5463 171.544 56.056 164.14C57.2141 158.916 59.7533 154.099 63.4085 150.192C67.0637 146.285 71.7007 143.431 76.8352 141.929C78.6746 148.541 79.1503 155.459 78.2335 162.261C76.441 173.99 71.7871 180.22 64.4105 188.73C63.8638 189.362 64.7478 190.337 65.4223 189.808C70.1839 186.136 74.5252 179.222 76.8321 173.697C80.8731 164.023 81.8387 151.879 78.4091 141.846C77.7669 139.964 77.5713 139.825 75.7187 140.404C69.1441 142.489 63.4165 146.638 59.3855 152.235C55.8303 157.2 53.8262 163.107 53.6267 169.211C53.4272 175.314 55.041 181.34 58.2644 186.526L58.2674 186.518ZM58.5523 225.58C58.5693 226.442 60.0431 226.455 60.0739 225.58C60.1016 224.819 60.1313 224.057 60.1632 223.294C66.9838 208.808 73.7521 200.903 86.146 190.927C86.7312 190.455 85.992 189.349 85.3021 189.694C75.9343 194.397 64.68 209.299 60.368 219.009C61.3598 197.701 63.1077 182.381 68.4823 161.042C68.6794 160.263 67.3658 159.899 67.1086 160.677C62.062 175.992 59.4686 196.652 58.6956 212.788C52.8928 199.657 41.0518 189.148 27.9803 183.618C27.1564 183.27 26.7098 184.542 27.5075 184.915C41.6755 191.384 52.0736 202.996 58.5508 216.971C58.4846 219.836 58.4954 222.701 58.5493 225.58H58.5523Z" fill="url(#paint0_linear_414_4126)"/>
<path d="M164.649 188.449C163.386 190.095 162.331 190.282 161.518 192.629C160.907 194.46 160.987 196.451 161.743 198.227C161.813 198.385 161.818 198.564 161.759 198.727C161.699 198.89 161.58 199.023 161.424 199.099C161.269 199.176 161.09 199.189 160.925 199.136C160.76 199.084 160.622 198.97 160.539 198.818C159.953 197.811 159.583 196.694 159.453 195.537C159.322 194.38 159.433 193.208 159.78 192.096C160.322 190.356 162.026 187.733 163.916 187.337C164.056 187.312 164.199 187.329 164.329 187.385C164.459 187.441 164.57 187.534 164.648 187.652C164.726 187.77 164.768 187.909 164.768 188.05C164.768 188.192 164.727 188.33 164.649 188.449ZM169.01 192.044C169.088 191.948 169.139 191.833 169.157 191.711C169.176 191.589 169.162 191.464 169.116 191.35C169.07 191.235 168.995 191.135 168.898 191.059C168.8 190.983 168.685 190.934 168.562 190.918C166.579 190.846 164.922 193.563 164.624 195.282C164.438 196.337 164.564 197.424 164.986 198.409C165.409 199.394 166.109 200.234 167.002 200.827C167.145 200.928 167.321 200.971 167.494 200.947C167.668 200.922 167.825 200.832 167.934 200.695C168.043 200.558 168.095 200.385 168.08 200.21C168.065 200.036 167.983 199.874 167.852 199.758C167.283 199.223 166.85 198.56 166.589 197.824C166.328 197.088 166.247 196.3 166.352 195.526C166.759 193.193 168.371 192.671 169.01 192.044ZM218.814 185.509C218.66 184.614 217.274 184.715 217.274 185.57C217.312 191.443 215.332 197.552 205.134 199.573C193.926 201.64 182.353 199.295 172.834 193.027C172.695 192.929 172.523 192.89 172.356 192.918C172.188 192.946 172.038 193.039 171.939 193.176C171.839 193.314 171.797 193.485 171.823 193.653C171.848 193.821 171.939 193.972 172.075 194.074C181.306 201.19 194.097 203.648 205.47 201.52C213.972 199.925 220.429 195.132 218.814 185.509ZM175.746 202.875C174.551 202.988 157.753 203.479 156.609 202.906C155.465 202.333 150.911 187.722 149.807 173.59C149.489 169.519 148.852 167.643 143.893 166.913C139.877 166.32 108.228 166.615 105.415 166.913C102.997 167.167 101.16 168.117 101.36 172.957C101.836 184.463 107.908 206.073 111.182 207.833C114.742 209.742 171.384 209.252 175.603 208.405C179.084 207.705 178.449 202.621 175.746 202.875ZM125.726 183.127C121.213 183.291 122.405 192.831 127.825 192.618C132.669 192.434 131.433 182.921 125.726 183.127ZM134.476 249.626C134.268 248.855 133.07 249.154 133.124 249.921C133.256 251.777 134.517 258.194 135.093 261.19C135.209 261.794 136.247 261.476 136.349 260.922C136.587 259.614 134.949 251.383 134.476 249.626ZM142.909 249.471C142.516 248.855 141.452 249.287 141.717 250.011C143.015 253.057 144.05 256.209 144.811 259.432C144.965 260.183 146.174 259.995 146.146 259.206C145.776 255.766 144.673 252.445 142.912 249.467L142.909 249.471ZM160.396 259.095C159.339 256.056 158.779 252.867 158.737 249.65C158.723 249.492 158.653 249.344 158.54 249.232C158.426 249.121 158.277 249.054 158.118 249.042C157.96 249.031 157.802 249.077 157.674 249.172C157.546 249.266 157.456 249.403 157.42 249.558C157.034 252.554 157.318 255.598 158.252 258.471C159.176 261.433 161.244 263.941 160.756 267.097C160.721 267.272 160.751 267.454 160.839 267.609C160.928 267.764 161.069 267.882 161.237 267.942C161.406 268.001 161.59 267.998 161.756 267.932C161.922 267.867 162.059 267.743 162.142 267.585C163.687 264.85 161.338 261.609 160.396 259.091V259.095ZM120.457 249.877C120.376 249.739 120.249 249.635 120.099 249.583C119.948 249.531 119.784 249.534 119.636 249.592C119.487 249.65 119.365 249.759 119.289 249.9C119.214 250.04 119.191 250.203 119.225 250.359C119.783 252.977 122.137 258.012 120.56 260.37C120.49 260.49 120.457 260.627 120.464 260.765C120.471 260.904 120.519 261.037 120.6 261.148C120.682 261.26 120.795 261.345 120.925 261.393C121.055 261.441 121.196 261.45 121.33 261.419C124.563 260.372 121.755 251.847 120.457 249.872V249.877ZM134.602 236.239C132.796 229.143 130.706 217.17 136.612 211.518C127.389 211.381 119.701 211.21 117.796 211.21C114.299 211.21 110.027 212.038 108.957 217.03C107.646 223.148 112.263 237.029 116.777 247.14C122.767 247.492 128.773 247.471 134.761 247.076C134.47 243.47 134.415 239.848 134.596 236.234L134.602 236.239ZM140.017 211.565C130.161 217.973 137.26 239.053 140.215 247.454C146.606 247.813 153.013 247.79 159.401 247.388C158.675 244.272 158.548 235.814 159.946 234.033C161.344 232.253 165.547 232.424 171.819 232.507C171.866 225.258 171.521 214.35 175.906 210.915C171.996 211.799 154.779 211.755 140.017 211.561V211.565ZM196.689 179.258C187.336 182.892 182.439 181.646 172.973 181.205C166.46 180.897 157.487 182.616 155.708 190.108C155.662 190.278 155.685 190.459 155.771 190.613C155.856 190.766 155.999 190.881 156.167 190.931C156.336 190.981 156.518 190.964 156.674 190.882C156.83 190.801 156.948 190.662 157.003 190.494C159.966 182.765 169.015 182.602 175.982 183.229C182.949 183.856 191.129 184.427 197.342 180.49C197.506 180.405 197.629 180.257 197.684 180.081C197.74 179.905 197.723 179.713 197.637 179.549C197.552 179.385 197.405 179.262 197.228 179.206C197.052 179.151 196.86 179.168 196.696 179.253L196.689 179.258ZM194.24 144.355C186.967 138.392 184.894 125.264 182.011 119.038C176.279 106.654 163.976 102.791 151.253 105.651C141.335 107.88 141.472 118.497 156.077 117.274C163.868 116.621 167.581 114.656 167.609 114.642C168.484 118.06 172.297 123.286 172.746 122.32C173.846 119.951 176.17 120.953 176.549 123.13C177.098 126.291 175.372 127.884 173.58 127.814C172.94 127.79 176.125 138.881 176.918 140.951C177.126 141.494 177.819 141.403 178.318 141.414C183.755 141.474 189.141 142.469 194.24 144.355ZM192.204 101.827C184.246 95.5904 170.227 88.6206 160.083 88.0261C159.419 87.9439 158.745 88.0313 158.124 88.2802C148.884 90.8294 135.751 97.277 128.402 103.387C127.949 103.763 128.305 104.413 128.772 104.553C133.715 105.838 138.589 107.378 143.374 109.165C144.263 109.538 144.635 108.12 143.788 107.755C139.497 105.966 135.052 104.571 130.509 103.586C138.754 98.1133 149.859 91.3823 159.544 89.3707C168.998 89.9606 182.538 96.4467 190.116 102.172C184.581 103.342 179.129 104.871 173.792 106.748C173.635 106.808 173.508 106.926 173.435 107.077C173.363 107.228 173.351 107.402 173.402 107.561C173.453 107.721 173.564 107.855 173.711 107.936C173.858 108.017 174.03 108.038 174.192 107.996C180.463 106.325 185.556 104.552 191.929 103.29C192.073 103.243 192.203 103.158 192.303 103.044C192.404 102.929 192.472 102.79 192.5 102.64C192.528 102.491 192.516 102.336 192.464 102.193C192.412 102.05 192.322 101.923 192.204 101.827ZM127.626 127.676C128.806 130.263 129.423 133.072 129.434 135.916C129.354 136.646 128.311 136.614 128.086 136.004C127.734 135.043 127.601 133.82 127.284 132.78C127.169 134.639 127.212 136.494 127.11 138.35C127.117 138.527 127.054 138.7 126.934 138.832C126.815 138.964 126.649 139.043 126.472 139.054C126.295 139.065 126.121 139.007 125.986 138.891C125.851 138.775 125.767 138.612 125.752 138.435C125.532 136.605 125.434 134.762 125.456 132.919C124.928 134.196 124.522 135.521 124.244 136.876C124.21 137.041 124.111 137.186 123.97 137.278C123.828 137.371 123.656 137.403 123.491 137.369C123.326 137.334 123.181 137.236 123.089 137.094C122.996 136.953 122.964 136.781 122.998 136.616C123.313 133.945 123.961 131.323 124.925 128.813C125.342 128.052 126.827 126.39 127.626 127.676ZM127.791 106.067C127.843 105.921 127.946 105.798 128.081 105.721C128.216 105.644 128.374 105.617 128.526 105.646C128.679 105.674 128.816 105.757 128.914 105.878C129.011 105.999 129.063 106.151 129.058 106.306C128.085 112.43 127.626 118.624 127.686 124.825C127.686 125.737 126.331 125.623 126.3 124.743C126.102 118.482 126.602 112.218 127.791 106.067ZM153.239 98.8835C153.107 98.2781 152.061 98.1503 151.983 98.8172C151.864 99.8215 151.782 103.102 151.807 104.066C151.804 104.252 151.873 104.432 152 104.568C152.126 104.703 152.301 104.785 152.486 104.795C152.671 104.805 152.854 104.743 152.994 104.621C153.134 104.5 153.222 104.328 153.239 104.143C153.357 102.392 153.357 100.635 153.239 98.8835ZM167.817 97.9593C163.673 96.0373 158.987 95.6291 154.573 96.8056C154.489 96.8268 154.41 96.865 154.341 96.9178C154.272 96.9706 154.215 97.0369 154.173 97.1127C154.13 97.1885 154.104 97.2721 154.095 97.3584C154.087 97.4447 154.096 97.5319 154.122 97.6147C154.148 97.6974 154.191 97.7739 154.248 97.8394C154.304 97.9049 154.374 97.9582 154.452 97.9958C154.53 98.0334 154.616 98.0546 154.702 98.0581C154.789 98.0617 154.875 98.0474 154.956 98.0163C159.183 97.2119 163.555 97.7204 167.484 99.4734C167.267 101.193 167.242 102.932 167.412 104.658C167.417 104.844 167.497 105.021 167.632 105.149C167.768 105.276 167.949 105.345 168.135 105.34C168.321 105.334 168.498 105.255 168.625 105.119C168.753 104.983 168.822 104.803 168.816 104.616C168.547 98.9019 169.426 98.8434 167.817 97.9593ZM165.062 141.272C167.426 140.237 169.52 138.672 171.183 136.699C171.676 136.137 170.788 135.353 170.238 135.821C167.5 138.144 164.635 140.89 160.737 140.472C156.587 140.027 155.381 135.798 154.521 132.364C154.316 131.545 153.039 131.748 153.213 132.6C154.045 136.634 155.586 141.102 160.212 141.869C161.382 142.058 162.578 142.002 163.725 141.703C163.936 143.069 163.694 144.392 163.802 145.554C163.829 145.71 163.912 145.851 164.035 145.952C164.158 146.052 164.313 146.104 164.472 146.1C164.63 146.095 164.782 146.033 164.898 145.925C165.015 145.818 165.089 145.671 165.106 145.514C165.266 144.103 165.251 142.678 165.062 141.27V141.272ZM167.252 130.967C167.21 130.81 167.113 130.672 166.978 130.581C166.843 130.489 166.68 130.448 166.518 130.467C166.355 130.486 166.206 130.562 166.095 130.682C165.985 130.802 165.921 130.958 165.917 131.121C166.161 133.56 163.794 134.125 161.951 134.621C161.792 134.667 161.657 134.772 161.574 134.916C161.491 135.059 161.467 135.229 161.507 135.39C161.547 135.55 161.648 135.689 161.788 135.777C161.928 135.865 162.097 135.895 162.259 135.861C164.583 135.644 167.942 134.492 167.252 130.966V130.967ZM159.884 130.559C159.391 130.699 158.871 130.717 158.369 130.61C158.578 129.877 158.796 129.15 158.966 128.407C159.015 128.246 158.998 128.071 158.919 127.922C158.84 127.773 158.705 127.662 158.543 127.612C158.382 127.562 158.208 127.578 158.058 127.656C157.909 127.735 157.796 127.869 157.745 128.03C157.484 128.739 157.252 129.458 157.049 130.186C156.962 130.373 156.923 130.579 156.933 130.785C156.943 130.99 157.004 131.191 157.109 131.368C157.214 131.545 157.36 131.694 157.536 131.802C157.712 131.91 157.911 131.973 158.116 131.987C158.869 132.131 159.646 132.089 160.379 131.862C160.473 131.837 160.561 131.791 160.637 131.73C160.712 131.668 160.774 131.591 160.819 131.504C160.863 131.417 160.889 131.322 160.894 131.224C160.899 131.127 160.884 131.029 160.85 130.938C160.815 130.846 160.762 130.763 160.693 130.694C160.624 130.624 160.542 130.57 160.451 130.534C160.36 130.498 160.263 130.482 160.165 130.486C160.068 130.49 159.972 130.514 159.884 130.558V130.559ZM154.316 127.556C154.28 126.997 154.048 126.37 153.402 126.323C151.779 126.213 152.406 129.199 153.675 129.048C154.357 128.97 154.35 128.062 154.316 127.554V127.556ZM163.548 124.498C163.507 124.349 163.432 124.211 163.33 124.095C163.228 123.978 163.101 123.887 162.958 123.826C162.815 123.766 162.661 123.739 162.506 123.747C162.352 123.754 162.201 123.797 162.065 123.871C161.815 124.078 161.645 124.366 161.587 124.685C161.528 125.004 161.584 125.333 161.745 125.615C162.431 127.209 164.449 126.826 163.548 124.498ZM169.985 121.187C168.796 120.867 167.543 120.865 166.352 121.179C163.853 116.076 158.267 116.886 158.706 122.964C158.361 122.913 158.009 122.934 157.673 123.026C157.336 123.117 157.022 123.277 156.75 123.496C156.494 122.716 156.044 122.015 155.443 121.457C154.841 120.9 154.108 120.504 153.312 120.307C149.642 119.71 148.963 124.591 149.616 127.238C150.125 129.298 151.707 131.476 154.092 131.18C157.676 130.736 156.98 125.282 157.085 125.142C157.261 124.847 157.53 124.619 157.851 124.495C158.171 124.371 158.524 124.357 158.853 124.457C159.315 126.99 161.317 129.977 164.272 129.276C167.11 128.603 167.506 124.786 166.839 122.457C167.845 122.349 168.86 122.342 169.868 122.436C170.006 122.407 170.131 122.335 170.225 122.23C170.319 122.125 170.376 121.993 170.388 121.852C170.401 121.712 170.368 121.572 170.294 121.452C170.22 121.332 170.11 121.239 169.979 121.187H169.985ZM164.269 127.728C166.322 126.766 165.655 122.916 164.892 121.509C164.292 120.393 162.81 118.671 161.367 119.36C160.112 119.958 159.766 121.775 160.135 123.549C160.716 126.433 161.962 128.806 164.263 127.728H164.269ZM155.625 124.925C155.358 123.251 154.502 121.737 152.833 121.69C150.709 121.635 150.543 125.258 150.861 126.756C151.148 128.093 152.207 129.9 153.815 129.781C155.765 129.64 155.808 126.125 155.619 124.925H155.625Z" fill="#191919"/>
<defs>
<linearGradient id="paint0_linear_414_4126" x1="154.001" y1="31.3203" x2="154.001" y2="276.732" gradientUnits="userSpaceOnUse">
<stop stop-color="#5E0303"/>
<stop offset="1" stop-color="#8A0202"/>
</linearGradient>
</defs>
</svg>
