<svg width="267" height="277" viewBox="0 0 267 277" fill="none" xmlns="http://www.w3.org/2000/svg">
<path d="M90.9704 211.395C93.3959 210.536 95.8808 209.855 98.4055 209.358L98.711 210.478C98.7452 210.61 98.8257 210.726 98.9379 210.803C99.0502 210.881 99.1865 210.915 99.3221 210.9L109.318 209.736C112.068 203.465 117.117 193.964 117.19 193.819C117.117 191.447 117.19 189.454 117.19 187.184C111.471 189.308 100.894 193.338 95.3645 195.914C95.2395 195.994 95.1428 196.112 95.088 196.25C95.0333 196.389 95.0231 196.541 95.059 196.685C95.059 196.685 95.1608 197.049 95.2918 197.572C92.5855 197.572 84.4811 197.18 82.5314 199.027C82.2283 199.45 82.0793 199.963 82.1095 200.482C81.9931 202.49 82.997 218.088 84.5975 222.671C85.4269 225.072 87.1729 224.81 88.366 222.511C89.7469 219.049 90.6334 215.41 90.9995 211.7C90.9995 211.511 90.9559 211.526 90.9704 211.395ZM89.2972 198.373C91.0723 198.227 91.6252 198.256 95.4373 198.14C96.1211 200.73 97.5325 206.055 98.26 208.776C95.6929 209.174 93.159 209.762 90.6794 210.536C89.9068 206.523 89.4446 202.457 89.2972 198.373Z" fill="url(#paint0_linear_414_4137)"/>
<path d="M224.889 71.0328C225.252 70.5235 224.787 69.8688 224.394 69.3595C225.507 68.2149 226.741 67.1952 228.075 66.3186C230.326 65.1967 232.384 63.7232 234.171 61.9536C234.914 61.1824 236.31 59.5965 235.787 58.6653C235.263 57.7341 234.331 57.6759 233.066 58.2142C233.614 57.6384 234.062 56.9744 234.39 56.25C234.797 55.1151 233.837 54.1984 231.756 55.0423C232.513 53.8347 232.687 52.5688 231.407 51.9577C230.374 51.463 228.861 52.6416 227.988 53.4127C226.273 54.9105 224.664 56.5245 223.172 58.2433C222.255 56.3227 220.8 54.1111 218.981 54.8095C217.163 55.5079 218.574 58.6362 219.505 60.3385L216.202 62.6229C215.703 62.3534 215.139 62.2275 214.573 62.2591C210.819 62.8993 193.577 76.0234 191.831 76.0234C190.492 76.0234 171.374 66.8569 154.845 64.2088C154.813 64.1097 154.754 64.0216 154.674 63.9546C154.594 63.8877 154.497 63.8447 154.394 63.8305C151.511 63.3386 148.588 63.1193 145.664 63.1758C145.575 63.1817 145.489 63.2069 145.411 63.2497C145.333 63.2924 145.265 63.3516 145.213 63.4231H143.991C143.7 62.2446 142.623 59.5237 142.245 58.4761C143.234 57.6177 144.602 57.1812 145.315 55.7989C146.624 53.2381 146.566 48.7858 146.202 45.934C147.846 44.6827 147.89 42.6748 147.512 40.6233C147.366 39.7939 146.915 37.917 146.217 37.4514C145.824 37.1895 144.995 37.4514 144.282 37.7133C143.569 36.0546 143.569 36.8112 143.86 36.1419C143.995 35.8334 144.074 35.5032 144.092 35.167C144.864 35.3998 146.464 33.8575 145.911 31.8205C145.621 31.0913 145.266 30.39 144.849 29.7253C145.053 29.2306 145.489 28.6341 144.122 26.8153C143.532 26.1799 142.768 25.7342 141.924 25.5349H141.255C140.773 24.834 140.064 24.3203 139.247 24.0799C138.015 23.7657 136.708 23.9486 135.61 24.5892C135.319 24.8074 135.086 25.0984 134.795 25.3021C134.137 24.9026 133.382 24.6914 132.612 24.6914C131.843 24.6914 131.088 24.9026 130.43 25.3021C130.045 25.4532 129.694 25.6807 129.399 25.9707C129.104 26.2607 128.871 26.6074 128.713 26.9899C128 26.7439 127.244 26.6492 126.492 26.7119C125.741 26.7745 125.01 26.9931 124.348 27.3537C121.835 28.7166 119.954 31.0093 119.11 33.7411C119.087 34.153 119.087 34.5659 119.11 34.9779H118.95C116.768 34.6578 113.988 39.8376 116.215 43.8679C116.477 44.3481 116.811 44.7991 117.131 45.3229C118.062 46.7779 117.699 47.2144 119.779 48.9895C120.39 49.5133 120.492 49.4697 120.871 49.7898C121.249 50.1099 121.103 49.9498 121.322 50.7646C121.441 51.2446 121.654 51.6962 121.948 52.0933C122.243 52.4904 122.614 52.8251 123.039 53.0781C123.193 54.5012 123.8 55.8373 124.77 56.8902C125.077 57.2339 125.435 57.5283 125.832 57.7632C125.939 57.8235 126.059 57.8583 126.181 57.865C126.618 60.5713 127.156 64.0924 127.389 65.5911L126.094 66.2895C124.4 66.9712 122.752 67.7634 121.162 68.6611C121.037 68.7475 120.949 68.8771 120.914 69.0249C119.372 69.8397 117.917 70.6108 117.088 71.1055C105.535 77.9586 72.7247 123.136 72.39 125.202C72.3531 125.321 72.3531 125.448 72.39 125.566C72.8603 126.316 73.4333 126.997 74.0924 127.589C73.8893 127.959 73.6453 128.306 73.3649 128.622C70.4549 130.528 66.0899 133.365 63.7473 135.897C63.583 136.043 63.4598 136.23 63.3897 136.439C63.3196 136.647 63.3052 136.871 63.3478 137.087C63.3904 137.302 63.4886 137.504 63.6326 137.67C63.7767 137.836 63.9616 137.962 64.1693 138.036C64.6058 138.181 64.6785 138.137 67.5158 136.581C66.736 137.264 66.0983 138.095 65.6388 139.025C65.4497 139.825 66.1772 140.291 67.0938 140.145C67.6096 140.01 68.1007 139.794 68.5488 139.505C68.2864 139.91 68.1468 140.383 68.1468 140.865C68.1468 141.348 68.2864 141.821 68.5488 142.226C70.0038 144.059 73.8159 138.283 75.8238 136.857C76.6386 137.89 77.7444 140.305 79.505 139.665C81.0327 139.098 79.3595 135.737 79.505 134.762C80.097 134.193 80.7291 133.668 81.3965 133.19C82.5189 134.023 83.8022 134.612 85.1649 134.922C87.5657 134.922 112.621 109.634 114.527 107.611C113.843 114.043 110.395 141.644 111.122 147.013C111.457 149.443 117.291 149.792 119.75 149.923C119.008 167.383 118.514 193.835 118.383 194.111C114.527 202.419 113.479 204.689 112.184 207.206C109.827 211.717 99.9041 228.362 98.7837 232.145C98.6237 232.741 98.6091 232.974 99.2348 234.08C97.3598 236.051 95.6196 238.146 94.0259 240.351C93.2256 241.806 96.6594 255.367 99.0893 260.168C99.6422 261.245 100.544 262.904 101.752 262.86C105.389 262.729 105.375 249.663 105.273 246.011C105.272 245.898 105.231 245.79 105.157 245.706C105.816 244.721 106.535 243.779 107.31 242.883C107.773 243.201 108.259 243.483 108.765 243.727C109.26 243.945 109.813 243.567 110.22 243.232C115.065 239.42 141.197 206.857 146.799 191.492C149.345 184.479 152.735 174.789 153.695 167.921C154.282 163.579 154.336 159.181 153.855 154.826C153.855 154.764 153.88 154.705 153.924 154.662C153.967 154.618 154.027 154.593 154.088 154.593C154.15 154.593 154.209 154.618 154.253 154.662C154.297 154.705 154.321 154.764 154.321 154.826C155.05 159.206 155.192 163.664 154.743 168.081C153.666 177.612 146.144 197.472 142.128 204.776C145.591 204.136 152.633 202.739 156.038 201.721C167.387 198.273 177.863 187.986 178.78 176.433C179.076 170.99 179.076 165.536 178.78 160.093C178.681 152.58 177.705 145.104 175.87 137.817C178.954 136.144 181.777 134.18 182.694 132.376C184.658 128.52 179.463 106.331 178.329 100.104C184.541 100.788 195.119 102.024 200.052 98.1685C205.697 93.6289 217.89 80.854 224.889 71.0328ZM104.487 245.211C101.868 243.625 98.2017 239.856 97.6488 236.903C98.2454 236.146 98.871 235.448 99.453 234.662C101.425 237.671 103.883 240.331 106.728 242.534C105.929 243.381 105.181 244.275 104.487 245.211ZM220.16 60.7459C220.235 60.6979 220.289 60.6229 220.311 60.5363C220.332 60.4497 220.32 60.3581 220.276 60.2803C219.767 59.3346 218.239 56.0026 219.301 55.6243C219.912 55.3915 220.451 55.7698 220.902 56.2791C221.591 57.1528 222.127 58.1367 222.488 59.1891C222.515 59.2746 222.564 59.3512 222.632 59.4107C222.699 59.4702 222.781 59.5103 222.869 59.5268C222.957 59.5432 223.048 59.5354 223.132 59.5041C223.216 59.4728 223.29 59.4192 223.346 59.3491C224.801 57.7341 228.206 54.0529 230.127 53.0635C231.582 52.3069 231.931 53.7037 228.366 56.9629C227.547 57.5872 226.761 58.2525 226.009 58.9563C225.968 59.0134 225.945 59.0821 225.945 59.1527C225.945 59.2232 225.968 59.292 226.009 59.3491C226.009 59.7274 226.314 60.1494 226.838 59.7565C228.103 58.6463 229.44 57.6207 230.839 56.6865C231.554 56.1789 232.384 55.8587 233.255 55.7553C232.818 57.0939 228.759 60.7314 228.41 61.1388C228.299 61.238 228.232 61.3768 228.222 61.5252C228.213 61.6736 228.262 61.8198 228.359 61.9324C228.456 62.0449 228.594 62.1147 228.742 62.1268C228.89 62.139 229.037 62.0924 229.152 61.9972C230.767 60.9496 233.589 58.5052 234.564 58.869C235.539 59.2327 232.644 61.939 231.916 62.5792C227.74 66.2022 228.817 63.8742 223.986 68.7921C221.884 66.4887 219.469 64.4905 216.813 62.8557L220.16 60.7459ZM156.94 130.339C156.693 128.331 156.387 126.163 156.009 123.907L156.635 123.078C159.545 119.339 160.418 113.388 160.141 108.717C161.698 115.541 162.935 122.249 163.88 128.913L156.94 130.339ZM135.304 80.5194C131.478 77.6094 125.323 72.5896 121.744 69.1558L127.564 66.2458C132.908 71.2377 137.483 76.9941 141.139 83.3275C146.729 93.5973 150.876 104.589 153.463 115.992L132.714 86.6449L135.421 81.0286C135.456 80.9421 135.464 80.8467 135.444 80.7554C135.423 80.6642 135.374 80.5817 135.304 80.5194ZM145.14 64.0197C145.227 64.1797 146.231 66.3186 147.759 70.0579C147.759 70.218 147.483 73.8555 147.352 75.1359C145.495 74.3998 143.743 73.4213 142.143 72.2259C142.463 70.96 143.903 65.2128 144.005 63.9178L145.14 64.0197ZM139.975 79.6464C140.077 79.3845 140.178 79.0353 140.295 78.6279L141.27 79.1371C141.823 79.5009 141.604 78.3951 142.099 81.5961C142.099 82.1344 142.245 82.731 142.274 83.3857C141.604 82.1781 140.775 80.8831 139.989 79.6464H139.975ZM139.16 78.4242C136.411 74.5253 133.282 70.9089 129.819 67.6281L140.775 72.3859C140.353 73.3899 139.742 76.4599 139.175 78.4242H139.16ZM150.349 86.9505C148.894 82.9783 147.774 78.5406 147.221 77.3766C147.254 77.0136 147.254 76.6483 147.221 76.2853C147.431 76.3637 147.652 76.4126 147.875 76.4308C148.016 76.4324 148.152 76.3832 148.259 76.2923C148.366 76.2014 148.436 76.0749 148.457 75.9361C148.574 75.456 148.763 73.0261 148.792 72.4878C153.025 83.174 156.558 94.1242 159.37 105.269C151.149 87.7798 152.415 92.8432 150.363 86.9505H150.349ZM162.382 114.726C159.064 98.8233 153.23 78.9916 146.595 64.2961C149.032 64.2975 151.464 64.4921 153.87 64.8781C155.107 75.9361 154.074 75.5578 154.903 75.9943C155.732 76.4308 160.723 78.4387 161.465 78.7443C161.392 79.8646 162.44 111.904 162.396 114.726H162.382ZM145.635 38.3826C146.393 40.0378 146.661 41.8759 146.406 43.6788C146.287 44.1376 146.044 44.5546 145.703 44.8833C145.361 45.212 144.935 45.4395 144.472 45.5405C144.009 45.6416 143.527 45.6122 143.08 45.4556C142.633 45.299 142.238 45.0214 141.939 44.6536C141.245 43.1911 140.722 41.6531 140.382 40.0704C140.775 39.5611 144.965 38.5426 145.635 38.3826ZM125.614 52.9326C125.082 52.6906 124.538 52.4769 123.984 52.2924C123.612 52.1395 123.28 51.9035 123.014 51.6025C122.747 51.3014 122.553 50.9434 122.446 50.5557C122.34 50.168 122.323 49.7611 122.398 49.366C122.473 48.9709 122.637 48.5983 122.879 48.2766C123.795 47.5054 124.625 47.5491 125.381 48.6985C125.861 49.5861 125.847 49.6588 126.065 49.7461C126.128 49.7737 126.195 49.7876 126.264 49.7869C126.332 49.7861 126.4 49.7708 126.462 49.7418C126.524 49.7129 126.579 49.6711 126.623 49.6191C126.668 49.5671 126.701 49.5063 126.72 49.4406C126.935 48.5298 126.97 47.5856 126.822 46.6615C126.647 45.6576 126.618 41.2053 126.647 41.0598C127.072 41.2838 127.549 41.3893 128.029 41.3653C130.663 41.2635 131.187 39.9103 132.234 38.8045C133.442 38.9209 133.689 39.5029 135.057 38.8045C135.697 38.4402 136.285 37.9898 136.803 37.4659C137.221 37.6371 137.625 37.8415 138.011 38.077C138.883 38.4964 139.866 38.6251 140.817 38.4444C141.767 38.2638 142.635 37.7831 143.292 37.0731C143.452 37.3786 143.598 37.6842 143.729 38.0043C142.392 38.4191 141.133 39.0534 140.004 39.8812C139.757 40.1868 140.12 41.8455 140.208 42.2383C138.989 42.3917 137.809 42.7716 136.73 43.3587C136.512 42.6021 136.032 41.1907 135.275 40.7979C135.048 40.7282 134.804 40.7282 134.577 40.7979C133.267 41.0016 128.568 42.4129 128 43.1841C127.505 43.7224 128.917 47.8837 129.353 48.5676C131.027 51.1575 135.93 50.4009 136.847 47.3745C137.074 46.3588 137.074 45.3055 136.847 44.2899C137.268 44.2899 138.534 43.8388 138.68 43.7952C139.684 46.0504 139.975 46.1814 141.139 48.6112C140.979 48.7422 140.717 48.9604 140.499 49.1059C139.466 49.7898 139.247 49.6734 139.305 49.9644C139.322 50.0221 139.36 50.0717 139.411 50.1039C139.462 50.136 139.522 50.1485 139.582 50.139C140.193 50.0517 140.789 49.8854 141.357 49.6443C141.697 49.5175 141.977 49.2684 142.143 48.9459C142.55 48.0292 140.295 44.5809 139.407 43.5478C139.582 43.5478 139.989 43.2568 140.295 43.0968C140.702 44.7264 140.979 46.0068 142.55 46.647C143.004 46.8184 143.488 46.8965 143.973 46.8765C144.458 46.8565 144.934 46.7388 145.373 46.5306C145.606 49.0914 145.562 53.2527 144.34 55.5225C143.714 56.701 142.172 57.1521 141.182 58.1269C140.891 58.4034 141.081 58.7962 141.182 59.2182C142.797 63.7141 142.827 63.6996 142.739 64.2816C142.311 66.6972 141.713 69.0796 140.95 71.4111C140.586 71.251 136.497 69.0831 128.495 65.9694C128.247 64.3252 126.923 55.5516 126.501 53.9365C126.531 53.3691 126.458 53.2381 125.614 52.8598V52.9326ZM135.799 46.9962C135.333 48.5821 133.136 49.266 131.565 48.8295C129.993 48.393 129.892 47.5927 129.15 45.7012C128.802 44.9786 128.562 44.209 128.437 43.4169C128.917 42.8931 134.169 41.8164 134.824 41.7145C135.742 43.2855 136.087 45.1266 135.799 46.9234V46.9962ZM78.8648 134.354C78.3119 134.893 79.0539 136.653 79.1703 138.181C79.1703 138.312 79.1703 138.879 79.083 138.923C78.2828 139.185 77.5407 137.977 77.0897 137.25C76.6386 136.522 76.1876 135.533 75.4746 135.795C74.0196 136.479 70.644 140.96 69.32 141.426C68.6507 140.145 72.4773 136.493 72.6083 136.29C72.6644 136.196 72.6938 136.089 72.6933 135.98C72.6928 135.871 72.6624 135.764 72.6054 135.671C72.5484 135.578 72.467 135.502 72.37 135.452C72.273 135.402 72.1642 135.38 72.0554 135.387C71.7935 135.387 71.6189 135.62 71.2115 135.984C69.9723 137.193 68.554 138.204 67.0065 138.981C68.4095 137.372 69.9111 135.851 71.5025 134.427C71.5811 134.346 71.6364 134.246 71.6625 134.136C71.6625 134.136 71.357 133.365 70.7604 133.671C69.9165 134.136 65.8134 136.508 64.5185 137.119C64.3439 137.002 64.4457 136.828 64.5185 136.653C66.57 134.136 71.0805 131.081 73.845 129.145C74.1695 128.811 74.4395 128.428 74.6453 128.011C76.5599 129.792 78.6023 131.431 80.7563 132.914C80.0927 133.349 79.4606 133.83 78.8648 134.354ZM112.723 147.58C112.403 147.377 112.17 147.187 112.126 146.926C111.326 140.989 115.778 107.35 115.705 106.026C115.705 105.948 115.69 105.871 115.66 105.799C115.63 105.728 115.585 105.663 115.53 105.609C115.474 105.555 115.408 105.512 115.336 105.484C115.264 105.455 115.186 105.442 115.109 105.444C114.367 105.444 115.676 105.444 97.1396 123.195C95.9174 124.344 86.5763 133.278 85.0194 133.874C82.8806 133.714 74.8344 127.298 73.5249 125.275C76.0566 120.154 106.757 78.0168 117.379 71.5711C118.193 71.0764 119.59 70.3053 121.118 69.4905C121.646 69.9887 122.216 70.4414 122.82 70.8436C126.196 74.0446 130.896 78.0313 134.46 81.0286L131.681 86.5431C131.639 86.6161 131.617 86.6989 131.617 86.7831C131.617 86.8674 131.639 86.9502 131.681 87.0232C154.248 119.397 153.914 119.033 154.059 119.033C155.506 126.514 156.405 134.09 156.751 141.702C156.751 143.754 156.751 143.579 156.838 143.434C156.926 143.288 156.838 143.535 156.838 143.535C153.317 147.377 118.47 150.956 112.723 147.58ZM193.155 99.3762C186.564 100.293 179.114 98.9251 177.674 98.8669C176.873 94.9881 175.278 91.3171 172.989 88.0854C172.954 88.0383 172.902 88.0061 172.845 87.9953C172.787 87.9845 172.727 87.9959 172.678 88.0271C172.628 88.0584 172.592 88.1072 172.577 88.1639C172.562 88.2205 172.569 88.2808 172.596 88.3327C173.44 90.0496 176.262 97.4556 176.961 99.2598C176.743 99.9582 183.537 128.054 181.617 131.837C179.9 135.256 169.904 139.563 166.296 140.8C165.582 132.7 164.416 124.646 162.804 116.676C163.298 112.486 162.658 87.5761 162.469 78.366C162.464 78.2589 162.428 78.1557 162.366 78.0681C162.304 77.9806 162.219 77.9123 162.12 77.8713L155.587 75.1213C155.557 71.6636 155.339 68.2101 154.932 64.7763C171.243 67.599 190.245 76.9255 191.831 76.9401C194.13 76.9401 211.212 63.8451 214.747 63.3213C216.319 63.0739 223.07 68.9667 223.856 70.5963C216.959 80.2284 204.839 92.8869 199.222 97.2664C197.413 98.4761 195.324 99.2024 193.155 99.3762Z" fill="url(#paint1_linear_414_4137)"/>
<path d="M134.3 44.0843C134.282 43.9888 134.245 43.8978 134.192 43.8164C134.139 43.7351 134.07 43.6651 133.989 43.6104C133.909 43.5557 133.819 43.5173 133.723 43.4975C133.628 43.4777 133.53 43.4769 133.435 43.4951C133.339 43.5132 133.248 43.55 133.167 43.6033C133.085 43.6567 133.015 43.7255 132.961 43.8059C132.906 43.8863 132.868 43.9766 132.848 44.0718C132.828 44.1671 132.827 44.2652 132.845 44.3608C133.136 45.8158 133.194 46.1504 133.835 46.1504C133.956 46.1508 134.075 46.1211 134.181 46.0638C134.288 46.0065 134.379 45.9236 134.445 45.8225C134.512 45.7213 134.552 45.6052 134.562 45.4846C134.572 45.3641 134.552 45.2428 134.504 45.1319C134.46 44.8991 134.329 44.2153 134.3 44.0843ZM138.753 53.7164C139.698 53.9929 140.6 53.5418 140.571 53.309C140.542 53.0762 140.571 53.1926 139.291 52.7125C138.432 52.3924 137.487 51.2575 137.152 51.4321C136.817 51.6067 137.327 52.5379 137.443 52.7125C137.754 53.1848 138.216 53.5384 138.753 53.7164ZM165.364 39.8939C163.458 47.8819 162.062 54.6622 161.829 56.0153C161.674 56.6041 161.645 57.2186 161.742 57.8195C162.513 59.4637 172.479 62.7083 173.745 62.0681C175.011 61.4279 178.299 54.022 182.126 46.3832C184.47 46.4581 186.816 46.2874 189.125 45.874C191.556 45.428 193.921 44.6802 196.167 43.6478C201.085 41.378 206.468 31.6586 207.196 26.7698C207.741 21.4621 206.617 16.1163 203.98 11.4778C191.773 -9.69247 155.965 1.70018 158.875 25.213C159.706 30.5931 161.945 35.658 165.364 39.8939ZM174.24 57.223C174.24 57.4558 173.978 57.4267 172.785 57.223C170.345 56.9163 167.982 56.1616 165.816 54.9968C164.797 54.4439 164.521 54.3275 164.622 54.0802C164.724 53.8328 164.943 53.9201 166.514 54.3566C166.659 54.3566 171.17 55.8116 172.465 56.2627C174.138 57.0193 174.24 57.0193 174.24 57.223ZM173.978 33.5501C175.532 33.6307 177.08 33.31 178.474 32.6189C179.77 33.2466 181.171 33.6265 182.606 33.7393C180.162 38.2934 175.2 47.5763 173.6 52.5233L167.431 50.821C168.886 47.2417 172.101 38.8609 173.949 33.5501H173.978ZM173.469 32.3425C172.383 32.1784 171.38 31.6626 170.616 30.8741C169.851 30.0856 169.366 29.0681 169.235 27.9775C168.827 25.0675 170.69 21.8083 173.498 22.5794C175.258 23.0596 175.477 24.4564 175.171 26.2169C174.909 27.4973 173.964 30.7129 173.44 32.2843L173.469 32.3425ZM177.426 28.8505C177.582 27.8984 177.939 26.9905 178.474 26.1878C178.729 25.7502 179.101 25.3928 179.548 25.1562C179.996 24.9196 180.501 24.8132 181.006 24.8492C182.082 25.1693 182.548 27.2063 181.66 28.4867C180.807 29.6187 179.746 30.5768 178.532 31.3094C178.115 31.0644 177.782 30.6974 177.579 30.2579C177.376 29.8183 177.313 29.3272 177.397 28.8505H177.426ZM164.055 10.3574C170.573 2.51498 182.839 -0.598724 191.7 2.63138C196.514 4.28373 200.562 7.62939 203.093 12.0452C205.601 16.4591 206.674 21.5441 206.163 26.5952C205.493 31.1203 200.343 40.5196 195.818 42.6002C191.68 44.4874 187.166 45.4031 182.621 45.2774C182.126 45.2774 181.602 45.2774 181.413 45.6266C180.555 47.3726 178.983 50.7482 177.441 53.9201C176.376 53.4059 175.271 52.9777 174.138 52.6397C175.826 47.8091 181.151 38.3225 183.683 33.7247C185.877 33.9127 188.081 33.5318 190.085 32.6189C190.626 32.334 191.075 31.9006 191.379 31.3696C191.682 30.8386 191.828 30.2319 191.799 29.6209C191.77 29.0099 191.567 28.4199 191.215 27.92C190.862 27.4202 190.374 27.0313 189.808 26.7989C187.553 25.6931 185.531 28.3412 184.352 30.5674C184.032 31.1494 183.668 31.8332 183.261 32.6044C182.084 32.527 180.924 32.2871 179.813 31.8914C180.919 31.1138 181.9 30.1717 182.723 29.0978C183.183 28.4022 183.417 27.5806 183.391 26.7467C183.365 25.9127 183.08 25.1074 182.577 24.4418C182.182 23.9828 181.633 23.6837 181.033 23.6006C180.433 23.5176 179.823 23.6563 179.318 23.9908C178.299 24.6169 177.482 25.5238 176.966 26.6027C176.45 27.6815 176.256 28.8864 176.408 30.0727C176.566 30.7423 176.927 31.3469 177.441 31.8041C176.487 32.1994 175.462 32.3974 174.429 32.3861C175.011 30.6692 175.957 27.5701 176.204 26.3042C176.359 25.5825 176.394 24.8401 176.306 24.1072C176.193 23.478 175.902 22.8947 175.465 22.4275C175.029 21.9603 174.467 21.629 173.847 21.4736C170.311 20.4697 167.707 24.3836 168.216 28.0357C168.36 29.3444 168.922 30.572 169.818 31.5365C170.714 32.5009 171.898 33.1509 173.192 33.3901C171.33 38.6281 168.42 47.0816 166.965 50.69L163.764 49.8607C165.816 39.5593 166.063 39.8066 165.772 39.6757C162.466 35.4606 160.351 30.4361 159.646 25.1257C159.303 22.4925 159.519 19.8166 160.278 17.2722C161.038 14.7277 162.325 12.3717 164.055 10.3574ZM184.25 32.6917C185.269 30.8438 187.306 26.7989 189.285 27.7883C189.68 27.9478 190.025 28.2123 190.282 28.5534C190.538 28.8944 190.696 29.299 190.74 29.7235C190.711 32.2843 186.724 32.7353 184.192 32.6917H184.25ZM239.948 39.1082C241.701 38.077 243.772 37.725 245.768 38.1188C247.96 38.158 250.054 39.0346 251.62 40.5686C253.187 42.1026 254.107 44.1778 254.192 46.3687C252.874 45.6038 251.333 45.3161 249.827 45.5539C246.175 45.874 241.403 47.8528 242.043 51.3739C242.567 54.2839 246.408 53.891 249.318 53.1053C252.228 52.3196 254.541 50.8937 255.138 48.0856C258.674 50.6609 259.503 55.1714 259.648 59.5801C259.648 59.6418 259.673 59.701 259.717 59.7447C259.76 59.7884 259.82 59.8129 259.881 59.8129C259.943 59.8129 260.002 59.7884 260.046 59.7447C260.09 59.701 260.114 59.6418 260.114 59.5801C260.216 54.6476 259.328 49.817 255.298 47.0089C255.339 45.7456 255.124 44.4871 254.665 43.3095C254.206 42.1318 253.513 41.0596 252.627 40.1578C251.742 39.2559 250.682 38.5431 249.513 38.0626C248.344 37.5821 247.09 37.3438 245.826 37.3622C243.806 37.0673 241.747 37.4894 240.006 38.5553C239.468 38.8172 239.715 39.2101 239.948 39.1082ZM253.217 49.5406C251.573 51.694 246.917 52.8143 244.764 52.4506C243.964 52.3196 243.309 51.985 243.134 51.1556C242.61 48.2456 247.63 46.6597 250.627 46.5578C251.848 46.4643 253.065 46.7763 254.09 47.4454C253.98 48.2061 253.68 48.9267 253.217 49.5406ZM233.284 22.0993C234.841 20.1787 233.793 16.8322 229.443 16.8176C227.755 16.8176 226.94 18.5345 227.056 20.1787C227.318 24.0926 231.727 23.9762 233.284 22.0993ZM228.075 20.1059C228.075 19.1456 228.526 17.8943 229.53 17.9089C231.873 17.9089 232.949 19.0001 232.949 20.2078C232.891 22.9577 227.886 24.3836 228.075 20.1059ZM227.478 185.059C214.689 179.952 208.753 204.673 198.306 225.916C198.24 226.809 198.269 227.706 198.393 228.593C198.393 230.819 198.64 245.558 199.935 247.231C200.284 247.901 201.754 247.231 202.438 246.809C208.246 243.214 213.719 239.104 218.792 234.529C218.835 234.48 218.868 234.422 218.888 234.359C218.908 234.297 218.915 234.231 218.908 234.166C221.615 230.31 231.756 210.231 234.215 200.162C235.932 193.033 234.23 187.722 227.478 185.059ZM232.047 203.538C225.2 202.66 218.58 200.498 212.536 197.165C215.94 190.719 220.145 183.371 227.086 186.136C234.812 189.206 234.652 195.564 232.047 203.494V203.538ZM207.836 241.368C207.389 240.993 206.901 240.671 206.381 240.407C204.415 239.408 202.143 239.19 200.023 239.796C199.877 238.065 199.048 226.803 199.048 226.701C209.946 230.688 206.585 228.957 217.381 234.326C216.246 235.402 211.983 238.385 207.836 241.339V241.368ZM215.344 199.26C216.763 200.035 218.22 200.739 219.709 201.37C216.374 206.608 213.427 212.084 210.891 217.753C208.447 222.86 208.534 222.831 206.046 228.404C204.591 227.938 203.136 227.502 201.681 227.065C203.253 223.937 214.427 201.064 215.344 199.231V199.26ZM206.614 228.549C211.342 220.067 216.159 209.518 220.291 201.559C221.746 202.17 223.201 202.665 224.656 203.101C223.885 204.556 221.629 208.427 221.033 209.547C220.436 210.667 214.456 222.453 214.034 223.355C213.365 224.81 211.532 228.869 210.964 230.164C209.48 229.51 208.054 229.015 206.556 228.52L206.614 228.549ZM211.488 230.353C212.376 228.738 216.028 221.958 216.479 221.085C217.162 219.732 224.787 204.149 225.209 203.247C226.547 203.625 227.959 203.945 228.861 204.12C226.198 211.395 218.53 225.406 215.766 232.318C213.249 231.139 212.681 230.848 211.43 230.324L211.488 230.353ZM212.376 197.587L214.98 199.042C209.731 207.98 205.16 217.299 201.303 226.92L199.12 226.25C207.574 208.237 207.967 205.88 212.317 197.558L212.376 197.587ZM218.37 233.584L216.173 232.536C218.545 227.88 225.965 215.934 229.355 204.222C230.17 204.367 230.97 204.498 231.742 204.6C228.003 214.577 223.513 224.256 218.312 233.554L218.37 233.584ZM172.785 243.026C173.365 242.546 173.779 241.896 173.97 241.168C174.161 240.439 174.118 239.67 173.847 238.967C173.724 237.953 173.259 237.012 172.529 236.297C171.799 235.583 170.848 235.138 169.832 235.037C168.815 234.935 167.795 235.183 166.938 235.738C166.081 236.294 165.439 237.125 165.117 238.094C163.255 236.886 161.232 235.606 159.297 234.384C160.752 232.449 165.03 233.307 165.466 234.893C165.476 234.955 165.51 235.01 165.56 235.047C165.611 235.084 165.674 235.099 165.736 235.089C165.797 235.08 165.853 235.046 165.889 234.996C165.926 234.945 165.942 234.882 165.932 234.82C165.714 232.289 160.447 230.804 158.322 233.787C156.445 232.638 154.117 231.241 152.168 230.179C153.841 228.724 157.58 229.539 157.988 231.052C158.007 231.104 158.044 231.147 158.092 231.174C158.14 231.201 158.196 231.21 158.25 231.2C158.304 231.189 158.353 231.16 158.388 231.117C158.422 231.074 158.44 231.02 158.439 230.965C158.25 228.607 153.375 227.021 151.164 229.611C150.237 229.092 149.263 228.663 148.254 228.331C148.069 228.254 147.867 228.233 147.671 228.269C147.474 228.305 147.293 228.398 147.148 228.535C143.467 233.118 131.056 245.02 125.323 246.402C125.179 246.424 125.043 246.483 124.929 246.574C124.815 246.665 124.727 246.784 124.674 246.92C124.621 247.056 124.605 247.203 124.626 247.347C124.648 247.491 124.708 247.627 124.799 247.741C126.058 249.018 127.5 250.102 129.077 250.956C127.622 252.411 126.487 253.721 125.643 254.666C125.206 255.132 124.974 264.037 125.352 266.001C125.408 266.193 125.532 266.359 125.701 266.466C127.534 267.718 151.149 277.932 153.564 276.564C155.179 275.648 174.458 255.583 174.764 254.972C175.229 254.012 175.069 247.61 175.04 245.049C174.924 244.278 173.483 243.448 172.785 243.026ZM126.225 262.247V259.002C132.263 261.912 146.086 267.849 151.324 269.507C152.662 269.944 152.779 269.886 153.477 269.507C157.478 266.947 171.606 251.029 174.196 248.599V251.669C166.339 259.541 152.997 273.334 152.75 272.548C151.309 272.461 127.476 262.829 126.225 262.247ZM172.421 238.123C172.944 239.004 173.225 240.008 173.236 241.033C173.231 241.359 173.151 241.68 173.002 241.97C172.853 242.26 172.64 242.512 172.378 242.706C171.155 241.892 168.842 240.378 166.107 238.603C167.605 235.65 170.937 235.606 172.363 238.123H172.421ZM125.861 247.435C132.06 245.602 143.83 234.253 147.788 229.335C148.741 229.6 149.659 229.976 150.523 230.455C149.068 233.162 150.625 236.13 151.178 235.708C151.484 235.475 150.931 235.388 150.844 233.962C150.806 232.92 151.042 231.887 151.527 230.965C153.535 232.012 155.892 233.38 157.886 234.529C156.664 237.25 158.133 239.942 158.642 239.549C159.152 239.156 158.41 239.243 158.322 237.818C158.287 236.882 158.466 235.952 158.846 235.097C160.898 236.304 162.993 237.556 164.913 238.734C164.617 239.459 164.5 240.245 164.571 241.025C164.642 241.804 164.899 242.556 165.321 243.216C165.34 243.24 165.364 243.261 165.391 243.277C165.418 243.293 165.448 243.303 165.479 243.307C165.51 243.311 165.542 243.309 165.572 243.301C165.602 243.292 165.631 243.278 165.655 243.259C165.68 243.24 165.701 243.216 165.717 243.189C165.732 243.162 165.743 243.132 165.747 243.101C165.751 243.07 165.749 243.038 165.74 243.008C165.732 242.978 165.718 242.949 165.699 242.925C165.438 242.347 165.309 241.717 165.321 241.083C165.334 240.449 165.488 239.825 165.772 239.258C169.162 241.324 171.897 243.056 172.741 243.623C172.581 243.769 157.406 257.271 152.24 261.287C148.85 260.399 131.056 251.567 125.861 247.435ZM126.414 255.539C133.005 258.449 147.977 265.201 151.426 265.855C152.022 265.972 152.255 266.015 153.39 265.113C158.235 261.229 173.993 244.743 174.138 244.918C174.145 244.961 174.145 245.006 174.138 245.049V247.959C170.893 250.563 152.851 269.507 152.56 268.605C151.105 268.605 127.462 258.959 126.254 258.42C126.225 257.809 126.356 256.18 126.414 255.539ZM152.91 275.589C151.455 276.419 129.295 267.412 126.327 265.579C126.215 264.652 126.162 263.719 126.167 262.785C132.54 265.928 151.076 273.756 152.779 273.683C155.267 273.552 172.858 253.75 174.109 252.368C174.123 253.111 174.05 253.853 173.891 254.579C173.643 255.059 153.87 275.051 152.91 275.589ZM32.3629 193.571C32.4648 195.128 32.5375 196.481 32.5375 197.747C32.5375 197.94 32.6142 198.125 32.7506 198.261C32.8871 198.398 33.0721 198.474 33.265 198.474C33.458 198.474 33.643 198.398 33.7795 198.261C33.9159 198.125 33.9925 197.94 33.9925 197.747C33.9925 196.394 33.9198 195.055 33.8179 193.469C33.8044 193.276 33.7148 193.097 33.5689 192.97C33.4229 192.843 33.2325 192.779 33.0395 192.793C32.8466 192.806 32.6669 192.896 32.54 193.042C32.4131 193.188 32.3494 193.378 32.3629 193.571ZM254.061 164.398C253.966 164.404 253.873 164.428 253.788 164.47C253.703 164.512 253.626 164.571 253.564 164.643C253.502 164.715 253.454 164.798 253.425 164.889C253.395 164.979 253.384 165.075 253.392 165.169C253.479 166.508 253.567 167.948 253.567 169.345C253.567 169.538 253.643 169.723 253.78 169.86C253.916 169.996 254.101 170.073 254.294 170.073C254.487 170.073 254.672 169.996 254.808 169.86C254.945 169.723 255.022 169.538 255.022 169.345C255.022 167.89 254.934 166.435 254.832 165.068C254.827 164.973 254.802 164.88 254.76 164.794C254.718 164.709 254.66 164.633 254.588 164.57C254.516 164.508 254.432 164.461 254.342 164.431C254.252 164.401 254.156 164.39 254.061 164.398ZM28.5945 189.948C28.7874 189.948 28.9725 189.871 29.1089 189.735C29.2454 189.599 29.322 189.414 29.322 189.221C29.322 189.028 29.2454 188.843 29.1089 188.706C28.9725 188.57 28.7874 188.493 28.5945 188.493C26.8339 188.493 25.3644 188.624 23.9094 188.595C23.7151 188.595 23.5285 188.671 23.3898 188.807C23.251 188.943 23.1712 189.128 23.1674 189.322C23.1674 189.515 23.244 189.7 23.3804 189.837C23.5169 189.973 23.7019 190.05 23.8949 190.05C25.3935 190.079 27.0376 190.021 28.5945 189.948ZM249.551 160.091C247.805 160.091 246.335 160.193 244.866 160.208C244.673 160.208 244.488 160.285 244.351 160.421C244.215 160.557 244.138 160.742 244.138 160.935C244.138 161.128 244.215 161.313 244.351 161.45C244.488 161.586 244.673 161.663 244.866 161.663C246.437 161.663 248.067 161.663 249.638 161.546C249.831 161.535 250.011 161.447 250.14 161.303C250.268 161.158 250.333 160.968 250.322 160.775C250.31 160.582 250.223 160.402 250.078 160.274C249.933 160.145 249.744 160.08 249.551 160.091ZM31.9701 180.956C32.0574 182.295 32.1447 183.735 32.1447 185.132C32.1484 185.324 32.2263 185.507 32.3619 185.642C32.4975 185.778 32.6804 185.856 32.8722 185.86C33.0651 185.86 33.2502 185.783 33.3866 185.646C33.5231 185.51 33.5997 185.325 33.5997 185.132C33.5997 183.677 33.5124 182.222 33.4251 180.854C33.4116 180.661 33.322 180.482 33.176 180.355C33.03 180.228 32.8396 180.164 32.6467 180.178C32.4537 180.191 32.2741 180.281 32.1472 180.427C32.0203 180.573 31.9566 180.763 31.9701 180.956ZM254.629 156.73C254.629 155.275 254.541 153.82 254.44 152.453C254.426 152.26 254.336 152.08 254.19 151.953C254.044 151.826 253.854 151.763 253.661 151.776C253.468 151.79 253.289 151.879 253.162 152.025C253.035 152.171 252.971 152.362 252.985 152.555C253.072 153.893 253.159 155.334 253.159 156.73C253.159 156.923 253.236 157.108 253.372 157.245C253.509 157.381 253.694 157.458 253.887 157.458C254.081 157.458 254.268 157.382 254.406 157.246C254.545 157.11 254.625 156.925 254.629 156.73ZM42.708 189.759C42.8036 189.755 42.8974 189.733 42.9843 189.693C43.0711 189.652 43.1492 189.596 43.2141 189.525C43.2789 189.455 43.3293 189.373 43.3623 189.283C43.3953 189.193 43.4103 189.098 43.4064 189.002C43.3917 188.812 43.3056 188.634 43.1652 188.505C43.0249 188.375 42.8408 188.303 42.6498 188.304C40.8892 188.377 39.4197 188.435 37.9502 188.406C37.7572 188.406 37.5722 188.482 37.4357 188.619C37.2993 188.755 37.2227 188.94 37.2227 189.133C37.2227 189.326 37.2993 189.511 37.4357 189.648C37.5722 189.784 37.7572 189.861 37.9502 189.861C39.507 189.89 41.1366 189.832 42.708 189.759ZM263.664 159.902C262.209 159.975 260.594 160.019 258.979 160.019C258.883 160.015 258.787 160.03 258.697 160.064C258.608 160.098 258.525 160.15 258.456 160.217C258.387 160.284 258.332 160.363 258.294 160.452C258.256 160.54 258.237 160.636 258.237 160.732C258.237 160.926 258.313 161.113 258.449 161.251C258.585 161.39 258.77 161.47 258.965 161.474C260.623 161.474 261.962 161.474 263.722 161.357C263.818 161.354 263.912 161.331 263.999 161.291C264.086 161.251 264.164 161.194 264.229 161.124C264.293 161.054 264.344 160.971 264.377 160.881C264.41 160.792 264.425 160.696 264.421 160.601C264.403 160.412 264.316 160.236 264.176 160.107C264.037 159.978 263.854 159.905 263.664 159.902ZM9.2721 146.647C9.46125 146.793 50.4922 140.711 52.2528 139.634C52.3503 139.563 52.4281 139.468 52.479 139.359C52.5299 139.249 52.5522 139.129 52.5438 139.009C52.5438 137.132 50.0848 119.512 48.9063 115.117C48.7608 114.579 48.6153 114.041 48.2806 113.852C46.0545 112.513 6.8277 119.904 4.48515 121.418C4.42167 121.455 4.36681 121.506 4.32419 121.566C4.28157 121.626 4.25213 121.694 4.2378 121.767C3.7431 123.527 8.00625 145.774 9.2721 146.647ZM5.12535 122.116C7.91895 120.85 43.5228 114.332 47.5968 114.841C48.5862 117.387 51.2343 136.04 51.4089 138.776C49.3864 139.372 9.825 146.167 9.6795 146.196C9.534 146.225 9.51945 146.4 9.2139 145.483C7.9335 141.642 5.0526 125.404 5.12535 122.116Z" fill="url(#paint2_linear_414_4137)"/>
<path d="M55.4538 140.928C55.533 140.781 55.5683 140.615 55.5557 140.448C55.5557 138.135 52.2383 112.454 51.0597 110.402C50.9673 110.251 50.8365 110.127 50.6807 110.043C50.5248 109.958 50.3493 109.917 50.1722 109.922C45.2979 109.326 4.17962 117.357 1.47332 119.234C1.09502 119.496 1.15322 120.151 1.19687 120.849C1.42967 124.676 5.56187 149.847 7.01687 149.702C7.17692 149.702 7.11872 149.585 6.74042 150.357C4.47062 155.027 0.163824 169.985 0.251124 172.996C0.251124 174.262 0.542123 175.906 1.79342 175.819C10.7708 174.713 54.7845 167.729 67.443 165.125C67.9377 165.023 68.2578 164.572 68.2433 163.83C68.0939 162.594 67.7191 161.395 67.1375 160.294C65.3624 156.962 58.0001 143.765 55.4538 140.928ZM7.10417 149.251C5.96927 147.796 1.79342 122.726 2.11352 119.947C5.31452 118.288 45.8799 110.446 50.1285 111.086C51.2925 114.287 54.3044 137.407 54.4935 140.186C49.3428 141.961 13.6808 147.723 7.10417 149.251ZM7.74437 149.687C8.96657 149.382 50.5941 142.412 54.4062 141.408C56.4869 143.344 65.8862 160.062 66.4973 161.487C58.1456 162.942 8.60282 171.221 1.31327 172.327C1.41512 167.918 5.94017 152.51 7.74437 149.687Z" fill="url(#paint3_linear_414_4137)"/>
<path d="M13.2152 164.775C14.4811 164.586 41.3404 161.356 51.0452 158.723C51.105 158.707 51.1563 158.669 51.1876 158.615C51.219 158.562 51.228 158.499 51.2125 158.439C51.1971 158.379 51.1585 158.328 51.1053 158.296C51.0521 158.265 50.9886 158.256 50.9288 158.272C49.0228 158.664 25.7719 161.764 13.1861 164.324C13.1513 164.318 13.1156 164.32 13.0816 164.329C13.0476 164.339 13.0162 164.356 12.9899 164.38C12.9635 164.403 12.9429 164.433 12.9295 164.465C12.9161 164.498 12.9103 164.533 12.9126 164.568C12.9149 164.604 12.9251 164.638 12.9426 164.669C12.9601 164.699 12.9843 164.726 13.0135 164.746C13.0427 164.766 13.076 164.779 13.1109 164.784C13.1459 164.789 13.1815 164.786 13.2152 164.775ZM32.8432 63.5365C32.2996 64.7641 31.8426 66.0281 31.4755 67.3195C31.4538 67.5267 31.5109 67.7345 31.6355 67.9015C33.1051 70.1131 48.1643 87.0929 52.0928 89.4791C52.6312 89.8138 53.2714 90.0466 53.6642 89.5664C56.518 86.0154 60.2423 83.2635 64.4749 81.5785C67.9198 80.3597 71.5315 79.6776 75.1837 79.556C78.0937 79.2941 78.6029 79.0031 79.7233 77.0971C81.0448 74.5886 82.7983 72.3328 84.9031 70.4332C87.5868 68.0866 90.5657 66.1007 93.764 64.5259C93.908 64.4443 94.0205 64.3169 94.0838 64.164C94.1471 64.0111 94.1574 63.8414 94.1132 63.682C93.6213 62.4304 92.971 61.247 92.1781 60.1609C92.7019 59.9863 93.2839 59.8262 93.2839 59.3024C93.2839 57.8474 80.5963 39.4853 77.0752 36.0224C76.7114 35.6587 76.1876 35.1785 75.7075 35.2076C68.4325 35.615 61.3466 42.4826 57.2435 48.4772C52.5439 48.3026 49.5029 47.8807 44.1485 50.1359C40.3685 51.7404 36.9606 54.1082 34.1381 57.0908C33.7016 57.5419 30.7334 60.6847 30.6898 60.932C30.6461 61.1794 30.7334 61.1794 32.8432 63.5365ZM91.0432 63.1291C84.9758 64.1621 81.1055 69.211 78.2537 74.6963C76.9879 77.1407 77.1043 77.2571 75.7657 77.228C73.4249 77.0955 71.0769 77.1831 68.7526 77.4899C67.0477 77.7447 65.3715 78.1638 63.7474 78.7412C60.0517 80.0507 55.8176 84.2411 53.5624 87.3548C53.5144 87.4189 53.4535 87.4721 53.3836 87.5109C53.3137 87.5498 53.2364 87.5734 53.1567 87.5803C53.077 87.5872 52.9968 87.5771 52.9213 87.5508C52.8457 87.5245 52.7766 87.4825 52.7185 87.4276C47.9897 82.5533 39.6235 73.9979 35.4185 69.08C35.2148 68.8618 35.564 68.5417 35.7677 68.7745C38.4886 71.6845 45.5162 78.6539 53.0531 86.2345C55.5994 82.9898 59.5279 79.0613 63.4127 77.6936C65.5311 76.938 67.7355 76.4492 69.9748 76.2386C72.0718 76.0794 74.1779 76.0794 76.2749 76.2386C77.1334 75.2492 81.382 64.0166 91.0141 62.7653C91.0423 62.786 91.0654 62.8128 91.0819 62.8437C91.0983 62.8746 91.1075 62.9088 91.1089 62.9437C91.1103 62.9786 91.1038 63.0135 91.0899 63.0456C91.076 63.0777 91.0551 63.1062 91.0286 63.1291H91.0432ZM75.6929 36.3862C78.6029 38.4232 90.4466 55.9559 91.9889 59.026C89.3127 59.8739 86.7291 60.9903 84.2774 62.3579C81.9558 63.5218 79.923 65.1889 78.3272 67.2377C76.7314 69.2866 75.6127 71.6657 75.0527 74.2016C69.8293 65.7044 62.5397 56.3488 57.6946 49.4666C57.9856 49.2775 66.1627 36.9536 75.6929 36.3862ZM44.4686 50.9362C49.7794 48.7973 52.7185 49.292 57.1126 49.4812C61.4776 56.9308 69.32 67.4359 74.4853 74.318C69.7179 73.1899 64.7012 73.8799 60.4154 76.2532C57.8401 77.7082 54.6973 81.2002 52.7621 83.3681C49.9685 81.1274 33.8471 63.9584 31.2572 61.0484C35.2439 56.5379 38.9251 53.1478 44.4686 50.878V50.9362ZM17.8421 87.9368C17.4825 87.6845 17.0574 87.5419 16.6183 87.5264C16.1792 87.5109 15.7451 87.6231 15.3686 87.8495C15.0944 87.9718 14.847 88.1469 14.6405 88.3648C14.434 88.5827 14.2724 88.8392 14.165 89.1195C14.0576 89.3999 14.0064 89.6986 14.0145 89.9988C14.0225 90.2989 14.0896 90.5945 14.2119 90.8687C14.3342 91.1428 14.5093 91.3903 14.7272 91.5968C14.9451 91.8033 15.2015 91.9649 15.4819 92.0723C15.7622 92.1797 16.061 92.2309 16.3611 92.2228C16.6612 92.2148 16.9568 92.1477 17.231 92.0254C17.669 91.9296 18.0676 91.703 18.3739 91.3755C18.6801 91.048 18.8796 90.6352 18.9459 90.1918C19.0122 89.7483 18.9421 89.2952 18.745 88.8925C18.5479 88.4898 18.233 88.1565 17.8421 87.9368ZM16.8818 90.8468C15.8633 91.1669 15.2522 90.8468 15.0049 90.3521C14.5393 89.3191 15.1213 87.7331 16.6345 88.1987C17.6966 88.5916 18.5551 90.3812 16.8818 90.9196V90.8468ZM91.8289 21.356C92.2508 22.2145 94.215 21.8944 95.0735 21.6179C95.5245 21.4724 95.8155 21.3124 95.8592 20.8759C95.9901 19.7846 96.1357 10.3271 95.641 9.41047C95.5898 9.31435 95.5115 9.23547 95.4157 9.1837C95.3199 9.13193 95.211 9.10959 95.1026 9.11947C93.5502 9.11516 92.0057 9.34071 90.5194 9.78877C89.9228 10.1525 91.3051 20.3957 91.8289 21.356ZM90.8249 10.138C92.1689 9.94569 93.5283 9.88235 94.8844 9.94882C94.9717 11.0255 94.7389 20.3521 94.7243 20.4976C94.1096 20.7179 93.4533 20.7974 92.8037 20.7304C92.7019 20.3957 92.5273 19.4936 92.309 18.3587C91.6679 15.6469 91.1725 12.9028 90.8249 10.138ZM16.4308 75.6566C16.5704 75.7281 16.725 75.7654 16.8818 75.7654C17.0387 75.7654 17.1933 75.7281 17.3329 75.6566C17.895 75.3099 18.3408 74.8033 18.6133 74.2016C18.6503 74.1054 18.6617 74.0011 18.6464 73.8991C18.6311 73.7971 18.5896 73.7008 18.526 73.6196C17.8276 72.7903 10.2034 63.9584 9.27216 64.5113C8.12884 65.2515 7.0441 66.0784 6.02751 66.9848C5.98654 67.0215 5.95371 67.0663 5.93116 67.1164C5.9086 67.1666 5.89681 67.2209 5.89656 67.2758C5.86746 68.0324 14.3356 74.8127 16.4308 75.6566ZM9.44676 64.8896C10.5089 65.6608 14.0882 70.084 17.4056 73.9979C17.2629 74.2227 17.0862 74.4239 16.8818 74.5945C13.394 72.3622 10.0639 69.8925 6.91506 67.2031C7.70442 66.3743 8.55035 65.6013 9.44676 64.8896ZM32.3048 32.7923C32.6249 27.1469 35.9132 24.5279 39.347 23.8586C38.3722 27.4379 38.5322 32.0939 42.0679 32.6905C43.7557 32.9669 44.585 32.0939 45.8072 31.0754C51.0307 26.7104 46.8112 22.3454 40.9184 22.651C43.1155 16.6273 48.1934 11.7239 54.9301 11.5639C54.9918 11.5639 55.051 11.5393 55.0947 11.4957C55.1383 11.452 55.1629 11.3928 55.1629 11.3311C55.1629 11.2693 55.1383 11.2101 55.0947 11.1665C55.051 11.1228 54.9918 11.0983 54.9301 11.0983C47.6551 10.9528 41.9369 16.1908 39.6817 22.7383C35.7968 23.4076 31.9411 26.3176 31.8392 32.705C31.8335 32.7356 31.8338 32.767 31.8402 32.7974C31.8466 32.8279 31.859 32.8568 31.8765 32.8824C31.8941 32.9081 31.9165 32.9301 31.9426 32.9471C31.9686 32.964 31.9978 32.9757 32.0284 32.9815C32.0589 32.9872 32.0903 32.9869 32.1208 32.9805C32.1512 32.9741 32.1801 32.9617 32.2058 32.9442C32.2314 32.9266 32.2534 32.9041 32.2704 32.8781C32.2874 32.852 32.2991 32.8229 32.3048 32.7923ZM40.5838 23.684C42.7517 23.5385 45.9818 24.2078 46.8694 26.1721C47.3786 27.2924 46.8694 28.6747 45.0652 30.1879C44.5753 30.6786 44.0166 31.0952 43.4065 31.4246C41.224 32.3558 38.8087 29.6641 40.5838 23.684ZM44.7451 229.465C43.3393 229.088 41.8725 228.997 40.4308 229.195C38.9892 229.394 37.6019 229.879 36.3505 230.622C35.0992 231.365 34.0091 232.351 33.1444 233.522C32.2797 234.692 31.6578 236.024 31.3154 237.438C30.669 240.377 31.2165 243.452 32.8373 245.987C34.4581 248.521 37.0196 250.309 39.9581 250.955C42.8967 251.601 45.9716 251.054 48.5065 249.433C51.0415 247.812 52.8287 245.251 53.4751 242.312C53.7512 240.895 53.744 239.437 53.454 238.023C53.164 236.608 52.5969 235.265 51.7853 234.071C50.9738 232.876 49.9339 231.854 48.7256 231.064C47.5173 230.273 46.1644 229.73 44.7451 229.465ZM49.241 241.323C48.6572 243.651 47.2596 245.694 45.3009 247.082C43.3421 248.469 40.9515 249.11 38.5613 248.889C36.3672 248.032 34.5456 246.428 33.4172 244.36C32.2888 242.292 31.9258 239.893 32.3921 237.584C32.9365 235.199 34.3212 233.089 36.2928 231.641C38.2645 230.193 40.6915 229.503 43.13 229.697C45.3458 230.613 47.1677 232.281 48.2749 234.407C49.382 236.534 49.7035 238.983 49.1828 241.323H49.241Z" fill="url(#paint4_linear_414_4137)"/>
<path d="M64.1256 233.613C62.8589 233.176 61.5014 233.071 60.1826 233.307C59.6359 232.054 58.9632 230.86 58.1747 229.743C59.1204 228.884 61.7103 226.498 61.0847 225.378C58.858 222.714 56.2145 220.429 53.2568 218.612C52.0217 217.92 50.6617 217.48 49.2555 217.317C48.3243 217.448 46.1127 221.071 45.618 221.886C45.2979 221.886 44.163 221.522 44.0757 221.478C44.0757 220.431 43.7702 216.648 42.8244 216.211C41.7668 215.822 40.6686 215.553 39.5507 215.411C38.5176 215.251 29.2202 216.953 28.5363 218.204C28.0853 219.048 29.1329 222.235 29.4384 223.122C28.6537 223.554 27.9001 224.04 27.1832 224.577C25.7282 225.61 26.121 225.567 25.8591 225.45C25.5426 225.299 25.2034 225.201 24.8552 225.159C23.6929 224.478 22.3301 224.221 20.9994 224.432C19.6608 224.868 16.5035 232.056 15.9942 233.904C15.8276 234.37 15.7825 234.871 15.8633 235.359C16.2125 236.319 18.5405 237.09 19.5153 237.396C19.2461 239.268 19.2461 241.169 19.5153 243.041C18.2349 243.391 15.5723 244.176 15.7178 245.486C15.8633 246.795 19.268 255.438 20.6793 256.122C21.4525 256.554 22.3074 256.82 23.1894 256.903C24.0714 256.986 24.9609 256.883 25.8009 256.602C26.274 256.366 26.7309 256.098 27.1686 255.802C27.7506 256.238 28.3617 256.631 28.9874 257.009C28.5363 258.13 27.5324 260.632 27.8525 261.767C28.0125 262.364 28.4927 262.553 29.162 262.8C31.0098 263.47 40.962 265.856 42.4752 265.594C43.0427 265.507 43.3482 264.91 43.5228 264.343C43.8461 263.051 44.0362 261.73 44.0903 260.399C44.8375 260.326 45.5805 260.214 46.3164 260.065C46.7658 260.856 47.3408 261.568 48.0188 262.175C48.7608 262.698 49.3865 262.436 50.2304 261.898C50.6378 262.422 51.2489 263.149 51.9036 263.222C53.5478 263.411 60.3426 257.009 61.041 255.7C61.623 254.609 59.4987 252.659 58.553 251.8C59.5761 250.261 60.3792 248.586 60.9392 246.824C61.9886 246.982 63.0506 247.041 64.1111 246.999C64.5912 246.999 65.1441 246.824 65.3478 246.373C66.2354 244.351 65.9735 236.683 65.3478 234.733C65.2605 234.166 64.6058 233.788 64.1256 233.613ZM64.4748 234.952C64.9695 236.843 65.1296 243.987 64.4021 245.835C63.1441 245.959 61.8747 245.9 60.6336 245.66C60.5011 245.638 60.3649 245.665 60.2518 245.738C60.1387 245.811 60.0569 245.923 60.0225 246.053C59.4431 248.02 58.5435 249.878 57.3599 251.553C57.2755 251.664 57.2375 251.803 57.2538 251.942C57.2701 252.08 57.3394 252.207 57.4472 252.295C58.468 253.104 59.3354 254.09 60.008 255.205C59.2805 256.398 53.5914 261.607 52.02 262.044C51.7872 262.044 51.147 261.171 50.987 260.938C50.4495 260.13 49.9635 259.29 49.532 258.421C49.469 258.294 49.3609 258.195 49.229 258.144C49.0972 258.093 48.9509 258.093 48.819 258.144C44.5995 259.73 42.999 258.799 42.999 259.847C43.0009 261.415 42.7453 262.973 42.2424 264.459C38.8231 264.087 35.4558 263.336 32.2029 262.218C32.36 260.665 32.7936 259.152 33.4833 257.751C33.9198 256.777 32.1738 257.053 28.9146 253.736C28.8097 253.638 28.672 253.584 28.529 253.584C28.3861 253.584 28.2484 253.638 28.1435 253.736C26.6885 254.929 24.797 256.093 24.4187 255.904C23.6766 255.54 20.2574 247.785 20.0537 246.213C21.0885 245.492 22.2634 244.996 23.502 244.758C23.6341 244.721 23.7482 244.637 23.8231 244.522C23.898 244.407 23.9287 244.269 23.9094 244.133C23.5528 242.072 23.5528 239.966 23.9094 237.905C23.9316 237.778 23.905 237.648 23.8348 237.54C23.7646 237.432 23.6561 237.354 23.5311 237.323C22.4342 237.036 21.3782 236.61 20.3883 236.057C20.0682 235.825 20.0973 235.839 20.1264 235.592C21.0682 232.195 22.5785 228.983 24.5933 226.091C25.379 225.872 27.5033 227.429 28.2308 227.982C28.3068 228.056 28.4086 228.097 28.5145 228.097C28.6204 228.097 28.7222 228.056 28.7982 227.982C29.4668 227.289 30.1866 226.647 30.9516 226.061C33.1632 224.388 33.7598 224.606 33.5706 224.024C32.9017 222.565 32.526 220.988 32.4648 219.383C32.6903 219.196 32.9462 219.048 33.2214 218.947C34.5798 218.409 35.9754 217.972 37.3973 217.637C39.1207 217.157 40.8921 216.869 42.6789 216.779C42.9845 216.91 43.2609 218.234 43.3337 218.641C43.872 221.551 43.5083 222.148 43.9302 222.191C48.077 222.599 48.9209 223.748 49.2119 223.239C50.0187 221.828 50.9591 220.498 52.02 219.267C52.3256 218.961 52.311 218.816 53.2277 219.339C55.9661 221.129 58.4188 223.322 60.5027 225.843C60.7209 226.222 58.8294 228.229 57.4472 229.408C56.967 229.83 57.6509 230.019 58.9022 232.405C60.1535 234.791 59.8625 235.461 60.5318 235.315C61.822 235.006 63.1498 234.884 64.4748 234.952ZM266.414 113.372C263.364 112.126 260.166 111.28 256.899 110.855C254.512 110.476 251.704 110.098 249.333 109.792C251.617 106.562 258.383 98.3852 259.518 96.3919C259.838 95.8535 259.227 95.097 258.776 94.6459C256.244 91.9396 251.355 90.9211 247.601 90.3391C245.448 89.9899 236.456 88.8841 234.928 89.6116C233.095 90.4846 219.534 110.855 219.127 113.954C219.127 114.478 219.301 114.681 219.811 114.87C221.949 115.656 231.596 116.878 233.749 117.388C230.839 122.48 217.905 139.693 216.639 142.123C216.333 142.734 216.522 143.097 216.886 143.214C218.195 143.734 219.543 144.152 220.916 144.465C221.44 144.625 222.59 143.912 224.263 142.894C231.771 138.383 263.984 117.111 266.458 114.361C266.526 114.297 266.58 114.218 266.615 114.131C266.65 114.044 266.666 113.95 266.662 113.856C266.658 113.763 266.634 113.671 266.591 113.587C266.548 113.503 266.488 113.43 266.414 113.372ZM235.146 130.832C222.779 138.994 218.603 141.38 218.457 141.482C220.451 138.441 232.833 121.476 234.957 117.417C234.994 117.338 235.013 117.253 235.013 117.166C235.012 117.079 234.993 116.994 234.955 116.916C234.917 116.837 234.863 116.769 234.795 116.715C234.728 116.66 234.649 116.622 234.564 116.602C233.109 116.078 222.517 114.943 220.014 114.056C220.334 111.349 233.546 90.892 235.146 90.0772C236.747 89.2624 252.272 91.1102 255.182 93.1909C253.654 96.1736 245.215 106.621 243.847 109.05C243.571 109.545 243.483 110.025 244.022 110.156C244.56 110.287 258.237 111.888 261.22 112.862C257.582 115.903 239.22 128.096 235.146 130.774V130.832ZM141.808 41.873C141.808 42.004 141.895 42.164 142.114 43.0079C142.171 43.191 142.297 43.3448 142.465 43.437C142.633 43.5293 142.831 43.5528 143.016 43.5026C143.201 43.4486 143.357 43.3232 143.45 43.1541C143.543 42.9849 143.564 42.7858 143.51 42.6005C143.365 42.0331 143.234 41.5529 143.147 41.3201C143.062 41.1604 142.921 41.0379 142.75 40.9766C142.58 40.9153 142.393 40.9196 142.226 40.9887C142.059 41.0577 141.924 41.1866 141.846 41.3501C141.769 41.5136 141.755 41.7 141.808 41.873Z" fill="url(#paint5_linear_414_4137)"/>
<defs>
<linearGradient id="paint0_linear_414_4137" x1="99.6449" y1="187.184" x2="99.6449" y2="224.357" gradientUnits="userSpaceOnUse">
<stop stop-color="#5E0303"/>
<stop offset="1" stop-color="#8A0202"/>
</linearGradient>
<linearGradient id="paint1_linear_414_4137" x1="149.613" y1="23.9297" x2="149.613" y2="262.861" gradientUnits="userSpaceOnUse">
<stop stop-color="#5E0303"/>
<stop offset="1" stop-color="#8A0202"/>
</linearGradient>
<linearGradient id="paint2_linear_414_4137" x1="134.31" y1="0.316406" x2="134.31" y2="276.69" gradientUnits="userSpaceOnUse">
<stop stop-color="#5E0303"/>
<stop offset="1" stop-color="#8A0202"/>
</linearGradient>
<linearGradient id="paint3_linear_414_4137" x1="34.2468" y1="109.891" x2="34.2468" y2="175.822" gradientUnits="userSpaceOnUse">
<stop stop-color="#5E0303"/>
<stop offset="1" stop-color="#8A0202"/>
</linearGradient>
<linearGradient id="paint4_linear_414_4137" x1="50.941" y1="9.11719" x2="50.941" y2="251.22" gradientUnits="userSpaceOnUse">
<stop stop-color="#5E0303"/>
<stop offset="1" stop-color="#8A0202"/>
</linearGradient>
<linearGradient id="paint5_linear_414_4137" x1="141.187" y1="40.9336" x2="141.187" y2="265.614" gradientUnits="userSpaceOnUse">
<stop stop-color="#5E0303"/>
<stop offset="1" stop-color="#8A0202"/>
</linearGradient>
</defs>
</svg>
