<svg width="339" height="229" viewBox="0 0 339 229" fill="none" xmlns="http://www.w3.org/2000/svg">
<path d="M180.163 158.664C209.208 157.19 235.817 156.523 240.107 158.928C242.317 160.171 245.755 176.501 247.335 187.422C256.256 186.357 267.467 185.377 278.667 184.614C277.004 176.211 275.978 170.947 272.204 162.828C271.633 161.598 273.198 161.101 273.835 162.224C277.616 169.146 280.156 176.677 281.338 184.476C296.502 183.48 311.464 182.878 320.841 182.878C319.776 173.701 313.878 152.554 303.304 141.711C295.153 133.352 279.341 125.913 265.347 124.152C265.129 126.092 264.381 127.934 263.185 129.476C261.989 131.018 260.391 132.201 258.567 132.894C251.09 135.832 237.444 136.604 225.271 129.918C212.429 133.581 188.894 147.557 180.163 158.664Z" fill="url(#paint0_linear_414_4022)"/>
<path d="M336.715 223.981C260.136 225.42 183.903 225.136 107.365 225.223C105.818 225.223 105.468 227.643 107.069 227.671C183.435 229.082 260.711 227.421 337.065 226.485C338.696 226.471 338.337 223.951 336.715 223.981Z" fill="url(#paint1_linear_414_4022)"/>
<path d="M148.162 72.6763C156.024 72.8236 194.337 72.11 198.411 71.9343C199.639 71.8811 199.607 69.7617 198.411 69.7617C192.942 69.7617 156.962 70.4557 148.162 70.9172C147.949 70.946 147.754 71.051 147.613 71.2127C147.471 71.3744 147.393 71.582 147.393 71.7968C147.393 72.0116 147.471 72.2191 147.613 72.3808C147.754 72.5425 147.949 72.6475 148.162 72.6763Z" fill="url(#paint2_linear_414_4022)"/>
<path d="M95.2426 35.8688C98.4216 36.0179 163.154 35.8564 167.013 35.4766C167.561 35.4039 168.062 35.1304 168.42 34.7091C168.778 34.2878 168.967 33.7486 168.95 33.1961C168.933 32.6435 168.711 32.117 168.328 31.7185C167.945 31.32 167.428 31.0778 166.876 31.0391C148.862 31.2627 111.413 31.355 95.3437 31.7065C92.9333 31.7615 92.7309 35.7552 95.2426 35.8688Z" fill="url(#paint3_linear_414_4022)"/>
<path d="M185.854 104.176C181.688 104.176 150.013 103.821 147.77 104.462C147.007 104.682 146.705 105.917 147.621 106.178C150.013 106.865 181.523 106.517 185.874 106.517C190.224 106.517 194.447 106.674 198.707 106.517C200.01 106.47 199.914 104.286 198.622 104.229C194.383 104.041 190.102 104.176 185.854 104.176Z" fill="url(#paint4_linear_414_4022)"/>
<path d="M147.271 120.762C147.002 120.842 146.776 121.025 146.641 121.271C146.506 121.517 146.473 121.806 146.55 122.076C146.916 123.318 145.274 122.892 199.257 123.792C199.555 123.762 199.831 123.622 200.032 123.4C200.232 123.178 200.344 122.889 200.344 122.59C200.344 122.29 200.232 122.002 200.032 121.779C199.831 121.557 199.555 121.418 199.257 121.387C147.47 120.551 150.684 120.498 147.271 120.762Z" fill="url(#paint5_linear_414_4022)"/>
<path d="M198.103 89.9857C198.392 89.9663 198.663 89.8402 198.864 89.6319C199.065 89.4236 199.182 89.148 199.191 88.8587C199.2 88.5694 199.101 88.2871 198.914 88.0666C198.726 87.8461 198.463 87.7033 198.176 87.6658C190.473 87.4528 154.625 87.1546 148.121 88.4503C147.056 88.6616 147.294 90.2129 148.311 90.3034C153.812 90.7987 162.222 88.9509 198.103 89.9857Z" fill="url(#paint6_linear_414_4022)"/>
<path d="M245.449 58.4535C245.544 43.1637 246.254 24.0895 244.971 9.25407C244.936 9.0313 244.819 8.82948 244.644 8.68758C244.469 8.54567 244.247 8.47374 244.022 8.48565C243.796 8.49756 243.584 8.59248 243.424 8.75208C243.265 8.91169 243.17 9.12466 243.159 9.34991C242.742 16.4677 243.134 49.5395 243.159 58.6239C243.162 60.1167 245.44 59.9481 245.449 58.4535Z" fill="url(#paint7_linear_414_4022)"/>
<path d="M13.1217 9.25473C13.1217 7.91993 11.0201 7.67675 11.0023 9.0435C10.303 65.5879 11.2366 131.357 13.9382 187.608C14.0127 189.167 16.4232 188.785 16.3433 187.238C13.4891 127.734 13.04 68.8077 13.1217 9.25473Z" fill="url(#paint8_linear_414_4022)"/>
<path d="M109.453 186.21C99.9159 185.678 22.2543 186.095 19.2244 186.565C19.0003 186.637 18.8065 186.782 18.6733 186.976C18.5402 187.17 18.4751 187.403 18.4882 187.638C18.5014 187.873 18.5921 188.097 18.7462 188.275C18.9003 188.454 19.109 188.576 19.3398 188.622C48.7036 188.706 79.8673 188.473 109.283 188.505C110.713 188.505 110.958 186.299 109.453 186.21Z" fill="url(#paint9_linear_414_4022)"/>
<path d="M231.365 61.3249C225.813 62.3899 220.916 74.5185 227.041 80.1967C230.792 83.6739 248.064 83.8212 258.535 83.3757C258.61 84.6571 258.885 85.919 259.35 87.1156C259.767 88.1806 261.016 88.5179 260.706 86.5973C260.536 85.5035 260.458 84.3973 260.473 83.2905C262.101 83.2198 263.727 83.1015 265.347 82.9355C265.065 85.3006 264.659 87.6492 264.13 89.9716C263.837 91.2443 265.266 91.4821 265.75 90.268C267.236 86.428 267.838 82.3024 267.509 78.198C266.878 69.1509 241.507 59.3759 231.365 61.3249ZM233.113 66.1032C230.559 66.6872 229.956 70.5673 229.723 72.6423C229.324 76.1923 227.061 73.7073 227.604 70.5851C228.019 68.2314 230.03 64.3974 232.964 64.779C233.134 64.7699 233.301 64.8261 233.431 64.9361C233.561 65.0461 233.644 65.2016 233.663 65.3708C233.682 65.54 233.636 65.71 233.534 65.8462C233.432 65.9823 233.281 66.0743 233.113 66.1032Z" fill="#191919"/>
<path d="M252.124 97.8541C253.539 95.4579 254.512 92.827 254.996 90.0867C257.38 90.5186 259.654 91.4239 261.682 92.7492C262.889 93.2693 263.347 91.6842 262.747 91.1925C260.569 89.4172 257.906 88.3391 255.106 88.0987C253.814 85.651 243.991 85.0812 242.475 87.6638C242.104 87.4557 241.693 87.3283 241.27 87.29C240.846 87.2518 240.419 87.3036 240.017 87.442C239.245 85.3226 230.533 84.7919 228.362 87.2396C225.861 86.9645 224.823 89.2738 228.128 89.2525C228.25 91.5465 228.674 93.8144 229.39 95.9975C230.245 97.7476 236.398 97.721 237.622 96.8353C239.08 95.7827 239.742 91.1872 240.155 89.4175C240.755 89.229 241.404 89.2669 241.978 89.524C241.965 91.8966 242.235 94.2622 242.782 96.5708C243.723 98.4416 250.759 99.4658 252.124 97.8541ZM236.95 94.8011C236.66 95.4987 236.399 95.6655 234.067 95.5732C230.126 95.4188 230.952 96.2726 229.745 88.3366C232.521 87.394 235.53 87.394 238.306 88.3366C238.268 90.5579 237.807 92.7517 236.95 94.8011ZM244.367 95.6052C243.927 93.4233 243.771 91.1939 243.9 88.972C246.944 87.8853 250.286 87.9874 253.258 89.2578C253.092 91.0033 252.644 92.7105 251.932 94.313C250.924 96.5193 250.757 96.8086 247.578 96.5495C246.052 96.4252 244.582 96.0862 244.367 95.607V95.6052Z" fill="#191919"/>
<path d="M245.873 94.1846C246.205 95.381 248.535 95.5212 247.992 92.0653C247.681 90.0986 244.909 90.7163 245.873 94.1846Z" fill="#191919"/>
<path d="M266.004 92.7542C259.923 93.2636 256.922 104.404 253.691 105.47C251.433 106.218 246.369 102.969 241.252 102.62C236.135 102.27 233.22 104.432 232.265 103.976C231.31 103.52 231.969 99.5258 231.969 98.594C231.969 97.6621 231.461 97.1527 230.559 99.2081C229.658 101.264 220.864 120.994 224.689 126.303C230.156 133.89 252.466 135.496 259.392 130.278C268.076 123.735 260.686 102.723 262.825 97.2485C263.227 96.466 263.869 95.8323 264.656 95.4396C265.443 95.047 266.335 94.9158 267.202 95.0653C270.128 96.3326 269.324 105.005 264.648 103.647C263.473 103.308 263.207 104.785 264.293 105.355C267.469 107.025 270.586 104.421 271.001 100.057C271.312 96.7515 270.19 92.4045 266.004 92.7542ZM241.791 112.457C237.384 112.457 236.493 110.708 236.122 107.842C239.937 108.662 243.89 108.593 247.674 107.641C247.271 110.261 246.712 112.464 241.791 112.464V112.457Z" fill="#191919"/>
<path d="M239.683 93.8351C238.867 95.7166 238.256 97.6804 237.86 99.6926C237.421 102.08 240.597 102.087 242.386 101.812C243.451 101.649 243.646 100.435 242.48 100.349C241.623 100.285 239.938 100.243 239.779 99.9464C239.925 97.966 240.306 96.0099 240.913 94.1191C241.159 93.3381 240.02 93.0328 239.683 93.8351Z" fill="#191919"/>
<path d="M234.642 94.2654C235.629 93.8891 235.707 91.2319 234.864 90.7367C232.736 89.4729 232.439 95.0961 234.642 94.2654Z" fill="#191919"/>
<path d="M252.007 0.777344C169.917 0.841244 82.7711 0.651321 1.93052 1.34002C0.553117 1.35067 0.521167 4.89002 1.84532 4.89889C83.6817 5.41187 169.874 4.77287 251.922 4.70897C253.395 4.70719 253.427 0.777344 252.007 0.777344Z" fill="#191919"/>
<path d="M158.482 189.732C144.46 188.898 122.739 186.154 109.654 180.536C107.971 179.812 99.6585 181.17 90.2208 176.809C89.2339 176.354 88.8417 177.744 89.7647 178.314C94.5873 181.285 100.679 182.077 106.242 182.256C107.737 182.217 109.219 182.549 110.555 183.22C125.973 188.749 142.21 191.65 158.589 191.802C159.934 191.821 159.891 189.818 158.482 189.732Z" fill="#191919"/>
<path d="M317.907 185.705C317.634 184.21 315.619 184.737 315.872 186.223C316.739 191.556 316.395 197.016 314.865 202.198C311.242 214.824 300.582 212.798 289.91 212.307C278.71 211.792 263.285 210.718 253.608 210.272C253.394 210.244 253.178 210.3 253.005 210.429C252.832 210.558 252.717 210.749 252.683 210.962C252.649 211.175 252.699 211.392 252.823 211.569C252.947 211.745 253.135 211.866 253.347 211.905C262.657 213.384 282.544 214.259 290.292 214.626C300.889 215.131 312.71 216.543 316.656 204.275C318.597 198.282 319.027 191.903 317.907 185.705Z" fill="#191919"/>
<path d="M248.446 192.036C262.159 189.855 275.974 188.367 289.837 187.575C290.061 187.555 290.269 187.449 290.416 187.279C290.564 187.11 290.64 186.89 290.629 186.665C290.618 186.44 290.521 186.228 290.357 186.074C290.194 185.919 289.977 185.834 289.752 185.836C275.794 186.409 261.883 187.824 248.096 190.075C247.836 190.122 247.605 190.27 247.455 190.487C247.304 190.705 247.246 190.973 247.293 191.233C247.34 191.493 247.488 191.724 247.706 191.874C247.923 192.025 248.191 192.083 248.451 192.036H248.446Z" fill="#191919"/>
<path d="M102.448 176.679C102.596 176.678 102.742 176.647 102.878 176.588C103.013 176.53 103.135 176.444 103.237 176.337C103.339 176.23 103.418 176.104 103.47 175.965C103.521 175.827 103.545 175.68 103.538 175.532C103.532 175.385 103.496 175.24 103.432 175.107C103.368 174.974 103.279 174.855 103.168 174.757C103.057 174.659 102.928 174.585 102.788 174.538C102.648 174.491 102.5 174.473 102.353 174.485C95.7638 174.696 92.4393 172.825 88.0905 169.737C87.4018 169.249 86.6705 170.11 87.203 170.802C90.2986 174.893 97.5211 176.871 102.448 176.679Z" fill="#191919"/>
<path d="M113.41 165.444C114.212 166.836 115.894 167.024 117.393 167.363C126.241 169.374 146.488 168.703 155.88 168.593C157.215 168.577 156.945 166.852 155.573 166.864C148.716 166.934 128.021 167.129 117.753 165.233C115.857 164.878 115.955 165.159 114.987 163.636C113.159 160.749 110.433 157.219 107.126 157.16C106.139 157.143 106.061 158.094 106.902 158.517C109.824 159.982 112.13 162.437 113.41 165.444Z" fill="#191919"/>
<path d="M107.552 165.837C102.969 164.491 96.4919 162.333 92.9294 157.73C91.8644 156.349 90.9592 157.423 91.4881 158.536C93.7069 163.208 101.829 167.411 106.492 167.589C109.071 167.697 108.354 166.071 107.552 165.837Z" fill="#191919"/>
<path d="M88.9909 162.216C88.8445 162.038 88.6355 161.922 88.4067 161.894C88.178 161.865 87.9469 161.925 87.761 162.061C87.5751 162.198 87.4485 162.4 87.4072 162.627C87.3659 162.854 87.4131 163.088 87.539 163.281C89.2309 165.708 91.4281 167.741 93.9798 169.239C96.5314 170.737 99.377 171.665 102.321 171.959C102.553 171.967 102.781 171.899 102.971 171.766C103.161 171.632 103.302 171.44 103.373 171.219C103.443 170.998 103.44 170.76 103.363 170.541C103.286 170.322 103.139 170.134 102.946 170.006C101.389 169.335 94.7721 168.904 88.9909 162.216Z" fill="#191919"/>
<path d="M293.334 216.521C290.155 216.107 253.28 216.924 251.572 216.224C249.865 215.525 241.032 165.223 238.725 161.918C236.417 158.613 163.733 160.709 160.428 162.618C157.123 164.526 168.037 221.982 170.865 223.145C173.387 224.18 289.545 222.742 293.34 222.542C297.135 222.341 296.513 216.934 293.334 216.521ZM201.758 199.99C191.842 200.816 188.734 184.548 198.643 182.931C203.347 182.162 207.492 186.333 208.37 191.47C208.553 192.471 208.523 193.5 208.281 194.488C208.039 195.477 207.592 196.403 206.968 197.207C206.344 198.011 205.558 198.675 204.66 199.154C203.762 199.634 202.774 199.919 201.758 199.99Z" fill="#191919"/>
<path d="M55.3385 78.1372C54.8044 71.1822 57.7811 64.035 60.7123 61.0387C63.7377 58.2131 67.6877 56.5846 71.8255 56.4573C75.9632 56.3299 80.0059 57.7124 83.1993 60.3466C87.4614 64.0691 90.2245 69.2144 90.9735 74.8234C91.291 76.1554 92.4391 79.5214 87.8795 79.8292C87.5538 79.852 86.6207 79.0296 86.4904 78.7772C85.1876 76.2515 84.9711 73.3399 83.8702 70.7279C82.5685 67.3943 80.0804 64.6597 76.8843 63.0498C75.283 62.2795 73.5023 61.9597 71.7331 62.1247C69.9639 62.2896 68.273 62.9331 66.8417 63.9862C64.2218 66.3384 62.517 69.5404 62.0281 73.0272C60.5397 82.5242 64.2525 89.2529 65.197 89.6584C65.7323 89.8429 66.3008 89.9111 66.8645 89.8587C71.3427 89.7496 89.1496 89.0445 93.3884 89.1308C93.8379 89.1406 94.8394 89.2936 95.1211 90.0753C96.1356 92.8827 95.5608 99.6993 95.5054 100.396C95.2888 103.083 93.6425 101.342 90.8904 103.073C81.6898 101.934 78.4704 101.476 76.7231 101.981C76.3623 102.067 76.023 102.227 75.726 102.449C75.4289 102.672 75.1803 102.952 74.9953 103.274C74.7565 103.964 74.7956 104.72 75.1044 105.382C75.4132 106.044 75.9674 106.56 76.6498 106.82C77.9851 107.413 79.5924 107.6 80.6671 108.179C80.5759 109.97 80.7893 110.651 80.7013 112.448C80.646 112.901 80.6904 113.36 80.8316 113.793C80.9895 114.108 81.2245 114.377 81.5147 114.577C81.8048 114.776 82.1407 114.899 82.491 114.933C83.1925 114.993 83.8991 114.933 84.5802 114.754C84.5623 112.512 84.9365 110.285 85.686 108.172C87.0392 108.398 88.5536 108.947 89.9068 109.174C90.0697 109.209 88.7197 113.679 88.9721 115.485C89.0633 116.125 90.1381 115.951 90.2423 116.081C91.8235 118.088 92.4277 118.498 93.5203 118.763C94.7482 119.063 94.9354 119.62 95.1651 121.092C96.7935 131.468 86.2966 140.84 75.492 141.027C69.4375 141.136 58.9552 141.027 51.3684 130.084C49.6406 127.705 48.6752 124.858 48.6 121.919C48.7946 121.215 49.1176 120.552 49.5527 119.965C52.1696 117.464 54.2198 115.295 53.8664 110.721C53.5749 106.925 52.0214 103.49 48.3997 102.811C48.0871 102.756 47.3722 101.679 47.325 101.362C46.802 98.0051 46.7243 94.594 47.0937 91.2168C47.2366 90.9544 47.4574 90.7427 47.7256 90.611C49.766 90.1762 54.9249 90.4759 56.9523 90.0932C57.1467 89.8904 57.2957 89.6487 57.3895 89.3839C57.4832 89.1191 57.5196 88.8375 57.4962 88.5576C56.2958 85.2014 55.5696 81.6941 55.3385 78.1372Z" fill="url(#paint10_linear_414_4022)"/>
<path d="M116.311 87.436C116.125 90.4942 114.26 127.416 115.018 130.414C115.043 130.498 115.096 130.572 115.166 130.624C115.237 130.677 115.323 130.705 115.412 130.705C115.5 130.705 115.586 130.677 115.657 130.624C115.728 130.572 115.78 130.498 115.806 130.414C116.679 127.569 116.705 91.0397 116.659 87.436C116.659 87.3898 116.641 87.3454 116.608 87.3128C116.575 87.2801 116.531 87.2617 116.485 87.2617C116.439 87.2617 116.394 87.2801 116.362 87.3128C116.329 87.3454 116.311 87.3898 116.311 87.436Z" fill="#191919"/>
<path d="M78.016 102.509C80.3384 102.217 82.6942 102.335 84.9759 102.858C95.7024 104.18 106.385 106.94 113.258 106.471C113.511 106.453 113.612 106.056 113.32 106.001C108.557 105.092 103.657 104.944 98.8697 104.12C94.2856 103.333 89.7195 102.428 85.111 101.814C82.7595 101.274 80.342 101.08 77.9345 101.238C77.4636 100.571 76.8222 100.043 76.0774 99.7084C75.3327 99.3741 74.5118 99.2459 73.7006 99.3372C68.2242 99.3714 67.0501 105.309 69.1084 108.816C69.7589 109.925 70.5837 110.922 71.5511 111.769C71.749 111.938 71.8901 112.164 71.9554 112.416C72.0206 112.669 72.0068 112.935 71.9159 113.179C71.2987 114.832 69.9145 118.492 68.7827 121.034C68.7358 121.14 68.7156 121.255 68.7238 121.37C68.7321 121.485 68.7687 121.596 68.8302 121.693C68.8917 121.791 68.9764 121.872 69.0766 121.929C69.1768 121.985 69.2896 122.017 69.4048 122.02C72.6031 122.106 75.9381 122.231 79.1282 122.163C79.24 122.16 79.3494 122.13 79.4473 122.076C79.5452 122.022 79.6287 121.945 79.6907 121.852C79.7526 121.759 79.7913 121.653 79.8033 121.541C79.8154 121.43 79.8005 121.318 79.76 121.214C78.6706 118.401 78.0583 115.776 76.9428 113.06C76.8384 112.812 76.8168 112.538 76.8814 112.277C76.946 112.016 77.0932 111.783 77.3011 111.612C77.8092 111.17 78.2108 110.619 78.4762 110C78.7415 109.381 78.8636 108.711 78.8334 108.038C81.4389 109.031 78.5501 112.829 79.5418 114.659C80.1117 115.716 82.9061 116.151 83.9597 115.895C85.8471 115.436 85.3309 110.616 85.9448 109.591C86.3242 108.951 88.9965 109.784 89.0925 109.953C89.0484 110.467 88.9446 110.974 88.7832 111.464C88.5177 112.93 87.3176 115.563 89.1577 116.226C89.8578 116.339 90.5655 116.398 91.2747 116.403C91.8189 116.573 92.3785 116.689 92.9454 116.748C94.7709 116.608 94.3394 113.799 94.639 112.373C95.0608 110.336 96.1143 110.871 97.7688 111.181C102.73 112.288 107.743 113.145 112.789 113.749C113.477 113.806 113.648 112.635 112.952 112.531C108.881 111.915 104.864 111.319 100.843 110.432C98.9344 109.807 96.9595 109.405 94.9582 109.235C93.7482 109.287 93.6912 110.166 93.4926 111.225C93.4663 112.435 93.2711 113.636 92.9128 114.793C92.408 115.547 91.6769 115.118 90.8643 115.047C88.9183 114.872 89.6316 113.918 89.6755 113.653C89.853 112.586 90.9164 109.841 89.941 108.943C88.6572 108.373 87.274 108.061 85.8699 108.025C85.1811 108.129 85.072 108.469 84.8733 109.065C84.6426 109.953 84.4605 110.852 84.3278 111.759C84.2105 112.313 84.4597 114.993 82.3004 114.364C81.0856 113.886 80.9325 113.713 80.7892 112.394C80.6459 111.075 81.3901 109.655 81.2337 108.359C81.1165 107.365 80.8201 107.274 79.8235 107.04C78.7536 106.787 77.4981 106.9 76.6025 106.147C74.8079 104.643 76.3875 102.928 78.016 102.509Z" fill="#191919"/>
<defs>
<linearGradient id="paint0_linear_414_4022" x1="250.502" y1="124.152" x2="250.502" y2="187.422" gradientUnits="userSpaceOnUse">
<stop stop-color="#5E0303"/>
<stop offset="1" stop-color="#8A0202"/>
</linearGradient>
<linearGradient id="paint1_linear_414_4022" x1="222.074" y1="223.98" x2="222.074" y2="228.217" gradientUnits="userSpaceOnUse">
<stop stop-color="#5E0303"/>
<stop offset="1" stop-color="#8A0202"/>
</linearGradient>
<linearGradient id="paint2_linear_414_4022" x1="173.357" y1="69.7617" x2="173.357" y2="72.6962" gradientUnits="userSpaceOnUse">
<stop stop-color="#5E0303"/>
<stop offset="1" stop-color="#8A0202"/>
</linearGradient>
<linearGradient id="paint3_linear_414_4022" x1="131.198" y1="31.0391" x2="131.198" y2="35.9239" gradientUnits="userSpaceOnUse">
<stop stop-color="#5E0303"/>
<stop offset="1" stop-color="#8A0202"/>
</linearGradient>
<linearGradient id="paint4_linear_414_4022" x1="173.347" y1="104.078" x2="173.347" y2="106.606" gradientUnits="userSpaceOnUse">
<stop stop-color="#5E0303"/>
<stop offset="1" stop-color="#8A0202"/>
</linearGradient>
<linearGradient id="paint5_linear_414_4022" x1="173.426" y1="120.621" x2="173.426" y2="123.792" gradientUnits="userSpaceOnUse">
<stop stop-color="#5E0303"/>
<stop offset="1" stop-color="#8A0202"/>
</linearGradient>
<linearGradient id="paint6_linear_414_4022" x1="173.309" y1="87.4766" x2="173.309" y2="90.3896" gradientUnits="userSpaceOnUse">
<stop stop-color="#5E0303"/>
<stop offset="1" stop-color="#8A0202"/>
</linearGradient>
<linearGradient id="paint7_linear_414_4022" x1="244.349" y1="8.48437" x2="244.349" y2="59.6626" gradientUnits="userSpaceOnUse">
<stop stop-color="#5E0303"/>
<stop offset="1" stop-color="#8A0202"/>
</linearGradient>
<linearGradient id="paint8_linear_414_4022" x1="13.5621" y1="8.12891" x2="13.5621" y2="188.605" gradientUnits="userSpaceOnUse">
<stop stop-color="#5E0303"/>
<stop offset="1" stop-color="#8A0202"/>
</linearGradient>
<linearGradient id="paint9_linear_414_4022" x1="64.4804" y1="185.961" x2="64.4804" y2="188.641" gradientUnits="userSpaceOnUse">
<stop stop-color="#5E0303"/>
<stop offset="1" stop-color="#8A0202"/>
</linearGradient>
<linearGradient id="paint10_linear_414_4022" x1="71.2911" y1="56.4492" x2="71.2911" y2="141.044" gradientUnits="userSpaceOnUse">
<stop stop-color="#5E0303"/>
<stop offset="1" stop-color="#8A0202"/>
</linearGradient>
</defs>
</svg>
