<svg width="317" height="294" viewBox="0 0 317 294" fill="none" xmlns="http://www.w3.org/2000/svg">
<path d="M141.417 35.5599C141.476 35.4436 141.505 35.3142 141.501 35.1837C141.497 35.0532 141.46 34.9258 141.394 34.8135C141.327 34.7012 141.233 34.6076 141.12 34.5414C141.008 34.4752 140.88 34.4386 140.75 34.435C33.2977 34.2956 48.1333 35.0592 44.9268 35.0592C43.9219 35.0592 45.8778 89.855 46.1378 106.739C46.1378 106.907 46.5958 107.531 46.9303 107.531C53.7299 107.511 83.9733 107.449 86.8517 106.573C86.93 106.552 86.9994 106.507 87.0489 106.442C87.0984 106.378 87.1252 106.3 87.1252 106.219C87.1252 106.138 87.0984 106.059 87.0489 105.995C86.9994 105.931 86.93 105.885 86.8517 105.865C84.0161 105.114 54.188 105.865 47.6815 105.99C47.4311 94.2293 46.1378 38.3958 45.5957 35.9353C49.1413 36.5611 124.105 36.1445 139.916 36.0605C139.873 47.2364 140.019 80.5106 140.041 86.0161C140.052 88.9345 139.791 100.527 140.458 103.111C140.478 103.189 140.524 103.259 140.588 103.308C140.652 103.358 140.731 103.385 140.812 103.385C140.893 103.385 140.972 103.358 141.036 103.308C141.1 103.259 141.146 103.189 141.166 103.111C141.751 100.438 141.458 46.8609 141.417 35.5599Z" fill="url(#paint0_linear_414_4151)"/>
<path d="M140.332 103.653C136.785 103.812 121.227 104.528 119.683 105.113C119.634 105.121 119.587 105.141 119.546 105.17C119.505 105.199 119.471 105.237 119.447 105.281C119.423 105.325 119.409 105.374 119.407 105.424C119.404 105.474 119.413 105.524 119.433 105.57C119.856 106.838 136.687 105.379 140.332 105.195C141.333 105.146 141.333 103.606 140.332 103.653Z" fill="url(#paint1_linear_414_4151)"/>
<path d="M261.1 35.7694C261.059 47.0276 260.942 101.11 261.601 103.696C261.623 103.773 261.669 103.842 261.733 103.89C261.797 103.939 261.875 103.965 261.955 103.965C262.036 103.965 262.114 103.939 262.178 103.89C262.242 103.842 262.288 103.773 262.31 103.696C262.978 101.069 262.685 46.9025 262.644 35.6014C262.769 34.5178 262.102 34.2674 261.309 34.185C169.573 33.9426 166.113 34.597 166.113 35.0596C165.529 37.6864 167.343 94.4721 167.531 106.489C167.531 106.657 167.989 107.281 168.324 107.281C174.29 107.281 202.324 106.869 203.49 106.407C203.567 106.379 203.634 106.328 203.681 106.261C203.729 106.194 203.754 106.113 203.754 106.031C203.754 105.949 203.729 105.869 203.681 105.802C203.634 105.735 203.567 105.684 203.49 105.656C202.365 105.196 174.791 105.572 169.116 105.697C168.866 93.9382 167.573 38.1047 167.03 35.6442C170.576 36.2732 245.374 35.8518 261.1 35.7694Z" fill="url(#paint2_linear_414_4151)"/>
<path d="M262.102 104.491C258.093 104.65 240.313 103.477 241.036 105.283C241.054 105.342 241.086 105.396 241.129 105.44C241.173 105.484 241.227 105.516 241.286 105.534C242.828 105.95 258.512 106.213 262.102 106.034C263.11 105.987 263.11 104.453 262.102 104.491Z" fill="url(#paint3_linear_414_4151)"/>
<path d="M41.3399 186.549C38.8133 185.661 36.172 185.142 33.4974 185.007C33.6226 182.754 33.8318 180.504 33.873 178.293C33.8671 178.167 33.8168 178.047 33.731 177.955C33.6453 177.863 33.5296 177.804 33.4045 177.789C33.2795 177.774 33.1531 177.804 33.048 177.873C32.9428 177.942 32.8656 178.047 32.8301 178.167C32.4041 180.411 32.1393 182.683 32.0376 184.964C29.5346 184.862 27.0279 184.89 24.5278 185.048C24.3841 185.048 24.2462 185.105 24.1445 185.207C24.0429 185.308 23.9858 185.446 23.9858 185.59C23.9858 185.734 24.0429 185.872 24.1445 185.973C24.2462 186.075 24.3841 186.132 24.5278 186.132C27.005 186.076 29.4835 186.146 31.9536 186.341C31.7292 188.786 31.7851 191.248 32.12 193.68C32.2405 194.348 33.174 194.098 33.2469 193.513C33.4265 191.169 33.482 188.816 33.4134 186.466C36.0001 186.758 38.5456 187.417 41.1307 187.716C41.2694 187.711 41.4021 187.659 41.5069 187.568C41.6117 187.477 41.6822 187.353 41.7067 187.217C41.7312 187.08 41.7081 186.939 41.6414 186.818C41.5746 186.696 41.4683 186.601 41.3399 186.549Z" fill="url(#paint4_linear_414_4151)"/>
<path d="M288.925 129.173C286.967 127.465 284.837 125.962 282.876 124.252C284.587 122.668 286.492 121.155 288.05 119.415C288.462 118.954 287.925 118.165 287.381 118.541C285.346 119.894 283.483 121.49 281.834 123.294C280.012 121.595 278.299 119.785 276.703 117.874C276.246 117.329 275.5 118.075 275.952 118.623C277.48 120.478 279.08 122.417 280.875 124.252C279.235 125.833 277.715 127.534 276.327 129.339C275.948 129.838 276.739 130.377 277.161 129.965C278.768 128.401 280.331 126.797 281.916 125.212C283.824 127.1 285.987 128.714 288.34 130.006C288.45 130.064 288.578 130.08 288.699 130.05C288.82 130.021 288.927 129.948 288.998 129.846C289.07 129.744 289.102 129.62 289.088 129.496C289.075 129.372 289.017 129.257 288.925 129.173Z" fill="url(#paint5_linear_414_4151)"/>
<path d="M41.1308 167.538C40.733 166.55 39.9875 165.742 39.0349 165.265C38.0822 164.789 36.9882 164.678 35.9589 164.952C34.9289 165.255 34.0571 165.946 33.5277 166.88C32.9983 167.813 32.8527 168.916 33.1218 169.955C33.1583 170.092 33.2426 170.212 33.3596 170.292C33.4766 170.373 33.6184 170.408 33.7595 170.393C33.9007 170.378 34.0317 170.313 34.129 170.21C34.2263 170.106 34.2834 169.972 34.2899 169.83C34.3533 165.779 38.3 165.495 39.671 167.913C39.9411 168.545 39.9848 169.252 39.7949 169.912C39.6049 170.573 39.1928 171.149 38.6281 171.541C37.9524 171.931 37.1535 172.049 36.3939 171.871C35.6344 171.692 34.9715 171.231 34.5404 170.581C34.1679 170.038 33.2549 170.535 33.6226 171.123C34.1525 172.02 34.9889 172.696 35.9777 173.025C36.9665 173.355 38.0412 173.316 39.0037 172.916C39.9353 172.414 40.6595 171.599 41.0486 170.615C41.4378 169.631 41.4669 168.541 41.1308 167.538Z" fill="url(#paint6_linear_414_4151)"/>
<path d="M32.6209 104.488C29.84 100.1 26.5341 96.0671 22.7764 92.4789C22.6944 92.3933 22.591 92.3312 22.477 92.2988C22.3629 92.2664 22.2423 92.265 22.1276 92.2947C22.0128 92.3244 21.908 92.3841 21.824 92.4677C21.74 92.5513 21.6797 92.6558 21.6495 92.7704C20.9458 97.3174 18.0627 101.611 18.0199 106.237C18.0283 106.351 18.0755 106.458 18.1537 106.54C18.2319 106.623 18.3363 106.676 18.4491 106.691C18.562 106.706 18.6764 106.681 18.7732 106.621C18.87 106.561 18.9432 106.47 18.9804 106.362C20.1897 102.402 21.8999 98.3979 22.7352 94.3119C25.7847 97.3431 28.5108 100.683 30.8694 104.277C26.5725 104.987 22.3945 106.232 18.0627 106.906C17.5602 106.983 17.6442 107.896 18.1879 107.823C22.8081 107.197 27.365 106.03 31.9948 105.488C32.9125 105.447 32.6637 104.613 32.6209 104.488Z" fill="url(#paint7_linear_414_4151)"/>
<path d="M294.515 202.856C290.803 201.731 286.964 201.19 283.252 200.147C283.137 200.117 283.016 200.118 282.901 200.149C282.786 200.18 282.681 200.241 282.596 200.325C282.512 200.409 282.451 200.514 282.419 200.629C282.388 200.744 282.387 200.865 282.417 200.98C283.104 205.217 284.324 209.35 286.047 213.281C286.262 213.779 286.971 213.66 287.215 213.281C289.266 210.101 292.805 207.693 294.265 204.192C294.3 204.112 294.306 204.024 294.283 203.94C294.261 203.856 294.21 203.783 294.14 203.732C294.256 203.782 294.387 203.784 294.504 203.737C294.622 203.69 294.716 203.598 294.766 203.482C294.815 203.366 294.817 203.235 294.77 203.117C294.723 203 294.631 202.906 294.515 202.856ZM293.472 203.732C291.103 206.205 288.875 208.808 286.798 211.53C285.519 208.355 284.568 205.057 283.961 201.689C287.173 202.44 290.469 202.815 293.681 203.607C293.597 203.648 293.513 203.648 293.472 203.739V203.732Z" fill="url(#paint8_linear_414_4151)"/>
<path d="M300.063 106.446C299.671 105.454 298.926 104.642 297.972 104.164C297.017 103.687 295.92 103.579 294.891 103.86C293.861 104.164 292.989 104.855 292.46 105.789C291.93 106.723 291.785 107.826 292.054 108.865C292.092 109.001 292.177 109.118 292.294 109.197C292.41 109.275 292.551 109.31 292.691 109.295C292.831 109.28 292.961 109.216 293.058 109.115C293.155 109.013 293.213 108.881 293.222 108.74C293.161 108.07 293.303 107.397 293.63 106.809C293.958 106.221 294.455 105.746 295.058 105.445C295.715 105.205 296.437 105.212 297.09 105.465C297.742 105.719 298.28 106.201 298.603 106.822C298.873 107.454 298.917 108.16 298.727 108.821C298.537 109.482 298.125 110.057 297.56 110.45C296.885 110.84 296.086 110.958 295.326 110.779C294.567 110.601 293.904 110.14 293.473 109.49C293.1 108.946 292.214 109.453 292.555 110.033C293.071 110.947 293.908 111.636 294.904 111.967C295.9 112.298 296.983 112.248 297.944 111.825C298.899 111.348 299.645 110.535 300.036 109.542C300.427 108.549 300.437 107.446 300.063 106.446Z" fill="url(#paint9_linear_414_4151)"/>
<path d="M109.999 46.4453V60.1641H125.898C126.384 63.5873 125.645 67.0722 123.812 70.0043C118.74 77.5157 104.475 79.9191 97.8658 72.0893C95.7488 69.328 94.5945 65.9497 94.5793 62.4707C94.5641 58.9918 95.6889 55.6036 97.7818 52.8238C99.268 50.9759 101.121 49.4553 103.223 48.3576C105.326 47.2599 107.633 46.6088 109.999 46.4453Z" fill="black"/>
<path d="M230.272 45.5234V60.1183L238.907 48.4022C239.408 48.7349 247.72 54.2816 247.293 62.5027C246.803 71.9279 235.068 80.0619 225.308 76.5558C212.073 71.7949 208.513 47.8144 230.272 45.5234Z" fill="black"/>
<path d="M75.4634 72.2965C74.495 67.6592 68.6146 49.292 66.9123 44.8163C66.7538 44.3964 65.4858 44.3552 65.3685 44.6578C63.633 48.8848 58.8954 66.7656 57.8176 71.2192C57.7786 71.3849 57.8045 71.5593 57.8899 71.7066C57.9754 71.8539 58.114 71.9629 58.2773 72.0113C58.4317 72.0484 58.5945 72.0261 58.7333 71.949C58.8721 71.8718 58.9769 71.7454 59.027 71.5947C60.0045 68.3454 60.9223 65.0785 61.7801 61.7956C64.7835 62.2181 67.8445 61.9177 70.7084 60.9194C71.8464 64.9084 73.1972 68.8337 74.7549 72.6783C74.9197 73.0475 75.5506 72.7116 75.4634 72.2965ZM62.0305 60.7451C63.14 56.2837 64.8835 51.3691 65.9106 45.9839C67.1136 50.2711 68.6606 54.6074 70.3328 59.6187C68.0805 60.7451 63.0735 60.6612 62.0305 60.7451Z" fill="url(#paint10_linear_414_4151)"/>
<path d="M189.433 54.286C190.431 53.2421 190.984 51.8514 190.975 50.4075C190.975 44.7784 182.549 45.1539 179.004 46.2376C178.961 46.2376 178.544 46.5703 178.544 46.8634C178.544 50.6151 178.693 65.2559 179.295 68.6717C179.376 69.1312 180.004 68.9632 180.046 68.5877C180.254 65.0024 180.046 56.9128 180.046 56.4945C181.484 56.8754 182.987 56.9461 184.454 56.7019C185.921 56.4577 187.32 55.9042 188.556 55.0781C192.102 56.1618 193.105 60.7485 192.227 63.9599C190.937 68.6717 185.253 68.8523 181.465 67.6704C180.673 67.4233 180.384 68.5782 181.131 68.8793C185.619 70.6949 192.367 69.3831 193.521 64.0011C194.162 61.0416 193.061 55.1605 189.433 54.286ZM180.046 55.7024C180.046 52.9504 180.046 50.1572 179.837 47.4052C183.007 46.8206 190.154 46.114 189.599 50.9494C189.068 55.5788 183.676 55.9955 180.046 55.7024Z" fill="url(#paint11_linear_414_4151)"/>
<path d="M76.923 78.4276C74.0874 77.8445 61.6562 78.3658 58.4434 78.3864C58.2997 78.3864 58.1618 78.4435 58.0601 78.5451C57.9585 78.6467 57.9014 78.7845 57.9014 78.9282C57.9014 79.0719 57.9585 79.2098 58.0601 79.3114C58.1618 79.413 58.2997 79.4701 58.4434 79.4701C61.6562 79.4495 74.2126 79.554 76.923 78.9282C76.9744 78.9096 77.019 78.8756 77.0504 78.8308C77.0819 78.786 77.0987 78.7326 77.0987 78.6779C77.0987 78.6232 77.0819 78.5698 77.0504 78.525C77.019 78.4802 76.9744 78.4462 76.923 78.4276Z" fill="url(#paint12_linear_414_4151)"/>
<path d="M76.9234 85.1827C74.0879 84.5997 61.6567 85.1003 58.4439 85.1415C58.3177 85.1586 58.202 85.2208 58.1182 85.3166C58.0345 85.4125 57.9883 85.5355 57.9883 85.6627C57.9883 85.79 58.0345 85.913 58.1182 86.0088C58.202 86.1047 58.3177 86.1669 58.4439 86.184C61.9357 86.1808 79.3041 86.3725 76.9234 85.1827Z" fill="url(#paint13_linear_414_4151)"/>
<path d="M58.4025 91.9377C58.2763 91.9548 58.1606 92.017 58.0768 92.1128C57.993 92.2087 57.9468 92.3317 57.9468 92.4589C57.9468 92.5862 57.993 92.7092 58.0768 92.805C58.1606 92.9009 58.2763 92.9631 58.4025 92.9802C61.1144 92.9596 71.5421 93.0214 73.9196 92.4795C73.9526 92.4688 73.983 92.4516 74.0093 92.4291C74.0356 92.4065 74.0572 92.379 74.0728 92.3481C74.0884 92.3171 74.0977 92.2835 74.1003 92.2489C74.1028 92.2144 74.0985 92.1797 74.0876 92.1468C74.0876 91.3974 59.1807 91.9139 58.4025 91.9377Z" fill="url(#paint14_linear_414_4151)"/>
<path d="M197.65 78.4276C194.812 77.8445 182.381 78.3658 179.168 78.3864C179.025 78.3864 178.887 78.4435 178.785 78.5451C178.683 78.6467 178.626 78.7845 178.626 78.9282C178.626 79.0719 178.683 79.2098 178.785 79.3114C178.887 79.413 179.025 79.4701 179.168 79.4701C183.893 79.44 200.128 79.6665 197.65 78.4276Z" fill="url(#paint15_linear_414_4151)"/>
<path d="M179.17 85.1404C179.044 85.1575 178.928 85.2197 178.844 85.3156C178.761 85.4114 178.714 85.5344 178.714 85.6617C178.714 85.789 178.761 85.9119 178.844 86.0078C178.928 86.1036 179.044 86.1659 179.17 86.1829C182.383 86.1829 194.861 86.3081 197.651 85.6411C197.717 85.6183 197.772 85.5705 197.803 85.508C197.834 85.4455 197.839 85.3732 197.818 85.3068C197.05 84.5416 182.261 85.1008 179.17 85.1404Z" fill="url(#paint16_linear_414_4151)"/>
<path d="M194.689 91.9788C192.311 91.5209 181.882 91.8536 179.17 91.9376C179.044 91.9547 178.928 92.0169 178.844 92.1128C178.761 92.2086 178.714 92.3316 178.714 92.4589C178.714 92.5861 178.761 92.7091 178.844 92.805C178.928 92.9008 179.044 92.963 179.17 92.9801C181.882 92.9595 192.311 93.0213 194.689 92.4795C194.741 92.4616 194.786 92.4279 194.818 92.383C194.85 92.3381 194.868 92.2843 194.868 92.2291C194.868 92.174 194.85 92.1202 194.818 92.0753C194.786 92.0304 194.741 91.9967 194.689 91.9788Z" fill="url(#paint17_linear_414_4151)"/>
<path d="M37.6691 246.183C39.6472 253.262 25.0287 251.253 18.8076 251.27C17.8899 251.27 18.5651 250.573 19.2245 250.103C20.8729 248.924 28.4428 246.181 31.9045 244.64C32.6542 244.305 31.9916 243.233 31.2784 243.556C28.9992 244.589 19.4749 248.021 17.7631 249.645C14.6787 252.568 20.9331 252.78 22.4341 252.772C26.3554 252.75 30.6507 253.221 34.5324 252.479C38.0765 251.804 39.9135 249.477 38.8293 245.891C38.8184 245.807 38.7897 245.726 38.7452 245.654C38.7007 245.581 38.6413 245.519 38.571 245.471C38.5007 245.423 38.4211 245.391 38.3374 245.376C38.2536 245.361 38.1677 245.364 38.0852 245.385C38.0027 245.406 37.9256 245.444 37.8588 245.496C37.7921 245.549 37.7372 245.615 37.6979 245.691C37.6586 245.766 37.6357 245.849 37.6308 245.934C37.6258 246.018 37.6389 246.103 37.6691 246.183Z" fill="url(#paint18_linear_414_4151)"/>
<path d="M93.1521 171.873C92.3145 163.563 91.9799 155.21 92.1503 146.859C92.1599 146.317 91.4006 146.36 91.3578 146.859C90.5169 155.239 90.9105 163.697 92.526 171.963C92.5428 172.042 92.5888 172.111 92.6548 172.157C92.7208 172.203 92.8017 172.222 92.8813 172.21C92.9608 172.199 93.033 172.158 93.0833 172.095C93.1336 172.032 93.1582 171.953 93.1521 171.873Z" fill="url(#paint19_linear_414_4151)"/>
<path d="M95.8212 117.501C95.5707 118.125 95.1951 119.168 95.5295 119.794C95.7045 120.07 95.9541 120.291 96.2495 120.431C96.5448 120.571 96.8739 120.625 97.1985 120.586C97.2533 120.586 97.3075 120.575 97.3581 120.554C97.4086 120.533 97.4546 120.502 97.4933 120.464C97.532 120.425 97.5627 120.379 97.5837 120.329C97.6046 120.278 97.6154 120.224 97.6154 120.169C97.6154 120.114 97.6046 120.06 97.5837 120.01C97.5627 119.959 97.532 119.913 97.4933 119.875C97.4546 119.836 97.4086 119.805 97.3581 119.784C97.3075 119.763 97.2533 119.752 97.1985 119.752C96.7801 119.752 95.7372 119.543 96.4472 117.667C96.5725 117.251 95.9464 117.126 95.8212 117.501Z" fill="url(#paint20_linear_414_4151)"/>
<path d="M225.229 122.628C225.206 123.588 224.98 125.2 223.644 124.964C223.144 124.875 222.762 125.597 223.27 125.84C223.628 125.996 224.028 126.027 224.407 125.929C224.785 125.83 225.119 125.608 225.355 125.296C225.894 124.519 226.104 123.56 225.939 122.628C225.939 122.534 225.901 122.444 225.835 122.377C225.768 122.311 225.678 122.273 225.584 122.273C225.489 122.273 225.399 122.311 225.333 122.377C225.266 122.444 225.229 122.534 225.229 122.628Z" fill="url(#paint21_linear_414_4151)"/>
<path d="M222.851 128.547C222.119 128.869 221.3 128.933 220.527 128.729C219.754 128.524 219.074 128.064 218.597 127.422C218.266 127.085 217.632 127.422 217.804 127.88C218.046 128.352 218.39 128.765 218.811 129.089C219.232 129.412 219.719 129.638 220.238 129.75C220.757 129.861 221.295 129.856 221.812 129.735C222.328 129.614 222.812 129.379 223.227 129.048C223.51 128.834 223.136 128.417 222.851 128.547Z" fill="url(#paint22_linear_414_4151)"/>
<path d="M259.94 182.881L266.031 156.105L235.445 158.9C233.401 167.823 231.649 176.58 229.605 185.503L259.94 182.881Z" fill="url(#paint23_linear_414_4151)"/>
<path d="M229.521 188.847C239.823 188.18 249.628 187.554 259.932 186.887V183.551L229.646 186.346L229.521 188.847Z" fill="url(#paint24_linear_414_4151)"/>
<path d="M229.063 186.344C223.932 185.467 216.714 184.509 211.628 183.633C211.71 184.343 211.786 185.01 211.876 185.718L212.086 185.884C216.633 186.844 224.184 188.137 228.773 188.804L229.063 186.344Z" fill="url(#paint25_linear_414_4151)"/>
<path d="M227.268 119.71C227.045 120.352 226.946 121.032 226.977 121.711C226.995 121.78 227.027 121.845 227.07 121.901C227.114 121.958 227.168 122.005 227.231 122.04C227.293 122.075 227.362 122.097 227.433 122.105C227.504 122.113 227.576 122.107 227.644 122.086C228.253 121.898 228.235 120.455 228.311 119.868C228.398 119.251 227.39 119.125 227.268 119.71Z" fill="url(#paint26_linear_414_4151)"/>
<path d="M221.929 118.793C221.67 119.341 221.528 119.937 221.512 120.544C221.549 120.639 221.61 120.723 221.69 120.787C221.769 120.852 221.864 120.894 221.965 120.911C222.066 120.928 222.17 120.918 222.266 120.883C222.362 120.848 222.447 120.788 222.513 120.71C222.805 120.169 222.976 119.572 223.014 118.959C223.139 118.375 222.09 118.248 221.929 118.793Z" fill="url(#paint27_linear_414_4151)"/>
<path d="M99.034 114.456C98.9505 114.995 98.9087 115.539 98.9088 116.083C98.9293 116.161 98.9653 116.233 99.0145 116.296C99.0637 116.359 99.1251 116.412 99.1951 116.451C99.265 116.49 99.3421 116.514 99.4218 116.523C99.5014 116.531 99.5819 116.523 99.6585 116.5L99.9089 116.375C100.112 116.085 100.232 115.745 100.254 115.392C100.276 115.039 100.2 114.686 100.034 114.374C99.996 114.314 99.9464 114.261 99.888 114.22C99.8297 114.179 99.7638 114.15 99.6942 114.134C99.6245 114.119 99.5524 114.117 99.4821 114.129C99.4118 114.142 99.3446 114.168 99.2844 114.206C99.1592 114.206 99.0752 114.331 99.034 114.456Z" fill="url(#paint28_linear_414_4151)"/>
<path d="M94.4454 113.787C94.3043 114.276 94.2896 114.792 94.4026 115.288C94.451 115.379 94.5231 115.455 94.6113 115.508C94.6996 115.561 94.8005 115.589 94.9035 115.589C95.0064 115.589 95.1073 115.561 95.1956 115.508C95.2838 115.455 95.356 115.379 95.4043 115.288C95.4967 114.742 95.442 114.18 95.2458 113.661C95.0699 113.329 94.5643 113.451 94.4454 113.787Z" fill="url(#paint29_linear_414_4151)"/>
<path d="M95.9464 111.575C95.6456 111.412 95.3086 111.326 94.9661 111.326C94.6236 111.326 94.2865 111.412 93.9857 111.575C93.9857 111.325 93.9445 111.118 93.9445 110.867C93.9017 110.451 93.2661 110.451 93.2772 110.867C93.3184 112.662 93.3581 114.456 93.2344 116.246C93.2027 116.705 93.9017 116.705 93.9857 116.246C94.0969 115.04 94.125 113.828 94.0697 112.618C94.6207 112.528 95.18 112.5 95.7372 112.536C95.806 112.533 95.8737 112.518 95.9364 112.489C95.9991 112.461 96.0554 112.42 96.102 112.369C96.1487 112.319 96.1848 112.259 96.2081 112.194C96.2315 112.13 96.2416 112.061 96.238 111.992C96.1872 111.826 96.0851 111.68 95.9464 111.575Z" fill="url(#paint30_linear_414_4151)"/>
<path d="M99.6173 112.831C100.307 113.012 100.93 113.388 101.411 113.914C101.703 114.123 102.329 113.957 102.204 113.456C101.994 113.011 101.672 112.627 101.27 112.342C100.868 112.057 100.399 111.881 99.9089 111.829C99.2416 111.788 98.9896 112.759 99.6173 112.831Z" fill="url(#paint31_linear_414_4151)"/>
<path d="M114.218 106.867C113.937 105.715 113.357 104.657 112.537 103.801C111.716 102.944 110.685 102.319 109.546 101.988C108.462 101.738 104.624 102.571 101.494 100.486C100.759 99.6529 99.8535 98.9869 98.8387 98.5337C97.8239 98.0805 96.7234 97.8506 95.612 97.8596C90.3973 98.0862 88.3051 103.088 90.8157 107.242C93.1932 111.165 99.9327 112.127 104.249 108.034C106.376 109.286 106.877 113.456 106.959 114.039C110.234 114.658 109.042 120.409 105.791 118.751C104.791 120.877 98.5331 124.255 93.5277 119.961C92.3167 118.919 91.9839 121.377 91.8159 122.338C91.4374 124.272 91.6214 126.274 92.3462 128.106C93.0709 129.939 94.306 131.526 95.9052 132.679C97.4167 133.567 99.1359 134.041 100.889 134.053C102.643 134.065 104.368 133.614 105.892 132.746C107.415 131.878 108.682 130.624 109.566 129.11C110.449 127.596 110.917 125.876 110.923 124.123C110.711 121.044 111.05 117.952 111.923 114.991C113.169 110.911 114.844 109.536 114.218 106.867ZM101.123 125.131C100.647 127.249 96.7896 127.24 97.1177 125.923C97.1325 125.835 97.165 125.75 97.2132 125.674C97.2615 125.599 97.3245 125.534 97.3985 125.483C97.4725 125.433 97.556 125.398 97.6439 125.38C97.7318 125.362 97.8224 125.363 97.9102 125.381C98.7867 125.547 99.2876 124.923 99.9121 124.423C100.028 124.319 100.175 124.254 100.33 124.239C100.485 124.223 100.641 124.257 100.776 124.336C100.91 124.415 101.016 124.534 101.079 124.677C101.141 124.82 101.157 124.979 101.123 125.131Z" fill="url(#paint32_linear_414_4151)"/>
<path d="M117.973 149.854C117.72 149.313 116.721 149.695 116.971 150.272C124.3 167.332 105.876 173.622 104.039 174.999C103.899 175.084 103.796 175.217 103.748 175.374C98.1844 175.849 96.2349 173.718 94.195 175.124C93.7749 175.412 94.0238 176.199 94.569 176C96.9972 175.108 98.8121 177.299 104.206 176.375C104.792 176.997 105.225 177.746 105.471 178.564C105.717 179.382 105.77 180.246 105.624 181.087C102.003 181.086 98.393 181.492 94.8622 182.296C94.7507 182.329 94.6546 182.401 94.5913 182.499C94.5279 182.596 94.5014 182.713 94.5164 182.829C94.5315 182.944 94.5872 183.05 94.6735 183.128C94.7598 183.206 94.8711 183.251 94.9875 183.255C98.5645 183.243 102.13 182.851 105.624 182.087C105.687 182.144 105.763 182.185 105.846 182.206C105.928 182.227 106.014 182.228 106.097 182.207C106.18 182.186 106.256 182.146 106.319 182.089C106.382 182.031 106.43 181.96 106.458 181.879C106.847 180.864 106.955 179.763 106.772 178.692C106.588 177.621 106.12 176.619 105.415 175.791C125.106 166.909 120.363 154.955 117.973 149.854Z" fill="url(#paint33_linear_414_4151)"/>
<path d="M38.04 244.683C44.8396 235.467 52.5158 226.085 58.8558 216.536L52.557 200.773C44.2976 213.033 38.4505 229.588 32.0328 242.89C32.2674 243.36 35.187 246.161 38.04 244.683Z" fill="url(#paint34_linear_414_4151)"/>
<path d="M78.6763 246.137C80.8176 254.504 61.8309 255.634 60.9465 254.935C60.4091 254.512 61.0717 254.184 61.4885 253.767C62.4062 252.85 69.7163 248.821 72.7103 246.971C73.3808 246.557 72.7531 245.47 72.0763 245.887C68.1978 248.308 63.278 249.976 60.1048 253.351C57.3961 256.231 62.3143 256.342 64.1085 256.144C70.1537 255.48 82.0476 254.685 79.9189 245.803C79.8595 245.656 79.7484 245.537 79.6067 245.466C79.465 245.396 79.3025 245.38 79.1497 245.421C78.9969 245.462 78.8644 245.557 78.7772 245.689C78.69 245.821 78.6541 245.981 78.6763 246.137Z" fill="url(#paint35_linear_414_4151)"/>
<path d="M129.277 142.854C125.931 138.349 121.044 135.233 115.547 134.098C115.42 134.076 115.29 134.102 115.182 134.171C115.073 134.241 114.996 134.349 114.963 134.473V134.598C114.337 134.598 111.167 131.887 111.001 127.843C110.99 127.751 110.946 127.665 110.877 127.604C110.808 127.542 110.719 127.508 110.626 127.508C110.533 127.508 110.444 127.542 110.375 127.604C110.305 127.665 110.261 127.751 110.251 127.843C110.215 129.09 110.457 130.329 110.96 131.471C108.914 133.27 106.769 134.955 104.536 136.515C104.417 136.585 104.33 136.697 104.291 136.829C104.252 136.961 104.265 137.102 104.326 137.225C104.162 138.138 103.953 139.042 103.7 139.934C103.493 139.643 102.408 138.1 102.033 137.601C102.034 137.514 102.012 137.43 101.967 137.356C101.923 137.282 101.859 137.222 101.782 137.182C100.515 136.411 99.1731 135.768 97.7771 135.265C97.7121 135.224 97.6394 135.197 97.5635 135.185C97.4876 135.174 97.4101 135.178 97.3358 135.197C97.2615 135.217 97.192 135.251 97.1316 135.299C97.0712 135.346 97.0211 135.405 96.9846 135.473C96.7469 135.893 96.4822 136.297 96.1921 136.683C86.1796 140.102 80.8398 150.784 80.3817 154.654C80.3793 154.783 80.4202 154.909 80.4977 155.013C80.5753 155.116 80.6852 155.19 80.8098 155.223C80.9345 155.257 81.0668 155.248 81.1856 155.197C81.3045 155.147 81.4031 155.059 81.4658 154.946C82.2583 153.279 85.5963 143.021 95.482 138.1C95.3584 138.309 94.8147 139.101 95.0239 139.392C96.3211 140.518 97.6862 141.562 99.1116 142.52C99.289 142.575 99.4774 142.585 99.6596 142.549C99.8418 142.513 100.012 142.431 100.155 142.312C100.732 141.199 101.221 140.041 101.614 138.851C102.152 139.814 102.784 140.722 103.501 141.561C103.561 141.632 103.64 141.684 103.729 141.713C103.817 141.741 103.912 141.745 104.002 141.723C104.093 141.702 104.176 141.656 104.242 141.59C104.308 141.525 104.355 141.442 104.377 141.352C104.713 140.339 104.923 139.289 105.001 138.225C105.753 139.351 107.136 142.819 107.923 142.312C110.744 140.475 115.18 134.972 115.223 135.015C120.401 136.436 124.981 139.493 128.279 143.729C131.778 148.482 132.628 155.405 131.701 161.156C129.884 172.418 119.972 179.878 109.091 181.506C109.013 181.52 108.939 181.549 108.873 181.593C108.807 181.637 108.75 181.694 108.707 181.76C108.664 181.826 108.635 181.901 108.622 181.979C108.609 182.057 108.612 182.137 108.631 182.214C108.631 182.257 108.672 182.339 108.672 182.382C108.256 182.464 97.0765 184.132 92.4451 185.175C92.2866 184.292 86.6932 158.279 85.8547 158.279C80.9317 157.403 60.3267 155.427 55.1517 155.527C55.1089 155.527 54.692 155.735 54.692 155.944C54.8584 157.945 60.6579 182.548 60.7404 182.84L60.6167 186.008L56.9871 186.133C54.3164 186.634 52.8217 189.47 52.4809 192.138C51.8691 196.935 72.5882 245.722 73.59 246.596C74.5917 247.471 77.7617 246.805 78.8046 245.221C79.8475 243.637 76.3431 218.992 72.2126 205.524L70.5024 200.771C86.793 206.879 103.699 203.358 111.969 196.726C115.719 193.716 119.937 183.8 120.771 178.796C123.996 176.823 126.758 174.177 128.868 171.04C130.977 167.902 132.385 164.347 132.994 160.616C133.864 154.683 133.026 147.821 129.277 142.854ZM99.4508 141.476C98.1888 140.934 97.0418 140.155 96.0716 139.183C96.6549 138.307 97.1985 137.39 97.7406 136.514C98.7643 137.081 99.8231 137.583 100.911 138.016C100.364 139.143 99.8763 140.298 99.4508 141.476ZM107.835 141.309C107.217 139.865 106.463 138.482 105.583 137.181C107.827 135.982 109.834 134.386 111.506 132.469C112.199 133.506 113.042 134.433 114.009 135.221C112.198 137.488 110.126 139.534 107.835 141.317V141.309ZM61.9481 185.512C61.9487 184.788 61.9069 184.064 61.8229 183.345C65.4098 184.096 86.3096 186.013 91.3166 186.097C91.4418 186.555 91.6082 187.055 91.7335 187.523C86.9769 186.846 61.9481 185.511 61.9481 185.511V185.512ZM55.941 156.658V156.616C60.5375 157.533 80.35 159.243 85.4347 159.326C85.4347 159.368 90.4401 182.635 91.0234 184.929C86.4348 184.221 66.4559 182.177 61.7801 182.302C61.7389 182.135 56.5243 158.282 55.941 156.657V156.658ZM108.628 185.054L92.984 188.016C92.9016 187.306 92.7764 186.598 92.6512 185.888C93.0268 185.847 103.83 184.303 108.712 183.511C108.712 183.635 108.628 185.012 108.628 185.053V185.054Z" fill="url(#paint36_linear_414_4151)"/>
<path d="M228.687 146.65C231.733 151.16 232.967 153.344 230.564 158.2C229.069 160.799 228.608 163.866 229.272 166.79C229.312 166.916 229.395 167.025 229.508 167.095C229.62 167.165 229.754 167.192 229.885 167.172C230.017 167.152 230.136 167.086 230.222 166.985C230.309 166.884 230.356 166.756 230.356 166.624C230.083 164.395 230.355 162.134 231.149 160.034C232.09 158.41 232.779 156.653 233.193 154.822C233.566 151.403 231.372 148.589 229.389 146.108C229.101 145.736 228.437 146.23 228.687 146.65Z" fill="url(#paint37_linear_414_4151)"/>
<path d="M234.236 140.392C235.71 139.873 236.932 138.815 237.656 137.431C240.072 132.045 228.807 125.764 233.567 110.745C235.026 109.944 236.288 108.829 237.263 107.48C238.237 106.131 238.899 104.583 239.2 102.947C239.289 102.323 239.898 98.3332 237.948 96.7346C235.43 94.675 229.354 102.289 217.465 100.987C211.417 100.325 204.868 105.658 204.868 119.251C205.028 124.852 203.611 130.386 200.778 135.221C187.26 143.632 185.642 163.581 193.145 177.128C193.187 177.201 193.244 177.265 193.311 177.316C193.379 177.366 193.456 177.402 193.538 177.422C193.62 177.441 193.705 177.444 193.788 177.43C193.872 177.415 193.951 177.384 194.021 177.338C194.73 176.921 195.44 176.545 196.107 176.129C199.616 179.777 204.268 182.116 209.29 182.758C209.748 182.803 209.792 182.086 209.415 181.965C204.911 180.692 200.711 178.522 197.066 175.585C200.111 173.835 203.073 172 206.077 170.124C209.23 172.804 212.757 175.009 216.547 176.671C215.95 178.352 215.921 180.183 216.465 181.883C216.606 182.167 217.048 182.041 217.048 181.84C220.211 182.71 223.489 183.09 226.768 182.967C226.889 182.965 227.005 182.917 227.091 182.831C227.177 182.745 227.226 182.629 227.227 182.507C227.227 181.531 225.959 182.594 217.048 181.091C216.97 179.858 217.083 178.62 217.383 177.422C219.15 178.026 220.963 178.486 222.805 178.797C222.555 179.297 223.217 179.877 223.598 179.423C224.655 177.889 225.812 176.426 227.061 175.043C227.378 174.957 227.711 174.95 228.031 175.023C228.351 175.096 228.648 175.246 228.896 175.462C229.229 175.71 229.521 175.211 229.313 174.918C228.646 174.085 227.224 173.372 226.268 174.085C225.207 175.239 224.244 176.481 223.39 177.795C221.45 177.497 219.528 177.093 217.632 176.587C217.672 176.525 217.7 176.455 217.711 176.382C217.723 176.31 217.719 176.235 217.699 176.164C217.679 176.093 217.644 176.027 217.597 175.97C217.55 175.913 217.491 175.867 217.424 175.836C213.69 174.156 210.174 172.027 206.953 169.498C207.194 169.331 207.445 169.177 207.703 169.039C207.852 168.945 207.958 168.795 207.997 168.623C208.036 168.451 208.006 168.271 207.912 168.121C206.396 166.661 205.334 164.795 204.853 162.746C204.372 160.698 204.492 158.554 205.2 156.572C205.419 155.865 204.408 155.654 204.116 156.28C203.299 158.3 203.076 160.512 203.475 162.655C203.874 164.797 204.878 166.781 206.369 168.372C202.279 170.962 198.134 173.465 193.937 175.878C188.073 164.492 188.281 149.447 196.982 139.597C202.371 133.509 212.793 132.55 212.793 132.55C213.127 130.007 213.211 127.437 213.043 124.877C212.481 124.243 212.142 123.443 212.077 122.598C212.012 121.754 212.225 120.911 212.683 120.199C213.141 119.486 213.819 118.942 214.615 118.65C215.41 118.358 216.279 118.334 217.09 118.581C217.48 116.969 218.292 115.49 219.443 114.296C220.594 113.101 222.042 112.235 223.639 111.784C225.555 112.627 227.695 112.817 229.73 112.326C229.479 114.37 228.061 125.462 227.936 126.336C226.768 131.007 223.268 135.712 218.007 132.55C217.383 132.175 216.845 133.125 217.424 133.551C218.279 134.173 219.261 134.597 220.301 134.791C221.34 134.986 222.409 134.947 223.431 134.676C223.807 134.843 224.224 135.052 224.599 135.261C224.359 136.602 223.655 137.817 222.611 138.693C221.566 139.57 220.247 140.051 218.884 140.055C217.425 139.991 216.006 139.565 214.753 138.815C213.5 138.065 212.454 137.016 211.708 135.761C211.641 135.664 211.538 135.596 211.421 135.573C211.304 135.549 211.183 135.572 211.082 135.636C211 135.697 210.94 135.782 210.91 135.88C210.88 135.977 210.882 136.082 210.916 136.178C211.697 137.861 212.986 139.258 214.603 140.17C216.219 141.083 218.081 141.466 219.927 141.265C221.348 141.084 222.679 140.47 223.739 139.507C224.799 138.543 225.536 137.276 225.85 135.879C233.36 140.717 240.525 149.187 241.744 155.936C241.827 156.396 242.537 156.187 242.453 155.727C241.351 149.895 238.483 144.541 234.236 140.392Z" fill="url(#paint38_linear_414_4151)"/>
<path d="M270.571 244.096C269.735 243.389 263.229 239.009 259.766 238.508C260.4 237.082 275.192 202.181 272.614 191.347C271.504 186.674 268.485 182.174 263.353 182.133C263.239 182.144 263.134 182.198 263.057 182.282C262.98 182.367 262.938 182.477 262.938 182.591C262.938 182.706 262.98 182.816 263.057 182.901C263.134 182.985 263.239 183.039 263.353 183.05C270.029 183.592 271.743 191.099 271.32 196.56C270.417 208.236 258.556 237.594 257.971 238.842C255.803 239.719 251.297 241.97 251.215 242.052C251.215 242.052 267.382 206.86 267.442 198.019C267.472 193.974 267.569 189.692 263.436 187.928C262.974 187.73 262.644 188.511 263.104 188.762C268.61 191.347 265.481 199.187 264.771 203.691C263.773 210.028 249.671 241.51 249.08 242.678C246.937 243.485 244.894 244.535 242.99 245.806C244.992 231.044 246.911 216.283 249.489 201.603C249.51 201.526 249.516 201.445 249.504 201.366C249.492 201.287 249.463 201.211 249.42 201.144C249.377 201.077 249.32 201.02 249.252 200.977C249.185 200.933 249.11 200.905 249.03 200.893C248.419 200.587 239.902 203.635 226.999 201.394C218.188 199.863 205.781 194.516 205.099 184.047C205.055 183.38 204.018 183.338 204.056 184.047C204.779 197.873 225.978 206.717 248.192 202.228C246.815 210.15 242.684 239.46 242.226 246.178C242.228 246.268 242.257 246.355 242.31 246.428C242.071 246.607 241.878 246.84 241.747 247.109C241.617 247.377 241.552 247.673 241.559 247.971C241.812 249.513 245.521 250.177 251.945 251.265C256.119 251.972 263.029 253.179 263.459 251.85C263.662 251.216 257.119 246.637 256.485 246.137C256.944 246.178 263.826 246.682 266.83 246.553C267.817 246.515 272.986 246.143 270.571 244.096Z" fill="url(#paint39_linear_414_4151)"/>
<path d="M242.787 206.36C243.359 205.683 242.364 204.687 241.785 205.358C229.522 219.617 218.876 219.378 218.258 219.995C218.132 217.911 218.05 215.951 217.966 214.291C216.698 213.461 215.166 213.134 213.669 213.374C213.267 213.452 212.885 213.613 212.548 213.846C212.211 214.079 211.926 214.379 211.711 214.728C211.495 215.076 211.355 215.465 211.297 215.871C211.239 216.276 211.266 216.689 211.376 217.084C211.792 218.044 212.168 219.169 212.585 220.421C185.662 220.421 164.133 187.517 171.912 162.084C174.627 153.204 180.971 147.256 189.014 143.153C189.68 142.814 189.222 141.687 188.515 141.944C166.412 149.945 161.426 182.934 182.048 206.493C179.09 213.253 176.239 220.077 173.497 226.967C175.082 227.427 182.966 217.043 187.304 211.746C187.93 212.29 194.771 220.628 212.419 221.964C212.533 221.972 212.648 221.95 212.751 221.898C212.854 221.846 212.94 221.768 213.002 221.671C215.297 229.011 217.506 238.642 218.391 238.56C219.275 238.477 218.808 229.26 218.391 221.254C218.482 221.315 218.584 221.358 218.691 221.379C218.799 221.401 218.909 221.401 219.017 221.379C224.142 220.421 228.996 218.358 233.242 215.333C233.7 218.293 240.002 227.191 240.834 227.092C241.754 226.983 239.333 216.208 238.04 211.407C239.734 209.834 241.32 208.147 242.787 206.36Z" fill="url(#paint40_linear_414_4151)"/>
<path d="M151.095 159.867C149.535 155.619 147.12 151.736 143.999 148.458C140.877 145.18 137.116 142.578 132.948 140.811C132.237 140.527 131.777 141.651 132.447 142.02C139.545 145.924 146.2 150.575 148.884 158.408C156.687 181.189 143.739 203.437 133.324 211.783C126.889 217.103 118.848 220.1 110.5 220.289C110.75 219.247 110.937 218.25 111.134 217.369C111.357 216.331 106.899 214.633 104.501 216.661C104.334 224.583 102.757 240.13 104.043 240.47C105.128 240.757 108.34 229.838 110.257 221.664C119.682 221.679 128.778 218.202 135.789 211.906C141.086 217.293 148.846 227.962 149.554 227.503C150.263 227.043 144.257 212.61 141.629 205.903C152.055 193.184 156.714 175.009 151.095 159.867Z" fill="url(#paint41_linear_414_4151)"/>
<path d="M103.789 219.741C94.1205 217.944 87.0197 212.319 80.3024 205.522C79.8888 205.102 79.3514 205.728 79.6684 206.155C81.0528 207.897 82.5586 209.538 84.1746 211.067C83.0477 217.114 81.1631 227.455 82.0047 227.496C82.8464 227.538 86.5521 219.199 88.8044 214.822C93.1718 217.901 98.1287 220.044 103.364 221.118C104.293 221.246 104.665 219.907 103.789 219.741Z" fill="url(#paint42_linear_414_4151)"/>
<path d="M33.3721 231.586C11.9382 237.129 7.88534 247.724 7.92497 250.81C8.19125 271.547 92.8255 280.578 113.426 282.208C152.899 285.108 192.574 283.527 231.691 277.497C249.588 274.835 291.287 269.352 307.03 251.769C310.281 248.137 309.237 243.847 306.78 239.55C301.849 230.924 281.756 223.902 268.025 223.122C267.191 223.075 266.981 224.425 267.817 224.581C305.407 231.646 308.086 245.23 305.361 249.475C287.506 277.3 168.116 283.026 130.32 281.457C112.048 280.7 67.9077 277.725 24.6959 264.03C18.5144 262.072 -8.09304 248.643 33.6638 232.63C33.8023 232.591 33.9198 232.499 33.9904 232.374C34.061 232.249 34.0789 232.101 34.0402 231.962C34.0016 231.824 33.9094 231.706 33.7841 231.636C33.6589 231.565 33.5107 231.547 33.3721 231.586Z" fill="black"/>
<path d="M151.012 218.788C158.479 217.79 166.228 218.649 173.623 217.204C174.288 217.074 174.166 215.927 173.454 215.995C165.961 216.706 158.318 216.664 150.844 217.705C150.22 217.787 150.386 218.868 151.012 218.788Z" fill="black"/>
<defs>
<linearGradient id="paint0_linear_414_4151" x1="93.0843" y1="34.418" x2="93.0843" y2="107.531" gradientUnits="userSpaceOnUse">
<stop stop-color="#5E0303"/>
<stop offset="1" stop-color="#8A0202"/>
</linearGradient>
<linearGradient id="paint1_linear_414_4151" x1="130.244" y1="103.652" x2="130.244" y2="106.083" gradientUnits="userSpaceOnUse">
<stop stop-color="#5E0303"/>
<stop offset="1" stop-color="#8A0202"/>
</linearGradient>
<linearGradient id="paint2_linear_414_4151" x1="214.37" y1="34.1328" x2="214.37" y2="107.281" gradientUnits="userSpaceOnUse">
<stop stop-color="#5E0303"/>
<stop offset="1" stop-color="#8A0202"/>
</linearGradient>
<linearGradient id="paint3_linear_414_4151" x1="251.936" y1="104.262" x2="251.936" y2="106.091" gradientUnits="userSpaceOnUse">
<stop stop-color="#5E0303"/>
<stop offset="1" stop-color="#8A0202"/>
</linearGradient>
<linearGradient id="paint4_linear_414_4151" x1="32.851" y1="177.785" x2="32.851" y2="194.079" gradientUnits="userSpaceOnUse">
<stop stop-color="#5E0303"/>
<stop offset="1" stop-color="#8A0202"/>
</linearGradient>
<linearGradient id="paint5_linear_414_4151" x1="282.451" y1="117.684" x2="282.451" y2="130.111" gradientUnits="userSpaceOnUse">
<stop stop-color="#5E0303"/>
<stop offset="1" stop-color="#8A0202"/>
</linearGradient>
<linearGradient id="paint6_linear_414_4151" x1="37.1765" y1="164.805" x2="37.1765" y2="173.247" gradientUnits="userSpaceOnUse">
<stop stop-color="#5E0303"/>
<stop offset="1" stop-color="#8A0202"/>
</linearGradient>
<linearGradient id="paint7_linear_414_4151" x1="25.2063" y1="92.2734" x2="25.2063" y2="107.827" gradientUnits="userSpaceOnUse">
<stop stop-color="#5E0303"/>
<stop offset="1" stop-color="#8A0202"/>
</linearGradient>
<linearGradient id="paint8_linear_414_4151" x1="288.6" y1="200.125" x2="288.6" y2="213.611" gradientUnits="userSpaceOnUse">
<stop stop-color="#5E0303"/>
<stop offset="1" stop-color="#8A0202"/>
</linearGradient>
<linearGradient id="paint9_linear_414_4151" x1="296.129" y1="103.707" x2="296.129" y2="112.183" gradientUnits="userSpaceOnUse">
<stop stop-color="#5E0303"/>
<stop offset="1" stop-color="#8A0202"/>
</linearGradient>
<linearGradient id="paint10_linear_414_4151" x1="66.6357" y1="44.4609" x2="66.6357" y2="72.8371" gradientUnits="userSpaceOnUse">
<stop stop-color="#5E0303"/>
<stop offset="1" stop-color="#8A0202"/>
</linearGradient>
<linearGradient id="paint11_linear_414_4151" x1="186.119" y1="45.5859" x2="186.119" y2="69.6481" gradientUnits="userSpaceOnUse">
<stop stop-color="#5E0303"/>
<stop offset="1" stop-color="#8A0202"/>
</linearGradient>
<linearGradient id="paint12_linear_414_4151" x1="67.5001" y1="78.1523" x2="67.5001" y2="79.4701" gradientUnits="userSpaceOnUse">
<stop stop-color="#5E0303"/>
<stop offset="1" stop-color="#8A0202"/>
</linearGradient>
<linearGradient id="paint13_linear_414_4151" x1="67.5675" y1="84.9023" x2="67.5675" y2="86.1936" gradientUnits="userSpaceOnUse">
<stop stop-color="#5E0303"/>
<stop offset="1" stop-color="#8A0202"/>
</linearGradient>
<linearGradient id="paint14_linear_414_4151" x1="66.0239" y1="91.7422" x2="66.0239" y2="92.9802" gradientUnits="userSpaceOnUse">
<stop stop-color="#5E0303"/>
<stop offset="1" stop-color="#8A0202"/>
</linearGradient>
<linearGradient id="paint15_linear_414_4151" x1="188.266" y1="78.1523" x2="188.266" y2="79.4701" gradientUnits="userSpaceOnUse">
<stop stop-color="#5E0303"/>
<stop offset="1" stop-color="#8A0202"/>
</linearGradient>
<linearGradient id="paint16_linear_414_4151" x1="188.273" y1="84.9062" x2="188.273" y2="86.1923" gradientUnits="userSpaceOnUse">
<stop stop-color="#5E0303"/>
<stop offset="1" stop-color="#8A0202"/>
</linearGradient>
<linearGradient id="paint17_linear_414_4151" x1="186.791" y1="91.7422" x2="186.791" y2="92.9801" gradientUnits="userSpaceOnUse">
<stop stop-color="#5E0303"/>
<stop offset="1" stop-color="#8A0202"/>
</linearGradient>
<linearGradient id="paint18_linear_414_4151" x1="28.0294" y1="243.496" x2="28.0294" y2="252.899" gradientUnits="userSpaceOnUse">
<stop stop-color="#5E0303"/>
<stop offset="1" stop-color="#8A0202"/>
</linearGradient>
<linearGradient id="paint19_linear_414_4151" x1="92.0404" y1="146.469" x2="92.0404" y2="172.214" gradientUnits="userSpaceOnUse">
<stop stop-color="#5E0303"/>
<stop offset="1" stop-color="#8A0202"/>
</linearGradient>
<linearGradient id="paint20_linear_414_4151" x1="96.5063" y1="117.277" x2="96.5063" y2="120.598" gradientUnits="userSpaceOnUse">
<stop stop-color="#5E0303"/>
<stop offset="1" stop-color="#8A0202"/>
</linearGradient>
<linearGradient id="paint21_linear_414_4151" x1="224.512" y1="122.273" x2="224.512" y2="125.985" gradientUnits="userSpaceOnUse">
<stop stop-color="#5E0303"/>
<stop offset="1" stop-color="#8A0202"/>
</linearGradient>
<linearGradient id="paint22_linear_414_4151" x1="220.551" y1="127.285" x2="220.551" y2="129.83" gradientUnits="userSpaceOnUse">
<stop stop-color="#5E0303"/>
<stop offset="1" stop-color="#8A0202"/>
</linearGradient>
<linearGradient id="paint23_linear_414_4151" x1="247.818" y1="156.105" x2="247.818" y2="185.503" gradientUnits="userSpaceOnUse">
<stop stop-color="#5E0303"/>
<stop offset="1" stop-color="#8A0202"/>
</linearGradient>
<linearGradient id="paint24_linear_414_4151" x1="244.726" y1="183.551" x2="244.726" y2="188.847" gradientUnits="userSpaceOnUse">
<stop stop-color="#5E0303"/>
<stop offset="1" stop-color="#8A0202"/>
</linearGradient>
<linearGradient id="paint25_linear_414_4151" x1="220.345" y1="183.633" x2="220.345" y2="188.804" gradientUnits="userSpaceOnUse">
<stop stop-color="#5E0303"/>
<stop offset="1" stop-color="#8A0202"/>
</linearGradient>
<linearGradient id="paint26_linear_414_4151" x1="227.644" y1="119.332" x2="227.644" y2="122.109" gradientUnits="userSpaceOnUse">
<stop stop-color="#5E0303"/>
<stop offset="1" stop-color="#8A0202"/>
</linearGradient>
<linearGradient id="paint27_linear_414_4151" x1="222.268" y1="118.445" x2="222.268" y2="120.919" gradientUnits="userSpaceOnUse">
<stop stop-color="#5E0303"/>
<stop offset="1" stop-color="#8A0202"/>
</linearGradient>
<linearGradient id="paint28_linear_414_4151" x1="99.5833" y1="114.121" x2="99.5833" y2="116.526" gradientUnits="userSpaceOnUse">
<stop stop-color="#5E0303"/>
<stop offset="1" stop-color="#8A0202"/>
</linearGradient>
<linearGradient id="paint29_linear_414_4151" x1="94.8878" y1="113.465" x2="94.8878" y2="115.589" gradientUnits="userSpaceOnUse">
<stop stop-color="#5E0303"/>
<stop offset="1" stop-color="#8A0202"/>
</linearGradient>
<linearGradient id="paint30_linear_414_4151" x1="94.7361" y1="110.555" x2="94.7361" y2="116.591" gradientUnits="userSpaceOnUse">
<stop stop-color="#5E0303"/>
<stop offset="1" stop-color="#8A0202"/>
</linearGradient>
<linearGradient id="paint31_linear_414_4151" x1="100.738" y1="111.828" x2="100.738" y2="114.003" gradientUnits="userSpaceOnUse">
<stop stop-color="#5E0303"/>
<stop offset="1" stop-color="#8A0202"/>
</linearGradient>
<linearGradient id="paint32_linear_414_4151" x1="102.055" y1="97.8594" x2="102.055" y2="134.053" gradientUnits="userSpaceOnUse">
<stop stop-color="#5E0303"/>
<stop offset="1" stop-color="#8A0202"/>
</linearGradient>
<linearGradient id="paint33_linear_414_4151" x1="107.12" y1="149.594" x2="107.12" y2="183.255" gradientUnits="userSpaceOnUse">
<stop stop-color="#5E0303"/>
<stop offset="1" stop-color="#8A0202"/>
</linearGradient>
<linearGradient id="paint34_linear_414_4151" x1="45.4443" y1="200.773" x2="45.4443" y2="245.11" gradientUnits="userSpaceOnUse">
<stop stop-color="#5E0303"/>
<stop offset="1" stop-color="#8A0202"/>
</linearGradient>
<linearGradient id="paint35_linear_414_4151" x1="69.7392" y1="245.398" x2="69.7392" y2="256.207" gradientUnits="userSpaceOnUse">
<stop stop-color="#5E0303"/>
<stop offset="1" stop-color="#8A0202"/>
</linearGradient>
<linearGradient id="paint36_linear_414_4151" x1="92.8883" y1="127.508" x2="92.8883" y2="246.984" gradientUnits="userSpaceOnUse">
<stop stop-color="#5E0303"/>
<stop offset="1" stop-color="#8A0202"/>
</linearGradient>
<linearGradient id="paint37_linear_414_4151" x1="230.933" y1="145.977" x2="230.933" y2="167.179" gradientUnits="userSpaceOnUse">
<stop stop-color="#5E0303"/>
<stop offset="1" stop-color="#8A0202"/>
</linearGradient>
<linearGradient id="paint38_linear_414_4151" x1="215.576" y1="96.3789" x2="215.576" y2="182.989" gradientUnits="userSpaceOnUse">
<stop stop-color="#5E0303"/>
<stop offset="1" stop-color="#8A0202"/>
</linearGradient>
<linearGradient id="paint39_linear_414_4151" x1="238.485" y1="182.133" x2="238.485" y2="252.446" gradientUnits="userSpaceOnUse">
<stop stop-color="#5E0303"/>
<stop offset="1" stop-color="#8A0202"/>
</linearGradient>
<linearGradient id="paint40_linear_414_4151" x1="205.967" y1="141.906" x2="205.967" y2="238.56" gradientUnits="userSpaceOnUse">
<stop stop-color="#5E0303"/>
<stop offset="1" stop-color="#8A0202"/>
</linearGradient>
<linearGradient id="paint41_linear_414_4151" x1="128.521" y1="140.766" x2="128.521" y2="240.476" gradientUnits="userSpaceOnUse">
<stop stop-color="#5E0303"/>
<stop offset="1" stop-color="#8A0202"/>
</linearGradient>
<linearGradient id="paint42_linear_414_4151" x1="91.9292" y1="205.383" x2="91.9292" y2="227.497" gradientUnits="userSpaceOnUse">
<stop stop-color="#5E0303"/>
<stop offset="1" stop-color="#8A0202"/>
</linearGradient>
</defs>
</svg>
