<svg width="289" height="289" viewBox="0 0 289 289" fill="none" xmlns="http://www.w3.org/2000/svg">
<path d="M197.098 44.2358C182.634 33.4373 163.14 25.2413 145.47 27.7296C145.426 27.7348 145.385 27.7511 145.35 27.7768C145.314 27.8026 145.286 27.8369 145.268 27.8766C145.25 27.9163 145.242 27.9601 145.245 28.0036C145.249 28.0472 145.263 28.0891 145.287 28.1255C135.047 32.1715 136.522 31.6455 136.214 31.5762C126.329 29.4917 116.065 30.102 106.496 33.3434C105.774 33.5861 105.037 33.8188 104.341 34.1266C104.052 34.2348 103.798 34.4179 103.604 34.6568C103.41 34.8958 103.283 35.1821 103.237 35.4863C103.112 36.2623 103.161 34.7768 104.248 53.1861C104.248 53.2582 104.276 53.3275 104.326 53.3793C104.376 53.4311 104.445 53.4613 104.517 53.4636C111.604 53.7921 118.539 55.6281 124.86 58.8491C131.384 62.1726 136.227 67.3442 142.665 67.1723C146.311 67.0755 149.803 65.6435 153.472 66.379C155.218 66.7287 156.892 67.3601 158.623 67.7647C167.593 69.8614 172.15 62.2217 182.235 60.9935C187.057 60.4053 188.424 61.6611 189.421 60.284C189.71 59.888 195.498 48.0015 197.201 44.6202C197.236 44.5551 197.245 44.479 197.226 44.4075C197.207 44.336 197.161 44.2745 197.098 44.2358ZM166.059 46.5825C166.018 46.9407 165.899 47.2855 165.709 47.5923C165.52 47.8991 165.265 48.1605 164.964 48.3579C164.662 48.5552 164.32 48.6838 163.963 48.7343C163.606 48.7848 163.242 48.7561 162.898 48.6503C161.119 52.6515 158.852 56.8723 154.95 58.9098C153.952 59.5569 152.777 59.8759 151.589 59.822C150.4 59.7681 149.259 59.3441 148.323 58.6092C147.408 57.8104 146.54 56.9593 145.722 56.0602C144.012 54.1528 143.315 52.3278 140.216 45.8947C138.473 46.0666 136.782 44.4728 136.987 41.9816C136.986 41.3092 137.245 40.6624 137.71 40.1768C137.974 39.9517 138.303 39.8179 138.649 39.7953C139.59 38.385 147.175 36.7724 151.758 28.2353C151.791 28.1818 151.835 28.1363 151.887 28.1023C151.94 28.0682 151.999 28.0464 152.061 28.0384C152.123 28.0305 152.186 28.0367 152.246 28.0565C152.305 28.0764 152.359 28.1093 152.404 28.1529C160.512 35.5774 159.249 36.5701 162.706 39.9283C163.582 40.6383 164.283 41.5419 164.752 42.5683C165.032 43.035 165.749 42.7836 166.02 43.7951C166.211 44.7132 166.225 45.6594 166.059 46.5825Z" fill="url(#paint0_linear_414_4207)"/>
<path d="M153.783 16.9356C152.716 17.3286 152.357 17.7737 152.049 17.8358C151.99 17.8098 151.931 17.7824 151.874 17.7534C150.906 17.219 149.828 16.9131 148.724 16.8592C147.619 16.8054 146.517 17.005 145.501 17.4428C139.901 19.7013 134.55 27.432 135.561 34.2683C135.659 35.0454 135.835 35.8104 136.089 36.5514C136.346 37.1555 136.421 38.7305 137.084 39.4747C136.548 39.9663 136.164 40.6019 135.978 41.3057C135.793 42.0095 135.813 42.7518 136.038 43.4441C136.105 44.2073 136.418 44.9281 136.93 45.4986C137.441 46.0691 138.123 46.4586 138.875 46.6086C140.652 46.7893 139.404 45.0466 140.743 48.6316C142.503 53.3337 146.473 60.4489 151.518 60.8809C153.516 60.8418 155.429 60.0705 156.895 58.7134C159.724 56.2452 161.864 53.0864 163.109 49.5449C163.452 49.6492 163.814 49.6762 164.17 49.6237C164.525 49.5712 164.864 49.4407 165.162 49.2414C166.044 48.5572 166.663 47.5902 166.916 46.5031C167.168 45.416 167.039 44.2751 166.549 43.2721C166.234 42.8386 166.27 43.2115 166.727 42.6306C167.6 41.3319 168.272 39.9096 168.723 38.4112C172.812 25.2588 160.463 14.469 153.783 16.9356ZM139.23 45.3269C138.456 45.4613 137.837 44.7489 137.535 43.9513C137.009 42.5598 136.957 40.5642 138.395 40.1741C139.233 40.3056 138.586 39.6452 139.243 43.2216C139.373 43.9277 139.527 44.6285 139.704 45.324C139.548 45.2932 139.386 45.2942 139.23 45.3269ZM161.941 48.8975C160.371 52.7326 158.571 56.1962 155.16 58.4114C154.281 59.0471 153.265 59.4664 152.193 59.6353C147.858 59.9431 143.957 53.2499 142.262 49.2992C141.048 46.3644 140.246 43.2762 139.876 40.122C144.655 39.3504 148.017 35.3535 151.013 31.9115C151.393 31.478 152.472 30.2281 152.628 30.0331C155.7 36.7769 159.931 40.8807 163.873 42.9022C163.399 44.9513 162.752 46.9569 161.941 48.8975ZM163.557 48.4221C164.182 46.8172 164.696 45.1714 165.096 43.4961C166.955 43.658 165.63 48.9669 163.557 48.4221Z" fill="#191919"/>
<path d="M144.299 42.2246C144.548 41.018 146.292 40.9805 146.926 43.0555C147.003 43.3208 147.094 43.5817 147.199 43.8372C147.255 43.9313 147.34 44.0045 147.442 44.0457C147.543 44.0869 147.655 44.0939 147.761 44.0655C148.526 43.8589 147.906 42.3315 147.523 41.7131C146.05 39.3491 143.263 40.4863 143.54 42.226C143.601 42.609 144.222 42.5916 144.299 42.2246Z" fill="#191919"/>
<path d="M155.89 43.4689C155.997 43.2565 156.12 43.0542 156.242 42.849C156.363 42.6438 156.445 42.4155 156.574 42.2059C157.035 41.4676 157.892 40.9763 158.587 41.5051C158.791 41.6681 159.018 41.7992 159.262 41.8938C159.643 42.0297 160.069 40.9531 158.873 40.3881C158.311 40.1666 157.687 40.1622 157.122 40.3759C156.557 40.5897 156.091 41.0061 155.817 41.5441C155.46 42.0631 155.282 42.6837 155.308 43.3128C155.31 43.3804 155.334 43.4454 155.376 43.4983C155.418 43.5513 155.476 43.5893 155.541 43.6068C155.607 43.6243 155.676 43.6203 155.739 43.5955C155.801 43.5706 155.855 43.5263 155.89 43.4689Z" fill="#191919"/>
<path d="M152.353 48.3637C151.8 47.8334 151.376 48.1311 150.713 47.5112C150.612 47.419 150.524 47.3135 150.451 47.1976C150.522 47.0863 150.603 46.9809 150.675 46.871C151.779 45.2488 152.216 43.2639 151.896 41.328C151.807 40.909 151.201 41.0318 151.174 41.4248C151.162 43.3257 150.551 45.1745 149.43 46.7092C148.761 48.0097 151.461 49.829 152.349 48.8016C152.406 48.7434 152.439 48.6652 152.439 48.5835C152.44 48.5018 152.409 48.423 152.353 48.3637Z" fill="#191919"/>
<path d="M151.544 54.5315C152.393 56.54 156.063 56.3247 155.868 52.4189C155.849 52.0692 155.868 51.6964 155.559 51.4739C155.487 51.4316 155.403 51.4144 155.32 51.4249C155.237 51.4353 155.16 51.4729 155.101 51.5317C154.8 51.8582 155.027 52.1761 154.956 53.2035C154.812 55.2612 152.88 55.4216 152.094 54.215C152.048 54.1492 151.98 54.1029 151.902 54.0852C151.824 54.0676 151.742 54.08 151.673 54.1199C151.604 54.1598 151.552 54.2243 151.528 54.3005C151.504 54.3768 151.51 54.4593 151.544 54.5315Z" fill="#191919"/>
<path d="M100.217 35.5477C87.1228 35.0246 72.0977 36.2977 61.6171 44.2567C55.0467 49.2463 49.3909 57.4062 45.9128 64.9202C45.6736 65.4371 45.4844 65.9756 45.3478 66.5285C45.3256 66.6576 45.3478 66.7904 45.4109 66.9052C45.474 67.0199 45.5742 67.1099 45.6951 67.1603C45.816 67.2106 45.9504 67.2185 46.0764 67.1824C46.2023 67.1464 46.3122 67.0687 46.3882 66.962C47.3058 65.5806 52.1176 53.9773 61.305 46.3216C72.4531 37.0317 86.7529 37.2673 100.217 36.1012C100.285 36.0927 100.347 36.0599 100.392 36.009C100.437 35.958 100.462 35.8924 100.462 35.8244C100.462 35.7565 100.437 35.6909 100.392 35.6399C100.347 35.589 100.285 35.5562 100.217 35.5477Z" fill="#191919"/>
<path d="M48.3728 70.9019C48.5173 70.7805 65.1622 56.384 70.8902 53.7989C74.2834 52.5522 77.8522 51.849 81.4647 51.7152C97.7672 50.0621 97.8698 50.8872 100.786 50.2413C100.851 50.2219 100.909 50.1819 100.95 50.1272C100.99 50.0725 101.012 50.0061 101.012 49.9378C101.012 49.8696 100.99 49.8031 100.95 49.7485C100.909 49.6938 100.851 49.6538 100.786 49.6344C97.6371 48.8671 86.0251 50.0419 82.7594 50.3656C74.8076 51.1516 71.802 51.2961 66.7416 54.9086C60.0837 59.6081 53.7703 64.7775 47.8497 70.3774C47.5086 70.7242 48.0115 71.1952 48.3728 70.9019Z" fill="#191919"/>
<path d="M61.4122 92.6919C60.3487 89.4956 57.2391 87.711 54.3317 85.9698C52.5327 84.8933 52.7032 85.0869 52.8867 85.019C53.2025 84.9073 53.4838 84.7153 53.703 84.4619C53.9221 84.2086 54.0716 83.9026 54.1367 83.574C54.2638 82.3403 53.9919 81.0984 53.3607 80.0308C49.5907 71.9518 36.8256 66.5923 27.0126 71.2871C8.40529 80.197 13.2937 112.225 34.1913 111.525C37.288 111.421 40.6245 110.931 43.0492 108.98C43.4572 108.591 43.8172 108.154 44.1214 107.679C51.1383 109.018 56.1929 108.967 59.5005 102.733C61.1579 99.6164 62.5249 96.0602 61.4122 92.6919ZM60.4397 95.4793C60.0899 98.6128 58.9294 101.601 57.0729 104.149C54.9733 106.763 52.0082 107.362 48.6731 107.125C43.9046 106.785 35.8372 104.428 35.6103 104.464C33.7923 103.58 32.2465 102.221 31.1359 100.532C30.0253 98.8426 29.3911 96.8849 29.3 94.8652C29.0226 89.4551 30.9964 84.7603 36.2909 83.113C41.4828 81.499 46.5591 83.4468 51.3334 86.0478C53.487 87.1891 55.5627 88.4717 57.5469 89.8872C58.4748 90.4861 59.2299 91.3174 59.7374 92.2983C60.2449 93.2793 60.487 94.3759 60.4397 95.4793Z" fill="#191919"/>
<path d="M34.9821 95.4841C35.2393 95.0506 34.7437 94.646 34.3362 94.8382C33.886 95.0255 33.5052 95.3482 33.2466 95.7616C32.9346 96.3151 32.7803 96.9436 32.8005 97.5787C32.8206 98.2138 33.0144 98.8313 33.3608 99.364C33.4495 99.5214 33.5685 99.6597 33.7108 99.7711C33.8531 99.8824 34.0161 99.9645 34.1902 100.013C34.317 100.046 34.4503 100.046 34.5768 100.011C34.7033 99.9773 34.8187 99.9105 34.9114 99.8178C35.0041 99.7251 35.0708 99.6098 35.1051 99.4832C35.1393 99.3567 35.1397 99.2234 35.1063 99.0966C34.7136 98.5817 34.4906 97.9574 34.4684 97.3102C34.4461 96.663 34.6256 96.0248 34.9821 95.4841Z" fill="#191919"/>
<path d="M38.3356 87.6927C38.3707 87.8164 38.4493 87.9233 38.557 87.9936C38.6646 88.064 38.7941 88.093 38.9215 88.0754C39.0489 88.0578 39.1657 87.9948 39.2502 87.8979C39.3348 87.801 39.3815 87.6768 39.3818 87.5482C39.4009 87.1865 39.4951 86.8327 39.6582 86.5093C39.8214 86.1859 40.0501 85.9 40.3297 85.6697C41.0984 85.1668 41.4438 85.3446 41.8325 85.005C42.1591 84.716 42.1749 84.4472 42.0449 84.2464C41.0984 82.7884 37.3804 85.0195 38.3356 87.6927Z" fill="#191919"/>
<path d="M40.8038 99.1663C40.4974 98.9713 40.298 99.1461 39.7605 98.7892C39.5538 98.5811 39.4715 98.3933 39.8298 98.0595C40.0235 97.928 40.0423 97.9395 40.4873 97.8514C40.5738 97.8557 40.6593 97.8313 40.7304 97.7819C40.8016 97.7325 40.8543 97.6609 40.8804 97.5783C40.9065 97.4957 40.9045 97.4068 40.8747 97.3255C40.8449 97.2442 40.7889 97.175 40.7156 97.1289C40.5483 97.0403 40.363 96.9909 40.1738 96.9844C39.8995 97.0002 39.6328 97.0797 39.3946 97.2163C39.1563 97.353 38.9531 97.5432 38.801 97.7719C38.6989 97.9406 38.631 98.1278 38.6014 98.3228C38.5717 98.5178 38.5809 98.7167 38.6283 98.9081C38.6756 99.0995 38.7604 99.2797 38.8775 99.4383C38.9947 99.597 39.142 99.7309 39.3111 99.8325C39.7126 100.097 40.1877 100.227 40.6679 100.204C40.7725 100.17 40.8654 100.108 40.9358 100.024C41.0062 99.9396 41.0511 99.8371 41.0654 99.7282C41.0796 99.6194 41.0626 99.5088 41.0162 99.4093C40.9699 99.3097 40.8962 99.2255 40.8038 99.1663Z" fill="#191919"/>
<path d="M44.1056 90.9697C44.183 90.9688 44.2585 90.9451 44.3226 90.9017C44.3867 90.8583 44.4367 90.7971 44.4664 90.7256C44.496 90.6541 44.5041 90.5755 44.4896 90.4994C44.475 90.4234 44.4385 90.3533 44.3845 90.2978C43.8065 89.8181 43.5594 89.1953 43.951 88.8268C44.5478 88.4626 45.3671 88.9395 45.529 88.2213C45.5523 88.1459 45.5599 88.0665 45.5514 87.988C45.5429 87.9095 45.5184 87.8336 45.4794 87.765C45.4404 87.6964 45.3877 87.6364 45.3247 87.5889C45.2616 87.5414 45.1895 87.5073 45.1128 87.4887C44.5689 87.3941 44.0091 87.4704 43.5103 87.7069C43.2106 87.8985 42.9748 88.175 42.8327 88.5011C42.6907 88.8272 42.649 89.1882 42.7128 89.5381C42.7767 89.8881 42.9432 90.2111 43.1913 90.466C43.4393 90.7209 43.7576 90.8963 44.1056 90.9697Z" fill="#191919"/>
<path d="M49.1846 96.7299C49.5263 96.203 49.6811 95.5765 49.6242 94.9511C49.5674 94.3256 49.3021 93.7374 48.8711 93.2807C48.8014 93.2154 48.7144 93.1716 48.6205 93.1544C48.5266 93.1373 48.4298 93.1475 48.3415 93.1839C48.2533 93.2204 48.1774 93.2814 48.123 93.3598C48.0685 93.4382 48.0378 93.5307 48.0344 93.6261C48.0416 94.4642 48.8133 95.2083 48.228 95.9814C48.0922 96.1028 48.0908 96.1432 47.9029 96.188C47.5186 96.1678 47.4246 95.993 46.5388 95.3861C44.0758 93.6467 41.1918 92.5989 38.1867 92.3516C38.0893 92.3553 37.9963 92.3932 37.9241 92.4586C37.8518 92.5241 37.8049 92.6129 37.7916 92.7095C37.7784 92.8061 37.7995 92.9042 37.8514 92.9868C37.9033 93.0693 37.9827 93.1309 38.0755 93.1608C40.0372 93.6387 41.9463 94.311 43.7746 95.1679C46.3611 96.4944 46.8091 97.4206 47.8668 97.4105C48.1234 97.4031 48.3751 97.3381 48.6032 97.2203C48.8313 97.1025 49.03 96.9349 49.1846 96.7299Z" fill="#191919"/>
<path d="M52.7425 92.2802C52.4391 92.2282 51.4637 92.4796 51.416 92.9073C51.1183 95.5397 50.3281 98.0926 49.0867 100.433C49.0039 100.578 48.9813 100.751 49.0236 100.913C49.066 101.075 49.1701 101.214 49.3135 101.3C50.3892 101.962 51.6557 102.245 52.9109 102.103C54.1661 101.961 55.3375 101.403 56.238 100.517C59.1005 97.3811 56.9735 93.0143 52.7425 92.2802ZM56.2293 97.6802C56.1155 98.2893 55.8606 98.8633 55.485 99.3562C55.1095 99.8491 54.6237 100.247 54.0666 100.519C53.5095 100.79 52.8966 100.927 52.277 100.919C51.6574 100.911 51.0482 100.758 50.4984 100.472C51.3961 98.7687 51.9787 96.9173 52.218 95.0069C52.2699 94.4779 52.2627 93.9448 52.1963 93.4174C52.3813 93.5229 56.4692 94.1052 56.2293 97.6802Z" fill="#191919"/>
<path d="M98.4259 27.3783C100.593 27.1154 106.199 25.325 112.052 26.861C112.605 27.0832 113.201 27.1785 113.796 27.1399C113.865 27.1375 113.931 27.1154 113.987 27.0764C114.043 27.0374 114.087 26.9831 114.113 26.9199C114.139 26.8567 114.147 26.7874 114.135 26.72C114.123 26.6527 114.091 26.5903 114.045 26.5402C113.891 26.3229 113.665 26.1665 113.408 26.0981C109.723 24.4725 101.677 25.0418 98.2265 26.6414C98.1539 26.6867 98.0978 26.7542 98.0665 26.8339C98.0352 26.9136 98.0304 27.0012 98.0527 27.0839C98.0751 27.1665 98.1234 27.2398 98.1907 27.2928C98.2579 27.3458 98.3403 27.3758 98.4259 27.3783Z" fill="#191919"/>
<path d="M73.7958 120.946C71.1385 117.451 65.2588 115.113 60.9483 114.216C60.7722 114.172 60.5861 114.199 60.4297 114.291C60.2733 114.383 60.1588 114.532 60.1106 114.707C60.0624 114.882 60.0843 115.069 60.1717 115.228C60.2591 115.386 60.405 115.505 60.5784 115.558C64.2586 116.286 67.748 117.768 70.8264 119.912C76.0486 123.813 74.3941 129.738 68.9276 129.608C64.8816 129.508 61.6333 125.706 57.0107 121.855C56.9208 121.766 56.799 121.715 56.6721 121.716C56.5451 121.716 56.4234 121.766 56.3337 121.856C56.244 121.946 56.1937 122.068 56.1939 122.195C56.194 122.322 56.2446 122.443 56.3344 122.533C57.376 123.786 58.5227 124.947 59.762 126.004C61.839 128.17 64.4119 129.799 67.2586 130.749C68.4669 131.083 69.743 131.081 70.9503 130.745C72.1577 130.408 73.2507 129.749 74.1123 128.839C74.9465 127.676 75.3684 126.268 75.3111 124.838C75.2538 123.408 74.7205 122.039 73.7958 120.946ZM68.2123 129.559C68.2629 129.559 68.2629 129.559 68.2123 129.559Z" fill="#191919"/>
<path d="M80.4978 95.5131C77.5375 94.1701 74.2854 93.5985 71.0446 93.8513C70.949 93.847 70.8536 93.8621 70.764 93.8957C70.6744 93.9293 70.5926 93.9807 70.5234 94.0468C70.4542 94.1129 70.3992 94.1924 70.3616 94.2803C70.324 94.3683 70.3046 94.463 70.3046 94.5587C70.3046 94.6543 70.324 94.749 70.3616 94.837C70.3992 94.925 70.4542 95.0044 70.5234 95.0705C70.5926 95.1366 70.6744 95.188 70.764 95.2216C70.8536 95.2552 70.949 95.2703 71.0446 95.266C74.6571 95.1764 78.352 95.3252 81.203 97.5505C84.7634 100.332 84.4499 104.291 82.3893 105.564C78.3433 108.064 70.0028 100.641 68.6315 99.7729C68.5287 99.7131 68.4077 99.6926 68.291 99.7154C68.1743 99.7381 68.0699 99.8026 67.9972 99.8967C67.9245 99.9908 67.8885 100.108 67.8959 100.227C67.9034 100.345 67.9537 100.457 68.0376 100.542C68.4806 101.074 68.9861 101.551 69.5433 101.962C72.7338 104.606 78.4878 108.582 82.3416 107.05C86.4541 105.41 86.4844 98.6921 80.4978 95.5131Z" fill="#191919"/>
<path d="M74.0848 98.1155C73.9403 99.2715 73.7626 100.42 73.6686 101.583C73.671 101.716 73.7121 101.846 73.7869 101.955C73.8618 102.065 73.967 102.151 74.0898 102.202C74.2126 102.252 74.3476 102.266 74.4781 102.241C74.6087 102.217 74.7291 102.154 74.8246 102.062C75.4026 101.43 75.9647 100.802 76.5326 100.169C76.5716 101.383 76.3289 102.614 76.8448 103.215C76.9234 103.306 77.02 103.381 77.1285 103.434C77.237 103.487 77.3552 103.517 77.4757 103.522C77.5963 103.528 77.7167 103.509 77.8296 103.466C77.9425 103.423 78.0455 103.358 78.1322 103.274C78.6261 102.642 79.0554 101.962 79.414 101.244C79.6683 100.865 79.8939 100.468 80.0888 100.056C80.1265 99.919 80.1178 99.7734 80.064 99.6418C80.0103 99.5101 79.9146 99.4 79.7918 99.3284C79.6689 99.2569 79.5259 99.2279 79.3849 99.2461C79.2439 99.2643 79.1129 99.3286 79.0123 99.429C78.5962 99.9918 78.2173 100.581 77.8779 101.193C77.9875 100.234 77.8635 99.2623 77.5167 98.3611C77.4638 98.2706 77.3909 98.1932 77.3037 98.1351C77.2164 98.0769 77.117 98.0394 77.013 98.0255C76.909 98.0115 76.8033 98.0215 76.7037 98.0547C76.6042 98.0878 76.5136 98.1432 76.4387 98.2166C75.9888 98.7137 75.5418 99.2127 75.0977 99.7137C75.1093 99.1804 75.1136 98.6487 75.1266 98.114C75.1266 98.0456 75.113 97.9779 75.0867 97.9147C75.0605 97.8516 75.022 97.7942 74.9736 97.7459C74.9251 97.6976 74.8676 97.6593 74.8044 97.6332C74.7412 97.6071 74.6734 97.5937 74.605 97.5938C74.5366 97.5939 74.4689 97.6075 74.4057 97.6338C74.3425 97.66 74.2852 97.6985 74.2369 97.7469C74.1886 97.7954 74.1503 97.8528 74.1242 97.9161C74.0981 97.9793 74.0847 98.0471 74.0848 98.1155Z" fill="#191919"/>
<path d="M64.4079 121.151C64.4063 121.026 64.36 120.905 64.2773 120.812C64.1946 120.718 64.081 120.657 63.9571 120.639C63.8317 120.619 63.7033 120.646 63.5966 120.715C63.4899 120.784 63.4124 120.89 63.3791 121.012C63.1641 122.203 63.027 123.406 62.9687 124.615C62.972 124.744 63.0127 124.869 63.0859 124.975C63.159 125.082 63.2614 125.165 63.3806 125.214C63.4999 125.263 63.6309 125.277 63.7579 125.254C63.8848 125.23 64.0022 125.17 64.0958 125.081C64.5871 124.545 65.0769 124.005 65.5654 123.466L65.7619 126.178C65.7645 126.298 65.7981 126.416 65.8594 126.519C65.9207 126.622 66.0077 126.708 66.1119 126.768C66.2161 126.828 66.334 126.86 66.4542 126.861C66.5744 126.862 66.6928 126.832 66.7979 126.773C67.9323 126.151 68.2993 124.854 68.9264 124.009C69.1938 123.696 69.4235 123.538 69.305 123.625C69.4443 123.528 69.5419 123.383 69.5785 123.217C69.615 123.052 69.5877 122.879 69.502 122.733C69.4163 122.586 69.2786 122.478 69.1164 122.429C68.9542 122.38 68.7795 122.394 68.6273 122.469C67.9249 123.007 67.3697 123.715 67.0132 124.525L66.8138 121.823C66.8116 121.688 66.7701 121.557 66.6945 121.446C66.6188 121.334 66.5122 121.248 66.3879 121.196C66.2635 121.145 66.1268 121.13 65.9945 121.155C65.8623 121.181 65.7402 121.244 65.6434 121.337C65.2258 121.803 64.8111 122.272 64.3978 122.74C64.4339 122.207 64.418 121.681 64.4079 121.151Z" fill="#191919"/>
<path d="M137.708 68.028C137.741 67.9063 137.728 67.7769 137.673 67.6636C137.618 67.5504 137.523 67.4611 137.407 67.4121C137.291 67.3631 137.161 67.3578 137.041 67.3972C136.922 67.4366 136.82 67.5179 136.756 67.6263C134.96 71.1882 133.794 81.3971 134.828 83.0473C134.862 83.1038 134.911 83.1506 134.968 83.183C135.026 83.2154 135.091 83.2325 135.157 83.2325C135.223 83.2325 135.288 83.2154 135.346 83.183C135.403 83.1506 135.451 83.1038 135.486 83.0473C135.554 82.928 135.612 82.8033 135.659 82.6745C135.688 82.5632 135.71 81.637 135.707 81.5185C135.636 76.9428 136.312 72.3862 137.708 68.028Z" fill="#191919"/>
<path d="M145.078 68.4929C145.114 68.019 144.371 67.9294 144.259 68.3817C142.98 73.5085 145.993 79.9113 145.197 85.4009C145.078 86.2216 144.783 86.9282 145.052 87.3632C145.115 87.4636 145.213 87.5363 145.328 87.5664C145.442 87.5964 145.564 87.5817 145.668 87.525C146.16 87.2909 146.312 86.2664 146.39 85.7303C147.234 80.0934 144.577 75.0836 145.078 68.4929Z" fill="#191919"/>
<path d="M142.343 83.2989C142.371 84.1241 142.294 84.9494 142.116 85.7554C142.033 86.0588 141.999 86.3735 142.016 86.6875C142.119 87.4793 143.645 87.868 143.199 83.3033C143.184 83.2009 143.133 83.1073 143.055 83.0395C142.976 82.9717 142.876 82.9341 142.773 82.9336C142.669 82.9331 142.569 82.9696 142.49 83.0366C142.411 83.1036 142.359 83.1967 142.343 83.2989Z" fill="#191919"/>
<path d="M140.258 83.4642C139.643 85.727 139.638 85.6317 139.717 86.1952C139.743 86.2727 139.79 86.3414 139.853 86.3933C139.915 86.4453 139.992 86.4785 140.073 86.4891C140.154 86.4996 140.236 86.4872 140.31 86.4531C140.384 86.419 140.447 86.3647 140.492 86.2964C140.752 85.9264 140.746 85.8513 141.182 83.717C141.21 83.5962 141.191 83.4693 141.127 83.3628C141.063 83.2563 140.961 83.1786 140.842 83.1459C140.722 83.1132 140.594 83.1281 140.485 83.1874C140.377 83.2467 140.295 83.3459 140.258 83.4642Z" fill="#191919"/>
<path d="M137.597 82.619C137.467 82.5999 137.334 82.629 137.224 82.7009C137.114 82.7728 137.035 82.8824 137 83.0092C136.711 84.6637 136.546 85.1839 136.847 85.8905C136.868 85.9586 136.909 86.019 136.964 86.0649C137.019 86.1107 137.085 86.1399 137.156 86.1492C137.227 86.1584 137.299 86.1473 137.364 86.1171C137.428 86.0869 137.483 86.0389 137.522 85.9786C137.984 85.3631 137.964 84.6651 138.071 83.1551C138.07 83.0235 138.022 82.8966 137.934 82.798C137.847 82.6994 137.727 82.6358 137.597 82.619Z" fill="#191919"/>
<path d="M160.931 84.6528C159.497 79.5852 160.905 73.3124 159.775 68.7809C159.658 68.3084 158.857 68.3922 158.908 68.898C159.539 75.3268 158.029 81.2628 160.24 86.5703C160.437 87.2994 160.864 87.9455 161.458 88.4127C161.528 88.4524 161.608 88.4731 161.688 88.4728C161.769 88.4725 161.848 88.4511 161.918 88.4108C161.988 88.3706 162.046 88.3128 162.087 88.2432C162.127 88.1736 162.149 88.0945 162.15 88.0139C162.088 87.0472 161.55 86.8246 160.931 84.6528Z" fill="#191919"/>
<path d="M164.714 85.4435C164.614 85.2037 164.227 84.0159 164.202 83.9407C164.177 83.8595 164.124 83.7897 164.053 83.744C163.981 83.6982 163.895 83.6793 163.811 83.6908C163.727 83.7022 163.65 83.7433 163.593 83.8065C163.536 83.8698 163.504 83.9512 163.501 84.0361C163.538 85.2354 163.966 86.3898 164.719 87.3235C164.795 87.3995 164.895 87.4451 165.002 87.4515C165.109 87.4579 165.214 87.4247 165.297 87.3582C165.773 86.9883 165.18 86.5678 164.714 85.4435Z" fill="#191919"/>
<path d="M167.673 85.2058C167.327 84.5574 167.037 83.8806 166.806 83.1828C166.773 83.0821 166.703 82.9978 166.61 82.9476C166.516 82.8974 166.407 82.8851 166.305 82.9132C166.203 82.9413 166.116 83.0076 166.061 83.0985C166.007 83.1893 165.989 83.2976 166.013 83.401C166.153 84.1966 166.475 84.9491 166.953 85.6002C167.401 86.067 167.909 85.7867 167.673 85.2058Z" fill="#191919"/>
<path d="M169.643 83.8926C169.361 83.4449 169.148 82.958 169.009 82.4476C168.977 82.3326 168.901 82.2349 168.797 82.176C168.694 82.117 168.571 82.1017 168.456 82.1333C168.341 82.1649 168.243 82.2409 168.184 82.3445C168.125 82.4482 168.11 82.571 168.142 82.686C168.717 85.498 170.14 84.8304 169.643 83.8926Z" fill="#191919"/>
<path d="M171.653 81.6774C170.407 77.445 170.465 72.0176 167.896 68.0944C167.846 68.0209 167.769 67.9693 167.682 67.9499C167.595 67.9305 167.504 67.9447 167.427 67.9898C167.35 68.0348 167.293 68.1073 167.268 68.1927C167.242 68.278 167.25 68.3699 167.289 68.4499C169.457 72.5652 169.087 77.3077 170.407 81.9101C170.574 82.4881 170.712 83.277 171.246 83.6253C171.312 83.6635 171.387 83.6862 171.463 83.6914C171.54 83.6967 171.617 83.6845 171.688 83.6556C171.759 83.6268 171.823 83.5822 171.875 83.5251C171.926 83.468 171.964 83.4 171.985 83.3262C172.02 82.757 171.905 82.1888 171.653 81.6774Z" fill="#191919"/>
<path d="M61.6492 240.366C60.6493 246.476 60.2591 253.188 63.5812 258.411C70.8914 269.906 92.2933 269.042 101.102 245.827C104.215 237.622 107.171 233.326 108.015 228.961C108.585 226.509 108.209 223.932 106.962 221.746C105.654 219.993 103.976 218.549 102.049 217.517C95.3322 213.264 89.6894 209.764 81.846 208.493C74.7655 207.344 74.043 210.346 71.1703 212.33C69.5678 213.439 67.6098 213.92 65.9524 214.931C64.7264 215.702 63.6986 216.75 62.9517 217.991C62.2048 219.231 61.7596 220.63 61.6521 222.074C61.7411 224.498 62.0531 226.909 62.5841 229.276C62.7934 232.998 62.4787 236.732 61.6492 240.366ZM68.4841 233.518C69.0937 232.018 69.9618 230.637 71.0489 229.436C74.7091 225.07 79.5932 221.344 85.2518 220.667C90.9105 219.989 93.0548 223.512 94.153 229.202C95.3625 235.479 95.8263 242.167 92.0361 247.349C89.9885 248.435 88.7661 249.555 86.3905 249.127C84.3253 248.54 82.4113 247.513 80.7796 246.117C73.9245 241.297 70.2311 241.457 68.591 238.234C68.2561 237.494 68.0741 236.695 68.0557 235.884C68.0373 235.073 68.183 234.266 68.4841 233.513V233.518Z" fill="black"/>
<path d="M89.4868 240.768C89.0158 241.733 87.6329 241.852 87.3598 240.827C87.2153 240.307 87.3598 239.587 86.8916 239.306C86.8019 239.254 86.7013 239.225 86.598 239.22C86.4947 239.214 86.3916 239.234 86.2972 239.276C86.2028 239.318 86.1198 239.382 86.0548 239.463C85.9899 239.543 85.9449 239.638 85.9235 239.739C85.8125 240.259 85.8511 240.8 86.0347 241.298C86.1607 241.789 86.4553 242.219 86.8668 242.513C87.2783 242.808 87.7805 242.948 88.2852 242.909C88.7898 242.87 89.2646 242.655 89.6263 242.301C89.9879 241.947 90.2133 241.477 90.2628 240.973C90.2598 240.883 90.2278 240.796 90.1717 240.726C90.1156 240.656 90.0382 240.605 89.9511 240.582C89.864 240.559 89.7718 240.565 89.6882 240.598C89.6046 240.632 89.534 240.691 89.4868 240.768Z" fill="#191919"/>
<path d="M76.7569 235.862C76.6557 235.819 76.5423 235.815 76.4379 235.849C76.3334 235.883 76.245 235.954 76.189 236.049C76.1231 236.146 76.0356 236.226 75.9335 236.284C75.8313 236.342 75.7172 236.375 75.6 236.381C75.4829 236.387 75.3659 236.366 75.2583 236.319C75.1506 236.273 75.0552 236.202 74.9795 236.112C74.4333 235.322 74.9044 235.033 74.9333 234.079C74.9492 233.501 74.468 233.342 74.1053 233.624C73.9168 233.747 73.7591 233.912 73.6446 234.105C73.5301 234.299 73.4617 234.517 73.4449 234.741C73.088 236.727 74.6558 238.005 76.004 237.546C76.8306 237.27 77.3883 236.114 76.7569 235.862Z" fill="#191919"/>
<path d="M87.1333 233.927L86.0755 232.982C85.7229 232.669 85.1262 231.997 84.6305 232.494C84.5279 232.618 84.474 232.776 84.4791 232.937C84.4841 233.098 84.5477 233.252 84.658 233.37C84.7505 233.474 85.2548 233.891 85.7764 234.341C84.039 235.718 82.6269 237.462 81.6408 239.447C81.5917 239.54 81.5804 239.648 81.6091 239.749C81.6379 239.849 81.7044 239.935 81.795 239.988C81.8855 240.041 81.9929 240.057 82.0948 240.032C82.1967 240.008 82.2852 239.945 82.3416 239.856C82.674 239.378 83.0497 238.937 83.4008 238.472C84.4179 237.097 85.6356 235.884 87.0133 234.871C87.0912 234.823 87.1573 234.759 87.2068 234.682C87.2564 234.605 87.2881 234.519 87.2996 234.428C87.3111 234.337 87.3022 234.245 87.2734 234.159C87.2446 234.072 87.1967 233.993 87.1333 233.927Z" fill="#191919"/>
<path d="M83.376 230.458C84.0981 230.185 84.8671 230.057 85.6389 230.082C86.4106 230.107 87.1698 230.284 87.8729 230.603C87.8402 230.759 87.864 230.921 87.9401 231.061C88.0161 231.201 88.1395 231.31 88.2882 231.367C88.4368 231.425 88.601 231.428 88.7516 231.375C88.9021 231.323 89.029 231.218 89.1098 231.081C91.0764 227.009 88.5607 222.761 85.8397 223.87C83.8341 224.687 82.6362 227.609 82.4946 229.795C82.4964 229.901 82.5224 230.006 82.5708 230.101C82.6191 230.195 82.6883 230.278 82.7733 230.342C82.8583 230.406 82.9568 230.45 83.0612 230.47C83.1657 230.49 83.2733 230.486 83.376 230.458ZM86.8715 225.067C88.3526 225.438 88.6387 228.084 88.237 229.568C86.9745 228.797 85.4668 228.534 84.0176 228.83C84.3095 227.396 85.399 225.067 86.8715 225.067Z" fill="#191919"/>
<path d="M108.49 221.92C109.93 219.996 111.272 218.001 112.51 215.942C113.241 214.514 113.848 212.709 112.484 211.827C112.15 211.659 111.785 211.563 111.411 211.546C111.038 211.528 110.665 211.59 110.317 211.725C107.794 212.427 105.471 213.71 103.533 215.471C103.369 215.617 103.236 215.795 103.142 215.993C103.048 216.192 102.995 216.407 102.986 216.627C102.987 216.717 103.023 216.803 103.087 216.866C103.15 216.93 103.236 216.966 103.326 216.966C103.828 216.924 104.298 216.7 104.647 216.335C105.914 215.229 107.35 214.331 108.899 213.676C109.703 213.34 110.54 213.087 111.396 212.923C111.789 212.905 111.875 213.084 111.908 213.335C112.078 214.597 109.967 217.292 107.631 221.416C107.564 221.53 107.545 221.665 107.578 221.793C107.611 221.921 107.694 222.031 107.808 222.098C107.922 222.164 108.058 222.183 108.186 222.15C108.314 222.117 108.423 222.034 108.49 221.92Z" fill="#191919"/>
<path d="M85.6693 208.433C87.1143 198.505 83.2128 197.155 81.2273 198.69C80.2141 199.664 79.5559 200.948 79.3575 202.34C78.057 207.565 78.0758 207.292 78.2015 207.74C78.2326 207.848 78.2913 207.947 78.3717 208.026C78.4522 208.105 78.5518 208.162 78.6608 208.191C78.7698 208.22 78.8845 208.22 78.9936 208.192C79.1028 208.163 79.2028 208.107 79.2838 208.029C79.6812 207.621 79.5728 207.683 80.5583 203.737C80.7276 202.356 81.2546 201.043 82.0871 199.928C83.3659 198.801 84.3688 201.259 84.5436 203.519C84.8976 207.956 84.2748 208.701 85.0855 208.806C85.2119 208.829 85.3423 208.804 85.4506 208.734C85.5589 208.665 85.637 208.558 85.6693 208.433Z" fill="#191919"/>
<path d="M35.4958 201.703C35.5374 201.744 35.5877 201.774 35.6429 201.793C35.6981 201.811 35.7568 201.817 35.8146 201.81C35.8724 201.802 35.9277 201.782 35.9763 201.75C36.025 201.718 36.0657 201.675 36.0955 201.625C36.5203 200.87 36.1995 200.255 36.529 196.586C36.814 194.436 36.8164 192.258 36.5362 190.108C36.4163 189.652 36.2632 189.204 36.0781 188.77C36.0386 188.654 35.9565 188.558 35.8484 188.501C35.7404 188.444 35.6146 188.43 35.4967 188.463C35.3789 188.495 35.2779 188.571 35.2143 188.676C35.1508 188.78 35.1295 188.905 35.1548 189.024C35.1967 189.241 35.3629 191.185 35.3773 191.404C35.6085 195.105 34.3586 200.392 35.4958 201.703Z" fill="#191919"/>
<path d="M34.8475 213.1C35.0468 213.806 35.4344 214.443 35.9688 214.945C36.2578 215.156 36.6061 214.867 36.6249 214.568C36.7043 213.279 33.1569 208.223 33.5802 197.442C33.5735 197.318 33.5196 197.202 33.4297 197.117C33.3398 197.032 33.2207 196.984 33.0969 196.984C32.9731 196.984 32.854 197.032 32.7641 197.117C32.6742 197.202 32.6203 197.318 32.6135 197.442C32.0177 202.766 32.7865 208.155 34.8475 213.1Z" fill="#191919"/>
<path d="M26.3134 207.631C26.3742 208.355 26.5954 209.057 26.9607 209.684C27.1139 209.916 27.5546 209.923 27.6124 209.598C27.7065 208.335 27.6478 207.066 27.4376 205.818C27.0604 200.095 28.3277 195.354 29.0647 190.356C29.092 190.242 29.0739 190.121 29.0141 190.02C28.9543 189.919 28.8575 189.845 28.7441 189.813C28.6307 189.782 28.5096 189.796 28.4063 189.852C28.303 189.908 28.2256 190.003 28.1904 190.115C26.7599 195.139 25.5548 202.462 26.3134 207.631Z" fill="#191919"/>
<path d="M31.3563 211.172C31.8028 212.544 32.3475 212.571 32.4704 212.184C32.8403 211.01 31.8418 210.367 30.9069 201.262C30.9069 201.145 30.8603 201.033 30.7774 200.95C30.6944 200.867 30.582 200.82 30.4647 200.82C30.3474 200.82 30.235 200.867 30.152 200.95C30.0691 201.033 30.0225 201.145 30.0225 201.262C29.9983 204.612 30.4473 207.948 31.3563 211.172Z" fill="#191919"/>
<path d="M28.8824 201.985C28.8824 201.885 28.8428 201.79 28.7723 201.719C28.7019 201.649 28.6063 201.609 28.5067 201.609C28.407 201.609 28.3114 201.649 28.241 201.719C28.1705 201.79 28.131 201.885 28.131 201.985C27.8017 204.372 28.0642 206.804 28.8954 209.065C28.9744 209.42 29.1593 209.742 29.4257 209.989C29.4727 210.034 29.5319 210.065 29.596 210.077C29.6602 210.089 29.7265 210.082 29.7868 210.057C29.8471 210.032 29.8988 209.99 29.9355 209.936C29.9723 209.882 29.9924 209.819 29.9936 209.753C29.9849 208.886 29.956 209.456 29.5601 207.811C29.0624 205.91 28.8343 203.949 28.8824 201.985Z" fill="#191919"/>
<path d="M60.2561 238.179C48.8132 232.33 39.4958 226.112 31.0758 216.666C24.9738 209.905 20.2434 202.023 17.1474 193.458C14.8354 186.92 9.78948 168.097 8.91815 157.735C11.6521 157.507 17.8526 156.894 20.8091 156.262C21.5922 156.095 21.4318 154.778 20.6169 154.846C17.5694 155.105 15.636 155.569 8.04537 156.174C7.82977 156.177 7.62384 156.264 7.47137 156.417C7.31891 156.569 7.23193 156.775 7.22894 156.991C8.02406 164.799 9.51103 172.521 11.6723 180.066C15.3455 194.188 18.2528 203.877 28.4921 216.038C37.0018 226.08 47.7458 233.99 59.8631 239.132C60.4006 239.351 60.7792 238.447 60.2561 238.179Z" fill="#191919"/>
<path d="M62.9008 214.553C61.2231 213.191 55.8333 210.674 51.3162 207.111C43.7488 201.143 40.9484 194.765 40.7908 185.307C40.8528 178.308 41.6858 171.337 43.2748 164.521C44.269 160.135 44.6273 159.874 44.2372 159.15C43.8772 158.661 43.3395 158.334 42.7402 158.238C42.1622 158.046 41.6029 157.862 41.0148 157.719C40.8468 157.675 40.6685 157.693 40.5124 157.769C40.3564 157.845 40.2331 157.976 40.1652 158.135C40.0956 158.295 40.0866 158.474 40.1399 158.639C40.1931 158.805 40.3048 158.945 40.4542 159.034C41.3212 159.419 42.1087 159.677 42.7936 159.913C40.5645 167.941 39.3823 176.224 39.2765 184.556C39.3285 200.475 47.013 207.653 61.5541 215.045C61.834 215.173 62.124 215.277 62.4211 215.357C62.8719 215.492 63.2779 214.859 62.9008 214.553Z" fill="#191919"/>
<path d="M15.1725 154.904C14.707 147.657 16.1625 140.415 19.3919 133.911C19.5292 133.641 19.7821 133.014 19.7011 133.21C20.204 132.046 19.1708 131.535 18.5076 132.558C17.1109 135.098 16.0237 137.796 15.2693 140.594C13.9686 145.244 13.5698 150.1 14.0945 154.9C14.094 155.043 14.1502 155.18 14.2509 155.281C14.3516 155.383 14.4884 155.44 14.6314 155.441C14.7743 155.441 14.9116 155.385 15.0131 155.284C15.1146 155.184 15.1719 155.047 15.1725 154.904Z" fill="#191919"/>
<path d="M19.4508 142.415C19.452 142.526 19.4931 142.632 19.5667 142.715C19.6402 142.798 19.7412 142.852 19.8511 142.866C19.9607 142.882 20.0725 142.858 20.1654 142.797C20.2583 142.737 20.3259 142.645 20.3554 142.538C21.3669 135.444 23.7208 132.546 23.6153 131.586C23.6132 131.524 23.5953 131.464 23.5633 131.411C23.5312 131.357 23.4862 131.313 23.4323 131.283C23.3784 131.252 23.3176 131.235 23.2556 131.234C23.1935 131.234 23.1323 131.249 23.0778 131.278C22.0879 131.744 19.6517 137.09 19.4508 142.415Z" fill="#191919"/>
<path d="M100.905 33.6585C100.575 30.8617 99.6628 28.1651 98.2262 25.7428C98.1497 25.6159 98.0342 25.5171 97.897 25.4611C97.7598 25.4051 97.6081 25.395 97.4647 25.4321C89.1678 27.489 81.4076 31.2987 74.7059 36.6049C74.4444 36.826 74.7868 37.2681 75.0715 37.0803C76.0975 36.4084 77.1147 35.8347 77.1827 35.7885C80.6082 33.5159 84.2361 31.5641 88.0202 29.9579C88.2022 30.1746 88.7239 30.5937 89.8365 31.6572C90.9057 32.665 91.7899 33.8525 92.4491 35.1657C92.5269 35.2911 92.647 35.3846 92.7877 35.4294C92.9283 35.4742 93.0804 35.4673 93.2164 35.41C93.3525 35.3527 93.4636 35.2487 93.5298 35.1168C93.596 34.9848 93.613 34.8336 93.5776 34.6903C92.6904 32.0531 90.3986 29.3539 89.4059 29.3929C91.9783 28.3672 94.6195 27.5232 97.3101 26.867C98.4765 29.2714 99.3395 31.8114 99.8793 34.4287C99.933 34.5161 100.011 34.5861 100.103 34.6302C100.196 34.6744 100.299 34.6908 100.401 34.6775C100.503 34.6642 100.599 34.6218 100.677 34.5554C100.755 34.4889 100.812 34.4013 100.842 34.303C100.899 34.0933 100.921 33.8754 100.905 33.6585Z" fill="url(#paint1_linear_414_4207)"/>
<path d="M84.5725 52.3745C82.7971 56.5209 81.1695 60.729 79.6927 64.9908C77.3489 62.7337 71.5805 58.0953 68.4477 57.4421C68.2808 57.3745 68.102 57.3414 67.922 57.3446C67.742 57.3478 67.5644 57.3874 67.4001 57.4609C67.2727 57.5398 67.1804 57.6645 67.1422 57.8094C67.104 57.9543 67.1229 58.1084 67.1949 58.2398C67.403 58.7224 69.111 59.4247 69.6702 59.705C74.3476 62.043 78.661 65.9893 79.3156 66.0775C77.4746 71.4557 76.3013 75.4396 75.3158 78.8209C70.6282 73.944 70.0748 73.0929 68.9867 72.1363C66.2988 69.7055 63.3695 67.5558 60.2445 65.7205C59.5207 65.2299 58.6961 64.9079 57.8313 64.7784C57.7247 64.7809 57.6205 64.8109 57.5288 64.8655C57.4371 64.9201 57.3611 64.9974 57.3081 65.0899C57.255 65.1825 57.2268 65.2872 57.2261 65.3939C57.2253 65.5005 57.2521 65.6056 57.3039 65.6989C57.8819 66.6526 60.4496 67.2046 65.8944 71.6234C69.1026 74.232 72.1283 77.0573 74.9502 80.0795C74.0228 83.4638 72.9134 86.7955 71.6267 90.0601C70.3262 88.9764 68.5734 87.4851 67.7498 86.8334C65.3858 84.9651 55.7173 78.0291 54.1798 77.3802C53.6018 77.1375 53.4226 76.9944 52.9963 77.0782C52.9028 77.1055 52.8237 77.1682 52.7757 77.2529C52.7276 77.3376 52.7145 77.4377 52.7391 77.532C52.9053 78.3108 55.2375 79.7631 56.0467 80.3078C66.6863 87.4678 68.6413 89.209 71.1831 91.1092C70.1798 93.4412 69.0851 95.7328 67.9015 97.9787C67.9059 97.8846 67.884 97.7911 67.8383 97.7087C67.7926 97.6263 67.725 97.5582 67.6428 97.512C64.7182 96.0005 64.6835 95.9369 64.0014 96.067C63.9304 96.0877 63.865 96.1241 63.8101 96.1737C63.7552 96.2233 63.7122 96.2846 63.6844 96.3532C63.6566 96.4217 63.6447 96.4957 63.6495 96.5695C63.6544 96.6433 63.6759 96.7151 63.7124 96.7794C64.0491 97.3386 64.1185 97.3299 67.2354 98.4787C67.3107 98.5033 67.3911 98.5087 67.4691 98.4943C67.5471 98.4799 67.6202 98.4462 67.6819 98.3963C66.429 100.781 62.6244 107.756 62.0073 108.88C61.9746 108.807 61.9274 108.741 61.8685 108.686C61.8097 108.631 61.7404 108.589 61.6649 108.562C58.8081 107.368 59.2084 107.506 58.4339 107.396C58.3029 107.354 58.1612 107.364 58.0366 107.421C57.912 107.479 57.8135 107.582 57.7605 107.708C57.7074 107.835 57.7037 107.977 57.7499 108.106C57.7962 108.236 57.8891 108.343 58.0105 108.407C58.7489 108.841 58.444 108.727 61.3903 109.572C61.4706 109.591 61.5543 109.591 61.6345 109.572C59.9005 112.767 58.1665 115.976 56.4759 119.204C50.9733 116.098 54.7014 117.635 42.6776 113.024C42.1404 112.795 41.5521 112.712 40.9725 112.784C40.901 112.806 40.8353 112.843 40.78 112.894C40.7248 112.944 40.6814 113.006 40.6531 113.075C40.6247 113.144 40.6121 113.219 40.6161 113.294C40.6201 113.368 40.6407 113.441 40.6763 113.507C40.9927 114.064 41.919 114.551 51.1814 117.865C51.966 118.154 54.4457 119.501 55.9499 120.209C54.5136 122.957 53.111 125.72 51.7421 128.497C48.7336 127.525 42.2903 125.879 40.0376 125.237C31.0786 122.681 30.6104 122.265 27.7132 121.392C28.2565 119.08 28.8301 116.768 29.4038 114.456C29.441 114.291 29.4131 114.117 29.3259 113.972C29.2387 113.826 29.0988 113.72 28.9353 113.675C28.7718 113.63 28.5972 113.649 28.4477 113.729C28.2982 113.809 28.1852 113.944 28.1322 114.105C26.6213 118.916 25.448 123.827 24.6209 128.802C20.9647 149.278 21.6569 170.295 26.6525 190.486C26.7098 190.683 26.8415 190.849 27.0196 190.95C27.1977 191.051 27.4082 191.078 27.6062 191.027L36.8672 188.365C37.0289 188.317 37.1712 188.219 37.2733 188.085C37.3755 187.951 37.4322 187.788 37.4351 187.619C36.6794 151.863 58.7489 119.683 70.3912 96.369C77.2608 82.6111 76.4198 74.983 85.6519 52.8109C85.899 52.2199 84.834 51.7662 84.5725 52.3745ZM27.9588 189.324C27.0109 185.434 26.2234 181.508 25.5962 177.549C27.271 177.611 27.1048 177.523 33.1478 176.707C34.2552 176.594 35.3441 176.342 36.3889 175.958C35.9903 179.641 35.819 183.346 35.876 187.05L27.9588 189.324ZM36.5262 174.749C35.6823 174.925 33.9252 175.247 33.0134 175.327C30.4858 175.75 27.9324 176.001 25.3708 176.08C24.7543 171.913 24.3184 167.723 24.0631 163.508C24.2799 163.591 24.5038 163.655 24.7321 163.697C28.6201 164.018 32.5257 164.069 36.4207 163.849C36.5321 163.814 36.6294 163.745 36.6985 163.651C36.7677 163.557 36.805 163.444 36.805 163.327C36.805 163.211 36.7677 163.097 36.6985 163.003C36.6294 162.91 36.5321 162.84 36.4207 162.806C35.561 162.576 26.969 162.364 25.5832 162.249C25.0171 162.189 24.4681 162.02 23.9663 161.751C23.7466 157.195 23.7423 152.626 23.9533 148.042C25.9835 149.997 36.3066 151.721 38.5651 151.98C39.2143 152.106 39.8813 152.109 40.5318 151.99C40.6415 151.958 40.7396 151.894 40.8141 151.807C40.8886 151.721 40.9364 151.614 40.9517 151.501C40.967 151.387 40.9491 151.272 40.9002 151.168C40.8513 151.065 40.7736 150.978 40.6763 150.918C39.8541 150.484 38.2198 150.499 34.1217 149.632C31.7079 149.138 29.3225 148.514 26.9762 147.762C25.904 147.379 24.7061 146.461 24.0472 146.357C24.2553 142.764 24.6001 139.173 25.0818 135.583C25.2987 135.686 25.5217 135.776 25.7494 135.852C31.3603 137.791 36.9236 139.754 43.3192 140.288C43.466 140.286 43.6071 140.23 43.7167 140.133C43.8263 140.035 43.8973 139.901 43.9167 139.755C43.9361 139.61 43.9027 139.462 43.8225 139.339C43.7423 139.216 43.6206 139.126 43.4796 139.085C38.3397 137.823 35.9526 137.484 30.3763 135.732C29.2044 135.365 26.7378 134.339 25.3188 133.94C25.8554 130.269 26.536 126.609 27.3606 122.958C33.4658 125.194 39.7158 127.013 46.0676 128.402C46.7337 128.529 50.3852 129.566 51.1857 129.653C44.1544 144.116 38.4163 159.033 36.5262 174.749Z" fill="url(#paint2_linear_414_4207)"/>
<path d="M250.58 107.006C250.551 107.172 250.56 107.343 250.604 107.506C250.648 107.669 250.727 107.821 250.836 107.951C250.952 108.063 251.107 108.125 251.269 108.125C251.431 108.125 251.586 108.063 251.703 107.951C251.811 107.821 251.891 107.67 251.935 107.506C251.98 107.343 251.988 107.172 251.96 107.006C252.173 105.258 251.715 103.495 250.677 102.074C250.617 101.985 250.526 101.922 250.422 101.898C250.318 101.873 250.209 101.89 250.116 101.944C250.024 101.998 249.956 102.085 249.926 102.188C249.895 102.29 249.906 102.4 249.954 102.496C250.437 103.948 250.649 105.477 250.58 107.006Z" fill="#191919"/>
<path d="M256.704 115.709C256.128 114.76 255.247 114.035 254.206 113.653C254.114 113.593 254.004 113.57 253.897 113.588C253.789 113.606 253.692 113.664 253.626 113.75C253.559 113.836 253.527 113.945 253.537 114.053C253.546 114.162 253.596 114.263 253.677 114.336C254.213 114.817 254.086 114.845 254.643 115.414C255.441 116.218 256.056 117.184 256.445 118.248C256.518 118.528 256.629 118.797 256.776 119.047C256.846 119.168 256.953 119.262 257.082 119.316C257.211 119.369 257.354 119.378 257.488 119.342C257.623 119.306 257.742 119.226 257.826 119.115C257.911 119.004 257.956 118.868 257.955 118.729C257.81 117.63 257.378 116.589 256.704 115.709Z" fill="#191919"/>
<path d="M253.934 108.917C249.256 110.261 247.214 110.04 244.342 110.856C244.15 110.911 243.987 111.039 243.889 111.213C243.79 111.387 243.764 111.593 243.816 111.785C244.223 112.87 244.77 113.898 245.443 114.842C245.547 114.988 245.703 115.09 245.879 115.128C246.055 115.166 246.238 115.137 246.394 115.047C246.55 114.957 246.666 114.811 246.72 114.64C246.774 114.468 246.762 114.282 246.687 114.119C246.262 113.48 245.887 112.808 245.567 112.111C248.746 111.368 252.114 111.118 254.254 109.687C254.346 109.638 254.417 109.557 254.452 109.459C254.487 109.36 254.484 109.253 254.444 109.156C254.404 109.06 254.33 108.982 254.235 108.938C254.141 108.894 254.033 108.886 253.934 108.917Z" fill="#191919"/>
<path d="M243.627 117.295C242.997 117.092 242.641 117.67 241.737 117.648C241.435 117.633 241.15 117.505 240.938 117.291C240.805 117.138 240.72 116.95 240.693 116.749C240.682 116.117 240.903 115.502 241.315 115.021C241.415 114.963 241.49 114.871 241.527 114.762C241.564 114.653 241.559 114.534 241.515 114.427C241.47 114.321 241.388 114.234 241.284 114.184C241.18 114.134 241.062 114.123 240.951 114.154C240.397 114.437 239.946 114.887 239.664 115.441C239.381 115.995 239.281 116.625 239.377 117.239C239.534 117.826 239.899 118.335 240.405 118.672C240.91 119.01 241.52 119.151 242.122 119.071C244.226 118.842 244.33 117.525 243.627 117.295ZM241.647 117.644H241.679C241.666 117.646 241.654 117.646 241.641 117.644H241.647Z" fill="#191919"/>
<path d="M271.082 122.09C274.298 119.97 278.463 115.821 276.717 112.408C277.291 111.159 277.595 109.803 277.609 108.429C277.623 107.054 277.347 105.692 276.8 104.432C275.978 101.668 274.59 99.1061 272.723 96.9089C271.214 95.3275 269.348 94.1312 267.281 93.4206C265.214 92.71 263.006 92.5059 260.844 92.8254C260.009 93.0061 259.253 93.4476 258.686 94.0861C258.119 94.7246 257.769 95.5269 257.688 96.3772C257.594 97.1922 257.565 96.1127 252.011 98.2831C251.706 96.0578 248.418 95.8021 246.298 97.2225C244.479 98.4421 243.504 100.654 245.056 101.617C245.2 101.617 239.709 104.572 237.6 106.138C232.895 109.639 233.166 113.807 235.386 119.166C237.431 124.102 239.326 127.887 244.715 127.909C247.813 127.726 250.86 127.028 253.729 125.844C253.873 125.852 253.993 126.034 254.25 126.277C255.314 127.216 256.701 127.704 258.119 127.638C259.536 127.572 260.872 126.957 261.844 125.923C263.803 125.932 268.131 123.832 269.757 122.9C275.067 133.203 279.844 144.5 280.201 156.239C280.402 167.141 279.179 178.022 276.563 188.607C274.86 194.705 272.485 200.595 269.482 206.168C266.011 205.507 262.616 204.496 259.35 203.15C263.069 195.089 267.875 181.265 265.952 172.62C262.958 159.206 233.21 141.743 230.185 99.8018C229.976 94.051 229.13 88.3411 227.662 82.7768C221.154 61.2131 211.692 55.9952 198.557 40.9296C200.508 37.7122 203.086 34.9192 206.136 32.7163C228.498 46.9004 242.164 69.6346 253.93 93.3774C254.263 94.0522 255.247 93.4612 254.941 92.7892C243.751 68.8572 228.801 45.0016 206.548 30.9635C206.419 30.8862 206.271 30.8454 206.12 30.8454C205.97 30.8454 205.822 30.8862 205.693 30.9635C205.35 31.2005 205.012 31.4461 204.681 31.6961C204.634 31.3984 204.518 31.1157 204.344 30.8695C201.759 26.2528 196.397 22.1071 191.909 19.5205C191.464 19.2648 191.058 19.9006 191.403 20.1765C195.706 23.6185 200.233 26.2065 203.187 31.303C203.373 31.6267 203.59 32.1411 203.922 32.2828C201.52 34.2055 199.428 36.4876 197.722 39.0482C196.783 38.7231 196.814 38.8127 195.843 38.4428C190.786 36.5267 189.419 33.2076 187.286 31.4981C186.265 30.6788 184.432 29.6543 183.331 30.3566C183.259 30.4008 183.198 30.463 183.157 30.5371C183.115 30.6113 183.093 30.6949 183.093 30.78C183.093 30.865 183.115 30.9486 183.157 31.0228C183.198 31.0969 183.259 31.1591 183.331 31.2033C184.305 31.7611 184.736 31.3941 186.147 32.4403C188.397 34.1092 189.951 38.0078 196.156 39.9311C196.445 40.0193 196.725 40.1074 197.015 40.1696C196.758 40.6031 196.403 41.0438 196.903 41.6218C209.244 55.8955 218.25 61.2203 224.57 78.7901C228.396 89.4253 227.852 93.4063 229.063 107.372C226.206 108.436 223.203 109.736 221.322 112.236C220.74 112.852 220.424 113.672 220.441 114.519C220.459 115.366 220.809 116.172 221.416 116.763C222.721 117.532 224.255 117.82 225.751 117.577C227.293 117.615 228.831 117.392 230.298 116.915C231.007 120.714 232.325 124.373 234.2 127.752C231.623 128.998 229.247 130.621 227.151 132.569C225.16 134.761 226.542 137.119 228.824 137.678C232.274 138.069 235.764 137.474 238.889 135.962C243.856 143.968 253.721 157.048 256.104 159.949C255.382 160.794 253.493 169.585 244.447 179.601C239.36 185.254 233.201 189.843 226.329 193.101C223.294 194.527 220.115 195.524 216.995 196.741C216.65 195.639 214.462 189.425 214.165 188.649C213.623 187.234 213.05 186.961 211.666 186.337C205.427 183.544 205.719 183.58 205.308 183.751C204.721 183.998 205.045 184.172 203.902 188.022C202.866 191.509 202.331 191.941 202.912 192.864C203.092 193.153 209.312 200.429 209.59 200.741C205.308 204.248 205.327 207.846 203.196 211.158C193.315 202.647 196.358 202.033 192.605 202.054L186.364 202.089C186.165 202.093 185.976 202.174 185.835 202.314C185.695 202.455 185.614 202.645 185.61 202.843C185.601 202.988 185.101 211.096 185.109 211.288C185.165 212.588 185.606 212.434 193.261 217.299C188.049 221.295 188.146 227.856 183.99 234.84C181.841 238.452 180.263 239.608 177.959 242.347C177.869 242.079 176.924 239.054 176.353 237.114C176.296 236.911 176.161 236.739 175.978 236.635C175.794 236.531 175.577 236.503 175.374 236.558C166.685 240.014 157.565 242.269 148.267 243.261C134.828 244.683 125.436 243.277 111.503 233.201C111.01 232.844 110.412 232.602 109.937 232.229C109.824 232.117 109.672 232.053 109.513 232.053C109.355 232.053 109.202 232.117 109.09 232.229C108.978 232.341 108.915 232.493 108.915 232.652C108.915 232.811 108.978 232.963 109.09 233.076C109.879 233.864 110.733 234.583 111.643 235.227C124.359 244.376 134.674 246.018 146.375 244.994C156.202 244.136 165.86 241.907 175.069 238.372C175.632 240.285 176.215 242.192 176.817 244.094C164.335 255.196 149.94 256.19 135.164 260.678C134.605 260.824 134.057 261.006 133.522 261.221C132.307 261.768 132.548 263.217 132.603 264.337C120.842 263.597 109.443 259.978 99.4084 253.798C98.7929 253.414 98.2987 254.337 98.8521 254.749C106.222 260.226 117.348 264.808 132.654 266.045L132.763 269.972C132.781 270.586 132.682 271.261 133.181 271.706C133.523 272.005 133.903 272.013 135.174 272.14C144.008 273.023 152.959 271.611 161.727 269.747C180.237 265.812 197.443 261.629 214.799 241.858C215.935 240.558 215.942 240.478 216.164 240.301C216.198 240.691 216.555 240.988 217.24 240.724C216.826 240.884 219.085 239.532 227.973 240.25C229.634 240.391 231.268 240.754 232.833 241.329C232.935 241.39 233.057 241.407 233.172 241.377C233.287 241.347 233.386 241.272 233.446 241.17C233.506 241.067 233.523 240.945 233.493 240.83C233.463 240.715 233.389 240.617 233.286 240.556C231.346 239.366 229.116 238.733 226.84 238.726C225.082 238.588 221.379 238.661 219.713 238.726C218.67 238.765 219.245 238.856 218.935 238.437C216.334 234.917 210.733 226.299 209.727 222.083C208.366 216.37 212.761 212.836 219.452 215.467C225.283 218.065 230.624 221.647 235.241 226.054C235.371 226.177 235.507 226.293 235.645 226.407C233.951 230.975 232.701 235.906 234.085 240.556C234.115 240.661 234.182 240.752 234.273 240.812C234.365 240.871 234.474 240.896 234.582 240.882C234.691 240.869 234.792 240.816 234.865 240.734C234.937 240.652 234.977 240.546 234.977 240.436C233.854 231.701 238.495 224.523 238.501 222.643C251.506 210.038 260.043 192.624 264.666 175.41C265.374 182.966 260.977 195.825 257.506 203.154C257.399 203.349 257.37 203.578 257.427 203.793C257.484 204.008 257.621 204.193 257.811 204.31C259.783 205.177 259.061 204.651 258.822 205.099C257.716 207.594 256.462 210.02 255.065 212.364C254.123 213.85 253.97 213.752 254.097 214.57C254.132 214.795 254.373 214.872 254.627 214.837C255.253 214.752 255.584 214.088 256.104 213.282C257.716 210.886 258.935 208.249 259.717 205.469C259.732 205.402 259.734 205.332 259.722 205.264C259.71 205.196 259.685 205.131 259.647 205.073C262.643 206.253 265.742 207.152 268.904 207.758C268.484 208.122 268.53 210.041 268.41 211.177C267.965 215.421 266.06 219.759 264.487 223.791C264.284 224.309 265.133 224.658 265.381 224.169C267.624 219.721 269.725 214.804 269.898 209.843C269.918 209.174 269.804 208.508 269.564 207.883L269.726 207.915C269.905 207.96 270.092 207.946 270.262 207.877C270.433 207.807 270.576 207.686 270.673 207.529C279.198 191.314 281.528 176.107 281.776 158.125C281.941 145.834 276.717 133.014 271.082 122.09ZM250.842 98.549C250.856 98.6068 250.842 98.5765 250.842 98.549ZM245.689 100.267C245.447 99.6689 246.767 98.4623 247.547 98.0765C248.558 97.5809 250.545 97.4364 250.829 98.5216C251.011 98.9189 249.639 99.0996 246.349 100.909C246.301 100.634 245.813 100.584 245.689 100.273V100.267ZM256.249 125.92C255.067 125.407 254.804 124.485 253.802 124.43C252.984 124.386 252.694 124.834 250.154 125.586C247.287 126.436 243.452 127.156 240.987 125.458C240.248 124.92 239.612 124.255 239.108 123.493C237.512 120.885 236.296 118.063 235.496 115.112C234.139 109.125 237.952 107.322 243.099 104.263C247.601 101.355 252.516 99.1453 257.678 97.708C258.067 103.67 261.964 110.268 264.818 115.06C265.05 115.466 265.316 115.852 265.611 116.216C263.728 117.116 262.016 118.339 260.553 119.828C260.47 119.915 260.407 120.019 260.37 120.133C260.332 120.248 260.321 120.369 260.336 120.488C260.351 120.607 260.393 120.722 260.458 120.823C260.523 120.924 260.61 121.009 260.712 121.072C263.021 123.384 260.264 127.372 256.249 125.926V125.92ZM204.138 192.059C204.138 192.162 204.138 192.09 204.138 192.059C204.06 191.906 205.073 189.779 206.093 185.421C212.306 188.142 212.393 187.983 212.815 188.95C213.121 189.791 215.524 196.357 215.865 197.186C214.079 197.896 212.371 198.789 210.769 199.852C210.041 198.977 204.275 192.278 204.138 192.065V192.059ZM186.629 211.323C186.594 211.12 186.712 209.474 187.062 203.593C194.073 203.554 193.51 203.533 193.781 203.627C194.3 203.916 197.434 208.774 202.493 212.096C200.511 214.408 197.319 214.848 194.682 216.348C194.056 215.965 186.47 211.328 186.629 211.328V211.323Z" fill="url(#paint3_linear_414_4207)"/>
<path d="M178.313 28.4649C187.763 27.79 189.51 30.5731 191.545 30.4879C191.603 30.4873 191.66 30.4716 191.71 30.4423C191.761 30.4129 191.803 30.3709 191.832 30.3204C191.861 30.2699 191.877 30.2127 191.877 30.1544C191.877 30.0961 191.862 30.0387 191.834 29.9879C191.586 29.5689 191.214 29.2372 190.77 29.0385C186.856 27.1641 182.434 26.6285 178.186 27.5141C177.663 27.6586 177.749 28.5125 178.313 28.4649Z" fill="#191919"/>
<path d="M180.924 24.999C188.127 24.999 190.783 27.1968 191.816 26.8775C191.872 26.8611 191.923 26.8323 191.966 26.7934C192.009 26.7544 192.043 26.7063 192.065 26.6525C192.086 26.5988 192.096 26.5409 192.092 26.483C192.088 26.4251 192.072 26.3688 192.043 26.3183C191.529 25.2273 185.451 23.58 180.925 24.1652C180.819 24.1713 180.719 24.2178 180.646 24.2952C180.573 24.3725 180.532 24.4749 180.532 24.5814C180.531 24.6879 180.572 24.7905 180.645 24.8681C180.718 24.9457 180.818 24.9926 180.924 24.999Z" fill="#191919"/>
<path d="M185.414 21.7205C189.965 22.5673 191.826 24.4574 193.063 24.6568C193.115 24.6688 193.169 24.6657 193.219 24.6477C193.269 24.6298 193.313 24.5978 193.345 24.5556C193.378 24.5134 193.397 24.4628 193.402 24.4098C193.406 24.3567 193.396 24.3035 193.371 24.2565C193.186 23.939 192.94 23.6611 192.648 23.4386C190.553 21.9474 188.099 21.0394 185.537 20.8073C185.02 20.7509 184.899 21.6252 185.414 21.7205Z" fill="#191919"/>
<path d="M227.744 226.21C227.211 225.983 226.984 225.683 226.57 225.632C226.472 225.611 226.371 225.617 226.276 225.649C226.181 225.681 226.097 225.738 226.033 225.815C225.968 225.891 225.925 225.983 225.909 226.081C225.892 226.18 225.903 226.281 225.94 226.374C226.07 226.691 226.313 226.948 226.623 227.096C226.868 227.303 227.154 227.457 227.461 227.546C227.769 227.636 228.093 227.66 228.41 227.617C228.728 227.574 229.033 227.464 229.306 227.296C229.579 227.127 229.813 226.903 229.994 226.638C230.205 226.174 230.292 225.662 230.246 225.154C230.201 224.646 230.024 224.159 229.734 223.739C229.68 223.649 229.597 223.578 229.499 223.539C229.401 223.5 229.293 223.493 229.191 223.521C229.089 223.548 228.999 223.609 228.934 223.692C228.869 223.776 228.834 223.878 228.832 223.984C229.01 225.598 229.306 226.664 227.744 226.21Z" fill="#191919"/>
<path d="M221.264 232.392C220.911 233.054 220.197 232.744 219.466 232.869C219.371 232.897 219.286 232.952 219.222 233.027C219.158 233.103 219.117 233.195 219.104 233.293C219.091 233.392 219.108 233.492 219.151 233.581C219.193 233.67 219.261 233.745 219.346 233.796C220.803 234.585 222.784 233.338 222.32 231.88C222.269 231.718 222.018 231.249 222.002 231.158C222.053 231.064 222.069 230.956 222.048 230.852C222.027 230.748 221.97 230.654 221.886 230.588C221.475 230.272 221.056 230.762 221.066 231.27C221.076 231.779 221.373 232.085 221.264 232.392Z" fill="#191919"/>
<path d="M224.754 230.78C224.845 230.871 224.968 230.922 225.096 230.922C225.225 230.922 225.348 230.871 225.439 230.78C225.53 230.689 225.581 230.566 225.581 230.437C225.581 230.309 225.53 230.186 225.439 230.095C223.688 228.389 222.458 226.222 221.891 223.844C221.758 223.625 221.552 223.46 221.31 223.377C221.068 223.293 220.805 223.296 220.565 223.386C218.449 223.951 218.315 225.29 218.945 225.432C219.575 225.573 220.39 224.692 220.786 224.692C221.428 227.092 222.818 229.224 224.754 230.78Z" fill="#191919"/>
<path d="M216.941 217.224C216.542 217.001 216.095 216.879 215.639 216.868C215.182 216.857 214.73 216.959 214.322 217.163C213.913 217.368 213.561 217.669 213.296 218.041C213.031 218.412 212.861 218.843 212.801 219.296C212.662 220.134 212.845 220.994 213.312 221.703C213.779 222.413 214.496 222.92 215.321 223.124C215.763 223.113 216.185 222.934 216.5 222.623C216.814 222.311 216.998 221.891 217.013 221.449C217.301 221.382 217.568 221.245 217.79 221.049C218.013 220.853 218.183 220.606 218.285 220.328C218.388 220.051 218.421 219.752 218.38 219.459C218.339 219.166 218.225 218.887 218.05 218.649C217.854 218.061 217.462 217.559 216.941 217.224Z" fill="#191919"/>
<path d="M250.8 212.245C249.499 218.662 250.992 235.121 241.919 245.24C241.058 246.203 240.055 247.028 238.945 247.688C238.455 247.966 238.782 248.808 239.338 248.617C243.338 247.242 246.692 241.103 248.197 237.154C249.925 232.206 250.959 227.042 251.27 221.81C251.407 220.24 251.866 213.956 251.871 213.563C251.875 213.17 251.843 212.778 251.833 212.388C251.832 212.262 251.785 212.14 251.701 212.046C251.618 211.951 251.503 211.889 251.378 211.872C251.253 211.855 251.126 211.883 251.02 211.951C250.914 212.02 250.836 212.124 250.8 212.245Z" fill="#191919"/>
<path d="M235.603 250.047C228.135 255.344 218.961 256.675 210.705 252.686C209.729 252.099 208.705 251.594 207.645 251.178C207.545 251.153 207.441 251.158 207.344 251.191C207.247 251.225 207.162 251.286 207.099 251.367C207.036 251.448 206.999 251.546 206.991 251.648C206.983 251.751 207.006 251.853 207.055 251.943C207.774 252.731 208.658 253.352 209.643 253.762C213.854 255.968 218.63 256.861 223.354 256.323C228.077 255.786 232.531 253.844 236.139 250.748C236.515 250.42 236.023 249.749 235.603 250.047Z" fill="#191919"/>
<path d="M261.623 211.779C261.682 211.667 261.695 211.536 261.66 211.414C261.625 211.293 261.545 211.189 261.435 211.125C261.326 211.062 261.196 211.043 261.073 211.072C260.95 211.102 260.843 211.178 260.774 211.284C255.234 219.248 253.561 218.787 253.106 220.544C253.094 220.592 253.092 220.642 253.102 220.69C253.112 220.738 253.133 220.783 253.162 220.823C253.192 220.862 253.231 220.893 253.275 220.915C253.319 220.938 253.367 220.949 253.416 220.95C254.244 220.781 254.988 220.331 255.52 219.676C257.985 217.406 260.048 214.736 261.623 211.779Z" fill="#191919"/>
<path d="M263.985 215.395C264.072 215.283 264.137 215.156 264.174 215.019C264.211 214.882 264.221 214.739 264.202 214.599C264.2 214.532 264.181 214.467 264.146 214.41C264.112 214.352 264.064 214.305 264.006 214.271C263.948 214.238 263.882 214.22 263.816 214.219C263.749 214.218 263.683 214.234 263.624 214.265C263.538 214.293 263.454 214.33 263.375 214.375C262.968 214.651 262.195 216.089 260.396 218.194C259.321 219.45 256.155 222.796 254.646 223.452C254.162 223.662 254.502 224.464 255.006 224.304C257.828 223.396 262.962 217.285 263.985 215.395Z" fill="#191919"/>
<path d="M265.5 215.703C265.488 215.663 265.466 215.626 265.436 215.596C265.406 215.567 265.369 215.546 265.328 215.535C265.287 215.525 265.244 215.525 265.203 215.536C265.163 215.547 265.125 215.568 265.095 215.598C263.962 216.803 263.361 220.788 258.208 224.816C257.83 225.112 258.321 225.739 258.721 225.482C263.343 222.515 265.753 217.387 265.5 215.703Z" fill="#191919"/>
<path d="M130.628 270.317C128.223 270.782 125.761 270.872 123.329 270.584C121.63 270.366 119.963 269.947 118.362 269.336C113.854 267.631 112.004 265.186 110.827 264.731C110.748 264.71 110.666 264.71 110.587 264.731C110.509 264.752 110.437 264.793 110.38 264.85C110.323 264.908 110.281 264.979 110.26 265.058C110.239 265.136 110.239 265.219 110.26 265.297C110.331 265.501 110.439 265.691 110.577 265.858C113.923 269.996 122.4 273.073 128.477 271.735C129.272 271.56 130.067 271.357 130.847 271.116C130.949 271.083 131.035 271.013 131.086 270.919C131.136 270.825 131.149 270.714 131.121 270.611C131.092 270.508 131.025 270.42 130.933 270.365C130.841 270.31 130.732 270.293 130.628 270.317Z" fill="#191919"/>
<path d="M117.926 266.681C118.36 266.825 118.672 266.12 118.243 265.928C112.773 263.472 111.645 261.525 110.88 262.002C110.591 262.186 110.683 262.61 110.88 262.829C112.96 264.553 115.352 265.861 117.926 266.681Z" fill="#191919"/>
<path d="M213.724 75.0499C217.704 78.1007 221.218 81.7139 224.158 85.7761C224.267 85.8832 224.41 85.9472 224.563 85.9565C224.715 85.9657 224.865 85.9195 224.986 85.8263C225.106 85.7332 225.189 85.5995 225.219 85.4499C225.248 85.3004 225.223 85.1452 225.147 85.0132C224.485 83.7916 223.691 82.6465 222.778 81.5986C216.808 74.2898 208.191 69.1369 200.043 64.4277C197.108 62.541 193.95 61.0289 190.64 59.9265C190.486 59.8901 190.323 59.915 190.187 59.9958C190.051 60.0767 189.951 60.2073 189.909 60.3602C189.867 60.513 189.885 60.6763 189.961 60.8156C190.037 60.9548 190.164 61.0593 190.315 61.1071C196.14 63.4061 208.785 71.1802 213.724 75.0499Z" fill="#191919"/>
<path d="M169.498 30.0646C169.442 29.9144 169.331 29.7917 169.186 29.7222C169.042 29.6527 168.876 29.6418 168.724 29.6918C167.946 29.9404 167.605 31.4533 165.087 32.5818C163.415 33.2975 161.604 33.6317 159.787 33.5602C157.969 33.4887 156.191 33.0133 154.58 32.1686C156.143 32.3606 157.724 31.9974 159.047 31.1426C162.424 28.991 164.077 25.3366 165.043 21.4842C165.081 21.3724 165.096 21.254 165.086 21.1363C165.077 21.0186 165.043 20.904 164.988 20.7997C164.933 20.6954 164.857 20.6034 164.765 20.5296C164.672 20.4557 164.566 20.4014 164.452 20.3701C164.338 20.3387 164.219 20.331 164.102 20.3473C163.985 20.3636 163.873 20.4036 163.772 20.4649C163.671 20.5262 163.584 20.6075 163.515 20.7037C163.447 20.8 163.399 20.9092 163.374 21.0247C163.096 22.0906 162.745 23.1363 162.325 24.1546C161.625 26.0943 160.402 27.803 158.792 29.0922C155.018 31.9229 152.637 29.2916 151.735 30.0921C151.268 30.1557 151.105 30.2482 150.407 30.3247C149.607 30.4241 148.795 30.3517 148.025 30.1125C147.255 29.8733 146.545 29.4728 145.942 28.9375C145.404 28.5811 144.941 28.1232 144.579 27.5894C143.597 26.127 141.465 22.1605 141.39 20.4915C141.39 20.3993 141.372 20.308 141.337 20.2228C141.301 20.1376 141.25 20.0601 141.184 19.9949C141.119 19.9297 141.042 19.878 140.957 19.8427C140.871 19.8074 140.78 19.7892 140.688 19.7892C140.596 19.7892 140.504 19.8074 140.419 19.8427C140.334 19.878 140.256 19.9297 140.191 19.9949C140.126 20.0601 140.074 20.1376 140.039 20.2228C140.004 20.308 139.986 20.3993 139.986 20.4915C140.435 22.7542 141.278 24.9204 142.477 26.8914C143.096 28.2888 144.112 29.4736 145.399 30.2987C146.618 31.2385 148.107 31.7613 149.647 31.79C150.9 31.79 151.157 31.5154 150.97 31.696C150.44 32.2543 149.794 32.6885 149.076 32.9676C145.131 34.4517 138.808 32.3029 135.934 27.1443C135.886 27.0639 135.824 26.9937 135.749 26.9376C135.674 26.8815 135.589 26.8407 135.499 26.8174C135.409 26.7941 135.315 26.7889 135.222 26.8019C135.13 26.815 135.041 26.8461 134.961 26.8936C134.88 26.941 134.81 27.0038 134.754 27.0784C134.698 27.153 134.657 27.2379 134.634 27.3283C134.61 27.4186 134.605 27.5127 134.618 27.6051C134.631 27.6975 134.662 27.7864 134.71 27.8668C139.055 35.7579 149.706 36.7824 152.092 32.0804C152.937 33.0345 154.003 33.7672 155.197 34.2147C161.581 36.9038 167.978 33.9661 169.235 31.3767C169.37 31.1895 169.464 30.9755 169.509 30.7492C169.554 30.5229 169.551 30.2894 169.498 30.0646Z" fill="url(#paint4_linear_414_4207)"/>
<path d="M152.892 37.7791C152.841 37.6008 152.734 37.4432 152.588 37.3288C152.442 37.2143 152.264 37.1487 152.079 37.1413C151.893 37.134 151.71 37.1852 151.555 37.2878C151.401 37.3903 151.282 37.539 151.217 37.7127C151.161 37.9039 151.166 38.1082 151.234 38.2959C151.302 38.4836 151.427 38.6447 151.593 38.7559C151.743 38.8399 151.915 38.8784 152.086 38.8668C152.258 38.8551 152.423 38.7939 152.56 38.6904C152.698 38.5869 152.803 38.4457 152.861 38.284C152.92 38.1222 152.931 37.9468 152.892 37.7791Z" fill="url(#paint5_linear_414_4207)"/>
<defs>
<linearGradient id="paint0_linear_414_4207" x1="150.212" y1="27.2812" x2="150.212" y2="68.1268" gradientUnits="userSpaceOnUse">
<stop stop-color="#5E0303"/>
<stop offset="1" stop-color="#8A0202"/>
</linearGradient>
<linearGradient id="paint1_linear_414_4207" x1="87.7613" y1="25.4102" x2="87.7613" y2="37.1256" gradientUnits="userSpaceOnUse">
<stop stop-color="#5E0303"/>
<stop offset="1" stop-color="#8A0202"/>
</linearGradient>
<linearGradient id="paint2_linear_414_4207" x1="54.0003" y1="52.0859" x2="54.0003" y2="191.052" gradientUnits="userSpaceOnUse">
<stop stop-color="#5E0303"/>
<stop offset="1" stop-color="#8A0202"/>
</linearGradient>
<linearGradient id="paint3_linear_414_4207" x1="190.196" y1="19.4611" x2="190.196" y2="272.409" gradientUnits="userSpaceOnUse">
<stop stop-color="#5E0303"/>
<stop offset="1" stop-color="#8A0202"/>
</linearGradient>
<linearGradient id="paint4_linear_414_4207" x1="152.076" y1="19.7892" x2="152.076" y2="35.2813" gradientUnits="userSpaceOnUse">
<stop stop-color="#5E0303"/>
<stop offset="1" stop-color="#8A0202"/>
</linearGradient>
<linearGradient id="paint5_linear_414_4207" x1="152.047" y1="37.1406" x2="152.047" y2="38.8688" gradientUnits="userSpaceOnUse">
<stop stop-color="#5E0303"/>
<stop offset="1" stop-color="#8A0202"/>
</linearGradient>
</defs>
</svg>
