<svg width="714" height="482" viewBox="0 0 714 482" fill="none" xmlns="http://www.w3.org/2000/svg">
<path d="M54.3785 406.56C71.8495 418.042 107.297 423.713 109.674 441.357C110.565 448.038 101.146 453.596 106.138 460.081C139.594 503.524 277.817 470.749 337.807 460.32C362.795 455.968 392.716 451.098 419.962 451.154C451.339 451.224 481.081 458.299 512.22 459.155C521.817 459.421 530.701 458.874 538.961 457.625C569.922 452.937 596.247 436.991 605.22 419.656C612.5 405.606 600.585 392.088 612.678 378.248C625.573 363.482 652.523 352.899 658.138 336.027C664.853 315.772 631.278 298.9 596.752 298.998C574.765 299.055 534.207 301.623 516.142 308.908C494.125 317.779 471.87 318.762 445.366 318.93C394.914 319.253 344.047 314.382 293.981 311.168C251.076 308.417 208.617 303.953 165.385 304.094C133.622 304.192 106.673 304.473 90.9844 322.453C72.2061 343.929 17.7726 382.473 54.3785 406.56Z" fill="white"/>
<path d="M655.334 160.408C637.801 135.994 602.228 123.937 599.842 86.4214C598.948 72.2151 608.4 60.3964 603.39 46.608C569.815 -45.7628 431.101 23.9256 370.898 46.1006C345.821 55.3526 315.794 65.7089 288.451 65.5895C256.963 65.4403 227.115 50.3983 195.865 48.5777C186.234 48.0107 177.318 49.1746 169.029 51.8309C137.958 61.7992 111.54 95.7033 102.534 132.562C95.229 162.437 107.186 191.178 95.0501 220.605C82.109 252.002 55.0639 274.506 49.4283 310.38C42.6893 353.446 76.3839 389.32 111.033 389.111C133.098 388.992 173.8 383.53 191.929 368.04C214.025 349.178 236.358 347.089 262.956 346.731C313.588 346.045 364.636 356.401 414.88 363.235C457.937 369.085 500.548 378.576 543.933 378.277C575.809 378.068 602.854 377.472 618.598 339.24C637.443 293.577 692.07 211.622 655.334 160.408Z" fill="#FFF7F7"/>
<path d="M553.015 331.599L553.014 331.598C549.738 328.776 549.896 323.669 553.366 321.049L553.369 321.046C565.65 311.614 596.645 294.006 649.4 302.404C658.037 303.785 669.016 302.474 679.693 300.223C690.382 297.969 700.824 294.761 708.405 292.311L708.408 292.31C711.132 291.413 713.278 294.757 711.313 296.887L711.312 296.888C670.857 341.001 635.826 353.573 608.685 353.206C581.526 352.838 562.149 339.512 553.015 331.599Z" fill="#FF7070" stroke="url(#paint0_linear_669_1002)"/>
<path d="M552.166 328.229C551.675 327.946 551.404 327.342 551.533 326.761C551.71 326.037 552.445 325.599 553.128 325.787C588.363 334.413 620.238 330.312 640.794 325.362C663.046 319.979 677.114 312.49 677.251 312.431C677.9 312.082 678.727 312.318 679.076 312.968C679.424 313.617 679.187 314.445 678.538 314.794C678.386 314.878 664.028 322.511 641.451 327.982C620.61 333.008 588.276 337.188 552.516 328.397C552.387 328.323 552.269 328.289 552.166 328.229Z" fill="url(#paint1_linear_669_1002)"/>
<path d="M699.083 186.256L699.085 186.252C699.186 186.019 698.925 185.829 698.739 185.98C698.738 185.981 698.738 185.981 698.737 185.981L698.42 185.595L699.083 186.256ZM699.083 186.256C694.803 196.38 678.768 232.282 653.387 265.823C627.986 299.388 593.331 330.45 551.831 331.157L551.83 331.157M699.083 186.256L551.83 331.157M551.83 331.157C549.667 331.199 548.238 328.941 549.19 326.986L549.191 326.985M551.83 331.157L549.191 326.985M549.191 326.985C556.187 312.549 581.034 268.075 636.555 230.67L549.191 326.985Z" fill="#FF7070" stroke="url(#paint2_linear_669_1002)"/>
<path d="M548.069 327.931C547.889 327.827 547.712 327.656 547.602 327.489C547.213 326.851 547.409 326.034 548.047 325.644C612.537 286.164 664.965 225.591 666.957 222.261C667.193 221.673 667.842 221.324 668.489 221.457C669.213 221.634 669.664 222.342 669.502 223.041C668.848 225.903 613.646 288.597 549.42 327.918C548.989 328.187 548.483 328.17 548.069 327.931Z" fill="white"/>
<path d="M35.8552 10.5989L35.8552 10.5989L35.8516 10.5944C34.8441 9.35148 35.7486 7.47664 37.3928 7.49948C45.5552 7.66351 62.0553 8.30466 77.971 10.7617C85.9302 11.9905 93.7267 13.671 100.255 15.9659C106.799 18.2666 111.994 21.1598 114.834 24.7679C121.752 33.5705 123.396 47.2543 123.102 62.7184C122.955 70.4342 122.328 78.5581 121.651 86.6923C121.571 87.6558 121.491 88.6195 121.41 89.5826C120.81 96.7451 120.212 103.878 119.916 110.69C118.482 143.51 123.755 171.677 129.038 191.371C131.68 201.219 134.324 208.949 136.133 214.081C136.369 214.748 136.589 215.37 136.794 215.947C137.378 217.593 137.829 218.866 138.11 219.754C138.116 219.772 138.122 219.79 138.127 219.808C137.482 219.062 136.802 218.024 136.099 216.707C135.077 214.794 134.03 212.344 132.98 209.468C130.879 203.718 128.779 196.305 126.835 188.17C122.949 171.902 119.703 152.795 118.349 138.421L118.349 138.42C116.974 123.985 114.09 115.356 109.443 109.473C104.797 103.59 98.4365 100.52 90.3145 97.0892C74.1832 90.2454 58.0101 73.8464 56.5066 53.0445C55.9322 44.9526 52.3202 36.311 48.0956 28.7297C43.8658 21.1391 38.9951 14.5648 35.8552 10.5989Z" fill="#FF7070" stroke="url(#paint3_linear_669_1002)"/>
<path d="M57.8585 19.9242C57.8585 19.9242 58.3356 20.0137 59.2301 20.2525C60.1247 20.4912 61.4068 20.8195 63.017 21.3866C64.6272 21.9238 66.5952 22.6102 68.7719 23.5354C70.9487 24.4606 73.4236 25.5649 75.9879 26.9676C78.5523 28.3703 81.2956 30.0118 84.0388 31.9518C86.7821 33.8917 89.585 36.1301 92.209 38.7266C94.833 41.3231 97.3378 44.248 99.5145 47.4713C101.691 50.6945 103.57 54.2163 105.001 57.9171L105.538 59.3198C105.717 59.7675 105.896 60.245 106.015 60.7225C106.313 61.6776 106.611 62.6027 106.88 63.5578C107.386 65.4082 107.864 67.2586 108.341 69.109C108.818 70.9594 109.295 72.78 109.742 74.6005C110.189 76.4211 110.607 78.2118 111.024 79.9726C111.859 83.4944 112.634 86.9266 113.32 90.1797C114.006 93.4328 114.632 96.5367 115.169 99.372C115.437 100.805 115.676 102.177 115.914 103.461C116.123 104.774 116.332 105.998 116.541 107.162C116.928 109.49 117.226 111.519 117.465 113.22C117.704 114.892 117.882 116.235 117.972 117.13C118.061 118.025 118.121 118.533 118.121 118.533C118.151 118.831 117.942 119.13 117.614 119.159C117.316 119.189 117.048 118.98 116.988 118.712C116.988 118.712 116.898 118.234 116.72 117.369C116.541 116.473 116.272 115.19 115.944 113.519C115.288 110.206 114.245 105.49 112.992 99.8495C112.336 97.0441 111.621 93.97 110.875 90.7468C110.07 87.5235 109.235 84.1211 108.4 80.6292C107.506 77.1374 106.552 73.5261 105.597 69.8253C105.09 67.9749 104.613 66.1245 104.106 64.2741C103.838 63.3787 103.57 62.4834 103.301 61.588C103.182 61.1403 103.033 60.6927 102.854 60.245L102.377 58.9318C99.6934 51.8883 95.3399 45.5612 90.3603 40.4875C87.8854 37.9506 85.2912 35.6824 82.6672 33.7126C80.073 31.7428 77.449 30.0417 74.9741 28.6091C72.4992 27.1765 70.1734 25.9529 68.0563 24.9382C65.9392 23.9234 64.0607 23.1474 62.5101 22.5505C60.9596 21.9536 59.7072 21.506 58.8425 21.2075C57.9778 20.9091 57.5305 20.7897 57.5305 20.7897C57.2919 20.73 57.1428 20.4614 57.2323 20.2226C57.4112 20.0137 57.6199 19.8645 57.8585 19.9242Z" fill="white"/>
<path d="M137.142 219.859C137.33 219.947 137.372 219.832 137.294 219.535C137.294 219.534 137.293 219.532 137.293 219.531C137.282 219.487 137.267 219.439 137.25 219.388C137.203 219.387 137.143 219.395 137.077 219.424C136.902 219.502 136.852 219.645 136.837 219.714L137.142 219.859ZM135.619 216.972C136.039 217.832 136.363 218.518 136.574 219.017C130.708 215.879 127.219 209.055 125.116 201.973C123.001 194.853 122.328 187.615 121.989 183.97C121.977 183.846 121.966 183.726 121.955 183.61L121.955 183.608C121.871 182.744 121.81 181.85 121.746 180.92C121.557 178.137 121.345 175.029 120.413 171.429C119.164 166.603 116.627 160.881 111.15 153.688C108.306 149.952 104.084 148.46 99.0209 148.33C93.9712 148.199 88.0189 149.419 81.6079 151.169C77.8301 152.2 73.8605 153.425 69.8059 154.677C66.9886 155.546 64.1302 156.428 61.2667 157.267C54.2593 159.319 47.1765 161.124 40.4135 161.91C29.907 163.129 21.254 159.213 14.5928 153.963C7.92661 148.71 3.28176 142.14 0.822542 138.121C0.0668519 136.876 0.707141 135.257 2.10118 134.896C5.66745 133.977 10.3659 131.432 16.4462 127.147C22.5381 122.853 30.0595 116.782 39.2785 108.764L39.2786 108.764C50.2946 99.1796 60.309 94.6613 69.7215 94.8261C79.1248 94.9908 88.0478 99.8323 96.8805 109.237C105.693 118.619 111.642 131.49 115.638 144.464C119.632 157.432 121.663 170.462 122.66 180.126C123.667 189.881 127.684 200.119 131.182 207.774C132.521 210.706 133.79 213.269 134.786 215.283C135.091 215.899 135.37 216.464 135.619 216.972Z" fill="#FF7070" stroke="url(#paint4_linear_669_1002)"/>
<path d="M47.9861 131.757C47.9861 131.757 48.2545 131.488 48.7614 130.951C49.2683 130.414 50.0436 129.668 51.0574 128.772C53.0851 126.952 56.0669 124.445 60.0625 121.938C62.0603 120.684 64.2967 119.461 66.8014 118.356C69.3062 117.282 72.0494 116.357 75.0611 115.849C75.8065 115.7 76.5818 115.64 77.3272 115.551C77.7149 115.521 78.1025 115.521 78.4902 115.491C78.8778 115.461 79.2654 115.461 79.6531 115.461C80.0407 115.461 80.4283 115.491 80.8458 115.491L82.0385 115.611C82.4262 115.64 82.8436 115.7 83.2312 115.79C83.6487 115.879 84.0065 115.909 84.4538 116.028C87.3462 116.685 90.5367 117.73 93.3992 119.013C96.2916 120.386 99.0051 122.147 101.42 124.146C101.987 124.684 102.583 125.221 103.15 125.728C103.418 125.997 103.716 126.236 103.985 126.534L104.76 127.399C105.267 127.967 105.804 128.504 106.281 129.101C106.728 129.698 107.205 130.294 107.652 130.891C107.891 131.19 108.1 131.488 108.338 131.787C108.547 132.085 108.726 132.413 108.935 132.712C109.322 133.309 109.71 133.936 110.127 134.532C110.873 135.756 111.499 136.98 112.155 138.144C112.721 139.367 113.288 140.561 113.825 141.695C114.332 142.859 114.749 143.993 115.196 145.098C115.435 145.635 115.614 146.172 115.793 146.709C115.972 147.247 116.151 147.754 116.3 148.261C116.628 149.276 116.985 150.231 117.224 151.126C117.463 152.052 117.701 152.887 117.94 153.693C118.148 154.469 118.357 155.215 118.506 155.872C119.103 158.528 119.431 160.02 119.431 160.02C119.49 160.289 119.311 160.557 119.043 160.617C118.775 160.677 118.536 160.528 118.447 160.289V160.259C118.447 160.259 117.999 158.797 117.224 156.23C116.866 154.947 116.27 153.424 115.673 151.634C115.405 150.738 115.017 149.843 114.63 148.858C114.242 147.903 113.884 146.859 113.377 145.814C112.9 144.769 112.453 143.695 111.916 142.561C111.35 141.486 110.753 140.352 110.157 139.188C109.471 138.084 108.845 136.92 108.1 135.786C107.712 135.219 107.324 134.652 106.937 134.085C106.728 133.786 106.549 133.518 106.34 133.219C106.132 132.951 105.893 132.682 105.684 132.413C105.237 131.876 104.79 131.309 104.343 130.772C103.865 130.235 103.359 129.727 102.881 129.22L102.136 128.444C101.897 128.175 101.599 127.967 101.331 127.728C100.794 127.25 100.257 126.773 99.6909 126.295C97.3949 124.505 94.8603 122.923 92.2065 121.639C89.4632 120.446 86.7796 119.55 83.7382 118.894C82.4262 118.625 80.9949 118.386 79.5934 118.416C79.2356 118.386 78.9076 118.386 78.5498 118.416C78.192 118.416 77.864 118.446 77.5061 118.446C76.8203 118.535 76.1345 118.565 75.4487 118.685C72.7352 119.073 70.1411 119.849 67.7556 120.804C65.3702 121.729 63.1636 122.833 61.1956 123.937C59.1978 125.042 57.4385 126.146 55.888 127.191C54.3374 128.205 53.0254 129.19 51.9818 129.966C50.9083 130.772 50.1032 131.429 49.5367 131.876C49 132.324 48.7018 132.563 48.7018 132.563H48.672C48.4632 132.742 48.1352 132.712 47.9265 132.503C47.7774 132.264 47.8072 131.966 47.9861 131.757Z" fill="url(#paint5_linear_669_1002)"/>
<path d="M500.035 45.7293L496.552 101.284H517.338V47.2868C517.338 45.7292 516.338 44.3571 514.893 43.8379C512.151 42.9107 507.445 41.724 502.851 42.5399C501.294 42.8365 500.146 44.1346 500.035 45.7293Z" fill="url(#paint6_linear_669_1002)"/>
<path d="M473.985 45.467L476.282 101.207H495.994L497.476 44.8366C497.513 43.279 496.513 41.8697 495.031 41.4247C488.621 39.4962 482.248 39.3108 475.986 42.2035C474.726 42.7969 473.911 44.0578 473.985 45.467Z" fill="#FF7070"/>
<path d="M479.279 83.3723L479.427 85.3008C479.464 85.8941 479.983 86.3392 480.575 86.3021L490.913 85.7087C491.469 85.6716 491.876 85.2637 491.913 84.7074L492.025 83.3723C492.062 82.7419 491.58 82.2227 490.95 82.2227H480.39C479.723 82.2227 479.204 82.7419 479.279 83.3723Z" fill="white"/>
<path d="M479.688 88.0074V88.712C479.688 89.2683 480.133 89.7133 480.689 89.6762L490.582 89.2683C491.101 89.2312 491.508 88.8233 491.508 88.3041V87.5624C491.508 87.0061 491.063 86.561 490.508 86.5981L480.615 87.0431C480.096 87.0802 479.688 87.5253 479.688 88.0074Z" fill="white"/>
<path d="M493.212 45.6906C492.805 45.2456 492.286 45.0231 491.73 45.0601L479.688 45.6164C478.614 45.6535 477.762 46.6548 477.762 47.8787L478.392 75.5817C478.429 76.7314 479.244 77.6585 480.281 77.7327L490.915 78.4002C491.471 78.4373 491.99 78.2148 492.36 77.8069C492.768 77.3989 492.99 76.8426 492.99 76.2493L493.805 47.3224C493.842 46.729 493.62 46.1356 493.212 45.6906Z" fill="white"/>
<path d="M502.702 85.4822L502.813 87.4107C502.85 88.0041 503.295 88.4491 503.777 88.412L512.595 87.8186C513.04 87.7815 513.41 87.3736 513.448 86.8173L513.522 85.4822C513.559 84.8518 513.151 84.3326 512.595 84.3326H503.592C503.11 84.2955 502.665 84.8518 502.702 85.4822Z" fill="#FF7070"/>
<path d="M503.069 90.1204V90.825C503.069 91.3813 503.44 91.8263 503.921 91.7893L512.369 91.3813C512.814 91.3442 513.148 90.9363 513.148 90.4171V89.6754C513.148 89.1191 512.74 88.6741 512.295 88.7111L503.847 89.1562C503.403 89.1933 503.069 89.6012 503.069 90.1204Z" fill="#FF7070"/>
<path d="M512.483 47.0979L505.628 46.3192C504.887 46.245 504.146 46.4675 503.59 46.9496C503.034 47.4317 502.701 48.1364 502.664 48.8781L501.849 75.5427C501.812 76.2844 502.108 76.9891 502.627 77.5083C503.146 78.0275 503.85 78.3242 504.591 78.2871L511.112 78.1016C512.52 78.0646 513.668 76.952 513.706 75.5427L514.854 49.8423C514.928 48.4701 513.891 47.2463 512.483 47.0979Z" fill="#FF7070"/>
<path d="M545.274 45.7293L541.791 101.284H562.577V47.2868C562.577 45.7292 561.577 44.3571 560.132 43.8379C557.39 42.9107 552.684 41.724 548.09 42.5399C546.534 42.8365 545.348 44.1346 545.274 45.7293Z" fill="url(#paint7_linear_669_1002)"/>
<path d="M519.224 45.467L521.522 101.207H541.233L542.716 44.8366C542.753 43.279 541.752 41.8697 540.27 41.4247C533.86 39.4962 527.487 39.3108 521.225 42.2035C519.965 42.7969 519.15 44.0578 519.224 45.467Z" fill="#FF7070"/>
<path d="M524.483 83.3723L524.632 85.3008C524.669 85.8941 525.187 86.3392 525.78 86.3021L536.118 85.7087C536.674 85.6716 537.081 85.2637 537.118 84.7074L537.229 83.3723C537.267 82.7419 536.785 82.2227 536.155 82.2227H525.595C524.928 82.2227 524.446 82.7419 524.483 83.3723Z" fill="white"/>
<path d="M524.928 88.0074V88.712C524.928 89.2683 525.372 89.7133 525.928 89.6762L535.821 89.2683C536.34 89.2312 536.747 88.8233 536.747 88.3041V87.5624C536.747 87.0061 536.303 86.561 535.747 86.5981L525.854 87.0431C525.335 87.0802 524.928 87.5253 524.928 88.0074Z" fill="white"/>
<path d="M538.452 45.6906C538.044 45.2456 537.526 45.0231 536.97 45.0601L524.928 45.6164C523.853 45.6535 523.001 46.6548 523.001 47.8787L523.631 75.5817C523.668 76.7314 524.483 77.6585 525.521 77.7327L536.155 78.4002C536.71 78.4373 537.229 78.2148 537.6 77.8069C538.007 77.3989 538.229 76.8426 538.229 76.2493L539.045 47.3224C539.082 46.729 538.859 46.1356 538.452 45.6906Z" fill="white"/>
<path d="M547.942 85.4822L548.053 87.4107C548.09 88.0041 548.535 88.4491 549.016 88.412L557.835 87.8186C558.279 87.7815 558.65 87.3736 558.687 86.8173L558.761 85.4822C558.798 84.8518 558.391 84.3326 557.835 84.3326H548.831C548.312 84.2955 547.905 84.8518 547.942 85.4822Z" fill="#FF7070"/>
<path d="M548.309 90.1204V90.825C548.309 91.3813 548.679 91.8263 549.161 91.7893L557.609 91.3813C558.053 91.3442 558.387 90.9363 558.387 90.4171V89.6754C558.387 89.1191 557.979 88.6741 557.535 88.7111L549.087 89.1562C548.642 89.1933 548.309 89.6012 548.309 90.1204Z" fill="#FF7070"/>
<path d="M557.722 47.0979L550.867 46.3192C550.126 46.245 549.385 46.4675 548.83 46.9496C548.274 47.4317 547.94 48.1364 547.903 48.8781L547.088 75.5427C547.051 76.2844 547.347 76.9891 547.866 77.5083C548.385 78.0275 549.089 78.3242 549.83 78.2871L556.351 78.1016C557.759 78.0646 558.908 76.952 558.945 75.5427L560.093 49.8423C560.168 48.4701 559.13 47.2463 557.722 47.0979Z" fill="#FF7070"/>
<path d="M580.103 101.208C580.103 99.5765 578.769 98.2415 577.139 98.2415H461.165C459.535 98.2415 458.201 99.5765 458.201 101.208V103.619C458.201 105.251 459.535 106.586 461.165 106.586H577.139C578.769 106.586 580.103 105.251 580.103 103.619V101.208Z" fill="url(#paint8_linear_669_1002)"/>
<path d="M567.043 214.965C565.969 214.965 564.926 214.547 564.15 213.801C563.316 212.995 562.809 211.89 562.809 210.727V185.269C562.809 184.522 563.405 183.926 564.15 183.926C564.896 183.926 565.492 184.522 565.492 185.269V210.727C565.492 211.174 565.671 211.562 565.969 211.861C566.297 212.159 566.685 212.308 567.132 212.278L597.278 210.488C598.113 210.428 598.74 209.742 598.74 208.936V183.955C598.74 183.508 598.561 183.09 598.233 182.791C597.905 182.493 597.487 182.344 597.04 182.403L571.963 184.881C571.158 184.97 570.8 185.537 570.71 185.806C570.591 186.045 570.382 186.701 570.86 187.358L580.431 200.549C580.729 200.967 581.177 201.176 581.684 201.206C582.19 201.236 582.638 200.997 582.936 200.579L593.462 186.522C593.909 185.925 594.744 185.806 595.34 186.253C595.937 186.701 596.056 187.537 595.609 188.134L585.083 202.191C584.278 203.265 583.055 203.892 581.713 203.892H581.684C580.342 203.892 579.089 203.235 578.284 202.131L568.713 188.94C567.818 187.686 567.639 186.134 568.295 184.731C568.921 183.329 570.204 182.403 571.724 182.254L596.801 179.777C597.994 179.658 599.187 180.046 600.052 180.851C600.946 181.657 601.453 182.791 601.453 183.985V208.966C601.453 211.204 599.694 213.054 597.487 213.174L567.341 214.965C567.222 214.965 567.132 214.965 567.043 214.965Z" fill="#FF7070"/>
<path d="M203.591 244.08C240.453 243.744 277.17 244.166 314.081 243.437C314.286 243.402 314.495 243.409 314.697 243.46C314.898 243.51 315.086 243.603 315.25 243.73C315.413 243.858 315.548 244.019 315.645 244.202C315.742 244.385 315.8 244.587 315.814 244.793C315.829 245 315.799 245.208 315.728 245.402C315.657 245.597 315.546 245.775 315.402 245.924C315.258 246.073 315.084 246.19 314.891 246.268C314.699 246.346 314.493 246.382 314.285 246.375C277.797 247.1 240.266 247.928 203.795 246.963C201.688 246.908 201.433 244.099 203.591 244.08ZM286.442 188.274C292.589 215.618 254.904 230.885 237.757 213.58C229.884 205.638 228.657 192.713 232.936 182.719C243.692 157.605 281.172 164.826 286.442 188.274ZM283.03 185.196C281.866 182.206 280.084 179.494 277.8 177.238C275.517 174.982 272.783 173.232 269.777 172.102C253.704 166.479 238.14 169.7 233.488 187.647C231.031 197.12 233.679 208.595 242.009 214.417C261.153 227.793 292.913 209.217 283.03 185.196ZM204.94 161.724C204.94 160.811 203.456 160.834 203.372 161.713C201.372 182.74 202.363 204.769 202.437 225.915C202.448 229.083 203.557 229.316 205.542 229.447C237.095 231.521 280.42 230.358 311.91 228.964C313.053 228.912 313.079 226.983 311.91 226.96C276.728 226.304 239.72 228.72 205.104 226.646C205.649 205.439 205.052 183.055 204.94 161.724ZM315.059 227.32C315.179 228.256 317.038 228.381 317.019 227.333C316.607 205.25 316.796 183 316.224 160.988C316.146 157.963 316.093 158.218 312.807 158.09C279.1 156.779 241.508 157.426 207.94 159.357C207.686 159.369 207.446 159.482 207.274 159.67C207.102 159.859 207.012 160.107 207.024 160.362C207.036 160.617 207.149 160.856 207.337 161.028C207.526 161.199 207.775 161.289 208.03 161.277C243.236 161.155 278.822 159.736 313.988 160.874C312.706 178.369 312.875 210.169 315.059 227.32ZM270.516 193.478C266.38 191.056 260.568 187.262 255.933 184.726C252.839 183.034 252.597 185.35 254.813 186.88C257.935 189.037 263.73 191.804 267.733 194.595C263.142 197.423 258.741 200.402 254.068 203.218C253.399 197.069 253.089 191.014 252.207 184.846C252.051 183.74 250.511 184.064 250.54 185.112C250.731 191.943 251.666 198.652 251.898 205.391C251.928 205.573 252 205.745 252.106 205.895C252.213 206.044 252.353 206.168 252.515 206.256C252.677 206.343 252.856 206.393 253.041 206.401C253.225 206.409 253.408 206.374 253.577 206.301C259.606 203.145 265.368 199.504 270.805 195.413C270.948 195.283 271.056 195.119 271.12 194.937C271.184 194.755 271.203 194.56 271.174 194.369C271.146 194.178 271.071 193.997 270.956 193.842C270.841 193.687 270.69 193.562 270.516 193.478ZM384.738 176.468C389.775 176.145 389.601 172.893 384.41 173.255C368.538 174.362 352.29 174.059 336.383 173.652C329.384 173.473 328.689 176.377 335.873 176.649C351.408 177.237 369.282 177.46 384.738 176.468ZM400.315 231.937C400.59 226.711 400.558 221.473 400.218 216.25C400.145 215.454 398.694 215.346 398.559 216.153C397.878 220.217 398.739 227.611 398.574 232.025C398.541 232.974 400.26 232.893 400.315 231.937ZM205.609 122.458C225.722 122.399 375.586 121.435 383.515 121.754C400.955 122.46 401.993 142.874 399.898 143.198C397.669 143.544 189.929 142.195 187.738 142.018C186.21 141.896 185.494 122.517 205.609 122.458ZM384.943 137.347C385.506 137.261 386.043 137.053 386.516 136.737C386.988 136.421 387.386 136.004 387.679 135.517C387.973 135.031 388.155 134.485 388.214 133.92C388.272 133.354 388.206 132.783 388.018 132.247C387.831 131.71 387.527 131.221 387.13 130.815C386.732 130.409 386.249 130.095 385.716 129.896C385.183 129.697 384.613 129.618 384.046 129.664C383.478 129.71 382.928 129.88 382.435 130.162C381.715 130.649 381.177 131.36 380.904 132.184C380.63 133.008 380.637 133.899 380.924 134.718C381.21 135.538 381.759 136.24 382.486 136.715C383.213 137.191 384.077 137.413 384.943 137.347ZM367.587 136.07C368.171 136.76 368.976 137.227 369.865 137.392C370.754 137.556 371.673 137.409 372.466 136.974C373.194 136.48 373.742 135.764 374.03 134.933C374.318 134.102 374.33 133.2 374.064 132.362C373.754 131.529 373.171 130.824 372.411 130.363C371.65 129.901 370.756 129.708 369.873 129.816C369.201 129.922 368.569 130.205 368.044 130.636C367.518 131.068 367.118 131.632 366.885 132.27C366.652 132.909 366.594 133.598 366.717 134.266C366.841 134.934 367.141 135.557 367.587 136.07ZM353.233 136.308C353.875 136.848 354.667 137.177 355.503 137.251C356.339 137.325 357.177 137.141 357.904 136.723C358.502 136.372 358.991 135.862 359.316 135.251C359.641 134.639 359.79 133.949 359.747 133.258C359.703 132.566 359.468 131.901 359.068 131.335C358.668 130.769 358.119 130.325 357.481 130.052C356.631 129.801 355.724 129.816 354.883 130.095C354.042 130.374 353.306 130.903 352.776 131.612C352.286 132.324 352.064 133.184 352.148 134.043C352.231 134.902 352.616 135.704 353.233 136.308ZM398.539 147.818C398.875 164.502 397.396 181.195 398.282 197.997C398.334 198.981 399.997 198.912 399.978 197.959C399.709 181.406 401.456 164.282 400.269 147.779C400.199 146.786 398.52 146.84 398.539 147.818ZM386.487 159.688C367.762 160.562 349.411 159.319 330.769 159.308C330.036 159.308 329.898 160.64 330.613 160.942C336.345 163.416 378.082 163.132 386.567 162.495C386.92 162.458 387.246 162.288 387.479 162.021C387.713 161.754 387.837 161.409 387.827 161.055C387.817 160.7 387.673 160.363 387.425 160.109C387.176 159.856 386.841 159.706 386.487 159.688ZM200.964 270.747C214.316 270.817 228.316 272.042 238.952 271.266C239.92 271.196 240.049 269.563 239.036 269.535C226.447 269.173 214.395 268.365 202.483 268.102C194.421 267.923 189.932 264.721 189.109 256.315C186.496 229.584 189.767 152.171 189.205 145.578C189.191 145.347 189.095 145.129 188.934 144.963C188.774 144.797 188.559 144.694 188.328 144.673C188.098 144.651 187.868 144.713 187.679 144.847C187.49 144.98 187.356 145.177 187.3 145.401C186.77 148.027 185.955 180.074 185.669 204.87C185.49 220.58 184.793 242.282 186.442 257.411C187.319 265.432 192.721 270.703 200.964 270.747ZM345.904 268.153C323.056 269.559 296.774 268.635 273.204 269.228C272.19 269.255 272.187 270.986 273.215 271.013C296.557 271.635 322.631 270.583 345.921 270.608C347.316 270.604 347.318 268.066 345.904 268.153ZM334.137 189.762C331.438 190.402 331.792 192.145 334.518 192.146C338.831 192.146 343.491 191.661 347.96 191.61C350.817 191.578 352.04 189.327 347.388 188.965C342.955 188.758 338.513 189.026 334.137 189.764V189.762ZM407.363 304.609C405.336 298.615 402.253 293.031 398.259 288.12C397.688 287.359 398.64 286.193 399.439 286.853C404.451 291.43 407.936 297.433 409.423 304.051C415.373 302.454 421.634 302.405 427.609 303.907C433.584 305.409 439.074 308.414 443.558 312.634C444.74 282.117 419.14 261.38 393.647 259.496C389.891 268.214 373.369 271.63 370.286 262.597C357.428 265.149 338.898 274.394 332.251 285.405C338.514 285.128 344.788 285.383 351.008 286.166C352.905 286.387 354.671 287.246 356.015 288.602C357.359 289.958 358.202 291.729 358.405 293.627C358.72 300.605 359.561 307.55 360.921 314.402C364.187 305.96 371.894 303.838 378.775 303.682C384.743 303.543 399.197 306.553 407.363 304.609ZM402.469 243.409C413.643 241.073 425.115 240.506 436.464 241.729C447.555 242.889 454.573 244.358 457.193 256.515C461.1 274.659 457.031 303.84 450.773 321.305C445.385 336.336 435.517 334.915 422.35 335.914C421.338 335.99 421.068 337.731 422.181 337.767C434.708 338.176 445.288 337.681 451.034 327.493C459.89 311.792 463.1 276.691 460.503 258.727C458.8 246.957 453.798 241.293 441.779 239.729C429.458 238.125 413.804 237.777 401.925 241.611C401.686 241.684 401.486 241.848 401.369 242.068C401.252 242.289 401.227 242.546 401.3 242.785C401.373 243.023 401.538 243.223 401.758 243.34C401.979 243.457 402.236 243.482 402.475 243.409H402.469ZM459.031 246.577C467.089 249.486 475.806 252.61 481.664 259.176C494.851 273.958 487.8 298.248 484.522 315.523C480.872 334.709 477.387 353.927 473.753 373.113C472.61 379.113 474.896 380.977 475.959 375.614C479.769 356.471 483.35 337.234 487.008 318.059C490.484 299.856 497.62 275.654 485.518 259.266C479.351 250.917 469.23 247.68 459.656 244.996C458.631 244.708 457.987 246.196 459.037 246.577H459.031ZM412.454 416.487C412.002 418.358 414.806 418.885 415.269 416.911C419.43 399.266 425.08 378.287 427.092 360.782C428.686 346.915 427.549 337.982 411.852 336.492C399.248 335.297 388.82 340.355 386.527 353.588C383.528 370.885 385.317 398.834 385.94 417.298C385.948 417.523 386.042 417.736 386.203 417.894C386.365 418.051 386.581 418.14 386.806 418.143C387.032 418.145 387.249 418.061 387.414 417.907C387.579 417.753 387.678 417.542 387.69 417.317C388.224 398.849 387.382 379.847 388.489 361.555C389.251 349.023 392.253 339.746 406.777 339.013C422.729 338.21 425.918 344.286 424.518 359.129C422.733 377.963 415.395 404.352 412.459 416.483L412.454 416.487ZM489.797 388.898C491.511 385.61 497.236 379.765 500.566 379.742C503.337 379.727 501.556 385.165 502.434 388.23C509.586 388.858 510.906 388.773 515.701 393.446C516.314 394.041 517.051 393.729 516.528 392.856C515.435 390.976 513.896 389.394 512.045 388.251C514.483 384.589 518.332 382.454 519.494 382.612C521.675 382.91 518.947 390.27 520.349 396.106C521.301 400.046 522.995 404.624 521.357 409.246C520.082 412.84 518.031 416.112 511.832 418.07C506.14 419.866 495.363 418.5 490.509 415.81C497.598 411.512 495.022 400.954 484.15 404.424C469.411 409.129 461.987 410.191 446.477 407.59C445.383 407.4 445.128 408.618 446.267 408.833C458.708 411.469 471.626 410.764 483.704 406.787C489.587 404.932 493.734 408.616 490.917 412.526C488.059 416.489 480.411 417.954 475.774 418.658C464.044 420.102 452.178 420.031 440.467 418.445C428.465 417.001 434.601 386.43 465.879 382.256C473.915 381.18 482.08 382.806 489.088 386.878C486.685 390.912 485.199 395.424 484.733 400.095C484.668 401.003 485.665 400.792 485.876 399.905C486.704 396.079 488.027 392.377 489.812 388.892L489.797 388.898ZM458.412 385.978C455.745 387.376 453.179 392.69 454.398 397.529C454.644 398.501 455.625 398.596 455.623 397.571C455.623 393.004 457.29 391.149 459.4 387.699C460.094 386.586 459.518 385.399 458.427 385.972L458.412 385.978ZM467.706 383.807C465.233 385.51 463.456 388.046 462.702 390.951C461.791 393.786 461.707 396.822 462.46 399.704C462.671 400.632 463.669 400.562 463.73 399.643C463.95 396.283 464.515 391.514 466.959 388.394C467.718 387.419 468.41 386.395 469.03 385.327C469.746 384.134 468.632 383.31 467.721 383.801L467.706 383.807ZM475.597 385.673C473.789 387.243 472.403 389.24 471.564 391.482C470.726 393.724 470.462 396.139 470.796 398.509C470.987 399.46 471.994 399.62 472.109 398.579C472.636 394.487 474.557 390.7 477.549 387.855C480.256 385.125 478.111 383.468 475.612 385.667L475.597 385.673ZM512.91 403.136C513.381 402.858 513.939 402.762 514.476 402.867C515.013 402.972 515.493 403.271 515.825 403.707C516.571 404.734 517.368 404.156 516.943 402.885C516.753 402.448 516.458 402.064 516.086 401.767C515.713 401.47 515.273 401.269 514.804 401.181C514.335 401.093 513.852 401.121 513.397 401.262C512.941 401.404 512.528 401.654 512.192 401.992C512.073 402.102 511.996 402.25 511.976 402.41C511.955 402.571 511.992 402.733 512.08 402.869C512.167 403.005 512.3 403.106 512.455 403.154C512.609 403.201 512.776 403.193 512.925 403.13L512.91 403.136ZM505.463 405.44C505.583 406.331 507.168 408.144 508.172 408.104C509.351 408.049 511.005 406.814 510.889 405.63C510.773 404.447 505.303 404.127 505.471 405.434L505.463 405.44ZM499.583 402.695C500.001 402.252 500.558 401.966 501.162 401.886C501.766 401.805 502.379 401.934 502.899 402.251C503.882 402.98 504.76 402.072 503.922 401.23C503.55 400.843 503.092 400.55 502.586 400.374C502.079 400.198 501.538 400.143 501.006 400.214C500.475 400.285 499.967 400.481 499.525 400.785C499.083 401.088 498.719 401.492 498.462 401.962C497.956 402.809 499.022 403.239 499.598 402.689L499.583 402.695ZM289.979 312.349C290.381 308.991 290.585 307.339 287 307.166C276.701 306.668 269.38 309.259 263.06 314.178C259.489 316.902 256.526 320.34 254.358 324.27C252.19 328.201 250.864 332.54 250.466 337.01C250.438 337.226 250.495 337.444 250.625 337.62C250.754 337.795 250.947 337.914 251.162 337.951C251.377 337.988 251.598 337.941 251.779 337.82C251.96 337.698 252.088 337.512 252.135 337.299C253.482 328.965 257.848 321.417 264.403 316.088C271.179 310.805 279.758 308.384 288.301 309.345C287.683 318.257 284.017 326.687 277.919 333.222C270.68 340.926 264.673 342.64 255.068 344.813C254.875 344.869 254.709 344.992 254.599 345.16C254.489 345.328 254.442 345.53 254.468 345.729C254.493 345.928 254.589 346.111 254.738 346.246C254.887 346.381 255.079 346.458 255.28 346.464C263.639 346.36 273.739 340.68 279.414 334.736C285.19 328.559 288.884 320.73 289.979 312.349ZM362.341 417.364C359.525 411.198 352.528 403.284 344.91 404.822C340.147 405.773 334.907 410.863 332.581 414.986C331.358 417.153 331.908 419.642 334.653 419.986C341.017 420.559 347.41 420.725 353.795 420.483C360.994 420.57 368.183 419.902 375.243 418.491C376.346 418.202 375.799 416.7 374.834 416.681C370.685 416.601 366.501 417.066 362.341 417.364ZM306.617 419.965C313.792 420.371 323.572 420.346 330.369 418.668C331.424 418.407 330.954 416.911 329.988 416.911C329.022 416.911 328.014 416.946 327.03 416.98C325.487 413.205 323.601 409.369 319.874 407.331C313.877 404.059 307.545 408.783 303.425 412.946C298.106 418.327 301.123 419.655 306.617 419.965ZM229.537 335.248C229.776 335.235 230 335.13 230.164 334.955C230.327 334.781 230.416 334.55 230.413 334.311C230.41 334.073 230.315 333.844 230.148 333.674C229.98 333.503 229.753 333.404 229.515 333.397C219.915 333.651 210.404 331.512 201.841 327.173C189.186 320.376 181.621 310.18 176.935 296.937C184.711 295.973 197.232 295.381 208.177 298.49C224.75 303.195 231.541 314.472 234.666 330.301C234.856 331.273 236.521 331.159 236.432 330.132C233.681 298.319 205.091 291.741 177.779 294.669C174.761 294.995 174.138 295.164 175.338 298.326C178.064 306.1 182.301 313.259 187.806 319.391C197.933 329.945 214.749 337.137 229.537 335.248ZM545.421 422.032C500.813 420.89 204.308 422.102 184.886 422.808C183.96 422.842 183.934 424.41 184.873 424.439C208.354 425.163 231.905 424.709 255.394 424.659C278.883 424.61 519.046 424.779 545.405 423.965C546.503 423.932 546.522 422.058 545.421 422.032ZM261.648 417.829C264.239 405.076 266.168 392.199 267.43 379.248C270.125 379.042 270.436 378.753 270.986 375.929C271.502 373.614 271.868 371.267 272.084 368.905C272.293 365.541 272.781 364.072 268.931 363.99C253.07 363.642 233.763 363.493 218.088 364.561C217.874 364.575 217.674 364.672 217.529 364.831C217.385 364.989 217.308 365.198 217.314 365.412C217.32 365.627 217.409 365.83 217.562 365.981C217.716 366.131 217.921 366.216 218.136 366.218C235.22 367.293 253.432 365.172 269.952 366.627C269.928 370.08 269.524 373.52 268.748 376.885C251.794 378.059 235.679 377.891 218.728 377.684C217.607 374.164 216.763 370.562 216.204 366.911C216.04 365.944 214.408 365.978 214.433 367.006C214.569 370.724 215.26 374.401 216.482 377.916C217.098 379.758 218.448 380.049 220.416 380.035C235.656 379.933 250.153 380.365 265.458 379.389C263.877 394.262 261.458 404.044 259.838 415.391C259.265 419.395 261.204 420.19 261.648 417.829ZM301.939 341.045C302.834 341.064 303.196 339.622 302.24 339.428C296.477 338.256 289.977 337.851 285.116 341.791C279.045 346.712 281.334 356.807 282.413 363.686C284.445 376.637 291.176 404.62 296.296 418.034C296.721 419.147 298.538 418.415 298.226 417.33C294.151 403.102 288.15 382.682 284.956 363.436C284.173 358.714 282.449 350.673 284.575 346.337C287.701 340.001 296.111 340.914 301.939 341.045ZM220.361 383.331C220.866 390.614 224.482 411.11 227.158 417.44C227.263 417.642 227.435 417.8 227.645 417.888C227.854 417.976 228.088 417.987 228.305 417.921C228.523 417.855 228.71 417.715 228.835 417.525C228.96 417.336 229.014 417.108 228.989 416.883C226.225 405.667 224.287 397.285 222.056 383.04C221.889 381.969 220.292 382.281 220.361 383.331ZM242.078 313.405C242.195 313.587 242.378 313.718 242.589 313.769C242.799 313.82 243.022 313.788 243.21 313.679C243.397 313.57 243.536 313.394 243.596 313.186C243.656 312.977 243.634 312.754 243.533 312.562C238.962 304.42 237.475 294.907 239.342 285.761C240.775 279.308 243.916 273.358 248.438 268.531C252.959 263.705 258.695 260.18 265.047 258.324C267.322 266.492 267.91 275.037 266.776 283.44C264.559 297.929 258.802 305.625 249.677 316.137C249.001 316.917 250.094 318.122 250.929 317.469C256.819 312.933 262.189 304.392 265.043 297.567C270.042 285.616 271.236 270.615 266.994 258.221C266.199 255.896 265.957 255.725 263.665 256.44C255.533 259.015 248.447 264.14 243.461 271.055C239.063 277.188 236.584 284.485 236.337 292.025C236.091 299.564 238.087 307.008 242.074 313.415L242.078 313.405ZM242.43 361.657C242.451 362.723 244.274 362.738 244.313 361.657C244.347 360.717 244.384 359.776 244.423 358.834C252.86 340.939 261.233 331.174 276.564 318.851C277.288 318.268 276.374 316.902 275.52 317.328C263.932 323.137 250.01 341.546 244.676 353.54C245.903 327.219 248.065 308.294 254.714 281.934C254.958 280.972 253.333 280.523 253.015 281.484C246.772 300.402 243.564 325.923 242.608 345.855C235.43 329.635 220.782 316.653 204.612 309.822C203.593 309.392 203.041 310.964 204.028 311.424C221.554 319.416 234.416 333.76 242.429 351.023C242.347 354.562 242.36 358.101 242.427 361.657H242.43Z" fill="url(#paint9_linear_669_1002)"/>
<path d="M373.673 315.79C372.111 317.824 370.806 318.054 369.801 320.954C369.044 323.215 369.143 325.675 370.079 327.868C370.165 328.064 370.172 328.285 370.098 328.486C370.025 328.687 369.876 328.852 369.684 328.946C369.492 329.04 369.271 329.057 369.067 328.992C368.863 328.928 368.692 328.787 368.589 328.599C367.865 327.355 367.407 325.975 367.246 324.546C367.084 323.116 367.222 321.669 367.65 320.296C368.32 318.145 370.429 314.905 372.767 314.416C372.939 314.386 373.117 314.406 373.278 314.475C373.439 314.545 373.576 314.659 373.672 314.805C373.769 314.951 373.82 315.123 373.82 315.297C373.821 315.472 373.77 315.644 373.673 315.79ZM379.068 320.231C379.165 320.112 379.227 319.97 379.25 319.82C379.273 319.669 379.256 319.515 379.199 319.373C379.143 319.232 379.049 319.107 378.929 319.014C378.809 318.92 378.665 318.86 378.514 318.84C376.06 318.751 374.011 322.107 373.643 324.23C373.412 325.534 373.568 326.877 374.09 328.093C374.613 329.31 375.48 330.348 376.584 331.08C376.761 331.205 376.979 331.259 377.193 331.228C377.408 331.198 377.602 331.087 377.737 330.918C377.872 330.749 377.937 330.534 377.918 330.319C377.899 330.103 377.798 329.903 377.636 329.759C376.932 329.099 376.396 328.28 376.073 327.371C375.751 326.462 375.65 325.489 375.78 324.533C376.283 321.65 378.278 321.005 379.068 320.231ZM440.676 312.158C440.486 311.052 438.771 311.178 438.771 312.234C438.819 319.489 436.369 327.035 423.754 329.531C409.89 332.085 395.574 329.188 383.799 321.445C383.627 321.324 383.414 321.276 383.207 321.31C382.999 321.345 382.814 321.46 382.691 321.629C382.567 321.799 382.516 322.011 382.547 322.219C382.579 322.426 382.691 322.613 382.859 322.739C394.278 331.529 410.101 334.566 424.169 331.936C434.687 329.967 442.675 324.046 440.676 312.158ZM387.401 333.611C385.923 333.749 365.143 334.356 363.727 333.649C362.312 332.941 356.679 314.892 355.313 297.435C354.921 292.406 354.132 290.088 347.998 289.186C343.03 288.454 303.88 288.819 300.4 289.186C297.409 289.5 295.136 290.674 295.384 296.653C295.972 310.866 303.484 337.561 307.534 339.735C311.938 342.093 382.004 341.488 387.224 340.441C391.529 339.577 390.744 333.297 387.401 333.611ZM325.525 309.216C319.943 309.418 321.417 321.203 328.121 320.941C334.114 320.712 332.585 308.961 325.525 309.216ZM336.349 391.361C336.092 390.41 334.61 390.779 334.676 391.726C334.84 394.019 336.4 401.946 337.113 405.646C337.256 406.392 338.54 406 338.665 405.315C338.961 403.7 336.934 393.532 336.349 391.361ZM346.781 391.171C346.295 390.41 344.978 390.942 345.306 391.837C346.912 395.6 348.192 399.494 349.133 403.476C349.324 404.402 350.819 404.17 350.785 403.196C350.327 398.946 348.963 394.844 346.784 391.165L346.781 391.171ZM368.412 403.059C367.105 399.305 366.413 395.365 366.36 391.391C366.343 391.196 366.256 391.013 366.116 390.875C365.976 390.738 365.791 390.655 365.595 390.641C365.398 390.627 365.204 390.684 365.046 390.8C364.887 390.917 364.776 391.086 364.731 391.277C364.253 394.978 364.605 398.739 365.76 402.288C366.903 405.947 369.462 409.045 368.858 412.943C368.815 413.16 368.851 413.384 368.961 413.576C369.07 413.768 369.245 413.914 369.453 413.987C369.662 414.06 369.889 414.056 370.095 413.975C370.3 413.894 370.47 413.742 370.572 413.546C372.483 410.167 369.578 406.164 368.412 403.053V403.059ZM319.008 391.671C318.908 391.502 318.751 391.373 318.564 391.309C318.378 391.244 318.175 391.248 317.991 391.32C317.808 391.392 317.656 391.527 317.563 391.7C317.47 391.873 317.442 392.074 317.484 392.267C318.173 395.501 321.086 401.721 319.135 404.634C319.049 404.782 319.007 404.951 319.016 405.122C319.025 405.293 319.083 405.457 319.185 405.595C319.286 405.733 319.426 405.838 319.586 405.898C319.747 405.957 319.921 405.968 320.088 405.93C324.086 404.636 320.614 394.105 319.008 391.666V391.671ZM336.505 374.825C334.27 366.059 331.685 351.269 338.991 344.287C327.582 344.117 318.072 343.906 315.716 343.906C311.39 343.906 306.105 344.93 304.781 351.096C303.16 358.654 308.871 375.801 314.455 388.29C321.865 388.725 329.295 388.699 336.701 388.212C336.341 383.757 336.273 379.283 336.497 374.819L336.505 374.825ZM343.203 344.346C331.011 352.261 339.793 378.301 343.449 388.678C351.354 389.122 359.279 389.094 367.181 388.596C366.284 384.747 366.126 374.3 367.856 372.1C369.585 369.901 374.784 370.112 382.543 370.215C382.6 361.26 382.174 347.786 387.599 343.543C382.762 344.635 361.464 344.58 343.203 344.34V344.346ZM413.307 304.437C401.738 308.925 395.68 307.386 383.97 306.842C375.914 306.461 364.813 308.584 362.613 317.839C362.557 318.049 362.584 318.273 362.691 318.463C362.797 318.653 362.973 318.794 363.182 318.856C363.39 318.918 363.615 318.897 363.808 318.796C364.001 318.695 364.147 318.523 364.215 318.317C367.88 308.769 379.074 308.567 387.692 309.342C396.311 310.116 406.43 310.822 414.115 305.959C414.318 305.853 414.47 305.671 414.539 305.453C414.607 305.235 414.586 304.999 414.48 304.796C414.375 304.594 414.193 304.441 413.974 304.373C413.756 304.304 413.519 304.325 413.317 304.431L413.307 304.437ZM410.278 261.322C401.281 253.954 398.717 237.738 395.15 230.047C388.06 214.749 372.841 209.977 357.102 213.511C344.834 216.264 345.003 229.379 363.07 227.868C372.708 227.062 377.301 224.634 377.335 224.617C378.417 228.839 383.134 235.295 383.69 234.102C385.05 231.175 387.925 232.412 388.393 235.102C389.074 239.007 386.938 240.974 384.721 240.889C383.93 240.858 387.87 254.559 388.851 257.117C389.108 257.786 389.965 257.674 390.582 257.687C397.308 257.762 403.97 258.991 410.278 261.322ZM407.76 208.786C397.915 201.082 380.573 192.473 368.025 191.738C367.204 191.637 366.37 191.745 365.602 192.052C354.172 195.201 337.926 203.166 328.835 210.714C328.275 211.178 328.715 211.981 329.293 212.154C335.408 213.742 341.437 215.643 347.356 217.851C348.455 218.311 348.916 216.561 347.868 216.11C342.56 213.9 337.062 212.176 331.442 210.959C341.641 204.199 355.378 195.884 367.358 193.399C379.053 194.128 395.802 202.14 405.176 209.213C398.33 210.658 391.585 212.546 384.983 214.865C384.79 214.94 384.632 215.085 384.542 215.272C384.452 215.459 384.438 215.673 384.501 215.87C384.564 216.067 384.701 216.233 384.883 216.333C385.065 216.433 385.278 216.459 385.479 216.407C393.236 214.342 399.536 212.152 407.419 210.594C407.598 210.536 407.758 210.43 407.882 210.289C408.007 210.148 408.091 209.976 408.125 209.791C408.16 209.606 408.145 209.415 408.08 209.239C408.016 209.062 407.905 208.906 407.76 208.786ZM327.875 240.717C329.335 243.914 330.098 247.384 330.112 250.897C330.013 251.799 328.723 251.759 328.445 251.005C328.009 249.818 327.845 248.307 327.452 247.023C327.31 249.319 327.363 251.61 327.237 253.903C327.245 254.122 327.167 254.336 327.02 254.498C326.873 254.661 326.667 254.76 326.448 254.773C326.229 254.787 326.013 254.714 325.847 254.571C325.68 254.428 325.576 254.226 325.557 254.008C325.286 251.747 325.163 249.471 325.191 247.194C324.537 248.772 324.035 250.409 323.692 252.082C323.649 252.286 323.527 252.465 323.352 252.579C323.178 252.693 322.965 252.734 322.76 252.691C322.556 252.648 322.377 252.526 322.263 252.352C322.148 252.177 322.108 251.965 322.151 251.761C322.541 248.461 323.341 245.223 324.534 242.121C325.05 241.182 326.887 239.129 327.875 240.717ZM328.079 214.024C328.144 213.844 328.271 213.692 328.438 213.596C328.605 213.501 328.8 213.468 328.989 213.504C329.178 213.539 329.348 213.641 329.469 213.79C329.589 213.94 329.652 214.127 329.647 214.319C328.443 221.884 327.875 229.536 327.95 237.195C327.95 238.322 326.273 238.181 326.235 237.095C325.99 229.36 326.608 221.622 328.079 214.024ZM359.559 205.15C359.396 204.403 358.102 204.245 358.005 205.068C357.858 206.309 357.757 210.362 357.788 211.553C357.784 211.782 357.869 212.004 358.026 212.172C358.183 212.34 358.398 212.44 358.628 212.453C358.857 212.465 359.082 212.388 359.256 212.238C359.43 212.088 359.538 211.876 359.559 211.648C359.705 209.485 359.705 207.314 359.559 205.15ZM377.592 204.009C372.466 201.634 366.669 201.13 361.209 202.584C361.105 202.61 361.007 202.657 360.922 202.722C360.837 202.787 360.766 202.869 360.714 202.963C360.662 203.056 360.629 203.16 360.618 203.266C360.607 203.373 360.619 203.481 360.651 203.583C360.683 203.685 360.736 203.78 360.807 203.861C360.877 203.942 360.963 204.007 361.06 204.054C361.157 204.1 361.262 204.126 361.369 204.131C361.476 204.135 361.583 204.118 361.683 204.079C366.912 203.085 372.32 203.714 377.181 205.879C376.912 208.004 376.882 210.152 377.091 212.283C377.098 212.514 377.196 212.732 377.364 212.889C377.531 213.047 377.755 213.132 377.985 213.125C378.216 213.119 378.434 213.021 378.592 212.853C378.75 212.686 378.835 212.462 378.828 212.232C378.495 205.173 379.583 205.101 377.592 204.009ZM374.184 257.512C377.108 256.233 379.699 254.301 381.756 251.863C382.366 251.169 381.267 250.2 380.587 250.779C377.2 253.648 373.656 257.04 368.835 256.525C363.701 255.975 362.209 250.75 361.144 246.509C360.891 245.497 359.312 245.748 359.527 246.8C360.556 251.783 362.463 257.303 368.185 258.251C369.632 258.484 371.112 258.414 372.531 258.045C372.791 259.733 372.492 261.367 372.626 262.802C372.659 262.995 372.762 263.169 372.914 263.293C373.066 263.417 373.258 263.482 373.454 263.476C373.65 263.47 373.838 263.393 373.982 263.261C374.126 263.128 374.217 262.947 374.239 262.752C374.437 261.009 374.418 259.249 374.184 257.51V257.512ZM376.893 244.783C376.841 244.589 376.721 244.419 376.554 244.305C376.387 244.192 376.185 244.142 375.985 244.165C375.784 244.188 375.599 244.283 375.462 244.431C375.326 244.58 375.247 244.772 375.241 244.974C375.544 247.986 372.616 248.684 370.336 249.297C370.139 249.353 369.972 249.483 369.869 249.66C369.767 249.838 369.737 250.047 369.787 250.246C369.836 250.444 369.96 250.616 370.134 250.725C370.308 250.833 370.517 250.87 370.717 250.828C373.592 250.56 377.746 249.137 376.893 244.781V244.783ZM367.779 244.279C367.169 244.452 366.526 244.474 365.905 244.342C366.164 243.436 366.433 242.538 366.644 241.621C366.704 241.421 366.683 241.206 366.585 241.022C366.487 240.838 366.32 240.7 366.121 240.638C365.921 240.577 365.705 240.596 365.52 240.693C365.335 240.79 365.196 240.956 365.133 241.155C364.81 242.031 364.523 242.919 364.272 243.819C364.165 244.05 364.116 244.303 364.129 244.557C364.141 244.812 364.216 245.059 364.346 245.278C364.476 245.497 364.657 245.681 364.875 245.814C365.092 245.948 365.338 246.026 365.592 246.043C366.524 246.221 367.485 246.168 368.391 245.889C368.508 245.857 368.616 245.801 368.71 245.725C368.804 245.649 368.881 245.554 368.935 245.447C368.99 245.339 369.022 245.221 369.029 245.101C369.035 244.98 369.016 244.86 368.974 244.747C368.931 244.634 368.865 244.531 368.78 244.445C368.695 244.359 368.593 244.292 368.481 244.248C368.368 244.204 368.248 244.184 368.127 244.189C368.006 244.194 367.888 244.224 367.779 244.277V244.279ZM360.891 240.569C360.847 239.878 360.559 239.104 359.761 239.047C357.753 238.91 358.529 242.599 360.098 242.413C360.942 242.316 360.933 241.195 360.891 240.567V240.569ZM372.311 236.792C372.26 236.608 372.168 236.437 372.042 236.294C371.915 236.15 371.758 236.036 371.582 235.962C371.405 235.887 371.214 235.854 371.023 235.863C370.832 235.873 370.645 235.926 370.477 236.018C370.167 236.272 369.958 236.628 369.885 237.022C369.813 237.416 369.882 237.823 370.081 238.172C370.93 240.141 373.426 239.667 372.311 236.792ZM380.274 232.701C378.803 232.307 377.254 232.304 375.78 232.692C372.689 226.388 365.779 227.389 366.322 234.897C365.895 234.834 365.46 234.86 365.044 234.973C364.627 235.086 364.239 235.283 363.903 235.553C363.586 234.591 363.029 233.725 362.285 233.036C361.541 232.347 360.634 231.858 359.649 231.615C355.109 230.877 354.269 236.906 355.077 240.177C355.707 242.721 357.664 245.411 360.615 245.046C365.048 244.498 364.187 237.761 364.316 237.587C364.534 237.223 364.867 236.941 365.264 236.788C365.66 236.635 366.096 236.618 366.503 236.741C367.075 239.871 369.551 243.56 373.207 242.694C376.718 241.863 377.207 237.148 376.382 234.271C377.627 234.137 378.883 234.128 380.13 234.244C380.3 234.209 380.455 234.12 380.571 233.99C380.687 233.861 380.758 233.697 380.773 233.524C380.788 233.351 380.747 233.177 380.656 233.029C380.565 232.881 380.428 232.766 380.267 232.701H380.274ZM373.203 240.782C375.742 239.593 374.917 234.838 373.974 233.099C373.232 231.721 371.399 229.594 369.614 230.445C368.061 231.183 367.633 233.428 368.09 235.62C368.808 239.182 370.349 242.114 373.195 240.782H373.203ZM362.51 237.319C362.181 235.251 361.121 233.381 359.056 233.323C356.429 233.255 356.224 237.73 356.618 239.581C356.972 241.233 358.283 243.465 360.272 243.318C362.684 243.143 362.737 238.801 362.503 237.319H362.51Z" fill="#001029"/>
<ellipse cx="359.505" cy="238.269" rx="5.2177" ry="7.3354" transform="rotate(-8.664 359.505 238.269)" fill="#FFF7F7"/>
<ellipse cx="364.604" cy="236.341" rx="2.16896" ry="3.04927" transform="rotate(-8.664 364.604 236.341)" fill="#FFF7F7"/>
<ellipse cx="378.359" cy="234.531" rx="3.42803" ry="3.04927" transform="rotate(-8.664 378.359 234.531)" fill="#FFF7F7"/>
<ellipse cx="371.604" cy="236.341" rx="6.10858" ry="8.58786" transform="rotate(-8.664 371.604 236.341)" fill="#FFF7F7"/>
<path d="M363.771 234.059C364.335 233.957 364.899 233.855 365.375 233.785C365.281 231.012 366.753 227.577 370.063 227.592C373.582 227.633 374.883 230.975 375.246 232.55C377.923 231.89 380.705 231.293 383.374 230.636C383.532 230.619 383.691 230.658 383.823 230.747C383.955 230.836 384.052 230.969 384.095 231.122C384.138 231.276 384.125 231.439 384.058 231.584C383.991 231.729 383.876 231.845 383.731 231.912C381.006 232.689 378.28 233.466 375.585 234.333C376.89 242.885 367.093 243.951 365.504 235.543C365.029 235.613 364.585 235.772 364.199 235.811C365.692 243.076 357.742 246.168 355.565 237.705C354.855 237.959 353.22 238.145 353.547 236.825C353.711 236.164 354.637 236.233 355.201 236.131C354.518 229.76 361.338 228.115 363.771 234.059ZM374.081 233.769C373.615 231.631 372.406 229.659 370.789 229.337C368.061 228.711 366.639 231.727 366.949 234.824C367.92 242.151 375.698 240.987 374.081 233.769ZM360.448 241.266C364.112 241.228 363.643 233.032 359.994 231.906C355.102 230.283 356.233 241.303 360.451 241.265L360.448 241.266Z" fill="#001029"/>
<path d="M370.525 234.743C370.901 235.208 371.138 236.728 370.186 236.87C369.444 237.035 369.094 236.058 369.137 235.341C369.173 234.326 369.832 233.884 370.525 234.743Z" fill="#001029"/>
<path d="M360.103 236.676C360.515 237.227 360.811 238.929 359.804 238.889C359.297 238.87 358.96 238.49 358.762 237.659C358.579 236.614 359.386 235.723 360.103 236.676Z" fill="#001029"/>
<defs>
<linearGradient id="paint0_linear_669_1002" x1="659.086" y1="262.171" x2="601.447" y2="362.005" gradientUnits="userSpaceOnUse">
<stop stop-color="#5E0303"/>
<stop offset="1" stop-color="#8A0202"/>
</linearGradient>
<linearGradient id="paint1_linear_669_1002" x1="570.235" y1="294.272" x2="660.504" y2="346.389" gradientUnits="userSpaceOnUse">
<stop stop-color="#DAE3FE"/>
<stop offset="1" stop-color="#E9EFFD"/>
</linearGradient>
<linearGradient id="paint2_linear_669_1002" x1="674.731" y1="171.369" x2="574.356" y2="345.224" gradientUnits="userSpaceOnUse">
<stop stop-color="#5E0303"/>
<stop offset="1" stop-color="#8A0202"/>
</linearGradient>
<linearGradient id="paint3_linear_669_1002" x1="86.9224" y1="6.99927" x2="86.9224" y2="221.118" gradientUnits="userSpaceOnUse">
<stop stop-color="#5E0303"/>
<stop offset="1" stop-color="#8A0202"/>
</linearGradient>
<linearGradient id="paint4_linear_669_1002" x1="68.6666" y1="94.3218" x2="68.6666" y2="219.888" gradientUnits="userSpaceOnUse">
<stop stop-color="#5E0303"/>
<stop offset="1" stop-color="#8A0202"/>
</linearGradient>
<linearGradient id="paint5_linear_669_1002" x1="47.8387" y1="138.013" x2="119.44" y2="138.013" gradientUnits="userSpaceOnUse">
<stop stop-color="#DAE3FE"/>
<stop offset="1" stop-color="#E9EFFD"/>
</linearGradient>
<linearGradient id="paint6_linear_669_1002" x1="506.945" y1="42.2671" x2="506.945" y2="101.284" gradientUnits="userSpaceOnUse">
<stop stop-color="#5E0303"/>
<stop offset="1" stop-color="#8A0202"/>
</linearGradient>
<linearGradient id="paint7_linear_669_1002" x1="552.184" y1="42.2671" x2="552.184" y2="101.284" gradientUnits="userSpaceOnUse">
<stop stop-color="#5E0303"/>
<stop offset="1" stop-color="#8A0202"/>
</linearGradient>
<linearGradient id="paint8_linear_669_1002" x1="519.152" y1="98.2415" x2="519.152" y2="106.586" gradientUnits="userSpaceOnUse">
<stop stop-color="#5E0303"/>
<stop offset="1" stop-color="#8A0202"/>
</linearGradient>
<linearGradient id="paint9_linear_669_1002" x1="360.501" y1="121.69" x2="360.501" y2="424.845" gradientUnits="userSpaceOnUse">
<stop stop-color="#5E0303"/>
<stop offset="1" stop-color="#8A0202"/>
</linearGradient>
</defs>
</svg>
