<svg width="49" height="49" viewBox="0 0 49 49" fill="none" xmlns="http://www.w3.org/2000/svg">
<g id="vuesax/linear/teacher">
<g id="teacher">
<path id="Vector" d="M20.5187 5.16668L8.2279 13.1904C4.28748 15.7629 4.28748 21.5204 8.2279 24.0929L20.5187 32.1167C22.7237 33.5663 26.3579 33.5663 28.5629 32.1167L40.7925 24.0929C44.7125 21.5204 44.7125 15.7833 40.7925 13.2108L28.5629 5.1871C26.3579 3.7171 22.7237 3.7171 20.5187 5.16668Z" stroke="#F5DEDE" stroke-width="2" stroke-linecap="round" stroke-linejoin="round"/>
<path id="Vector_2" d="M11.4945 26.7031L11.4741 36.2785C11.4741 38.8715 13.475 41.6481 15.925 42.4648L22.4379 44.629C23.5608 44.9965 25.4187 44.9965 26.562 44.629L33.075 42.4648C35.525 41.6481 37.5258 38.8715 37.5258 36.2785V26.8052" stroke="#F5DEDE" stroke-width="2" stroke-linecap="round" stroke-linejoin="round"/>
<path id="Vector_3" d="M43.6917 30.625V18.375" stroke="#F5DEDE" stroke-width="2" stroke-linecap="round" stroke-linejoin="round"/>
</g>
</g>
</svg>
