<svg width="16" height="17" viewBox="0 0 16 17" fill="none" xmlns="http://www.w3.org/2000/svg">
<g id="arrow.16.icon_FgC3B">
<path id="Vector" d="M10.08 1.78173L15.74 7.83173C15.9058 8.01548 15.9976 8.2542 15.9976 8.50173C15.9976 8.74925 15.9058 8.98798 15.74 9.17173L10.08 15.2217C10.0004 15.3081 9.90377 15.377 9.79619 15.4242C9.68862 15.4713 9.57245 15.4956 9.455 15.4956C9.33755 15.4956 9.22138 15.4713 9.11381 15.4242C9.00623 15.377 8.9096 15.3081 8.83 15.2217C8.66416 15.038 8.57236 14.7992 8.57236 14.5517C8.57236 14.3042 8.66416 14.0655 8.83 13.8817L12.97 9.45173H0.89C0.39 9.45173 0 9.02173 0 8.50173C0 7.98173 0.4 7.55173 0.89 7.55173H12.97L8.83 3.12173C8.66416 2.93798 8.57236 2.69925 8.57236 2.45173C8.57236 2.2042 8.66416 1.96548 8.83 1.78173C8.9096 1.69537 9.00623 1.62644 9.11381 1.5793C9.22138 1.53215 9.33755 1.50781 9.455 1.50781C9.57245 1.50781 9.68862 1.53215 9.79619 1.5793C9.90377 1.62644 10.0004 1.69537 10.08 1.78173Z" fill="white"/>
</g>
</svg>
