<svg width="100" height="93" viewBox="0 0 100 93" fill="none" xmlns="http://www.w3.org/2000/svg">
<g id="Group 48095516" opacity="0.1">
<g id="Group 5">
<path id="Subtract" fill-rule="evenodd" clip-rule="evenodd" d="M67.9332 11.3772C57.5517 7.33196 51.6912 5.30933 49.8494 4.80368C48.0075 5.30933 42.147 7.33196 31.7655 11.3772C26.7584 13.2162 23.0637 14.7249 20.5047 15.7699C19.8974 16.0179 19.3541 16.2397 18.8724 16.4337C20.6865 23.6553 22.8256 38.2352 21.2895 62.3477H18.244C20.6468 26.6497 14.6863 13.3998 14.6863 13.3998C14.6863 13.3998 18.8724 11.63 31.0957 6.8263C43.9888 1.76978 49.8494 0 49.8494 0C49.8494 0 55.8773 1.76978 68.9379 6.8263C81.1612 11.63 85.3473 13.3998 85.3473 13.3998C85.3473 13.3998 79.3868 26.6497 81.7896 62.3477H78.4166C77.0406 38.2352 79.1771 23.6553 80.8264 16.4337C79.8589 16.0685 78.7167 15.6044 77.3603 15.0532C74.9609 14.0782 71.8913 12.8309 67.9332 11.3772Z" fill="white"/>
</g>
<g id="Group 48095510">
<path id="Vector" d="M1.04291 42.6394C8.52884 57.7027 14.1084 66.1663 33.0012 75.4098L33.0074 75.3926C11.9948 63.625 -0.787795 44.4253 12.9894 26.8789C11.6669 53.8404 23.1908 69.9304 50 80.5846C76.8092 69.9304 88.3332 53.8404 87.0106 26.8789C100.788 44.4253 88.0052 63.625 66.9926 75.3926L66.9988 75.4098C85.8916 66.1663 91.4712 57.7027 98.957 42.6394C105.553 63.1043 79.4478 74.8077 60.3518 80.2207C74.9742 78.9248 86.1458 73.3168 97.1396 62.5022C96.4088 79.8309 72.5148 82.5659 56.4944 82.2104C67.1386 84.12 77.2936 82.6463 88.8466 77.9844C82.3076 90.3185 65.7406 87.9961 52.707 83.5695C59.7926 86.9584 67.736 88.4607 77.3572 88.4951C70.1254 93.994 61.8832 92.4343 54.4418 88.3288C56.2084 89.7852 58.242 91.1384 60.5678 92.4343C56.7804 92.9619 53.6856 91.6202 51.4106 89.5214C51.0612 90.9202 50.572 92.0441 50.0002 92.1935C49.4284 92.0441 48.9388 90.9202 48.5894 89.5214C46.3144 91.6202 43.2196 92.9619 39.4322 92.4343C41.758 91.1384 43.7916 89.7852 45.5582 88.3288C38.1168 92.4343 29.8746 93.994 22.6428 88.4951C32.264 88.4607 40.2074 86.9584 47.293 83.5695C34.2594 87.9961 17.6925 90.3185 11.1534 77.9844C22.7064 82.6463 32.8614 84.12 43.5056 82.2104C27.4852 82.5659 3.59118 79.8309 2.86038 62.5022C13.8542 73.3168 25.0258 78.9248 39.6482 80.2207C20.5522 74.8077 -5.55335 63.1043 1.04291 42.6394Z" fill="white"/>
<path id="Vector_2" d="M50.0007 76.0234L54.3163 83.4035L50.0007 90.7838L45.6849 83.4035L50.0007 76.0234Z" fill="white"/>
</g>
<g id="Group 48095515">
<path id="Vector_3" d="M74.1268 58.5678L72.1729 36.172C72.1563 35.9285 71.9625 35.7347 71.7245 35.7015L70.0971 35.4801L69.3942 34.3509C69.3942 34.3509 65.1763 31.8711 57.9582 31.8711C50.7402 31.8711 49.9542 34.0465 49.9542 34.0465C49.9542 34.0465 49.1737 31.8711 41.9557 31.8711C34.7377 31.8711 30.5198 34.3509 30.5198 34.3509L29.8168 35.4801L28.1839 35.7015C27.9403 35.7347 27.7577 35.9285 27.7355 36.172L25.776 58.5678C25.776 58.5844 25.7705 58.5955 25.7705 58.6121C25.7705 58.7505 25.8259 58.8833 25.92 58.983C26.0141 59.0826 26.1524 59.1379 26.2908 59.1379H26.324L47.3249 57.7209C47.6681 58.0641 48.4486 58.6176 49.9431 58.6176C51.4432 58.6176 52.2181 58.0641 52.5613 57.7209L73.5622 59.1379H73.601C73.7394 59.1379 73.8722 59.0826 73.9718 58.983C74.0659 58.8889 74.1213 58.756 74.1213 58.6176C74.1268 58.601 74.1268 58.5844 74.1268 58.5678ZM27.2595 49.5231C27.1931 50.2095 27.1322 50.8904 27.0713 51.5435C26.944 52.8554 26.8167 54.0787 26.7004 55.1249C26.5897 56.171 26.4846 57.0456 26.4126 57.66C26.3406 58.2689 26.2964 58.6176 26.2964 58.6176C26.2964 58.6176 26.313 58.2689 26.3462 57.6545C26.3849 57.0401 26.4292 56.1655 26.5012 55.1138C26.5731 54.0621 26.6617 52.8332 26.7613 51.5214C26.8167 50.8627 26.872 50.1874 26.9218 49.4955C26.9827 48.8091 27.0381 48.1061 27.099 47.4031C27.1654 46.7057 27.2263 46.0027 27.2872 45.3163C27.3536 44.6299 27.42 43.9491 27.4809 43.2959C27.6082 41.9841 27.73 40.7608 27.8462 39.7146C27.9569 38.6684 28.0677 37.7939 28.1341 37.1794C28.206 36.5706 28.2503 36.2218 28.2503 36.2218C28.2503 36.2218 28.2337 36.5706 28.195 37.185C28.1562 37.7994 28.1119 38.674 28.04 39.7257C27.9736 40.7774 27.8795 42.0062 27.7798 43.3181C27.7245 43.9768 27.6746 44.6521 27.6193 45.344C27.5584 46.0304 27.5031 46.7334 27.4422 47.4363C27.3868 48.1338 27.3204 48.8312 27.2595 49.5231ZM73.5013 57.6545C73.4405 57.0456 73.3519 56.171 73.2523 55.1193C73.1526 54.0676 73.0364 52.8443 72.9091 51.5325C72.7928 50.2206 72.6655 48.8202 72.5382 47.4197C72.422 46.0193 72.3002 44.6244 72.1895 43.307C72.0843 41.9951 71.9902 40.7718 71.9016 39.7201C71.8186 38.6684 71.7577 37.7939 71.7079 37.1794C71.6747 36.6813 71.6526 36.3602 71.647 36.255C71.6581 36.3547 71.6913 36.6813 71.7411 37.1794C71.802 37.7883 71.8906 38.6629 71.9957 39.7146C72.0954 40.7608 72.2116 41.9896 72.3389 43.3015C72.4552 44.6133 72.5825 46.0138 72.7098 47.4142C72.826 48.8146 72.9478 50.2151 73.0585 51.5269C73.1637 52.8388 73.2633 54.0621 73.3464 55.1138C73.4239 56.1655 73.4903 57.0401 73.5346 57.6545C73.5678 58.1139 73.5899 58.4239 73.5954 58.5512C73.5844 58.4239 73.5512 58.1139 73.5013 57.6545Z" fill="white"/>
<g id="Group">
<path id="Vector_4" d="M74.1265 58.5678L72.1725 36.172C72.1559 35.9285 71.9622 35.7347 71.7242 35.7015L70.0968 35.4801L69.3938 34.3509C69.3938 34.3509 65.1759 31.8711 57.9579 31.8711C50.7399 31.8711 49.9538 34.0465 49.9538 34.0465C49.9538 34.0465 49.1734 31.8711 41.9553 31.8711C34.7373 31.8711 30.5194 34.3509 30.5194 34.3509L29.8164 35.4801L28.1835 35.7015C27.94 35.7347 27.7573 35.9285 27.7352 36.172L25.7757 58.5678C25.7757 58.5844 25.7701 58.5955 25.7701 58.6121C25.7701 58.7505 25.8255 58.8833 25.9196 58.983C26.0137 59.0826 26.1521 59.1379 26.2905 59.1379H26.3237L47.3246 57.7209C47.6678 58.0641 48.4482 58.6176 49.9428 58.6176C51.4428 58.6176 52.2178 58.0641 52.561 57.7209L73.5619 59.1379H73.6006C73.739 59.1379 73.8718 59.0826 73.9715 58.983C74.0656 58.8889 74.1209 58.756 74.1209 58.6176C74.1265 58.601 74.1265 58.5844 74.1265 58.5678ZM49.893 55.8777H49.9981L50.0922 55.8832C50.1586 55.8887 50.2361 55.8943 50.3026 55.8998C50.4409 55.9164 50.5738 55.9441 50.7066 55.9884C50.9668 56.0714 51.1882 56.2264 51.3321 56.3814C51.476 56.5308 51.5591 56.6803 51.62 56.7799C51.6753 56.8795 51.703 56.946 51.703 56.946C51.703 56.946 51.6421 56.9128 51.5425 56.8519C51.4428 56.791 51.3044 56.7024 51.1439 56.6194C51.0664 56.5751 50.9779 56.5364 50.8838 56.5087C50.7897 56.4755 50.69 56.4533 50.5849 56.4367C50.4852 56.4201 50.369 56.4146 50.2527 56.4035C50.1919 56.398 50.1365 56.398 50.0812 56.398H49.8985C49.6605 56.4035 49.4391 56.4201 49.2343 56.4865C49.035 56.5419 48.8302 56.636 48.6475 56.7135C48.4593 56.7854 48.2988 56.8353 48.1881 56.8574C48.0718 56.8795 48.0054 56.8906 48.0054 56.8906C48.0054 56.8906 48.0552 56.8408 48.1438 56.7688C48.2268 56.6913 48.3486 56.5806 48.4925 56.4533C48.642 56.326 48.8191 56.171 49.0682 56.0548C49.3228 55.933 49.6162 55.8832 49.893 55.8777ZM27.2591 49.5231C27.1927 50.2095 27.1318 50.8904 27.0709 51.5435C26.9436 52.8554 26.8163 54.0787 26.7001 55.1249C26.5894 56.171 26.4842 57.0456 26.4122 57.66C26.3403 58.2689 26.296 58.6176 26.296 58.6176C26.296 58.6176 26.3126 58.2689 26.3458 57.6545C26.3846 57.0401 26.4288 56.1655 26.5008 55.1138C26.5728 54.0621 26.6613 52.8332 26.761 51.5214C26.8163 50.8627 26.8717 50.1874 26.9215 49.4955C26.9824 48.8091 27.0377 48.1061 27.0986 47.4031C27.165 46.7057 27.2259 46.0027 27.2868 45.3163C27.3532 44.6299 27.4197 43.9491 27.4805 43.2959C27.6079 41.9841 27.7296 40.7608 27.8459 39.7146C27.9566 38.6684 28.0673 37.7939 28.1337 37.1794C28.2057 36.5706 28.25 36.2218 28.25 36.2218C28.25 36.2218 28.2333 36.5706 28.1946 37.185C28.1559 37.7994 28.1116 38.674 28.0396 39.7257C27.9732 40.7774 27.8791 42.0062 27.7795 43.3181C27.7241 43.9768 27.6743 44.6521 27.6189 45.344C27.558 46.0304 27.5027 46.7334 27.4418 47.4363C27.3864 48.1338 27.32 48.8312 27.2591 49.5231ZM29.1577 37.2071L30.763 34.6166C31.3442 34.3011 35.4126 32.2254 41.9498 32.2254C48.1438 32.2254 49.428 33.8472 49.6051 34.135V54.837C48.9464 54.3333 47.1917 53.4255 43.1731 53.4255C38.4017 53.4255 31.001 55.4016 28.9751 55.9718L30.4917 35.8067L28.4437 56.1267C28.4049 56.1932 27.9123 56.9183 27.5193 57.4718L29.1577 37.2071ZM47.2139 56.4755C43.9591 56.6803 32.1081 57.422 28.2333 57.6656C28.5599 57.5327 28.892 57.4441 28.892 57.4441C28.892 57.4441 28.5267 57.4109 28.1448 57.4275C28.0839 57.4331 28.023 57.4331 27.9677 57.4386C28.1503 57.1785 28.3828 56.8463 28.6651 56.4257C29.1688 56.2817 31.2113 55.7061 33.7742 55.1249C33.3203 55.2577 32.883 55.3906 32.4845 55.5068C31.6265 55.7836 30.9124 56.0271 30.4087 56.1932C30.0046 56.3371 29.7445 56.4257 29.6559 56.4589C29.7445 56.4367 30.0102 56.3703 30.4253 56.2596C30.9346 56.1212 31.6597 55.9219 32.5343 55.7005C33.4033 55.4625 34.4218 55.2024 35.5233 54.9588C36.6193 54.7042 37.7983 54.4772 38.9884 54.3222C39.5807 54.2392 40.1785 54.1728 40.7597 54.123C41.3465 54.0787 41.9277 54.051 42.4867 54.051C43.6104 54.0344 44.6566 54.1064 45.5477 54.2281C46.4389 54.3444 47.1751 54.5049 47.6788 54.6433C47.9335 54.7042 48.1327 54.7651 48.2656 54.8038C48.404 54.8426 48.4759 54.8647 48.4759 54.8647C48.4759 54.8647 48.404 54.837 48.2766 54.7872C48.1438 54.7374 47.9501 54.6544 47.701 54.5769C47.1973 54.4053 46.4721 54.2005 45.5754 54.0344C44.9167 53.9182 44.1639 53.8296 43.3613 53.7798C47.8172 53.813 49.3007 55.0031 49.6051 55.302V55.3407C49.0682 55.4514 48.57 55.8002 48.2324 56.0991L46.0238 56.3758L47.2139 56.4755ZM52.2067 57.3667C52.1569 57.422 52.096 57.4829 52.013 57.5493C51.9355 57.6157 51.8414 57.6877 51.7362 57.7486C51.6255 57.815 51.5037 57.8759 51.3653 57.9313C51.2325 57.9866 51.0886 58.0309 50.9336 58.0696C50.8561 58.0918 50.7786 58.1028 50.6956 58.1139C50.6125 58.1305 50.535 58.1416 50.452 58.1471C50.2804 58.1693 50.1199 58.1693 49.9538 58.1803C49.7822 58.1693 49.6162 58.1693 49.4501 58.1471C49.3671 58.1416 49.2841 58.1305 49.2066 58.1139C49.1235 58.0973 49.0461 58.0918 48.9686 58.0641C48.8136 58.0309 48.6697 57.9811 48.5313 57.9257C48.3984 57.8704 48.2766 57.8095 48.1659 57.7431C48.0552 57.6822 47.9611 57.6102 47.8836 57.5438C47.8061 57.4774 47.7397 57.4165 47.6954 57.3611C47.6069 57.267 47.5681 57.1951 47.5626 57.1785C47.5737 57.1951 47.6235 57.2559 47.7176 57.339C47.8283 57.4331 47.9943 57.5549 48.2158 57.66C48.3265 57.7154 48.4482 57.7597 48.5811 57.8039C48.7139 57.8482 48.8579 57.887 49.0073 57.9146C49.1568 57.9479 49.3117 57.97 49.4723 57.9811C49.6328 57.9977 49.7988 57.9977 49.9538 58.0032C50.1199 57.9977 50.2915 57.9977 50.4465 57.9811C50.607 57.97 50.762 57.9479 50.9059 57.9146C51.0554 57.8814 51.1993 57.8482 51.3321 57.8039C51.465 57.7597 51.5867 57.7098 51.6975 57.66C51.9133 57.5493 52.0849 57.4331 52.1901 57.339C52.2731 57.267 52.3229 57.2117 52.3396 57.1895C52.3174 57.2227 52.2787 57.2836 52.2067 57.3667ZM70.8551 57.6102C66.294 57.3224 55.4836 56.6471 52.5831 56.4644L54.526 56.16L51.6698 56.0935C51.3266 55.8002 50.834 55.4459 50.2915 55.3352V55.2965C50.5683 55.0252 51.7639 54.0676 55.1127 53.8241C54.6588 53.8905 54.2271 53.9735 53.8396 54.0621C53.0425 54.2614 52.4004 54.4994 51.9632 54.682C51.7417 54.7706 51.5757 54.8536 51.4594 54.909C51.3432 54.9643 51.2823 54.992 51.2823 54.992C51.2823 54.992 51.3487 54.9699 51.4705 54.9256C51.5868 54.8868 51.7639 54.8149 51.9908 54.7485C52.4392 54.599 53.0923 54.3997 53.8839 54.2558C54.6754 54.1064 55.6164 53.9901 56.6239 53.9901C57.6313 53.968 58.7107 54.0455 59.779 54.1783C60.8528 54.2946 61.9156 54.4883 62.9064 54.7042C63.9028 54.9034 64.8216 55.1304 65.6077 55.3352C66.3992 55.5289 67.0579 55.7005 67.5173 55.8223C67.9159 55.9219 68.1705 55.9884 68.2258 55.9994C68.1705 55.9773 67.9269 55.8943 67.5339 55.7559C67.0856 55.6064 66.4379 55.3906 65.663 55.147C65.1316 54.9865 64.5393 54.8149 63.9028 54.6433C67.4398 55.3407 70.606 56.2319 71.2481 56.4146C71.5526 56.8629 71.785 57.2061 71.9788 57.4774L68.9565 57.0235L70.8551 57.6102ZM71.5415 56.2375L69.4824 35.8012L70.999 55.9828C69.0783 55.4459 61.5558 53.42 56.7346 53.42C52.7104 53.42 50.9613 54.3278 50.297 54.8315V34.1295C50.4631 33.8527 51.703 32.2198 57.9523 32.2198C64.4784 32.2198 68.558 34.2956 69.1392 34.6111L70.7444 37.2016L72.3939 57.4608C72.0784 57.029 71.7075 56.4755 71.5415 56.2375ZM73.501 57.6545C73.4401 57.0456 73.3515 56.171 73.2519 55.1193C73.1523 54.0676 73.036 52.8443 72.9087 51.5325C72.7925 50.2206 72.6651 48.8202 72.5378 47.4197C72.4216 46.0193 72.2998 44.6244 72.1891 43.307C72.0839 41.9951 71.9898 40.7718 71.9013 39.7201C71.8182 38.6684 71.7574 37.7939 71.7075 37.1794C71.6743 36.6813 71.6522 36.3602 71.6467 36.255C71.6577 36.3547 71.6909 36.6813 71.7408 37.1794C71.8016 37.7883 71.8902 38.6629 71.9954 39.7146C72.095 40.7608 72.2113 41.9896 72.3386 43.3015C72.4548 44.6133 72.5821 46.0138 72.7094 47.4142C72.8257 48.8146 72.9474 50.2151 73.0582 51.5269C73.1633 52.8388 73.263 54.0621 73.346 55.1138C73.4235 56.1655 73.4899 57.0401 73.5342 57.6545C73.5674 58.1139 73.5895 58.4239 73.5951 58.5512C73.584 58.4239 73.5508 58.1139 73.501 57.6545Z" fill="#810202"/>
<path id="Vector_5" d="M58.3017 55.3426C61.8442 55.5973 68.4312 56.4885 68.4312 56.4885C58.667 54.0695 55.4067 54.3242 52.1243 55.1655C52.1243 55.1655 54.7535 55.088 58.3017 55.3426Z" fill="#810202"/>
<path id="Vector_6" d="M47.4179 55.1746C44.4786 54.3997 40.5873 54.1727 31.8416 56.4532C31.8416 56.4532 38.7109 55.6008 41.8826 55.3573C45.0598 55.1137 47.4179 55.1746 47.4179 55.1746Z" fill="#810202"/>
<path id="Vector_7" d="M66.4925 56.7398C65.8837 56.6347 65.1751 56.5184 64.4113 56.4022C63.6474 56.297 62.8282 56.1974 62.009 56.1088C61.1897 56.0368 60.365 55.9704 59.5956 55.9206C58.8262 55.8818 58.101 55.8542 57.4866 55.8376C56.8667 55.832 56.3519 55.832 55.9921 55.832C55.6323 55.8376 55.4275 55.8431 55.4275 55.8431C55.4275 55.8431 55.6323 55.8652 55.9921 55.8985C56.3519 55.9261 56.8611 55.9704 57.4755 56.0313C58.09 56.0811 58.804 56.1475 59.5734 56.2195C60.3428 56.2859 61.1565 56.3634 61.9757 56.4575C62.795 56.535 63.6087 56.618 64.3725 56.7066C65.1364 56.7841 65.856 56.8616 66.4649 56.9391C67.0793 57 67.5885 57.0609 67.9483 57.1051C68.3081 57.1439 68.5129 57.166 68.5129 57.166C68.5129 57.166 68.3137 57.1218 67.9594 57.0387C67.6051 56.9557 67.1014 56.8561 66.4925 56.7398Z" fill="#810202"/>
<path id="Vector_8" d="M46.1222 55.6562C45.7514 55.6618 45.3141 55.6729 44.8491 55.6784C44.3841 55.7005 43.886 55.7227 43.3878 55.7448C42.8896 55.7836 42.397 55.8223 41.932 55.8555C41.467 55.9053 41.0353 55.9496 40.6644 55.9828C40.2936 56.0327 39.9836 56.0714 39.7677 56.0991C39.5518 56.1323 39.4301 56.1544 39.4301 56.1544C39.4301 56.1544 39.5574 56.16 39.7732 56.1655C39.9891 56.1655 40.3046 56.171 40.6755 56.1766C41.0464 56.171 41.4836 56.16 41.9486 56.1544C42.4136 56.1323 42.9118 56.1101 43.4099 56.088C43.9081 56.0493 44.4007 56.0105 44.8657 55.9773C45.3307 55.9275 45.7624 55.8832 46.1333 55.85C46.5042 55.8002 46.8141 55.7614 47.03 55.7337C47.2459 55.7005 47.3677 55.6784 47.3677 55.6784C47.3677 55.6784 47.2404 55.6729 47.0245 55.6673C46.8086 55.6673 46.4931 55.6618 46.1222 55.6562Z" fill="#810202"/>
<path id="Vector_9" d="M31.5096 57.1389C31.8418 57.1222 32.2292 57.1001 32.6388 57.078C33.054 57.0448 33.4913 57.006 33.9341 56.9728C34.3714 56.923 34.8087 56.8676 35.2238 56.8233C35.6334 56.7625 36.0154 56.7071 36.342 56.6573C36.6685 56.5964 36.9398 56.5466 37.1335 56.5134C37.3217 56.4746 37.4324 56.4469 37.4324 56.4469C37.4324 56.4469 37.3217 56.4469 37.128 56.4414C36.9342 56.4469 36.6575 56.4525 36.3254 56.458C35.9932 56.4746 35.6058 56.4968 35.1962 56.5189C34.781 56.5521 34.3437 56.5909 33.9009 56.6241C33.4636 56.6739 33.0263 56.7292 32.6112 56.7791C32.2016 56.8399 31.8196 56.8953 31.493 56.9451C31.1665 57.006 30.8952 57.0558 30.7015 57.089C30.5133 57.1278 30.4026 57.1555 30.4026 57.1555C30.4026 57.1555 30.5133 57.1555 30.707 57.161C30.9008 57.1499 31.1775 57.1444 31.5096 57.1389Z" fill="#810202"/>
<path id="Vector_10" d="M69.9928 37.914C70.0261 38.4233 70.0648 39.1484 70.1257 40.0174C70.1866 40.8865 70.2641 41.905 70.3526 42.9899C70.3969 43.5323 70.4467 44.0969 70.4966 44.6671C70.5464 45.2372 70.6017 45.8184 70.6515 46.3941C70.7069 46.9753 70.7623 47.551 70.8176 48.1211C70.8785 48.6912 70.9338 49.2503 70.9892 49.7928C71.1054 50.8777 71.2161 51.8906 71.3213 52.7541C71.421 53.6232 71.5206 54.3428 71.5815 54.8465C71.6479 55.3502 71.6922 55.638 71.6922 55.638C71.6922 55.638 71.6811 55.3447 71.6534 54.841C71.6202 54.3317 71.587 53.6066 71.5206 52.7375C71.4597 51.8685 71.3822 50.85 71.2936 49.7651C71.2494 49.2226 71.1995 48.658 71.1497 48.0879C71.0999 47.5178 71.0446 46.9366 70.9947 46.3609C70.9394 45.7797 70.884 45.204 70.8287 44.6339C70.7678 44.0637 70.7124 43.5047 70.6571 42.9622C70.5408 41.8773 70.4301 40.8643 70.325 40.0008C70.2253 39.1318 70.1257 38.4122 70.0648 37.9085C69.9984 37.4048 69.9541 37.1169 69.9541 37.1169C69.9541 37.1169 69.9652 37.4103 69.9928 37.914Z" fill="#810202"/>
<path id="Vector_11" d="M70.7498 41.9465C70.7997 42.6219 70.855 43.4079 70.9214 44.2437C70.9879 45.0851 71.0709 45.9818 71.1539 46.8785C71.2425 47.7752 71.3255 48.6719 71.4141 49.5078C71.5026 50.3491 71.5967 51.1296 71.6687 51.7994C71.7407 52.4691 71.8237 53.0282 71.868 53.4212C71.9233 53.8142 71.951 54.0356 71.951 54.0356C71.951 54.0356 71.9399 53.8087 71.9178 53.4157C71.8901 53.0227 71.8624 52.4581 71.8126 51.7883C71.7628 51.113 71.7074 50.327 71.641 49.4912C71.5746 48.6498 71.4916 47.7531 71.4085 46.8564C71.32 45.9596 71.2369 45.0629 71.1484 44.2271C71.0598 43.3857 70.9657 42.6052 70.8938 41.9355C70.8163 41.2657 70.7388 40.7066 70.6945 40.3136C70.6391 39.9206 70.6115 39.6992 70.6115 39.6992C70.6115 39.6992 70.6225 39.9262 70.6447 40.3192C70.6668 40.7122 70.6945 41.2768 70.7498 41.9465Z" fill="#810202"/>
<path id="Vector_12" d="M29.6169 40.0008C29.5117 40.8643 29.401 41.8773 29.2847 42.9622C29.2294 43.5047 29.174 44.0637 29.1131 44.6339C29.0578 45.204 29.0024 45.7797 28.9471 46.3609C28.8973 46.9421 28.8419 47.5178 28.7921 48.0879C28.7423 48.658 28.698 49.2171 28.6482 49.7651C28.5596 50.85 28.4821 51.8685 28.4212 52.7375C28.3603 53.6066 28.3216 54.3317 28.2884 54.841C28.2607 55.3502 28.2496 55.638 28.2496 55.638C28.2496 55.638 28.2939 55.3502 28.3603 54.8465C28.4212 54.3428 28.5209 53.6232 28.6205 52.7541C28.7257 51.8906 28.8364 50.8777 28.9526 49.7928C29.008 49.2503 29.0633 48.6912 29.1242 48.1211C29.1796 47.551 29.2349 46.9753 29.2903 46.3941C29.3401 45.8129 29.3954 45.2372 29.4453 44.6671C29.4951 44.0969 29.5394 43.5379 29.5892 42.9899C29.6777 41.905 29.7552 40.8865 29.8161 40.0174C29.877 39.1484 29.9158 38.4233 29.949 37.914C29.9766 37.4048 29.9877 37.1169 29.9877 37.1169C29.9877 37.1169 29.9434 37.4048 29.877 37.9085C29.8161 38.4177 29.7165 39.1373 29.6169 40.0008Z" fill="#810202"/>
<path id="Vector_13" d="M28.5204 49.5117C28.609 48.6703 28.6976 47.7791 28.7806 46.8824C28.8636 45.9857 28.9467 45.089 29.0131 44.2476C29.085 43.4062 29.1349 42.6202 29.1847 41.9505C29.2345 41.2751 29.2622 40.7161 29.2899 40.3231C29.312 39.9301 29.3231 39.7031 29.3231 39.7031C29.3231 39.7031 29.2954 39.9245 29.24 40.3175C29.1902 40.7105 29.1127 41.2641 29.0408 41.9394C28.9688 42.6092 28.8692 43.3896 28.7861 44.231C28.6976 45.0724 28.609 45.9635 28.526 46.8603C28.443 47.757 28.3599 48.6537 28.2935 49.4951C28.2215 50.3364 28.1717 51.1224 28.1219 51.7922C28.0721 52.4675 28.0444 53.0266 28.0167 53.4196C27.9946 53.8126 27.9835 54.0395 27.9835 54.0395C27.9835 54.0395 28.0112 53.8181 28.0665 53.4251C28.1164 53.0321 28.1939 52.4786 28.2658 51.8033C28.3378 51.128 28.4374 50.3475 28.5204 49.5117Z" fill="#810202"/>
<path id="Vector_14" d="M48.7743 47.2504C48.7798 47.7928 48.7964 48.3131 48.8075 48.8113C48.8186 49.3095 48.8352 49.7744 48.8518 50.2117C48.9127 51.9443 49.0012 53.1012 49.0012 53.1012C49.0012 53.1012 49.0898 51.9443 49.1507 50.2117C49.1673 49.78 49.1839 49.3095 49.195 48.8113C49.2061 48.3131 49.2227 47.7928 49.2282 47.2504C49.2337 46.7079 49.2503 46.1488 49.2503 45.5787C49.2559 45.0086 49.2559 44.4329 49.2614 43.8572C49.2559 43.2815 49.2559 42.7003 49.2503 42.1357C49.2503 41.5656 49.2337 41.0065 49.2282 40.4641C49.2116 39.3792 49.1839 38.3717 49.1507 37.5027C49.0898 35.7702 49.0012 34.6133 49.0012 34.6133C49.0012 34.6133 48.9127 35.7702 48.8518 37.5027C48.8186 38.3662 48.7909 39.3792 48.7743 40.4641C48.7688 41.0065 48.7522 41.5656 48.7522 42.1357C48.7466 42.7059 48.7466 43.2815 48.7411 43.8572C48.7466 44.4329 48.7466 45.0141 48.7522 45.5787C48.7522 46.1488 48.7688 46.7079 48.7743 47.2504Z" fill="#810202"/>
<path id="Vector_15" d="M48.1767 46.4785C48.1878 47.3143 48.2099 48.1003 48.232 48.7701C48.2542 49.4398 48.2819 49.9989 48.2985 50.3919C48.3151 50.7849 48.3317 51.0063 48.3317 51.0063C48.3317 51.0063 48.3483 50.7849 48.3649 50.3919C48.3815 49.9989 48.4092 49.4398 48.4313 48.7701C48.4534 48.1003 48.4701 47.3198 48.4867 46.4785C48.4922 46.0578 48.4977 45.626 48.5033 45.1887C48.5033 44.7514 48.5088 44.3031 48.5088 43.8547C48.5088 43.4064 48.5033 42.9635 48.5033 42.5207C48.5033 42.0834 48.4922 41.6461 48.4867 41.231C48.4756 40.3952 48.4534 39.6092 48.4313 38.9394C48.4092 38.2696 48.3815 37.7105 48.3649 37.3175C48.3483 36.9245 48.3317 36.7031 48.3317 36.7031C48.3317 36.7031 48.3151 36.9245 48.2985 37.3175C48.2819 37.7105 48.2542 38.2696 48.232 38.9394C48.2099 39.6092 48.1933 40.3896 48.1767 41.231C48.1711 41.6517 48.1601 42.0834 48.1601 42.5207C48.1601 42.958 48.1545 43.4064 48.1545 43.8547C48.1545 44.3031 48.1601 44.7459 48.1601 45.1887C48.1656 45.626 48.1711 46.0578 48.1767 46.4785Z" fill="#810202"/>
<path id="Vector_16" d="M31.6153 36.7031C31.6153 36.7031 31.5931 36.9245 31.5599 37.3175C31.5267 37.7105 31.4769 38.2641 31.4271 38.9338C31.3772 39.6036 31.3108 40.3841 31.2555 41.2199C31.2001 42.0558 31.1392 42.9525 31.0783 43.8437C31.0285 44.7404 30.9732 45.6316 30.9234 46.4674C30.8735 47.3032 30.8403 48.0892 30.8071 48.759C30.7794 49.4288 30.7518 49.9878 30.7352 50.3808C30.7241 50.7738 30.713 50.9953 30.713 50.9953C30.713 50.9953 30.7352 50.7738 30.7684 50.3808C30.8016 49.9878 30.8459 49.4343 30.9012 48.7645C30.951 48.0948 31.0175 47.3143 31.0728 46.4785C31.1282 45.6426 31.189 44.7459 31.2499 43.8547C31.2998 42.958 31.3551 42.0668 31.4049 41.231C31.4547 40.3952 31.488 39.6092 31.5212 38.9394C31.5544 38.2696 31.571 37.7105 31.5931 37.3175C31.6042 36.9245 31.6153 36.7031 31.6153 36.7031Z" fill="#810202"/>
<path id="Vector_17" d="M50.7441 47.2448C50.7551 48.3297 50.7773 49.3372 50.7994 50.2062C50.8216 51.0697 50.8492 51.7948 50.8658 52.2985C50.8824 52.8023 50.8991 53.0901 50.8991 53.0901C50.8991 53.0901 50.9157 52.8023 50.9323 52.2985C50.9489 51.7948 50.9765 51.0697 50.9987 50.2062C51.0208 49.3427 51.0374 48.3297 51.054 47.2448C51.0596 46.7024 51.0651 46.1433 51.0706 45.5732C51.0706 45.003 51.0762 44.4274 51.0762 43.8517C51.0762 43.276 51.0706 42.6948 51.0706 42.1302C51.0651 41.5601 51.0596 41.001 51.054 40.4586C51.043 39.3736 51.0208 38.3662 50.9987 37.4972C50.9765 36.6337 50.9489 35.9085 50.9323 35.4048C50.9157 34.9011 50.8991 34.6133 50.8991 34.6133C50.8991 34.6133 50.8824 34.9011 50.8658 35.4048C50.8492 35.9085 50.8216 36.6337 50.7994 37.4972C50.7773 38.3607 50.7607 39.3736 50.7441 40.4586C50.7385 41.001 50.733 41.5601 50.7275 42.1302C50.7275 42.7003 50.7219 43.276 50.7219 43.8517C50.7219 44.4274 50.7275 45.0086 50.7275 45.5732C50.733 46.1433 50.7385 46.7024 50.7441 47.2448Z" fill="#810202"/>
<path id="Vector_18" d="M51.4754 49.0277C51.4865 49.7307 51.4975 50.323 51.5086 50.7326C51.5197 51.1422 51.5252 51.3802 51.5252 51.3802C51.5252 51.3802 51.5307 51.1477 51.5418 50.7326C51.5473 50.323 51.5584 49.7307 51.575 49.0277C51.5806 48.3247 51.5972 47.5 51.6027 46.6143C51.6082 45.7342 51.6082 44.7932 51.6138 43.8522C51.6082 42.9112 51.6082 41.9702 51.6027 41.0901C51.5972 40.21 51.5806 39.3852 51.575 38.6767C51.564 37.9737 51.5529 37.3815 51.5418 36.9718C51.5307 36.5622 51.5252 36.3242 51.5252 36.3242C51.5252 36.3242 51.5197 36.5567 51.5086 36.9718C51.5031 37.3815 51.492 37.9737 51.4754 38.6767C51.4699 39.3797 51.4532 40.2045 51.4477 41.0901C51.4422 41.9702 51.4422 42.9112 51.4366 43.8522C51.4422 44.7932 51.4422 45.7342 51.4477 46.6143C51.4532 47.5 51.4699 48.3247 51.4754 49.0277Z" fill="#810202"/>
<path id="Vector_19" d="M32.3569 38.0929C32.3015 38.8789 32.2296 39.7922 32.1687 40.772C32.1078 41.7517 32.0414 42.7979 31.975 43.8441C31.9141 44.8902 31.8587 45.9364 31.8034 46.9217C31.7535 47.9014 31.7093 48.8203 31.6705 49.6063C31.6373 50.3923 31.6096 51.0455 31.5875 51.5049C31.5709 51.9643 31.5598 52.2245 31.5598 52.2245C31.5598 52.2245 31.582 51.9643 31.6207 51.5049C31.6539 51.0455 31.7037 50.3923 31.7646 49.6118C31.82 48.8258 31.8809 47.9125 31.9528 46.9327C32.0137 45.953 32.0801 44.9068 32.1466 43.8607C32.2074 42.8145 32.2628 41.7683 32.3181 40.783C32.3735 39.8033 32.4122 38.8844 32.451 38.0984C32.4842 37.3124 32.5119 36.6592 32.534 36.1998C32.5506 35.7404 32.5617 35.4802 32.5617 35.4802C32.5617 35.4802 32.5396 35.7404 32.5008 36.1998C32.4676 36.6592 32.4178 37.3124 32.3569 38.0929Z" fill="#810202"/>
<path id="Vector_20" d="M68.4974 48.759C68.4641 48.0892 68.4309 47.3032 68.3811 46.4674C68.3313 45.6316 68.2815 44.7348 68.2261 43.8437C68.1652 42.9525 68.1044 42.0558 68.049 41.2199C67.9937 40.3841 67.9272 39.6036 67.8774 38.9338C67.8276 38.2641 67.7778 37.705 67.7446 37.3175C67.7114 36.9245 67.6892 36.7031 67.6892 36.7031C67.6892 36.7031 67.6947 36.9245 67.7114 37.3175C67.728 37.7105 67.7446 38.2696 67.7833 38.9394C67.8165 39.6092 67.8497 40.3952 67.8995 41.231C67.9494 42.0668 67.9992 42.9635 68.0545 43.8547C68.1154 44.7459 68.1763 45.6426 68.2317 46.4784C68.287 47.3143 68.3534 48.0948 68.4033 48.7645C68.4586 49.4343 68.5029 49.9934 68.5361 50.3808C68.5693 50.7738 68.5915 50.9953 68.5915 50.9953C68.5915 50.9953 68.5859 50.7738 68.5693 50.3808C68.5527 49.9878 68.525 49.4288 68.4974 48.759Z" fill="#810202"/>
<path id="Vector_21" d="M66.8536 38.0984C66.8924 38.8844 66.9311 39.7978 66.9865 40.783C67.0418 41.7628 67.1027 42.809 67.1581 43.8607C67.2245 44.9068 67.2909 45.953 67.3518 46.9327C67.4182 47.9125 67.4846 48.8258 67.54 49.6118C67.6009 50.3978 67.6507 51.051 67.6839 51.5049C67.7227 51.9643 67.7448 52.2245 67.7448 52.2245C67.7448 52.2245 67.7337 51.9643 67.7171 51.5049C67.695 51.0455 67.6673 50.3923 67.6341 49.6063C67.5954 48.8203 67.5511 47.907 67.5013 46.9217C67.4459 45.9419 67.385 44.8958 67.3297 43.8441C67.2632 42.7979 67.1968 41.7517 67.1359 40.772C67.075 39.7922 67.0031 38.8789 66.9477 38.0929C66.8868 37.3069 66.837 36.6537 66.8038 36.1998C66.7651 35.7404 66.7429 35.4802 66.7429 35.4802C66.7429 35.4802 66.754 35.7404 66.7706 36.1998C66.7872 36.6592 66.8204 37.3124 66.8536 38.0984Z" fill="#810202"/>
</g>
</g>
</g>
</svg>
