<svg width="49" height="49" viewBox="0 0 49 49" fill="none" xmlns="http://www.w3.org/2000/svg">
<g id="vuesax/linear/medal-star">
<g id="medal-star">
<path id="Vector" d="M38.7917 18.3737C38.7917 21.3341 37.9138 24.0496 36.403 26.3158C34.198 29.5825 30.7067 31.8895 26.6438 32.4816C25.9496 32.6041 25.235 32.6654 24.5 32.6654C23.765 32.6654 23.0505 32.6041 22.3563 32.4816C18.2934 31.8895 14.8021 29.5825 12.5971 26.3158C11.0863 24.0496 10.2084 21.3341 10.2084 18.3737C10.2084 10.4724 16.5988 4.08203 24.5 4.08203C32.4013 4.08203 38.7917 10.4724 38.7917 18.3737Z" stroke="#F5DEDE" stroke-width="2" stroke-linecap="round" stroke-linejoin="round"/>
<path id="Vector_2" d="M43.3854 37.708L40.0166 38.5043C39.2612 38.688 38.6691 39.2597 38.5058 40.0151L37.7912 43.0164C37.4033 44.6497 35.3208 45.1397 34.2387 43.8535L24.5 32.6651L14.7612 43.8738C13.6791 45.1601 11.5966 44.6701 11.2087 43.0368L10.4941 40.0355C10.3104 39.2801 9.71829 38.688 8.98329 38.5247L5.61454 37.7285C4.06287 37.361 3.51162 35.4213 4.63454 34.2984L12.597 26.3359C14.802 29.6026 18.2933 31.9097 22.3562 32.5018C23.0504 32.6243 23.765 32.6856 24.5 32.6856C25.235 32.6856 25.9495 32.6243 26.6437 32.5018C30.7066 31.9097 34.1979 29.6026 36.4029 26.3359L44.3654 34.2984C45.4883 35.4009 44.937 37.3405 43.3854 37.708Z" stroke="#F5DEDE" stroke-width="2" stroke-linecap="round" stroke-linejoin="round"/>
<path id="Vector_3" d="M25.6842 12.2105L26.8887 14.6196C27.0521 14.9463 27.4808 15.273 27.8687 15.3342L30.0533 15.7017C31.4417 15.9263 31.7683 16.9471 30.7679 17.9475L29.0733 19.6421C28.7875 19.9279 28.6242 20.4792 28.7262 20.8876L29.2162 22.9905C29.6042 24.6442 28.7262 25.2975 27.2562 24.4196L25.2146 23.215C24.8471 22.9904 24.2346 22.9904 23.8671 23.215L21.8254 24.4196C20.3554 25.2771 19.4775 24.6442 19.8654 22.9905L20.3554 20.8876C20.4371 20.4996 20.2942 19.9279 20.0083 19.6421L18.3137 17.9475C17.3133 16.9471 17.64 15.9467 19.0283 15.7017L21.2129 15.3342C21.5804 15.273 22.0092 14.9463 22.1725 14.6196L23.3771 12.2105C23.9692 10.9038 25.0308 10.9038 25.6842 12.2105Z" stroke="#F5DEDE" stroke-width="2" stroke-linecap="round" stroke-linejoin="round"/>
</g>
</g>
</svg>
