<svg width="49" height="49" viewBox="0 0 49 49" fill="none" xmlns="http://www.w3.org/2000/svg">
<g id="vuesax/linear/calendar-edit">
<g id="calendar-edit">
<path id="Vector" d="M16.3333 4.08203V10.207" stroke="#F5DEDE" stroke-width="2" stroke-miterlimit="10" stroke-linecap="round" stroke-linejoin="round"/>
<path id="Vector_2" d="M32.6667 4.08203V10.207" stroke="#F5DEDE" stroke-width="2" stroke-miterlimit="10" stroke-linecap="round" stroke-linejoin="round"/>
<path id="Vector_3" d="M7.14575 18.5588H41.8541" stroke="#F5DEDE" stroke-width="2" stroke-miterlimit="10" stroke-linecap="round" stroke-linejoin="round"/>
<g id="Group">
<path id="Vector_4" d="M39.2204 32.197L31.993 39.4245C31.7071 39.7103 31.4417 40.2412 31.3804 40.6291L30.9925 43.3854C30.8496 44.3858 31.5438 45.08 32.5442 44.937L35.3005 44.5491C35.6884 44.4879 36.2396 44.2224 36.505 43.9366L43.7326 36.7091C44.978 35.4637 45.5701 34.0141 43.7326 32.1766C41.9155 30.3595 40.4659 30.9516 39.2204 32.197Z" stroke="#F5DEDE" stroke-width="2" stroke-miterlimit="10" stroke-linecap="round" stroke-linejoin="round"/>
<path id="Vector_5" d="M38.1792 33.2383C38.7917 35.4433 40.5067 37.1583 42.7117 37.7708" stroke="#F5DEDE" stroke-width="2" stroke-miterlimit="10" stroke-linecap="round" stroke-linejoin="round"/>
</g>
<path id="Vector_6" d="M24.5 44.9154H16.3333C9.1875 44.9154 6.125 40.832 6.125 34.707V17.3529C6.125 11.2279 9.1875 7.14453 16.3333 7.14453H32.6667C39.8125 7.14453 42.875 11.2279 42.875 17.3529V24.4987" stroke="#F5DEDE" stroke-width="2" stroke-miterlimit="10" stroke-linecap="round" stroke-linejoin="round"/>
<path id="Vector_7" d="M24.4908 27.9701H24.5092" stroke="#F5DEDE" stroke-width="3" stroke-linecap="round" stroke-linejoin="round"/>
<path id="Vector_8" d="M24.4908 34.0208H24.5092" stroke="#F5DEDE" stroke-width="3" stroke-linecap="round" stroke-linejoin="round"/>
<path id="Vector_9" d="M32.0096 27.9701H32.028" stroke="#F5DEDE" stroke-width="3" stroke-linecap="round" stroke-linejoin="round"/>
<path id="Vector_10" d="M16.9342 27.9701H16.9525" stroke="#F5DEDE" stroke-width="3" stroke-linecap="round" stroke-linejoin="round"/>
<path id="Vector_11" d="M16.9342 34.0951H16.9525" stroke="#F5DEDE" stroke-width="3" stroke-linecap="round" stroke-linejoin="round"/>
</g>
</g>
</svg>
