<svg width="25" height="25" viewBox="0 0 25 25" fill="none" xmlns="http://www.w3.org/2000/svg">
<rect x="0.912248" y="0.318681" width="23.5824" height="23.5824" rx="11.7912" stroke="#F5DEDE" stroke-width="0.637363"/>
<g clip-path="url(#clip0_414_4830)">
<g clip-path="url(#clip1_414_4830)">
<g clip-path="url(#clip2_414_4830)">
<path d="M13.2927 10.7543H15.7146L15.4455 11.8308H13.2927V16.6747H12.2162V11.8308H10.0634V10.7543H12.2162V9.74679C12.2162 8.78715 12.3163 8.43892 12.5036 8.08801C12.6872 7.74129 12.9707 7.45776 13.3174 7.27422C13.6683 7.08693 14.0166 6.98682 14.9762 6.98682C15.2572 6.98682 15.5037 7.01373 15.7146 7.06755V8.06325H14.9762C14.2636 8.06325 14.0467 8.10523 13.8255 8.22364C13.6619 8.31083 13.5402 8.43247 13.453 8.59609C13.3346 8.81729 13.2927 9.0342 13.2927 9.74679V10.7543Z" fill="#F5DEDE" stroke="#F5DEDE" stroke-width="0.50989"/>
</g>
</g>
</g>
<defs>
<clipPath id="clip0_414_4830">
<rect width="7.01099" height="10.8352" fill="white" transform="translate(9.19781 6.6936)"/>
</clipPath>
<clipPath id="clip1_414_4830">
<rect width="7.01099" height="10.8352" fill="white" transform="translate(9.19757 6.69189)"/>
</clipPath>
<clipPath id="clip2_414_4830">
<rect width="7.01099" height="10.8352" fill="white" transform="translate(9.19733 6.69019)"/>
</clipPath>
</defs>
</svg>
