<svg width="25" height="25" viewBox="0 0 25 25" fill="none" xmlns="http://www.w3.org/2000/svg">
<rect x="1.09895" y="0.318681" width="23.5824" height="23.5824" rx="11.7912" stroke="#F5DEDE" stroke-width="0.637363"/>
<g clip-path="url(#clip0_414_4840)">
<g clip-path="url(#clip1_414_4840)">
<g clip-path="url(#clip2_414_4840)">
<path d="M15.641 8.96245C15.5243 8.96245 15.4101 8.99707 15.3131 9.06195C15.216 9.12681 15.1403 9.21901 15.0956 9.32689C15.0509 9.43476 15.0392 9.55346 15.062 9.66798C15.0848 9.7825 15.141 9.88769 15.2236 9.97025C15.3062 10.0528 15.4113 10.109 15.5259 10.1318C15.6403 10.1546 15.7591 10.1429 15.8669 10.0982C15.9748 10.0535 16.067 9.97788 16.1319 9.88079C16.1968 9.78371 16.2314 9.66956 16.2314 9.55281C16.2314 9.39623 16.1692 9.24608 16.0585 9.13536C15.9477 9.02465 15.7976 8.96245 15.641 8.96245ZM17.9041 10.153C17.8945 9.74482 17.8181 9.34097 17.6777 8.95753C17.5527 8.62946 17.358 8.33238 17.1071 8.08675C16.8634 7.83458 16.5657 7.64112 16.2363 7.521C15.8539 7.37644 15.4496 7.29824 15.0408 7.28977C14.5194 7.26025 14.3521 7.26025 13.0139 7.26025C11.6758 7.26025 11.5085 7.26025 10.987 7.28977C10.5783 7.29824 10.174 7.37644 9.79157 7.521C9.46279 7.64234 9.16528 7.83564 8.9208 8.08675C8.66863 8.33036 8.47516 8.62813 8.35504 8.95753C8.21048 9.33996 8.13228 9.74425 8.12382 10.153C8.0943 10.6745 8.0943 10.8418 8.0943 12.1799C8.0943 13.518 8.0943 13.6853 8.12382 14.2068C8.13228 14.6155 8.21048 15.0199 8.35504 15.4023C8.47516 15.7317 8.66863 16.0294 8.9208 16.273C9.16528 16.5242 9.46279 16.7174 9.79157 16.8388C10.174 16.9834 10.5783 17.0615 10.987 17.07C11.5085 17.0995 11.6758 17.0995 13.0139 17.0995C14.3521 17.0995 14.5194 17.0995 15.0408 17.07C15.4496 17.0615 15.8539 16.9834 16.2363 16.8388C16.5657 16.7187 16.8634 16.5252 17.1071 16.273C17.3591 16.0283 17.554 15.731 17.6777 15.4023C17.8181 15.0188 17.8945 14.615 17.9041 14.2068C17.9041 13.6853 17.9336 13.518 17.9336 12.1799C17.9336 10.8418 17.9336 10.6745 17.9041 10.153ZM17.0185 14.1478C17.0149 14.4601 16.9584 14.7694 16.8513 15.0628C16.7727 15.2769 16.6465 15.4704 16.4823 15.6285C16.3227 15.7912 16.1296 15.9171 15.9165 15.9975C15.6232 16.1047 15.3138 16.1612 15.0015 16.1648C14.5095 16.1894 14.3275 16.1943 13.0336 16.1943C11.7398 16.1943 11.5577 16.1943 11.0658 16.1648C10.7415 16.1709 10.4186 16.1209 10.1114 16.0172C9.90757 15.9327 9.72337 15.8071 9.57019 15.6482C9.40691 15.4902 9.28231 15.2966 9.20614 15.0825C9.08603 14.7849 9.01941 14.4685 9.00935 14.1478C9.00935 13.6558 8.97983 13.4738 8.97983 12.1799C8.97983 10.886 8.97983 10.704 9.00935 10.212C9.01156 9.89278 9.06984 9.57639 9.18154 9.27731C9.26815 9.06965 9.40109 8.88455 9.57019 8.73615C9.71966 8.567 9.90438 8.43265 10.1114 8.34258C10.4112 8.23436 10.7273 8.1778 11.0461 8.17531C11.538 8.17531 11.7201 8.14579 13.0139 8.14579C14.3078 8.14579 14.4898 8.14579 14.9818 8.17531C15.2941 8.17889 15.6035 8.23545 15.8969 8.34258C16.1204 8.42555 16.321 8.56045 16.4823 8.73615C16.6436 8.88727 16.7695 9.07202 16.8513 9.27731C16.9606 9.57688 17.0172 9.89314 17.0185 10.212C17.0431 10.704 17.048 10.886 17.048 12.1799C17.048 13.4738 17.0431 13.6558 17.0185 14.1478ZM13.0139 9.65612C12.515 9.65709 12.0275 9.80593 11.6131 10.0838C11.1988 10.3617 10.8761 10.7562 10.6858 11.2175C10.4955 11.6787 10.4462 12.186 10.5442 12.6753C10.6421 13.1645 10.8829 13.6137 11.236 13.9662C11.5892 14.3187 12.0389 14.5586 12.5283 14.6556C13.0177 14.7526 13.5249 14.7022 13.9858 14.5111C14.4467 14.3199 14.8406 13.9965 15.1176 13.5815C15.3947 13.1666 15.5426 12.6788 15.5426 12.1799C15.5433 11.8479 15.4783 11.519 15.3514 11.2122C15.2245 10.9054 15.0382 10.6267 14.8032 10.3921C14.5682 10.1576 14.2891 9.9718 13.9821 9.8455C13.675 9.71918 13.346 9.65482 13.0139 9.65612ZM13.0139 13.8181C12.6899 13.8181 12.3732 13.7221 12.1038 13.5421C11.8344 13.362 11.6244 13.1062 11.5004 12.8068C11.3764 12.5075 11.344 12.1781 11.4072 11.8603C11.4704 11.5425 11.6264 11.2506 11.8555 11.0215C12.0846 10.7924 12.3765 10.6363 12.6943 10.5731C13.0121 10.5099 13.3415 10.5424 13.6409 10.6664C13.9402 10.7904 14.1961 11.0003 14.3761 11.2697C14.5561 11.5391 14.6522 11.8559 14.6522 12.1799C14.6522 12.395 14.6098 12.6081 14.5275 12.8068C14.4452 13.0056 14.3244 13.1862 14.1724 13.3383C14.0202 13.4905 13.8396 13.6111 13.6409 13.6935C13.4421 13.7757 13.2291 13.8181 13.0139 13.8181Z" fill="#F5DEDE"/>
</g>
</g>
</g>
<defs>
<clipPath id="clip0_414_4840">
<rect width="10.8352" height="10.1978" fill="white" transform="translate(7.47241 7.01001)"/>
</clipPath>
<clipPath id="clip1_414_4840">
<rect width="10.8352" height="10.1978" fill="white" transform="translate(7.47217 7.0083)"/>
</clipPath>
<clipPath id="clip2_414_4840">
<rect width="10.8352" height="10.1978" fill="white" transform="translate(7.47192 7.00659)"/>
</clipPath>
</defs>
</svg>
