<svg width="25" height="25" viewBox="0 0 25 25" fill="none" xmlns="http://www.w3.org/2000/svg">
<rect x="0.505388" y="0.318681" width="23.5824" height="23.5824" rx="11.7912" stroke="#F5DEDE" stroke-width="0.637363"/>
<g clip-path="url(#clip0_414_4835)">
<g clip-path="url(#clip1_414_4835)">
<g clip-path="url(#clip2_414_4835)">
<path d="M16.7789 10.552C16.7789 10.552 16.6895 9.91891 16.4142 9.64092C16.0658 9.27503 15.6762 9.27323 15.4975 9.25171C14.218 9.15845 12.2969 9.15845 12.2969 9.15845H12.2933C12.2933 9.15845 10.3723 9.15845 9.09273 9.25171C8.91403 9.27323 8.52445 9.27503 8.17597 9.64092C7.90077 9.91891 7.8132 10.552 7.8132 10.552C7.8132 10.552 7.72028 11.2964 7.72028 12.0389V12.7348C7.72028 13.4773 7.81141 14.2217 7.81141 14.2217C7.81141 14.2217 7.90077 14.8548 8.17419 15.1328C8.52266 15.4987 8.98015 15.4861 9.18387 15.5256C9.91656 15.5955 12.2951 15.617 12.2951 15.617C12.2951 15.617 14.218 15.6135 15.4975 15.522C15.6762 15.5005 16.0658 15.4987 16.4142 15.1328C16.6895 14.8548 16.7789 14.2217 16.7789 14.2217C16.7789 14.2217 16.87 13.4791 16.87 12.7348V12.0389C16.87 11.2964 16.7789 10.552 16.7789 10.552ZM11.3498 13.5796V10.9986L13.8213 12.2936L11.3498 13.5796Z" fill="#F5DEDE"/>
</g>
</g>
</g>
<defs>
<clipPath id="clip0_414_4835">
<rect width="10.1978" height="7.01099" fill="white" transform="translate(7.19818 8.60327)"/>
</clipPath>
<clipPath id="clip1_414_4835">
<rect width="10.1978" height="7.01099" fill="white" transform="translate(7.19794 8.60498)"/>
</clipPath>
<clipPath id="clip2_414_4835">
<rect width="10.1978" height="7.01099" fill="white" transform="translate(7.19769 8.60669)"/>
</clipPath>
</defs>
</svg>
