<svg width="24" height="24" viewBox="0 0 24 24" fill="none" xmlns="http://www.w3.org/2000/svg">
<g id="location">
<path id="Location" d="M12 1C7.0374 1 3 4.92664 3 9.7531C3 15.3148 6.7107 18.6703 9.17175 20.891C9.95475 21.6311 10.9816 22 12.0063 22C13.0287 22 14.0489 21.6324 14.8206 20.8984C17.2812 18.6778 21 15.3205 21 9.7531C21 4.92664 16.9626 1 12 1ZM12 13.2543C10.015 13.2543 8.4 11.6836 8.4 9.7531C8.4 7.8226 10.015 6.25186 12 6.25186C13.985 6.25186 15.6 7.8226 15.6 9.7531C15.6 11.6836 13.985 13.2543 12 13.2543Z" fill="#FF0000"/>
</g>
</svg>
