<svg width="249" height="51" viewBox="0 0 249 51" fill="none" xmlns="http://www.w3.org/2000/svg">
<path d="M65.6555 17C65.7068 17 65.7545 16.9523 65.7985 16.857C65.8498 16.7543 65.8755 16.582 65.8755 16.34V11.06C65.8755 10.8253 65.8498 10.6567 65.7985 10.554C65.7545 10.4513 65.7068 10.4 65.6555 10.4H67.7785C67.7271 10.4 67.6758 10.4513 67.6245 10.554C67.5731 10.6493 67.5475 10.8217 67.5475 11.071V16.34C67.5475 16.5747 67.5731 16.7433 67.6245 16.846C67.6758 16.9487 67.7271 17 67.7785 17H65.6555ZM71.2211 17.11C70.5978 17.11 70.0478 17.0513 69.5711 16.934C69.1018 16.8167 68.7608 16.703 68.5481 16.593L68.7681 15.13V14.8C68.9001 14.954 69.0798 15.119 69.3071 15.295C69.5345 15.4637 69.7948 15.6067 70.0881 15.724C70.3888 15.8413 70.7005 15.9 71.0231 15.9C71.3458 15.9 71.5878 15.8083 71.7491 15.625C71.9178 15.4417 72.0021 15.13 72.0021 14.69V11.06C72.0021 10.8253 71.9765 10.6603 71.9251 10.565C71.8738 10.4623 71.8225 10.4073 71.7711 10.4H73.9271C73.8758 10.4 73.8245 10.4513 73.7731 10.554C73.7218 10.6567 73.6961 10.829 73.6961 11.071V14.69C73.6961 15.3353 73.5935 15.834 73.3881 16.186C73.1901 16.5307 72.9041 16.7727 72.5301 16.912C72.1635 17.044 71.7271 17.11 71.2211 17.11ZM77.0487 17C77.1001 17 77.1514 16.9487 77.2027 16.846C77.2541 16.7433 77.2797 16.5747 77.2797 16.34V11.94C77.2797 11.7787 77.2614 11.6833 77.2247 11.654C77.1881 11.6247 77.0597 11.61 76.8397 11.61H76.0367C75.6114 11.61 75.2667 11.6577 75.0027 11.753C74.7461 11.841 74.5774 11.9253 74.4967 12.006L74.7167 10.73V10.4H81.5367V10.73L81.7567 12.006C81.6761 11.9253 81.5037 11.841 81.2397 11.753C80.9831 11.6577 80.6421 11.61 80.2167 11.61H79.4247C79.1974 11.61 79.0654 11.6247 79.0287 11.654C78.9921 11.6833 78.9737 11.7787 78.9737 11.94V16.34C78.9737 16.5747 78.9994 16.7433 79.0507 16.846C79.1021 16.9487 79.1534 17 79.2047 17H77.0487ZM82.4133 17C82.4646 17 82.5123 16.9523 82.5563 16.857C82.6076 16.7543 82.6333 16.582 82.6333 16.34V11.06C82.6333 10.8253 82.6076 10.6567 82.5563 10.554C82.5123 10.4513 82.4646 10.4 82.4133 10.4H84.5363C84.4849 10.4 84.4336 10.4513 84.3823 10.554C84.3309 10.6493 84.3053 10.8217 84.3053 11.071V16.34C84.3053 16.5747 84.3309 16.7433 84.3823 16.846C84.4336 16.9487 84.4849 17 84.5363 17H82.4133ZM85.6359 17C85.6873 17 85.7386 16.9487 85.7899 16.846C85.8413 16.7433 85.8669 16.5747 85.8669 16.34V11.06C85.8669 10.8253 85.8413 10.6603 85.7899 10.565C85.7386 10.4623 85.6873 10.4073 85.6359 10.4H88.2319C88.1879 10.4073 88.1659 10.466 88.1659 10.576C88.1733 10.6787 88.2356 10.8473 88.3529 11.082C88.4043 11.1773 88.4776 11.3277 88.5729 11.533C88.6756 11.7383 88.7893 11.9767 88.9139 12.248C89.0459 12.5193 89.1816 12.809 89.3209 13.117C89.4676 13.425 89.6143 13.733 89.7609 14.041C89.9076 14.349 90.0433 14.6387 90.1679 14.91H90.1789C90.3109 14.6387 90.4503 14.3527 90.5969 14.052C90.7509 13.744 90.9013 13.436 91.0479 13.128C91.1946 12.82 91.3339 12.5303 91.4659 12.259C91.5979 11.9803 91.7116 11.7383 91.8069 11.533C91.9023 11.3203 91.9719 11.1627 92.0159 11.06C92.1186 10.8253 92.1736 10.6567 92.1809 10.554C92.1883 10.4513 92.1736 10.4 92.1369 10.4H94.7329C94.6816 10.4 94.6303 10.4513 94.5789 10.554C94.5276 10.6567 94.5019 10.829 94.5019 11.071V16.34C94.5019 16.5747 94.5276 16.7433 94.5789 16.846C94.6303 16.9487 94.6816 17 94.7329 17H92.6099C92.6613 17 92.7089 16.9487 92.7529 16.846C92.8043 16.7433 92.8299 16.5747 92.8299 16.34V12.776H92.8079C92.6906 12.996 92.5659 13.238 92.4339 13.502C92.3019 13.766 92.1663 14.0337 92.0269 14.305C91.8949 14.5763 91.7666 14.8403 91.6419 15.097C91.5173 15.3537 91.4036 15.5883 91.3009 15.801C91.1983 16.0137 91.1139 16.1933 91.0479 16.34C90.9453 16.5673 90.8903 16.7323 90.8829 16.835C90.8829 16.9377 90.9013 16.9927 90.9379 17H89.3979C89.4346 16.9927 89.4493 16.9377 89.4419 16.835C89.4419 16.7323 89.3906 16.5673 89.2879 16.34C89.2293 16.208 89.1486 16.0357 89.0459 15.823C88.9506 15.6103 88.8406 15.3793 88.7159 15.13C88.5986 14.8733 88.4739 14.6093 88.3419 14.338C88.2099 14.0593 88.0779 13.788 87.9459 13.524C87.8213 13.2527 87.7039 13.0033 87.5939 12.776H87.5609V16.34C87.5609 16.5747 87.5866 16.7433 87.6379 16.846C87.6893 16.9487 87.7406 17 87.7919 17H85.6359ZM99.2953 17.11C98.0339 17.11 97.1209 16.8093 96.5563 16.208C95.9989 15.5993 95.7203 14.7523 95.7203 13.667C95.7203 12.9703 95.8413 12.3727 96.0833 11.874C96.3326 11.368 96.7176 10.9793 97.2383 10.708C97.7663 10.4293 98.4519 10.29 99.2953 10.29H99.6363C100.465 10.29 101.136 10.4257 101.649 10.697C102.17 10.9683 102.551 11.357 102.793 11.863C103.035 12.369 103.156 12.9703 103.156 13.667C103.156 14.7523 102.878 15.5993 102.32 16.208C101.763 16.8093 100.868 17.11 99.6363 17.11H99.2953ZM99.4053 15.889H99.5263C99.9736 15.889 100.34 15.8157 100.626 15.669C100.92 15.5223 101.136 15.2877 101.275 14.965C101.415 14.635 101.484 14.2023 101.484 13.667C101.484 13.1463 101.411 12.7283 101.264 12.413C101.125 12.0903 100.909 11.8593 100.615 11.72C100.329 11.5733 99.9663 11.5 99.5263 11.5H99.4053C98.9506 11.5 98.5729 11.577 98.2723 11.731C97.9716 11.8777 97.7479 12.1087 97.6013 12.424C97.4619 12.7393 97.3923 13.1537 97.3923 13.667C97.3923 14.2023 97.4656 14.635 97.6123 14.965C97.7663 15.2877 97.9899 15.5223 98.2833 15.669C98.5839 15.8157 98.9579 15.889 99.4053 15.889ZM104.145 17C104.196 17 104.244 16.9523 104.288 16.857C104.339 16.7543 104.365 16.582 104.365 16.34V11.06C104.365 10.8253 104.339 10.6567 104.288 10.554C104.244 10.4513 104.196 10.4 104.145 10.4H106.268C106.216 10.4 106.165 10.4513 106.114 10.554C106.062 10.6493 106.037 10.8217 106.037 11.071V16.34C106.037 16.5747 106.062 16.7433 106.114 16.846C106.165 16.9487 106.216 17 106.268 17H104.145ZM109.787 17C109.846 17 109.908 16.9523 109.974 16.857C110.04 16.7543 110.073 16.582 110.073 16.34L110.062 14.074C109.857 13.8173 109.633 13.5423 109.391 13.249C109.149 12.9557 108.911 12.666 108.676 12.38C108.442 12.094 108.229 11.8373 108.038 11.61C107.855 11.3753 107.712 11.1993 107.609 11.082C107.404 10.8327 107.232 10.6567 107.092 10.554C106.96 10.4513 106.869 10.4 106.817 10.4H109.413C109.362 10.4073 109.344 10.4623 109.358 10.565C109.373 10.6677 109.465 10.84 109.633 11.082C109.714 11.192 109.806 11.3277 109.908 11.489C110.018 11.643 110.132 11.8117 110.249 11.995C110.367 12.1783 110.48 12.358 110.59 12.534C110.708 12.71 110.814 12.8713 110.909 13.018H110.92C111.03 12.8567 111.14 12.6953 111.25 12.534C111.36 12.3653 111.47 12.2003 111.58 12.039C111.69 11.8777 111.8 11.7163 111.91 11.555C112.02 11.3863 112.13 11.2213 112.24 11.06C112.409 10.8107 112.501 10.6383 112.515 10.543C112.53 10.4477 112.512 10.4 112.46 10.4H114.99C114.946 10.4073 114.862 10.4587 114.737 10.554C114.613 10.6493 114.451 10.8143 114.253 11.049C114.143 11.1737 113.989 11.3533 113.791 11.588C113.601 11.8153 113.388 12.0757 113.153 12.369C112.919 12.655 112.677 12.9483 112.427 13.249C112.185 13.5423 111.962 13.8173 111.756 14.074V16.34C111.756 16.582 111.778 16.7543 111.822 16.857C111.874 16.9523 111.925 17 111.976 17H109.787ZM118.185 17C118.236 17 118.287 16.9487 118.339 16.846C118.39 16.7433 118.416 16.5747 118.416 16.34V11.06C118.416 10.8253 118.39 10.6603 118.339 10.565C118.287 10.4623 118.236 10.4073 118.185 10.4H120.341C120.289 10.4 120.238 10.4513 120.187 10.554C120.135 10.6567 120.11 10.829 120.11 11.071V12.754C120.11 12.9153 120.128 13.0107 120.165 13.04C120.209 13.0693 120.341 13.084 120.561 13.084H123.388C123.608 13.084 123.736 13.073 123.773 13.051C123.809 13.0217 123.828 12.9227 123.828 12.754V11.06C123.828 10.8253 123.802 10.6603 123.751 10.565C123.699 10.4623 123.648 10.4073 123.597 10.4H125.753C125.701 10.4 125.65 10.4513 125.599 10.554C125.547 10.6567 125.522 10.829 125.522 11.071V16.34C125.522 16.5747 125.547 16.7433 125.599 16.846C125.65 16.9487 125.701 17 125.753 17H123.597C123.648 17 123.699 16.9487 123.751 16.846C123.802 16.7433 123.828 16.5747 123.828 16.34V14.624C123.828 14.4553 123.806 14.36 123.762 14.338C123.725 14.3087 123.6 14.294 123.388 14.294H120.561C120.341 14.294 120.209 14.3087 120.165 14.338C120.128 14.3673 120.11 14.4627 120.11 14.624V16.34C120.11 16.5747 120.135 16.7433 120.187 16.846C120.238 16.9487 120.289 17 120.341 17H118.185ZM126.854 17C126.905 17 126.953 16.9523 126.997 16.857C127.048 16.7543 127.074 16.582 127.074 16.34V11.06C127.074 10.8253 127.048 10.6567 126.997 10.554C126.953 10.4513 126.905 10.4 126.854 10.4H128.977C128.925 10.4 128.874 10.4513 128.823 10.554C128.771 10.6493 128.746 10.8217 128.746 11.071V16.34C128.746 16.5747 128.771 16.7433 128.823 16.846C128.874 16.9487 128.925 17 128.977 17H126.854ZM130.076 17C130.128 17 130.179 16.9487 130.23 16.846C130.282 16.7433 130.307 16.5747 130.307 16.34V11.06C130.307 10.8253 130.282 10.6603 130.23 10.565C130.179 10.4623 130.128 10.4073 130.076 10.4H132.672C132.628 10.4073 132.606 10.466 132.606 10.576C132.614 10.6787 132.676 10.8473 132.793 11.082C132.845 11.1773 132.918 11.3277 133.013 11.533C133.116 11.7383 133.23 11.9767 133.354 12.248C133.486 12.5193 133.622 12.809 133.761 13.117C133.908 13.425 134.055 13.733 134.201 14.041C134.348 14.349 134.484 14.6387 134.608 14.91H134.619C134.751 14.6387 134.891 14.3527 135.037 14.052C135.191 13.744 135.342 13.436 135.488 13.128C135.635 12.82 135.774 12.5303 135.906 12.259C136.038 11.9803 136.152 11.7383 136.247 11.533C136.343 11.3203 136.412 11.1627 136.456 11.06C136.559 10.8253 136.614 10.6567 136.621 10.554C136.629 10.4513 136.614 10.4 136.577 10.4H139.173C139.122 10.4 139.071 10.4513 139.019 10.554C138.968 10.6567 138.942 10.829 138.942 11.071V16.34C138.942 16.5747 138.968 16.7433 139.019 16.846C139.071 16.9487 139.122 17 139.173 17H137.05C137.102 17 137.149 16.9487 137.193 16.846C137.245 16.7433 137.27 16.5747 137.27 16.34V12.776H137.248C137.131 12.996 137.006 13.238 136.874 13.502C136.742 13.766 136.607 14.0337 136.467 14.305C136.335 14.5763 136.207 14.8403 136.082 15.097C135.958 15.3537 135.844 15.5883 135.741 15.801C135.639 16.0137 135.554 16.1933 135.488 16.34C135.386 16.5673 135.331 16.7323 135.323 16.835C135.323 16.9377 135.342 16.9927 135.378 17H133.838C133.875 16.9927 133.89 16.9377 133.882 16.835C133.882 16.7323 133.831 16.5673 133.728 16.34C133.67 16.208 133.589 16.0357 133.486 15.823C133.391 15.6103 133.281 15.3793 133.156 15.13C133.039 14.8733 132.914 14.6093 132.782 14.338C132.65 14.0593 132.518 13.788 132.386 13.524C132.262 13.2527 132.144 13.0033 132.034 12.776H132.001V16.34C132.001 16.5747 132.027 16.7433 132.078 16.846C132.13 16.9487 132.181 17 132.232 17H130.076ZM143.736 17.11C142.474 17.11 141.561 16.8093 140.997 16.208C140.439 15.5993 140.161 14.7523 140.161 13.667C140.161 12.9703 140.282 12.3727 140.524 11.874C140.773 11.368 141.158 10.9793 141.679 10.708C142.207 10.4293 142.892 10.29 143.736 10.29H144.077C144.905 10.29 145.576 10.4257 146.09 10.697C146.61 10.9683 146.992 11.357 147.234 11.863C147.476 12.369 147.597 12.9703 147.597 13.667C147.597 14.7523 147.318 15.5993 146.761 16.208C146.203 16.8093 145.309 17.11 144.077 17.11H143.736ZM143.846 15.889H143.967C144.414 15.889 144.781 15.8157 145.067 15.669C145.36 15.5223 145.576 15.2877 145.716 14.965C145.855 14.635 145.925 14.2023 145.925 13.667C145.925 13.1463 145.851 12.7283 145.705 12.413C145.565 12.0903 145.349 11.8593 145.056 11.72C144.77 11.5733 144.407 11.5 143.967 11.5H143.846C143.391 11.5 143.013 11.577 142.713 11.731C142.412 11.8777 142.188 12.1087 142.042 12.424C141.902 12.7393 141.833 13.1537 141.833 13.667C141.833 14.2023 141.906 14.635 142.053 14.965C142.207 15.2877 142.43 15.5223 142.724 15.669C143.024 15.8157 143.398 15.889 143.846 15.889ZM150.242 17C150.301 17 150.363 16.9523 150.429 16.857C150.495 16.7543 150.528 16.582 150.528 16.34L150.517 14.074C150.312 13.8173 150.088 13.5423 149.846 13.249C149.604 12.9557 149.366 12.666 149.131 12.38C148.897 12.094 148.684 11.8373 148.493 11.61C148.31 11.3753 148.167 11.1993 148.064 11.082C147.859 10.8327 147.687 10.6567 147.547 10.554C147.415 10.4513 147.324 10.4 147.272 10.4H149.868C149.817 10.4073 149.799 10.4623 149.813 10.565C149.828 10.6677 149.92 10.84 150.088 11.082C150.169 11.192 150.261 11.3277 150.363 11.489C150.473 11.643 150.587 11.8117 150.704 11.995C150.822 12.1783 150.935 12.358 151.045 12.534C151.163 12.71 151.269 12.8713 151.364 13.018H151.375C151.485 12.8567 151.595 12.6953 151.705 12.534C151.815 12.3653 151.925 12.2003 152.035 12.039C152.145 11.8777 152.255 11.7163 152.365 11.555C152.475 11.3863 152.585 11.2213 152.695 11.06C152.864 10.8107 152.956 10.6383 152.97 10.543C152.985 10.4477 152.967 10.4 152.915 10.4H155.445C155.401 10.4073 155.317 10.4587 155.192 10.554C155.068 10.6493 154.906 10.8143 154.708 11.049C154.598 11.1737 154.444 11.3533 154.246 11.588C154.056 11.8153 153.843 12.0757 153.608 12.369C153.374 12.655 153.132 12.9483 152.882 13.249C152.64 13.5423 152.417 13.8173 152.211 14.074V16.34C152.211 16.582 152.233 16.7543 152.277 16.857C152.329 16.9523 152.38 17 152.431 17H150.242ZM154.104 17C154.141 17 154.196 16.9487 154.269 16.846C154.35 16.7433 154.441 16.571 154.544 16.329C154.595 16.219 154.676 16.032 154.786 15.768C154.903 15.4967 155.035 15.185 155.182 14.833C155.336 14.4737 155.494 14.0997 155.655 13.711C155.824 13.3223 155.981 12.9483 156.128 12.589C156.282 12.2297 156.414 11.9143 156.524 11.643C156.641 11.3717 156.722 11.1773 156.766 11.06C156.861 10.8253 156.913 10.6567 156.92 10.554C156.927 10.4513 156.913 10.4 156.876 10.4H159.274C159.245 10.4 159.234 10.4513 159.241 10.554C159.248 10.6493 159.3 10.818 159.395 11.06C159.439 11.1773 159.516 11.3717 159.626 11.643C159.736 11.907 159.864 12.2187 160.011 12.578C160.158 12.93 160.312 13.3003 160.473 13.689C160.634 14.0777 160.788 14.4517 160.935 14.811C161.082 15.163 161.214 15.4747 161.331 15.746C161.448 16.0173 161.533 16.2117 161.584 16.329C161.694 16.571 161.8 16.7433 161.903 16.846C162.006 16.9487 162.083 17 162.134 17H159.637C159.696 16.9927 159.743 16.9377 159.78 16.835C159.824 16.725 159.824 16.5563 159.78 16.329C159.773 16.2777 159.765 16.2373 159.758 16.208C159.751 16.1713 159.736 16.12 159.714 16.054C159.685 15.944 159.652 15.867 159.615 15.823C159.578 15.7717 159.516 15.7423 159.428 15.735C159.347 15.7277 159.212 15.724 159.021 15.724H157.129C156.931 15.724 156.784 15.7313 156.689 15.746C156.594 15.7533 156.528 15.779 156.491 15.823C156.454 15.867 156.425 15.9403 156.403 16.043C156.396 16.0797 156.385 16.1273 156.37 16.186C156.363 16.2447 156.355 16.2923 156.348 16.329C156.297 16.5637 156.282 16.7323 156.304 16.835C156.333 16.9377 156.37 16.9927 156.414 17H154.104ZM157.415 14.514H158.702C158.915 14.514 159.032 14.4957 159.054 14.459C159.076 14.4223 159.065 14.3417 159.021 14.217C158.926 13.9823 158.83 13.744 158.735 13.502C158.64 13.2527 158.548 13.0107 158.46 12.776C158.379 12.5413 158.306 12.325 158.24 12.127C158.181 11.9217 158.13 11.7493 158.086 11.61H158.064C157.961 11.8813 157.855 12.1673 157.745 12.468C157.635 12.7687 157.532 13.0473 157.437 13.304C157.342 13.5607 157.265 13.7733 157.206 13.942C157.147 14.1033 157.118 14.184 157.118 14.184C157.067 14.3013 157.048 14.3857 157.063 14.437C157.078 14.4883 157.195 14.514 157.415 14.514ZM167.466 17C167.517 17 167.568 16.9487 167.62 16.846C167.671 16.7433 167.697 16.5747 167.697 16.34V11.94C167.697 11.7787 167.678 11.6833 167.642 11.654C167.605 11.6247 167.477 11.61 167.257 11.61H166.454C166.028 11.61 165.684 11.6577 165.42 11.753C165.163 11.841 164.994 11.9253 164.914 12.006L165.134 10.73V10.4H171.954V10.73L172.174 12.006C172.093 11.9253 171.921 11.841 171.657 11.753C171.4 11.6577 171.059 11.61 170.634 11.61H169.842C169.614 11.61 169.482 11.6247 169.446 11.654C169.409 11.6833 169.391 11.7787 169.391 11.94V16.34C169.391 16.5747 169.416 16.7433 169.468 16.846C169.519 16.9487 169.57 17 169.622 17H167.466ZM172.83 17C172.882 17 172.929 16.9523 172.973 16.857C173.025 16.7543 173.05 16.582 173.05 16.34V11.06C173.05 10.8253 173.025 10.6567 172.973 10.554C172.929 10.4513 172.882 10.4 172.83 10.4H174.953C174.902 10.4 174.851 10.4513 174.799 10.554C174.748 10.6493 174.722 10.8217 174.722 11.071V16.34C174.722 16.5747 174.748 16.7433 174.799 16.846C174.851 16.9487 174.902 17 174.953 17H172.83ZM175.613 17C175.62 16.9633 175.653 16.8937 175.712 16.791C175.771 16.681 175.866 16.538 175.998 16.362C176.145 16.1713 176.324 15.933 176.537 15.647C176.757 15.361 176.995 15.0493 177.252 14.712C177.509 14.3673 177.773 14.0153 178.044 13.656C178.315 13.2967 178.579 12.9483 178.836 12.611C179.1 12.2663 179.342 11.9473 179.562 11.654V11.632H177.373C176.896 11.632 176.544 11.6833 176.317 11.786C176.097 11.8813 175.972 11.9767 175.943 12.072V10.4H182.499C182.484 10.4367 182.44 10.51 182.367 10.62C182.301 10.73 182.206 10.862 182.081 11.016C181.839 11.3313 181.597 11.6467 181.355 11.962C181.113 12.2773 180.871 12.5927 180.629 12.908C180.387 13.216 180.145 13.5277 179.903 13.843C179.661 14.1583 179.419 14.4737 179.177 14.789C178.935 15.1043 178.693 15.4197 178.451 15.735V15.768H181.399C181.817 15.768 182.143 15.7167 182.378 15.614C182.62 15.5113 182.77 15.4123 182.829 15.317L182.609 16.659V17H175.613ZM183.487 17C183.538 17 183.586 16.9523 183.63 16.857C183.681 16.7543 183.707 16.582 183.707 16.34V11.06C183.707 10.8253 183.681 10.6567 183.63 10.554C183.586 10.4513 183.538 10.4 183.487 10.4H185.61C185.558 10.4 185.507 10.4513 185.456 10.554C185.404 10.6493 185.379 10.8217 185.379 11.071V16.34C185.379 16.5747 185.404 16.7433 185.456 16.846C185.507 16.9487 185.558 17 185.61 17H183.487ZM186.709 17C186.761 17 186.812 16.9487 186.863 16.846C186.915 16.7433 186.94 16.5747 186.94 16.34V11.06C186.94 10.8253 186.915 10.6603 186.863 10.565C186.812 10.4623 186.761 10.4073 186.709 10.4H189.305C189.261 10.4073 189.239 10.466 189.239 10.576C189.247 10.6787 189.309 10.8473 189.426 11.082C189.478 11.1773 189.551 11.3277 189.646 11.533C189.749 11.7383 189.863 11.9767 189.987 12.248C190.119 12.5193 190.255 12.809 190.394 13.117C190.541 13.425 190.688 13.733 190.834 14.041C190.981 14.349 191.117 14.6387 191.241 14.91H191.252C191.384 14.6387 191.524 14.3527 191.67 14.052C191.824 13.744 191.975 13.436 192.121 13.128C192.268 12.82 192.407 12.5303 192.539 12.259C192.671 11.9803 192.785 11.7383 192.88 11.533C192.976 11.3203 193.045 11.1627 193.089 11.06C193.192 10.8253 193.247 10.6567 193.254 10.554C193.262 10.4513 193.247 10.4 193.21 10.4H195.806C195.755 10.4 195.704 10.4513 195.652 10.554C195.601 10.6567 195.575 10.829 195.575 11.071V16.34C195.575 16.5747 195.601 16.7433 195.652 16.846C195.704 16.9487 195.755 17 195.806 17H193.683C193.735 17 193.782 16.9487 193.826 16.846C193.878 16.7433 193.903 16.5747 193.903 16.34V12.776H193.881C193.764 12.996 193.639 13.238 193.507 13.502C193.375 13.766 193.24 14.0337 193.1 14.305C192.968 14.5763 192.84 14.8403 192.715 15.097C192.591 15.3537 192.477 15.5883 192.374 15.801C192.272 16.0137 192.187 16.1933 192.121 16.34C192.019 16.5673 191.964 16.7323 191.956 16.835C191.956 16.9377 191.975 16.9927 192.011 17H190.471C190.508 16.9927 190.523 16.9377 190.515 16.835C190.515 16.7323 190.464 16.5673 190.361 16.34C190.303 16.208 190.222 16.0357 190.119 15.823C190.024 15.6103 189.914 15.3793 189.789 15.13C189.672 14.8733 189.547 14.6093 189.415 14.338C189.283 14.0593 189.151 13.788 189.019 13.524C188.895 13.2527 188.777 13.0033 188.667 12.776H188.634V16.34C188.634 16.5747 188.66 16.7433 188.711 16.846C188.763 16.9487 188.814 17 188.865 17H186.709ZM196.904 17C196.955 17 197.003 16.9523 197.047 16.857C197.098 16.7543 197.124 16.582 197.124 16.34V11.06C197.124 10.8253 197.098 10.6567 197.047 10.554C197.003 10.4513 196.955 10.4 196.904 10.4H199.027C198.975 10.4 198.924 10.4513 198.873 10.554C198.821 10.6493 198.796 10.8217 198.796 11.071V16.34C198.796 16.5747 198.821 16.7433 198.873 16.846C198.924 16.9487 198.975 17 199.027 17H196.904ZM65.2155 31C65.2448 31 65.3181 30.9487 65.4355 30.846C65.5601 30.7433 65.7325 30.5783 65.9525 30.351C66.0625 30.2337 66.2091 30.0723 66.3925 29.867C66.5831 29.6543 66.7885 29.4233 67.0085 29.174C67.2358 28.9173 67.4631 28.6607 67.6905 28.404C67.9178 28.1473 68.1268 27.909 68.3175 27.689C68.1268 27.4763 67.9178 27.2453 67.6905 26.996C67.4705 26.7393 67.2505 26.4863 67.0305 26.237C66.8105 25.9877 66.6088 25.764 66.4255 25.566C66.2495 25.3607 66.1101 25.1993 66.0075 25.082C65.7948 24.8327 65.6188 24.6567 65.4795 24.554C65.3475 24.4513 65.2595 24.4 65.2155 24.4H67.9215C67.8921 24.4 67.8885 24.4513 67.9105 24.554C67.9325 24.6567 68.0131 24.8327 68.1525 25.082C68.2185 25.1993 68.2955 25.324 68.3835 25.456C68.4788 25.5807 68.5741 25.709 68.6695 25.841C68.7648 25.973 68.8565 26.0977 68.9445 26.215C69.0325 26.325 69.1058 26.4203 69.1645 26.501C69.2305 26.5817 69.2781 26.6403 69.3075 26.677H69.3295C69.3515 26.6403 69.3918 26.5853 69.4505 26.512C69.5165 26.4313 69.5935 26.336 69.6815 26.226C69.7695 26.1087 69.8611 25.9877 69.9565 25.863C70.0591 25.731 70.1581 25.5953 70.2535 25.456C70.3488 25.3167 70.4368 25.1847 70.5175 25.06C70.6641 24.818 70.7448 24.6493 70.7595 24.554C70.7815 24.4513 70.7741 24.4 70.7375 24.4H73.3775C73.3481 24.4 73.2711 24.4513 73.1465 24.554C73.0218 24.6493 72.8531 24.8143 72.6405 25.049C72.5305 25.1737 72.3838 25.3423 72.2005 25.555C72.0171 25.7603 71.8118 25.9877 71.5845 26.237C71.3645 26.4863 71.1408 26.7393 70.9135 26.996C70.6935 27.2453 70.4881 27.4763 70.2975 27.689C70.4881 27.909 70.6935 28.1473 70.9135 28.404C71.1335 28.6607 71.3535 28.9137 71.5735 29.163C71.7935 29.4123 71.9915 29.6397 72.1675 29.845C72.3508 30.0503 72.4938 30.208 72.5965 30.318C72.8238 30.5673 73.0035 30.7433 73.1355 30.846C73.2675 30.9487 73.3518 31 73.3885 31H70.7815C70.8401 31 70.8621 30.9487 70.8475 30.846C70.8401 30.7433 70.7448 30.5673 70.5615 30.318C70.4881 30.2153 70.4001 30.1017 70.2975 29.977C70.2021 29.8523 70.1031 29.7277 70.0005 29.603C69.8978 29.471 69.7988 29.35 69.7035 29.24C69.6081 29.13 69.5275 29.0347 69.4615 28.954C69.3955 28.866 69.3478 28.8037 69.3185 28.767H69.2965C69.2745 28.7963 69.2305 28.8513 69.1645 28.932C69.1058 29.0127 69.0325 29.108 68.9445 29.218C68.8638 29.328 68.7721 29.449 68.6695 29.581C68.5668 29.7057 68.4641 29.834 68.3615 29.966C68.2661 30.0907 68.1708 30.2153 68.0755 30.34C67.8921 30.582 67.7931 30.7543 67.7785 30.857C67.7638 30.9523 67.7858 31 67.8445 31H65.2155ZM77.0697 31.11C75.8084 31.11 74.8954 30.8093 74.3307 30.208C73.7734 29.5993 73.4947 28.7523 73.4947 27.667C73.4947 26.9703 73.6157 26.3727 73.8577 25.874C74.107 25.368 74.492 24.9793 75.0127 24.708C75.5407 24.4293 76.2264 24.29 77.0697 24.29H77.4107C78.2394 24.29 78.9104 24.4257 79.4237 24.697C79.9444 24.9683 80.3257 25.357 80.5677 25.863C80.8097 26.369 80.9307 26.9703 80.9307 27.667C80.9307 28.7523 80.652 29.5993 80.0947 30.208C79.5374 30.8093 78.6427 31.11 77.4107 31.11H77.0697ZM77.1797 29.889H77.3007C77.748 29.889 78.1147 29.8157 78.4007 29.669C78.694 29.5223 78.9104 29.2877 79.0497 28.965C79.189 28.635 79.2587 28.2023 79.2587 27.667C79.2587 27.1463 79.1854 26.7283 79.0387 26.413C78.8994 26.0903 78.683 25.8593 78.3897 25.72C78.1037 25.5733 77.7407 25.5 77.3007 25.5H77.1797C76.725 25.5 76.3474 25.577 76.0467 25.731C75.746 25.8777 75.5224 26.1087 75.3757 26.424C75.2364 26.7393 75.1667 27.1537 75.1667 27.667C75.1667 28.2023 75.24 28.635 75.3867 28.965C75.5407 29.2877 75.7644 29.5223 76.0577 29.669C76.3584 29.8157 76.7324 29.889 77.1797 29.889ZM81.9191 31C81.9705 31 82.0218 30.9487 82.0731 30.846C82.1245 30.7433 82.1501 30.5747 82.1501 30.34V25.06C82.1501 24.8253 82.1245 24.6603 82.0731 24.565C82.0218 24.4623 81.9705 24.4073 81.9191 24.4H85.3731C86.0185 24.4 86.5611 24.4623 87.0011 24.587C87.4411 24.7117 87.7931 24.884 88.0571 25.104C88.3285 25.324 88.5338 25.577 88.6731 25.863C88.8125 26.1417 88.9041 26.4387 88.9481 26.754C88.9995 27.0693 89.0251 27.3883 89.0251 27.711C89.0251 28.0043 88.9995 28.3087 88.9481 28.624C88.9041 28.932 88.8088 29.229 88.6621 29.515C88.5228 29.7937 88.3175 30.0467 88.0461 30.274C87.7821 30.494 87.4301 30.67 86.9901 30.802C86.5575 30.934 86.0185 31 85.3731 31H81.9191ZM84.2841 29.779H84.7351C85.3658 29.779 85.8718 29.7277 86.2531 29.625C86.6345 29.515 86.9131 29.317 87.0891 29.031C87.2651 28.745 87.3531 28.3307 87.3531 27.788V27.59C87.3531 27.018 87.2725 26.5963 87.1111 26.325C86.9498 26.0463 86.6785 25.863 86.2971 25.775C85.9158 25.687 85.3951 25.643 84.7351 25.643H84.2841C84.0715 25.643 83.9431 25.6577 83.8991 25.687C83.8625 25.709 83.8441 25.797 83.8441 25.951V29.449C83.8441 29.6103 83.8625 29.7057 83.8991 29.735C83.9431 29.7643 84.0715 29.779 84.2841 29.779ZM90.0188 31C90.0701 31 90.1178 30.9523 90.1618 30.857C90.2131 30.7543 90.2388 30.582 90.2388 30.34V25.06C90.2388 24.8253 90.2131 24.6567 90.1618 24.554C90.1178 24.4513 90.0701 24.4 90.0188 24.4H92.1418C92.0904 24.4 92.0391 24.4513 91.9878 24.554C91.9364 24.6493 91.9108 24.8217 91.9108 25.071V30.34C91.9108 30.5747 91.9364 30.7433 91.9878 30.846C92.0391 30.9487 92.0904 31 92.1418 31H90.0188ZM93.2414 31C93.2927 31 93.3441 30.9487 93.3954 30.846C93.4467 30.7433 93.4724 30.5747 93.4724 30.34V25.06C93.4724 24.8253 93.4467 24.6603 93.3954 24.565C93.3441 24.4623 93.2927 24.4073 93.2414 24.4H95.8374C95.7934 24.4073 95.7714 24.466 95.7714 24.576C95.7787 24.6787 95.8411 24.8473 95.9584 25.082C96.0097 25.1773 96.0831 25.3277 96.1784 25.533C96.2811 25.7383 96.3947 25.9767 96.5194 26.248C96.6514 26.5193 96.7871 26.809 96.9264 27.117C97.0731 27.425 97.2197 27.733 97.3664 28.041C97.5131 28.349 97.6487 28.6387 97.7734 28.91H97.7844C97.9164 28.6387 98.0557 28.3527 98.2024 28.052C98.3564 27.744 98.5067 27.436 98.6534 27.128C98.8001 26.82 98.9394 26.5303 99.0714 26.259C99.2034 25.9803 99.3171 25.7383 99.4124 25.533C99.5077 25.3203 99.5774 25.1627 99.6214 25.06C99.7241 24.8253 99.7791 24.6567 99.7864 24.554C99.7937 24.4513 99.7791 24.4 99.7424 24.4H102.338C102.287 24.4 102.236 24.4513 102.184 24.554C102.133 24.6567 102.107 24.829 102.107 25.071V30.34C102.107 30.5747 102.133 30.7433 102.184 30.846C102.236 30.9487 102.287 31 102.338 31H100.215C100.267 31 100.314 30.9487 100.358 30.846C100.41 30.7433 100.435 30.5747 100.435 30.34V26.776H100.413C100.296 26.996 100.171 27.238 100.039 27.502C99.9074 27.766 99.7717 28.0337 99.6324 28.305C99.5004 28.5763 99.3721 28.8403 99.2474 29.097C99.1227 29.3537 99.0091 29.5883 98.9064 29.801C98.8037 30.0137 98.7194 30.1933 98.6534 30.34C98.5507 30.5673 98.4957 30.7323 98.4884 30.835C98.4884 30.9377 98.5067 30.9927 98.5434 31H97.0034C97.0401 30.9927 97.0547 30.9377 97.0474 30.835C97.0474 30.7323 96.9961 30.5673 96.8934 30.34C96.8347 30.208 96.7541 30.0357 96.6514 29.823C96.5561 29.6103 96.4461 29.3793 96.3214 29.13C96.2041 28.8733 96.0794 28.6093 95.9474 28.338C95.8154 28.0593 95.6834 27.788 95.5514 27.524C95.4267 27.2527 95.3094 27.0033 95.1994 26.776H95.1664V30.34C95.1664 30.5747 95.1921 30.7433 95.2434 30.846C95.2947 30.9487 95.3461 31 95.3974 31H93.2414ZM103.436 31C103.487 31 103.538 30.9487 103.59 30.846C103.641 30.7433 103.667 30.5747 103.667 30.34V25.06C103.667 24.8253 103.641 24.6603 103.59 24.565C103.538 24.4623 103.487 24.4073 103.436 24.4H105.592C105.54 24.4 105.489 24.4513 105.438 24.554C105.386 24.6567 105.361 24.829 105.361 25.071V29.438C105.361 29.5993 105.379 29.6983 105.416 29.735C105.46 29.7643 105.592 29.779 105.812 29.779H108.463C108.888 29.779 109.229 29.7313 109.486 29.636C109.75 29.5333 109.922 29.4343 110.003 29.339L109.673 30.659V31H103.436ZM110.093 31C110.13 31 110.185 30.9487 110.258 30.846C110.339 30.7433 110.431 30.571 110.533 30.329C110.585 30.219 110.665 30.032 110.775 29.768C110.893 29.4967 111.025 29.185 111.171 28.833C111.325 28.4737 111.483 28.0997 111.644 27.711C111.813 27.3223 111.971 26.9483 112.117 26.589C112.271 26.2297 112.403 25.9143 112.513 25.643C112.631 25.3717 112.711 25.1773 112.755 25.06C112.851 24.8253 112.902 24.6567 112.909 24.554C112.917 24.4513 112.902 24.4 112.865 24.4H115.263C115.234 24.4 115.223 24.4513 115.23 24.554C115.238 24.6493 115.289 24.818 115.384 25.06C115.428 25.1773 115.505 25.3717 115.615 25.643C115.725 25.907 115.854 26.2187 116 26.578C116.147 26.93 116.301 27.3003 116.462 27.689C116.624 28.0777 116.778 28.4517 116.924 28.811C117.071 29.163 117.203 29.4747 117.32 29.746C117.438 30.0173 117.522 30.2117 117.573 30.329C117.683 30.571 117.79 30.7433 117.892 30.846C117.995 30.9487 118.072 31 118.123 31H115.626C115.685 30.9927 115.733 30.9377 115.769 30.835C115.813 30.725 115.813 30.5563 115.769 30.329C115.762 30.2777 115.755 30.2373 115.747 30.208C115.74 30.1713 115.725 30.12 115.703 30.054C115.674 29.944 115.641 29.867 115.604 29.823C115.568 29.7717 115.505 29.7423 115.417 29.735C115.337 29.7277 115.201 29.724 115.01 29.724H113.118C112.92 29.724 112.774 29.7313 112.678 29.746C112.583 29.7533 112.517 29.779 112.48 29.823C112.444 29.867 112.414 29.9403 112.392 30.043C112.385 30.0797 112.374 30.1273 112.359 30.186C112.352 30.2447 112.345 30.2923 112.337 30.329C112.286 30.5637 112.271 30.7323 112.293 30.835C112.323 30.9377 112.359 30.9927 112.403 31H110.093ZM113.404 28.514H114.691C114.904 28.514 115.021 28.4957 115.043 28.459C115.065 28.4223 115.054 28.3417 115.01 28.217C114.915 27.9823 114.82 27.744 114.724 27.502C114.629 27.2527 114.537 27.0107 114.449 26.776C114.369 26.5413 114.295 26.325 114.229 26.127C114.171 25.9217 114.119 25.7493 114.075 25.61H114.053C113.951 25.8813 113.844 26.1673 113.734 26.468C113.624 26.7687 113.522 27.0473 113.426 27.304C113.331 27.5607 113.254 27.7733 113.195 27.942C113.137 28.1033 113.107 28.184 113.107 28.184C113.056 28.3013 113.038 28.3857 113.052 28.437C113.067 28.4883 113.184 28.514 113.404 28.514ZM118.711 31C118.763 31 118.81 30.9487 118.854 30.846C118.906 30.7433 118.931 30.5747 118.931 30.34V25.06C118.931 24.8253 118.906 24.6603 118.854 24.565C118.803 24.4623 118.752 24.4073 118.7 24.4H122.308C122.954 24.4 123.467 24.4807 123.848 24.642C124.237 24.8033 124.516 25.0417 124.684 25.357C124.86 25.665 124.948 26.05 124.948 26.512C124.948 26.842 124.886 27.1353 124.761 27.392C124.644 27.6487 124.479 27.8577 124.266 28.019C124.054 28.1803 123.815 28.2977 123.551 28.371V28.404C123.845 28.5213 124.153 28.7523 124.475 29.097C124.798 29.4343 125.088 29.812 125.344 30.23C125.513 30.5013 125.667 30.6957 125.806 30.813C125.946 30.9303 126.052 30.9927 126.125 31H123.353C123.441 30.9927 123.511 30.945 123.562 30.857C123.621 30.7617 123.603 30.6077 123.507 30.395C123.353 30.043 123.166 29.7387 122.946 29.482C122.726 29.2253 122.47 29.031 122.176 28.899C121.89 28.7597 121.56 28.69 121.186 28.69H121.065C120.838 28.69 120.706 28.7083 120.669 28.745C120.633 28.7817 120.614 28.8733 120.614 29.02V30.34C120.614 30.5747 120.64 30.7433 120.691 30.846C120.743 30.9487 120.794 31 120.845 31H118.711ZM121.065 27.579H121.967C122.429 27.579 122.763 27.4983 122.968 27.337C123.174 27.1683 123.276 26.8933 123.276 26.512C123.276 26.3433 123.24 26.193 123.166 26.061C123.093 25.929 122.968 25.8263 122.792 25.753C122.624 25.6797 122.385 25.643 122.077 25.643H121.065C120.838 25.643 120.706 25.654 120.669 25.676C120.633 25.698 120.614 25.7823 120.614 25.929V27.282C120.614 27.4287 120.633 27.5167 120.669 27.546C120.706 27.568 120.838 27.579 121.065 27.579ZM126.671 31C126.722 31 126.77 30.9523 126.814 30.857C126.865 30.7543 126.891 30.582 126.891 30.34V25.06C126.891 24.8253 126.865 24.6567 126.814 24.554C126.77 24.4513 126.722 24.4 126.671 24.4H128.794C128.743 24.4 128.691 24.4513 128.64 24.554C128.589 24.6493 128.563 24.8217 128.563 25.071V30.34C128.563 30.5747 128.589 30.7433 128.64 30.846C128.691 30.9487 128.743 31 128.794 31H126.671ZM129.894 31C129.945 31 129.996 30.9487 130.048 30.846C130.099 30.7433 130.125 30.5747 130.125 30.34V25.06C130.125 24.8253 130.099 24.6603 130.048 24.565C129.996 24.4623 129.945 24.4073 129.894 24.4H132.05C131.998 24.4 131.984 24.4513 132.006 24.554C132.035 24.6567 132.156 24.8327 132.369 25.082C132.427 25.1407 132.523 25.2507 132.655 25.412C132.794 25.566 132.959 25.753 133.15 25.973C133.34 26.193 133.542 26.4313 133.755 26.688C133.975 26.9447 134.195 27.2013 134.415 27.458C134.642 27.7147 134.858 27.9603 135.064 28.195H135.075V25.06C135.075 24.8253 135.049 24.6603 134.998 24.565C134.946 24.4623 134.895 24.4073 134.844 24.4H137C136.948 24.4 136.897 24.4513 136.846 24.554C136.794 24.6567 136.769 24.829 136.769 25.071V30.34C136.769 30.5747 136.794 30.7433 136.846 30.846C136.897 30.9487 136.948 31 137 31H135.108C135.152 31 135.155 30.9487 135.119 30.846C135.089 30.7433 134.976 30.5673 134.778 30.318C134.675 30.186 134.539 30.0173 134.371 29.812C134.202 29.5993 134.011 29.3647 133.799 29.108C133.593 28.8513 133.377 28.5837 133.15 28.305C132.922 28.0263 132.695 27.755 132.468 27.491C132.248 27.2197 132.042 26.9703 131.852 26.743H131.819V30.34C131.819 30.5747 131.844 30.7433 131.896 30.846C131.947 30.9487 131.998 31 132.05 31H129.894ZM138.101 31C138.152 31 138.2 30.9523 138.244 30.857C138.295 30.7543 138.321 30.582 138.321 30.34V25.06C138.321 24.8253 138.295 24.6567 138.244 24.554C138.2 24.4513 138.152 24.4 138.101 24.4H140.224C140.172 24.4 140.121 24.4513 140.07 24.554C140.018 24.6493 139.993 24.8217 139.993 25.071V30.34C139.993 30.5747 140.018 30.7433 140.07 30.846C140.121 30.9487 140.172 31 140.224 31H138.101ZM141.323 31C141.375 31 141.426 30.9487 141.477 30.846C141.529 30.7433 141.554 30.5747 141.554 30.34V25.06C141.554 24.8253 141.529 24.6603 141.477 24.565C141.426 24.4623 141.375 24.4073 141.323 24.4H143.479C143.428 24.4 143.413 24.4513 143.435 24.554C143.465 24.6567 143.586 24.8327 143.798 25.082C143.857 25.1407 143.952 25.2507 144.084 25.412C144.224 25.566 144.389 25.753 144.579 25.973C144.77 26.193 144.972 26.4313 145.184 26.688C145.404 26.9447 145.624 27.2013 145.844 27.458C146.072 27.7147 146.288 27.9603 146.493 28.195H146.504V25.06C146.504 24.8253 146.479 24.6603 146.427 24.565C146.376 24.4623 146.325 24.4073 146.273 24.4H148.429C148.378 24.4 148.327 24.4513 148.275 24.554C148.224 24.6567 148.198 24.829 148.198 25.071V30.34C148.198 30.5747 148.224 30.7433 148.275 30.846C148.327 30.9487 148.378 31 148.429 31H146.537C146.581 31 146.585 30.9487 146.548 30.846C146.519 30.7433 146.405 30.5673 146.207 30.318C146.105 30.186 145.969 30.0173 145.8 29.812C145.632 29.5993 145.441 29.3647 145.228 29.108C145.023 28.8513 144.807 28.5837 144.579 28.305C144.352 28.0263 144.125 27.755 143.897 27.491C143.677 27.2197 143.472 26.9703 143.281 26.743H143.248V30.34C143.248 30.5747 143.274 30.7433 143.325 30.846C143.377 30.9487 143.428 31 143.479 31H141.323ZM152.643 31.11C151.646 31.11 150.858 30.835 150.278 30.285C149.706 29.7277 149.42 28.8733 149.42 27.722C149.42 27.0473 149.549 26.4533 149.805 25.94C150.062 25.4193 150.469 25.016 151.026 24.73C151.584 24.4367 152.306 24.29 153.193 24.29C153.89 24.29 154.466 24.3267 154.92 24.4C155.382 24.4733 155.698 24.5467 155.866 24.62V24.95L156.086 26.16C155.888 26.0133 155.54 25.8667 155.041 25.72C154.543 25.5733 153.934 25.5 153.215 25.5C152.724 25.5 152.321 25.5843 152.005 25.753C151.69 25.9143 151.459 26.16 151.312 26.49C151.166 26.82 151.092 27.2307 151.092 27.722C151.092 28.25 151.158 28.6753 151.29 28.998C151.422 29.3133 151.635 29.5407 151.928 29.68C152.222 29.8193 152.61 29.889 153.094 29.889C153.461 29.889 153.758 29.8523 153.985 29.779C154.213 29.6983 154.381 29.592 154.491 29.46C154.601 29.3207 154.656 29.1667 154.656 28.998V28.822C154.656 28.6533 154.642 28.558 154.612 28.536C154.59 28.5067 154.495 28.492 154.326 28.492H153.974C153.725 28.492 153.512 28.5177 153.336 28.569C153.16 28.6203 153.036 28.6717 152.962 28.723L153.072 27.634V27.304H156.537C156.486 27.3113 156.435 27.3663 156.383 27.469C156.339 27.5643 156.317 27.7293 156.317 27.964V30.34C156.317 30.5747 156.339 30.7433 156.383 30.846C156.435 30.9487 156.486 31 156.537 31H154.656V30.857L154.678 30.549L154.656 30.527C154.605 30.6003 154.502 30.6847 154.348 30.78C154.194 30.868 153.978 30.945 153.699 31.011C153.428 31.077 153.076 31.11 152.643 31.11ZM160.283 31C160.335 31 160.386 30.9487 160.437 30.846C160.489 30.7433 160.514 30.5747 160.514 30.34V25.06C160.514 24.8253 160.489 24.6603 160.437 24.565C160.386 24.4623 160.335 24.4073 160.283 24.4H162.879C162.835 24.4073 162.813 24.466 162.813 24.576C162.821 24.6787 162.883 24.8473 163 25.082C163.052 25.1773 163.125 25.3277 163.22 25.533C163.323 25.7383 163.437 25.9767 163.561 26.248C163.693 26.5193 163.829 26.809 163.968 27.117C164.115 27.425 164.262 27.733 164.408 28.041C164.555 28.349 164.691 28.6387 164.815 28.91H164.826C164.958 28.6387 165.098 28.3527 165.244 28.052C165.398 27.744 165.549 27.436 165.695 27.128C165.842 26.82 165.981 26.5303 166.113 26.259C166.245 25.9803 166.359 25.7383 166.454 25.533C166.55 25.3203 166.619 25.1627 166.663 25.06C166.766 24.8253 166.821 24.6567 166.828 24.554C166.836 24.4513 166.821 24.4 166.784 24.4H169.38C169.329 24.4 169.278 24.4513 169.226 24.554C169.175 24.6567 169.149 24.829 169.149 25.071V30.34C169.149 30.5747 169.175 30.7433 169.226 30.846C169.278 30.9487 169.329 31 169.38 31H167.257C167.309 31 167.356 30.9487 167.4 30.846C167.452 30.7433 167.477 30.5747 167.477 30.34V26.776H167.455C167.338 26.996 167.213 27.238 167.081 27.502C166.949 27.766 166.814 28.0337 166.674 28.305C166.542 28.5763 166.414 28.8403 166.289 29.097C166.165 29.3537 166.051 29.5883 165.948 29.801C165.846 30.0137 165.761 30.1933 165.695 30.34C165.593 30.5673 165.538 30.7323 165.53 30.835C165.53 30.9377 165.549 30.9927 165.585 31H164.045C164.082 30.9927 164.097 30.9377 164.089 30.835C164.089 30.7323 164.038 30.5673 163.935 30.34C163.877 30.208 163.796 30.0357 163.693 29.823C163.598 29.6103 163.488 29.3793 163.363 29.13C163.246 28.8733 163.121 28.6093 162.989 28.338C162.857 28.0593 162.725 27.788 162.593 27.524C162.469 27.2527 162.351 27.0033 162.241 26.776H162.208V30.34C162.208 30.5747 162.234 30.7433 162.285 30.846C162.337 30.9487 162.388 31 162.439 31H160.283ZM169.906 31C169.942 31 169.997 30.9487 170.071 30.846C170.151 30.7433 170.243 30.571 170.346 30.329C170.397 30.219 170.478 30.032 170.588 29.768C170.705 29.4967 170.837 29.185 170.984 28.833C171.138 28.4737 171.295 28.0997 171.457 27.711C171.625 27.3223 171.783 26.9483 171.93 26.589C172.084 26.2297 172.216 25.9143 172.326 25.643C172.443 25.3717 172.524 25.1773 172.568 25.06C172.663 24.8253 172.714 24.6567 172.722 24.554C172.729 24.4513 172.714 24.4 172.678 24.4H175.076C175.046 24.4 175.035 24.4513 175.043 24.554C175.05 24.6493 175.101 24.818 175.197 25.06C175.241 25.1773 175.318 25.3717 175.428 25.643C175.538 25.907 175.666 26.2187 175.813 26.578C175.959 26.93 176.113 27.3003 176.275 27.689C176.436 28.0777 176.59 28.4517 176.737 28.811C176.883 29.163 177.015 29.4747 177.133 29.746C177.25 30.0173 177.334 30.2117 177.386 30.329C177.496 30.571 177.602 30.7433 177.705 30.846C177.807 30.9487 177.884 31 177.936 31H175.439C175.497 30.9927 175.545 30.9377 175.582 30.835C175.626 30.725 175.626 30.5563 175.582 30.329C175.574 30.2777 175.567 30.2373 175.56 30.208C175.552 30.1713 175.538 30.12 175.516 30.054C175.486 29.944 175.453 29.867 175.417 29.823C175.38 29.7717 175.318 29.7423 175.23 29.735C175.149 29.7277 175.013 29.724 174.823 29.724H172.931C172.733 29.724 172.586 29.7313 172.491 29.746C172.395 29.7533 172.329 29.779 172.293 29.823C172.256 29.867 172.227 29.9403 172.205 30.043C172.197 30.0797 172.186 30.1273 172.172 30.186C172.164 30.2447 172.157 30.2923 172.15 30.329C172.098 30.5637 172.084 30.7323 172.106 30.835C172.135 30.9377 172.172 30.9927 172.216 31H169.906ZM173.217 28.514H174.504C174.716 28.514 174.834 28.4957 174.856 28.459C174.878 28.4223 174.867 28.3417 174.823 28.217C174.727 27.9823 174.632 27.744 174.537 27.502C174.441 27.2527 174.35 27.0107 174.262 26.776C174.181 26.5413 174.108 26.325 174.042 26.127C173.983 25.9217 173.932 25.7493 173.888 25.61H173.866C173.763 25.8813 173.657 26.1673 173.547 26.468C173.437 26.7687 173.334 27.0473 173.239 27.304C173.143 27.5607 173.066 27.7733 173.008 27.942C172.949 28.1033 172.92 28.184 172.92 28.184C172.868 28.3013 172.85 28.3857 172.865 28.437C172.879 28.4883 172.997 28.514 173.217 28.514ZM178.513 31C178.564 31 178.616 30.9487 178.667 30.846C178.718 30.7433 178.744 30.5747 178.744 30.34V25.06C178.744 24.8253 178.718 24.6603 178.667 24.565C178.616 24.4623 178.564 24.4073 178.513 24.4H180.669C180.618 24.4 180.566 24.4513 180.515 24.554C180.464 24.6567 180.438 24.829 180.438 25.071V29.438C180.438 29.5993 180.456 29.6983 180.493 29.735C180.537 29.7643 180.669 29.779 180.889 29.779H183.54C183.965 29.779 184.306 29.7313 184.563 29.636C184.827 29.5333 184.999 29.4343 185.08 29.339L184.75 30.659V31H178.513ZM185.17 31C185.207 31 185.262 30.9487 185.335 30.846C185.416 30.7433 185.508 30.571 185.61 30.329C185.662 30.219 185.742 30.032 185.852 29.768C185.97 29.4967 186.102 29.185 186.248 28.833C186.402 28.4737 186.56 28.0997 186.721 27.711C186.89 27.3223 187.048 26.9483 187.194 26.589C187.348 26.2297 187.48 25.9143 187.59 25.643C187.708 25.3717 187.788 25.1773 187.832 25.06C187.928 24.8253 187.979 24.6567 187.986 24.554C187.994 24.4513 187.979 24.4 187.942 24.4H190.34C190.311 24.4 190.3 24.4513 190.307 24.554C190.315 24.6493 190.366 24.818 190.461 25.06C190.505 25.1773 190.582 25.3717 190.692 25.643C190.802 25.907 190.931 26.2187 191.077 26.578C191.224 26.93 191.378 27.3003 191.539 27.689C191.701 28.0777 191.855 28.4517 192.001 28.811C192.148 29.163 192.28 29.4747 192.397 29.746C192.515 30.0173 192.599 30.2117 192.65 30.329C192.76 30.571 192.867 30.7433 192.969 30.846C193.072 30.9487 193.149 31 193.2 31H190.703C190.762 30.9927 190.81 30.9377 190.846 30.835C190.89 30.725 190.89 30.5563 190.846 30.329C190.839 30.2777 190.832 30.2373 190.824 30.208C190.817 30.1713 190.802 30.12 190.78 30.054C190.751 29.944 190.718 29.867 190.681 29.823C190.645 29.7717 190.582 29.7423 190.494 29.735C190.414 29.7277 190.278 29.724 190.087 29.724H188.195C187.997 29.724 187.851 29.7313 187.755 29.746C187.66 29.7533 187.594 29.779 187.557 29.823C187.521 29.867 187.491 29.9403 187.469 30.043C187.462 30.0797 187.451 30.1273 187.436 30.186C187.429 30.2447 187.422 30.2923 187.414 30.329C187.363 30.5637 187.348 30.7323 187.37 30.835C187.4 30.9377 187.436 30.9927 187.48 31H185.17ZM188.481 28.514H189.768C189.981 28.514 190.098 28.4957 190.12 28.459C190.142 28.4223 190.131 28.3417 190.087 28.217C189.992 27.9823 189.897 27.744 189.801 27.502C189.706 27.2527 189.614 27.0107 189.526 26.776C189.446 26.5413 189.372 26.325 189.306 26.127C189.248 25.9217 189.196 25.7493 189.152 25.61H189.13C189.028 25.8813 188.921 26.1673 188.811 26.468C188.701 26.7687 188.599 27.0473 188.503 27.304C188.408 27.5607 188.331 27.7733 188.272 27.942C188.214 28.1033 188.184 28.184 188.184 28.184C188.133 28.3013 188.115 28.3857 188.129 28.437C188.144 28.4883 188.261 28.514 188.481 28.514ZM193.778 31C193.829 31 193.88 30.9487 193.932 30.846C193.983 30.7433 194.009 30.5747 194.009 30.34V25.06C194.009 24.8253 193.983 24.6603 193.932 24.565C193.88 24.4623 193.829 24.4073 193.778 24.4H195.934C195.882 24.4 195.831 24.4513 195.78 24.554C195.728 24.6567 195.703 24.829 195.703 25.071V26.754C195.703 26.9153 195.725 27.0107 195.769 27.04C195.813 27.0693 195.941 27.084 196.154 27.084H196.264C196.476 27.084 196.711 27.0107 196.968 26.864C197.232 26.7173 197.47 26.4973 197.683 26.204C197.895 25.9033 198.042 25.5257 198.123 25.071C198.167 24.829 198.17 24.6567 198.134 24.554C198.104 24.4513 198.064 24.4 198.013 24.4H200.818C200.744 24.4 200.634 24.4513 200.488 24.554C200.341 24.6567 200.191 24.829 200.037 25.071C199.846 25.3717 199.677 25.6247 199.531 25.83C199.384 26.028 199.245 26.2003 199.113 26.347C198.988 26.4937 198.849 26.6403 198.695 26.787C198.497 26.9703 198.313 27.117 198.145 27.227C197.983 27.3297 197.84 27.403 197.716 27.447V27.48C197.892 27.5167 198.086 27.5827 198.299 27.678C198.511 27.7733 198.753 27.931 199.025 28.151C199.391 28.4443 199.688 28.7633 199.916 29.108C200.15 29.4453 200.392 29.8193 200.642 30.23C200.81 30.5013 200.964 30.6993 201.104 30.824C201.243 30.9413 201.349 31 201.423 31H198.651C198.731 31 198.797 30.9523 198.849 30.857C198.9 30.7617 198.885 30.6077 198.805 30.395C198.687 30.065 198.544 29.7717 198.376 29.515C198.207 29.251 198.016 29.031 197.804 28.855C197.591 28.6717 197.356 28.536 197.1 28.448C196.843 28.3527 196.568 28.305 196.275 28.305H196.154C195.926 28.305 195.794 28.3233 195.758 28.36C195.721 28.3893 195.703 28.492 195.703 28.668V30.34C195.703 30.5747 195.728 30.7433 195.78 30.846C195.831 30.9487 195.882 31 195.934 31H193.778ZM201.402 31C201.438 31 201.493 30.9487 201.567 30.846C201.647 30.7433 201.739 30.571 201.842 30.329C201.893 30.219 201.974 30.032 202.084 29.768C202.201 29.4967 202.333 29.185 202.48 28.833C202.634 28.4737 202.791 28.0997 202.953 27.711C203.121 27.3223 203.279 26.9483 203.426 26.589C203.58 26.2297 203.712 25.9143 203.822 25.643C203.939 25.3717 204.02 25.1773 204.064 25.06C204.159 24.8253 204.21 24.6567 204.218 24.554C204.225 24.4513 204.21 24.4 204.174 24.4H206.572C206.542 24.4 206.531 24.4513 206.539 24.554C206.546 24.6493 206.597 24.818 206.693 25.06C206.737 25.1773 206.814 25.3717 206.924 25.643C207.034 25.907 207.162 26.2187 207.309 26.578C207.455 26.93 207.609 27.3003 207.771 27.689C207.932 28.0777 208.086 28.4517 208.233 28.811C208.379 29.163 208.511 29.4747 208.629 29.746C208.746 30.0173 208.83 30.2117 208.882 30.329C208.992 30.571 209.098 30.7433 209.201 30.846C209.303 30.9487 209.38 31 209.432 31H206.935C206.993 30.9927 207.041 30.9377 207.078 30.835C207.122 30.725 207.122 30.5563 207.078 30.329C207.07 30.2777 207.063 30.2373 207.056 30.208C207.048 30.1713 207.034 30.12 207.012 30.054C206.982 29.944 206.949 29.867 206.913 29.823C206.876 29.7717 206.814 29.7423 206.726 29.735C206.645 29.7277 206.509 29.724 206.319 29.724H204.427C204.229 29.724 204.082 29.7313 203.987 29.746C203.891 29.7533 203.825 29.779 203.789 29.823C203.752 29.867 203.723 29.9403 203.701 30.043C203.693 30.0797 203.682 30.1273 203.668 30.186C203.66 30.2447 203.653 30.2923 203.646 30.329C203.594 30.5637 203.58 30.7323 203.602 30.835C203.631 30.9377 203.668 30.9927 203.712 31H201.402ZM204.713 28.514H206C206.212 28.514 206.33 28.4957 206.352 28.459C206.374 28.4223 206.363 28.3417 206.319 28.217C206.223 27.9823 206.128 27.744 206.033 27.502C205.937 27.2527 205.846 27.0107 205.758 26.776C205.677 26.5413 205.604 26.325 205.538 26.127C205.479 25.9217 205.428 25.7493 205.384 25.61H205.362C205.259 25.8813 205.153 26.1673 205.043 26.468C204.933 26.7687 204.83 27.0473 204.735 27.304C204.639 27.5607 204.562 27.7733 204.504 27.942C204.445 28.1033 204.416 28.184 204.416 28.184C204.364 28.3013 204.346 28.3857 204.361 28.437C204.375 28.4883 204.493 28.514 204.713 28.514ZM213.573 31.11C212.774 31.11 212.066 31.0733 211.45 31C210.834 30.9267 210.39 30.8533 210.119 30.78V30.45L209.899 29.053C210.038 29.1703 210.269 29.295 210.592 29.427C210.915 29.559 211.329 29.6727 211.835 29.768C212.341 29.856 212.928 29.9 213.595 29.9C214.006 29.9 214.321 29.8743 214.541 29.823C214.761 29.7643 214.911 29.6837 214.992 29.581C215.073 29.4783 215.113 29.3573 215.113 29.218C215.113 29.042 215.054 28.9063 214.937 28.811C214.82 28.7083 214.607 28.624 214.299 28.558C213.998 28.492 213.569 28.4223 213.012 28.349C212.345 28.261 211.787 28.14 211.34 27.986C210.893 27.832 210.559 27.6157 210.339 27.337C210.119 27.051 210.009 26.6733 210.009 26.204C210.009 25.8227 210.108 25.489 210.306 25.203C210.504 24.917 210.823 24.6933 211.263 24.532C211.703 24.3707 212.286 24.29 213.012 24.29C213.775 24.29 214.427 24.3267 214.97 24.4C215.513 24.4733 215.887 24.5467 216.092 24.62V24.95L216.422 26.16C216.239 26.0647 215.975 25.9657 215.63 25.863C215.285 25.7603 214.886 25.676 214.431 25.61C213.976 25.5367 213.485 25.5 212.957 25.5C212.627 25.5 212.37 25.5293 212.187 25.588C212.004 25.6393 211.872 25.7163 211.791 25.819C211.718 25.9143 211.681 26.0353 211.681 26.182C211.681 26.358 211.747 26.501 211.879 26.611C212.018 26.7137 212.242 26.798 212.55 26.864C212.858 26.93 213.272 26.9923 213.793 27.051C214.592 27.139 215.208 27.271 215.641 27.447C216.074 27.623 216.371 27.8503 216.532 28.129C216.701 28.4003 216.785 28.7303 216.785 29.119C216.785 29.4563 216.723 29.7533 216.598 30.01C216.473 30.2593 216.279 30.4647 216.015 30.626C215.758 30.7873 215.425 30.9083 215.014 30.989C214.611 31.0697 214.13 31.11 213.573 31.11ZM217.776 31C217.827 31 217.875 30.9523 217.919 30.857C217.97 30.7543 217.996 30.582 217.996 30.34V25.06C217.996 24.8253 217.97 24.6567 217.919 24.554C217.875 24.4513 217.827 24.4 217.776 24.4H219.899C219.847 24.4 219.796 24.4513 219.745 24.554C219.693 24.6493 219.668 24.8217 219.668 25.071V30.34C219.668 30.5747 219.693 30.7433 219.745 30.846C219.796 30.9487 219.847 31 219.899 31H217.776ZM220.998 31C221.05 31 221.101 30.9487 221.152 30.846C221.204 30.7433 221.229 30.5747 221.229 30.34V25.06C221.229 24.8253 221.204 24.6603 221.152 24.565C221.101 24.4623 221.05 24.4073 220.998 24.4H223.154C223.103 24.4 223.088 24.4513 223.11 24.554C223.14 24.6567 223.261 24.8327 223.473 25.082C223.532 25.1407 223.627 25.2507 223.759 25.412C223.899 25.566 224.064 25.753 224.254 25.973C224.445 26.193 224.647 26.4313 224.859 26.688C225.079 26.9447 225.299 27.2013 225.519 27.458C225.747 27.7147 225.963 27.9603 226.168 28.195H226.179V25.06C226.179 24.8253 226.154 24.6603 226.102 24.565C226.051 24.4623 226 24.4073 225.948 24.4H228.104C228.053 24.4 228.002 24.4513 227.95 24.554C227.899 24.6567 227.873 24.829 227.873 25.071V30.34C227.873 30.5747 227.899 30.7433 227.95 30.846C228.002 30.9487 228.053 31 228.104 31H226.212C226.256 31 226.26 30.9487 226.223 30.846C226.194 30.7433 226.08 30.5673 225.882 30.318C225.78 30.186 225.644 30.0173 225.475 29.812C225.307 29.5993 225.116 29.3647 224.903 29.108C224.698 28.8513 224.482 28.5837 224.254 28.305C224.027 28.0263 223.8 27.755 223.572 27.491C223.352 27.2197 223.147 26.9703 222.956 26.743H222.923V30.34C222.923 30.5747 222.949 30.7433 223 30.846C223.052 30.9487 223.103 31 223.154 31H220.998ZM229.205 31C229.257 31 229.304 30.9523 229.348 30.857C229.4 30.7543 229.425 30.582 229.425 30.34V25.06C229.425 24.8253 229.4 24.6567 229.348 24.554C229.304 24.4513 229.257 24.4 229.205 24.4H231.328C231.277 24.4 231.226 24.4513 231.174 24.554C231.123 24.6493 231.097 24.8217 231.097 25.071V30.34C231.097 30.5747 231.123 30.7433 231.174 30.846C231.226 30.9487 231.277 31 231.328 31H229.205ZM69.1205 45.11C67.8591 45.11 66.9461 44.8093 66.3815 44.208C65.8241 43.5993 65.5455 42.7523 65.5455 41.667C65.5455 40.9703 65.6665 40.3727 65.9085 39.874C66.1578 39.368 66.5428 38.9793 67.0635 38.708C67.5915 38.4293 68.2771 38.29 69.1205 38.29H69.4615C70.2901 38.29 70.9611 38.4257 71.4745 38.697C71.9951 38.9683 72.3765 39.357 72.6185 39.863C72.8605 40.369 72.9815 40.9703 72.9815 41.667C72.9815 42.7523 72.7028 43.5993 72.1455 44.208C71.5881 44.8093 70.6935 45.11 69.4615 45.11H69.1205ZM69.2305 43.889H69.3515C69.7988 43.889 70.1655 43.8157 70.4515 43.669C70.7448 43.5223 70.9611 43.2877 71.1005 42.965C71.2398 42.635 71.3095 42.2023 71.3095 41.667C71.3095 41.1463 71.2361 40.7283 71.0895 40.413C70.9501 40.0903 70.7338 39.8593 70.4405 39.72C70.1545 39.5733 69.7915 39.5 69.3515 39.5H69.2305C68.7758 39.5 68.3981 39.577 68.0975 39.731C67.7968 39.8777 67.5731 40.1087 67.4265 40.424C67.2871 40.7393 67.2175 41.1537 67.2175 41.667C67.2175 42.2023 67.2908 42.635 67.4375 42.965C67.5915 43.2877 67.8151 43.5223 68.1085 43.669C68.4091 43.8157 68.7831 43.889 69.2305 43.889ZM77.5339 45.11C76.7346 45.11 76.0269 45.0733 75.4109 45C74.7949 44.9267 74.3513 44.8533 74.0799 44.78V44.45L73.8599 43.053C73.9993 43.1703 74.2303 43.295 74.5529 43.427C74.8756 43.559 75.2899 43.6727 75.7959 43.768C76.3019 43.856 76.8886 43.9 77.5559 43.9C77.9666 43.9 78.2819 43.8743 78.5019 43.823C78.7219 43.7643 78.8723 43.6837 78.9529 43.581C79.0336 43.4783 79.0739 43.3573 79.0739 43.218C79.0739 43.042 79.0153 42.9063 78.8979 42.811C78.7806 42.7083 78.5679 42.624 78.2599 42.558C77.9593 42.492 77.5303 42.4223 76.9729 42.349C76.3056 42.261 75.7483 42.14 75.3009 41.986C74.8536 41.832 74.5199 41.6157 74.2999 41.337C74.0799 41.051 73.9699 40.6733 73.9699 40.204C73.9699 39.8227 74.0689 39.489 74.2669 39.203C74.4649 38.917 74.7839 38.6933 75.2239 38.532C75.6639 38.3707 76.2469 38.29 76.9729 38.29C77.7356 38.29 78.3883 38.3267 78.9309 38.4C79.4736 38.4733 79.8476 38.5467 80.0529 38.62V38.95L80.3829 40.16C80.1996 40.0647 79.9356 39.9657 79.5909 39.863C79.2463 39.7603 78.8466 39.676 78.3919 39.61C77.9373 39.5367 77.4459 39.5 76.9179 39.5C76.5879 39.5 76.3313 39.5293 76.1479 39.588C75.9646 39.6393 75.8326 39.7163 75.7519 39.819C75.6786 39.9143 75.6419 40.0353 75.6419 40.182C75.6419 40.358 75.7079 40.501 75.8399 40.611C75.9793 40.7137 76.2029 40.798 76.5109 40.864C76.8189 40.93 77.2333 40.9923 77.7539 41.051C78.5533 41.139 79.1693 41.271 79.6019 41.447C80.0346 41.623 80.3316 41.8503 80.4929 42.129C80.6616 42.4003 80.7459 42.7303 80.7459 43.119C80.7459 43.4563 80.6836 43.7533 80.5589 44.01C80.4343 44.2593 80.2399 44.4647 79.9759 44.626C79.7193 44.7873 79.3856 44.9083 78.9749 44.989C78.5716 45.0697 78.0913 45.11 77.5339 45.11ZM81.7365 45C81.7879 45 81.8392 44.9487 81.8905 44.846C81.9419 44.7433 81.9675 44.5747 81.9675 44.34V39.06C81.9675 38.8253 81.9419 38.6603 81.8905 38.565C81.8392 38.4623 81.7879 38.4073 81.7365 38.4H83.8925C83.8412 38.4 83.7899 38.4513 83.7385 38.554C83.6872 38.6567 83.6615 38.829 83.6615 39.071V40.754C83.6615 40.9153 83.6799 41.0107 83.7165 41.04C83.7605 41.0693 83.8925 41.084 84.1125 41.084H86.9395C87.1595 41.084 87.2879 41.073 87.3245 41.051C87.3612 41.0217 87.3795 40.9227 87.3795 40.754V39.06C87.3795 38.8253 87.3539 38.6603 87.3025 38.565C87.2512 38.4623 87.1999 38.4073 87.1485 38.4H89.3045C89.2532 38.4 89.2019 38.4513 89.1505 38.554C89.0992 38.6567 89.0735 38.829 89.0735 39.071V44.34C89.0735 44.5747 89.0992 44.7433 89.1505 44.846C89.2019 44.9487 89.2532 45 89.3045 45H87.1485C87.1999 45 87.2512 44.9487 87.3025 44.846C87.3539 44.7433 87.3795 44.5747 87.3795 44.34V42.624C87.3795 42.4553 87.3575 42.36 87.3135 42.338C87.2769 42.3087 87.1522 42.294 86.9395 42.294H84.1125C83.8925 42.294 83.7605 42.3087 83.7165 42.338C83.6799 42.3673 83.6615 42.4627 83.6615 42.624V44.34C83.6615 44.5747 83.6872 44.7433 83.7385 44.846C83.7899 44.9487 83.8412 45 83.8925 45H81.7365ZM90.4055 45C90.4568 45 90.5045 44.9523 90.5485 44.857C90.5998 44.7543 90.6255 44.582 90.6255 44.34V39.06C90.6255 38.8253 90.5998 38.6567 90.5485 38.554C90.5045 38.4513 90.4568 38.4 90.4055 38.4H92.5285C92.4771 38.4 92.4258 38.4513 92.3745 38.554C92.3231 38.6493 92.2975 38.8217 92.2975 39.071V44.34C92.2975 44.5747 92.3231 44.7433 92.3745 44.846C92.4258 44.9487 92.4771 45 92.5285 45H90.4055ZM93.6391 45C93.6905 45 93.7381 44.9487 93.7821 44.846C93.8335 44.7433 93.8591 44.5747 93.8591 44.34V39.06C93.8591 38.8253 93.8335 38.6603 93.7821 38.565C93.7308 38.4623 93.6795 38.4073 93.6281 38.4H97.2361C97.8815 38.4 98.3948 38.4807 98.7761 38.642C99.1648 38.8033 99.4435 39.0417 99.6121 39.357C99.7881 39.665 99.8761 40.05 99.8761 40.512C99.8761 40.842 99.8138 41.1353 99.6891 41.392C99.5718 41.6487 99.4068 41.8577 99.1941 42.019C98.9815 42.1803 98.7431 42.2977 98.4791 42.371V42.404C98.7725 42.5213 99.0805 42.7523 99.4031 43.097C99.7258 43.4343 100.015 43.812 100.272 44.23C100.441 44.5013 100.595 44.6957 100.734 44.813C100.873 44.9303 100.98 44.9927 101.053 45H98.2811C98.3691 44.9927 98.4388 44.945 98.4901 44.857C98.5488 44.7617 98.5305 44.6077 98.4351 44.395C98.2811 44.043 98.0941 43.7387 97.8741 43.482C97.6541 43.2253 97.3975 43.031 97.1041 42.899C96.8181 42.7597 96.4881 42.69 96.1141 42.69H95.9931C95.7658 42.69 95.6338 42.7083 95.5971 42.745C95.5605 42.7817 95.5421 42.8733 95.5421 43.02V44.34C95.5421 44.5747 95.5678 44.7433 95.6191 44.846C95.6705 44.9487 95.7218 45 95.7731 45H93.6391ZM95.9931 41.579H96.8951C97.3571 41.579 97.6908 41.4983 97.8961 41.337C98.1015 41.1683 98.2041 40.8933 98.2041 40.512C98.2041 40.3433 98.1675 40.193 98.0941 40.061C98.0208 39.929 97.8961 39.8263 97.7201 39.753C97.5515 39.6797 97.3131 39.643 97.0051 39.643H95.9931C95.7658 39.643 95.6338 39.654 95.5971 39.676C95.5605 39.698 95.5421 39.7823 95.5421 39.929V41.282C95.5421 41.4287 95.5605 41.5167 95.5971 41.546C95.6338 41.568 95.7658 41.579 95.9931 41.579ZM101.599 45C101.65 45 101.698 44.9523 101.742 44.857C101.793 44.7543 101.819 44.582 101.819 44.34V39.06C101.819 38.8253 101.793 38.6567 101.742 38.554C101.698 38.4513 101.65 38.4 101.599 38.4H103.722C103.67 38.4 103.619 38.4513 103.568 38.554C103.516 38.6493 103.491 38.8217 103.491 39.071V44.34C103.491 44.5747 103.516 44.7433 103.568 44.846C103.619 44.9487 103.67 45 103.722 45H101.599ZM108.385 45.11C107.586 45.11 106.878 45.0733 106.262 45C105.646 44.9267 105.203 44.8533 104.931 44.78V44.45L104.711 43.053C104.851 43.1703 105.082 43.295 105.404 43.427C105.727 43.559 106.141 43.6727 106.647 43.768C107.153 43.856 107.74 43.9 108.407 43.9C108.818 43.9 109.133 43.8743 109.353 43.823C109.573 43.7643 109.724 43.6837 109.804 43.581C109.885 43.4783 109.925 43.3573 109.925 43.218C109.925 43.042 109.867 42.9063 109.749 42.811C109.632 42.7083 109.419 42.624 109.111 42.558C108.811 42.492 108.382 42.4223 107.824 42.349C107.157 42.261 106.6 42.14 106.152 41.986C105.705 41.832 105.371 41.6157 105.151 41.337C104.931 41.051 104.821 40.6733 104.821 40.204C104.821 39.8227 104.92 39.489 105.118 39.203C105.316 38.917 105.635 38.6933 106.075 38.532C106.515 38.3707 107.098 38.29 107.824 38.29C108.587 38.29 109.24 38.3267 109.782 38.4C110.325 38.4733 110.699 38.5467 110.904 38.62V38.95L111.234 40.16C111.051 40.0647 110.787 39.9657 110.442 39.863C110.098 39.7603 109.698 39.676 109.243 39.61C108.789 39.5367 108.297 39.5 107.769 39.5C107.439 39.5 107.183 39.5293 106.999 39.588C106.816 39.6393 106.684 39.7163 106.603 39.819C106.53 39.9143 106.493 40.0353 106.493 40.182C106.493 40.358 106.559 40.501 106.691 40.611C106.831 40.7137 107.054 40.798 107.362 40.864C107.67 40.93 108.085 40.9923 108.605 41.051C109.405 41.139 110.021 41.271 110.453 41.447C110.886 41.623 111.183 41.8503 111.344 42.129C111.513 42.4003 111.597 42.7303 111.597 43.119C111.597 43.4563 111.535 43.7533 111.41 44.01C111.286 44.2593 111.091 44.4647 110.827 44.626C110.571 44.7873 110.237 44.9083 109.826 44.989C109.423 45.0697 108.943 45.11 108.385 45.11ZM112.588 45C112.639 45 112.691 44.9487 112.742 44.846C112.793 44.7433 112.819 44.5747 112.819 44.34V39.06C112.819 38.8253 112.793 38.6603 112.742 38.565C112.691 38.4623 112.639 38.4073 112.588 38.4H114.744C114.693 38.4 114.641 38.4513 114.59 38.554C114.539 38.6567 114.513 38.829 114.513 39.071V40.754C114.513 40.9153 114.531 41.0107 114.568 41.04C114.612 41.0693 114.744 41.084 114.964 41.084H117.791C118.011 41.084 118.139 41.073 118.176 41.051C118.213 41.0217 118.231 40.9227 118.231 40.754V39.06C118.231 38.8253 118.205 38.6603 118.154 38.565C118.103 38.4623 118.051 38.4073 118 38.4H120.156C120.105 38.4 120.053 38.4513 120.002 38.554C119.951 38.6567 119.925 38.829 119.925 39.071V44.34C119.925 44.5747 119.951 44.7433 120.002 44.846C120.053 44.9487 120.105 45 120.156 45H118C118.051 45 118.103 44.9487 118.154 44.846C118.205 44.7433 118.231 44.5747 118.231 44.34V42.624C118.231 42.4553 118.209 42.36 118.165 42.338C118.128 42.3087 118.004 42.294 117.791 42.294H114.964C114.744 42.294 114.612 42.3087 114.568 42.338C114.531 42.3673 114.513 42.4627 114.513 42.624V44.34C114.513 44.5747 114.539 44.7433 114.59 44.846C114.641 44.9487 114.693 45 114.744 45H112.588ZM123.9 45C123.951 45 124.002 44.9487 124.054 44.846C124.105 44.7433 124.131 44.5747 124.131 44.34V39.06C124.131 38.8253 124.105 38.6603 124.054 38.565C124.002 38.4623 123.951 38.4073 123.9 38.4H126.496C126.452 38.4073 126.43 38.466 126.43 38.576C126.437 38.6787 126.499 38.8473 126.617 39.082C126.668 39.1773 126.741 39.3277 126.837 39.533C126.939 39.7383 127.053 39.9767 127.178 40.248C127.31 40.5193 127.445 40.809 127.585 41.117C127.731 41.425 127.878 41.733 128.025 42.041C128.171 42.349 128.307 42.6387 128.432 42.91H128.443C128.575 42.6387 128.714 42.3527 128.861 42.052C129.015 41.744 129.165 41.436 129.312 41.128C129.458 40.82 129.598 40.5303 129.73 40.259C129.862 39.9803 129.975 39.7383 130.071 39.533C130.166 39.3203 130.236 39.1627 130.28 39.06C130.382 38.8253 130.437 38.6567 130.445 38.554C130.452 38.4513 130.437 38.4 130.401 38.4H132.997C132.945 38.4 132.894 38.4513 132.843 38.554C132.791 38.6567 132.766 38.829 132.766 39.071V44.34C132.766 44.5747 132.791 44.7433 132.843 44.846C132.894 44.9487 132.945 45 132.997 45H130.874C130.925 45 130.973 44.9487 131.017 44.846C131.068 44.7433 131.094 44.5747 131.094 44.34V40.776H131.072C130.954 40.996 130.83 41.238 130.698 41.502C130.566 41.766 130.43 42.0337 130.291 42.305C130.159 42.5763 130.03 42.8403 129.906 43.097C129.781 43.3537 129.667 43.5883 129.565 43.801C129.462 44.0137 129.378 44.1933 129.312 44.34C129.209 44.5673 129.154 44.7323 129.147 44.835C129.147 44.9377 129.165 44.9927 129.202 45H127.662C127.698 44.9927 127.713 44.9377 127.706 44.835C127.706 44.7323 127.654 44.5673 127.552 44.34C127.493 44.208 127.412 44.0357 127.31 43.823C127.214 43.6103 127.104 43.3793 126.98 43.13C126.862 42.8733 126.738 42.6093 126.606 42.338C126.474 42.0593 126.342 41.788 126.21 41.524C126.085 41.2527 125.968 41.0033 125.858 40.776H125.825V44.34C125.825 44.5747 125.85 44.7433 125.902 44.846C125.953 44.9487 126.004 45 126.056 45H123.9ZM133.522 45C133.559 45 133.614 44.9487 133.687 44.846C133.768 44.7433 133.859 44.571 133.962 44.329C134.013 44.219 134.094 44.032 134.204 43.768C134.321 43.4967 134.453 43.185 134.6 42.833C134.754 42.4737 134.912 42.0997 135.073 41.711C135.242 41.3223 135.399 40.9483 135.546 40.589C135.7 40.2297 135.832 39.9143 135.942 39.643C136.059 39.3717 136.14 39.1773 136.184 39.06C136.279 38.8253 136.331 38.6567 136.338 38.554C136.345 38.4513 136.331 38.4 136.294 38.4H138.692C138.663 38.4 138.652 38.4513 138.659 38.554C138.666 38.6493 138.718 38.818 138.813 39.06C138.857 39.1773 138.934 39.3717 139.044 39.643C139.154 39.907 139.282 40.2187 139.429 40.578C139.576 40.93 139.73 41.3003 139.891 41.689C140.052 42.0777 140.206 42.4517 140.353 42.811C140.5 43.163 140.632 43.4747 140.749 43.746C140.866 44.0173 140.951 44.2117 141.002 44.329C141.112 44.571 141.218 44.7433 141.321 44.846C141.424 44.9487 141.501 45 141.552 45H139.055C139.114 44.9927 139.161 44.9377 139.198 44.835C139.242 44.725 139.242 44.5563 139.198 44.329C139.191 44.2777 139.183 44.2373 139.176 44.208C139.169 44.1713 139.154 44.12 139.132 44.054C139.103 43.944 139.07 43.867 139.033 43.823C138.996 43.7717 138.934 43.7423 138.846 43.735C138.765 43.7277 138.63 43.724 138.439 43.724H136.547C136.349 43.724 136.202 43.7313 136.107 43.746C136.012 43.7533 135.946 43.779 135.909 43.823C135.872 43.867 135.843 43.9403 135.821 44.043C135.814 44.0797 135.803 44.1273 135.788 44.186C135.781 44.2447 135.773 44.2923 135.766 44.329C135.715 44.5637 135.7 44.7323 135.722 44.835C135.751 44.9377 135.788 44.9927 135.832 45H133.522ZM136.833 42.514H138.12C138.333 42.514 138.45 42.4957 138.472 42.459C138.494 42.4223 138.483 42.3417 138.439 42.217C138.344 41.9823 138.248 41.744 138.153 41.502C138.058 41.2527 137.966 41.0107 137.878 40.776C137.797 40.5413 137.724 40.325 137.658 40.127C137.599 39.9217 137.548 39.7493 137.504 39.61H137.482C137.379 39.8813 137.273 40.1673 137.163 40.468C137.053 40.7687 136.95 41.0473 136.855 41.304C136.76 41.5607 136.683 41.7733 136.624 41.942C136.565 42.1033 136.536 42.184 136.536 42.184C136.485 42.3013 136.466 42.3857 136.481 42.437C136.496 42.4883 136.613 42.514 136.833 42.514ZM142.14 45C142.191 45 142.239 44.9487 142.283 44.846C142.334 44.7433 142.36 44.5747 142.36 44.34V39.06C142.36 38.8253 142.334 38.6603 142.283 38.565C142.232 38.4623 142.18 38.4073 142.129 38.4H145.737C146.382 38.4 146.896 38.4807 147.277 38.642C147.666 38.8033 147.944 39.0417 148.113 39.357C148.289 39.665 148.377 40.05 148.377 40.512C148.377 40.842 148.315 41.1353 148.19 41.392C148.073 41.6487 147.908 41.8577 147.695 42.019C147.482 42.1803 147.244 42.2977 146.98 42.371V42.404C147.273 42.5213 147.581 42.7523 147.904 43.097C148.227 43.4343 148.516 43.812 148.773 44.23C148.942 44.5013 149.096 44.6957 149.235 44.813C149.374 44.9303 149.481 44.9927 149.554 45H146.782C146.87 44.9927 146.94 44.945 146.991 44.857C147.05 44.7617 147.031 44.6077 146.936 44.395C146.782 44.043 146.595 43.7387 146.375 43.482C146.155 43.2253 145.898 43.031 145.605 42.899C145.319 42.7597 144.989 42.69 144.615 42.69H144.494C144.267 42.69 144.135 42.7083 144.098 42.745C144.061 42.7817 144.043 42.8733 144.043 43.02V44.34C144.043 44.5747 144.069 44.7433 144.12 44.846C144.171 44.9487 144.223 45 144.274 45H142.14ZM144.494 41.579H145.396C145.858 41.579 146.192 41.4983 146.397 41.337C146.602 41.1683 146.705 40.8933 146.705 40.512C146.705 40.3433 146.668 40.193 146.595 40.061C146.522 39.929 146.397 39.8263 146.221 39.753C146.052 39.6797 145.814 39.643 145.506 39.643H144.494C144.267 39.643 144.135 39.654 144.098 39.676C144.061 39.698 144.043 39.7823 144.043 39.929V41.282C144.043 41.4287 144.061 41.5167 144.098 41.546C144.135 41.568 144.267 41.579 144.494 41.579ZM150.1 45C150.151 45 150.202 44.9487 150.254 44.846C150.305 44.7433 150.331 44.5747 150.331 44.34V39.06C150.331 38.8253 150.305 38.6603 150.254 38.565C150.202 38.4623 150.151 38.4073 150.1 38.4H152.256C152.204 38.4 152.153 38.4513 152.102 38.554C152.05 38.6567 152.025 38.829 152.025 39.071V40.754C152.025 40.9153 152.047 41.0107 152.091 41.04C152.135 41.0693 152.263 41.084 152.476 41.084H152.586C152.798 41.084 153.033 41.0107 153.29 40.864C153.554 40.7173 153.792 40.4973 154.005 40.204C154.217 39.9033 154.364 39.5257 154.445 39.071C154.489 38.829 154.492 38.6567 154.456 38.554C154.426 38.4513 154.386 38.4 154.335 38.4H157.14C157.066 38.4 156.956 38.4513 156.81 38.554C156.663 38.6567 156.513 38.829 156.359 39.071C156.168 39.3717 155.999 39.6247 155.853 39.83C155.706 40.028 155.567 40.2003 155.435 40.347C155.31 40.4937 155.171 40.6403 155.017 40.787C154.819 40.9703 154.635 41.117 154.467 41.227C154.305 41.3297 154.162 41.403 154.038 41.447V41.48C154.214 41.5167 154.408 41.5827 154.621 41.678C154.833 41.7733 155.075 41.931 155.347 42.151C155.713 42.4443 156.01 42.7633 156.238 43.108C156.472 43.4453 156.714 43.8193 156.964 44.23C157.132 44.5013 157.286 44.6993 157.426 44.824C157.565 44.9413 157.671 45 157.745 45H154.973C155.053 45 155.119 44.9523 155.171 44.857C155.222 44.7617 155.207 44.6077 155.127 44.395C155.009 44.065 154.866 43.7717 154.698 43.515C154.529 43.251 154.338 43.031 154.126 42.855C153.913 42.6717 153.678 42.536 153.422 42.448C153.165 42.3527 152.89 42.305 152.597 42.305H152.476C152.248 42.305 152.116 42.3233 152.08 42.36C152.043 42.3893 152.025 42.492 152.025 42.668V44.34C152.025 44.5747 152.05 44.7433 152.102 44.846C152.153 44.9487 152.204 45 152.256 45H150.1ZM157.724 45C157.761 45 157.816 44.9487 157.889 44.846C157.97 44.7433 158.061 44.571 158.164 44.329C158.215 44.219 158.296 44.032 158.406 43.768C158.523 43.4967 158.655 43.185 158.802 42.833C158.956 42.4737 159.114 42.0997 159.275 41.711C159.444 41.3223 159.601 40.9483 159.748 40.589C159.902 40.2297 160.034 39.9143 160.144 39.643C160.261 39.3717 160.342 39.1773 160.386 39.06C160.481 38.8253 160.533 38.6567 160.54 38.554C160.547 38.4513 160.533 38.4 160.496 38.4H162.894C162.865 38.4 162.854 38.4513 162.861 38.554C162.868 38.6493 162.92 38.818 163.015 39.06C163.059 39.1773 163.136 39.3717 163.246 39.643C163.356 39.907 163.484 40.2187 163.631 40.578C163.778 40.93 163.932 41.3003 164.093 41.689C164.254 42.0777 164.408 42.4517 164.555 42.811C164.702 43.163 164.834 43.4747 164.951 43.746C165.068 44.0173 165.153 44.2117 165.204 44.329C165.314 44.571 165.42 44.7433 165.523 44.846C165.626 44.9487 165.703 45 165.754 45H163.257C163.316 44.9927 163.363 44.9377 163.4 44.835C163.444 44.725 163.444 44.5563 163.4 44.329C163.393 44.2777 163.385 44.2373 163.378 44.208C163.371 44.1713 163.356 44.12 163.334 44.054C163.305 43.944 163.272 43.867 163.235 43.823C163.198 43.7717 163.136 43.7423 163.048 43.735C162.967 43.7277 162.832 43.724 162.641 43.724H160.749C160.551 43.724 160.404 43.7313 160.309 43.746C160.214 43.7533 160.148 43.779 160.111 43.823C160.074 43.867 160.045 43.9403 160.023 44.043C160.016 44.0797 160.005 44.1273 159.99 44.186C159.983 44.2447 159.975 44.2923 159.968 44.329C159.917 44.5637 159.902 44.7323 159.924 44.835C159.953 44.9377 159.99 44.9927 160.034 45H157.724ZM161.035 42.514H162.322C162.535 42.514 162.652 42.4957 162.674 42.459C162.696 42.4223 162.685 42.3417 162.641 42.217C162.546 41.9823 162.45 41.744 162.355 41.502C162.26 41.2527 162.168 41.0107 162.08 40.776C161.999 40.5413 161.926 40.325 161.86 40.127C161.801 39.9217 161.75 39.7493 161.706 39.61H161.684C161.581 39.8813 161.475 40.1673 161.365 40.468C161.255 40.7687 161.152 41.0473 161.057 41.304C160.962 41.5607 160.885 41.7733 160.826 41.942C160.767 42.1033 160.738 42.184 160.738 42.184C160.687 42.3013 160.668 42.3857 160.683 42.437C160.698 42.4883 160.815 42.514 161.035 42.514ZM165.891 45C165.899 44.9633 165.932 44.8937 165.99 44.791C166.049 44.681 166.144 44.538 166.276 44.362C166.423 44.1713 166.603 43.933 166.815 43.647C167.035 43.361 167.274 43.0493 167.53 42.712C167.787 42.3673 168.051 42.0153 168.322 41.656C168.594 41.2967 168.858 40.9483 169.114 40.611C169.378 40.2663 169.62 39.9473 169.84 39.654V39.632H167.651C167.175 39.632 166.823 39.6833 166.595 39.786C166.375 39.8813 166.251 39.9767 166.221 40.072V38.4H172.777C172.763 38.4367 172.719 38.51 172.645 38.62C172.579 38.73 172.484 38.862 172.359 39.016C172.117 39.3313 171.875 39.6467 171.633 39.962C171.391 40.2773 171.149 40.5927 170.907 40.908C170.665 41.216 170.423 41.5277 170.181 41.843C169.939 42.1583 169.697 42.4737 169.455 42.789C169.213 43.1043 168.971 43.4197 168.729 43.735V43.768H171.677C172.095 43.768 172.422 43.7167 172.656 43.614C172.898 43.5113 173.049 43.4123 173.107 43.317L172.887 44.659V45H165.891ZM173.765 45C173.816 45 173.864 44.9523 173.908 44.857C173.959 44.7543 173.985 44.582 173.985 44.34V39.06C173.985 38.8253 173.959 38.6567 173.908 38.554C173.864 38.4513 173.816 38.4 173.765 38.4H175.888C175.837 38.4 175.785 38.4513 175.734 38.554C175.683 38.6493 175.657 38.8217 175.657 39.071V44.34C175.657 44.5747 175.683 44.7433 175.734 44.846C175.785 44.9487 175.837 45 175.888 45H173.765Z" fill="white"/>
<path fill-rule="evenodd" clip-rule="evenodd" d="M37.4348 6.26942C31.714 4.04029 28.4846 2.92572 27.4696 2.64708C26.4546 2.92572 23.2252 4.04029 17.5044 6.26942C14.7453 7.28281 12.7093 8.11419 11.2992 8.69002C10.9645 8.82668 10.6651 8.94894 10.3996 9.05583C11.3993 13.0352 12.578 21.0691 11.7317 34.3555H10.0535C11.3773 14.685 8.0929 7.38399 8.0929 7.38399C8.0929 7.38399 10.3996 6.40874 17.1354 3.76165C24.2401 0.975239 27.4696 0 27.4696 0C27.4696 0 30.7913 0.975239 37.9884 3.76165C44.7241 6.40874 47.0308 7.38399 47.0308 7.38399C47.0308 7.38399 43.7464 14.685 45.0702 34.3555H43.2116C42.4534 21.0691 43.6308 13.0352 44.5395 9.05583C44.0064 8.85458 43.377 8.59882 42.6296 8.29512C41.3074 7.75784 39.6159 7.07049 37.4348 6.26942Z" fill="white"/>
<path d="M0.574699 23.4971C4.69984 31.7978 7.77445 36.4617 18.1854 41.5553L18.1888 41.5459C6.60976 35.0613 -0.434117 24.4813 7.15783 14.8123C6.42906 29.6694 12.7793 38.5359 27.5526 44.4069C42.3259 38.5359 48.6762 29.6694 47.9474 14.8123C55.5394 24.4813 48.4955 35.0613 36.9164 41.5459L36.9199 41.5553C47.3308 36.4617 50.4054 31.7978 54.5305 23.4971C58.1655 34.7744 43.7799 41.2235 33.257 44.2064C41.3147 43.4923 47.4709 40.402 53.529 34.4426C53.1263 43.9916 39.9595 45.4987 31.1314 45.3028C36.9969 46.3551 42.5928 45.543 48.9591 42.9741C45.3558 49.7708 36.2265 48.491 29.0443 46.0517C32.9489 47.9192 37.3261 48.747 42.6279 48.766C38.6428 51.7962 34.1009 50.9367 30.0003 48.6744C30.9738 49.4769 32.0944 50.2226 33.376 50.9367C31.289 51.2274 29.5836 50.4881 28.3299 49.3316C28.1374 50.1024 27.8678 50.7217 27.5527 50.804C27.2376 50.7217 26.9679 50.1024 26.7753 49.3316C25.5217 50.4881 23.8163 51.2274 21.7292 50.9367C23.0109 50.2226 24.1315 49.4769 25.105 48.6744C21.0044 50.9367 16.4625 51.7962 12.4774 48.766C17.7792 48.747 22.1564 47.9192 26.0609 46.0517C18.8787 48.491 9.74947 49.7708 6.1461 42.9741C12.5124 45.543 18.1084 46.3551 23.9739 45.3028C15.1458 45.4987 1.97893 43.9916 1.57622 34.4426C7.63437 40.402 13.7905 43.4923 21.8482 44.2064C11.3253 41.2235 -3.06019 34.7744 0.574699 23.4971Z" fill="white"/>
<path d="M27.553 41.8943L29.9312 45.9611L27.553 50.028L25.1748 45.9611L27.553 41.8943Z" fill="white"/>
<path d="M40.8478 32.2738L39.7711 19.9325C39.7619 19.7983 39.6552 19.6916 39.524 19.6733L38.6272 19.5513L38.2398 18.929C38.2398 18.929 35.9156 17.5625 31.9381 17.5625C27.9605 17.5625 27.5274 18.7612 27.5274 18.7612C27.5274 18.7612 27.0973 17.5625 23.1198 17.5625C19.1423 17.5625 16.818 18.929 16.818 18.929L16.4307 19.5513L15.5308 19.6733C15.3966 19.6916 15.296 19.7983 15.2838 19.9325L14.204 32.2738C14.204 32.2829 14.2009 32.289 14.2009 32.2982C14.2009 32.3744 14.2314 32.4477 14.2833 32.5026C14.3351 32.5575 14.4114 32.588 14.4877 32.588H14.506L26.0785 31.8071C26.2677 31.9962 26.6977 32.3012 27.5213 32.3012C28.3479 32.3012 28.775 31.9962 28.9641 31.8071L40.5367 32.588H40.558C40.6343 32.588 40.7075 32.5575 40.7624 32.5026C40.8142 32.4507 40.8447 32.3775 40.8447 32.3012C40.8478 32.2921 40.8478 32.2829 40.8478 32.2738ZM15.0214 27.2897C14.9848 27.6679 14.9513 28.0431 14.9177 28.403C14.8476 29.1259 14.7774 29.8 14.7134 30.3765C14.6524 30.953 14.5944 31.435 14.5548 31.7735C14.5151 32.1091 14.4907 32.3012 14.4907 32.3012C14.4907 32.3012 14.4999 32.1091 14.5182 31.7705C14.5395 31.4319 14.5639 30.95 14.6036 30.3704C14.6432 29.7909 14.692 29.1137 14.7469 28.3908C14.7774 28.0279 14.8079 27.6557 14.8354 27.2745C14.8689 26.8962 14.8994 26.5088 14.933 26.1215C14.9696 25.7371 15.0031 25.3498 15.0367 24.9715C15.0733 24.5933 15.1099 24.2181 15.1435 23.8582C15.2136 23.1353 15.2807 22.4612 15.3448 21.8847C15.4058 21.3082 15.4668 20.8263 15.5034 20.4877C15.543 20.1521 15.5674 19.96 15.5674 19.96C15.5674 19.96 15.5583 20.1522 15.5369 20.4907C15.5156 20.8293 15.4912 21.3112 15.4515 21.8908C15.4149 22.4703 15.3631 23.1475 15.3082 23.8704C15.2777 24.2334 15.2502 24.6055 15.2197 24.9868C15.1862 25.365 15.1557 25.7524 15.1221 26.1398C15.0916 26.5241 15.055 26.9084 15.0214 27.2897ZM40.5031 31.7705C40.4696 31.435 40.4208 30.953 40.3659 30.3735C40.311 29.7939 40.2469 29.1198 40.1767 28.3969C40.1127 27.674 40.0425 26.9023 39.9724 26.1306C39.9083 25.3589 39.8412 24.5902 39.7802 23.8643C39.7223 23.1414 39.6704 22.4673 39.6216 21.8877C39.5758 21.3082 39.5423 20.8263 39.5148 20.4877C39.4965 20.2132 39.4843 20.0362 39.4813 19.9783C39.4874 20.0332 39.5057 20.2132 39.5331 20.4877C39.5667 20.8232 39.6155 21.3051 39.6735 21.8847C39.7284 22.4612 39.7924 23.1383 39.8626 23.8612C39.9266 24.5841 39.9968 25.3559 40.0669 26.1276C40.131 26.8993 40.1981 27.671 40.2591 28.3939C40.3171 29.1168 40.372 29.7909 40.4177 30.3704C40.4604 30.95 40.497 31.4319 40.5214 31.7705C40.5397 32.0237 40.5519 32.1945 40.555 32.2646C40.5489 32.1945 40.5306 32.0237 40.5031 31.7705Z" fill="white"/>
<path d="M40.8475 32.2738L39.7708 19.9325C39.7617 19.7983 39.6549 19.6916 39.5237 19.6733L38.627 19.5513L38.2396 18.929C38.2396 18.929 35.9153 17.5625 31.9378 17.5625C27.9603 17.5625 27.5272 18.7612 27.5272 18.7612C27.5272 18.7612 27.0971 17.5625 23.1196 17.5625C19.1421 17.5625 16.8178 18.929 16.8178 18.929L16.4304 19.5513L15.5306 19.6733C15.3964 19.6916 15.2957 19.7983 15.2835 19.9325L14.2037 32.2738C14.2037 32.2829 14.2007 32.289 14.2007 32.2982C14.2007 32.3744 14.2312 32.4477 14.283 32.5026C14.3349 32.5575 14.4111 32.588 14.4874 32.588H14.5057L26.0783 31.8071C26.2674 31.9962 26.6975 32.3012 27.5211 32.3012C28.3477 32.3012 28.7747 31.9962 28.9638 31.8071L40.5364 32.588H40.5578C40.634 32.588 40.7072 32.5575 40.7621 32.5026C40.814 32.4507 40.8445 32.3775 40.8445 32.3012C40.8475 32.2921 40.8475 32.2829 40.8475 32.2738ZM27.4936 30.7914H27.5516L27.6034 30.7944C27.64 30.7975 27.6827 30.8005 27.7193 30.8036C27.7956 30.8127 27.8688 30.828 27.942 30.8524C28.0854 30.8981 28.2074 30.9835 28.2867 31.0689C28.366 31.1513 28.4117 31.2337 28.4453 31.2886C28.4758 31.3435 28.491 31.3801 28.491 31.3801C28.491 31.3801 28.4575 31.3618 28.4026 31.3282C28.3477 31.2947 28.2714 31.2459 28.183 31.2001C28.1403 31.1757 28.0915 31.1544 28.0396 31.1391C27.9878 31.1208 27.9328 31.1086 27.8749 31.0994C27.82 31.0903 27.7559 31.0872 27.6919 31.0811C27.6583 31.0781 27.6278 31.0781 27.5973 31.0781H27.4967C27.3655 31.0811 27.2435 31.0903 27.1306 31.1269C27.0208 31.1574 26.908 31.2093 26.8073 31.252C26.7036 31.2916 26.6151 31.3191 26.5541 31.3313C26.4901 31.3435 26.4535 31.3496 26.4535 31.3496C26.4535 31.3496 26.4809 31.3221 26.5297 31.2825C26.5755 31.2398 26.6426 31.1788 26.7219 31.1086C26.8043 31.0384 26.9019 30.953 27.0391 30.889C27.1794 30.8219 27.3411 30.7944 27.4936 30.7914ZM15.0212 27.2897C14.9846 27.6679 14.951 28.0431 14.9175 28.403C14.8473 29.1259 14.7772 29.8 14.7131 30.3765C14.6521 30.953 14.5942 31.435 14.5545 31.7735C14.5149 32.1091 14.4905 32.3012 14.4905 32.3012C14.4905 32.3012 14.4996 32.1091 14.5179 31.7705C14.5393 31.4319 14.5637 30.95 14.6033 30.3704C14.643 29.7909 14.6918 29.1137 14.7467 28.3908C14.7772 28.0279 14.8077 27.6557 14.8351 27.2745C14.8687 26.8962 14.8992 26.5088 14.9327 26.1215C14.9693 25.7371 15.0029 25.3498 15.0364 24.9715C15.0731 24.5933 15.1097 24.2181 15.1432 23.8582C15.2134 23.1353 15.2805 22.4612 15.3445 21.8847C15.4055 21.3082 15.4665 20.8263 15.5031 20.4877C15.5428 20.1521 15.5672 19.96 15.5672 19.96C15.5672 19.96 15.558 20.1522 15.5367 20.4907C15.5153 20.8293 15.4909 21.3112 15.4513 21.8908C15.4147 22.4703 15.3628 23.1475 15.3079 23.8704C15.2774 24.2334 15.25 24.6055 15.2195 24.9868C15.1859 25.365 15.1554 25.7524 15.1219 26.1398C15.0914 26.5241 15.0547 26.9084 15.0212 27.2897ZM16.0674 20.5029L16.952 19.0754C17.2723 18.9016 19.5142 17.7577 23.1165 17.7577C26.5297 17.7577 27.2374 18.6514 27.335 18.81V30.2179C26.972 29.9404 26.0051 29.4401 23.7906 29.4401C21.1613 29.4401 17.0832 30.5291 15.9668 30.8432L16.8025 19.7312L15.6739 30.9286C15.6526 30.9652 15.3811 31.3648 15.1646 31.6698L16.0674 20.5029ZM26.0173 31.1208C24.2238 31.2337 17.6932 31.6424 15.558 31.7766C15.738 31.7034 15.921 31.6546 15.921 31.6546C15.921 31.6546 15.7197 31.6363 15.5092 31.6454C15.4757 31.6485 15.4421 31.6485 15.4116 31.6515C15.5123 31.5082 15.6404 31.3252 15.796 31.0933C16.0735 31.014 17.1991 30.6968 18.6113 30.3765C18.3612 30.4497 18.1202 30.523 17.9006 30.587C17.4278 30.7395 17.0344 30.8737 16.7568 30.9652C16.5341 31.0445 16.3908 31.0933 16.3419 31.1116C16.3908 31.0994 16.5372 31.0628 16.7659 31.0018C17.0466 30.9256 17.4461 30.8158 17.9281 30.6938C18.407 30.5626 18.9682 30.4192 19.5752 30.285C20.1791 30.1447 20.8288 30.0197 21.4846 29.9343C21.811 29.8885 22.1404 29.8519 22.4607 29.8244C22.784 29.8 23.1043 29.7848 23.4124 29.7848C24.0316 29.7756 24.6081 29.8153 25.0992 29.8824C25.5903 29.9465 25.9959 30.0349 26.2735 30.1112C26.4138 30.1447 26.5236 30.1783 26.5968 30.1996C26.6731 30.221 26.7128 30.2332 26.7128 30.2332C26.7128 30.2332 26.6731 30.2179 26.6029 30.1905C26.5297 30.163 26.423 30.1173 26.2857 30.0746C26.0081 29.98 25.6086 29.8672 25.1144 29.7756C24.7515 29.7116 24.3366 29.6628 23.8943 29.6353C26.3498 29.6536 27.1672 30.3094 27.335 30.4741V30.4955C27.0391 30.5565 26.7646 30.7487 26.5785 30.9134L25.3615 31.0659L26.0173 31.1208ZM28.7686 31.6119C28.7412 31.6424 28.7076 31.6759 28.6619 31.7125C28.6192 31.7491 28.5673 31.7888 28.5093 31.8224C28.4483 31.859 28.3812 31.8925 28.305 31.923C28.2318 31.9535 28.1525 31.9779 28.0671 31.9993C28.0244 32.0115 27.9817 32.0176 27.9359 32.0237C27.8901 32.0328 27.8474 32.0389 27.8017 32.042C27.7071 32.0542 27.6187 32.0542 27.5272 32.0603C27.4326 32.0542 27.3411 32.0542 27.2496 32.042C27.2038 32.0389 27.1581 32.0328 27.1154 32.0237C27.0696 32.0145 27.0269 32.0115 26.9842 31.9962C26.8988 31.9779 26.8195 31.9505 26.7433 31.92C26.6701 31.8895 26.6029 31.8559 26.5419 31.8193C26.4809 31.7857 26.4291 31.7461 26.3864 31.7095C26.3437 31.6729 26.3071 31.6393 26.2827 31.6088C26.2339 31.557 26.2125 31.5173 26.2095 31.5082C26.2156 31.5173 26.243 31.5509 26.2949 31.5966C26.3559 31.6485 26.4474 31.7156 26.5694 31.7735C26.6304 31.8041 26.6975 31.8285 26.7707 31.8529C26.8439 31.8773 26.9232 31.8986 27.0056 31.9139C27.0879 31.9322 27.1733 31.9444 27.2618 31.9505C27.3503 31.9596 27.4418 31.9596 27.5272 31.9627C27.6187 31.9596 27.7132 31.9596 27.7986 31.9505C27.8871 31.9444 27.9725 31.9322 28.0518 31.9139C28.1342 31.8956 28.2135 31.8773 28.2867 31.8529C28.3599 31.8285 28.427 31.801 28.488 31.7735C28.6069 31.7125 28.7015 31.6485 28.7595 31.5966C28.8052 31.557 28.8327 31.5265 28.8418 31.5143C28.8296 31.5326 28.8083 31.5661 28.7686 31.6119ZM39.0449 31.7461C36.5315 31.5875 30.5744 31.2154 28.976 31.1147L30.0467 30.9469L28.4727 30.9103C28.2836 30.7487 28.0122 30.5535 27.7132 30.4924V30.4711C27.8657 30.3216 28.5246 29.7939 30.37 29.6597C30.1199 29.6963 29.8819 29.7421 29.6684 29.7909C29.2292 29.9007 28.8754 30.0319 28.6344 30.1325C28.5124 30.1813 28.4209 30.2271 28.3568 30.2576C28.2928 30.2881 28.2592 30.3033 28.2592 30.3033C28.2592 30.3033 28.2958 30.2911 28.3629 30.2667C28.427 30.2454 28.5246 30.2057 28.6497 30.1691C28.8967 30.0868 29.2566 29.977 29.6928 29.8977C30.129 29.8153 30.6476 29.7512 31.2027 29.7512C31.7578 29.739 32.3526 29.7817 32.9413 29.8549C33.5331 29.919 34.1187 30.0258 34.6647 30.1447C35.2138 30.2545 35.7201 30.3796 36.1532 30.4924C36.5894 30.5992 36.9524 30.6938 37.2056 30.7609C37.4252 30.8158 37.5655 30.8524 37.596 30.8585C37.5655 30.8463 37.4313 30.8005 37.2147 30.7243C36.9676 30.6419 36.6108 30.523 36.1837 30.3887C35.8909 30.3003 35.5645 30.2057 35.2138 30.1112C37.1629 30.4955 38.9076 30.9866 39.2614 31.0872C39.4292 31.3343 39.5573 31.5234 39.6641 31.6729L37.9986 31.4228L39.0449 31.7461ZM39.4231 30.9896L38.2884 19.7282L39.1242 30.8493C38.0657 30.5535 33.9205 29.4371 31.2637 29.4371C29.0462 29.4371 28.0823 29.9373 27.7163 30.2149V18.807C27.8078 18.6545 28.491 17.7547 31.9348 17.7547C35.531 17.7547 37.779 18.8985 38.0993 19.0724L38.9839 20.4999L39.8928 31.6637C39.719 31.4258 39.5146 31.1208 39.4231 30.9896ZM40.5029 31.7705C40.4693 31.435 40.4205 30.953 40.3656 30.3735C40.3107 29.7939 40.2467 29.1198 40.1765 28.3969C40.1124 27.674 40.0423 26.9023 39.9721 26.1306C39.9081 25.3589 39.841 24.5902 39.78 23.8643C39.722 23.1414 39.6702 22.4673 39.6214 21.8877C39.5756 21.3082 39.542 20.8263 39.5146 20.4877C39.4963 20.2132 39.4841 20.0362 39.481 19.9783C39.4871 20.0332 39.5054 20.2132 39.5329 20.4877C39.5665 20.8232 39.6153 21.3051 39.6732 21.8847C39.7281 22.4612 39.7922 23.1383 39.8623 23.8612C39.9264 24.5841 39.9965 25.3559 40.0667 26.1276C40.1307 26.8993 40.1978 27.671 40.2589 28.3939C40.3168 29.1168 40.3717 29.7909 40.4175 30.3704C40.4602 30.95 40.4968 31.4319 40.5212 31.7705C40.5395 32.0237 40.5517 32.1945 40.5547 32.2646C40.5486 32.1945 40.5303 32.0237 40.5029 31.7705Z" fill="#640303"/>
<path d="M32.1272 30.4959C34.0794 30.6362 37.7091 31.1273 37.7091 31.1273C32.3285 29.7944 30.5319 29.9347 28.7231 30.3983C28.7231 30.3983 30.172 30.3556 32.1272 30.4959Z" fill="#640303"/>
<path d="M26.1298 30.404C24.5101 29.977 22.3658 29.8519 17.5464 31.1086C17.5464 31.1086 21.3317 30.6389 23.0795 30.5047C24.8304 30.3705 26.1298 30.404 26.1298 30.404Z" fill="#640303"/>
<path d="M36.6409 31.2659C36.3054 31.2079 35.9149 31.1439 35.494 31.0798C35.0731 31.0218 34.6216 30.9669 34.1702 30.9181C33.7188 30.8785 33.2643 30.8419 32.8403 30.8144C32.4163 30.7931 32.0167 30.7778 31.6781 30.7687C31.3365 30.7656 31.0528 30.7656 30.8546 30.7656C30.6563 30.7687 30.5435 30.7717 30.5435 30.7717C30.5435 30.7717 30.6563 30.7839 30.8546 30.8022C31.0528 30.8175 31.3335 30.8419 31.672 30.8754C32.0106 30.9029 32.4041 30.9395 32.8281 30.9791C33.2521 31.0157 33.7005 31.0584 34.1519 31.1103C34.6033 31.153 35.0517 31.1988 35.4726 31.2476C35.8936 31.2903 36.2901 31.333 36.6256 31.3757C36.9642 31.4092 37.2448 31.4428 37.4431 31.4672C37.6414 31.4885 37.7542 31.5007 37.7542 31.5007C37.7542 31.5007 37.6444 31.4763 37.4492 31.4306C37.254 31.3848 36.9764 31.3299 36.6409 31.2659Z" fill="#640303"/>
<path d="M25.4158 30.668C25.2114 30.671 24.9704 30.6771 24.7142 30.6802C24.458 30.6924 24.1835 30.7046 23.9089 30.7168C23.6344 30.7381 23.363 30.7595 23.1067 30.7778C22.8505 30.8052 22.6126 30.8296 22.4082 30.8479C22.2039 30.8754 22.0331 30.8967 21.9141 30.912C21.7951 30.9303 21.728 30.9425 21.728 30.9425C21.728 30.9425 21.7982 30.9455 21.9171 30.9486C22.0361 30.9486 22.21 30.9516 22.4143 30.9547C22.6187 30.9516 22.8597 30.9455 23.1159 30.9425C23.3721 30.9303 23.6466 30.9181 23.9211 30.9059C24.1957 30.8845 24.4671 30.8632 24.7234 30.8449C24.9796 30.8174 25.2175 30.793 25.4219 30.7747C25.6262 30.7473 25.797 30.7259 25.916 30.7107C26.035 30.6924 26.1021 30.6802 26.1021 30.6802C26.1021 30.6802 26.0319 30.6771 25.913 30.6741C25.794 30.6741 25.6201 30.671 25.4158 30.668Z" fill="#640303"/>
<path d="M17.3635 31.4859C17.5465 31.4767 17.76 31.4645 17.9857 31.4523C18.2145 31.434 18.4554 31.4127 18.6995 31.3944C18.9404 31.3669 19.1814 31.3364 19.4102 31.312C19.6359 31.2785 19.8464 31.248 20.0263 31.2205C20.2063 31.187 20.3557 31.1595 20.4625 31.1412C20.5662 31.1199 20.6272 31.1046 20.6272 31.1046C20.6272 31.1046 20.5662 31.1046 20.4595 31.1016C20.3527 31.1046 20.2002 31.1077 20.0172 31.1107C19.8342 31.1199 19.6206 31.1321 19.3949 31.1443C19.1662 31.1626 18.9252 31.1839 18.6812 31.2022C18.4402 31.2297 18.1992 31.2602 17.9705 31.2876C17.7447 31.3212 17.5343 31.3517 17.3543 31.3791C17.1744 31.4127 17.0249 31.4401 16.9181 31.4584C16.8144 31.4798 16.7534 31.495 16.7534 31.495C16.7534 31.495 16.8144 31.495 16.9212 31.4981C17.0279 31.492 17.1805 31.4889 17.3635 31.4859Z" fill="#640303"/>
<path d="M38.5697 20.8924C38.588 21.173 38.6093 21.5726 38.6429 22.0514C38.6764 22.5303 38.7192 23.0916 38.768 23.6894C38.7924 23.9883 38.8198 24.2995 38.8473 24.6136C38.8747 24.9278 38.9052 25.2481 38.9327 25.5653C38.9632 25.8856 38.9937 26.2028 39.0242 26.517C39.0577 26.8312 39.0882 27.1392 39.1187 27.4382C39.1828 28.036 39.2438 28.5942 39.3017 29.07C39.3567 29.5489 39.4116 29.9455 39.4451 30.223C39.4817 30.5006 39.5061 30.6592 39.5061 30.6592C39.5061 30.6592 39.5 30.4976 39.4848 30.22C39.4665 29.9394 39.4482 29.5398 39.4116 29.0609C39.378 28.582 39.3353 28.0208 39.2865 27.4229C39.2621 27.124 39.2346 26.8129 39.2072 26.4987C39.1797 26.1845 39.1492 25.8642 39.1218 25.547C39.0913 25.2267 39.0608 24.9095 39.0303 24.5953C38.9967 24.2812 38.9662 23.9731 38.9357 23.6742C38.8717 23.0763 38.8107 22.5181 38.7527 22.0423C38.6978 21.5634 38.6429 21.1669 38.6093 20.8893C38.5727 20.6117 38.5483 20.4531 38.5483 20.4531C38.5483 20.4531 38.5544 20.6148 38.5697 20.8924Z" fill="#640303"/>
<path d="M38.9868 23.1134C39.0143 23.4855 39.0448 23.9187 39.0814 24.3792C39.118 24.8429 39.1638 25.337 39.2095 25.8312C39.2583 26.3253 39.3041 26.8194 39.3529 27.28C39.4017 27.7437 39.4535 28.1737 39.4932 28.5428C39.5328 28.9119 39.5786 29.22 39.603 29.4365C39.6335 29.6531 39.6487 29.7751 39.6487 29.7751C39.6487 29.7751 39.6426 29.6501 39.6304 29.4335C39.6152 29.2169 39.5999 28.9058 39.5725 28.5367C39.545 28.1646 39.5145 27.7315 39.4779 27.2709C39.4413 26.8072 39.3956 26.3131 39.3498 25.819C39.301 25.3248 39.2553 24.8307 39.2065 24.3701C39.1577 23.9065 39.1058 23.4764 39.0661 23.1073C39.0234 22.7382 38.9807 22.4301 38.9563 22.2136C38.9258 21.997 38.9106 21.875 38.9106 21.875C38.9106 21.875 38.9167 22.0001 38.9289 22.2166C38.9411 22.4332 38.9563 22.7443 38.9868 23.1134Z" fill="#640303"/>
<path d="M16.3204 22.0423C16.2625 22.5181 16.2015 23.0763 16.1374 23.6742C16.1069 23.9731 16.0764 24.2812 16.0429 24.5953C16.0124 24.9095 15.9818 25.2267 15.9513 25.547C15.9239 25.8673 15.8934 26.1845 15.8659 26.4987C15.8385 26.8129 15.8141 27.1209 15.7866 27.4229C15.7378 28.0208 15.6951 28.582 15.6616 29.0609C15.628 29.5398 15.6067 29.9394 15.5884 30.22C15.5731 30.5006 15.567 30.6592 15.567 30.6592C15.567 30.6592 15.5914 30.5006 15.628 30.223C15.6616 29.9455 15.7165 29.5489 15.7714 29.07C15.8293 28.5942 15.8903 28.036 15.9544 27.4382C15.9849 27.1392 16.0154 26.8312 16.049 26.517C16.0795 26.2028 16.11 25.8856 16.1405 25.5653C16.1679 25.245 16.1984 24.9278 16.2259 24.6136C16.2533 24.2995 16.2777 23.9914 16.3052 23.6894C16.354 23.0916 16.3967 22.5303 16.4302 22.0514C16.4638 21.5726 16.4851 21.173 16.5034 20.8924C16.5187 20.6117 16.5248 20.4531 16.5248 20.4531C16.5248 20.4531 16.5004 20.6117 16.4638 20.8893C16.4302 21.1699 16.3753 21.5665 16.3204 22.0423Z" fill="#640303"/>
<path d="M15.7162 27.2839C15.765 26.8203 15.8138 26.3292 15.8596 25.8351C15.9053 25.3409 15.9511 24.8468 15.9877 24.3832C16.0273 23.9195 16.0548 23.4864 16.0823 23.1173C16.1097 22.7452 16.125 22.4371 16.1402 22.2205C16.1524 22.004 16.1585 21.8789 16.1585 21.8789C16.1585 21.8789 16.1433 22.0009 16.1128 22.2175C16.0853 22.434 16.0426 22.7391 16.0029 23.1112C15.9633 23.4803 15.9084 23.9104 15.8626 24.374C15.8138 24.8376 15.765 25.3287 15.7193 25.8229C15.6735 26.317 15.6278 26.8111 15.5912 27.2748C15.5515 27.7384 15.5241 28.1715 15.4966 28.5406C15.4692 28.9128 15.4539 29.2208 15.4387 29.4374C15.4264 29.654 15.4203 29.779 15.4203 29.779C15.4203 29.779 15.4356 29.657 15.4661 29.4404C15.4936 29.2239 15.5363 28.9189 15.5759 28.5467C15.6156 28.1746 15.6705 27.7445 15.7162 27.2839Z" fill="#640303"/>
<path d="M26.8772 26.0379C26.8802 26.3368 26.8894 26.6236 26.8955 26.8981C26.9016 27.1726 26.9107 27.4288 26.9199 27.6698C26.9534 28.6245 27.0022 29.262 27.0022 29.262C27.0022 29.262 27.0511 28.6245 27.0846 27.6698C27.0938 27.4319 27.1029 27.1726 27.109 26.8981C27.1151 26.6236 27.1243 26.3368 27.1273 26.0379C27.1304 25.739 27.1395 25.4309 27.1395 25.1167C27.1426 24.8026 27.1426 24.4853 27.1456 24.1681C27.1426 23.8509 27.1426 23.5306 27.1395 23.2195C27.1395 22.9053 27.1304 22.5972 27.1273 22.2983C27.1182 21.7005 27.1029 21.1453 27.0846 20.6664C27.0511 19.7117 27.0022 19.0742 27.0022 19.0742C27.0022 19.0742 26.9534 19.7117 26.9199 20.6664C26.9016 21.1423 26.8863 21.7005 26.8772 22.2983C26.8741 22.5972 26.865 22.9053 26.865 23.2195C26.8619 23.5337 26.8619 23.8509 26.8589 24.1681C26.8619 24.4853 26.8619 24.8056 26.865 25.1167C26.865 25.4309 26.8741 25.739 26.8772 26.0379Z" fill="#640303"/>
<path d="M26.5478 25.6133C26.5539 26.0739 26.5661 26.507 26.5783 26.8761C26.5905 27.2452 26.6058 27.5532 26.615 27.7698C26.6241 27.9864 26.6333 28.1084 26.6333 28.1084C26.6333 28.1084 26.6424 27.9864 26.6516 27.7698C26.6607 27.5532 26.676 27.2452 26.6882 26.8761C26.7004 26.507 26.7095 26.0769 26.7187 25.6133C26.7217 25.3815 26.7248 25.1435 26.7278 24.9026C26.7278 24.6616 26.7309 24.4145 26.7309 24.1675C26.7309 23.9204 26.7278 23.6764 26.7278 23.4324C26.7278 23.1914 26.7217 22.9504 26.7187 22.7217C26.7126 22.2611 26.7004 21.8279 26.6882 21.4589C26.676 21.0898 26.6607 20.7817 26.6516 20.5651C26.6424 20.3486 26.6333 20.2266 26.6333 20.2266C26.6333 20.2266 26.6241 20.3486 26.615 20.5651C26.6058 20.7817 26.5905 21.0898 26.5783 21.4589C26.5661 21.8279 26.557 22.258 26.5478 22.7217C26.5448 22.9535 26.5387 23.1914 26.5387 23.4324C26.5387 23.6733 26.5356 23.9204 26.5356 24.1675C26.5356 24.4145 26.5387 24.6586 26.5387 24.9026C26.5417 25.1435 26.5448 25.3815 26.5478 25.6133Z" fill="#640303"/>
<path d="M17.4216 20.2266C17.4216 20.2266 17.4094 20.3486 17.3911 20.5651C17.3728 20.7817 17.3454 21.0867 17.3179 21.4558C17.2905 21.8249 17.2539 22.255 17.2234 22.7156C17.1929 23.1761 17.1593 23.6703 17.1258 24.1614C17.0983 24.6555 17.0678 25.1466 17.0403 25.6072C17.0129 26.0678 16.9946 26.5009 16.9763 26.87C16.961 27.2391 16.9458 27.5471 16.9366 27.7637C16.9305 27.9803 16.9244 28.1023 16.9244 28.1023C16.9244 28.1023 16.9366 27.9803 16.9549 27.7637C16.9732 27.5471 16.9976 27.2421 17.0281 26.873C17.0556 26.5039 17.0922 26.0739 17.1227 25.6133C17.1532 25.1527 17.1868 24.6586 17.2203 24.1675C17.2478 23.6733 17.2783 23.1822 17.3057 22.7217C17.3332 22.2611 17.3515 21.8279 17.3698 21.4589C17.3881 21.0898 17.3972 20.7817 17.4094 20.5651C17.4155 20.3486 17.4216 20.2266 17.4216 20.2266Z" fill="#640303"/>
<path d="M27.9626 26.0349C27.9687 26.6327 27.9809 27.1878 27.9931 27.6667C28.0053 28.1426 28.0206 28.5422 28.0297 28.8197C28.0389 29.0973 28.048 29.2559 28.048 29.2559C28.048 29.2559 28.0572 29.0973 28.0663 28.8197C28.0755 28.5422 28.0908 28.1426 28.103 27.6667C28.1152 27.1909 28.1243 26.6327 28.1335 26.0349C28.1365 25.7359 28.1396 25.4279 28.1426 25.1137C28.1426 24.7995 28.1457 24.4823 28.1457 24.1651C28.1457 23.8478 28.1426 23.5276 28.1426 23.2164C28.1396 22.9023 28.1365 22.5942 28.1335 22.2953C28.1274 21.6974 28.1152 21.1423 28.103 20.6634C28.0908 20.1876 28.0755 19.788 28.0663 19.5104C28.0572 19.2328 28.048 19.0742 28.048 19.0742C28.048 19.0742 28.0389 19.2328 28.0297 19.5104C28.0206 19.788 28.0053 20.1876 27.9931 20.6634C27.9809 21.1392 27.9718 21.6974 27.9626 22.2953C27.9596 22.5942 27.9565 22.9023 27.9535 23.2164C27.9535 23.5306 27.9504 23.8478 27.9504 24.1651C27.9504 24.4823 27.9535 24.8026 27.9535 25.1137C27.9565 25.4279 27.9596 25.7359 27.9626 26.0349Z" fill="#640303"/>
<path d="M28.3656 27.0159C28.3717 27.4033 28.3778 27.7297 28.3839 27.9554C28.39 28.1811 28.393 28.3123 28.393 28.3123C28.393 28.3123 28.3961 28.1842 28.4022 27.9554C28.4052 27.7297 28.4113 27.4033 28.4205 27.0159C28.4235 26.6285 28.4327 26.1741 28.4357 25.686C28.4388 25.201 28.4388 24.6825 28.4418 24.1639C28.4388 23.6454 28.4388 23.1269 28.4357 22.6419C28.4327 22.1569 28.4235 21.7024 28.4205 21.312C28.4144 20.9246 28.4083 20.5982 28.4022 20.3725C28.3961 20.1468 28.393 20.0156 28.393 20.0156C28.393 20.0156 28.39 20.1437 28.3839 20.3725C28.3808 20.5982 28.3747 20.9246 28.3656 21.312C28.3625 21.6994 28.3534 22.1538 28.3503 22.6419C28.3473 23.1269 28.3473 23.6454 28.3442 24.1639C28.3473 24.6825 28.3473 25.201 28.3503 25.686C28.3534 26.1741 28.3625 26.6285 28.3656 27.0159Z" fill="#640303"/>
<path d="M17.8303 20.9905C17.7998 21.4236 17.7602 21.9269 17.7266 22.4668C17.6931 23.0067 17.6565 23.5832 17.6199 24.1597C17.5863 24.7362 17.5558 25.3127 17.5253 25.8556C17.4979 26.3955 17.4735 26.9019 17.4521 27.335C17.4338 27.7681 17.4186 28.128 17.4064 28.3812C17.3972 28.6344 17.3911 28.7777 17.3911 28.7777C17.3911 28.7777 17.4033 28.6344 17.4247 28.3812C17.443 28.128 17.4704 27.7681 17.504 27.338C17.5345 26.9049 17.568 26.4016 17.6077 25.8617C17.6412 25.3218 17.6778 24.7453 17.7144 24.1688C17.748 23.5923 17.7785 23.0159 17.809 22.4729C17.8395 21.933 17.8608 21.4267 17.8822 20.9935C17.9005 20.5604 17.9158 20.2005 17.928 19.9473C17.9371 19.6941 17.9432 19.5508 17.9432 19.5508C17.9432 19.5508 17.931 19.6941 17.9097 19.9473C17.8914 20.2005 17.8639 20.5604 17.8303 20.9905Z" fill="#640303"/>
<path d="M37.7456 26.87C37.7273 26.5009 37.709 26.0678 37.6816 25.6072C37.6541 25.1466 37.6267 24.6525 37.5962 24.1614C37.5626 23.6703 37.5291 23.1761 37.4986 22.7156C37.4681 22.255 37.4315 21.8249 37.404 21.4558C37.3765 21.0867 37.3491 20.7787 37.3308 20.5651C37.3125 20.3486 37.3003 20.2266 37.3003 20.2266C37.3003 20.2266 37.3033 20.3486 37.3125 20.5651C37.3216 20.7817 37.3308 21.0898 37.3521 21.4589C37.3704 21.8279 37.3887 22.2611 37.4162 22.7217C37.4437 23.1822 37.4711 23.6764 37.5016 24.1675C37.5352 24.6586 37.5687 25.1527 37.5992 25.6133C37.6297 26.0739 37.6663 26.5039 37.6938 26.873C37.7243 27.2421 37.7487 27.5502 37.767 27.7637C37.7853 27.9803 37.7975 28.1023 37.7975 28.1023C37.7975 28.1023 37.7944 27.9803 37.7853 27.7637C37.7761 27.5471 37.7609 27.2391 37.7456 26.87Z" fill="#640303"/>
<path d="M36.8398 20.9935C36.8612 21.4267 36.8825 21.93 36.913 22.4729C36.9435 23.0128 36.9771 23.5893 37.0076 24.1688C37.0442 24.7453 37.0808 25.3218 37.1143 25.8617C37.1509 26.4016 37.1875 26.9049 37.218 27.338C37.2516 27.7712 37.279 28.1311 37.2973 28.3812C37.3187 28.6344 37.3309 28.7777 37.3309 28.7777C37.3309 28.7777 37.3248 28.6344 37.3156 28.3812C37.3034 28.128 37.2882 27.7681 37.2699 27.335C37.2485 26.9019 37.2241 26.3986 37.1967 25.8556C37.1662 25.3157 37.1326 24.7392 37.1021 24.1597C37.0655 23.5832 37.0289 23.0067 36.9954 22.4668C36.9618 21.9269 36.9222 21.4236 36.8917 20.9905C36.8581 20.5574 36.8307 20.1974 36.8124 19.9473C36.791 19.6941 36.7788 19.5508 36.7788 19.5508C36.7788 19.5508 36.7849 19.6941 36.7941 19.9473C36.8032 20.2005 36.8215 20.5604 36.8398 20.9935Z" fill="#640303"/>
</svg>
