<svg width="70" height="70" viewBox="0 0 70 70" fill="none" xmlns="http://www.w3.org/2000/svg">
<rect width="70" height="70" rx="35" fill="#FE4242"/>
<path d="M30.3738 33.0404C29.9833 33.431 29.3501 33.431 28.9596 33.0404C28.5691 32.6499 28.5691 32.0168 28.9596 31.6262L34.2929 26.2929C34.6834 25.9024 35.3166 25.9024 35.7071 26.2929L41.0405 31.6262C41.431 32.0168 41.431 32.6499 41.0405 33.0404C40.6499 33.431 40.0168 33.431 39.6262 33.0404L36 29.4142L36 42.3333C36 42.8856 35.5523 43.3333 35 43.3333C34.4477 43.3333 34 42.8856 34 42.3333L34 29.4142L30.3738 33.0404Z" fill="white"/>
</svg>
