<svg width="38" height="38" viewBox="0 0 38 38" fill="none" xmlns="http://www.w3.org/2000/svg">
<rect x="0.5" y="0.5" width="37" height="37" rx="18.5" stroke="#F5DEDE"/>
<g clip-path="url(#clip0_414_4681)">
<g clip-path="url(#clip1_414_4681)">
<g clip-path="url(#clip2_414_4681)">
<path d="M26.0329 16.5498C26.0329 16.5498 25.8926 15.5564 25.4608 15.1203C24.9141 14.5462 24.3028 14.5434 24.0225 14.5096C22.015 14.3633 19.0009 14.3633 19.0009 14.3633H18.9953C18.9953 14.3633 15.9812 14.3633 13.9736 14.5096C13.6933 14.5434 13.082 14.5462 12.5353 15.1203C12.1035 15.5564 11.9661 16.5498 11.9661 16.5498C11.9661 16.5498 11.8203 17.7176 11.8203 18.8826V19.9745C11.8203 21.1395 11.9633 22.3073 11.9633 22.3073C11.9633 22.3073 12.1035 23.3006 12.5325 23.7368C13.0792 24.3109 13.797 24.2912 14.1166 24.3531C15.2662 24.4628 18.9981 24.4966 18.9981 24.4966C18.9981 24.4966 22.015 24.491 24.0225 24.3475C24.3028 24.3137 24.9141 24.3109 25.4608 23.7368C25.8926 23.3006 26.0329 22.3073 26.0329 22.3073C26.0329 22.3073 26.1758 21.1423 26.1758 19.9745V18.8826C26.1758 17.7176 26.0329 16.5498 26.0329 16.5498ZM17.5149 21.2999V17.2505L21.3925 19.2822L17.5149 21.2999Z" fill="#F5DEDE"/>
</g>
</g>
</g>
<defs>
<clipPath id="clip0_414_4681">
<rect width="16" height="11" fill="white" transform="translate(11 13.5)"/>
</clipPath>
<clipPath id="clip1_414_4681">
<rect width="16" height="11" fill="white" transform="translate(11 13.5)"/>
</clipPath>
<clipPath id="clip2_414_4681">
<rect width="16" height="11" fill="white" transform="translate(11 13.5)"/>
</clipPath>
</defs>
</svg>
