<svg width="100" height="93" viewBox="0 0 100 93" fill="none" xmlns="http://www.w3.org/2000/svg">
<g id="Group 48095517" opacity="0.05">
<g id="Group 5">
<path id="Subtract" fill-rule="evenodd" clip-rule="evenodd" d="M67.9335 11.3772C57.552 7.33196 51.6915 5.30933 49.8496 4.80368C48.0077 5.30933 42.1472 7.33196 31.7657 11.3772C26.7586 13.2162 23.064 14.7249 20.505 15.7699C19.8977 16.0179 19.3543 16.2397 18.8726 16.4337C20.6868 23.6553 22.8258 38.2352 21.2898 62.3477H18.2443C20.6471 26.6497 14.6865 13.3998 14.6865 13.3998C14.6865 13.3998 18.8726 11.63 31.096 6.8263C43.9891 1.76978 49.8496 0 49.8496 0C49.8496 0 55.8776 1.76978 68.9381 6.8263C81.1615 11.63 85.3476 13.3998 85.3476 13.3998C85.3476 13.3998 79.387 26.6497 81.7898 62.3477H78.4169C77.0408 38.2352 79.1774 23.6553 80.8266 16.4337C79.8591 16.0685 78.7169 15.6044 77.3606 15.0532C74.9611 14.0782 71.8915 12.8309 67.9335 11.3772Z" fill="#8A0303"/>
</g>
<g id="Group 48095510">
<path id="Vector" d="M1.04291 42.6472C8.52884 57.7105 14.1084 66.1741 33.0012 75.4176L33.0074 75.4004C11.9948 63.6328 -0.787795 44.4332 12.9894 26.8867C11.6669 53.8482 23.1908 69.9382 50 80.5924C76.8092 69.9382 88.3332 53.8482 87.0106 26.8867C100.788 44.4332 88.0052 63.6328 66.9926 75.4004L66.9988 75.4176C85.8916 66.1741 91.4712 57.7105 98.957 42.6472C105.553 63.1121 79.4478 74.8155 60.3518 80.2285C74.9742 78.9326 86.1458 73.3246 97.1396 62.51C96.4088 79.8387 72.5148 82.5737 56.4944 82.2182C67.1386 84.1278 77.2936 82.6541 88.8466 77.9922C82.3076 90.3263 65.7406 88.0039 52.707 83.5773C59.7926 86.9662 67.736 88.4685 77.3572 88.5029C70.1254 94.0018 61.8832 92.4421 54.4418 88.3366C56.2084 89.793 58.242 91.1462 60.5678 92.4421C56.7804 92.9697 53.6856 91.628 51.4106 89.5292C51.0612 90.9281 50.572 92.0519 50.0002 92.2013C49.4284 92.0519 48.9388 90.9281 48.5894 89.5292C46.3144 91.628 43.2196 92.9697 39.4322 92.4421C41.758 91.1462 43.7916 89.793 45.5582 88.3366C38.1168 92.4421 29.8746 94.0018 22.6428 88.5029C32.264 88.4685 40.2074 86.9662 47.293 83.5773C34.2594 88.0039 17.6925 90.3263 11.1534 77.9922C22.7064 82.6541 32.8614 84.1278 43.5056 82.2182C27.4852 82.5737 3.59118 79.8387 2.86038 62.51C13.8542 73.3246 25.0258 78.9326 39.6482 80.2285C20.5522 74.8155 -5.55335 63.1121 1.04291 42.6472Z" fill="#8A0303"/>
<path id="Vector_2" d="M50.0004 76.0312L54.316 83.4113L50.0004 90.7916L45.6846 83.4113L50.0004 76.0312Z" fill="#8A0303"/>
</g>
<g id="Group 48095515">
<g id="Group">
<path id="Vector_3" d="M74.1268 58.5717L72.1729 36.1759C72.1563 35.9324 71.9625 35.7386 71.7245 35.7054L70.0971 35.484L69.3942 34.3548C69.3942 34.3548 65.1763 31.875 57.9582 31.875C50.7402 31.875 49.9542 34.0504 49.9542 34.0504C49.9542 34.0504 49.1737 31.875 41.9557 31.875C34.7377 31.875 30.5198 34.3548 30.5198 34.3548L29.8168 35.484L28.1839 35.7054C27.9403 35.7386 27.7577 35.9324 27.7355 36.1759L25.776 58.5717C25.776 58.5883 25.7705 58.5994 25.7705 58.616C25.7705 58.7544 25.8259 58.8872 25.92 58.9869C26.0141 59.0865 26.1524 59.1419 26.2908 59.1419H26.324L47.3249 57.7248C47.6681 58.068 48.4486 58.6215 49.9431 58.6215C51.4432 58.6215 52.2181 58.068 52.5613 57.7248L73.5622 59.1419H73.601C73.7394 59.1419 73.8722 59.0865 73.9718 58.9869C74.0659 58.8928 74.1213 58.7599 74.1213 58.6215C74.1268 58.6049 74.1268 58.5883 74.1268 58.5717ZM49.8933 55.8816H49.9985L50.0926 55.8871C50.159 55.8926 50.2365 55.8982 50.3029 55.9037C50.4413 55.9203 50.5742 55.948 50.707 55.9923C50.9672 56.0753 51.1886 56.2303 51.3325 56.3853C51.4764 56.5347 51.5594 56.6842 51.6203 56.7838C51.6757 56.8834 51.7034 56.9499 51.7034 56.9499C51.7034 56.9499 51.6425 56.9167 51.5428 56.8558C51.4432 56.7949 51.3048 56.7063 51.1443 56.6233C51.0668 56.579 50.9782 56.5403 50.8841 56.5126C50.79 56.4794 50.6904 56.4572 50.5852 56.4406C50.4856 56.424 50.3694 56.4185 50.2531 56.4074C50.1922 56.4019 50.1369 56.4019 50.0815 56.4019H49.8989C49.6608 56.4074 49.4394 56.424 49.2346 56.4904C49.0353 56.5458 48.8305 56.6399 48.6479 56.7174C48.4597 56.7894 48.2992 56.8392 48.1884 56.8613C48.0722 56.8835 48.0058 56.8945 48.0058 56.8945C48.0058 56.8945 48.0556 56.8447 48.1442 56.7727C48.2272 56.6953 48.349 56.5845 48.4929 56.4572C48.6423 56.3299 48.8195 56.1749 49.0686 56.0587C49.3232 55.9369 49.6166 55.8871 49.8933 55.8816ZM27.2595 49.527C27.1931 50.2134 27.1322 50.8943 27.0713 51.5474C26.944 52.8593 26.8167 54.0826 26.7004 55.1288C26.5897 56.1749 26.4846 57.0495 26.4126 57.6639C26.3406 58.2728 26.2964 58.6215 26.2964 58.6215C26.2964 58.6215 26.313 58.2728 26.3462 57.6584C26.3849 57.044 26.4292 56.1694 26.5012 55.1177C26.5731 54.066 26.6617 52.8372 26.7613 51.5253C26.8167 50.8666 26.872 50.1913 26.9218 49.4994C26.9827 48.813 27.0381 48.11 27.099 47.407C27.1654 46.7096 27.2263 46.0066 27.2872 45.3202C27.3536 44.6338 27.42 43.953 27.4809 43.2998C27.6082 41.988 27.73 40.7647 27.8462 39.7185C27.9569 38.6723 28.0677 37.7978 28.1341 37.1833C28.206 36.5745 28.2503 36.2257 28.2503 36.2257C28.2503 36.2257 28.2337 36.5745 28.195 37.1889C28.1562 37.8033 28.1119 38.6779 28.04 39.7296C27.9736 40.7813 27.8795 42.0101 27.7798 43.322C27.7245 43.9807 27.6746 44.656 27.6193 45.3479C27.5584 46.0343 27.5031 46.7373 27.4422 47.4402C27.3868 48.1377 27.3204 48.8351 27.2595 49.527ZM29.1581 37.211L30.7633 34.6205C31.3445 34.305 35.413 32.2293 41.9502 32.2293C48.1442 32.2293 49.4284 33.8511 49.6055 34.1389V54.8409C48.9468 54.3372 47.1921 53.4294 43.1735 53.4294C38.4021 53.4294 31.0014 55.4055 28.9754 55.9757L30.4921 35.8106L28.4441 56.1307C28.4053 56.1971 27.9127 56.9222 27.5197 57.4757L29.1581 37.211ZM47.2142 56.4794C43.9595 56.6842 32.1084 57.4259 28.2337 57.6695C28.5603 57.5366 28.8924 57.448 28.8924 57.448C28.8924 57.448 28.5271 57.4148 28.1451 57.4314C28.0843 57.437 28.0234 57.437 27.968 57.4425C28.1507 57.1824 28.3832 56.8502 28.6655 56.4296C29.1692 56.2856 31.2117 55.71 33.7745 55.1288C33.3206 55.2616 32.8834 55.3945 32.4848 55.5107C31.6268 55.7875 30.9128 56.031 30.4091 56.1971C30.005 56.341 29.7448 56.4296 29.6563 56.4628C29.7448 56.4406 30.0105 56.3742 30.4257 56.2635C30.9349 56.1251 31.6601 55.9258 32.5346 55.7044C33.4037 55.4664 34.4222 55.2063 35.5237 54.9627C36.6197 54.7081 37.7987 54.4811 38.9888 54.3261C39.5811 54.2431 40.1789 54.1767 40.7601 54.1269C41.3468 54.0826 41.928 54.0549 42.4871 54.0549C43.6108 54.0383 44.6569 54.1103 45.5481 54.232C46.4393 54.3483 47.1755 54.5088 47.6792 54.6472C47.9338 54.7081 48.1331 54.769 48.2659 54.8077C48.4043 54.8465 48.4763 54.8686 48.4763 54.8686C48.4763 54.8686 48.4043 54.8409 48.277 54.7911C48.1442 54.7413 47.9504 54.6583 47.7013 54.5808C47.1976 54.4092 46.4725 54.2044 45.5758 54.0383C44.9171 53.9221 44.1643 53.8335 43.3617 53.7837C47.8176 53.8169 49.301 55.007 49.6055 55.3059V55.3446C49.0686 55.4553 48.5704 55.8041 48.2327 56.103L46.0241 56.3797L47.2142 56.4794ZM52.2071 57.3706C52.1573 57.4259 52.0964 57.4868 52.0133 57.5532C51.9358 57.6196 51.8417 57.6916 51.7366 57.7525C51.6259 57.8189 51.5041 57.8798 51.3657 57.9352C51.2329 57.9905 51.0889 58.0348 50.934 58.0735C50.8565 58.0957 50.779 58.1068 50.6959 58.1178C50.6129 58.1344 50.5354 58.1455 50.4524 58.151C50.2808 58.1732 50.1203 58.1732 49.9542 58.1842C49.7826 58.1732 49.6166 58.1732 49.4505 58.151C49.3675 58.1455 49.2844 58.1344 49.2069 58.1178C49.1239 58.1012 49.0464 58.0957 48.9689 58.068C48.8139 58.0348 48.67 57.985 48.5316 57.9296C48.3988 57.8743 48.277 57.8134 48.1663 57.747C48.0556 57.6861 47.9615 57.6141 47.884 57.5477C47.8065 57.4813 47.7401 57.4204 47.6958 57.365C47.6072 57.2709 47.5685 57.199 47.563 57.1824C47.574 57.199 47.6238 57.2599 47.7179 57.3429C47.8287 57.437 47.9947 57.5588 48.2161 57.6639C48.3268 57.7193 48.4486 57.7636 48.5815 57.8078C48.7143 57.8521 48.8582 57.8909 49.0077 57.9186C49.1571 57.9518 49.3121 57.9739 49.4726 57.985C49.6332 58.0016 49.7992 58.0016 49.9542 58.0071C50.1203 58.0016 50.2919 58.0016 50.4468 57.985C50.6074 57.9739 50.7624 57.9518 50.9063 57.9186C51.0557 57.8853 51.1996 57.8521 51.3325 57.8078C51.4653 57.7636 51.5871 57.7137 51.6978 57.6639C51.9137 57.5532 52.0853 57.437 52.1905 57.3429C52.2735 57.2709 52.3233 57.2156 52.3399 57.1934C52.3178 57.2266 52.279 57.2875 52.2071 57.3706ZM70.8555 57.6141C66.2944 57.3263 55.484 56.651 52.5835 56.4683L54.5264 56.1639L51.6701 56.0974C51.327 55.8041 50.8343 55.4498 50.2919 55.3391V55.3004C50.5686 55.0291 51.7642 54.0715 55.1131 53.828C54.6592 53.8944 54.2275 53.9774 53.84 54.066C53.0429 54.2653 52.4008 54.5033 51.9635 54.6859C51.7421 54.7745 51.576 54.8575 51.4598 54.9129C51.3436 54.9682 51.2827 54.9959 51.2827 54.9959C51.2827 54.9959 51.3491 54.9738 51.4709 54.9295C51.5871 54.8907 51.7642 54.8188 51.9912 54.7524C52.4396 54.6029 53.0927 54.4036 53.8843 54.2597C54.6758 54.1103 55.6168 53.994 56.6242 53.994C57.6317 53.9719 58.711 54.0494 59.7794 54.1822C60.8532 54.2985 61.916 54.4922 62.9068 54.7081C63.9031 54.9074 64.822 55.1343 65.608 55.3391C66.3996 55.5328 67.0583 55.7044 67.5177 55.8262C67.9162 55.9258 68.1709 55.9923 68.2262 56.0033C68.1709 55.9812 67.9273 55.8982 67.5343 55.7598C67.0859 55.6103 66.4383 55.3945 65.6634 55.1509C65.132 54.9904 64.5397 54.8188 63.9031 54.6472C67.4402 55.3446 70.6064 56.2358 71.2485 56.4185C71.5529 56.8668 71.7854 57.21 71.9791 57.4813L68.9569 57.0274L70.8555 57.6141ZM71.5419 56.2414L69.4827 35.8051L70.9994 55.9867C69.0786 55.4498 61.5562 53.4239 56.7349 53.4239C52.7108 53.4239 50.9616 54.3317 50.2974 54.8354V34.1334C50.4635 33.8566 51.7034 32.2237 57.9527 32.2237C64.4788 32.2237 68.5583 34.2995 69.1395 34.615L70.7448 37.2055L72.3943 57.4647C72.0788 57.0329 71.7079 56.4794 71.5419 56.2414ZM73.5013 57.6584C73.4405 57.0495 73.3519 56.1749 73.2523 55.1232C73.1526 54.0715 73.0364 52.8482 72.9091 51.5364C72.7928 50.2245 72.6655 48.8241 72.5382 47.4236C72.422 46.0232 72.3002 44.6283 72.1895 43.3109C72.0843 41.9991 71.9902 40.7758 71.9016 39.724C71.8186 38.6723 71.7577 37.7978 71.7079 37.1833C71.6747 36.6852 71.6526 36.3641 71.647 36.259C71.6581 36.3586 71.6913 36.6852 71.7411 37.1833C71.802 37.7922 71.8906 38.6668 71.9957 39.7185C72.0954 40.7647 72.2116 41.9935 72.3389 43.3054C72.4552 44.6172 72.5825 46.0177 72.7098 47.4181C72.826 48.8185 72.9478 50.219 73.0585 51.5308C73.1637 52.8427 73.2633 54.066 73.3464 55.1177C73.4239 56.1694 73.4903 57.044 73.5346 57.6584C73.5678 58.1178 73.5899 58.4278 73.5954 58.5551C73.5844 58.4278 73.5512 58.1178 73.5013 57.6584Z" fill="#8A0303"/>
<path id="Vector_4" d="M58.3024 55.3466C61.845 55.6012 68.432 56.4924 68.432 56.4924C58.6677 54.0734 55.4074 54.3281 52.125 55.1694C52.125 55.1694 54.7543 55.0919 58.3024 55.3466Z" fill="#8A0303"/>
<path id="Vector_5" d="M47.4184 55.1785C44.4791 54.4036 40.5878 54.1766 31.842 56.4572C31.842 56.4572 38.7113 55.6047 41.8831 55.3612C45.0603 55.1176 47.4184 55.1785 47.4184 55.1785Z" fill="#8A0303"/>
<path id="Vector_6" d="M66.4928 56.7437C65.8839 56.6386 65.1754 56.5223 64.4115 56.4061C63.6476 56.3009 62.8284 56.2013 62.0092 56.1127C61.19 56.0407 60.3652 55.9743 59.5958 55.9245C58.8264 55.8858 58.1013 55.8581 57.4869 55.8415C56.8669 55.8359 56.3521 55.8359 55.9923 55.8359C55.6325 55.8415 55.4277 55.847 55.4277 55.847C55.4277 55.847 55.6325 55.8691 55.9923 55.9024C56.3521 55.93 56.8614 55.9743 57.4758 56.0352C58.0902 56.085 58.8043 56.1514 59.5737 56.2234C60.3431 56.2898 61.1568 56.3673 61.976 56.4614C62.7952 56.5389 63.6089 56.6219 64.3728 56.7105C65.1366 56.788 65.8562 56.8655 66.4651 56.943C67.0795 57.0039 67.5888 57.0648 67.9486 57.1091C68.3084 57.1478 68.5132 57.1699 68.5132 57.1699C68.5132 57.1699 68.3139 57.1257 67.9596 57.0426C67.6054 56.9596 67.1017 56.86 66.4928 56.7437Z" fill="#8A0303"/>
<path id="Vector_7" d="M46.1219 55.6602C45.751 55.6657 45.3137 55.6768 44.8487 55.6823C44.3838 55.7044 43.8856 55.7266 43.3874 55.7487C42.8892 55.7875 42.3966 55.8262 41.9316 55.8594C41.4667 55.9092 41.0349 55.9535 40.6641 55.9867C40.2932 56.0366 39.9832 56.0753 39.7673 56.103C39.5515 56.1362 39.4297 56.1583 39.4297 56.1583C39.4297 56.1583 39.557 56.1639 39.7729 56.1694C39.9888 56.1694 40.3043 56.1749 40.6751 56.1805C41.046 56.1749 41.4833 56.1639 41.9482 56.1583C42.4132 56.1362 42.9114 56.114 43.4096 56.0919C43.9077 56.0532 44.4004 56.0144 44.8653 55.9812C45.3303 55.9314 45.7621 55.8871 46.1329 55.8539C46.5038 55.8041 46.8138 55.7653 47.0296 55.7377C47.2455 55.7044 47.3673 55.6823 47.3673 55.6823C47.3673 55.6823 47.24 55.6768 47.0241 55.6712C46.8082 55.6712 46.4927 55.6657 46.1219 55.6602Z" fill="#8A0303"/>
<path id="Vector_8" d="M31.5104 57.1428C31.8425 57.1262 32.23 57.104 32.6396 57.0819C33.0547 57.0487 33.492 57.0099 33.9348 56.9767C34.3721 56.9269 34.8094 56.8715 35.2246 56.8272C35.6342 56.7664 36.0161 56.711 36.3427 56.6612C36.6693 56.6003 36.9405 56.5505 37.1342 56.5173C37.3224 56.4785 37.4331 56.4508 37.4331 56.4508C37.4331 56.4508 37.3224 56.4508 37.1287 56.4453C36.935 56.4508 36.6582 56.4564 36.3261 56.4619C35.994 56.4785 35.6065 56.5007 35.1969 56.5228C34.7817 56.556 34.3444 56.5948 33.9016 56.628C33.4643 56.6778 33.027 56.7331 32.6119 56.783C32.2023 56.8439 31.8204 56.8992 31.4938 56.949C31.1672 57.0099 30.896 57.0597 30.7022 57.0929C30.514 57.1317 30.4033 57.1594 30.4033 57.1594C30.4033 57.1594 30.514 57.1594 30.7078 57.1649C30.9015 57.1538 31.1783 57.1483 31.5104 57.1428Z" fill="#8A0303"/>
<path id="Vector_9" d="M69.9928 37.9182C70.0261 38.4274 70.0648 39.1525 70.1257 40.0216C70.1866 40.8906 70.2641 41.9091 70.3526 42.994C70.3969 43.5365 70.4467 44.1011 70.4966 44.6712C70.5464 45.2414 70.6017 45.8226 70.6515 46.3982C70.7069 46.9795 70.7623 47.5551 70.8176 48.1253C70.8785 48.6954 70.9338 49.2545 70.9892 49.7969C71.1054 50.8818 71.2161 51.8948 71.3213 52.7583C71.421 53.6273 71.5206 54.3469 71.5815 54.8506C71.6479 55.3543 71.6922 55.6422 71.6922 55.6422C71.6922 55.6422 71.6811 55.3488 71.6534 54.8451C71.6202 54.3359 71.587 53.6107 71.5206 52.7417C71.4597 51.8726 71.3822 50.8542 71.2936 49.7692C71.2494 49.2268 71.1995 48.6622 71.1497 48.092C71.0999 47.5219 71.0446 46.9407 70.9947 46.365C70.9394 45.7838 70.884 45.2082 70.8287 44.638C70.7678 44.0679 70.7124 43.5088 70.6571 42.9664C70.5408 41.8814 70.4301 40.8685 70.325 40.005C70.2253 39.1359 70.1257 38.4164 70.0648 37.9126C69.9984 37.4089 69.9541 37.1211 69.9541 37.1211C69.9541 37.1211 69.9652 37.4145 69.9928 37.9182Z" fill="#8A0303"/>
<path id="Vector_10" d="M70.7497 41.9465C70.7995 42.6219 70.8549 43.4079 70.9213 44.2437C70.9877 45.0851 71.0708 45.9818 71.1538 46.8785C71.2424 47.7752 71.3254 48.6719 71.4139 49.5078C71.5025 50.3491 71.5966 51.1296 71.6686 51.7994C71.7405 52.4691 71.8236 53.0282 71.8678 53.4212C71.9232 53.8142 71.9509 54.0356 71.9509 54.0356C71.9509 54.0356 71.9398 53.8087 71.9177 53.4157C71.89 53.0227 71.8623 52.4581 71.8125 51.7883C71.7627 51.113 71.7073 50.327 71.6409 49.4912C71.5745 48.6498 71.4914 47.7531 71.4084 46.8564C71.3198 45.9596 71.2368 45.0629 71.1483 44.2271C71.0597 43.3857 70.9656 42.6052 70.8936 41.9355C70.8161 41.2657 70.7386 40.7066 70.6944 40.3136C70.639 39.9206 70.6113 39.6992 70.6113 39.6992C70.6113 39.6992 70.6224 39.9262 70.6445 40.3192C70.6667 40.7122 70.6944 41.2768 70.7497 41.9465Z" fill="#8A0303"/>
<path id="Vector_11" d="M29.6172 40.0047C29.512 40.8682 29.4013 41.8812 29.2851 42.9661C29.2297 43.5086 29.1744 44.0676 29.1135 44.6378C29.0582 45.2079 29.0028 45.7836 28.9474 46.3648C28.8976 46.946 28.8423 47.5217 28.7925 48.0918C28.7426 48.6619 28.6984 49.221 28.6485 49.769C28.56 50.8539 28.4825 51.8724 28.4216 52.7414C28.3607 53.6105 28.322 54.3356 28.2887 54.8449C28.2611 55.3541 28.25 55.6419 28.25 55.6419C28.25 55.6419 28.2943 55.3541 28.3607 54.8504C28.4216 54.3467 28.5212 53.6271 28.6209 52.7581C28.726 51.8945 28.8367 50.8816 28.953 49.7967C29.0083 49.2542 29.0637 48.6951 29.1246 48.125C29.1799 47.5549 29.2353 46.9792 29.2906 46.398C29.3405 45.8168 29.3958 45.2411 29.4456 44.671C29.4954 44.1009 29.5397 43.5418 29.5895 42.9938C29.6781 41.9089 29.7556 40.8904 29.8165 40.0213C29.8774 39.1523 29.9161 38.4272 29.9493 37.9179C29.977 37.4087 29.9881 37.1208 29.9881 37.1208C29.9881 37.1208 29.9438 37.4087 29.8774 37.9124C29.8165 38.4216 29.7169 39.1412 29.6172 40.0047Z" fill="#8A0303"/>
<path id="Vector_12" d="M28.5203 49.5156C28.6089 48.6742 28.6975 47.783 28.7805 46.8863C28.8635 45.9896 28.9465 45.0929 29.013 44.2515C29.0849 43.4101 29.1347 42.6241 29.1846 41.9544C29.2344 41.2791 29.2621 40.72 29.2897 40.327C29.3119 39.934 29.3229 39.707 29.3229 39.707C29.3229 39.707 29.2953 39.9284 29.2399 40.3214C29.1901 40.7145 29.1126 41.268 29.0406 41.9433C28.9687 42.6131 28.869 43.3935 28.786 44.2349C28.6975 45.0763 28.6089 45.9674 28.5259 46.8642C28.4428 47.7609 28.3598 48.6576 28.2934 49.499C28.2214 50.3403 28.1716 51.1263 28.1218 51.7961C28.072 52.4714 28.0443 53.0305 28.0166 53.4235C27.9945 53.8165 27.9834 54.0434 27.9834 54.0434C27.9834 54.0434 28.0111 53.822 28.0664 53.429C28.1162 53.036 28.1937 52.4825 28.2657 51.8072C28.3377 51.1319 28.4373 50.3514 28.5203 49.5156Z" fill="#8A0303"/>
<path id="Vector_13" d="M48.7744 47.2582C48.78 47.8006 48.7966 48.3209 48.8076 48.8191C48.8187 49.3173 48.8353 49.7823 48.8519 50.2195C48.9128 51.9521 49.0014 53.109 49.0014 53.109C49.0014 53.109 49.0899 51.9521 49.1508 50.2195C49.1674 49.7878 49.184 49.3173 49.1951 48.8191C49.2062 48.3209 49.2228 47.8006 49.2283 47.2582C49.2339 46.7157 49.2505 46.1566 49.2505 45.5865C49.256 45.0164 49.256 44.4407 49.2615 43.865C49.256 43.2894 49.256 42.7082 49.2505 42.1436C49.2505 41.5734 49.2339 41.0144 49.2283 40.4719C49.2117 39.387 49.184 38.3796 49.1508 37.5105C49.0899 35.778 49.0014 34.6211 49.0014 34.6211C49.0014 34.6211 48.9128 35.778 48.8519 37.5105C48.8187 38.374 48.791 39.387 48.7744 40.4719C48.7689 41.0144 48.7523 41.5734 48.7523 42.1436C48.7467 42.7137 48.7467 43.2894 48.7412 43.865C48.7467 44.4407 48.7467 45.0219 48.7523 45.5865C48.7523 46.1566 48.7689 46.7157 48.7744 47.2582Z" fill="#8A0303"/>
<path id="Vector_14" d="M48.1774 46.4824C48.1885 47.3182 48.2106 48.1042 48.2328 48.774C48.2549 49.4437 48.2826 50.0028 48.2992 50.3958C48.3158 50.7888 48.3324 51.0102 48.3324 51.0102C48.3324 51.0102 48.349 50.7888 48.3656 50.3958C48.3822 50.0028 48.4099 49.4437 48.432 48.774C48.4542 48.1042 48.4708 47.3237 48.4874 46.4824C48.4929 46.0617 48.4985 45.6299 48.504 45.1926C48.504 44.7553 48.5095 44.307 48.5095 43.8586C48.5095 43.4103 48.504 42.9674 48.504 42.5246C48.504 42.0873 48.4929 41.65 48.4874 41.2349C48.4763 40.3991 48.4542 39.6131 48.432 38.9433C48.4099 38.2735 48.3822 37.7145 48.3656 37.3214C48.349 36.9284 48.3324 36.707 48.3324 36.707C48.3324 36.707 48.3158 36.9284 48.2992 37.3214C48.2826 37.7145 48.2549 38.2735 48.2328 38.9433C48.2106 39.6131 48.194 40.3935 48.1774 41.2349C48.1719 41.6556 48.1608 42.0873 48.1608 42.5246C48.1608 42.9619 48.1553 43.4103 48.1553 43.8586C48.1553 44.307 48.1608 44.7498 48.1608 45.1926C48.1663 45.6299 48.1719 46.0617 48.1774 46.4824Z" fill="#8A0303"/>
<path id="Vector_15" d="M31.6151 36.707C31.6151 36.707 31.593 36.9284 31.5598 37.3214C31.5266 37.7145 31.4768 38.268 31.4269 38.9378C31.3771 39.6075 31.3107 40.388 31.2553 41.2238C31.2 42.0597 31.1391 42.9564 31.0782 43.8476C31.0284 44.7443 30.973 45.6355 30.9232 46.4713C30.8734 47.3071 30.8402 48.0931 30.807 48.7629C30.7793 49.4327 30.7516 49.9917 30.735 50.3847C30.724 50.7777 30.7129 50.9992 30.7129 50.9992C30.7129 50.9992 30.735 50.7777 30.7682 50.3847C30.8015 49.9917 30.8457 49.4382 30.9011 48.7684C30.9509 48.0987 31.0173 47.3182 31.0727 46.4824C31.128 45.6465 31.1889 44.7498 31.2498 43.8586C31.2996 42.9619 31.355 42.0707 31.4048 41.2349C31.4546 40.3991 31.4878 39.6131 31.521 38.9433C31.5543 38.2735 31.5709 37.7145 31.593 37.3214C31.6041 36.9284 31.6151 36.707 31.6151 36.707Z" fill="#8A0303"/>
<path id="Vector_16" d="M50.7448 47.2526C50.7559 48.3376 50.778 49.345 50.8002 50.214C50.8223 51.0775 50.85 51.8026 50.8666 52.3064C50.8832 52.8101 50.8998 53.0979 50.8998 53.0979C50.8998 53.0979 50.9164 52.8101 50.933 52.3064C50.9496 51.8026 50.9773 51.0775 50.9994 50.214C51.0216 49.3505 51.0382 48.3376 51.0548 47.2526C51.0603 46.7102 51.0658 46.1511 51.0714 45.581C51.0714 45.0108 51.0769 44.4352 51.0769 43.8595C51.0769 43.2838 51.0714 42.7026 51.0714 42.138C51.0658 41.5679 51.0603 41.0088 51.0548 40.4664C51.0437 39.3814 51.0216 38.374 50.9994 37.505C50.9773 36.6415 50.9496 35.9164 50.933 35.4126C50.9164 34.9089 50.8998 34.6211 50.8998 34.6211C50.8998 34.6211 50.8832 34.9089 50.8666 35.4126C50.85 35.9164 50.8223 36.6415 50.8002 37.505C50.778 38.3685 50.7614 39.3814 50.7448 40.4664C50.7393 41.0088 50.7337 41.5679 50.7282 42.138C50.7282 42.7082 50.7227 43.2838 50.7227 43.8595C50.7227 44.4352 50.7282 45.0164 50.7282 45.581C50.7337 46.1511 50.7393 46.7102 50.7448 47.2526Z" fill="#8A0303"/>
<path id="Vector_17" d="M51.4753 49.0316C51.4863 49.7346 51.4974 50.3269 51.5085 50.7365C51.5196 51.1461 51.5251 51.3841 51.5251 51.3841C51.5251 51.3841 51.5306 51.1516 51.5417 50.7365C51.5472 50.3269 51.5583 49.7346 51.5749 49.0316C51.5804 48.3286 51.597 47.5039 51.6026 46.6182C51.6081 45.7381 51.6081 44.7971 51.6137 43.8561C51.6081 42.9151 51.6081 41.9741 51.6026 41.094C51.597 40.2139 51.5804 39.3891 51.5749 38.6806C51.5638 37.9776 51.5528 37.3854 51.5417 36.9758C51.5306 36.5661 51.5251 36.3281 51.5251 36.3281C51.5251 36.3281 51.5196 36.5606 51.5085 36.9758C51.5029 37.3854 51.4919 37.9776 51.4753 38.6806C51.4697 39.3836 51.4531 40.2084 51.4476 41.094C51.4421 41.9741 51.4421 42.9151 51.4365 43.8561C51.4421 44.7971 51.4421 45.7381 51.4476 46.6182C51.4531 47.5039 51.4697 48.3286 51.4753 49.0316Z" fill="#8A0303"/>
<path id="Vector_18" d="M32.3576 38.097C32.3023 38.883 32.2303 39.7964 32.1694 40.7761C32.1085 41.7559 32.0421 42.802 31.9757 43.8482C31.9148 44.8944 31.8595 45.9405 31.8041 46.9258C31.7543 47.9056 31.71 48.8244 31.6713 49.6104C31.638 50.3965 31.6104 51.0496 31.5882 51.509C31.5716 51.9685 31.5605 52.2286 31.5605 52.2286C31.5605 52.2286 31.5827 51.9685 31.6214 51.509C31.6546 51.0496 31.7045 50.3965 31.7654 49.616C31.8207 48.83 31.8816 47.9166 31.9536 46.9369C32.0144 45.9572 32.0809 44.911 32.1473 43.8648C32.2082 42.8186 32.2635 41.7725 32.3189 40.7872C32.3742 39.8074 32.413 38.8886 32.4517 38.1026C32.4849 37.3166 32.5126 36.6634 32.5348 36.204C32.5514 35.7445 32.5624 35.4844 32.5624 35.4844C32.5624 35.4844 32.5403 35.7445 32.5015 36.204C32.4683 36.6634 32.4185 37.3166 32.3576 38.097Z" fill="#8A0303"/>
<path id="Vector_19" d="M68.4978 48.7629C68.4646 48.0931 68.4314 47.3071 68.3816 46.4713C68.3318 45.6355 68.282 44.7387 68.2266 43.8476C68.1657 42.9564 68.1048 42.0597 68.0495 41.2238C67.9941 40.388 67.9277 39.6075 67.8779 38.9378C67.8281 38.268 67.7783 37.7089 67.7451 37.3214C67.7118 36.9284 67.6897 36.707 67.6897 36.707C67.6897 36.707 67.6952 36.9284 67.7118 37.3214C67.7284 37.7145 67.7451 38.2735 67.7838 38.9433C67.817 39.6131 67.8502 40.3991 67.9 41.2349C67.9499 42.0707 67.9997 42.9674 68.055 43.8586C68.1159 44.7498 68.1768 45.6465 68.2322 46.4824C68.2875 47.3182 68.3539 48.0987 68.4038 48.7684C68.4591 49.4382 68.5034 49.9973 68.5366 50.3847C68.5698 50.7777 68.5919 50.9992 68.5919 50.9992C68.5919 50.9992 68.5864 50.7777 68.5698 50.3847C68.5532 49.9917 68.5255 49.4327 68.4978 48.7629Z" fill="#8A0303"/>
<path id="Vector_20" d="M66.8539 38.1023C66.8926 38.8883 66.9314 39.8017 66.9867 40.7869C67.0421 41.7667 67.103 42.8129 67.1583 43.8646C67.2247 44.9107 67.2912 45.9569 67.352 46.9367C67.4185 47.9164 67.4849 48.8297 67.5402 49.6157C67.6011 50.4017 67.651 51.0549 67.6842 51.5088C67.7229 51.9682 67.7451 52.2284 67.7451 52.2284C67.7451 52.2284 67.734 51.9682 67.7174 51.5088C67.6952 51.0494 67.6676 50.3962 67.6343 49.6102C67.5956 48.8242 67.5513 47.9109 67.5015 46.9256C67.4461 45.9458 67.3853 44.8997 67.3299 43.848C67.2635 42.8018 67.1971 41.7556 67.1362 40.7759C67.0753 39.7961 67.0033 38.8828 66.948 38.0968C66.8871 37.3108 66.8373 36.6576 66.8041 36.2037C66.7653 35.7443 66.7432 35.4841 66.7432 35.4841C66.7432 35.4841 66.7542 35.7443 66.7708 36.2037C66.7874 36.6631 66.8207 37.3163 66.8539 38.1023Z" fill="#8A0303"/>
</g>
</g>
</g>
</svg>
