<svg width="71" height="70" viewBox="0 0 71 70" fill="none" xmlns="http://www.w3.org/2000/svg">
<circle cx="35.0601" cy="34.9975" r="34.5" fill="white" stroke="#DAB3B3"/>
<g clip-path="url(#clip0_560_918)">
<path d="M31.6695 35.0931C31.67 35.31 31.627 35.5726 31.5556 35.8853C31.543 35.9405 31.525 36.0172 31.4867 36.1117L26.7275 36.1219L26.865 35.5269C27.4314 35.507 27.8518 35.4756 28.1326 35.426C28.9882 35.275 29.4149 34.9895 29.414 34.5744C29.4133 34.263 29.3203 34.0341 29.1312 33.8887C28.9421 33.7433 28.7223 33.6708 28.4679 33.6713C27.8012 33.6727 27.252 33.9572 26.8166 34.5229C26.3797 35.0903 26.1641 35.7267 26.1656 36.4344C26.1667 36.972 26.3492 37.3758 26.7154 37.6496C27.0285 37.8838 27.4406 38.0015 27.957 38.0004C28.5389 37.9991 29.1235 37.8217 29.717 37.4731C29.9125 37.3582 30.1556 37.1804 30.448 36.9339L31.1512 37.7814C30.7701 38.0271 30.4301 38.204 30.1388 38.3211C29.2288 38.6871 28.2286 38.8768 27.1419 38.8791C26.0707 38.8814 25.2336 38.6762 24.6242 38.2619C24.018 37.8495 23.7165 37.2502 23.7148 36.4676C23.7126 35.4402 24.2137 34.5874 25.2276 33.9185C26.1647 33.3004 27.2449 32.9942 28.4665 32.9916C29.3104 32.9898 30.0274 33.1493 30.6101 33.4686C31.3122 33.8533 31.668 34.3948 31.6695 35.0931ZM36.4417 40.6587L35.4491 42.9429L8.00073 43.0014L16.5712 27.0243L27.3323 27.0014L21.1108 38.4571C21.0038 38.6542 20.9533 38.8629 20.9538 39.0783C20.9546 39.4422 21.1555 39.7467 21.5338 40.0202C22.1371 40.4564 23.1459 40.6871 24.5805 40.684L36.4418 40.6587H36.4417ZM37.7546 41.8842C37.7542 41.7116 37.8321 41.5445 37.9896 41.383C38.147 41.2207 38.37 41.0974 38.6585 41.0117C38.9469 40.9261 39.2682 40.8826 39.6246 40.8818C40.1752 40.8807 40.6254 40.9761 40.9775 41.1681C41.3297 41.3607 41.5055 41.6035 41.5061 41.8982C41.5068 42.1956 41.3297 42.4422 40.976 42.6383C40.6211 42.8343 40.1749 42.9328 39.6362 42.934C39.303 42.9347 38.985 42.8944 38.6822 42.8138C38.3805 42.7332 38.15 42.6146 37.9919 42.4575C37.8338 42.301 37.7551 42.1097 37.7546 41.8842ZM38.7434 41.9098C38.7438 42.1045 38.8294 42.2536 39.0003 42.3565C39.1724 42.4601 39.3828 42.5113 39.634 42.5107C39.8841 42.5102 40.0944 42.4581 40.2636 42.3538C40.4329 42.2501 40.5179 42.0993 40.5174 41.9022C40.5171 41.7101 40.4314 41.5623 40.2617 41.4593C40.092 41.3558 39.8815 41.3046 39.6314 41.3051C39.3802 41.3057 39.17 41.3577 38.9983 41.4621C38.828 41.5657 38.7429 41.7152 38.7434 41.9098ZM45.5741 42.8722L44.6135 42.8742L44.6114 41.8746C44.6109 41.6629 44.5895 41.5264 44.5485 41.4647C44.5063 41.4024 44.4395 41.3547 44.346 41.3202C44.2524 41.2858 44.1402 41.269 44.0094 41.2693C43.8411 41.2697 43.6903 41.2946 43.5572 41.344C43.4229 41.3934 43.3319 41.4591 43.2829 41.5398C43.2329 41.6212 43.2086 41.7712 43.2091 41.9904L43.211 42.8772L42.2504 42.8793L42.2462 40.9179L43.1367 40.916L43.1373 41.2038C43.4559 40.9833 43.8565 40.8728 44.3415 40.8718C44.5543 40.8713 44.7494 40.8917 44.926 40.9323C45.1037 40.9735 45.2371 41.0255 45.3271 41.0889C45.4185 41.1529 45.4817 41.2252 45.517 41.3064C45.5534 41.3876 45.5712 41.5035 45.5715 41.6547L45.5741 42.8722ZM46.4339 42.1485L46.4328 41.6307L48.3261 41.6267L48.3272 42.1445L46.4339 42.1485ZM48.8827 42.8651L48.8769 40.1592L49.8375 40.1572L49.8433 42.8631L48.8827 42.8651ZM50.8262 40.635L50.8251 40.1551L51.7858 40.153L51.7868 40.633L50.8262 40.635ZM50.831 42.861L50.8268 40.8996L51.7874 40.8975L51.7916 42.8589L50.831 42.861ZM56.0889 42.8498L55.1283 42.8518L55.1262 41.8522C55.1257 41.6406 55.1043 41.504 55.0633 41.4423C55.0211 41.38 54.9543 41.3323 54.8608 41.2978C54.7672 41.2634 54.655 41.2466 54.5242 41.2469C54.3559 41.2473 54.2051 41.2721 54.072 41.3216C53.9378 41.371 53.8467 41.4367 53.7978 41.5175C53.7477 41.5988 53.7234 41.7488 53.7239 41.968L53.7258 42.8548L52.7653 42.8568L52.761 40.8954L53.6515 40.8936L53.6521 41.1814C53.9707 40.9609 54.3713 40.8504 54.8564 40.8494C55.0691 40.8489 55.2642 40.8693 55.4408 40.9099C55.6186 40.9511 55.7519 41.0031 55.842 41.0665C55.9333 41.1305 55.9965 41.2029 56.0318 41.284C56.0683 41.3652 56.086 41.4811 56.0863 41.6323L56.0889 42.8498ZM59.1647 42.2234L60.1256 42.3083C60.0033 42.4982 59.8084 42.6428 59.5434 42.7429C59.2771 42.8424 58.9442 42.8928 58.5456 42.8937C57.9134 42.8951 57.4445 42.7845 57.1412 42.5622C56.9013 42.3838 56.7805 42.1586 56.7799 41.8858C56.7792 41.5609 56.9364 41.3054 57.2503 41.1208C57.5644 40.9356 57.9628 40.8428 58.4443 40.8417C58.9841 40.8406 59.4109 40.9361 59.7245 41.1281C60.037 41.3202 60.1872 41.6153 60.1741 42.0134L57.7689 42.0185C57.7762 42.1722 57.8537 42.2917 58.0022 42.3771C58.1497 42.4624 58.3343 42.5048 58.5542 42.5044C58.7049 42.504 58.8311 42.4817 58.9326 42.4374C59.0355 42.3931 59.1124 42.3218 59.1647 42.2234ZM59.2197 41.698C59.2124 41.5474 59.1408 41.4329 59.004 41.3551C58.8671 41.2767 58.7011 41.238 58.5047 41.2384C58.2955 41.2388 58.1226 41.2808 57.986 41.3636C57.8495 41.4464 57.7832 41.5593 57.7857 41.701L59.2197 41.698ZM39.9321 33.5478C39.7628 33.7174 39.6093 33.896 39.4399 34.0575C39.0938 34.3873 38.7365 34.6546 38.4012 34.8806C38.0632 35.1085 37.7197 35.3406 37.3661 35.5831C37.0156 35.8235 36.8602 35.9719 36.8969 36.0291C37.1617 36.4424 37.3533 36.7114 37.4767 36.8348C37.7395 37.0976 38.0364 37.2291 38.3638 37.2283C38.5411 37.228 38.7611 37.1582 39.0262 37.0147C39.1113 36.9687 39.2263 36.8918 39.3764 36.7877L39.7709 37.4657C39.4055 37.7871 39.1041 38.0213 38.8707 38.1754C38.1575 38.646 37.5235 38.8851 36.957 38.8863C36.5369 38.8872 36.1844 38.7765 35.9004 38.5632C35.6595 38.3821 35.4038 38.0478 35.1237 37.5606C35.0247 37.3884 34.9112 37.3068 34.7994 37.3071C34.7417 37.3071 34.6567 37.3396 34.5376 37.4067C34.4219 37.4719 34.3399 37.5124 34.2951 37.5344L31.7198 38.8011L31.2672 38.0074L33.8961 36.5311C34.0752 36.4305 34.172 36.3636 34.1924 36.3463C34.2489 36.298 34.2769 36.2423 34.2768 36.1768C34.2766 36.1198 34.2517 36.0382 34.1915 35.9358C33.892 35.4265 33.5621 34.7711 33.2277 33.9576C33.1205 33.6967 32.9875 33.341 32.817 32.8982L35.1985 32.8931C35.3224 33.1846 35.4327 33.4124 35.5159 33.5853C35.7502 34.0719 35.9733 34.4823 36.2045 34.8002C36.2477 34.8596 36.5545 34.6857 37.1167 34.2887C37.3048 34.1558 37.6097 33.9773 37.9593 33.6651L39.0708 32.6726L39.9321 33.5478ZM51.6269 29.6456L49.3651 38.7187L46.3092 38.7252L47.0666 36.1066C47.0803 36.0592 47.0992 35.9977 47.1125 35.9223C47.1258 35.8471 47.1353 35.7904 47.1353 35.753C47.135 35.6492 47.1002 35.5979 47.0347 35.598C46.9692 35.5981 46.9051 35.6369 46.8384 35.7116C46.8205 35.7315 46.7965 35.7751 46.7539 35.8389C46.5698 36.1151 46.3928 36.395 46.193 36.6601C45.7163 37.2925 45.195 37.7955 44.6626 38.1911C43.9216 38.7415 43.1885 39.0132 42.464 39.0148C41.7626 39.0163 41.1967 38.7912 40.7747 38.3405C40.3509 37.888 40.1365 37.2723 40.1349 36.4888C40.1342 36.169 40.1866 35.759 40.2749 35.258C40.3046 35.0893 40.3481 34.8606 40.4275 34.5789L41.8119 29.6665L44.8678 29.66L43.3573 35.0822C43.3496 35.1103 43.3284 35.2005 43.2962 35.3507C43.2636 35.5026 43.2467 35.6388 43.247 35.7613C43.2476 36.0343 43.3172 36.2513 43.4526 36.4116C43.5876 36.5713 43.8308 36.6511 44.1776 36.6503C44.8751 36.6489 45.6158 36.0456 46.4011 34.8355C46.9639 33.9681 47.528 32.8479 48.0547 31.4651C48.283 30.8659 48.4837 30.2572 48.6982 29.6518L51.6269 29.6456ZM62.0007 29.6234L56.992 35.4347C56.7691 35.6932 56.6232 35.8951 56.5424 36.0302C56.4082 36.2546 56.3468 36.4692 56.3472 36.6665C56.3473 36.7048 56.3549 36.7621 56.3784 36.8366C56.5334 37.3274 56.8656 37.5714 57.3627 37.5703L60.1796 37.5643L59.9162 38.7242L50.8449 38.7435L56.7331 31.5597C56.8334 31.4374 56.9089 31.3418 56.956 31.276C57.1049 31.0684 57.1752 30.9407 57.1672 30.894C57.1558 30.8277 57.1054 30.7873 57.0128 30.7738C56.9165 30.7597 56.7738 30.7537 56.5734 30.7541L53.0127 30.7617L53.4188 29.6417L62.0007 29.6234Z" fill="url(#paint0_linear_560_918)"/>
</g>
<defs>
<linearGradient id="paint0_linear_560_918" x1="35.0007" y1="27.0014" x2="35.0007" y2="43.0014" gradientUnits="userSpaceOnUse">
<stop stop-color="#5E0303"/>
<stop offset="1" stop-color="#8A0202"/>
</linearGradient>
<clipPath id="clip0_560_918">
<rect width="54" height="16" fill="white" transform="translate(8.00049 27.0014)"/>
</clipPath>
</defs>
</svg>
