<svg width="364" height="336" viewBox="0 0 364 336" fill="none" xmlns="http://www.w3.org/2000/svg">
<path fill-rule="evenodd" clip-rule="evenodd" d="M246.994 41.79C209.37 27.1294 188.13 19.7991 181.455 17.9665C174.78 19.7991 153.54 27.1294 115.916 41.79C97.7693 48.4548 84.3792 53.9227 75.105 57.7099C72.9041 58.6086 70.935 59.4127 69.1891 60.1157C75.764 86.2881 83.5163 139.128 77.9494 226.516H66.912C75.6201 97.1402 54.0181 49.1203 54.0181 49.1203C54.0181 49.1203 69.1891 42.7062 113.489 25.2968C160.216 6.9711 181.455 0.557129 181.455 0.557129C181.455 0.557129 203.301 6.9711 250.635 25.2968C294.935 42.7062 310.106 49.1203 310.106 49.1203C310.106 49.1203 288.504 97.1402 297.212 226.516H284.988C280.001 139.128 287.744 86.2881 293.721 60.1157C290.215 58.7921 286.075 57.11 281.16 55.1126C272.464 51.579 261.339 47.0585 246.994 41.79Z" fill="white"/>
<path d="M4.57119 155.118C31.7015 209.71 51.9226 240.384 120.394 273.884L120.416 273.821C44.2627 231.173 -2.0636 161.591 47.8672 97.9993C43.0743 195.712 84.839 254.025 182 292.638C279.161 254.025 320.926 195.712 316.133 97.9993C366.064 161.591 319.738 231.173 243.584 273.821L243.607 273.884C312.077 240.384 332.299 209.71 359.429 155.118C383.335 229.286 288.724 271.701 219.517 291.319C272.511 286.623 312.999 266.298 352.842 227.104C350.194 289.906 263.598 299.819 205.537 298.53C244.113 305.451 280.917 300.11 322.787 283.214C299.088 327.915 239.047 319.498 191.811 303.456C217.49 315.737 246.278 321.182 281.147 321.307C254.938 341.236 225.067 335.583 198.098 320.704C204.5 325.982 211.871 330.887 220.3 335.583C206.573 337.495 195.357 332.633 187.112 325.026C185.846 330.096 184.073 334.169 182.001 334.711C179.929 334.169 178.154 330.096 176.888 325.026C168.643 332.633 157.427 337.495 143.701 335.583C152.13 330.887 159.5 325.982 165.902 320.704C138.933 335.583 109.062 341.236 82.8529 321.307C117.722 321.182 146.51 315.737 172.189 303.456C124.953 319.498 64.912 327.915 41.2133 283.214C83.0834 300.11 119.887 305.451 158.463 298.53C100.403 299.819 13.8065 289.906 11.158 227.104C51.0014 266.298 91.4893 286.623 144.483 291.319C75.2762 271.701 -19.3348 229.286 4.57119 155.118Z" fill="white"/>
<path d="M182.001 276.107L197.642 302.854L182.001 329.601L166.36 302.854L182.001 276.107Z" fill="white"/>
<path d="M269.44 212.831L262.358 131.665C262.298 130.782 261.596 130.08 260.733 129.96L254.836 129.157L252.288 125.065C252.288 125.065 237.001 116.078 210.842 116.078C184.683 116.078 181.834 123.962 181.834 123.962C181.834 123.962 179.006 116.078 152.846 116.078C126.687 116.078 111.4 125.065 111.4 125.065L108.853 129.157L102.935 129.96C102.052 130.08 101.39 130.782 101.31 131.665L94.2083 212.831C94.2083 212.891 94.1882 212.931 94.1882 212.992C94.1882 213.493 94.3888 213.975 94.7299 214.336C95.0709 214.697 95.5724 214.897 96.074 214.897H96.1943L172.305 209.762C173.549 211.006 176.378 213.012 181.794 213.012C187.23 213.012 190.039 211.006 191.283 209.762L267.394 214.897H267.534C268.036 214.897 268.517 214.697 268.878 214.336C269.219 213.995 269.42 213.513 269.42 213.012C269.44 212.951 269.44 212.891 269.44 212.831ZM181.613 203.082H181.995L182.336 203.102C182.576 203.122 182.857 203.142 183.098 203.162C183.599 203.222 184.081 203.322 184.562 203.483C185.505 203.784 186.308 204.345 186.829 204.907C187.351 205.449 187.652 205.99 187.872 206.351C188.073 206.713 188.173 206.953 188.173 206.953C188.173 206.953 187.953 206.833 187.592 206.612C187.23 206.392 186.729 206.071 186.147 205.77C185.866 205.609 185.545 205.469 185.204 205.368C184.863 205.248 184.502 205.168 184.121 205.108C183.76 205.047 183.339 205.027 182.917 204.987C182.697 204.967 182.496 204.967 182.295 204.967H181.633C180.771 204.987 179.968 205.047 179.226 205.288C178.504 205.489 177.762 205.83 177.1 206.111C176.418 206.372 175.836 206.552 175.435 206.632C175.013 206.713 174.773 206.753 174.773 206.753C174.773 206.753 174.953 206.572 175.274 206.311C175.575 206.03 176.016 205.629 176.538 205.168C177.08 204.706 177.722 204.145 178.624 203.723C179.547 203.282 180.61 203.102 181.613 203.082ZM99.5846 180.052C99.3439 182.539 99.1232 185.007 98.9025 187.374C98.4411 192.128 97.9797 196.562 97.5585 200.353C97.1572 204.145 96.7761 207.314 96.5153 209.541C96.2545 211.748 96.094 213.012 96.094 213.012C96.094 213.012 96.1542 211.748 96.2746 209.521C96.415 207.294 96.5755 204.125 96.8363 200.313C97.0971 196.502 97.418 192.048 97.7791 187.294C97.9797 184.906 98.1803 182.459 98.3609 179.951C98.5816 177.464 98.7822 174.916 99.0028 172.368C99.2436 169.841 99.4642 167.293 99.6849 164.805C99.9256 162.318 100.166 159.85 100.387 157.483C100.848 152.729 101.29 148.295 101.711 144.504C102.112 140.712 102.513 137.543 102.754 135.316C103.015 133.109 103.175 131.845 103.175 131.845C103.175 131.845 103.115 133.109 102.975 135.336C102.834 137.563 102.674 140.732 102.413 144.544C102.172 148.356 101.831 152.809 101.47 157.563C101.27 159.951 101.089 162.398 100.889 164.906C100.668 167.393 100.467 169.941 100.247 172.489C100.046 175.016 99.8053 177.544 99.5846 180.052ZM106.465 135.416L112.283 126.028C114.39 124.884 129.134 117.362 152.826 117.362C175.274 117.362 179.928 123.239 180.57 124.283V199.31C178.183 197.485 171.824 194.195 157.26 194.195C139.967 194.195 113.146 201.356 105.803 203.423L111.3 130.341L103.878 203.984C103.737 204.225 101.952 206.853 100.527 208.859L106.465 135.416ZM171.904 205.248C160.108 205.99 117.158 208.678 103.115 209.561C104.299 209.08 105.503 208.759 105.503 208.759C105.503 208.759 104.179 208.638 102.794 208.699C102.574 208.719 102.353 208.719 102.152 208.739C102.814 207.796 103.657 206.592 104.68 205.068C106.506 204.546 113.908 202.46 123.196 200.353C121.551 200.835 119.966 201.316 118.522 201.737C115.413 202.74 112.825 203.623 110.999 204.225C109.535 204.747 108.592 205.068 108.271 205.188C108.592 205.108 109.555 204.867 111.059 204.466C112.905 203.964 115.533 203.242 118.703 202.44C121.852 201.577 125.543 200.634 129.535 199.751C133.507 198.829 137.78 198.006 142.094 197.444C144.24 197.144 146.407 196.903 148.513 196.722C150.639 196.562 152.746 196.461 154.772 196.461C158.844 196.401 162.636 196.662 165.866 197.103C169.095 197.525 171.764 198.106 173.589 198.608C174.512 198.829 175.234 199.049 175.716 199.19C176.217 199.33 176.478 199.41 176.478 199.41C176.478 199.41 176.217 199.31 175.756 199.13C175.274 198.949 174.572 198.648 173.669 198.367C171.844 197.745 169.216 197.003 165.966 196.401C163.579 195.98 160.85 195.659 157.942 195.478C174.091 195.599 179.467 199.912 180.57 200.995V201.136C178.624 201.537 176.819 202.801 175.595 203.884L167.591 204.887L171.904 205.248ZM189.999 208.478C189.818 208.678 189.598 208.899 189.297 209.14C189.016 209.381 188.675 209.641 188.294 209.862C187.892 210.103 187.451 210.323 186.95 210.524C186.468 210.725 185.947 210.885 185.385 211.026C185.104 211.106 184.823 211.146 184.522 211.186C184.221 211.246 183.94 211.286 183.64 211.306C183.018 211.387 182.436 211.387 181.834 211.427C181.212 211.387 180.61 211.387 180.009 211.306C179.708 211.286 179.407 211.246 179.126 211.186C178.825 211.126 178.544 211.106 178.263 211.006C177.702 210.885 177.18 210.705 176.678 210.504C176.197 210.303 175.756 210.083 175.354 209.842C174.953 209.621 174.612 209.361 174.331 209.12C174.05 208.879 173.81 208.658 173.649 208.458C173.328 208.117 173.188 207.856 173.168 207.796C173.208 207.856 173.388 208.077 173.729 208.378C174.131 208.719 174.733 209.16 175.535 209.541C175.936 209.742 176.378 209.902 176.859 210.063C177.34 210.223 177.862 210.364 178.404 210.464C178.945 210.584 179.507 210.665 180.089 210.705C180.671 210.765 181.272 210.765 181.834 210.785C182.436 210.765 183.058 210.765 183.619 210.705C184.201 210.665 184.763 210.584 185.285 210.464C185.826 210.344 186.348 210.223 186.829 210.063C187.311 209.902 187.752 209.722 188.153 209.541C188.936 209.14 189.558 208.719 189.939 208.378C190.24 208.117 190.42 207.916 190.48 207.836C190.4 207.956 190.26 208.177 189.999 208.478ZM257.584 209.361C241.054 208.317 201.875 205.87 191.363 205.208L198.404 204.105L188.053 203.864C186.809 202.801 185.024 201.517 183.058 201.116V200.975C184.061 199.992 188.394 196.522 200.531 195.639C198.886 195.88 197.321 196.181 195.917 196.502C193.028 197.224 190.701 198.086 189.116 198.748C188.314 199.069 187.712 199.37 187.291 199.571C186.869 199.771 186.649 199.872 186.649 199.872C186.649 199.872 186.889 199.792 187.331 199.631C187.752 199.491 188.394 199.23 189.216 198.989C190.841 198.447 193.209 197.725 196.077 197.204C198.946 196.662 202.356 196.241 206.007 196.241C209.658 196.161 213.57 196.441 217.442 196.923C221.334 197.344 225.186 198.046 228.776 198.829C232.387 199.551 235.718 200.373 238.566 201.116C241.435 201.818 243.822 202.44 245.487 202.881C246.932 203.242 247.854 203.483 248.055 203.523C247.854 203.443 246.972 203.142 245.547 202.64C243.922 202.099 241.575 201.316 238.767 200.433C236.841 199.852 234.694 199.23 232.387 198.608C245.206 201.136 256.681 204.365 259.008 205.027C260.112 206.652 260.954 207.896 261.656 208.879L250.703 207.234L257.584 209.361ZM260.071 204.385L252.609 130.321L258.105 203.463C251.144 201.517 223.882 194.175 206.409 194.175C191.824 194.175 185.485 197.464 183.078 199.29V124.262C183.68 123.259 188.173 117.341 210.822 117.341C234.474 117.341 249.259 124.864 251.365 126.008L257.183 135.396L263.161 208.819C262.017 207.254 260.673 205.248 260.071 204.385ZM267.173 209.521C266.952 207.314 266.631 204.145 266.27 200.333C265.909 196.522 265.488 192.088 265.026 187.334C264.605 182.579 264.144 177.504 263.682 172.429C263.261 167.353 262.82 162.298 262.419 157.523C262.037 152.769 261.696 148.335 261.375 144.524C261.074 140.712 260.854 137.543 260.673 135.316C260.553 133.511 260.473 132.347 260.453 131.966C260.493 132.327 260.613 133.511 260.794 135.316C261.014 137.523 261.335 140.692 261.716 144.504C262.077 148.295 262.499 152.749 262.96 157.503C263.381 162.258 263.843 167.333 264.304 172.408C264.726 177.484 265.167 182.559 265.568 187.314C265.949 192.068 266.31 196.502 266.611 200.313C266.892 204.125 267.133 207.294 267.293 209.521C267.414 211.186 267.494 212.31 267.514 212.771C267.474 212.31 267.353 211.186 267.173 209.521Z" fill="white"/>
<path d="M212.089 201.143C224.928 202.065 248.801 205.295 248.801 205.295C213.413 196.529 201.597 197.451 189.701 200.501C189.701 200.501 199.23 200.22 212.089 201.143Z" fill="white"/>
<path d="M172.644 200.533C161.991 197.725 147.889 196.902 116.192 205.167C116.192 205.167 141.088 202.078 152.583 201.195C164.098 200.313 172.644 200.533 172.644 200.533Z" fill="white"/>
<path d="M241.773 206.206C239.566 205.825 236.998 205.404 234.23 204.982C231.461 204.601 228.493 204.24 225.523 203.919C222.554 203.658 219.565 203.418 216.777 203.237C213.989 203.097 211.361 202.996 209.134 202.936C206.887 202.916 205.021 202.916 203.717 202.916C202.413 202.936 201.671 202.956 201.671 202.956C201.671 202.956 202.413 203.036 203.717 203.157C205.021 203.257 206.867 203.418 209.094 203.638C211.32 203.819 213.908 204.059 216.697 204.32C219.485 204.561 222.434 204.842 225.403 205.183C228.372 205.464 231.321 205.765 234.089 206.086C236.858 206.366 239.466 206.647 241.672 206.928C243.899 207.149 245.745 207.37 247.049 207.53C248.353 207.67 249.095 207.751 249.095 207.751C249.095 207.751 248.373 207.59 247.089 207.289C245.805 206.988 243.979 206.627 241.773 206.206Z" fill="white"/>
<path d="M167.945 202.279C166.601 202.299 165.016 202.339 163.331 202.359C161.646 202.44 159.84 202.52 158.035 202.6C156.229 202.74 154.444 202.881 152.759 203.001C151.074 203.182 149.509 203.342 148.165 203.463C146.821 203.643 145.697 203.784 144.915 203.884C144.133 204.004 143.691 204.085 143.691 204.085C143.691 204.085 144.153 204.105 144.935 204.125C145.718 204.125 146.861 204.145 148.205 204.165C149.549 204.145 151.134 204.105 152.819 204.085C154.504 204.004 156.31 203.924 158.115 203.844C159.921 203.703 161.706 203.563 163.391 203.443C165.076 203.262 166.641 203.102 167.985 202.981C169.329 202.801 170.453 202.66 171.235 202.56C172.017 202.44 172.459 202.359 172.459 202.359C172.459 202.359 171.997 202.339 171.215 202.319C170.433 202.319 169.289 202.299 167.945 202.279Z" fill="white"/>
<path d="M114.99 207.652C116.194 207.592 117.598 207.512 119.083 207.432C120.587 207.311 122.172 207.171 123.777 207.05C125.362 206.87 126.947 206.669 128.451 206.509C129.936 206.288 131.32 206.087 132.504 205.907C133.687 205.686 134.67 205.506 135.372 205.385C136.054 205.245 136.456 205.145 136.456 205.145C136.456 205.145 136.054 205.145 135.352 205.125C134.65 205.145 133.647 205.165 132.443 205.185C131.24 205.245 129.835 205.325 128.351 205.405C126.846 205.526 125.262 205.666 123.657 205.787C122.072 205.967 120.487 206.168 118.983 206.348C117.498 206.569 116.114 206.769 114.93 206.95C113.747 207.171 112.764 207.351 112.062 207.472C111.379 207.612 110.978 207.712 110.978 207.712C110.978 207.712 111.379 207.712 112.082 207.732C112.784 207.692 113.787 207.672 114.99 207.652Z" fill="white"/>
<path d="M254.458 137.979C254.578 139.825 254.718 142.453 254.939 145.602C255.16 148.752 255.441 152.443 255.762 156.375C255.922 158.341 256.103 160.387 256.283 162.453C256.464 164.52 256.664 166.626 256.845 168.712C257.045 170.819 257.246 172.905 257.447 174.971C257.667 177.038 257.868 179.064 258.069 181.03C258.49 184.962 258.891 188.633 259.272 191.762C259.633 194.912 259.994 197.52 260.215 199.345C260.456 201.171 260.616 202.214 260.616 202.214C260.616 202.214 260.576 201.151 260.476 199.325C260.355 197.48 260.235 194.852 259.994 191.702C259.774 188.552 259.493 184.861 259.172 180.929C259.011 178.963 258.831 176.917 258.65 174.851C258.47 172.785 258.269 170.678 258.089 168.592C257.888 166.486 257.687 164.399 257.487 162.333C257.266 160.267 257.065 158.241 256.865 156.275C256.444 152.343 256.042 148.672 255.661 145.542C255.3 142.392 254.939 139.785 254.718 137.959C254.478 136.133 254.317 135.09 254.317 135.09C254.317 135.09 254.357 136.154 254.458 137.979Z" fill="white"/>
<path d="M257.2 152.579C257.381 155.026 257.582 157.875 257.822 160.904C258.063 163.953 258.364 167.203 258.665 170.453C258.986 173.703 259.287 176.952 259.608 179.982C259.929 183.031 260.27 185.859 260.531 188.287C260.791 190.714 261.092 192.74 261.253 194.165C261.453 195.589 261.554 196.391 261.554 196.391C261.554 196.391 261.514 195.569 261.433 194.145C261.333 192.72 261.233 190.674 261.052 188.247C260.872 185.799 260.671 182.951 260.43 179.921C260.19 176.872 259.889 173.622 259.588 170.373C259.267 167.123 258.966 163.873 258.645 160.844C258.324 157.794 257.983 154.966 257.722 152.538C257.441 150.111 257.16 148.085 257 146.661C256.799 145.236 256.699 144.434 256.699 144.434C256.699 144.434 256.739 145.256 256.819 146.681C256.9 148.105 257 150.151 257.2 152.579Z" fill="white"/>
<path d="M108.129 145.541C107.748 148.671 107.347 152.342 106.926 156.274C106.725 158.24 106.524 160.266 106.304 162.332C106.103 164.398 105.903 166.485 105.702 168.591C105.521 170.697 105.321 172.784 105.14 174.85C104.96 176.916 104.799 178.942 104.619 180.928C104.298 184.86 104.017 188.552 103.796 191.701C103.576 194.851 103.435 197.479 103.315 199.324C103.214 201.17 103.174 202.213 103.174 202.213C103.174 202.213 103.335 201.17 103.576 199.344C103.796 197.519 104.157 194.911 104.518 191.761C104.9 188.632 105.301 184.961 105.722 181.029C105.923 179.063 106.123 177.037 106.344 174.97C106.545 172.904 106.745 170.818 106.946 168.711C107.126 166.605 107.327 164.519 107.507 162.452C107.688 160.386 107.848 158.36 108.029 156.374C108.35 152.442 108.631 148.751 108.852 145.601C109.072 142.452 109.213 139.824 109.333 137.978C109.433 136.133 109.473 135.089 109.473 135.089C109.473 135.089 109.313 136.133 109.072 137.958C108.852 139.804 108.49 142.412 108.129 145.541Z" fill="white"/>
<path d="M104.154 180.01C104.475 176.961 104.796 173.731 105.097 170.481C105.398 167.231 105.699 163.981 105.939 160.932C106.2 157.883 106.381 155.034 106.561 152.607C106.742 150.159 106.842 148.133 106.942 146.709C107.023 145.285 107.063 144.462 107.063 144.462C107.063 144.462 106.962 145.265 106.762 146.689C106.581 148.113 106.3 150.119 106.04 152.567C105.779 154.994 105.418 157.823 105.117 160.872C104.796 163.921 104.475 167.151 104.174 170.401C103.873 173.651 103.572 176.901 103.331 179.95C103.071 182.999 102.89 185.848 102.71 188.275C102.529 190.722 102.429 192.749 102.328 194.173C102.248 195.597 102.208 196.42 102.208 196.42C102.208 196.42 102.308 195.617 102.509 194.193C102.689 192.769 102.97 190.763 103.231 188.315C103.492 185.868 103.853 183.039 104.154 180.01Z" fill="white"/>
<path d="M177.558 171.829C177.578 173.795 177.639 175.68 177.679 177.486C177.719 179.291 177.779 180.976 177.839 182.561C178.06 188.84 178.381 193.033 178.381 193.033C178.381 193.033 178.702 188.84 178.922 182.561C178.983 180.996 179.043 179.291 179.083 177.486C179.123 175.68 179.183 173.795 179.203 171.829C179.223 169.863 179.284 167.837 179.284 165.77C179.304 163.704 179.304 161.618 179.324 159.531C179.304 157.445 179.304 155.339 179.284 153.292C179.284 151.226 179.223 149.2 179.203 147.234C179.143 143.302 179.043 139.651 178.922 136.502C178.702 130.222 178.381 126.03 178.381 126.03C178.381 126.03 178.06 130.222 177.839 136.502C177.719 139.631 177.619 143.302 177.558 147.234C177.538 149.2 177.478 151.226 177.478 153.292C177.458 155.359 177.458 157.445 177.438 159.531C177.458 161.618 177.458 163.724 177.478 165.77C177.478 167.837 177.538 169.863 177.558 171.829Z" fill="white"/>
<path d="M175.395 169.017C175.435 172.046 175.515 174.895 175.595 177.322C175.676 179.75 175.776 181.776 175.836 183.2C175.896 184.624 175.956 185.427 175.956 185.427C175.956 185.427 176.017 184.624 176.077 183.2C176.137 181.776 176.237 179.75 176.317 177.322C176.398 174.895 176.458 172.066 176.518 169.017C176.538 167.492 176.558 165.928 176.578 164.343C176.578 162.758 176.598 161.133 176.598 159.508C176.598 157.883 176.578 156.278 176.578 154.674C176.578 153.089 176.538 151.504 176.518 149.999C176.478 146.97 176.398 144.122 176.317 141.694C176.237 139.267 176.137 137.241 176.077 135.816C176.017 134.392 175.956 133.59 175.956 133.59C175.956 133.59 175.896 134.392 175.836 135.816C175.776 137.241 175.676 139.267 175.595 141.694C175.515 144.122 175.455 146.95 175.395 149.999C175.375 151.524 175.335 153.089 175.335 154.674C175.335 156.258 175.314 157.883 175.314 159.508C175.314 161.133 175.335 162.738 175.335 164.343C175.355 165.928 175.375 167.492 175.395 169.017Z" fill="white"/>
<path d="M115.37 133.59C115.37 133.59 115.29 134.392 115.17 135.816C115.049 137.241 114.869 139.247 114.688 141.674C114.508 144.101 114.267 146.93 114.066 149.959C113.866 152.988 113.645 156.238 113.424 159.468C113.244 162.718 113.043 165.948 112.863 168.977C112.682 172.006 112.562 174.855 112.441 177.282C112.341 179.709 112.241 181.736 112.181 183.16C112.14 184.584 112.1 185.387 112.1 185.387C112.1 185.387 112.181 184.584 112.301 183.16C112.421 181.736 112.582 179.73 112.782 177.302C112.963 174.875 113.204 172.046 113.404 169.017C113.605 165.988 113.826 162.738 114.046 159.508C114.227 156.258 114.427 153.029 114.608 149.999C114.788 146.97 114.909 144.122 115.029 141.694C115.15 139.267 115.21 137.241 115.29 135.816C115.33 134.392 115.37 133.59 115.37 133.59Z" fill="white"/>
<path d="M184.699 171.809C184.74 175.741 184.82 179.392 184.9 182.541C184.98 185.671 185.081 188.299 185.141 190.124C185.201 191.95 185.261 192.993 185.261 192.993C185.261 192.993 185.321 191.95 185.381 190.124C185.442 188.299 185.542 185.671 185.622 182.541C185.702 179.412 185.763 175.741 185.823 171.809C185.843 169.843 185.863 167.817 185.883 165.75C185.883 163.684 185.903 161.598 185.903 159.511C185.903 157.425 185.883 155.319 185.883 153.272C185.863 151.206 185.843 149.18 185.823 147.214C185.783 143.282 185.702 139.631 185.622 136.481C185.542 133.352 185.442 130.724 185.381 128.898C185.321 127.073 185.261 126.03 185.261 126.03C185.261 126.03 185.201 127.073 185.141 128.898C185.081 130.724 184.98 133.352 184.9 136.481C184.82 139.611 184.76 143.282 184.699 147.214C184.679 149.18 184.659 151.206 184.639 153.272C184.639 155.339 184.619 157.425 184.619 159.511C184.619 161.598 184.639 163.704 184.639 165.75C184.659 167.817 184.679 169.843 184.699 171.809Z" fill="white"/>
<path d="M187.347 178.256C187.387 180.804 187.427 182.95 187.467 184.435C187.507 185.919 187.527 186.782 187.527 186.782C187.527 186.782 187.547 185.939 187.587 184.435C187.608 182.95 187.648 180.804 187.708 178.256C187.728 175.708 187.788 172.719 187.808 169.51C187.828 166.32 187.828 162.91 187.848 159.499C187.828 156.089 187.828 152.679 187.808 149.489C187.788 146.299 187.728 143.31 187.708 140.742C187.668 138.195 187.628 136.048 187.587 134.564C187.547 133.079 187.527 132.217 187.527 132.217C187.527 132.217 187.507 133.059 187.467 134.564C187.447 136.048 187.407 138.195 187.347 140.742C187.327 143.29 187.266 146.279 187.246 149.489C187.226 152.679 187.226 156.089 187.206 159.499C187.226 162.91 187.226 166.32 187.246 169.51C187.266 172.719 187.327 175.708 187.347 178.256Z" fill="white"/>
<path d="M118.061 138.627C117.861 141.476 117.6 144.786 117.379 148.337C117.158 151.888 116.918 155.679 116.677 159.471C116.456 163.262 116.256 167.054 116.055 170.624C115.874 174.175 115.714 177.505 115.574 180.354C115.453 183.203 115.353 185.57 115.273 187.235C115.212 188.9 115.172 189.843 115.172 189.843C115.172 189.843 115.253 188.9 115.393 187.235C115.513 185.57 115.694 183.203 115.915 180.374C116.115 177.525 116.336 174.215 116.597 170.665C116.817 167.114 117.058 163.322 117.299 159.531C117.519 155.739 117.72 151.948 117.921 148.377C118.121 144.826 118.262 141.496 118.402 138.647C118.523 135.799 118.623 133.432 118.703 131.767C118.763 130.102 118.803 129.159 118.803 129.159C118.803 129.159 118.723 130.102 118.583 131.767C118.462 133.432 118.282 135.799 118.061 138.627Z" fill="white"/>
<path d="M249.039 177.282C248.919 174.855 248.799 172.006 248.618 168.977C248.438 165.948 248.257 162.698 248.057 159.468C247.836 156.238 247.615 152.988 247.415 149.959C247.214 146.93 246.973 144.101 246.793 141.674C246.612 139.247 246.432 137.221 246.311 135.816C246.191 134.392 246.111 133.59 246.111 133.59C246.111 133.59 246.131 134.392 246.191 135.816C246.251 137.241 246.311 139.267 246.452 141.694C246.572 144.122 246.692 146.97 246.873 149.999C247.053 153.029 247.234 156.278 247.435 159.508C247.655 162.738 247.876 165.988 248.077 169.017C248.277 172.046 248.518 174.875 248.698 177.302C248.899 179.73 249.06 181.756 249.18 183.16C249.3 184.584 249.381 185.387 249.381 185.387C249.381 185.387 249.36 184.584 249.3 183.16C249.24 181.736 249.14 179.709 249.039 177.282Z" fill="white"/>
<path d="M243.081 138.646C243.222 141.495 243.362 144.805 243.563 148.376C243.763 151.927 243.984 155.718 244.185 159.53C244.425 163.321 244.666 167.113 244.887 170.664C245.128 174.214 245.368 177.524 245.569 180.373C245.79 183.222 245.97 185.589 246.091 187.234C246.231 188.899 246.311 189.842 246.311 189.842C246.311 189.842 246.271 188.899 246.211 187.234C246.131 185.569 246.03 183.202 245.91 180.353C245.77 177.504 245.609 174.194 245.429 170.623C245.228 167.073 245.007 163.281 244.807 159.47C244.566 155.678 244.325 151.887 244.104 148.336C243.884 144.785 243.623 141.475 243.422 138.626C243.202 135.778 243.021 133.411 242.901 131.766C242.76 130.101 242.68 129.158 242.68 129.158C242.68 129.158 242.72 130.101 242.78 131.766C242.841 133.431 242.961 135.798 243.081 138.646Z" fill="white"/>
</svg>
