<svg width="41" height="30" viewBox="0 0 41 30" fill="none" xmlns="http://www.w3.org/2000/svg">
<path d="M30.955 17.9735C31.4004 17.9735 31.8277 17.9056 32.2531 17.8437C32.1153 18.307 31.9735 18.7783 31.7459 19.2017C31.5182 19.8168 31.1627 20.35 30.8092 20.8872C30.5137 21.4684 29.9924 21.8618 29.609 22.359C29.2076 22.8423 28.6604 23.1639 28.227 23.5653C27.8017 23.9846 27.2445 24.1943 26.8012 24.4899C26.3378 24.7555 25.9344 25.0491 25.5031 25.1889L24.4267 25.6322L23.48 26.0256L24.4486 29.8959L25.6409 29.6084C26.0223 29.5125 26.4876 29.4007 27.0168 29.2669C27.558 29.167 28.1352 28.8934 28.7782 28.6438C29.4133 28.3602 30.1482 28.1685 30.8312 27.7132C31.5182 27.2778 32.311 26.9143 33.01 26.3312C33.687 25.7301 34.5038 25.2088 35.1069 24.444C35.7659 23.729 36.417 22.9781 36.9222 22.1234C37.5074 21.3086 37.9048 20.4139 38.3242 19.5292C38.7036 18.6445 39.0092 17.7399 39.2588 16.8611C39.7321 15.0997 39.9438 13.4262 40.0257 11.9943C40.0936 10.5604 40.0536 9.36819 39.9697 8.50546C39.9398 8.09806 39.8839 7.70265 39.8439 7.42905L39.794 7.09355L39.7421 7.10553C39.3869 5.44631 38.5692 3.92156 37.3836 2.70765C36.1981 1.49374 34.693 0.640272 33.0427 0.245987C31.3923 -0.148298 29.664 -0.0672951 28.0578 0.479626C26.4515 1.02655 25.0329 2.01704 23.9661 3.33652C22.8993 4.656 22.2278 6.25055 22.0294 7.93571C21.8309 9.62087 22.1136 11.3278 22.8447 12.859C23.5758 14.3902 24.7255 15.6832 26.1608 16.5883C27.596 17.4934 29.2582 17.9736 30.955 17.9735ZM8.98742 17.9735C9.43276 17.9735 9.86013 17.9056 10.2855 17.8437C10.1477 18.307 10.0059 18.7783 9.77825 19.2017C9.55058 19.8168 9.19511 20.35 8.84163 20.8872C8.54606 21.4684 8.02483 21.8618 7.6414 22.359C7.23999 22.8423 6.6928 23.1639 6.25944 23.5653C5.83406 23.9846 5.27689 24.1943 4.83354 24.4899C4.37022 24.7555 3.96682 25.0491 3.53545 25.1889L2.45904 25.6322L1.51244 26.0256L2.48101 29.8959L3.67325 29.6084C4.05469 29.5125 4.52 29.4007 5.04922 29.2669C5.59042 29.167 6.16757 28.8934 6.81062 28.6438C7.44369 28.3582 8.1806 28.1685 8.8636 27.7112C9.55058 27.2758 10.3434 26.9123 11.0424 26.3292C11.7194 25.7281 12.5362 25.2068 13.1393 24.444C13.7983 23.729 14.4494 22.9781 14.9546 22.1234C15.5398 21.3086 15.9372 20.4139 16.3566 19.5292C16.736 18.6445 17.0415 17.7399 17.2912 16.8611C17.7645 15.0997 17.9762 13.4262 18.058 11.9943C18.1259 10.5604 18.086 9.36819 18.0021 8.50546C17.9722 8.09806 17.9163 7.70265 17.8763 7.42905L17.8264 7.09355L17.7745 7.10553C17.4193 5.44631 16.6016 3.92156 15.416 2.70765C14.2304 1.49374 12.7254 0.640272 11.0751 0.245987C9.42469 -0.148298 7.69643 -0.0672951 6.09018 0.479626C4.48393 1.02655 3.06534 2.01704 1.9985 3.33652C0.931671 4.656 0.260185 6.25055 0.0617371 7.93571C-0.136711 9.62087 0.145977 11.3278 0.877106 12.859C1.60823 14.3902 2.75792 15.6832 4.19318 16.5883C5.62844 17.4934 7.29061 17.9736 8.98742 17.9735Z" fill="#FB4749"/>
</svg>
