<svg width="110" height="110" viewBox="0 0 110 110" fill="none" xmlns="http://www.w3.org/2000/svg">
<rect width="110" height="110" rx="12" fill="url(#paint0_linear_416_18273)"/>
<path d="M68.1713 31C71.7473 31 75.1873 32.4133 77.718 34.9493C80.2513 37.48 81.6673 40.8933 81.6673 44.4667V65.5333C81.6673 72.9733 75.614 79 68.1713 79H41.8273C34.3847 79 28.334 72.9733 28.334 65.5333V44.4667C28.334 37.0267 34.358 31 41.8273 31H68.1713ZM71.1873 44.8667C70.6273 44.8373 70.094 45.0267 69.6913 45.4L57.6673 55C56.1207 56.2827 53.9047 56.2827 52.334 55L40.334 45.4C39.5047 44.7867 38.358 44.8667 37.6673 45.5867C36.9473 46.3067 36.8673 47.4533 37.478 48.2533L37.8273 48.6L49.9607 58.0667C51.454 59.24 53.2647 59.88 55.1607 59.88C57.0513 59.88 58.894 59.24 60.3847 58.0667L72.414 48.44L72.6273 48.2267C73.2647 47.4533 73.2647 46.3333 72.598 45.56C72.2273 45.1627 71.718 44.92 71.1873 44.8667Z" fill="white"/>
<defs>
<linearGradient id="paint0_linear_416_18273" x1="55" y1="0" x2="55" y2="110" gradientUnits="userSpaceOnUse">
<stop stop-color="#5E0303"/>
<stop offset="1" stop-color="#8A0202"/>
</linearGradient>
</defs>
</svg>
