<svg width="724" height="484" viewBox="0 0 724 484" fill="none" xmlns="http://www.w3.org/2000/svg">
<path d="M54.3785 406.56C71.8495 418.042 107.297 423.713 109.674 441.357C110.565 448.038 101.146 453.596 106.138 460.081C139.594 503.524 277.817 470.749 337.807 460.32C362.795 455.968 392.716 451.098 419.962 451.154C451.339 451.224 481.081 458.299 512.22 459.155C521.817 459.421 530.701 458.874 538.961 457.625C569.922 452.937 596.247 436.991 605.22 419.656C612.5 405.606 600.585 392.088 612.678 378.248C625.573 363.482 652.523 352.899 658.138 336.027C664.853 315.772 631.278 298.9 596.752 298.998C574.765 299.055 534.207 301.623 516.142 308.908C494.125 317.779 471.87 318.762 445.366 318.93C394.914 319.253 344.047 314.382 293.981 311.168C251.076 308.417 208.617 303.953 165.385 304.094C133.622 304.192 106.673 304.473 90.9844 322.453C72.2061 343.929 17.7726 382.473 54.3785 406.56Z" fill="white"/>
<path d="M655.335 160.408C637.802 135.994 602.229 123.937 599.843 86.4214C598.949 72.2151 608.401 60.3964 603.391 46.608C569.816 -45.7628 431.102 23.9256 370.899 46.1006C345.822 55.3526 315.795 65.7089 288.452 65.5895C256.964 65.4403 227.116 50.3983 195.866 48.5777C186.235 48.0107 177.319 49.1746 169.03 51.8309C137.959 61.7992 111.541 95.7033 102.535 132.562C95.23 162.437 107.187 191.178 95.0511 220.605C82.11 252.002 55.0649 274.506 49.4292 310.38C42.6903 353.446 76.3849 389.32 111.034 389.111C133.099 388.992 173.801 383.53 191.93 368.04C214.026 349.178 236.359 347.089 262.957 346.731C313.589 346.045 364.637 356.401 414.881 363.235C457.938 369.085 500.549 378.576 543.934 378.277C575.81 378.068 602.855 377.472 618.599 339.24C637.444 293.577 692.071 211.622 655.335 160.408Z" fill="#FFF7F7"/>
<path d="M563.015 331.599L563.014 331.598C559.738 328.776 559.896 323.669 563.366 321.049L563.369 321.046C575.65 311.614 606.645 294.006 659.4 302.404C668.037 303.785 679.016 302.474 689.693 300.223C700.382 297.969 710.824 294.761 718.405 292.311L718.408 292.31C721.132 291.413 723.278 294.757 721.313 296.887L721.312 296.888C680.857 341.001 645.826 353.573 618.685 353.206C591.526 352.838 572.149 339.512 563.015 331.599Z" fill="#FF7070" stroke="url(#paint0_linear_652_943)"/>
<path d="M562.166 328.229C561.676 327.946 561.405 327.342 561.534 326.761C561.711 326.037 562.446 325.599 563.129 325.787C598.364 334.413 630.239 330.312 650.795 325.362C673.047 319.979 687.115 312.49 687.252 312.431C687.901 312.082 688.728 312.318 689.077 312.968C689.425 313.617 689.188 314.445 688.539 314.794C688.387 314.878 674.029 322.511 651.452 327.982C630.611 333.008 598.277 337.188 562.517 328.397C562.388 328.323 562.27 328.289 562.166 328.229Z" fill="url(#paint1_linear_652_943)"/>
<path d="M709.082 186.256L709.084 186.252C709.185 186.019 708.924 185.829 708.738 185.98C708.737 185.981 708.737 185.981 708.736 185.981L708.419 185.595L709.082 186.256ZM709.082 186.256C704.802 196.38 688.767 232.282 663.386 265.823C637.985 299.388 603.33 330.45 561.83 331.157L561.829 331.157M709.082 186.256L561.829 331.157M561.829 331.157C559.666 331.199 558.237 328.941 559.189 326.986L559.19 326.985M561.829 331.157L559.19 326.985M559.19 326.985C566.186 312.549 591.033 268.075 646.554 230.67L559.19 326.985Z" fill="#FF7070" stroke="url(#paint2_linear_652_943)"/>
<path d="M558.069 327.931C557.889 327.827 557.712 327.656 557.602 327.489C557.213 326.851 557.409 326.034 558.047 325.644C622.537 286.164 674.965 225.591 676.957 222.261C677.193 221.673 677.842 221.324 678.489 221.457C679.213 221.634 679.664 222.342 679.502 223.041C678.848 225.903 623.646 288.597 559.42 327.918C558.989 328.187 558.483 328.17 558.069 327.931Z" fill="white"/>
<path d="M35.8562 10.5989L35.8562 10.5989L35.8526 10.5944C34.8451 9.35148 35.7496 7.47664 37.3938 7.49948C45.5562 7.66351 62.0563 8.30466 77.972 10.7617C85.9311 11.9905 93.7276 13.671 100.256 15.9659C106.8 18.2666 111.995 21.1598 114.835 24.7679C121.753 33.5705 123.397 47.2543 123.103 62.7184C122.956 70.4342 122.329 78.5581 121.652 86.6923C121.572 87.6558 121.492 88.6195 121.411 89.5826C120.811 96.7451 120.213 103.878 119.917 110.69C118.483 143.51 123.756 171.677 129.039 191.371C131.681 201.219 134.325 208.949 136.134 214.081C136.37 214.748 136.59 215.37 136.795 215.947C137.379 217.593 137.83 218.866 138.111 219.754C138.117 219.772 138.123 219.79 138.128 219.808C137.483 219.062 136.803 218.024 136.1 216.707C135.078 214.794 134.031 212.344 132.981 209.468C130.88 203.718 128.78 196.305 126.836 188.17C122.95 171.902 119.704 152.795 118.35 138.421L118.35 138.42C116.975 123.985 114.091 115.356 109.444 109.473C104.798 103.59 98.4375 100.52 90.3154 97.0892C74.1842 90.2454 58.011 73.8464 56.5076 53.0445C55.9332 44.9526 52.3212 36.311 48.0966 28.7297C43.8668 21.1391 38.9961 14.5648 35.8562 10.5989Z" fill="#FF7070" stroke="url(#paint3_linear_652_943)"/>
<path d="M57.8595 19.9242C57.8595 19.9242 58.3365 20.0137 59.2311 20.2525C60.1256 20.4912 61.4078 20.8195 63.018 21.3866C64.6282 21.9238 66.5962 22.6102 68.7729 23.5354C70.9496 24.4606 73.4246 25.5649 75.9889 26.9676C78.5533 28.3703 81.2965 30.0118 84.0398 31.9518C86.7831 33.8917 89.586 36.1301 92.21 38.7266C94.834 41.3231 97.3387 44.248 99.5155 47.4713C101.692 50.6945 103.571 54.2163 105.002 57.9171L105.539 59.3198C105.718 59.7675 105.897 60.245 106.016 60.7225C106.314 61.6776 106.612 62.6027 106.881 63.5578C107.387 65.4082 107.865 67.2586 108.342 69.109C108.819 70.9594 109.296 72.78 109.743 74.6005C110.19 76.4211 110.608 78.2118 111.025 79.9726C111.86 83.4944 112.635 86.9266 113.321 90.1797C114.007 93.4328 114.633 96.5367 115.17 99.372C115.438 100.805 115.677 102.177 115.915 103.461C116.124 104.774 116.333 105.998 116.542 107.162C116.929 109.49 117.227 111.519 117.466 113.22C117.705 114.892 117.883 116.235 117.973 117.13C118.062 118.025 118.122 118.533 118.122 118.533C118.152 118.831 117.943 119.13 117.615 119.159C117.317 119.189 117.049 118.98 116.989 118.712C116.989 118.712 116.899 118.234 116.721 117.369C116.542 116.473 116.273 115.19 115.945 113.519C115.289 110.206 114.246 105.49 112.993 99.8495C112.337 97.0441 111.622 93.97 110.876 90.7468C110.071 87.5235 109.236 84.1211 108.401 80.6292C107.507 77.1374 106.553 73.5261 105.598 69.8253C105.091 67.9749 104.614 66.1245 104.107 64.2741C103.839 63.3787 103.571 62.4834 103.302 61.588C103.183 61.1403 103.034 60.6927 102.855 60.245L102.378 58.9318C99.6944 51.8883 95.3409 45.5612 90.3613 40.4875C87.8864 37.9506 85.2922 35.6824 82.6682 33.7126C80.074 31.7428 77.45 30.0417 74.9751 28.6091C72.5002 27.1765 70.1744 25.9529 68.0573 24.9382C65.9402 23.9234 64.0616 23.1474 62.5111 22.5505C60.9605 21.9536 59.7082 21.506 58.8435 21.2075C57.9787 20.9091 57.5315 20.7897 57.5315 20.7897C57.2929 20.73 57.1438 20.4614 57.2333 20.2226C57.4122 20.0137 57.6209 19.8645 57.8595 19.9242Z" fill="white"/>
<path d="M137.142 219.859C137.33 219.947 137.372 219.832 137.294 219.535C137.294 219.534 137.293 219.532 137.293 219.531C137.282 219.487 137.267 219.439 137.25 219.388C137.203 219.387 137.143 219.395 137.077 219.424C136.902 219.502 136.852 219.645 136.837 219.714L137.142 219.859ZM135.619 216.972C136.039 217.832 136.363 218.518 136.574 219.017C130.708 215.879 127.219 209.055 125.116 201.973C123.001 194.853 122.328 187.615 121.989 183.97C121.977 183.846 121.966 183.726 121.955 183.61L121.955 183.608C121.871 182.744 121.81 181.85 121.746 180.92C121.557 178.137 121.345 175.029 120.413 171.429C119.164 166.603 116.627 160.881 111.15 153.688C108.306 149.952 104.084 148.46 99.0209 148.33C93.9712 148.199 88.0189 149.419 81.6079 151.169C77.8301 152.2 73.8605 153.425 69.8059 154.677C66.9886 155.546 64.1302 156.428 61.2667 157.267C54.2593 159.319 47.1765 161.124 40.4135 161.91C29.907 163.129 21.254 159.213 14.5928 153.963C7.92661 148.71 3.28176 142.14 0.822542 138.121C0.0668519 136.876 0.707141 135.257 2.10118 134.896C5.66745 133.977 10.3659 131.432 16.4462 127.147C22.5381 122.853 30.0595 116.782 39.2785 108.764L39.2786 108.764C50.2946 99.1796 60.309 94.6613 69.7215 94.8261C79.1248 94.9908 88.0478 99.8323 96.8805 109.237C105.693 118.619 111.642 131.49 115.638 144.464C119.632 157.432 121.663 170.462 122.66 180.126C123.667 189.881 127.684 200.119 131.182 207.774C132.521 210.706 133.79 213.269 134.786 215.283C135.091 215.899 135.37 216.464 135.619 216.972Z" fill="#FF7070" stroke="url(#paint4_linear_652_943)"/>
<path d="M47.9852 131.757C47.9852 131.757 48.2535 131.488 48.7604 130.951C49.2674 130.414 50.0426 129.668 51.0564 128.772C53.0841 126.952 56.0659 124.445 60.0615 121.938C62.0594 120.684 64.2957 119.461 66.8004 118.356C69.3052 117.282 72.0485 116.357 75.0601 115.849C75.8055 115.7 76.5808 115.64 77.3263 115.551C77.7139 115.521 78.1015 115.521 78.4892 115.491C78.8768 115.461 79.2644 115.461 79.6521 115.461C80.0397 115.461 80.4274 115.491 80.8448 115.491L82.0375 115.611C82.4252 115.64 82.8426 115.7 83.2303 115.79C83.6477 115.879 84.0055 115.909 84.4528 116.028C87.3452 116.685 90.5357 117.73 93.3983 119.013C96.2906 120.386 99.0041 122.147 101.419 124.146C101.986 124.684 102.582 125.221 103.149 125.728C103.417 125.997 103.715 126.236 103.984 126.534L104.759 127.399C105.266 127.967 105.803 128.504 106.28 129.101C106.727 129.698 107.204 130.294 107.651 130.891C107.89 131.19 108.099 131.488 108.337 131.787C108.546 132.085 108.725 132.413 108.934 132.712C109.321 133.309 109.709 133.936 110.126 134.532C110.872 135.756 111.498 136.98 112.154 138.144C112.72 139.367 113.287 140.561 113.824 141.695C114.331 142.859 114.748 143.993 115.195 145.098C115.434 145.635 115.613 146.172 115.792 146.709C115.971 147.247 116.15 147.754 116.299 148.261C116.627 149.276 116.984 150.231 117.223 151.126C117.462 152.052 117.7 152.887 117.939 153.693C118.147 154.469 118.356 155.215 118.505 155.872C119.102 158.528 119.43 160.02 119.43 160.02C119.489 160.289 119.31 160.557 119.042 160.617C118.774 160.677 118.535 160.528 118.446 160.289V160.259C118.446 160.259 117.998 158.797 117.223 156.23C116.865 154.947 116.269 153.424 115.672 151.634C115.404 150.738 115.016 149.843 114.629 148.858C114.241 147.903 113.883 146.859 113.376 145.814C112.899 144.769 112.452 143.695 111.915 142.561C111.349 141.486 110.752 140.352 110.156 139.188C109.47 138.084 108.844 136.92 108.099 135.786C107.711 135.219 107.323 134.652 106.936 134.085C106.727 133.786 106.548 133.518 106.339 133.219C106.131 132.951 105.892 132.682 105.683 132.413C105.236 131.876 104.789 131.309 104.342 130.772C103.864 130.235 103.358 129.727 102.88 129.22L102.135 128.444C101.896 128.175 101.598 127.967 101.33 127.728C100.793 127.25 100.256 126.773 99.6899 126.295C97.3939 124.505 94.8594 122.923 92.2055 121.639C89.4623 120.446 86.7786 119.55 83.7372 118.894C82.4252 118.625 80.9939 118.386 79.5924 118.416C79.2346 118.386 78.9066 118.386 78.5488 118.416C78.191 118.416 77.863 118.446 77.5052 118.446C76.8194 118.535 76.1335 118.565 75.4477 118.685C72.7343 119.073 70.1401 119.849 67.7546 120.804C65.3692 121.729 63.1626 122.833 61.1946 123.937C59.1968 125.042 57.4375 126.146 55.887 127.191C54.3364 128.205 53.0245 129.19 51.9808 129.966C50.9074 130.772 50.1023 131.429 49.5357 131.876C48.999 132.324 48.7008 132.563 48.7008 132.563H48.671C48.4623 132.742 48.1343 132.712 47.9255 132.503C47.7764 132.264 47.8063 131.966 47.9852 131.757Z" fill="url(#paint5_linear_652_943)"/>
<path d="M500.034 45.7293L496.551 101.284H517.337V47.2868C517.337 45.7292 516.337 44.3571 514.892 43.8379C512.15 42.9107 507.444 41.724 502.85 42.5399C501.293 42.8365 500.145 44.1346 500.034 45.7293Z" fill="url(#paint6_linear_652_943)"/>
<path d="M473.985 45.467L476.282 101.207H495.994L497.476 44.8366C497.513 43.279 496.513 41.8697 495.031 41.4247C488.621 39.4962 482.248 39.3108 475.986 42.2035C474.726 42.7969 473.911 44.0578 473.985 45.467Z" fill="#FF7070"/>
<path d="M479.279 83.3723L479.427 85.3008C479.464 85.8941 479.983 86.3392 480.575 86.3021L490.913 85.7087C491.469 85.6716 491.876 85.2637 491.913 84.7074L492.025 83.3723C492.062 82.7419 491.58 82.2227 490.95 82.2227H480.39C479.723 82.2227 479.204 82.7419 479.279 83.3723Z" fill="white"/>
<path d="M479.689 88.0074V88.712C479.689 89.2683 480.134 89.7133 480.69 89.6762L490.583 89.2683C491.102 89.2312 491.509 88.8233 491.509 88.3041V87.5624C491.509 87.0061 491.064 86.561 490.509 86.5981L480.616 87.0431C480.097 87.0802 479.689 87.5253 479.689 88.0074Z" fill="white"/>
<path d="M493.212 45.6906C492.805 45.2456 492.286 45.0231 491.73 45.0601L479.688 45.6164C478.614 45.6535 477.762 46.6548 477.762 47.8787L478.392 75.5817C478.429 76.7314 479.244 77.6585 480.281 77.7327L490.915 78.4002C491.471 78.4373 491.99 78.2148 492.36 77.8069C492.768 77.3989 492.99 76.8426 492.99 76.2493L493.805 47.3224C493.842 46.729 493.62 46.1356 493.212 45.6906Z" fill="white"/>
<path d="M502.701 85.4822L502.812 87.4107C502.85 88.0041 503.294 88.4491 503.776 88.412L512.594 87.8186C513.039 87.7815 513.409 87.3736 513.447 86.8173L513.521 85.4822C513.558 84.8518 513.15 84.3326 512.594 84.3326H503.591C503.109 84.2955 502.664 84.8518 502.701 85.4822Z" fill="#FF7070"/>
<path d="M503.068 90.1204V90.825C503.068 91.3813 503.439 91.8263 503.92 91.7893L512.368 91.3813C512.813 91.3442 513.147 90.9363 513.147 90.4171V89.6754C513.147 89.1191 512.739 88.6741 512.294 88.7111L503.846 89.1562C503.402 89.1933 503.068 89.6012 503.068 90.1204Z" fill="#FF7070"/>
<path d="M512.483 47.0979L505.628 46.3192C504.887 46.245 504.146 46.4675 503.59 46.9496C503.034 47.4317 502.701 48.1364 502.664 48.8781L501.849 75.5427C501.812 76.2844 502.108 76.9891 502.627 77.5083C503.146 78.0275 503.85 78.3242 504.591 78.2871L511.112 78.1016C512.52 78.0646 513.668 76.952 513.706 75.5427L514.854 49.8423C514.928 48.4701 513.891 47.2463 512.483 47.0979Z" fill="#FF7070"/>
<path d="M545.272 45.7293L541.789 101.284H562.575V47.2868C562.575 45.7292 561.575 44.3571 560.13 43.8379C557.388 42.9107 552.682 41.724 548.088 42.5399C546.532 42.8365 545.346 44.1346 545.272 45.7293Z" fill="url(#paint7_linear_652_943)"/>
<path d="M519.223 45.467L521.521 101.207H541.232L542.715 44.8366C542.752 43.279 541.751 41.8697 540.269 41.4247C533.859 39.4962 527.486 39.3108 521.224 42.2035C519.965 42.7969 519.149 44.0578 519.223 45.467Z" fill="#FF7070"/>
<path d="M524.482 83.3723L524.631 85.3008C524.668 85.8941 525.186 86.3392 525.779 86.3021L536.117 85.7087C536.673 85.6716 537.08 85.2637 537.117 84.7074L537.228 83.3723C537.266 82.7419 536.784 82.2227 536.154 82.2227H525.594C524.927 82.2227 524.445 82.7419 524.482 83.3723Z" fill="white"/>
<path d="M524.928 88.0074V88.712C524.928 89.2683 525.372 89.7133 525.928 89.6762L535.821 89.2683C536.34 89.2312 536.747 88.8233 536.747 88.3041V87.5624C536.747 87.0061 536.303 86.561 535.747 86.5981L525.854 87.0431C525.335 87.0802 524.928 87.5253 524.928 88.0074Z" fill="white"/>
<path d="M538.451 45.6906C538.043 45.2456 537.525 45.0231 536.969 45.0601L524.927 45.6164C523.852 45.6535 523 46.6548 523 47.8787L523.63 75.5817C523.667 76.7314 524.482 77.6585 525.52 77.7327L536.154 78.4002C536.709 78.4373 537.228 78.2148 537.599 77.8069C538.006 77.3989 538.228 76.8426 538.228 76.2493L539.044 47.3224C539.081 46.729 538.858 46.1356 538.451 45.6906Z" fill="white"/>
<path d="M547.94 85.4822L548.051 87.4107C548.088 88.0041 548.533 88.4491 549.014 88.412L557.833 87.8186C558.277 87.7815 558.648 87.3736 558.685 86.8173L558.759 85.4822C558.796 84.8518 558.389 84.3326 557.833 84.3326H548.829C548.31 84.2955 547.903 84.8518 547.94 85.4822Z" fill="#FF7070"/>
<path d="M548.307 90.1204V90.825C548.307 91.3813 548.677 91.8263 549.159 91.7893L557.607 91.3813C558.051 91.3442 558.385 90.9363 558.385 90.4171V89.6754C558.385 89.1191 557.977 88.6741 557.533 88.7111L549.085 89.1562C548.64 89.1933 548.307 89.6012 548.307 90.1204Z" fill="#FF7070"/>
<path d="M557.721 47.0979L550.866 46.3192C550.125 46.245 549.384 46.4675 548.829 46.9496C548.273 47.4317 547.939 48.1364 547.902 48.8781L547.087 75.5427C547.05 76.2844 547.346 76.9891 547.865 77.5083C548.384 78.0275 549.088 78.3242 549.829 78.2871L556.35 78.1016C557.758 78.0646 558.907 76.952 558.944 75.5427L560.092 49.8423C560.167 48.4701 559.129 47.2463 557.721 47.0979Z" fill="#FF7070"/>
<path d="M580.103 101.208C580.103 99.5765 578.769 98.2415 577.139 98.2415H461.165C459.535 98.2415 458.201 99.5765 458.201 101.208V103.619C458.201 105.251 459.535 106.586 461.165 106.586H577.139C578.769 106.586 580.103 105.251 580.103 103.619V101.208Z" fill="url(#paint8_linear_652_943)"/>
<path d="M567.043 214.965C565.969 214.965 564.926 214.547 564.15 213.801C563.316 212.995 562.809 211.89 562.809 210.727V185.269C562.809 184.522 563.405 183.926 564.15 183.926C564.896 183.926 565.492 184.522 565.492 185.269V210.727C565.492 211.174 565.671 211.562 565.969 211.861C566.297 212.159 566.685 212.308 567.132 212.278L597.278 210.488C598.113 210.428 598.74 209.742 598.74 208.936V183.955C598.74 183.508 598.561 183.09 598.233 182.791C597.905 182.493 597.487 182.344 597.04 182.403L571.963 184.881C571.158 184.97 570.8 185.537 570.71 185.806C570.591 186.045 570.382 186.701 570.86 187.358L580.431 200.549C580.729 200.967 581.177 201.176 581.684 201.206C582.19 201.236 582.638 200.997 582.936 200.579L593.462 186.522C593.909 185.925 594.744 185.806 595.34 186.253C595.937 186.701 596.056 187.537 595.609 188.134L585.083 202.191C584.278 203.265 583.055 203.892 581.713 203.892H581.684C580.342 203.892 579.089 203.235 578.284 202.131L568.713 188.94C567.818 187.686 567.639 186.134 568.295 184.731C568.921 183.329 570.204 182.403 571.724 182.254L596.801 179.777C597.994 179.658 599.187 180.046 600.052 180.851C600.946 181.657 601.453 182.791 601.453 183.985V208.966C601.453 211.204 599.694 213.054 597.487 213.174L567.341 214.965C567.222 214.965 567.132 214.965 567.043 214.965Z" fill="#FF7070"/>
<path fill-rule="evenodd" clip-rule="evenodd" d="M258.207 175.627V177.054C258.207 177.453 258.366 177.837 258.648 178.12C258.93 178.402 259.312 178.561 259.711 178.561C260.11 178.561 260.492 178.402 260.774 178.12C261.056 177.837 261.215 177.453 261.215 177.054V175.546C261.194 175.15 261.022 174.776 260.735 174.503C260.448 174.23 260.067 174.078 259.671 174.079C259.472 174.081 259.277 174.124 259.095 174.203C258.913 174.283 258.749 174.399 258.613 174.543C258.476 174.687 258.37 174.857 258.3 175.043C258.231 175.23 258.199 175.428 258.207 175.627ZM257.626 171.426C259.831 170.903 261.636 169.416 258.428 169.617C257.633 169.728 256.849 169.903 256.082 170.139C253.074 171.385 255.681 171.888 257.626 171.426ZM441.584 185.415C440.661 187.359 439.115 188.936 437.193 189.898C437.119 189.924 437.056 189.976 437.015 190.044C436.975 190.112 436.959 190.192 436.971 190.271C436.983 190.349 437.021 190.421 437.08 190.474C437.139 190.527 437.215 190.558 437.294 190.561C437.943 190.675 438.61 190.628 439.236 190.423C439.862 190.217 440.428 189.86 440.884 189.383C441.34 188.906 441.672 188.324 441.85 187.688C442.028 187.052 442.047 186.382 441.905 185.737C441.905 185.652 441.871 185.57 441.811 185.509C441.751 185.449 441.669 185.415 441.584 185.415ZM433.604 169.476C433.219 169.377 432.811 169.433 432.466 169.632C432.121 169.831 431.868 170.157 431.76 170.541C431.578 171.196 431.544 171.882 431.66 172.551C431.66 172.951 431.818 173.335 432.1 173.617C432.382 173.9 432.765 174.059 433.163 174.059C433.562 174.059 433.945 173.9 434.227 173.617C434.509 173.335 434.667 172.951 434.667 172.551C434.667 171.104 434.988 169.858 433.604 169.476ZM364.653 366.958C363.028 366.134 331.971 368.164 331.189 371.662C331.029 372.426 331.53 375.36 332.412 375.843C334.156 376.767 364.031 375.079 365.675 371.823C366.143 371.031 366.297 370.092 366.108 369.191C365.918 368.291 365.399 367.494 364.653 366.958ZM332.793 374.998C332.175 374.025 331.841 372.896 331.831 371.742C332.232 369.933 348.773 368.948 350.597 368.828C350.554 370.452 350.971 372.055 351.8 373.451C349.515 373.813 333.876 375.581 332.793 375.059V374.998ZM364.211 370.978C362.627 372.104 354.587 373.129 352.663 373.37C352.831 371.779 352.494 370.175 351.7 368.788C354.086 368.627 361.725 368.205 363.991 368.406C364.592 368.848 364.612 370.215 364.211 371.019V370.978ZM311.961 371.722C311.907 371.688 311.844 371.67 311.781 371.67C311.717 371.67 311.654 371.688 311.6 371.722C311.6 371.521 273.305 393.149 272.142 395.44C272.09 395.55 272.063 395.67 272.063 395.792C272.063 395.914 272.09 396.034 272.142 396.144C273.365 399.661 313.325 435.881 314.989 436.705C315.47 436.947 316.071 436.525 317.956 435.52C321.966 433.369 356.191 415.038 359.72 412.083C360.703 411.078 361.304 402.033 360.763 401.008C360.221 399.983 311.961 371.923 311.961 371.722ZM315.43 435.037C311.159 431.64 277.335 401.088 273.585 395.902C277.074 392.606 310.818 373.009 311.841 372.406C317.014 375.561 354.247 398.274 359.018 401.49C356.496 402.221 354.097 403.325 351.901 404.767C350.758 405.872 353.605 407.922 357.555 411.761C351.52 415.661 321.585 431.741 315.43 435.037ZM358.698 410.616C358.497 410.415 353.665 405.691 353.445 405.51C355.392 404.291 357.4 403.171 359.46 402.154C359.466 404.994 359.197 407.828 358.658 410.616H358.698Z" fill="url(#paint9_linear_652_943)"/>
<path fill-rule="evenodd" clip-rule="evenodd" d="M342.035 406.917C340.631 407.52 323.509 413.208 318.677 415.178C317.256 415.888 315.709 416.305 314.125 416.404C313.845 416.404 315.469 413.269 327.759 403.661C329.042 402.656 331.509 400.746 331.769 399.179C332.952 393.993 318.937 401.751 306.406 406.656C305.11 407.354 303.696 407.804 302.236 407.982C302.095 407.158 304.922 404.565 305.103 404.364C312.581 396.083 322.065 392.666 321.423 389.611C320.441 384.827 303.038 394.133 299.368 395.641C296.281 396.947 291.348 398.515 291.649 398.515C290.988 398.777 291.649 399.239 291.769 399.179C291.89 399.118 298.246 397.169 299.789 396.485C302.095 395.601 317.514 388.144 320.08 389.892C321.103 390.616 310.195 396.505 304.04 403.319C302.957 404.485 300.03 406.857 300.932 408.786C301.098 409.085 301.349 409.326 301.652 409.48C301.956 409.634 302.299 409.694 302.637 409.651C305.624 409.651 325.995 399.42 330.185 399.098C329.223 400.371 328.074 401.489 326.777 402.415C323.789 404.786 315.128 411.862 313.123 415.118C312.08 416.806 312.942 417.811 314.306 417.831C316.11 417.831 318.316 416.605 323.749 414.555C342.175 407.44 342.757 407.761 342.456 407.098C342.44 407.058 342.417 407.022 342.388 406.991C342.358 406.96 342.322 406.936 342.283 406.919C342.244 406.902 342.202 406.893 342.159 406.893C342.117 406.893 342.074 406.901 342.035 406.917Z" fill="url(#paint10_linear_652_943)"/>
<path fill-rule="evenodd" clip-rule="evenodd" d="M533.975 330.276C533.714 309.251 531.829 266.337 527.679 245.534C525.493 234.499 520.762 219.404 511.96 212.108C508.23 209.032 502.737 206.078 492.772 200.55C492.892 200.289 477.033 193.857 476.291 195.987C475.675 192.322 474.81 188.702 473.704 185.154C475.188 184.671 474.526 180.33 475.148 177.877C475.769 175.425 478.115 173.676 479.318 171.666C482.025 167.184 482.486 159.365 481.985 154.159C481.504 149.315 474.446 138.501 469.794 136.733C465.143 134.964 460.371 135.024 455.459 134.039C451.449 133.215 448.481 130.984 443.99 130.421C439.499 129.858 436.812 132.431 432.963 132.431C429.113 132.431 424.782 129.436 420.752 129.195C418.563 129.161 416.435 129.925 414.765 131.344C413.094 132.764 411.995 134.743 411.669 136.914C411.183 140.149 411.566 143.457 412.778 146.495C413.99 149.533 415.988 152.193 418.567 154.2C421.706 156.19 425.233 157.486 428.913 157.998C428.672 168.27 429.755 165.516 428.552 166.42C427.349 167.325 427.73 173.656 428.151 175.405C428.331 176.109 428.512 176.37 429.374 176.651C428.892 178.661 425.504 183.003 428.552 184.068C428.953 184.209 430.557 184.49 430.717 184.551C431.128 186.457 431.733 188.316 432.521 190.098C433.299 191.89 434.435 193.503 435.86 194.838C437.284 196.172 438.966 197.2 440.802 197.857C443.689 198.982 445.975 199.284 447.659 199.867C447.891 200.698 448.013 201.556 448.02 202.419C440.86 204.306 434.115 207.517 428.131 211.887C417.284 220.71 401.865 257.313 397.835 261.333C396.271 262.88 359.439 270.036 354.006 273.734C352.943 274.458 352.903 275.081 353.043 276.367C351.72 276.609 346.146 277.654 345.525 278.84C345.341 279.701 345.389 280.596 345.665 281.433C340.704 280.504 335.698 279.833 330.667 279.423C329.747 279.444 328.841 279.659 328.009 280.054C327.176 280.449 326.436 281.014 325.835 281.714C324.151 283.724 325.515 283.382 323.73 283.101C319.941 282.558 306.367 287.121 304.663 287.925C304.663 287.201 304.663 286.699 303.901 286.297C301.663 285.647 299.325 285.415 297.004 285.613C295.6 286.558 301.014 286.236 303.259 287.402C303.259 288.95 303.46 304.829 303.259 307.944C303.259 308.507 303.259 308.427 302.838 308.487C300.833 308.769 297.946 308.487 297.064 309.13C297.384 302.136 297.064 285.01 296.101 284.005C295.52 283.402 284.813 282.116 273.164 280.709C273.205 272.26 272.737 263.816 271.761 255.423C269.615 236.77 265.124 214.781 251.089 203.625C251.902 203.958 252.797 204.036 253.655 203.847C254.801 203.391 256.035 203.198 257.264 203.284C259.269 203.826 259.53 205.294 264.543 201.917C264.863 201.696 265.705 201.756 266.367 201.093C268.633 198.822 267.49 195.746 267.49 193.455C267.822 191.897 267.93 190.3 267.811 188.711C267.749 188.474 267.634 188.255 267.474 188.07C267.314 187.886 267.114 187.74 266.888 187.646C266.888 186.983 267.59 185.797 266.588 184.51C268.031 183.747 269.595 182.862 268.793 181.294C267.261 178.838 265.997 176.223 265.024 173.496C264.402 171.164 265.244 168.189 265.204 165.677C265.204 163.948 265.385 161.878 265.204 159.988C266.751 158.906 267.932 157.378 268.593 155.607C268.739 154.891 268.708 154.15 268.501 153.449C268.295 152.748 267.92 152.108 267.41 151.587C266.748 151.164 266.608 151.587 266.628 150.34C266.7 149.903 266.681 149.455 266.57 149.026C266.46 148.597 266.261 148.196 265.986 147.848C265.144 147.024 263.219 146.119 262.618 145.275C261.595 143.768 260.994 142.26 259.069 141.657C257.706 141.215 256.422 142.079 255.5 141.778C254.237 141.376 252.934 140.009 251.49 141.456C251.168 141.631 250.814 141.741 250.449 141.779C250.085 141.817 249.716 141.782 249.365 141.677C248.162 140.652 247.861 138.883 245.816 138.501C244.653 138.3 242.367 138.863 241.485 138.501C240.04 137.435 238.445 136.588 236.753 135.989C234.862 135.808 232.953 135.972 231.119 136.471C229.836 136.733 228.192 136.592 226.849 136.793C224.062 137.235 223.26 139.647 221.415 140.813C219.57 141.979 216.463 141.999 214.698 144.612C213.215 146.823 213.535 149.215 212.954 151.426C212.713 152.37 211.43 153.436 210.949 154.401C209.826 156.632 210.688 158.883 210.668 160.812C210.648 162.742 209.305 164.511 209.686 166.842C209.995 168.007 210.504 169.109 211.19 170.099C211.198 170.425 211.157 170.75 211.069 171.063C210.458 172.645 210.332 174.374 210.708 176.028C211.036 177.614 211.8 179.076 212.914 180.249C214.317 181.475 215.039 181.154 216.062 182.902C216.492 183.827 217.138 184.634 217.946 185.254C219.43 186.259 221.255 185.395 222.137 185.837C222.686 186.128 223.284 186.312 223.901 186.38C223.408 186.63 222.981 186.995 222.658 187.445C211.751 188.832 197.355 196.812 188.573 207.726C185.104 212.208 179.27 218.68 177.084 223.866C165.335 250.479 171.069 292.206 166.338 305.09L154.628 335.703C154.067 337.17 152.623 344.466 153.145 346.979C153.987 350.717 157.897 346.034 160.283 343.381C158.799 348.667 158.819 350.054 158.037 370.857C157.796 377.37 157.576 384.465 157.476 390.435C157.47 390.478 157.473 390.521 157.486 390.563C157.498 390.604 157.52 390.642 157.548 390.675C157.577 390.707 157.612 390.733 157.651 390.75C157.691 390.768 157.733 390.777 157.776 390.777C158.338 390.777 157.977 391.42 158.799 374.817C159.38 363.139 160.042 352.245 160.102 351.36C160.399 347.925 161.154 344.545 162.348 341.31C167.947 337.117 174.248 333.959 180.954 331.984C188.418 329.982 196.299 330.185 203.651 332.567C205.656 333.23 211.049 334.577 212.974 333.672C216.984 331.662 227.31 325.009 229.014 320.969C229.856 318.959 230.538 317.331 231.199 315.824C234.267 316.105 238.036 316.889 241.385 316.929C245.134 316.929 247.54 316.326 251.691 312.648C266.949 312.99 283.771 312.527 291.791 312.226C297.144 314.236 313.585 320.125 317.575 324.085C319.139 325.612 320.061 329.874 320.622 334.617C321.362 340.287 321.556 346.015 321.204 351.722C310.216 353.833 296.222 357.169 285.395 359.863C284.788 359.694 284.155 359.646 283.53 359.722C280.663 360.024 282.006 361.189 281.064 358.275C281.109 358.286 281.156 358.285 281.201 358.273C281.246 358.261 281.287 358.238 281.32 358.206C281.354 358.174 281.379 358.134 281.394 358.09C281.409 358.046 281.412 357.999 281.405 357.953C281.375 354.09 280.925 350.241 280.061 346.476C279.921 345.913 278.938 345.632 278.337 345.451C271.841 343.562 246.758 341.029 241.244 342.456C237.656 343.401 212.814 356.265 211.691 358.998C210.568 361.732 207.52 378.174 206.959 381.209C193.967 385.008 183.721 388.143 178.709 389.852C178.667 389.865 178.629 389.887 178.596 389.916C178.563 389.945 178.536 389.98 178.518 390.02C178.499 390.059 178.488 390.102 178.487 390.146C178.485 390.19 178.492 390.233 178.508 390.274C178.749 391.018 185.325 387.601 252.693 369.853C253.37 371.585 254.238 373.237 255.279 374.777C253.274 375.259 251.009 376.144 250.347 377.993C250.23 378.383 250.21 378.797 250.291 379.197C250.371 379.597 250.549 379.97 250.808 380.284C252.453 382.131 254.646 383.399 257.064 383.902C261.303 384.968 265.709 385.2 270.036 384.586C274.192 384.222 278.286 383.345 282.227 381.973C286.517 380.164 286.237 377.47 284.593 376.244C282.898 375.245 281.037 374.564 279.099 374.234C280.923 370.918 279.219 372.385 281.946 371.722C283.489 371.353 284.899 370.559 286.016 369.43C287.781 367.621 288.963 363.159 287.279 361.008C295.74 358.998 329.765 350.556 338.086 351.18C353.184 352.285 462.957 397.53 488.942 406.254C488.983 406.267 489.026 406.272 489.069 406.268C489.112 406.265 489.153 406.253 489.191 406.233C489.229 406.214 489.263 406.187 489.291 406.154C489.319 406.121 489.34 406.083 489.353 406.043C489.366 406.002 489.371 405.958 489.368 405.916C489.364 405.873 489.353 405.831 489.333 405.793C489.314 405.755 489.287 405.721 489.254 405.693C489.221 405.665 489.184 405.644 489.143 405.63C482.346 403.259 467.188 397.209 449.043 389.932C449.925 387.802 452.251 380.928 454.055 378.556C454.797 377.591 454.757 377.511 461.373 377.893C478.717 378.898 493.995 378.435 510.636 373.109C520.802 369.832 525.794 362.275 528.681 352.164C529.263 352.345 530.847 352.868 531.408 352.989C531.568 353.027 531.735 353.028 531.896 352.989C532.056 352.951 532.205 352.875 532.33 352.768C534.315 350.737 533.975 334.235 533.975 330.276ZM259.731 192.068C259.188 192.266 258.602 192.315 258.034 192.209C257.467 192.103 256.938 191.846 256.503 191.465C256.07 191.118 255.731 190.667 255.517 190.154C255.304 189.641 255.222 189.083 255.279 188.53C255.253 188.448 255.26 188.358 255.3 188.281C255.339 188.203 255.408 188.145 255.49 188.118C255.572 188.092 255.662 188.099 255.739 188.139C255.816 188.178 255.874 188.247 255.901 188.329C256.891 189.757 258.289 190.85 259.911 191.465C259.963 191.508 260.001 191.565 260.02 191.629C260.039 191.694 260.04 191.762 260.02 191.826C260.001 191.891 259.963 191.948 259.912 191.991C259.86 192.034 259.797 192.061 259.731 192.068ZM240.904 174.46C240.972 173.87 241.209 173.312 241.585 172.852C242.026 172.41 243.37 172.692 244.312 172.048C245.017 171.49 245.552 170.745 245.856 169.898C246.979 167.667 248.763 169.395 251.249 165.717C251.884 164.682 252.376 163.567 252.713 162.4C254.117 161.737 255.941 162.702 257.706 159.787C258.287 158.802 258.668 157.777 259.711 157.496C260.492 158.34 261.274 161.516 264.442 160.29C264.442 161.375 264.202 166.863 264.142 167.305C263.882 168.629 263.741 169.975 263.721 171.325C263.721 175.345 265.565 177.556 267.61 181.757C267.931 182.42 266.247 183.063 265.405 183.525C264.217 183.087 262.987 182.77 261.736 182.581C257.846 181.636 254.738 183.666 251.39 184.591C250.822 184.594 250.256 184.527 249.706 184.39C248.442 184.269 247.119 185.556 245.335 185.797C244.869 185.888 244.387 185.838 243.951 185.651C243.515 185.465 243.145 185.151 242.889 184.752C242.672 184.015 242.518 183.262 242.427 182.5C242.247 181.777 242.026 181.053 241.866 180.35C241.545 178.902 242.488 178.34 241.385 176.33C240.623 174.963 240.643 175.566 240.904 174.46ZM241.666 215.464C243.016 212.896 244.117 210.204 244.954 207.424C246.077 214.419 246.678 217.957 246.959 219.726C245.495 218.499 245.355 218.037 241.666 215.384V215.464ZM247.681 223.645C248.663 229.675 248.442 228.308 248.623 229.554C248.144 228.65 247.558 227.806 246.879 227.042C247.103 225.714 247.204 224.368 247.179 223.022L247.681 223.645ZM240.422 227.263C239.225 226.015 238.132 224.671 237.154 223.243C238.146 220.919 239.263 218.651 240.503 216.449C244.713 219.685 244.392 219.645 245.435 220.952C245.588 222.663 245.588 224.386 245.435 226.097L240.422 227.263ZM240.683 228.57C243.069 233.896 244.031 242.64 244.533 248.469C242.03 241.127 238.664 234.109 234.508 227.565C235.321 226.451 236.045 225.275 236.673 224.047C237.499 225.589 238.487 227.038 239.62 228.369C239.765 228.46 239.928 228.518 240.098 228.539C240.268 228.56 240.44 228.543 240.603 228.489L240.683 228.57ZM228.773 185.556C228.937 185.606 229.105 185.64 229.275 185.656C229.741 185.635 230.189 185.463 230.55 185.166C230.912 184.869 231.168 184.463 231.28 184.008C231.6 183.807 231.841 183.586 231.821 183.204C231.801 182.822 227.49 176.913 232.984 173.877C233.468 173.825 233.955 173.951 234.354 174.232C234.752 174.513 235.035 174.93 235.149 175.405C235.409 176.477 235.957 177.458 236.733 178.239C236.794 179.524 236.962 180.801 237.234 182.058C237.395 182.802 236.833 183.767 236.713 184.792C236.432 186.802 238.377 189.013 239.079 190.822C240.021 193.254 239.38 195.867 241.625 198.018C243.871 200.168 243.45 198.399 244.232 203.223C243.297 207.015 242.008 210.709 240.382 214.258C238.117 211.042 226.648 192.269 224.342 187.988C225.204 187.465 227.891 185.937 228.693 185.475L228.773 185.556ZM222.758 188.229C224.222 191.646 238.798 214.801 238.798 215.002C238.097 217.233 234.067 226.479 232.162 227.484C227.971 224.489 216.483 192.993 215.661 190.138C217.923 189.167 220.302 188.498 222.738 188.148L222.758 188.229ZM243.45 276.97C241.244 276.267 234.127 252.046 227.771 238.64C223.961 230.6 216.483 217.314 208.322 213.776C199.5 209.977 183.099 219.082 181.355 230.901C180.29 238.696 180.919 246.629 183.2 254.157C192.663 282.84 205.475 305.713 232.844 312.266C233.485 310.98 231.219 312.045 249.224 312.527C248.342 313.215 247.403 313.827 246.417 314.356C243.049 316.185 236.653 314.718 231.921 314.196L232.523 312.889C204.332 306.578 191.14 282.739 181.696 254.599C179.311 246.844 178.627 238.664 179.691 230.62C181.495 217.836 198.478 208.671 207.881 211.846C210.279 212.742 212.474 214.109 214.337 215.866C213.443 207.812 213.222 199.697 213.676 191.606C214.044 191.278 214.44 190.982 214.859 190.721C216.583 196.751 226.407 225.575 231.4 228.771C231.717 228.958 232.087 229.033 232.452 228.981C232.816 228.93 233.152 228.757 233.405 228.489C237.916 236.268 242.127 244.227 243.811 252.609C244.764 257.235 245.007 261.98 244.533 266.679C241.686 254.86 233.806 237.775 224.844 229.595C234.006 245.454 240.683 270.82 243.671 275.825C244.866 276.155 246.086 276.383 247.32 276.508C246.798 264.448 246.397 239.303 241.305 228.389C241.926 228.389 246.317 227.444 246.317 227.444C247.109 228.397 247.782 229.443 248.322 230.559C249.144 232.147 248.863 230.941 250.107 239.383C256.122 278.357 255.781 278.156 256.563 278.578C252.633 278.076 245.716 277.654 243.45 276.97ZM256.763 268.93C248.944 224.429 248.863 223.183 245.575 204.61C245.836 203.726 246.036 203.002 246.177 202.48C247.42 204.068 254.197 212.771 254.939 214.68C253.836 215.665 249.866 217.354 251.069 218.7C251.61 219.324 256.081 223.203 257.485 224.61C258.247 227.846 257.044 263.302 256.763 268.93ZM207.761 380.948C208.322 378.395 211.992 361.792 213.014 359.461C213.756 357.732 237.936 344.868 241.746 343.903C247.239 342.456 277.154 345.431 279.239 346.778C280.181 350.284 280.732 353.883 280.883 357.511C277.515 353.491 251.45 354.556 251.169 360.225C251.164 360.411 251.203 360.595 251.283 360.763C251.363 360.931 251.482 361.077 251.63 361.189C251.617 363.619 251.893 366.041 252.452 368.405C237.054 372.566 221.656 376.908 207.761 380.948ZM284.212 377.812C285.234 381.129 273.224 382.556 269.756 382.958C265.637 383.546 261.444 383.334 257.405 382.335C255.64 381.852 252.372 380.566 251.751 378.958C251.45 378.194 252.432 377.47 253.154 377.088C254.069 376.61 255.038 376.245 256.041 376.003C257.134 377.512 258.598 378.71 260.292 379.48C262.297 380.365 270.858 379.742 273.826 379.098C275.129 378.817 276.512 378.435 278.477 375.279C279.68 375.46 283.871 376.707 284.212 377.812ZM274.628 377.109C273.124 378.013 262.497 378.737 260.873 378.073C255.5 375.923 252.573 367.521 252.352 361.591C256.72 362.555 261.204 362.886 265.665 362.576C269.014 362.134 276.933 360.767 279.841 359.3C281.585 365.893 277.896 375.199 274.628 377.109ZM285.836 366.737C285.293 367.813 284.531 368.763 283.598 369.525C282.665 370.287 281.583 370.844 280.422 371.159C281.471 368.339 281.968 365.343 281.886 362.335C282.044 362.003 282.274 361.71 282.559 361.477C282.843 361.244 283.176 361.078 283.533 360.989C283.889 360.901 284.261 360.893 284.621 360.966C284.981 361.039 285.321 361.19 285.615 361.41C287.119 362.395 286.457 365.029 285.836 366.737ZM492.351 201.133C505.905 208.63 511.919 211.766 516.25 218.339C513.526 215.99 510.059 214.687 506.466 214.66C493.614 214.218 487.298 233.293 484.01 245.634C478.556 266.217 481.905 292.266 481.604 296.085C478.135 299.322 460.371 308.568 452.431 312.889C453.534 308.226 457.464 290.236 460.03 283.141C463.479 273.614 473.403 251.423 474.065 246.599C474.246 245.172 473.965 244.991 469.754 242.258C471.378 242.258 475.769 241.815 477.133 241.554C477.714 241.554 478.015 241.293 478.236 240.067C478.977 235.806 480.421 200.691 480.541 196.952C480.401 196.872 490.626 200.148 492.411 201.133H492.351ZM476.892 196.329C477.805 196.263 478.723 196.365 479.599 196.631C478.596 211.203 477.594 236.831 476.652 240.107C475.589 240.308 471.82 240.569 470.356 240.67C467.228 240.851 467.148 240.67 466.827 241.112C466.506 241.554 466.947 242.157 467.529 242.559C468.551 243.283 471.96 245.433 472.441 245.996C471.978 248.389 471.266 250.727 470.316 252.971C458.988 283.121 459.669 273.855 452.05 306.919C452.559 291.081 454.019 275.287 456.421 259.624C458.025 251.001 459.97 242.901 466.446 224.449C468.992 217.314 474.266 203.646 474.466 203.726C475.472 201.324 476.303 198.852 476.952 196.329H476.892ZM442.065 319.683C442.446 321.17 442.446 320.969 442.326 320.989L441.704 320.869C441.704 320.668 440.622 300.487 441.143 292.146C442.085 277.372 443.288 261.353 444.411 245.916C444.953 238.439 446.998 222.379 446.937 222.982L448.942 221.494C449.774 223.158 450.719 224.764 451.77 226.298C452.171 226.841 452.712 227.524 453.353 227.585C452.912 231.223 446.236 276.106 444.271 304.789C443.188 320.406 444.271 317.09 442.687 318.517C442.499 318.644 442.348 318.819 442.249 319.024C442.151 319.229 442.108 319.456 442.125 319.683H442.065ZM453.975 227.605C455.499 227.605 457.143 224.389 459.148 223.022C459.93 223.846 462.296 227.786 463.86 228.308C457.223 246.559 450.125 272.006 450.145 314.015C448.441 314.939 446.135 316.266 444.431 317.251C445.434 300.146 452.692 244.006 454.035 227.605H453.975ZM475.028 200.59C474.386 202.6 464.862 225.655 464.201 226.72C463.167 225.704 462.246 224.579 461.454 223.364C459.769 221.092 459.188 220.349 456.321 223.585C460.571 215.545 468.872 207.384 472.361 203.324C475.689 199.505 475.248 199.827 475.028 200.59ZM430.115 158.38C431.611 158.842 433.211 158.842 434.707 158.38C435.852 157.871 437.115 157.69 438.356 157.858C440.108 158.667 441.91 159.366 443.75 159.948C446.025 159.928 448.296 159.747 450.546 159.405C451.578 159.888 452.451 160.655 453.065 161.615C453.679 162.576 454.008 163.692 454.015 164.832C450.278 165.376 446.671 166.595 443.369 168.43C443.166 167.77 442.764 167.19 442.218 166.769C441.672 166.347 441.009 166.106 440.321 166.079C437.033 165.682 433.713 165.642 430.416 165.958C430.124 163.39 430.023 160.803 430.115 158.22V158.38ZM429.334 175.526C428.832 174.641 427.85 167.787 428.852 167.043C429.013 167.244 428.311 166.621 432.12 166.662C434.806 166.747 437.483 166.988 440.141 167.385C441.945 167.707 442.246 168.531 442.146 170.28C442.146 173.516 442.246 173.194 442.146 174.199C442.146 174.48 442.025 175.224 441.805 175.385C437.681 176.133 433.455 176.126 429.334 175.365V175.526ZM447.759 198.178C442.266 196.611 437.233 196.41 433.845 189.415C431.659 184.912 432.862 183.606 430.877 183.023C430.141 182.935 429.416 182.773 428.712 182.541C428.712 181.194 430.396 178.38 430.717 176.953C434.047 177.352 437.412 177.352 440.742 176.953C442.747 176.651 443.81 176.31 443.489 172.229V169.114C446.637 168.149 453.313 166.561 454.115 166.34C454.12 167.433 454.268 168.521 454.556 169.576C454.87 170.239 455.411 170.767 456.08 171.063C456.187 171.111 456.304 171.134 456.421 171.129C456.538 171.124 456.653 171.092 456.755 171.036C456.858 170.979 456.947 170.9 457.014 170.803C457.081 170.707 457.125 170.597 457.143 170.481C457.604 168.611 457.965 166.943 458.105 166.139C458.105 166.581 458.286 164.732 459.609 164.008C461.614 162.963 464.722 165.295 464.942 168.591C465.063 170.199 463.459 173.114 462.256 176.47C461.534 178.48 465.905 179.345 467.429 180.088C467.99 181.395 467.649 182.862 468.411 183.646C469.555 184.353 470.809 184.862 472.12 185.154C473.503 189.596 474.509 194.149 475.128 198.761C470.035 204.128 468.892 205.414 467.529 206.801C462.203 211.875 457.685 217.739 454.135 224.188C452.712 215.806 450.005 208.409 449.704 205.977C449.464 204.088 449.865 200.751 448.983 198.962C448.849 198.749 448.67 198.569 448.458 198.433C448.247 198.298 448.008 198.211 447.759 198.178ZM448.341 204.992C449.303 208.57 451.87 220.188 452.612 224.851C451.389 223.002 449.885 219.947 449.885 219.947C449.833 219.838 449.757 219.742 449.663 219.666C449.568 219.591 449.458 219.537 449.341 219.51C449.223 219.483 449.101 219.483 448.984 219.51C448.866 219.537 448.756 219.59 448.662 219.665L447.198 220.791C447.759 215.565 448.321 210.238 448.401 204.992H448.341ZM447.759 203.203C447.579 217.997 444.632 231.183 443.429 245.916C439.419 295.442 439.419 293.01 439.82 310.537C437.654 294.699 434.627 263.885 432.963 247.182C434.146 246.278 439.86 241.916 440.501 240.589C440.802 239.946 440.501 239.283 439.058 239.283C436.548 239.473 434.028 239.473 431.519 239.283C433.043 233.052 441.765 210.319 444.09 204.289C445.273 203.947 446.256 203.605 447.759 203.203ZM354.547 275.242C357.655 271.965 396.652 264.327 398.777 262.257C401.765 259.242 409.985 240.529 418.366 226.338C425.484 214.278 429.354 209.816 443.208 204.691C439.88 212.952 433.384 229.112 430.456 238.519C430.276 239.102 430.015 239.745 430.456 240.127C431.559 241.212 436.171 240.569 438.817 240.609C436.953 242.479 431.82 246.278 431.82 246.278C431.721 246.351 431.643 246.449 431.594 246.562C431.544 246.675 431.526 246.798 431.539 246.921C432.381 256.247 437.554 311.904 439.8 319.984L436.191 319.06C433.858 317.912 431.325 317.229 428.732 317.05C433.303 294.256 431.659 287.885 432.221 275.463C432.221 274.176 426.807 248.328 426.767 248.127C426.767 248.042 426.733 247.96 426.673 247.899C426.613 247.839 426.531 247.805 426.446 247.805C426.361 247.805 426.28 247.839 426.22 247.899C426.159 247.96 426.126 248.042 426.126 248.127C426.466 256.931 428.953 265.312 430.657 274.92C424.241 280.95 417.524 289.292 406.597 292.005C399.84 293.714 368.201 300.628 363.991 300.93C360.542 297.07 354.006 277.815 354.547 275.242ZM350.738 277.915C350.738 277.915 353.144 277.332 353.103 276.95C354.976 284.013 357.334 290.937 360.161 297.673C358.338 298.239 356.475 298.662 354.587 298.94C353.444 298.94 354.246 299.945 351.459 293.312C349.742 289.188 348.269 284.966 347.048 280.669C346.707 279.282 346.126 279.423 350.738 277.915ZM327.259 282.156C328.843 280.407 329.986 280.146 345.825 282.156C347.234 286.949 348.942 291.648 350.938 296.226C347.679 298.774 343.942 300.639 339.951 301.713C339.83 300.849 339.55 301.11 340.231 301.171C340.807 301.187 341.379 301.074 341.905 300.839C342.432 300.604 342.899 300.254 343.272 299.814C343.645 299.374 343.915 298.856 344.062 298.298C344.209 297.739 344.229 297.155 344.121 296.588C343.961 294.578 338.226 290.397 336.602 289.251C337.566 289.45 338.567 289.374 339.489 289.03C339.572 289.004 339.64 288.945 339.68 288.868C339.719 288.791 339.727 288.701 339.7 288.618C339.673 288.536 339.615 288.467 339.538 288.427C339.461 288.388 339.371 288.381 339.289 288.407C335.921 289.292 332.512 285.272 332.071 285.151C330.527 284.769 331.49 288.367 328.061 290.518C327.56 290.839 325.635 290.116 325.515 289.131C325.262 287.912 325.288 286.651 325.59 285.443C325.892 284.236 326.463 283.112 327.259 282.156ZM304.843 288.488C307.409 287.563 320.482 283.503 324.251 284.468C323.827 286.073 323.732 287.749 323.971 289.392C324.098 289.914 324.336 290.403 324.669 290.824C325.002 291.246 325.421 291.59 325.899 291.834C326.377 292.079 326.901 292.217 327.437 292.239C327.973 292.262 328.507 292.168 329.003 291.965C330.401 291.031 331.451 289.66 331.991 288.066C333.775 289.151 342.637 295.04 342.517 297.131C342.517 298.538 341.775 299.724 340.372 299.603C339.187 299.177 338.067 298.589 337.043 297.854C336.014 297.03 334.928 296.278 333.795 295.603C333.615 295.509 333.407 295.486 333.21 295.537C333.014 295.588 332.843 295.71 332.731 295.88C332.619 296.049 332.574 296.255 332.603 296.456C332.633 296.657 332.737 296.84 332.893 296.97C332.893 296.97 334.397 298.095 336.061 299.181C338.567 301.191 339.429 303.04 336.322 303.985C335.835 304.13 335.324 304.172 334.82 304.11C334.317 304.048 333.831 303.882 333.394 303.623C332.883 302.612 332.205 301.694 331.389 300.91C331.025 299.97 330.372 299.172 329.525 298.63C328.678 298.088 327.681 297.83 326.678 297.895C325.635 298.015 325.555 298.538 325.655 298.055C326.136 295.663 323.089 294.216 320.963 294.618C317.535 295.302 315.63 299.844 314.507 303.161C313.825 304.608 316.512 303 304.783 307.181C305.113 301.343 305.113 295.491 304.783 289.653C304.683 288.267 304.643 288.588 304.843 288.488ZM315.069 303.382C316.171 301.01 318.597 296.568 321.184 296.166C322.186 295.985 324.211 296.668 323.991 297.693C323.557 300.415 322.305 302.94 320.402 304.929C320.642 305.331 314.367 305.452 315.069 303.382ZM326.417 299.543C326.898 299.06 329.705 300.045 329.785 301.553C329.926 304.065 327.54 307.06 325.475 308.447C324.813 308.909 322.206 306.779 321.605 305.914C323.037 303.665 324.646 301.535 326.417 299.543ZM329.805 306.236C329.946 306.035 331.951 301.573 332.292 305.271C332.432 306.718 330.287 307.482 328.883 307.281C329.209 306.95 329.517 306.601 329.805 306.236ZM374.397 332.366C365.955 338.939 364.752 347.582 366.136 357.893C352.582 353.069 342.236 349.853 338.206 349.511C332.752 349.624 327.323 350.297 322.006 351.521C322.547 346.114 322.307 327.14 318.477 323.241C314.648 319.341 300.753 314.015 295.52 312.005H296.703C297.164 311.763 296.402 309.653 298.146 309.532C300.252 309.412 303.199 310.216 304.161 309.372C304.449 308.934 304.615 308.428 304.643 307.904C306.848 307.201 312.041 305.613 314.668 304.929C315.551 305.632 316.584 306.119 317.687 306.353C318.79 306.587 319.932 306.561 321.023 306.276C321.625 307.623 324.432 310.578 326.176 309.613C326.66 309.333 327.123 309.017 327.56 308.668C328.828 309.02 330.175 308.964 331.409 308.507C332.063 308.329 332.646 307.954 333.079 307.432C333.513 306.911 333.777 306.269 333.835 305.593C334.885 305.895 336.005 305.847 337.024 305.455C338.044 305.064 338.91 304.35 339.489 303.422C343.885 302.432 347.999 300.452 351.519 297.633C351.9 298.457 352.261 299.161 352.562 299.643C352.662 299.813 352.802 299.955 352.97 300.057C353.138 300.158 353.328 300.217 353.524 300.226C355.529 300.427 360.261 298.216 360.462 298.216C361.149 299.653 362.003 301.002 363.008 302.236C363.369 302.598 363.971 302.497 364.532 302.437C370.346 301.734 399.218 295.503 406.938 293.573C416.963 291.061 423.499 284.005 430.376 277.292C429.995 288.829 431.499 294.457 426.948 317.11C417.484 318.29 408.107 320.089 398.878 322.497C390.797 324.808 381.173 327.1 374.397 332.386V332.366ZM403.649 372.023L402.948 371.742C402.787 361.531 405.314 352.124 412.772 345.15C413.432 345.318 414.102 345.445 414.777 345.531C407.098 352.124 404.071 361.732 403.649 372.023ZM435.308 338.517C429.293 342.054 431.058 343.964 425.544 344.547C421.127 344.851 416.689 344.505 412.371 343.521C408.883 342.396 410.727 341.049 414.376 340.647C414.998 340.748 419.89 340.788 422.196 340.647C422.384 340.617 422.556 340.521 422.68 340.375C422.803 340.23 422.871 340.045 422.871 339.853C422.871 339.662 422.803 339.477 422.68 339.331C422.556 339.186 422.384 339.089 422.196 339.059C419.595 338.835 416.982 338.795 414.376 338.939C412.717 338.915 411.064 338.719 409.444 338.356C409.283 338.092 409.189 337.793 409.172 337.484C409.154 337.175 409.213 336.867 409.344 336.587C411.449 335.321 421.374 335.803 423.018 335.743C423.211 335.712 423.387 335.613 423.515 335.464C423.642 335.315 423.712 335.125 423.712 334.929C423.712 334.732 423.642 334.543 423.515 334.393C423.387 334.244 423.211 334.145 423.018 334.115C419.728 334.184 416.437 334.01 413.173 333.592C411.77 333.351 408.502 332.647 408.742 331.22C409.183 328.647 414.456 330.858 418.166 330.597C420.783 330.558 423.373 330.068 425.825 329.15C426.008 329.094 426.162 328.967 426.252 328.798C426.342 328.628 426.362 328.429 426.306 328.245C426.25 328.062 426.124 327.907 425.955 327.817C425.785 327.726 425.587 327.707 425.404 327.763C422.895 328.368 420.35 328.811 417.785 329.09C417.622 329.056 417.477 328.964 417.378 328.831C417.278 328.697 417.23 328.532 417.243 328.366C417.272 327.99 417.367 327.623 417.524 327.281C418.558 325.929 419.946 324.892 421.534 324.286C427.228 321.914 431.559 324.286 438.075 324.708C438.893 328.425 439.931 332.089 441.183 335.682C439.185 336.483 437.248 337.431 435.389 338.517H435.308ZM442.968 336.064C442.266 333.693 439.659 325.09 439.399 323.08C440.433 322.573 441.523 322.189 442.647 321.934C443.569 325.371 445.273 331.341 446.376 334.677C445.3 335.217 444.188 335.68 443.048 336.064H442.968ZM448.642 336.064C447.579 333.652 444.431 322.416 443.709 319.602C447.158 316.768 478.115 301.512 482.727 296.869C484.17 295.422 479.298 268.187 485.012 245.775C488.06 233.715 494.035 214.761 506.366 215.183C514.827 215.464 519.659 221.937 522.406 230.017C527.438 244.891 525.433 265.533 525.433 265.332C525.433 282.196 519.418 307.542 507.388 319.602C498.306 328.728 454.296 337.089 448.722 336.125L448.642 336.064ZM531.308 351.34C528.962 350.717 518.195 346.737 513.644 346.356C490.005 344.346 491.469 339.843 476.852 333.411C484.872 331.401 502.697 326.738 508.611 320.869C521.102 308.447 526.877 282.84 526.817 265.513C527.281 259.445 527.281 253.351 526.817 247.283C531.248 272.488 533.975 343.702 531.308 351.34Z" fill="url(#paint11_linear_652_943)"/>
<path fill-rule="evenodd" clip-rule="evenodd" d="M221.295 215.464L214.719 216.228C216.724 218.118 218.549 220.191 220.172 222.419L221.997 216.389C222.053 216.281 222.077 216.159 222.066 216.038C222.055 215.917 222.011 215.801 221.937 215.704C221.864 215.608 221.765 215.534 221.651 215.491C221.537 215.449 221.414 215.439 221.295 215.464ZM411.489 398.897C409.836 397.847 408.01 397.099 406.096 396.686C410.647 389.269 409.825 380.606 408.622 379.842C407.49 378.685 405.982 377.972 404.372 377.832C398.357 376.566 383.78 376.465 379.931 379.681C379.089 380.385 378.587 381.531 379.409 382.294C379.018 387.059 380.014 391.835 382.277 396.043C380.272 396.425 377.946 397.189 377.184 398.998C377.052 399.387 377.017 399.802 377.08 400.208C377.142 400.614 377.302 400.998 377.545 401.329C379.084 403.243 381.191 404.615 383.56 405.249C387.744 406.525 392.135 406.982 396.492 406.595C400.655 406.425 404.782 405.75 408.783 404.585C413.214 402.937 413.174 400.224 411.489 398.897ZM380.111 382.656C384.421 383.836 388.877 384.391 393.344 384.304C398.215 383.97 403.024 383.025 407.66 381.49C408.061 384.256 407.914 387.073 407.226 389.781C406.538 392.489 405.322 395.033 403.65 397.269C403.246 397.979 402.663 398.57 401.959 398.983C401.255 399.395 400.455 399.615 399.64 399.621C396.833 399.982 389.174 400.183 387.61 399.48C382.537 397.128 380.031 388.586 380.111 382.656ZM396.412 404.766C392.273 405.159 388.098 404.736 384.121 403.52C382.321 403.028 380.664 402.112 379.289 400.847C378.968 400.505 378.447 399.822 378.607 399.4C379.129 398.073 381.675 397.389 383.079 397.148C384.083 398.684 385.464 399.937 387.089 400.786C389.094 401.812 400.201 401.691 402.266 400.626C403.554 399.838 404.644 398.765 405.454 397.49C406.637 397.832 410.768 399.239 411.048 400.364C411.951 403.821 400.021 404.646 396.412 404.867V404.766Z" fill="url(#paint12_linear_652_943)"/>
<defs>
<linearGradient id="paint0_linear_652_943" x1="669.086" y1="262.171" x2="611.447" y2="362.005" gradientUnits="userSpaceOnUse">
<stop stop-color="#5E0303"/>
<stop offset="1" stop-color="#8A0202"/>
</linearGradient>
<linearGradient id="paint1_linear_652_943" x1="580.236" y1="294.272" x2="670.505" y2="346.389" gradientUnits="userSpaceOnUse">
<stop stop-color="#DAE3FE"/>
<stop offset="1" stop-color="#E9EFFD"/>
</linearGradient>
<linearGradient id="paint2_linear_652_943" x1="684.73" y1="171.369" x2="584.355" y2="345.224" gradientUnits="userSpaceOnUse">
<stop stop-color="#5E0303"/>
<stop offset="1" stop-color="#8A0202"/>
</linearGradient>
<linearGradient id="paint3_linear_652_943" x1="86.9234" y1="6.99927" x2="86.9234" y2="221.118" gradientUnits="userSpaceOnUse">
<stop stop-color="#5E0303"/>
<stop offset="1" stop-color="#8A0202"/>
</linearGradient>
<linearGradient id="paint4_linear_652_943" x1="68.6666" y1="94.3218" x2="68.6666" y2="219.888" gradientUnits="userSpaceOnUse">
<stop stop-color="#5E0303"/>
<stop offset="1" stop-color="#8A0202"/>
</linearGradient>
<linearGradient id="paint5_linear_652_943" x1="47.8378" y1="138.013" x2="119.439" y2="138.013" gradientUnits="userSpaceOnUse">
<stop stop-color="#DAE3FE"/>
<stop offset="1" stop-color="#E9EFFD"/>
</linearGradient>
<linearGradient id="paint6_linear_652_943" x1="506.944" y1="42.2671" x2="506.944" y2="101.284" gradientUnits="userSpaceOnUse">
<stop stop-color="#5E0303"/>
<stop offset="1" stop-color="#8A0202"/>
</linearGradient>
<linearGradient id="paint7_linear_652_943" x1="552.182" y1="42.2671" x2="552.182" y2="101.284" gradientUnits="userSpaceOnUse">
<stop stop-color="#5E0303"/>
<stop offset="1" stop-color="#8A0202"/>
</linearGradient>
<linearGradient id="paint8_linear_652_943" x1="519.152" y1="98.2415" x2="519.152" y2="106.586" gradientUnits="userSpaceOnUse">
<stop stop-color="#5E0303"/>
<stop offset="1" stop-color="#8A0202"/>
</linearGradient>
<linearGradient id="paint9_linear_652_943" x1="254.713" y1="169.428" x2="448.047" y2="173.876" gradientUnits="userSpaceOnUse">
<stop stop-color="#001029"/>
<stop offset="1" stop-color="#001B46"/>
</linearGradient>
<linearGradient id="paint10_linear_652_943" x1="291.359" y1="388.256" x2="344.013" y2="391.246" gradientUnits="userSpaceOnUse">
<stop stop-color="#001029"/>
<stop offset="1" stop-color="#001B46"/>
</linearGradient>
<linearGradient id="paint11_linear_652_943" x1="343.515" y1="129.194" x2="343.515" y2="406.269" gradientUnits="userSpaceOnUse">
<stop stop-color="#5E0303"/>
<stop offset="1" stop-color="#8A0202"/>
</linearGradient>
<linearGradient id="paint12_linear_652_943" x1="214.719" y1="215.451" x2="418.803" y2="222.381" gradientUnits="userSpaceOnUse">
<stop stop-color="#001029"/>
<stop offset="1" stop-color="#001B46"/>
</linearGradient>
</defs>
</svg>
