<svg width="110" height="110" viewBox="0 0 110 110" fill="none" xmlns="http://www.w3.org/2000/svg">
<rect width="110" height="110" rx="12" fill="url(#paint0_linear_416_18358)"/>
<path d="M55 25.668C41.7664 25.668 31 36.139 31 49.0096C31 63.8408 40.8952 72.7888 47.458 78.7106C49.546 80.6841 52.2844 81.668 55.0168 81.668C57.7432 81.668 60.4636 80.6876 62.5216 78.7304C69.0832 72.8087 79 63.856 79 49.0096C79 36.139 68.2336 25.668 55 25.668ZM55 58.3462C49.7068 58.3462 45.4 54.1576 45.4 49.0096C45.4 43.8616 49.7068 39.6729 55 39.6729C60.2932 39.6729 64.6 43.8616 64.6 49.0096C64.6 54.1576 60.2932 58.3462 55 58.3462Z" fill="white"/>
<defs>
<linearGradient id="paint0_linear_416_18358" x1="55" y1="0" x2="55" y2="110" gradientUnits="userSpaceOnUse">
<stop stop-color="#5E0303"/>
<stop offset="1" stop-color="#8A0202"/>
</linearGradient>
</defs>
</svg>
