<svg width="110" height="110" viewBox="0 0 110 110" fill="none" xmlns="http://www.w3.org/2000/svg">
<rect width="110" height="110" rx="12" fill="url(#paint0_linear_416_18299)"/>
<path d="M67.6666 32.492V28.332C67.6666 27.2387 66.76 26.332 65.6666 26.332C64.5733 26.332 63.6666 27.2387 63.6666 28.332V32.332H46.3333V28.332C46.3333 27.2387 45.4266 26.332 44.3333 26.332C43.24 26.332 42.3333 27.2387 42.3333 28.332V32.492C35.1333 33.1587 31.64 37.452 31.1066 43.8254C31.0533 44.5987 31.6933 45.2387 32.44 45.2387H77.56C78.3333 45.2387 78.9733 44.572 78.8933 43.8254C78.36 37.452 74.8666 33.1587 67.6666 32.492Z" fill="white"/>
<path d="M73.6667 63C67.7733 63 63 67.7733 63 73.6667C63 75.6667 63.56 77.56 64.5467 79.16C66.3867 82.2533 69.7733 84.3333 73.6667 84.3333C77.56 84.3333 80.9467 82.2533 82.7867 79.16C83.7733 77.56 84.3333 75.6667 84.3333 73.6667C84.3333 67.7733 79.56 63 73.6667 63ZM79.1867 72.52L73.5067 77.7733C73.1333 78.12 72.6267 78.3067 72.1467 78.3067C71.64 78.3067 71.1333 78.12 70.7333 77.72L68.0933 75.08C67.32 74.3067 67.32 73.0267 68.0933 72.2533C68.8667 71.48 70.1467 71.48 70.92 72.2533L72.2 73.5333L76.4667 69.5867C77.2667 68.84 78.5467 68.8933 79.2933 69.6933C80.04 70.4933 79.9867 71.7467 79.1867 72.52Z" fill="white"/>
<path d="M76.3333 49.2383H33.6667C32.2 49.2383 31 50.4383 31 51.9049V68.3316C31 76.3316 35 81.6649 44.3333 81.6649H57.48C59.32 81.6649 60.6 79.8783 60.0133 78.1449C59.48 76.5983 59.0267 74.8916 59.0267 73.6649C59.0267 65.5849 65.6133 58.9983 73.6933 58.9983C74.4667 58.9983 75.24 59.0516 75.9867 59.1849C77.5867 59.4249 79.0267 58.1716 79.0267 56.5716V51.9316C79 50.4383 77.8 49.2383 76.3333 49.2383ZM47.56 71.5583C47.0533 72.0383 46.36 72.3316 45.6667 72.3316C44.9733 72.3316 44.28 72.0383 43.7733 71.5583C43.2933 71.0516 43 70.3583 43 69.6649C43 68.9716 43.2933 68.2783 43.7733 67.7716C44.04 67.5316 44.3067 67.3449 44.6533 67.2116C45.64 66.7849 46.8133 67.025 47.56 67.7716C48.04 68.2783 48.3333 68.9716 48.3333 69.6649C48.3333 70.3583 48.04 71.0516 47.56 71.5583ZM47.56 62.2249C47.4267 62.3316 47.2933 62.4383 47.16 62.5449C47 62.6516 46.84 62.7316 46.68 62.7849C46.52 62.8649 46.36 62.9183 46.2 62.9449C46.0133 62.9716 45.8267 62.9983 45.6667 62.9983C44.9733 62.9983 44.28 62.7049 43.7733 62.2249C43.2933 61.7183 43 61.0249 43 60.3316C43 59.6383 43.2933 58.9449 43.7733 58.4383C44.3867 57.8249 45.32 57.5316 46.2 57.7183C46.36 57.7449 46.52 57.7983 46.68 57.8783C46.84 57.9316 47 58.0116 47.16 58.1183C47.2933 58.2249 47.4267 58.3316 47.56 58.4383C48.04 58.9449 48.3333 59.6383 48.3333 60.3316C48.3333 61.0249 48.04 61.7183 47.56 62.2249ZM56.8933 62.2249C56.3867 62.7049 55.6933 62.9983 55 62.9983C54.3067 62.9983 53.6133 62.7049 53.1067 62.2249C52.6267 61.7183 52.3333 61.0249 52.3333 60.3316C52.3333 59.6383 52.6267 58.9449 53.1067 58.4383C54.12 57.4516 55.9067 57.4516 56.8933 58.4383C57.3733 58.9449 57.6667 59.6383 57.6667 60.3316C57.6667 61.0249 57.3733 61.7183 56.8933 62.2249Z" fill="white"/>
<defs>
<linearGradient id="paint0_linear_416_18299" x1="55" y1="0" x2="55" y2="110" gradientUnits="userSpaceOnUse">
<stop stop-color="#5E0303"/>
<stop offset="1" stop-color="#8A0202"/>
</linearGradient>
</defs>
</svg>
