<svg width="123" height="74" viewBox="0 0 123 74" fill="none" xmlns="http://www.w3.org/2000/svg">
<path d="M108.5 26.496C114.858 26.4958 117.68 26.6794 119.492 26.8231C120.883 26.9334 122 28.1023 122 29.4726C122 30.8549 120.865 31.9705 119.482 31.9489L101.22 31.6645C94.941 31.5667 89.3405 27.69 87.0389 21.8475L85.7341 18.5354C84.8708 16.344 83.4734 14.4033 81.6688 12.8898L76.7411 8.75691C75.7557 7.93047 75.1152 7.13669 74.7642 6.47304C74.4018 5.78762 74.3911 5.33019 74.4831 5.10746C74.5457 4.95571 74.7213 4.77197 75.2656 4.82494C75.8227 4.87915 76.6482 5.18829 77.7206 5.91095C78.3346 6.32476 79.0677 6.60238 79.8489 6.89821C79.9156 6.92347 79.9827 6.94886 80.05 6.97447C80.9232 7.3066 81.9096 7.69676 83.0334 8.35408C85.2745 9.66496 88.1155 12.0706 91.584 17.2734L91.5993 17.2963C93.3363 19.9019 94.5952 21.7902 95.6622 23.1418C96.7347 24.5002 97.6505 25.3663 98.7197 25.8837C99.789 26.4011 100.957 26.5427 102.469 26.5664C103.224 26.5782 104.081 26.5605 105.067 26.5401L105.074 26.5399C106.065 26.5194 107.193 26.496 108.5 26.496Z" fill="#FF4040" stroke="#FF4040"/>
<path d="M14 26.4999C7.64218 26.4997 4.81991 26.6834 3.00833 26.827C1.61652 26.9374 0.500001 28.1063 0.500001 29.4765C0.500001 30.8588 1.63479 31.9744 3.01817 31.9528L21.2801 31.6684C27.559 31.5706 33.1595 27.694 35.4611 21.8514L36.7659 18.5393C37.6292 16.3479 39.0266 14.4072 40.8312 12.8937L45.7589 8.76082C46.7443 7.93437 47.3848 7.14059 47.7358 6.47695C48.0982 5.79153 48.1089 5.3341 48.0169 5.11137C47.9543 4.95961 47.7787 4.77587 47.2344 4.82885C46.6773 4.88306 45.8518 5.1922 44.7794 5.91486C44.1654 6.32867 43.4323 6.60628 42.6511 6.90212C42.5844 6.92737 42.5173 6.95276 42.45 6.97838C41.5768 7.31051 40.5904 7.70067 39.4666 8.35799C37.2255 9.66886 34.3845 12.0745 30.916 17.2773L30.9007 17.3002C29.1637 19.9058 27.9048 21.7941 26.8378 23.1457C25.7653 24.5042 24.8495 25.3702 23.7803 25.8876C22.711 26.405 21.5434 26.5466 20.0313 26.5703C19.276 26.5822 18.4188 26.5644 17.4333 26.544L17.4262 26.5438C16.4349 26.5233 15.3067 26.5 14 26.4999Z" fill="#FF4040" stroke="#FF4040"/>
<rect x="26.5" y="2.5" width="69" height="69" rx="34.5" fill="#00002C"/>
<rect x="26.5" y="2.5" width="69" height="69" rx="34.5" stroke="#FF4040" stroke-width="5"/>
<path d="M55 27V29H67.59L51 45.59L52.41 47L69 30.41V43H71V27H55Z" fill="#FF4040" stroke="#FF4040" stroke-width="0.5"/>
</svg>
