<svg width="38" height="38" viewBox="0 0 38 38" fill="none" xmlns="http://www.w3.org/2000/svg">
<rect x="0.5" y="0.5" width="37" height="37" rx="18.5" stroke="white" stroke-opacity="0.25"/>
<g clip-path="url(#clip0_414_4454)">
<g clip-path="url(#clip1_414_4454)">
<g clip-path="url(#clip2_414_4454)">
<path opacity="0.7" d="M19.926 16.8799H23.726L23.3038 18.5687H19.926V26.1687H18.2372V18.5687H14.8594V16.8799H18.2372V15.2991C18.2372 13.7934 18.3942 13.2471 18.6881 12.6965C18.976 12.1525 19.4209 11.7076 19.9649 11.4197C20.5155 11.1258 21.0618 10.9688 22.5675 10.9688C23.0083 10.9688 23.395 11.011 23.726 11.0954V12.6576H22.5675C21.4494 12.6576 21.1091 12.7235 20.762 12.9093C20.5053 13.0461 20.3145 13.2369 20.1777 13.4936C19.9919 13.8407 19.926 14.181 19.926 15.2991V16.8799Z" fill="white" stroke="white" stroke-width="0.8"/>
</g>
</g>
</g>
<defs>
<clipPath id="clip0_414_4454">
<rect width="11" height="17" fill="white" transform="translate(13.5 10.5)"/>
</clipPath>
<clipPath id="clip1_414_4454">
<rect width="11" height="17" fill="white" transform="translate(13.5 10.5)"/>
</clipPath>
<clipPath id="clip2_414_4454">
<rect width="11" height="17" fill="white" transform="translate(13.5 10.5)"/>
</clipPath>
</defs>
</svg>
