<svg width="38" height="38" viewBox="0 0 38 38" fill="none" xmlns="http://www.w3.org/2000/svg">
<rect x="0.5" y="0.5" width="37" height="37" rx="18.5" stroke="white"/>
<g clip-path="url(#clip0_585_1047)">
<g clip-path="url(#clip1_585_1047)">
<path d="M23.3171 14.0691C23.1339 14.0691 22.9548 14.1234 22.8025 14.2252C22.6502 14.327 22.5314 14.4717 22.4613 14.6409C22.3912 14.8102 22.3729 14.9964 22.4086 15.1761C22.4443 15.3558 22.5325 15.5208 22.6621 15.6503C22.7917 15.7799 22.9567 15.8681 23.1364 15.9038C23.316 15.9396 23.5023 15.9212 23.6715 15.8511C23.8408 15.781 23.9854 15.6623 24.0872 15.51C24.189 15.3577 24.2433 15.1786 24.2433 14.9954C24.2433 14.7497 24.1458 14.5141 23.972 14.3404C23.7983 14.1667 23.5627 14.0691 23.3171 14.0691ZM26.8677 15.9371C26.8527 15.2966 26.7328 14.663 26.5126 14.0614C26.3164 13.5467 26.0109 13.0806 25.6173 12.6952C25.235 12.2995 24.7679 11.996 24.251 11.8075C23.651 11.5807 23.0167 11.458 22.3754 11.4447C21.5572 11.3984 21.2948 11.3984 19.1953 11.3984C17.0958 11.3984 16.8334 11.3984 16.0152 11.4447C15.3739 11.458 14.7395 11.5807 14.1395 11.8075C13.6237 11.9979 13.1569 12.3012 12.7733 12.6952C12.3777 13.0774 12.0741 13.5446 11.8857 14.0614C11.6588 14.6614 11.5362 15.2957 11.5229 15.9371C11.4766 16.7553 11.4766 17.0177 11.4766 19.1172C11.4766 21.2167 11.4766 21.4791 11.5229 22.2973C11.5362 22.9386 11.6588 23.573 11.8857 24.173C12.0741 24.6898 12.3777 25.157 12.7733 25.5392C13.1569 25.9332 13.6237 26.2364 14.1395 26.4268C14.7395 26.6537 15.3739 26.7763 16.0152 26.7896C16.8334 26.8359 17.0958 26.8359 19.1953 26.8359C21.2948 26.8359 21.5572 26.8359 22.3754 26.7896C23.0167 26.7763 23.651 26.6537 24.251 26.4268C24.7679 26.2384 25.235 25.9348 25.6173 25.5392C26.0127 25.1552 26.3184 24.6887 26.5126 24.173C26.7328 23.5713 26.8527 22.9378 26.8677 22.2973C26.8677 21.4791 26.914 21.2167 26.914 19.1172C26.914 17.0177 26.914 16.7553 26.8677 15.9371ZM25.4783 22.2047C25.4727 22.6947 25.384 23.1801 25.2159 23.6404C25.0926 23.9763 24.8947 24.2798 24.637 24.528C24.3866 24.7832 24.0837 24.9807 23.7493 25.1069C23.2891 25.275 22.8036 25.3637 22.3136 25.3694C21.5418 25.408 21.2562 25.4157 19.2262 25.4157C17.1962 25.4157 16.9106 25.4157 16.1387 25.3694C15.6299 25.3789 15.1234 25.3005 14.6412 25.1378C14.3215 25.0052 14.0325 24.8081 13.7922 24.5589C13.536 24.311 13.3405 24.0072 13.221 23.6712C13.0325 23.2044 12.928 22.7079 12.9122 22.2047C12.9122 21.4328 12.8659 21.1472 12.8659 19.1172C12.8659 17.0872 12.8659 16.8016 12.9122 16.0297C12.9157 15.5288 13.0071 15.0324 13.1824 14.5631C13.3183 14.2373 13.5269 13.9469 13.7922 13.7141C14.0267 13.4487 14.3165 13.2379 14.6412 13.0966C15.1117 12.9268 15.6076 12.838 16.1078 12.8341C16.8797 12.8341 17.1653 12.7878 19.1953 12.7878C21.2253 12.7878 21.5109 12.7878 22.2828 12.8341C22.7728 12.8397 23.2582 12.9285 23.7185 13.0966C24.0692 13.2267 24.384 13.4384 24.637 13.7141C24.89 13.9512 25.0876 14.241 25.2159 14.5631C25.3875 15.0331 25.4763 15.5293 25.4783 16.0297C25.5169 16.8016 25.5246 17.0872 25.5246 19.1172C25.5246 21.1472 25.5169 21.4328 25.4783 22.2047ZM19.1953 15.1575C18.4125 15.159 17.6477 15.3925 16.9975 15.8285C16.3474 16.2646 15.841 16.8835 15.5425 17.6072C15.244 18.3309 15.1667 19.1268 15.3203 19.8944C15.474 20.662 15.8517 21.3668 16.4058 21.9198C16.9599 22.4729 17.6655 22.8493 18.4334 23.0014C19.2013 23.1536 19.997 23.0746 20.7201 22.7747C21.4432 22.4748 22.0612 21.9673 22.4959 21.3163C22.9306 20.6653 23.1627 19.9 23.1627 19.1172C23.1637 18.5963 23.0617 18.0803 22.8626 17.5989C22.6636 17.1175 22.3712 16.6802 22.0025 16.3122C21.6338 15.9442 21.1959 15.6528 20.7142 15.4546C20.2324 15.2564 19.7162 15.1554 19.1953 15.1575ZM19.1953 21.6875C18.6869 21.6875 18.19 21.5368 17.7673 21.2544C17.3446 20.9719 17.0152 20.5705 16.8206 20.1008C16.6261 19.6311 16.5752 19.1143 16.6744 18.6157C16.7735 18.1171 17.0183 17.6591 17.3778 17.2997C17.7373 16.9402 18.1953 16.6954 18.6939 16.5962C19.1925 16.4971 19.7093 16.548 20.1789 16.7425C20.6486 16.937 21.05 17.2665 21.3324 17.6892C21.6148 18.1119 21.7656 18.6088 21.7656 19.1172C21.7656 19.4547 21.6991 19.789 21.57 20.1008C21.4408 20.4127 21.2514 20.696 21.0128 20.9347C20.7741 21.1734 20.4908 21.3627 20.1789 21.4919C19.8671 21.621 19.5329 21.6875 19.1953 21.6875Z" fill="white"/>
</g>
</g>
<defs>
<clipPath id="clip0_585_1047">
<rect width="17" height="16" fill="white" transform="translate(10.5 11)"/>
</clipPath>
<clipPath id="clip1_585_1047">
<rect width="17" height="16" fill="white" transform="translate(10.5 11)"/>
</clipPath>
</defs>
</svg>
